<?xml version="1.0" encoding="UTF-8"?>
<svg xmlns="http://www.w3.org/2000/svg" xmlns:xlink="http://www.w3.org/1999/xlink" width="76px" height="76px" viewBox="0 0 76 76" version="1.1">
    <g id="" stroke="none" stroke-width="1" fill="none" fill-rule="evenodd">
        <g id="" transform="translate(-664.000000, -439.000000)">
            <g id="" transform="translate(647.000000, 400.000000)">
                <g id="" transform="translate(10.000000, 18.000000)">
                    <g id="" transform="translate(7.000000, 21.000000)">
                        <g id="" transform="translate(3.000000, 3.000000)">
                            <rect id="" fill="#5FC5FF" x="0" y="0" width="70" height="70" rx="30"/>
                            <g id="" transform="translate(15.000000, 15.000000)" fill="#FFFFFF" fill-rule="nonzero">
                                <g id="" transform="translate(1.666667, 1.666667)">
                                    <path d="M19.1666667,0.25 C19.448562,0.25 19.6837551,0.44995616 19.7381487,0.71577132 L19.75,0.833333333 L19.7493333,17.999 L36.9166667,18 C37.2388328,18 37.5,18.2611672 37.5,18.5833333 C37.5,18.8652287 37.3000438,19.1004218 37.0342287,19.1548154 L36.9166667,19.1666667 L19.7493333,19.166 L19.75,35.8333333 C19.75,36.1554994 19.4888328,36.4166667 19.1666667,36.4166667 C18.8847713,36.4166667 18.6495782,36.2167105 18.5951846,35.9508953 L18.5833333,35.8333333 L18.5833333,19.166 L1.91666667,19.1666667 C1.59450056,19.1666667 1.33333333,18.9054994 1.33333333,18.5833333 C1.33333333,18.301438 1.53328949,18.0662449 1.79910465,18.0118513 L1.91666667,18 L18.5833333,17.999 L18.5833333,0.833333333 C18.5833333,0.511167229 18.8445006,0.25 19.1666667,0.25 Z"/>
                                </g>
                            </g>
                        </g>
                    </g>
                </g>
            </g>
        </g>
    </g>
</svg>