<?xml version="1.0" encoding="UTF-8"?>
<svg width="24px" height="24px" viewBox="0 0 24 24" version="1.1" xmlns="http://www.w3.org/2000/svg" xmlns:xlink="http://www.w3.org/1999/xlink">
    <title>Visible/Yes-SVG</title>
    <g id="Symbols" stroke="none" stroke-width="1" fill="none" fill-rule="evenodd">
        <g id="Elements/Graphics/Style3/Visible/Yes/Black" fill="#1268B3" fill-rule="nonzero">
            <g id="view" transform="translate(0.000000, 5.000000)">
                <path d="M20.4248,3.8244 C15.6692,-0.9312 7.932,-0.9312 3.1764,3.8244 L0,7.0004 L3.2552,10.2556 C5.6328,12.6332 8.756,13.8224 11.8796,13.8224 C15.0032,13.8224 18.126,12.6336 20.504,10.2556 L23.6804,7.0792 L20.4248,3.8244 Z M19.938,9.69 C15.4944,14.1332 8.2644,14.1332 3.8208,9.69 L1.1312,7.0004 L3.742,4.3896 C8.1856,-0.0536 15.4156,-0.0536 19.8592,4.3896 L22.5488,7.0792 L19.938,9.69 Z" id="Shape"></path>
                <path d="M11.4288,3.828 C9.8848,3.828 8.6288,5.084 8.6288,6.628 C8.6288,6.8488 8.808,7.028 9.0288,7.028 C9.2496,7.028 9.4288,6.8488 9.4288,6.628 C9.4288,5.5252 10.326,4.628 11.4288,4.628 C11.6496,4.628 11.8288,4.4488 11.8288,4.228 C11.8288,4.0072 11.65,3.828 11.4288,3.828 Z" id="Path"></path>
                <path d="M11.8288,1.828 C8.9616,1.828 6.6288,4.1608 6.6288,7.028 C6.6288,9.8952 8.9616,12.228 11.8288,12.228 C14.696,12.228 17.0288,9.8952 17.0288,7.028 C17.0288,4.1608 14.6964,1.828 11.8288,1.828 Z M11.8288,11.428 C9.4028,11.428 7.4288,9.454 7.4288,7.028 C7.4288,4.602 9.4028,2.628 11.8288,2.628 C14.2548,2.628 16.2288,4.602 16.2288,7.028 C16.2288,9.454 14.2552,11.428 11.8288,11.428 Z" id="Shape"></path>
            </g>
        </g>
    </g>
</svg>