<?xml version="1.0" encoding="UTF-8"?>
<svg width="24px" height="24px" viewBox="0 0 24 24" version="1.1" xmlns="http://www.w3.org/2000/svg" xmlns:xlink="http://www.w3.org/1999/xlink">
    <title>6FE1A898-C86F-4E02-A2BF-32E38867ED2A</title>
    <g id="😀-F-CREATE-PASSWORD" stroke="none" stroke-width="1" fill="none" fill-rule="evenodd">
        <g id="F-01-ConditionOneFulfilled" transform="translate(-796.000000, -258.000000)" fill="#1268B3" fill-rule="nonzero">
            <g id="Enter-Password" transform="translate(454.000000, 220.000000)">
                <g id="Compounds/Inputs/Elements/TextBox/Error" transform="translate(0.000000, 30.000000)">
                    <g id="Group" transform="translate(10.000000, 8.000000)">
                        <g id="Elements/Graphics/Style3/Calendar/Colour" transform="translate(332.000000, 0.000000)">
                            <g id="hide" transform="translate(0.000000, 2.000000)">
                                <path d="M4.514,14.556 C4.5876,14.6144 4.6756,14.6432 4.7632,14.6432 C4.8808,14.6432 4.9972,14.5916 5.0764,14.4924 C5.214,14.3196 5.1856,14.068 5.0128,13.9304 C4.6924,13.6752 4.382,13.398 4.0908,13.1064 L1.1316,10.1472 L4.1832,7.0956 C7.1168,4.1624 11.3844,3.1612 15.3188,4.482 C15.528,4.5512 15.7548,4.4392 15.8256,4.23 C15.8956,4.0208 15.7832,3.7936 15.5736,3.7232 C11.3488,2.3052 6.7672,3.3804 3.6176,6.5296 L0,10.1472 L3.5248,13.672 C3.8372,13.9848 4.1704,14.282 4.514,14.556 Z" id="Path"></path>
                                <path d="M20.0948,6.53 C19.5556,5.9908 18.9644,5.5044 18.3372,5.0836 C18.154,4.9608 17.9048,5.0096 17.782,5.1928 C17.6588,5.376 17.708,5.6248 17.8912,5.748 C18.4752,6.1396 19.0264,6.5932 19.5288,7.0956 L22.488,10.0548 L19.4364,13.1064 C16.4824,16.0604 12.0312,17.0592 8.0956,15.6488 C7.8876,15.574 7.6584,15.6824 7.584,15.8904 C7.5096,16.0984 7.6176,16.3272 7.8256,16.402 C9.0984,16.858 10.4216,17.0792 11.736,17.0792 C14.7844,17.0792 17.7856,15.8884 20.002,13.672 L23.6192,10.0548 L20.0948,6.53 Z" id="Path"></path>
                                <path d="M12.2156,14.7096 C11.3544,14.7096 10.5152,14.4704 9.7876,14.0176 C9.6008,13.9016 9.354,13.9584 9.2368,14.146 C9.12,14.3336 9.1776,14.58 9.3652,14.6968 C10.2192,15.2288 11.2052,15.5096 12.2156,15.5096 C15.1932,15.5096 17.6156,13.0872 17.6156,10.1096 C17.6156,9.0356 17.3008,7.998 16.7056,7.1088 C16.5824,6.9252 16.3336,6.876 16.1508,6.9988 C15.9672,7.122 15.918,7.3704 16.0408,7.5536 C16.5476,8.3108 16.8156,9.1944 16.8156,10.1096 C16.8156,12.6464 14.752,14.7096 12.2156,14.7096 Z" id="Path"></path>
                                <path d="M12.2156,5.5096 C13.0416,5.5096 13.8512,5.7308 14.5576,6.1496 C14.7472,6.262 14.9928,6.1996 15.1056,6.0092 C15.218,5.8192 15.1556,5.574 14.9652,5.4612 C14.1356,4.9696 13.1848,4.7096 12.2152,4.7096 C9.2376,4.7096 6.8152,7.132 6.8152,10.1096 C6.8152,10.9432 7,11.7428 7.3648,12.486 C7.4344,12.6276 7.5764,12.71 7.7244,12.71 C7.7832,12.71 7.8436,12.6968 7.9,12.6692 C8.0984,12.5716 8.1804,12.332 8.0832,12.134 C7.7728,11.5012 7.6152,10.8204 7.6152,10.11 C7.6156,7.5732 9.6792,5.5096 12.2156,5.5096 Z" id="Path"></path>
                                <path d="M21.8484,0.2268 C21.692,0.0704 21.4392,0.0704 21.2828,0.2268 L2.6828,18.8268 C2.5264,18.9832 2.5264,19.236 2.6828,19.3924 C2.7608,19.4704 2.8632,19.5096 2.9656,19.5096 C3.068,19.5096 3.1704,19.4704 3.2484,19.3924 L21.8484,0.7924 C22.0048,0.6364 22.0048,0.3832 21.8484,0.2268 Z" id="Path"></path>
                            </g>
                        </g>
                    </g>
                </g>
            </g>
        </g>
    </g>
</svg>