<?xml version="1.0" encoding="UTF-8"?>
<svg width="72px" height="72px" viewBox="0 0 72 72" version="1.1" xmlns="http://www.w3.org/2000/svg" xmlns:xlink="http://www.w3.org/1999/xlink">
    <title>Onboarding/AddProfile-SVG</title>
    <g id="Symbols" stroke="none" stroke-width="1" fill="none" fill-rule="evenodd">
        <g id="Onboarding/AddProfile">
            <rect id="Mask" fill-opacity="0.15" fill="#000000" x="0" y="0" width="72" height="72" rx="31"></rect>
            <g transform="translate(20.000000, 20.000000)" fill="#202020" fill-rule="nonzero" id="Combined-Shape">
                <path d="M16.7083333,0.629166667 C16.9479444,0.629166667 17.1478585,0.799129403 17.1940931,1.02507229 L17.2041667,1.125 L17.204,15.7161667 L31.7958333,15.7166667 C32.0696745,15.7166667 32.2916667,15.9386588 32.2916667,16.2125 C32.2916667,16.452111 32.1217039,16.6520252 31.895761,16.6982598 L31.7958333,16.7083333 L17.204,16.7081667 L17.2041667,30.875 C17.2041667,31.1488412 16.9821745,31.3708333 16.7083333,31.3708333 C16.4687223,31.3708333 16.2688082,31.2008706 16.2225736,30.9749277 L16.2125,30.875 L16.212,16.7081667 L2.04583333,16.7083333 C1.77199214,16.7083333 1.55,16.4863412 1.55,16.2125 C1.55,15.972889 1.71996274,15.7729748 1.94590562,15.7267402 L2.04583333,15.7166667 L16.212,15.7161667 L16.2125,1.125 C16.2125,0.851158812 16.4344921,0.629166667 16.7083333,0.629166667 Z"></path>
            </g>
        </g>
    </g>
</svg>