<?xml version="1.0" encoding="UTF-8"?>
<svg width="80px" height="80px" viewBox="0 0 80 80" version="1.1" xmlns="http://www.w3.org/2000/svg" xmlns:xlink="http://www.w3.org/1999/xlink">
    <title></title>
    <g id="Today--------------------------------------------" stroke="none" stroke-width="1" fill="none" fill-rule="evenodd">
        <g id="A---Listing-Page---Type-1" transform="translate(-1182.000000, -120.000000)">
            <g id="Background" transform="translate(0.000000, 100.000000)">
                <g id="Group-2" transform="translate(1182.000000, 20.000000)">
                    <path d="M42.7450303,0 C63.3223855,0 80,16.6768082 80,37.250726 L80,42.7465081 C80,63.3204259 63.3223855,80 42.7450303,80 L37.2549697,80 C16.6776145,80 0,63.3204259 0,42.7465081 L0,37.250726 C0,16.6768082 16.6776145,0 37.2549697,0 L42.7450303,0 Z" id="Fill-35" fill="#00A4FF"></path>
                    <g id="Group" transform="translate(6.451613, 24.516129)">
                        <path d="M64.1597504,-3.51126129e-15 L64.5139688,-3.51126129e-15 C65.8416187,-3.51126129e-15 66.9176575,1.05767357 66.9176575,2.36250893 L66.9176575,2.71106145 C66.9176575,4.01589681 65.8416187,5.07374579 64.5139688,5.07374579 L64.1597504,5.07374579 C62.8321005,5.07374579 61.7560617,4.01589681 61.7560617,2.71106145 L61.7560617,2.36250893 C61.7560617,1.05767357 62.8321005,-3.51126129e-15 64.1597504,-3.51126129e-15" id="Fill-35" fill="#000000"></path>
                        <path d="M5.35675567e-15,18.1417461 L4.18200785,16.5409831 C4.756609,17.9846606 5.96969553,18.6752753 7.53405608,18.6752753 C8.97046974,18.6752753 9.73699124,18.0163233 9.73699124,17.2628219 C9.73699124,16.4156481 8.17263069,16.1644517 6.32096956,15.8195829 C3.44769613,15.3172779 0.574511927,14.3442428 0.574511927,10.9867717 C0.574511927,8.35052534 3.16039555,5.99678723 7.11880861,6.05967403 C10.6945409,6.05967403 12.7376762,7.50335152 13.8868785,9.7000919 L10.0242918,11.3003286 C9.60895512,10.2649329 8.52390471,9.57423059 7.08704494,9.57423059 C5.65063129,9.57423059 5.01205669,10.1707343 5.01205669,10.8609103 C5.01205669,11.551525 5.93793186,11.8027213 8.33189514,12.2733637 C11.0136051,12.8068929 14.1105625,13.7482653 14.1105625,17.1373991 C14.1105625,19.4283381 11.9394803,22.4409405 7.34258185,22.3780537 C3.4794598,22.3780537 1.14911308,20.9032398 5.35675567e-15,18.1417461" id="Fill-36" fill="#FFFFFF"></path>
                        <path d="M14.7279911,6.37331867 L17.2894274,6.37331867 L17.2894274,2.70167666 L21.6629987,0.347938556 L21.6629987,6.37331867 L24.6637729,6.37331867 L24.6637729,10.2331825 L21.6629987,10.2331825 L21.6629987,15.2230793 C21.6629987,17.671016 21.982063,18.0474597 24.6637729,18.0474597 L24.6637729,22.064409 L24.0251983,22.064409 C18.9495251,22.064409 17.2894274,20.3696229 17.2894274,15.2543911 L17.2894274,10.2331825 L14.7279911,10.2331825 L14.7279911,6.37331867" id="Fill-37" fill="#FFFFFF"></path>
                        <path d="M26.3931975,15.944918 L26.3931975,6.37331867 L30.8308315,6.37331867 L30.8308315,15.3801647 C30.8308315,17.4827941 31.8201448,18.7064994 33.7676322,18.7064994 C35.4277299,18.7064994 36.800527,17.5769051 36.800527,14.9407465 L36.800527,6.37331867 L41.1741875,6.37331867 L41.1741875,22.064409 L36.8322907,22.064409 L36.8322907,20.3383988 C35.7790039,21.5937667 34.2468532,22.3780537 32.4269557,22.3780537 C28.65966,22.3780537 26.3931975,19.9930914 26.3931975,15.944918" id="Fill-38" fill="#FFFFFF"></path>
                        <path d="M55.6867032,14.1876836 C55.6867032,11.8651696 53.9625429,9.9825124 51.6003433,9.9825124 C49.1741702,9.9825124 47.3225091,11.770971 47.3225091,14.1876836 C47.3225091,16.6038699 49.1741702,18.4240789 51.6003433,18.4240789 C53.9625429,18.4240789 55.6867032,16.509759 55.6867032,14.1876836 Z M43.0446749,14.2189077 C43.0446749,8.66416997 47.1950083,6.05967403 50.8020581,6.05967403 C52.8774032,6.05967403 54.5052911,6.81273691 55.5591132,7.91110709 L55.5591132,0.347938556 L59.9332199,0.347938556 L59.9332199,22.064409 L55.5591132,22.064409 L55.5591132,20.3071746 C54.5052911,21.5308799 52.8134298,22.3780537 50.7385308,22.3780537 C47.3542727,22.3780537 43.0446749,19.7424213 43.0446749,14.2189077 L43.0446749,14.2189077 Z" id="Fill-39" fill="#FFFFFF"></path>
                        <polygon id="Fill-40" fill="#FFFFFF" points="62.1504308 22.064409 66.5241806 22.064409 66.5241806 6.37331867 62.1504308 6.37331867"></polygon>
                        <g id="Group-3" transform="translate(42.580645, 24.516129)" fill="#0A0B09">
                            <path d="M1.64156847,4.55012765 L1.64156847,6.42006715 L2.78077771,6.42006715 C3.62519157,6.42006715 4.05239504,6.08011005 4.05239504,5.48018574 C4.05239504,4.88008602 3.7472497,4.55012765 2.71992709,4.55012765 L1.64156847,4.55012765 Z M1.64156847,1.62014646 L1.64156847,3.28011245 L2.59769051,3.28011245 C3.48279042,3.28011245 3.78793575,2.93015661 3.78793575,2.41022221 C3.78793575,1.86011618 3.45227588,1.62014646 2.59769051,1.62014646 L1.64156847,1.62014646 Z M0.258064516,0.370128738 L2.59769051,0.370128738 C4.25582526,0.370128738 5.18161121,1.06004169 5.18161121,2.41022221 C5.18161121,3.04014273 4.90698041,3.52008218 4.36789033,3.83004307 C5.05955308,4.14017937 5.4460705,4.70010873 5.4460705,5.51018196 C5.4460705,6.95017571 4.41874788,7.67008487 2.78077771,7.67008487 L0.258064516,7.67008487 L0.258064516,0.370128738 L0.258064516,0.370128738 Z" id="Fill-58"></path>
                            <path d="M7.44802008,4.09018568 L10.8249618,4.09018568 C10.6215315,3.30010993 10.0112409,2.89016165 9.15647704,2.89016165 C8.33383378,2.89016165 7.69213635,3.3701011 7.44802008,4.09018568 Z M6.06451613,4.76010116 C6.06451613,3.05014147 7.41750555,1.70013637 9.15647704,1.70013637 C10.9266769,1.70013637 12.2186372,2.9801503 12.2186372,4.71010747 L12.2186372,5.22004312 L7.3768195,5.22004312 C7.57007821,6.05011383 8.23140488,6.60004444 9.20822684,6.60004444 C9.98090478,6.60004444 10.5715662,6.20009491 10.8552978,5.56999897 L11.9848709,6.21009365 C11.4655885,7.16014921 10.5501525,7.79024515 9.20822684,7.79024515 C7.33613346,7.79024515 6.06451613,6.45006337 6.06451613,4.76010116 L6.06451613,4.76010116 Z" id="Fill-59"></path>
                            <path d="M12.3870968,1.82012123 L13.4042479,1.82012123 L13.4042479,0.93005809 L14.7872165,-3.20890268e-13 L14.7872165,1.82012123 L15.997091,1.82012123 L15.997091,3.03014399 L14.7872165,3.03014399 L14.7872165,5.22004312 C14.7872165,6.24008986 14.9406814,6.40006968 15.997091,6.40006968 L15.997091,7.67008487 L15.8043676,7.67008487 C13.9627888,7.67008487 13.4042479,7.08998263 13.4042479,5.23021728 L13.4042479,3.03014399 L12.3870968,3.03014399 L12.3870968,1.82012123" id="Fill-60"></path>
                            <path d="M21.7082686,4.73010494 C21.7082686,3.73005568 20.9552199,2.93015661 19.9291465,2.93015661 C18.9102109,2.93015661 18.1286105,3.72023236 18.1286105,4.73010494 C18.1286105,5.75015168 18.9102109,6.55005075 19.9291465,6.55005075 C20.9552199,6.55005075 21.7082686,5.74015294 21.7082686,4.73010494 Z M16.7741935,4.75027784 C16.7741935,2.81017175 18.2196188,1.70013637 19.7257162,1.70013637 C20.5073166,1.70013637 21.1996931,2.01009726 21.6368896,2.52020833 L21.6368896,1.82012123 L23.0109359,1.82012123 L23.0109359,7.67008487 L21.6368896,7.67008487 L21.6368896,6.91000534 C21.1996931,7.46011137 20.4876873,7.79024515 19.7043025,7.79024515 C18.2695841,7.79024515 16.7741935,6.67021103 16.7741935,4.75027784 L16.7741935,4.75027784 Z" id="Fill-61"></path>
                        </g>
                    </g>
                </g>
            </g>
        </g>
    </g>
</svg>