<?xml version="1.0" encoding="UTF-8"?>
<svg width="16px" height="16px" viewBox="0 0 16 16" version="1.1" xmlns="http://www.w3.org/2000/svg" xmlns:xlink="http://www.w3.org/1999/xlink">
    <title>9EB5D086-5A2B-4D71-9BC4-AAFDB3474943</title>
    <g id="Latest-Onbaording" stroke="none" stroke-width="1" fill="none" fill-rule="evenodd">
        <g id="DES---4.7---Create-password" transform="translate(-909.000000, -380.000000)">
            <g id="Password-help-check-1" transform="translate(909.000000, 380.000000)">
                <g id="Answered/FillColour" transform="translate(2.000000, 2.000000)">
                    <path d="M6,0 C2.69169231,0 0,2.69146154 0,6 C0,9.30853846 2.69169231,12 6,12 C9.30830769,12 12,9.30853846 12,6 C12,2.69146154 9.30830769,0 6,0 Z" id="Shape" fill="#07D600"></path>
                    <path d="M8.82738462,3.53907692 L5.28069231,7.52907692 L3.144,5.81976923 C3.04476923,5.74015385 2.89915385,5.75653846 2.81976923,5.85576923 C2.74015385,5.95546154 2.75630769,6.10061538 2.85576923,6.18023077 L5.16346154,8.02638462 C5.20592308,8.06030769 5.25692308,8.07692308 5.30769231,8.07692308 C5.37138462,8.07692308 5.43484615,8.05061538 5.48030769,7.99938462 L9.17261538,3.84553846 C9.25730769,3.75046154 9.24876923,3.60438462 9.15346154,3.51992308 C9.05792308,3.435 8.91230769,3.44353846 8.82738462,3.53907692 Z" id="Path" fill="#FFFFFF" fill-rule="nonzero"></path>
                </g>
            </g>
        </g>
    </g>
</svg>