<?xml version="1.0" encoding="UTF-8"?>
<svg width="40px" height="40px" viewBox="0 0 40 40" version="1.1" xmlns="http://www.w3.org/2000/svg" xmlns:xlink="http://www.w3.org/1999/xlink">
    <title></title>
    <defs>
        <filter id="filter-1">
            <feColorMatrix in="SourceGraphic" type="matrix" values="0 0 0 0 0.070588 0 0 0 0 0.407843 0 0 0 0 0.701961 0 0 0 1.000000 0"></feColorMatrix>
        </filter>
    </defs>
    <g id="" stroke="none" stroke-width="1" fill="none" fill-rule="evenodd">
        <g id="K-06-PaymentSuccessful" transform="translate(-38.000000, -375.000000)">
            <g id="Print/Black" transform="translate(38.000000, 375.000000)">
                <circle id="Oval" fill-opacity="0.06" fill="#1268B3" fill-rule="nonzero" cx="20" cy="20" r="16"></circle>
                <g filter="url(#filter-1)" fill-opacity="0.8">
                    <g transform="translate(11.000000, 11.000000)">
                        <path d="M15,9.6 C15.8271,9.6 16.5,8.9271 16.5,8.1 C16.5,7.2729 15.8271,6.6 15,6.6 C14.1729,6.6 13.5,7.2729 13.5,8.1 C13.5,8.9271 14.1729,9.6 15,9.6 Z M15,7.2 C15.4962,7.2 15.9,7.6038 15.9,8.1 C15.9,8.5962 15.4962,9 15,9 C14.5038,9 14.1,8.5962 14.1,8.1 C14.1,7.6038 14.5038,7.2 15,7.2 Z" id="Shape" fill="#0073C1" fill-rule="nonzero"></path>
                        <path d="M12.6,12.9 L5.4,12.9 C5.2341,12.9 5.1,13.0341 5.1,13.2 C5.1,13.3659 5.2341,13.5 5.4,13.5 L12.6,13.5 C12.7659,13.5 12.9,13.3659 12.9,13.2 C12.9,13.0341 12.7659,12.9 12.6,12.9 Z" id="Path" fill="#0073C1" fill-rule="nonzero"></path>
                        <path d="M12.6,14.4 L5.4,14.4 C5.2341,14.4 5.1,14.5341 5.1,14.7 C5.1,14.8659 5.2341,15 5.4,15 L12.6,15 C12.7659,15 12.9,14.8659 12.9,14.7 C12.9,14.5341 12.7659,14.4 12.6,14.4 Z" id="Path" fill="#0073C1" fill-rule="nonzero"></path>
                        <path d="M15.3,5.1 L15.3,0 L2.7,0 L2.7,5.1 L0,5.1 L0,15.3 L1.8,15.3 L1.8,16.2 L2.7,16.2 L2.7,18 L15.3,18 L15.3,16.2 L16.2,16.2 L16.2,15.3 L18,15.3 L18,5.1 L15.3,5.1 Z M3.3,0.6 L14.7,0.6 L14.7,5.1 L3.3,5.1 L3.3,0.6 Z M2.7,5.7 L15.3,5.7 L17.4,5.7 L17.4,10.5 L0.6,10.5 L0.6,5.7 L2.7,5.7 Z M2.4,15.6 L2.4,15 L2.4,14.7 L2.4,13.5 C2.4,13.3341 2.2659,13.2 2.1,13.2 C1.9341,13.2 1.8,13.3341 1.8,13.5 L1.8,14.7 L0.6,14.7 L0.6,11.1 L2.7,11.1 L2.7,15.6 L2.4,15.6 Z M14.7,17.4 L3.3,17.4 L3.3,16.2 L3.3,11.1 L14.7,11.1 L14.7,16.2 L14.7,17.4 Z M16.2,14.7 L16.2,13.5 C16.2,13.3341 16.0659,13.2 15.9,13.2 C15.7341,13.2 15.6,13.3341 15.6,13.5 L15.6,14.7 L15.6,15 L15.6,15.6 L15.3,15.6 L15.3,11.1 L17.4,11.1 L17.4,14.7 L16.2,14.7 Z" id="Shape" fill="#0073C1" fill-rule="nonzero"></path>
                    </g>
                </g>
            </g>
        </g>
    </g>
</svg>