<?xml version="1.0" encoding="UTF-8"?>
<svg width="40px" height="40px" viewBox="0 0 40 40" version="1.1" xmlns="http://www.w3.org/2000/svg" xmlns:xlink="http://www.w3.org/1999/xlink">
    <title></title>
    <g id="" stroke="none" stroke-width="1" fill="none" fill-rule="evenodd">
        <g id="K-06-PaymentSuccessful" transform="translate(-188.000000, -375.000000)" fill="#1268B3">
            <g id="erms&amp;Conditions/Colour" transform="translate(188.000000, 375.000000)">
                <circle id="Oval" fill-opacity="0.06" fill-rule="nonzero" cx="20" cy="20" r="16"></circle>
                <g id="list-1" transform="translate(12.000000, 12.000000)">
                    <path d="M6.24773333,4.53333333 L12.5333333,4.53333333 C12.6805333,4.53333333 12.8,4.41413333 12.8,4.26666667 C12.8,4.1192 12.6805333,4 12.5333333,4 L6.24773333,4 C6.10053333,4 5.98106667,4.1192 5.98106667,4.26666667 C5.98106667,4.41413333 6.10053333,4.53333333 6.24773333,4.53333333 Z" id="Path"></path>
                    <path d="M6.24773333,8.53333333 L12.5333333,8.53333333 C12.6805333,8.53333333 12.8,8.41413333 12.8,8.26666667 C12.8,8.1192 12.6805333,8 12.5333333,8 L6.24773333,8 C6.10053333,8 5.98106667,8.1192 5.98106667,8.26666667 C5.98106667,8.41413333 6.10053333,8.53333333 6.24773333,8.53333333 Z" id="Path"></path>
                    <path d="M6.24773333,12.5333333 L12.5333333,12.5333333 C12.6805333,12.5333333 12.8,12.4141333 12.8,12.2666667 C12.8,12.1192 12.6805333,12 12.5333333,12 L6.24773333,12 C6.10053333,12 5.98106667,12.1192 5.98106667,12.2666667 C5.98106667,12.4141333 6.10053333,12.5333333 6.24773333,12.5333333 Z" id="Path"></path>
                    <path d="M15.7333333,0 L0.266666667,0 C0.119466667,0 0,0.1192 0,0.266666667 L0,15.7333333 C0,15.8808 0.119466667,16 0.266666667,16 L15.7333333,16 C15.8805333,16 16,15.8808 16,15.7333333 L16,0.266666667 C16,0.1192 15.8805333,0 15.7333333,0 Z M15.4666667,15.4666667 L0.533333333,15.4666667 L0.533333333,0.533333333 L15.4666667,0.533333333 L15.4666667,15.4666667 Z" id="Shape"></path>
                    <circle id="Oval" cx="4" cy="4" r="1"></circle>
                    <circle id="Oval" cx="4" cy="8" r="1"></circle>
                    <circle id="Oval" cx="4" cy="12.2666667" r="1"></circle>
                </g>
            </g>
        </g>
    </g>
</svg>