<?xml version="1.0" encoding="UTF-8"?>
<svg width="200px" height="200px" viewBox="0 0 200 200" version="1.1" xmlns="http://www.w3.org/2000/svg" xmlns:xlink="http://www.w3.org/1999/xlink">
    <title></title>
    <g id="" stroke="none" stroke-width="1" fill="none" fill-rule="evenodd" opacity="0.9">
        <g id="" transform="translate(-960.000000, -5.000000)">
            <g id="" transform="translate(-16.000000, 0.000000)">
                <g id="" transform="translate(976.000000, 5.000000)">
                    <path d="M106.862576,0 C158.305964,0 200,41.6920205 200,93.1268151 L200,106.86627 C200,158.301065 158.305964,200 106.862576,200 L93.1374244,200 C41.6940363,200 0,158.301065 0,106.86627 L0,93.1268151 C0,41.6920205 41.6940363,0 93.1374244,0 L106.862576,0 Z" id="Fill-35" fill="#00A4FF"></path>
                    <g id="Group" transform="translate(16.129032, 61.290323)">
                        <path d="M160.399376,-8.77815322e-15 L161.284922,-8.77815322e-15 C164.604047,-8.77815322e-15 167.294144,2.64418392 167.294144,5.90627233 L167.294144,6.77765361 C167.294144,10.039742 164.604047,12.6843645 161.284922,12.6843645 L160.399376,12.6843645 C157.080251,12.6843645 154.390154,10.039742 154.390154,6.77765361 L154.390154,5.90627233 C154.390154,2.64418392 157.080251,-8.77815322e-15 160.399376,-8.77815322e-15" id="Fill-35" fill="#000000"></path>
                        <path d="M1.33918892e-14,45.3543652 L10.4550196,41.3524579 C11.8915225,44.9616516 14.9242388,46.6881882 18.8351402,46.6881882 C22.4261743,46.6881882 24.3424781,45.0408083 24.3424781,43.1570547 C24.3424781,41.0391202 20.4315767,40.4111293 15.8024239,39.5489574 C8.61924032,38.2931947 1.43627982,35.8606069 1.43627982,27.4669291 C1.43627982,20.8763133 7.90098888,14.9919681 17.7970215,15.1491851 C26.7363522,15.1491851 31.8441906,18.7583788 34.7171963,24.2502297 L25.0607295,28.2508215 C24.0223878,25.6623323 21.3097618,23.9355765 17.7176124,23.9355765 C14.1265782,23.9355765 12.5301417,25.4268357 12.5301417,27.1522759 C12.5301417,28.8788124 14.8448297,29.5068033 20.8297378,30.6834093 C27.5340128,32.0172322 35.2764064,34.3706633 35.2764064,42.8434978 C35.2764064,48.5708453 29.8487007,56.1023512 18.3564546,55.9451342 C8.69864949,55.9451342 2.8727827,52.2580994 1.33918892e-14,45.3543652" id="Fill-36" fill="#FFFFFF"></path>
                        <path d="M36.8199778,15.9332967 L43.2235686,15.9332967 L43.2235686,6.75419166 L54.1574968,0.869846389 L54.1574968,15.9332967 L61.6594324,15.9332967 L61.6594324,25.5829563 L54.1574968,25.5829563 L54.1574968,38.0576981 C54.1574968,44.17754 54.9551574,45.1186493 61.6594324,45.1186493 L61.6594324,55.1610226 L60.0629959,55.1610226 C47.3738127,55.1610226 43.2235686,50.9240572 43.2235686,38.1359777 L43.2235686,25.5829563 L36.8199778,25.5829563 L36.8199778,15.9332967" id="Fill-37" fill="#FFFFFF"></path>
                        <path d="M65.9829937,39.862295 L65.9829937,15.9332967 L77.0770787,15.9332967 L77.0770787,38.4504117 C77.0770787,43.7069854 79.5503619,46.7662485 84.4190806,46.7662485 C88.5693248,46.7662485 92.0013175,43.9422627 92.0013175,37.3518661 L92.0013175,15.9332967 L102.935469,15.9332967 L102.935469,55.1610226 L92.0807267,55.1610226 L92.0807267,50.8459969 C89.4475098,53.9844167 85.6171329,55.9451342 81.0673892,55.9451342 C71.64915,55.9451342 65.9829937,49.9827286 65.9829937,39.862295" id="Fill-38" fill="#FFFFFF"></path>
                        <path d="M139.216758,35.4692089 C139.216758,29.662924 134.906357,24.956281 129.000858,24.956281 C122.935426,24.956281 118.306273,29.4274274 118.306273,35.4692089 C118.306273,41.5096749 122.935426,46.0601972 129.000858,46.0601972 C134.906357,46.0601972 139.216758,41.2743975 139.216758,35.4692089 Z M107.611687,35.5472693 C107.611687,21.6604249 117.987521,15.1491851 127.005145,15.1491851 C132.193508,15.1491851 136.263228,17.0318423 138.897783,19.7777677 L138.897783,0.869846389 L149.83305,0.869846389 L149.83305,55.1610226 L138.897783,55.1610226 L138.897783,50.7679366 C136.263228,53.8271997 132.033574,55.9451342 126.846327,55.9451342 C118.385682,55.9451342 107.611687,49.3560533 107.611687,35.5472693 L107.611687,35.5472693 Z" id="Fill-39" fill="#FFFFFF"></path>
                        <polygon id="Fill-40" fill="#FFFFFF" points="155.376077 55.1610226 166.310451 55.1610226 166.310451 15.9332967 155.376077 15.9332967"></polygon>
                        <g id="Group-3" transform="translate(106.451613, 61.290323)" fill="#0A0B09">
                            <path d="M4.10392117,11.3753191 L4.10392117,16.0501679 L6.95194426,16.0501679 C9.06297893,16.0501679 10.1309876,15.2002751 10.1309876,13.7004644 C10.1309876,12.200215 9.36812426,11.3753191 6.79981772,11.3753191 L4.10392117,11.3753191 Z M4.10392117,4.05036615 L4.10392117,8.20028113 L6.49422627,8.20028113 C8.70697604,8.20028113 9.46983937,7.32539152 9.46983937,6.02555553 C9.46983937,4.65029045 8.63068971,4.05036615 6.49422627,4.05036615 L4.10392117,4.05036615 Z M0.64516129,0.925321846 L6.49422627,0.925321846 C10.6395631,0.925321846 12.954028,2.65010422 12.954028,6.02555553 C12.954028,7.60035683 12.267451,8.80020544 10.9197258,9.57510767 C12.6488827,10.3504484 13.6151762,11.7502718 13.6151762,13.7754549 C13.6151762,17.3754393 11.0468697,19.1752122 6.95194426,19.1752122 L0.64516129,19.1752122 L0.64516129,0.925321846 L0.64516129,0.925321846 Z" id="Fill-58"></path>
                            <path d="M18.6200502,10.2254642 L27.0624044,10.2254642 C26.5538288,8.25027483 25.0281022,7.22540414 22.8911926,7.22540414 C20.8345845,7.22540414 19.2303409,8.42525275 18.6200502,10.2254642 Z M15.1612903,11.9002529 C15.1612903,7.62535367 18.5437639,4.25034091 22.8911926,4.25034091 C27.3166922,4.25034091 30.546593,7.45037575 30.546593,11.7752687 L30.546593,13.0501078 L18.4420488,13.0501078 C18.9251955,15.1252846 20.5785122,16.5001111 23.0205671,16.5001111 C24.952262,16.5001111 26.4289155,15.5002373 27.1382446,13.9249974 L29.9621773,15.5252341 C28.6639713,17.900373 26.3753813,19.4756129 23.0205671,19.4756129 C18.3403336,19.4756129 15.1612903,16.1251584 15.1612903,11.9002529 L15.1612903,11.9002529 Z" id="Fill-59"></path>
                            <path d="M30.9677419,4.55030307 L33.5106197,4.55030307 L33.5106197,2.32514523 L36.9680412,-8.02225669e-13 L36.9680412,4.55030307 L39.9927274,4.55030307 L39.9927274,7.57535998 L36.9680412,7.57535998 L36.9680412,13.0501078 C36.9680412,15.6002247 37.3517035,16.0001742 39.9927274,16.0001742 L39.9927274,19.1752122 L39.510919,19.1752122 C34.9069719,19.1752122 33.5106197,17.7249566 33.5106197,13.0755432 L33.5106197,7.57535998 L30.9677419,7.57535998 L30.9677419,4.55030307" id="Fill-60"></path>
                            <path d="M54.2706716,11.8252624 C54.2706716,9.32513921 52.3880498,7.32539152 49.8228661,7.32539152 C47.2755272,7.32539152 45.3215264,9.3005809 45.3215264,11.8252624 C45.3215264,14.3753792 47.2755272,16.3751269 49.8228661,16.3751269 C52.3880498,16.3751269 54.2706716,14.3503823 54.2706716,11.8252624 Z M41.9354839,11.8756946 C41.9354839,7.02542937 45.549047,4.25034091 49.3142906,4.25034091 C51.2682914,4.25034091 52.9992327,5.02524314 54.0922241,6.30052083 L54.0922241,4.55030307 L57.5273396,4.55030307 L57.5273396,19.1752122 L54.0922241,19.1752122 L54.0922241,17.2750133 C52.9992327,18.6502784 51.2192183,19.4756129 49.2607563,19.4756129 C45.6739603,19.4756129 41.9354839,16.6755276 41.9354839,11.8756946 L41.9354839,11.8756946 Z" id="Fill-61"></path>
                        </g>
                    </g>
					<g xmlns="http://www.w3.org/2000/svg" _ngcontent-gnx-c75="" id="Group" transform="translate(55, 148)"><path _ngcontent-gnx-c75="" d="M56.9028325,6.90658073 C56.9028325,3.93952088 59.3283307,1.53189129 62.3167344,1.53189129 C64.3235362,1.53189129 66.0700394,2.62082761 67.0088171,4.22659026 L66.0416619,4.78551333 C65.3198427,3.48076778 63.9481799,2.5921714 62.3167344,2.5921714 C59.8912362,2.5921714 58.0580528,4.54155507 58.0580528,6.90658073 C58.0580528,9.27160638 59.8912362,11.2209901 62.3167344,11.2209901 C64.1504337,11.2209901 65.4640518,10.2603727 66.1572356,8.87016572 L67.1530261,9.38623126 C66.2436578,11.1061116 64.5110854,12.2815238 62.3167344,12.2815238 C59.3283307,12.2815238 56.9028325,9.87364057 56.9028325,6.90658073" id="Fill-41" fill="#0A0B09"/><polygon _ngcontent-gnx-c75="" id="Fill-42" fill="#0A0B09" points="68.2331752 12.1382427 69.359244 12.1382427 69.359244 1.67491879 68.2331752 1.67491879"/><path _ngcontent-gnx-c75="" d="M75.941781,9.68724835 L75.941781,8.28258643 C75.6097648,8.56940222 74.5703761,8.81285328 73.7185366,8.98479059 C72.4480007,9.25715147 71.8128617,9.55816857 71.8128617,10.3176852 C71.8128617,10.9344279 72.289087,11.3498162 73.1122911,11.3498162 C74.1950199,11.3498162 75.1477283,10.8482056 75.941781,9.68724835 Z M70.7009816,10.4039074 C70.7009816,9.09941547 71.5964192,8.44006884 73.7040899,8.01022555 C74.8012654,7.7809758 75.8409121,7.59458358 75.8409121,6.8634696 C75.8409121,6.20412297 75.407769,5.73116856 74.0361061,5.73116856 C72.6794059,5.73116856 72.1159845,6.261689 72.1159845,7.15028539 L72.1159845,7.19314292 L71.0043623,7.19314292 L71.0043623,7.1644867 C71.0043623,5.65965481 72.1015378,4.82837086 74.0072127,4.82837086 C76.1582236,4.82837086 76.9956164,5.87470325 76.9956164,7.22179914 L76.9956164,12.1382427 L75.9275923,12.1382427 L75.9275923,11.0774554 C75.2199618,11.8230243 74.3392289,12.2815238 73.1122911,12.2815238 C71.4950343,12.2815238 70.7009816,11.4357849 70.7009816,10.4039074 L70.7009816,10.4039074 Z" id="Fill-43" fill="#0A0B09"/><path _ngcontent-gnx-c75="" d="M78.0337152,10.9052645 L78.9144481,10.188859 C79.4487181,10.8482056 80.1705373,11.3067051 81.0943524,11.3067051 C82.1773391,11.3067051 82.7257979,10.7335807 82.7257979,10.0742341 C82.7257979,9.31446391 81.7728314,9.17118282 80.7765249,8.94167947 C79.6218206,8.66957218 78.3801781,8.29678774 78.3801781,6.89212582 C78.3801781,5.83159212 79.3906733,4.81391595 81.0076722,4.81391595 C82.0759542,4.81391595 83.1297896,5.20090171 83.7507399,5.91756078 L82.9275358,6.60531003 C82.4371218,6.06109547 81.8161716,5.75982478 81.0076722,5.75982478 C80.0116236,5.75982478 79.4773536,6.27589031 79.4773536,6.87792451 C79.4773536,7.60878489 80.3869799,7.7809758 81.3685817,8.01022555 C82.5379907,8.28258643 83.8229734,8.64091597 83.8229734,10.0742341 C83.8229734,10.9914867 83.058072,12.2815238 81.0510123,12.2815238 C79.795181,12.2815238 78.7413456,11.7654582 78.0337152,10.9052645" id="Fill-44" fill="#0A0B09"/><path _ngcontent-gnx-c75="" d="M84.6010315,10.9052645 L85.4817644,10.188859 C86.0157765,10.8482056 86.7375957,11.3067051 87.6616687,11.3067051 C88.7446555,11.3067051 89.2931142,10.7335807 89.2931142,10.0742341 C89.2931142,9.31446391 88.3401478,9.17118282 87.3438412,8.94167947 C86.1891369,8.66957218 84.9472364,8.29678774 84.9472364,6.89212582 C84.9472364,5.83159212 85.9577317,4.81391595 87.5749885,4.81391595 C88.6432706,4.81391595 89.6971059,5.20090171 90.3180562,5.91756078 L89.4948521,6.60531003 C89.0041802,6.06109547 88.3834879,5.75982478 87.5749885,5.75982478 C86.5789399,5.75982478 86.0444119,6.27589031 86.0444119,6.87792451 C86.0444119,7.60878489 86.9542962,7.7809758 87.9356401,8.01022555 C89.1053071,8.28258643 90.3902897,8.64091597 90.3902897,10.0742341 C90.3902897,10.9914867 89.6251304,12.2815238 87.6183286,12.2815238 C86.3622394,12.2815238 85.308404,11.7654582 84.6010315,10.9052645" id="Fill-45" fill="#0A0B09"/><polyline _ngcontent-gnx-c75="" id="Fill-46" fill="#0A0B09" points="91.8328962 1.67491879 98.2281419 1.67491879 98.2281419 2.73570609 92.9589651 2.73570609 92.9589651 6.36185897 98.2281419 6.36185897 98.2281419 7.42239267 92.9589651 7.42239267 92.9589651 11.0632541 98.2281419 11.0632541 98.2281419 12.1382427 91.8328962 12.1382427 91.8328962 1.67491879"/><path _ngcontent-gnx-c75="" d="M105.950163,8.55494731 C105.950163,7.06406313 104.795458,5.83159212 103.250693,5.83159212 C101.778161,5.83159212 100.622941,7.04986182 100.622941,8.55494731 C100.622941,10.0597792 101.778161,11.2780489 103.250693,11.2780489 C104.795458,11.2780489 105.950163,10.0597792 105.950163,8.55494731 Z M99.4966141,8.55494731 C99.4966141,6.50514007 101.041637,4.82837086 103.192648,4.82837086 C104.116721,4.82837086 105.214155,5.28687036 105.834589,6.13260922 L105.834589,1.67491879 L106.917318,1.67491879 L106.917318,12.1382427 L105.849294,12.1382427 L105.849294,10.9628305 C105.228601,11.8230243 104.116721,12.2815238 103.192648,12.2815238 C101.070531,12.2815238 99.4966141,10.6047546 99.4966141,8.55494731 L99.4966141,8.55494731 Z" id="Fill-47" fill="#0A0B09"/><path _ngcontent-gnx-c75="" d="M114.754654,8.55494731 C114.754654,7.06406313 113.59995,5.83159212 112.054926,5.83159212 C110.582395,5.83159212 109.427174,7.04986182 109.427174,8.55494731 C109.427174,10.0597792 110.582395,11.2780489 112.054926,11.2780489 C113.59995,11.2780489 114.754654,10.0597792 114.754654,8.55494731 Z M108.301621,8.55494731 C108.301621,6.50514007 109.846129,4.82837086 111.997398,4.82837086 C112.921471,4.82837086 114.032835,5.30132527 114.653785,6.14681053 L114.653785,4.97165195 L115.765149,4.97165195 L115.765149,12.0091629 C115.765149,14.1880499 114.379298,15.6355694 112.199136,15.6355694 C110.43767,15.6355694 109.326305,14.8613443 108.80674,13.6575295 L109.903916,13.2991999 C110.250378,14.1162826 110.972198,14.6607507 112.199136,14.6607507 C113.773052,14.6607507 114.667974,13.5713072 114.667974,12.0378191 L114.667974,10.9483756 C114.061728,11.8085693 112.935659,12.2815238 111.997398,12.2815238 C109.875022,12.2815238 108.301621,10.6047546 108.301621,8.55494731 L108.301621,8.55494731 Z" id="Fill-48" fill="#0A0B09"/><path _ngcontent-gnx-c75="" d="M118.289969,7.89560068 L123.44383,7.89560068 C123.242092,6.60531003 122.289126,5.81713721 120.888827,5.81713721 C119.589398,5.81713721 118.578903,6.69153229 118.289969,7.89560068 Z M117.149711,8.61200615 C117.149711,6.46228253 118.723112,4.82837086 120.888827,4.82837086 C122.967605,4.82837086 124.584603,6.24723409 124.584603,8.44006884 L124.584603,8.91327684 L118.232182,8.91327684 C118.376649,10.3323937 119.502976,11.2927574 120.946356,11.2927574 C122.116023,11.2927574 122.938453,10.6904696 123.386043,9.81632814 L124.353456,10.2892825 C123.689166,11.5362085 122.563097,12.2815238 120.946356,12.2815238 C118.65062,12.2815238 117.149711,10.7191258 117.149711,8.61200615 L117.149711,8.61200615 Z" id="Fill-49" fill="#0A0B09"/><polyline _ngcontent-gnx-c75="" id="Fill-54" fill="#0A0B09" points="12.7387459 1.81186002 22.605586 1.81186002 22.605586 4.76345058 19.7748062 4.76345058 19.7748062 11.8567524 15.6634293 11.8567524 15.6634293 4.76345058 12.7387459 4.76345058 12.7387459 1.81186002"/><polyline _ngcontent-gnx-c75="" id="Fill-55" fill="#0A0B09" points="27.6023393 5.87039213 25.5251099 11.8567524 21.5765164 11.8567524 25.4492647 1.81186002 29.7370977 1.81186002 33.7029756 11.8567524 29.7061404 11.8567524 27.6023393 5.87039213"/><polyline _ngcontent-gnx-c75="" id="Fill-56" fill="#0A0B09" points="32.7595543 1.81186002 42.6261364 1.81186002 42.6261364 4.76345058 39.7963885 4.76345058 39.7963885 11.8567524 35.6850116 11.8567524 35.6850116 4.76345058 32.7595543 4.76345058 32.7595543 1.81186002"/><polygon _ngcontent-gnx-c75="" id="Fill-57" fill="#0A0B09" points="45.5466921 11.8567524 41.5983567 11.8567524 45.4718789 1.81186002 49.75868 1.81186002 53.723268 11.8567524 49.7277227 11.8567524 47.6246956 5.87039213"/> 
					<text _ngcontent-gnx-c75="" id="" font-family="Lato-Light, Lato" font-size="12" font-weight="300" fill="#202020"><tspan _ngcontent-gnx-c75="" x="-10.5" y="12">with </tspan></text>
					</g>
                </g>
            </g>
        </g>
    </g>
</svg>