<?xml version="1.0" encoding="UTF-8"?>
<svg width="64px" height="64px" viewBox="0 0 64 64" version="1.1" xmlns="http://www.w3.org/2000/svg" xmlns:xlink="http://www.w3.org/1999/xlink">
    <title>250DE21C-6DBF-4BA0-A1B1-FFA782412C7A</title>
    <g id="A-:-Browse-Books" stroke="none" stroke-width="1" fill="none" fill-rule="evenodd">
        <g id="G-01-SC-BrowseBooks" transform="translate(-22.000000, -453.000000)" fill-rule="nonzero">
            <g id="Screens/LandingPages/BrowseBooks">
                <g id="Elements/List/Books/BrowseBooks" transform="translate(0.000000, 420.000000)">
                    <g id="Icon" transform="translate(16.000000, 15.000000)">
                        <g id="Book-Cover">
                            <g id="Icon" transform="translate(6.000000, 18.000000)">
                                <g id="Biology">
                                    <g id="Graphics" transform="translate(18.000000, 2.000000)">
                                        <path d="M9.58007812,42.9460144 L9.73526004,43.0220032 L9.8899841,42.9455566 C10.7354736,42.5280762 11.5827942,42.1490479 12.5239563,41.7315674 L13.8917542,41.1209107 L13.1826783,40.7977295 C10.9794616,39.7929382 9.03030398,38.8220215 7.4940491,37.1118164 C6.81243891,36.3523864 6.2452698,35.4766846 5.80902094,34.5089721 L5.76141352,34.4032288 C4.16976926,30.7740784 4.61563113,26.4848327 6.90856934,23.4443665 C9.04495242,20.6126404 12.3632812,19.0855407 15.5740357,17.6083373 C18.2565307,16.3751221 21.0305787,15.1002503 23.1454467,13.0632019 C25.1179505,11.1630248 26.4550781,8.62930301 26.910553,5.92849734 C27.0716858,4.96994016 27.2840882,2.60833734 25.7711791,1.3815307 C25.1651002,0.890350312 23.8600159,0.475616484 22.922058,0.475616484 C22.5288391,0.475616484 22.2120667,0.547485352 21.9813538,0.688934297 C21.4686585,1.00158691 21.4805603,1.94869992 21.548767,3.15399164 C21.572113,3.56872559 21.5968323,3.99765012 21.5611267,4.29931641 C21.211853,7.24182129 19.9053955,9.98474121 17.8816223,12.0217896 C16.071167,13.8423157 13.7731934,15.0778198 11.5507507,16.272583 C10.0401306,17.0851136 8.4777832,17.9251099 7.07611078,18.9436341 C4.08370969,21.1175537 1.92306516,24.0710449 0.993347109,27.2602845 C-0.0279235547,30.7598877 0.484313906,34.519043 2.36343387,37.3155212 C4.21600336,40.0721741 6.92642215,41.651001 9.58007812,42.9460144 Z" id="Path" fill="#D8DEEC"></path>
                                        <path d="M22.6574707,55.4919434 L22.6538086,55.5532837 C22.6405335,55.7725525 22.6208496,55.9909057 22.6029968,56.1772155 C22.4784851,57.5518799 22.3493958,58.9732361 23.9863587,59.4145202 C24.2523193,59.486847 24.4999695,59.5230103 24.7219849,59.5230103 C25.1486205,59.5230103 25.504303,59.3907165 25.7798767,59.1293334 C26.6404724,58.3085632 26.761322,56.1218262 26.1112976,53.1294251 C25.4315186,49.9955749 23.7341309,47.210083 21.3331604,45.2870179 C20.3077698,44.4657898 19.3634033,43.8674927 18.0725098,43.2206726 L17.9177857,43.1433105 L17.7621459,43.2183838 C17.4824524,43.3538818 17.2045898,43.4866334 16.9294739,43.6157227 C16.7189026,43.7150573 16.5078736,43.8130188 16.2968445,43.9109802 L16.0501099,44.0258789 C15.5708313,44.2492676 15.0897217,44.4744873 14.6090698,44.7033691 L13.9686585,45.0091553 L14.5999146,45.3337097 C16.1654663,46.1384583 18.1759643,47.2837829 19.8417663,49.0090943 C21.38443,50.6071472 22.3782349,52.6071166 22.6409912,54.642334 C22.6643372,54.820404 22.6725769,55.0236511 22.6661682,55.2822877 L22.6647949,55.3372193 L22.6799011,55.3894043 C22.68219,55.397644 22.6849365,55.4054261 22.6858521,55.4118347 C22.6863098,55.42099 22.6849365,55.428772 22.6817321,55.4356384 L22.6574707,55.4919434 Z" id="Path" fill="#D8DEEC"></path>
                                        <path d="M22.2010804,33.2569886 L22.2688294,33.0207825 C22.4382019,32.4311829 22.5604248,31.8122864 22.6318359,31.1819459 L22.6794434,30.7635498 L8.86779785,31.6836548 L9.20516965,34.1729736 L22.2010804,33.2569886 Z" id="Path" fill="#5BD0FC"></path>
                                        <path d="M20.7939148,5.42587277 L21.2109375,5.63461301 L21.2969971,5.1763916 C21.3569641,4.85595703 21.4027405,4.5643616 21.4361572,4.28604129 C21.45401,4.14093023 21.4581299,3.9582825 21.4494323,3.69461063 L21.4375305,3.34350586 L10.124817,3.71292117 L10.1156616,5.81634516 L20.7600403,5.41625977 C20.7719421,5.41625977 20.7852173,5.4212952 20.7939148,5.42587277 Z" id="Path" fill="#5BD0FC"></path>
                                        <path d="M19.4540405,48.7989807 C19.0242005,48.380127 18.5417175,47.9672241 18.0198669,47.5721741 L17.9136657,47.4916077 L11.8093873,47.9493714 L11.8286133,49.5684814 L11.8624877,49.6202087 L11.9366455,49.838562 L20.0244141,49.354248 L19.4540405,48.7989807 Z" id="Path" fill="#5BD0FC"></path>
                                        <path d="M17.7227783,20.7582093 L17.5964355,20.7673645 C16.3110352,20.8612061 15.0119018,20.9376526 13.7553405,21.0118103 L13.4710693,21.0287475 C12.8260804,21.0658264 12.1696472,21.1047363 11.5086364,21.1445618 L11.1602783,21.1656189 L11.2504577,22.8927612 L11.6152955,22.8579713 C12.0748901,22.8144837 12.5326537,22.7723694 12.9881286,22.7307129 L13.2463073,22.7073669 C15.007782,22.5448608 16.8296814,22.3768616 18.5920716,22.1836853 L19.4100952,22.0939636 L18.7797546,21.5647888 C18.4913636,21.3226318 18.1796264,21.0827637 17.8257751,20.8314514 L17.7227783,20.7582093 Z" id="Path" fill="#5BD0FC"></path>
                                        <path d="M8.80279547,48.2432556 C8.48556516,48.5165405 8.18115234,48.8035583 7.8977966,49.0965271 C7.78015137,49.21875 7.65884402,49.3519593 7.52700809,49.5034791 L6.97860715,50.1351928 L12.0606995,49.83078 L12.038269,47.9319763 L8.89068609,48.1677246 L8.80279547,48.2432556 Z" id="Path" fill="#ED6D66"></path>
                                        <path d="M9.2010498,21.2992859 L9.11544797,21.3679505 C8.62655637,21.7611694 8.17153934,22.1832275 7.76229855,22.6222229 L7.12005609,23.3125305 L8.05755609,23.2113647 C8.9369202,23.1166077 9.88861078,23.020935 11.1447143,22.9014587 L11.4802552,22.8694153 L11.3896179,21.1528015 L11.0353089,21.1752319 C10.4878235,21.210022 9.90005496,21.2480163 9.3099975,21.2915039 L9.2010498,21.2992859 Z" id="Path" fill="#ED6D66"></path>
                                        <path d="M6.41738895,5.67077637 L6.48284906,5.95458984 L10.3459167,5.80764773 L10.3546143,3.70559695 L6.13357547,3.84292605 L6.17568973,4.30114746 C6.23062137,4.75158691 6.31210324,5.21255496 6.41738895,5.67077637 Z" id="Path" fill="#ED6D66"></path>
                                        <path d="M5.80352789,34.1729736 L5.90057367,34.406433 L9.43588254,34.1574096 L9.09759516,31.6685486 L5.13885492,31.9317627 L5.22583008,32.3304749 C5.36361691,32.9612732 5.55816656,33.5806275 5.80352789,34.1729736 Z" id="Path" fill="#ED6D66"></path>
                                        <path d="M5.70693973,53.6672974 C5.70236203,53.6672974 5.69732672,53.6677552 5.69274902,53.6677552 C5.68908691,53.6672974 5.33477789,53.5853577 5.33477789,53.5853577 L5.25878906,53.9332581 C5.20751953,54.1690064 5.16494754,54.4129944 5.13290402,54.6588135 C5.10669032,54.8643493 5.10040289,55.1023864 5.11276242,55.3875732 L5.12786859,55.7308959 L17.7172852,55.4585266 L17.7172852,53.236084 L17.2320557,53.2356263 C13.072815,53.2356263 9.10263059,53.4585572 5.70693973,53.6672974 Z" id="Path" fill="#F9D889"></path>
                                        <path d="M13.4294128,27.8292846 L13.5804749,27.8196716 C14.7152709,27.7468873 15.8651733,27.6718139 17.0159912,27.5958252 L17.357483,27.572937 L17.2810364,25.5908203 L16.9184876,25.6169128 C15.8660889,25.6919861 14.7702026,25.771637 13.6885071,25.8512878 C10.9309387,26.0536194 7.8053284,26.2825012 5.75500488,26.3896179 L5.50872797,26.4024353 L5.4368591,26.6386413 C5.30502316,27.0721436 5.19927984,27.5198365 5.1219177,27.9693604 L5.04592898,28.4147644 L5.4959107,28.3795166 C8.10379031,28.1748962 10.8110046,27.999115 13.4294128,27.8292846 Z" id="Path" fill="#F9D889"></path>
                                        <path d="M10.4466247,39.2843627 L10.5926514,39.2550659 C11.6020202,39.1548157 12.6750183,39.0513611 13.7594604,38.9469909 L14.5651245,38.8696289 C15.1277161,38.8160706 15.6898499,38.7620544 16.2455749,38.7084961 L16.8502807,38.6503601 L16.8013001,36.7835999 L8.1427002,37.6405335 L8.81881711,38.1802369 C9.27429199,38.5437012 9.76867676,38.8824463 10.3308105,39.2152405 L10.4466247,39.2843627 Z" id="Path" fill="#F9D889"></path>
                                        <path d="M8.66317746,10.5757141 L8.77258301,10.723114 L16.58432,10.4869079 L16.5435791,8.57162473 L7.52700809,8.77304074 L7.81997684,9.28573605 C8.07449344,9.73068234 8.35830691,10.1651002 8.66317746,10.5757141 Z" id="Path" fill="#F9D889"></path>
                                        <path d="M22.5164795,54.6583557 C22.4729919,54.316864 22.4043274,53.9616394 22.3127747,53.6022949 L22.2482299,53.3496094 L21.9882202,53.3381653 C20.6469727,53.2772827 19.2901611,53.2443237 17.8395081,53.2369995 L17.4861145,53.2351685 L17.4861145,55.4626465 L22.5494385,55.3536987 L22.5416565,55.0021362 C22.5389099,54.87854 22.5302123,54.7622681 22.5164795,54.6583557 Z" id="Path" fill="#94C668"></path>
                                        <path d="M17.051239,25.6063842 L17.1295166,27.5871277 L17.4902344,27.5628662 C19.2686462,27.4420166 20.6904602,27.3381042 21.9639587,27.2364807 L22.3933411,27.2026062 L22.273407,26.7883301 C22.1488952,26.3580322 21.9973755,25.9350586 21.8225098,25.5313111 L21.7254639,25.3070068 L21.4810181,25.3198242 C20.2409363,25.3857422 18.6437988,25.4951477 17.3913574,25.5825806 L17.051239,25.6063842 Z" id="Path" fill="#94C668"></path>
                                        <path d="M18.5838318,38.4251404 C19.1253662,37.9975891 19.5996094,37.5572204 20.0340271,37.0788574 L20.6478881,36.4022827 L16.5719604,36.8074036 L16.6209411,38.6727905 L18.5032654,38.4887695 L18.5838318,38.4251404 Z" id="Path" fill="#94C668"></path>
                                        <path d="M18.7120056,10.4315186 L18.9779663,10.5532838 L19.1464233,10.3138733 C19.4302369,9.9101257 19.6980286,9.47525027 19.9424743,9.02160645 L20.2290345,8.489685 L16.3142395,8.57666016 L16.3549805,10.4937744 L18.6877441,10.4246521 C18.693695,10.4246521 18.7023926,10.4269409 18.7120056,10.4315186 Z" id="Path" fill="#94C668"></path>
                                        <path d="M20.7449341,23.4292603 C22.759552,26.0874939 23.3747864,29.831543 22.3516846,33.1997681 L22.3352051,33.2542419 L22.3365784,33.3105469 C22.3370361,33.3261108 22.3324584,33.3398438 22.3228454,33.3535767 L22.290802,33.397522 L22.273407,33.449707 C21.8165589,34.8344421 21.1152649,36.0621643 20.189209,37.0976257 C19.7460938,37.5929261 19.2498779,38.0548096 18.672638,38.5102845 L18.6323548,38.5423279 L18.6026002,38.5839844 C18.5975647,38.5913086 18.5893249,38.5972595 18.5787963,38.6013795 L18.5339355,38.6192321 L18.4950257,38.648529 C16.7230225,40.000763 14.6136475,40.9387207 12.5733948,41.8460084 C10.4072571,42.8091431 8.16696164,43.8052369 6.31759641,45.28656 C3.91616824,47.210083 2.21923828,49.9955749 1.53900141,53.1294251 C0.888061523,56.1218262 1.00891113,58.3085632 1.87133789,59.1297913 C2.14599609,59.3902588 2.50167844,59.5225525 2.92785645,59.5225525 C3.14941406,59.5225525 3.39706418,59.4863892 3.66439816,59.4145202 C5.29998773,58.9732361 5.17089844,57.5518799 5.04592898,56.1676025 C4.99832156,55.6434632 4.94979855,55.101471 5.00885016,54.6414185 C5.27114871,52.6075745 6.26541141,50.6071472 7.80761719,49.0090943 C10.0584411,46.6777038 13.0778503,45.2719116 15.9970092,43.9123535 C16.2904358,43.7763977 16.58432,43.6390686 16.8763733,43.5017395 C19.902649,42.0803834 23.3006286,40.3115845 25.3207397,37.290802 C27.1934509,34.4897461 27.6974487,30.7292175 26.6688538,27.2323608 C25.7318115,24.0449524 23.5652161,21.0960388 20.5682373,18.9289856 C19.941101,18.4753418 18.407135,17.4087525 17.6843262,16.985321 L17.5035095,16.8447877 L17.3075866,16.9381713 C16.7555237,17.2023011 16.1979675,17.460022 15.627594,17.7223206 L15.5630494,17.7520752 C15.2503968,17.895813 14.9395752,18.0386353 14.6310424,18.182373 L13.9691162,18.4909057 L14.6228027,18.815918 C16.706543,19.8522949 19.0635681,21.2104798 20.7449341,23.4292603 Z" id="Path" fill="#BFC7D8"></path>
                                        <path d="M4.48608398,13.0819702 C6.16653445,14.6937561 8.08273312,15.6651306 10.2323913,16.6804505 L10.3939819,16.756897 L10.5509948,16.6712952 C10.8654785,16.4996338 11.1785889,16.3298034 11.4912415,16.1627197 C12.0057679,15.8857727 12.5894166,15.5717468 13.1666565,15.2476501 L13.6912536,14.953308 L13.177185,14.6411133 C11.7485046,13.77182 10.6585693,12.9423523 9.74761969,12.030487 C7.72064203,9.99893191 6.40823367,7.25921625 6.05209348,4.3157959 C6.01593023,4.02053836 6.03836063,3.60946652 6.06262207,3.16818234 C6.12716672,1.96380609 6.13586426,1.01806641 5.62454227,0.706329375 C5.39428711,0.566253633 5.07980344,0.4948425 4.69070437,0.4948425 C3.75045773,0.4948425 2.44308469,0.912780703 1.83563227,1.40762332 C0.327301055,2.63580328 0.542907656,4.99832156 0.705413789,5.95733648 C1.16683957,8.65585324 2.50946039,11.1863708 4.48608398,13.0819702 Z" id="Path" fill="#BFC7D8"></path>
                                        <path d="M21.6311646,44.9143982 C20.7330322,44.1952514 19.888916,43.6386108 18.835144,43.078308 C21.4100647,41.763153 24.0197754,40.0932312 25.7167054,37.5553894 C27.6676941,34.6385193 28.1945801,30.7292175 27.1261596,27.0982361 C26.158905,23.8096618 23.9291381,20.7714844 20.8470154,18.5426331 C20.2976989,18.145752 19.1386413,17.3373413 18.3384704,16.828308 C20.1942444,15.9008789 21.9859314,14.841156 23.4759521,13.406067 C25.521698,11.4353943 26.9082642,8.80828852 27.3806763,6.00769043 C27.7519226,3.80813602 27.2744752,1.98715207 26.0714721,1.01165766 C25.2365112,0.334625273 22.8849792,-0.422515898 21.7323304,0.281982422 C21.0058594,0.725555391 21.002655,1.83059695 21.0562134,2.87933344 L6.52954102,3.35266113 C6.53228766,3.30093387 6.53503418,3.24874875 6.5377807,3.19610602 C6.59957883,2.06497195 6.66915891,0.783691406 5.87219238,0.298919648 C4.71771234,-0.402832031 2.36801145,0.359344453 1.53442383,1.03820801 C0.333251953,2.01644895 -0.140075625,3.83834836 0.23574832,6.0369873 C0.714111328,8.83666992 2.10662836,11.461029 4.15603641,13.4266663 C5.73440555,14.9404908 7.45559695,15.8789063 9.4921875,16.8562317 C8.56842047,17.3789978 7.65472406,17.9342651 6.79641727,18.5577393 C3.71887207,20.7929993 1.49551395,23.8362122 0.535125703,27.1266175 C-0.525054961,30.7603454 0.0100708008,34.668274 1.96701047,37.5810241 C2.99880984,39.117279 4.6270752,40.9638977 8.82156375,43.1007386 C7.83828738,43.6289978 6.8893432,44.2176819 6.01913449,44.914856 C3.53347781,46.9056702 1.77658078,49.7868347 1.07254031,53.0282592 C0.669708281,54.8854065 0.194549531,58.1918334 1.54220578,59.474945 C1.90979004,59.8246765 2.37213141,60 2.92236328,60 C3.190155,60 3.47900391,59.9583435 3.78799441,59.8754883 C5.78109738,59.3380737 5.65521234,57.6113892 5.52749637,56.1996459 L22.1543884,55.8389283 C22.1461487,55.9364319 22.1374512,56.0343933 22.1282959,56.1341858 C21.9992065,57.5578308 21.8380737,59.329834 23.8623047,59.8754883 C24.1712952,59.9588013 24.460144,60 24.7279358,60 C25.2781677,60 25.7405091,59.8246765 26.1080932,59.474945 C27.4557495,58.1918334 26.9805908,54.8854065 26.5773011,53.0282592 C25.8732605,49.7868347 24.1168213,46.9052123 21.6311646,44.9143982 Z M13.8162232,14.4676208 C12.2053528,13.5191345 11.050415,12.6603698 10.085907,11.693573 C9.91882324,11.5264893 9.75860602,11.3520813 9.60159305,11.1749268 L18.2441712,10.9144593 C18.021698,11.1817932 17.7877807,11.4390564 17.5428772,11.685791 C16.4515686,12.7835084 15.1625061,13.6701966 13.8162232,14.4676208 Z M16.1993408,8.9309693 L16.2258912,10.1463318 L8.94515988,10.3656006 C8.64761355,9.96505734 8.37387082,9.54620367 8.12530523,9.11087039 L16.1993408,8.9309693 Z M18.85849,10.1119995 C18.802185,10.085907 18.740387,10.0712585 18.6740112,10.0726318 L16.698761,10.1321412 L16.6726685,8.9204407 L19.6325684,8.85452273 C19.3986511,9.28939816 19.1409302,9.70962527 18.85849,10.1119995 Z M20.0440979,8.01681516 L7.69500727,8.29193109 C7.40707395,7.68859863 7.16629031,7.05963141 6.97357172,6.41235352 L20.7783509,5.89233398 C20.7797241,5.89233398 20.7806396,5.89187625 20.782013,5.89187625 C20.5975342,6.62429813 20.3494263,7.33520508 20.0440979,8.01681516 Z M21.0873413,4.24301145 C21.0530091,4.53552246 21.0058594,4.8248291 20.9518432,5.11230469 C20.8905029,5.08071902 20.8213806,5.06195063 20.7472229,5.06423953 L10.469513,5.45196539 L10.4754639,4.05303961 L21.0978698,3.70651242 C21.1047363,3.91479492 21.1047363,4.10064703 21.0873413,4.24301145 Z M9.99618527,5.46936035 L6.75979617,5.59158328 C6.6595459,5.15304563 6.57943723,4.70901492 6.52496344,4.25857547 C6.5222168,4.23477176 6.51992801,4.20822141 6.51809695,4.18167117 L10.0021362,4.06814578 L9.99618527,5.46936035 Z M4.72961426,12.8288269 C2.80700684,10.9849548 1.50100711,8.52310184 1.05239871,5.89736941 C0.899047852,5.00015262 0.690307617,2.79373172 2.05719,1.67999273 C2.74566656,1.11969 4.71542355,0.564880313 5.4414368,1.00662234 C5.81497195,1.23367313 5.75225836,2.38723758 5.71060184,3.15078738 C5.68588254,3.60351563 5.66299441,4.03106695 5.70236203,4.35836789 C6.06811523,7.37869266 7.41668695,10.1916504 9.49951172,12.278595 C10.4328919,13.2138061 11.5260315,14.0478516 12.9945374,14.9409485 C12.4392701,15.2531433 11.8794251,15.5543518 11.3246155,15.8528138 C11.0124206,16.020813 10.6974792,16.1906433 10.3825378,16.3623047 C8.17749023,15.3208923 6.35467523,14.3875123 4.72961426,12.8288269 Z M2.65457156,37.1186829 C0.833129883,34.4073486 0.337829531,30.7589721 1.33026117,27.3587037 C2.23937988,24.2431641 4.35333258,21.3555908 7.28302008,19.2279053 C8.66363531,18.224945 10.2159118,17.3899841 11.7169189,16.582489 C13.9640808,15.3735352 16.288147,14.1238404 18.1306458,12.2694397 C20.208435,10.1779174 21.5510559,7.36221316 21.9104004,4.34097293 C21.9493103,4.01367188 21.9250488,3.58612055 21.8994141,3.1333923 C21.8563842,2.3698425 21.7913818,1.21627805 22.1640014,0.988769531 C22.8890991,0.545196563 24.8602295,1.09588617 25.5496216,1.6548157 C26.9197083,2.76580805 26.7150879,4.9726868 26.5640259,5.86990359 C26.1209107,8.49655148 24.820404,10.9611511 22.9014587,12.8091431 C20.8309936,14.8036194 18.0839538,16.0670471 15.4275513,17.2892761 C12.177887,18.7838745 8.81790164,20.3297425 6.62796023,23.2324219 C4.18991086,26.4646911 3.84201047,31.0043334 5.48721316,34.6517944 C5.4876709,34.65271 5.4876709,34.6531677 5.48812863,34.6540833 C5.92849734,35.6291198 6.50894168,36.5409851 7.23220828,37.3461914 C8.83346555,39.1287232 10.8673096,40.1289368 13.0371094,41.1172486 C12.8192139,41.2147522 12.6004029,41.3122559 12.3806763,41.4102173 C11.5008545,41.8011475 10.6095886,42.1984863 9.73480219,42.631073 C7.10998535,41.3493347 4.44763184,39.7879029 2.65457156,37.1186829 Z M14.0386963,40.6617737 L13.9100647,40.6036377 C13.1900025,40.27771 12.4827575,39.9572754 11.8006897,39.6148682 C12.7157592,39.526062 13.6628723,39.4349671 14.6109009,39.3443298 C15.4074096,39.2678834 16.2030029,39.1918945 16.9793701,39.1163636 C16.0560608,39.6885681 15.0663757,40.1856995 14.0386963,40.6617737 Z M16.4598083,37.1708679 L16.4900208,38.3312988 C15.8445739,38.3940124 15.1881409,38.456726 14.5317077,38.5198975 C13.1707764,38.6503601 11.809845,38.7808228 10.546875,38.9057923 C10.5340576,38.9071655 10.5221557,38.9108276 10.5097962,38.9135742 C9.99481195,38.6077881 9.50180051,38.2759095 9.0376282,37.9055787 L16.4598083,37.1708679 Z M18.366394,38.1486511 C17.9086303,38.1939697 17.4398803,38.2397461 16.9624329,38.2859802 L16.9322204,37.1241761 L19.7740173,36.8431091 C19.3377686,37.3228454 18.866272,37.7540589 18.366394,38.1486511 Z M20.44281,36.0177612 C20.3718567,35.9783936 20.2890014,35.9596253 20.2024841,35.967865 L8.19534305,37.1566772 C8.07723996,37.0385742 7.96096805,36.9177246 7.84835813,36.7922974 C7.3223877,36.2068177 6.87332156,35.5499268 6.50344852,34.8417663 L21.6471863,33.7742614 C21.3395691,34.5799255 20.934906,35.33432 20.44281,36.0177612 Z M5.7728577,26.7407227 C7.77053836,26.6372681 10.7904053,26.4157104 13.7136841,26.2014771 C14.7962952,26.1222839 15.8917236,26.0421752 16.9436646,25.9671021 L16.993103,27.2442627 C15.8422852,27.3216247 14.6923828,27.3957825 13.5575866,27.4690247 C10.8856201,27.6416016 8.12942508,27.8201295 5.46890262,28.0293274 C5.54351813,27.590332 5.64559934,27.1595764 5.7728577,26.7407227 Z M8.79318234,32.0407104 L9.03671262,33.8323975 L6.1280823,34.0374756 C5.89187625,33.4680176 5.70419309,32.8715515 5.56915289,32.2554016 L8.79318234,32.0407104 Z M21.930542,32.9241943 L9.50958258,33.7994385 L9.26696777,32.0091247 L22.2825622,31.1425781 C22.2138977,31.7523193 22.0957946,32.3483276 21.930542,32.9241943 Z M5.42266852,31.4350891 C5.37322992,31.0803223 5.33798215,30.7214355 5.32241824,30.3579712 C5.30090332,29.8562623 5.31509402,29.3586731 5.35949707,28.8688659 C8.06808469,28.6537171 10.8833313,28.4715271 13.6111451,28.2957458 C16.4291381,28.1140137 19.3423463,27.925415 22.1365357,27.7011108 C22.3077393,28.5429382 22.3800659,29.4186401 22.3461914,30.3080749 L5.42266852,31.4350891 Z M17.4655151,27.2122193 L17.4160767,25.9336853 C18.9569092,25.8251953 20.3791809,25.7308959 21.4997864,25.6713867 C21.6696166,26.0636902 21.8151855,26.4697266 21.9355774,26.8858337 C20.4675293,27.0030212 18.9678955,27.1105957 17.4655151,27.2122193 Z M13.6532592,25.3756713 C10.897522,25.5775452 8.05435184,25.7858276 6.07177734,25.8947754 C6.37847906,25.1367188 6.77398688,24.4253541 7.25418094,23.780365 C9.21386719,23.5560608 11.2614441,23.3679199 13.2421875,23.1861878 C15.2426147,23.0026245 17.3112488,22.8126526 19.294281,22.5846863 C19.3167115,22.5823975 19.3382263,22.5769043 19.3597412,22.5704955 C19.7172546,22.9275513 20.0546264,23.3079529 20.3649902,23.7171936 C20.6391907,24.0788269 20.8854675,24.4624329 21.1047363,24.862976 C19.1221618,24.9746705 16.3471985,25.1783753 13.6532592,25.3756713 Z M9.33563227,21.6416931 C9.9087525,21.6000366 10.4841614,21.5620423 11.0577393,21.5258789 L11.1108398,22.552185 C10.0776673,22.6496888 9.04083258,22.7513122 8.02001953,22.8620911 C8.42971805,22.4212646 8.86962891,22.0170593 9.33563227,21.6416931 Z M13.1661987,22.3612976 C12.6420593,22.4093627 12.1133423,22.4578857 11.5823365,22.5073242 L11.5301514,21.4956666 C12.1897888,21.4553834 12.846222,21.4169311 13.4916687,21.3789368 C14.841156,21.3002014 16.2364196,21.2187195 17.6220703,21.1180114 C17.9415893,21.3455201 18.2533264,21.5826416 18.5536194,21.8344116 C16.7784118,22.0294189 14.9455261,22.197876 13.1661987,22.3612976 Z M13.4436035,20.5522155 C12.5120544,20.6062317 11.5589905,20.6625366 10.6027221,20.7247924 C11.6052246,20.0697327 12.6905823,19.499817 13.8212585,18.9546204 C14.7152709,19.3840027 15.6138611,19.844513 16.4767455,20.3668213 C15.4563904,20.4341126 14.4374085,20.4940795 13.4436035,20.5522155 Z M3.5723877,59.0753174 C2.9177857,59.2515564 2.44033816,59.1856384 2.11303711,58.8743591 C1.35452273,58.1520081 1.26800531,56.0325622 1.88232422,53.2035827 C2.54608148,50.1475525 4.19906613,47.4334717 6.53686523,45.5607605 C8.35144043,44.1078186 10.5706787,43.1208802 12.7166748,42.1669007 C14.784851,41.2477112 16.9047546,40.3038025 18.7088013,38.9286804 C18.782959,38.8989258 18.8452148,38.8494873 18.8905335,38.7858581 C19.4458008,38.3482361 19.9708557,37.8689576 20.4510498,37.3320007 C21.4324951,36.2347412 22.1516419,34.9420166 22.6071166,33.560028 C22.6606751,33.4877014 22.6908874,33.3984375 22.6881409,33.3023072 C23.7130737,29.9258423 23.1806946,26.0614014 21.0250854,23.2173157 C19.3812561,21.0475159 17.0887757,19.6490479 14.779358,18.5009766 C15.10849,18.3480834 15.4403686,18.1951904 15.7740784,18.0418396 C16.3339233,17.7841186 16.8978881,17.5241088 17.4595642,17.2563171 C17.4705505,17.2645569 17.4806214,17.2732545 17.4925232,17.2805787 C18.2006836,17.6939392 19.7351074,18.7609863 20.3617859,19.2137146 C23.2955932,21.3354492 25.4159545,24.2184448 26.3314819,27.3321533 C27.3312377,30.7301331 26.8441772,34.3798828 25.0282288,37.0948792 C23.059845,40.0387573 19.7113037,41.7814636 16.7271423,43.1840515 C16.4355469,43.3209229 16.1425781,43.4573365 15.8491516,43.5942077 C12.8997803,44.967041 9.85015875,46.387024 7.55493164,48.7651062 C5.96008301,50.4180908 4.93194586,52.4890137 4.66003418,54.5970154 C4.59548953,55.0978089 4.64675906,55.6626892 4.69665527,56.2088013 C4.83764648,57.7601624 4.85870367,58.7283326 3.5723877,59.0753174 Z M5.48172,54.7027588 C5.51147461,54.4702148 5.55221555,54.2385865 5.60211188,54.0074157 C5.63232422,54.01474 5.66345215,54.0193177 5.69549555,54.0193177 C5.70419309,54.0193177 5.71243289,54.0188599 5.72113031,54.0184021 C9.39834598,53.7927246 13.2719421,53.5830689 17.3648072,53.5876465 L17.3648072,55.1138306 L5.46386719,55.3720092 C5.45333859,55.1321412 5.45516965,54.9069213 5.48172,54.7027588 Z M17.8385925,53.5881042 C19.1917419,53.5954284 20.5696106,53.6265564 21.9717408,53.6888122 C22.0578002,54.0248108 22.1241761,54.3630982 22.1681214,54.7027588 C22.1809387,54.8002624 22.1873474,54.9028015 22.1905518,55.0094604 L17.8385925,55.1037598 L17.8385925,53.5881042 Z M5.82412723,53.1825257 C6.11206055,52.2834778 6.54693609,51.4118958 7.11044309,50.6053161 L19.9456787,49.8362732 C20.7220459,50.7513428 21.3221741,51.7767334 21.7121888,52.8492737 C16.0203552,52.6135254 10.7469177,52.8808594 5.82412723,53.1825257 Z M9.03167719,48.5092163 L11.6912842,48.3100891 L11.7059326,49.499817 L7.79205328,49.734192 C7.9083252,49.6009827 8.02688602,49.4686889 8.15094,49.3405151 C8.43200684,49.0493775 8.72680664,48.7728881 9.03167719,48.5092163 Z M12.1833802,49.4714355 C12.1815491,49.4677734 12.1806335,49.4641113 12.1788025,49.460907 L12.164154,48.2748413 L17.8070068,47.8527832 C18.2917786,48.2185364 18.7628174,48.616333 19.2086791,49.050293 L12.1833802,49.4714355 Z M10.2076721,47.5904846 C11.3360596,46.7857361 12.5665283,46.104126 13.8262939,45.476532 C14.7573853,45.9397888 15.7548523,46.4685059 16.7326355,47.1025085 L10.2076721,47.5904846 Z M25.5368041,58.8743591 C25.2095032,59.1856384 24.7325134,59.2515564 24.0779114,59.0753174 C22.7915954,58.7283326 22.8126526,57.7601624 22.9536438,56.2088013 C22.9724121,55.9986878 22.9916381,55.7858276 23.0044556,55.5752564 C23.026886,55.5230713 23.0392455,55.4658509 23.0378723,55.4054261 C23.0369568,55.3656006 23.0287171,55.3276062 23.0168152,55.2914428 C23.0236816,55.0520325 23.0186462,54.8181152 22.9898072,54.5965576 C22.7178955,52.4890137 21.6902161,50.4180908 20.0949096,48.7651062 C18.482666,47.0947266 16.5362549,45.9333802 14.7605896,45.0205993 C15.2403259,44.7917175 15.7205201,44.5674134 16.1988831,44.3449402 C16.4932252,44.2076111 16.7866516,44.0711975 17.0791627,43.9334107 C17.3551941,43.8038636 17.6339721,43.671112 17.9145813,43.5351563 C19.1807556,44.1691589 20.1127624,44.7596741 21.112976,45.5607605 C23.4507751,47.4330139 25.1042175,50.1475525 25.7679749,53.2035827 C26.3818359,56.0325622 26.2957764,58.1520081 25.5368041,58.8743591 Z" id="Shape" fill="#000000"></path>
                                    </g>
                                </g>
                            </g>
                        </g>
                    </g>
                </g>
            </g>
        </g>
    </g>
</svg>