<?xml version="1.0" encoding="UTF-8"?>
<svg width="64px" height="64px" viewBox="0 0 64 64" version="1.1" xmlns="http://www.w3.org/2000/svg" xmlns:xlink="http://www.w3.org/1999/xlink">
    <title>Subjects/Chemistry-SVG</title>
    <g id="Symbols" stroke="none" stroke-width="1" fill="none" fill-rule="evenodd">
        <g id="Elements/Graphics/Style2/Subjects/Chemistry" fill-rule="nonzero">
            <g id="Subjects/Chemistry" transform="translate(0.000000, 7.000000)">
                <path d="M63.6137201,47.4808267 C53.7429402,47.1616533 43.6859008,47 33.7232198,47 C22.9584919,47 12.0915423,47.1887485 1.42412166,47.5607348 L1,47.5758897 L1.06536286,47.9680827 C1.11549086,48.2675087 1.15431534,48.5072331 1.18331094,48.6900116 L1.23196455,49 L1.56713361,48.9912745 C2.27826226,48.9729048 3.86122385,48.9288175 5.46875777,48.8838117 L5.83292243,48.8737085 C9.59595766,48.7690012 11.6978907,48.7120552 12.0718843,48.7047073 C14.7989423,48.7047073 17.6675378,48.6835821 19.9719483,48.6670494 C22.5304387,48.6495982 25.1759158,48.6312285 27.8120553,48.6312285 C31.1622723,48.6312285 33.9414238,48.6601608 36.5579053,48.7221585 C43.3635094,48.8856487 49.3808272,48.9650977 54.9533824,48.9650977 C57.613603,48.9650977 60.146538,48.9476464 62.6966737,48.9113663 C63.628955,48.8985075 63.9282483,48.6509759 63.9773932,47.8537313 L64,47.4932261 L63.6137201,47.4808267 Z" id="Path" fill="#935252"></path>
                <path d="M60,12.1136624 L59.627311,12.090347 C59.284301,12.0694604 58.9408043,12.0471165 58.5977943,12.0247726 L58.213915,12 L57,45 L59.1826144,44.9941713 L59.178722,44.6177251 C59.0575737,33.9504549 59.3266299,23.1398923 59.9776191,12.485737 L60,12.1136624 Z" id="Path" fill="#935252"></path>
                <path d="M5.68122878,12.0137105 C5.31418309,12.0303593 4.9471374,12.0474976 4.58128863,12.0651256 L4.27887495,12.0798156 L4.28685411,12.4514725 C4.53261513,23.419025 4.4412527,34.541312 4.01436266,45.5093541 L4,45.88248 L4.30400953,45.9025563 L4.72970276,45.929488 C5.00658292,45.9466264 5.28505884,45.9637647 5.56473167,45.9794341 L5.92898469,46 L5.88031119,45.5323685 L6,12 L5.68122878,12.0137105 Z" id="Path" fill="#935252"></path>
                <path d="M53.9940392,3.66058976 C53.9609968,3.44664871 53.7999735,3.23378011 53.5016615,3.01018766 C52.6979408,2.40589808 51.789043,2.26380697 50.8270913,2.11260047 L50.7921874,2.1072386 C50.3440211,2.03592497 49.8879434,2 49.4369849,2 C48.8887609,2 48.3363484,2.0536193 47.7965012,2.15817698 C47.2473464,2.26434313 46.7074993,2.42734581 46.1918522,2.64343163 C45.8888863,2.77158179 45.6901666,2.91045569 45.5877819,3.06541557 L45,3.7420911 L45.6892359,3.7420911 C45.8158208,3.88525467 45.987548,3.99356573 46.1234405,4.07131368 C47.2934195,4.75120644 48.6807336,4.9077748 50.0061514,4.97587135 C50.3328519,4.99249323 50.6018447,5 50.8517567,5 C51.8504738,5 52.6090521,4.8691689 53.239184,4.58873992 C53.4960767,4.47345838 53.6678041,4.36032162 53.7948543,4.22091157 C53.9456391,4.05683644 54.0187046,3.85737263 53.9959008,3.67399455 L53.9940392,3.66058976 Z" id="Path" fill="#D8DEEC"></path>
                <path d="M36.4711547,3.01018766 C35.619946,2.40589808 34.6562947,2.26380697 33.6369156,2.11260047 L33.6004211,2.1072386 C33.1250067,2.03592497 32.6421947,2 32.1643145,2 C31.583362,2 30.9984643,2.0536193 30.4273751,2.15817698 C29.8444501,2.26434313 29.2723746,2.42734581 28.7254508,2.64343163 C28.2303097,2.84128682 28,3.05951741 28,3.33029486 L28,3.7420911 L28.1928289,3.7420911 C28.3230254,3.88150128 28.4981001,3.98659512 28.652955,4.07131368 C29.8927806,4.75120644 31.3629158,4.9077748 32.7674596,4.97587135 C33.1141569,4.99249323 33.3992083,5 33.6640398,5 C34.7218862,5 35.5257508,4.8691689 36.1944872,4.58873992 C36.4681957,4.47292222 36.6501749,4.3592493 36.782344,4.22091157 C36.9470623,4.05147444 37.0239965,3.84718493 36.9934201,3.66058976 C36.957912,3.44557639 36.7867825,3.2327078 36.4711547,3.01018766 Z" id="Path" fill="#D8DEEC"></path>
                <path d="M18.4726342,3.01018766 C17.6199459,2.40589808 16.6562947,2.26380697 15.6369155,2.11260047 L15.6004211,2.1072386 C15.1250067,2.03592497 14.6421947,2 14.1643145,2 C13.583362,2 12.9984643,2.0536193 12.4273751,2.15817698 C11.8449432,2.26434313 11.2728678,2.42680965 10.7254508,2.64343163 C10.2303096,2.84128682 10,3.05951741 10,3.33029486 L10,3.7420911 L10.1928289,3.7420911 C10.3230254,3.88096513 10.4976069,3.98659512 10.652955,4.07131368 C11.8927805,4.75120644 13.3629157,4.9077748 14.7674595,4.97587135 C15.1141569,4.99249323 15.3992083,5 15.6640398,5 C16.7223794,5 17.5262439,4.8691689 18.1944872,4.58873992 C18.4686889,4.47292222 18.6501749,4.3592493 18.782344,4.22091157 C18.9470622,4.05147444 19.0239965,3.84718493 18.9934201,3.66058976 C18.9584051,3.44611255 18.7877688,3.23324395 18.4726342,3.01018766 Z" id="Path" fill="#D8DEEC"></path>
                <path d="M19.8708706,20.0335543 C19.8708706,19.9803135 19.8699267,19.9275612 19.8689826,19.8748089 L19.8505742,19 L19.253955,19.5963941 C18.4015071,20.4492228 17.3003104,21.0675969 16.152857,21.3372198 C15.6817922,21.4471203 15.1965671,21.5028034 14.710398,21.5028034 C13.8697503,21.5028034 13.0215504,21.3347776 12.2583121,21.0163099 C11.71739,20.7916243 11.3053262,20.5273743 10.9966325,20.206953 C10.8800463,20.0863065 10.7795084,19.9817789 10.6940749,19.8748089 L10.1300243,19.1685144 L10.0535588,20.0814221 C9.97662145,20.9957952 10.0002218,21.9472902 10.0205182,22.7869309 C10.0309024,23.2040648 10.0422306,23.6768816 10.0398706,24.1335797 L10.0011658,34.5145473 C9.9950297,36.0082187 9.98794966,37.7006881 10.6898267,39.200221 C11.3369509,40.582038 12.8591793,41.9838813 14.8043277,42 L14.8335923,42 C16.2581149,42 17.7430548,41.1833163 18.6172151,39.9187267 C19.4663591,38.6873514 19.7127476,37.2625511 19.8425501,36.0311758 C20.0275775,34.2756966 20.0068092,32.4366931 19.9884008,30.8145601 L19.8708706,20.0335543 Z" id="Path" fill="#5BD0FC"></path>
                <path d="M56.1180156,2.57062513 C54.7140168,1.59791636 53.1882982,1.39231055 51.4221213,1.15397387 L51.3605161,1.14567594 C50.6421219,1.048866 49.9113071,1 49.1884415,1 C48.1525824,1 47.1087743,1.10049794 46.0873229,1.29826667 C45.1061134,1.4872765 44.1517321,1.76710307 43.2520002,2.13083172 C42.4685232,2.44661631 42.061135,2.80527393 42.0064854,3.22524433 C41.9712115,3.48386511 42.0810076,3.7742947 42.3070584,4.0195464 C42.5266505,4.26157108 42.8267267,4.43813389 43.0920259,4.57873869 C45.1389033,5.66854137 47.5777676,5.89489213 49.9088231,5.97695009 C50.3554597,5.99262401 50.7449626,6 51.0996884,6 C52.2999931,6 54.0731256,5.92393512 55.6122581,5.26747192 C56.0658501,5.07431312 56.3838116,4.8760833 56.610856,4.64420067 C56.8940405,4.35699799 57.0366264,3.99465237 56.991913,3.67517979 C56.9402443,3.2999263 56.6630216,2.94910576 56.1180156,2.57062513 Z M53.9116607,4.2071732 C53.7179029,4.37728197 53.454591,4.4833119 53.2732536,4.5478517 C52.5836745,4.7949474 51.7599554,4.91019732 50.6798798,4.91019732 C50.3981857,4.91019732 50.0996,4.9032823 49.7672309,4.88899141 C48.338888,4.83090542 46.8414878,4.69444958 45.5651704,4.09745528 C45.3982406,4.02046834 45.2069669,3.92273658 45.0569287,3.78120972 C44.8954639,3.62954081 44.8159735,3.44836806 44.8393239,3.28379129 C44.8875149,2.93435377 45.3639604,2.74119498 45.592992,2.66052005 L45.6560876,2.63931413 C46.2055648,2.45353133 46.7898191,2.31108253 47.3919589,2.21657756 C47.9762132,2.12529972 48.5733846,2.07873881 49.1675753,2.07873881 C49.6539571,2.07873881 50.1458038,2.11008665 50.6301983,2.1709387 L50.6674595,2.1760096 C51.7112675,2.30831647 52.6969483,2.43370832 53.5797883,2.96754573 C53.7099539,3.04637655 54.1069089,3.28747929 54.1650363,3.61801586 C54.200807,3.81855064 54.1083994,4.03337644 53.9116607,4.2071732 Z" id="Shape" fill="#FFFFFF"></path>
                <path d="M55.785387,12.5530828 L55.423243,12.5330507 C51.6578542,12.3258889 47.742961,12.150974 43.7871562,12.0136805 L43.3987479,12 L43.3856159,12.375725 C43.1229731,19.7328994 42.993672,27.1604306 43.000238,34.4516454 C43.000238,36.1089396 43.000238,37.987076 43.8058444,39.6199407 C44.6735758,41.3793501 46.5257127,42.6863259 48.5243234,42.9496753 C48.7798952,42.9828994 49.042538,43 49.3051808,43 C51.0911519,43 52.8437875,42.2382896 53.9933549,40.9616064 C55.9010508,38.8406412 56.0288368,35.8416813 55.9960063,32.6966335 L55.785387,12.5530828 Z M54.4448986,37.1134788 C54.3171127,38.0672046 54.0585105,39.2906317 53.1847181,40.290285 C52.282641,41.3241394 50.8088109,41.9661455 49.3385162,41.9661455 L49.3036655,41.9661455 C47.3287935,41.9519765 45.7832416,40.8267558 45.1271397,39.7166814 C44.4079025,38.5030261 44.4134583,37.1032184 44.4185092,35.858782 L44.4609361,27.0715074 C44.4624513,26.6801476 44.4493192,26.2609381 44.4387125,25.9174599 C44.4124482,25.0360452 44.3846687,24.1243381 44.5286171,23.2580695 C44.6518572,22.5095512 44.9609676,21.6168989 45.7322283,21.6168989 C45.7827365,21.6168989 45.8352651,21.6203189 45.8882987,21.6281364 C46.2014498,21.6721094 46.4272216,21.8142889 46.6898644,21.9804092 C46.9555377,22.1479951 47.2565669,22.3380564 47.6661885,22.3893582 C47.7666999,22.4020615 47.870747,22.4084132 47.9758041,22.4084132 C48.7657527,22.4079247 49.5218611,22.050766 50.0223976,21.782042 L50.1269496,21.7258542 C50.809821,21.3569695 51.5164312,20.97587 52.3174917,20.97587 C52.3786067,20.97587 52.4407319,20.9783129 52.5023519,20.9827102 C53.2029011,21.0369436 53.8579929,21.428792 54.1711439,21.9808977 C54.4590408,22.4900076 54.466617,23.0548165 54.4741933,23.6005706 L54.5999588,32.7430495 C54.619152,34.1790127 54.6388502,35.6638349 54.4448986,37.1134788 Z" id="Shape" fill="#FFFFFF"></path>
                <path d="M55.9770955,5.51240796 L55.4756847,5.6895431 C54.4116183,6.06589084 53.1712863,6.24148551 51.573444,6.24148551 C51.2124482,6.24148551 50.820083,6.23275715 50.372946,6.21530043 C48.5804149,6.14650009 46.4956016,5.97244563 44.6209128,5.20486056 L44.1204979,5 L44.0975932,5.55450969 C44.0731949,6.14085227 44.0517842,6.67739171 44.0283817,7.26116728 L44,8 L56,7.96200588 L55.9770955,5.51240796 Z" id="Path" fill="#FFFFFF"></path>
                <path d="M39.116893,2.5710861 C37.7149283,1.59791636 36.1892606,1.39231055 34.4226459,1.15397387 L34.3610429,1.14567594 C33.6421757,1.048866 32.9113854,1 32.1885439,1 C31.1522226,1 30.1089462,1.10049794 29.0885225,1.29826667 C28.1053586,1.4872765 27.1505124,1.76756416 26.2513074,2.13083172 C25.4703404,2.44569425 25.0629658,2.80342981 25.005834,3.22801039 C24.9725486,3.48524802 25.0828378,3.7742947 25.3073906,4.02046834 C25.5309498,4.26525907 25.8295256,4.44043886 26.0913382,4.57873869 C28.1386442,5.66854137 30.577427,5.89489213 32.9084046,5.97695009 C33.3545296,5.99262401 33.7440195,6 34.0992302,6 C35.2989981,6 37.072568,5.92393512 38.6116492,5.26747192 C39.065226,5.07431312 39.3826802,4.8760833 39.6102138,4.64420067 C39.8943823,4.35653702 40.0369635,3.99373043 39.9917549,3.67333579 C39.939591,3.30269224 39.6534352,2.94172977 39.116893,2.5710861 Z M36.9106118,4.2071732 C36.7163636,4.37820391 36.4540541,4.48377287 36.2737163,4.5478517 C35.5841604,4.7949474 34.759972,4.91019732 33.6794356,4.91019732 C33.3987446,4.91019732 33.1001689,4.9032823 32.7663204,4.88899141 C31.338522,4.83090542 29.841172,4.69444958 28.5663875,4.09837733 C28.3880368,4.01493646 28.2027311,3.91858749 28.0571692,3.78074863 C27.8952129,3.62907984 27.8157252,3.44836806 27.8390747,3.28333032 C27.8599402,3.12843451 27.9622807,2.99290061 28.153548,2.86796985 C28.3318987,2.749954 28.5375732,2.67942099 28.6553144,2.63931413 C29.2052701,2.45353133 29.789505,2.31108253 30.3916244,2.21657756 C30.9763561,2.12529972 31.5740045,2.07873881 32.1681751,2.07873881 C32.6540439,2.07873881 33.1458742,2.11008665 33.6297558,2.1709387 L33.6670157,2.1760096 C34.7107889,2.30831647 35.6964367,2.43370832 36.5787505,2.96754573 C36.7094085,3.04637655 37.1063504,3.28747929 37.1654693,3.61663295 C37.200742,3.81855064 37.1078407,4.03383741 36.9106118,4.2071732 Z" id="Shape" fill="#FFFFFF"></path>
                <path d="M38.9162029,23.6597998 L38.8965046,21.5249361 C38.8667045,18.2056484 38.8353893,14.8834601 38.8005385,11.5206631 L38.7970028,11.1619519 L38.4222296,11.1532499 C34.5037791,11.0633305 30.5893691,11.0120859 26.7870881,11.0009669 L26.4118099,11 L26.3986777,11.3591947 C26.1289623,18.7306625 25.9946095,26.1939835 26.0001655,33.5427296 C26.0011756,35.1844864 26.0026909,37.0457239 26.8057762,38.6555735 C27.6755329,40.3969185 29.5281852,41.6901161 31.525797,41.9502058 C31.7813701,41.9830796 32.0440143,42 32.3066586,42 C34.0931449,42 35.8452852,41.2463196 36.9933437,39.9830953 C38.9010503,37.8859397 39.0288368,34.9181118 38.9960063,31.8052523 C38.9672165,29.0685079 38.9414571,26.3612532 38.9162029,23.6597998 Z M37.4448898,34.5328114 C37.3171033,35.7999033 37.0574896,37.425223 36.1751058,38.7624135 C35.2725186,40.1286102 33.8022158,40.9770445 32.337974,40.9770445 L32.3041332,40.9770445 C30.3363215,40.9586739 28.7917712,39.4672665 28.1341502,37.9966472 C27.4058175,36.370844 27.4128886,34.5081561 27.4194547,32.8644658 L27.4608718,21.2537272 C27.4633972,20.7393488 27.4507701,20.2080501 27.4396581,19.7333135 C27.4128886,18.5638762 27.3851089,17.3547969 27.5290582,16.2022799 C27.699272,14.8355997 28.0624281,14.3197711 28.3366893,14.1283295 C28.4579098,14.0437278 28.5856964,14.0026355 28.7271203,14.0026355 C28.7761135,14.0026355 28.8281373,14.0079533 28.8811712,14.0176222 C29.1892731,14.0751512 29.4135309,14.2617585 29.6787006,14.4831732 C29.9448805,14.704588 30.2464164,14.955976 30.6615963,15.0241407 C30.7631184,15.0405776 30.8681761,15.0492795 30.9742441,15.0492795 C31.7732887,15.0492795 32.5334419,14.5755099 33.0344864,14.2196993 L33.1390389,14.1462167 C33.7885785,13.6825993 34.5244875,13.1571018 35.3184814,13.1571018 C35.3790916,13.1571018 35.4397018,13.1600025 35.4987968,13.1658038 C36.1948042,13.2359023 36.8488895,13.7575323 37.1655777,14.4942923 C37.4585271,15.1793244 37.4666085,15.9687792 37.4741848,16.6654139 L37.5994459,28.7286507 C37.6201544,30.6266296 37.640863,32.5893894 37.4448898,34.5328114 Z" id="Shape" fill="#FFFFFF"></path>
                <path d="M37.9756169,5.50201406 L37.4745179,5.67573016 C36.4121086,6.04481371 35.1730458,6.21701908 33.5756998,6.21701908 C33.2134357,6.21701908 32.8213145,6.20845919 32.3759486,6.19133941 C30.5845325,6.12386705 28.5015135,5.95317215 26.6274932,5.20040288 L26.1288823,5 L26.1044992,5.54229603 C26.0741447,6.22708957 26.0447853,6.91087612 26.0169189,7.59566966 L26,8 L38,7.9612285 L37.9756169,5.50201406 Z" id="Path" fill="#FFFFFF"></path>
                <path d="M21.6104162,4.64373958 C21.8980565,4.35054406 22.0371572,3.99695746 21.9914527,3.67333579 C21.93929,3.3036143 21.6531399,2.94311267 21.1166085,2.57062513 C19.7146721,1.59791636 18.1890352,1.39231055 16.422456,1.15397387 L16.3608543,1.14567594 C15.6420016,1.048866 14.911226,1 14.1879022,1 C13.1520987,1 12.1083465,1.10049794 11.0869498,1.2978057 C10.1043024,1.4872765 9.14997217,1.76756416 8.25128218,2.13083172 C7.47033099,2.44569425 7.06296459,2.80342981 7.0058339,3.2275493 C6.97254905,3.48524802 7.08283612,3.77383373 7.30738443,4.02046834 C7.53093909,4.26525907 7.82950883,4.44043886 8.09131629,4.57873869 C10.1385808,5.66854137 12.5773146,5.89443116 14.9082453,5.97695009 C15.3543611,5.99262401 15.7438431,6 16.0990468,6 C17.2987906,6 19.0723247,5.92393512 20.6113749,5.26747192 C21.0649426,5.07431312 21.3823903,4.8760833 21.6104162,4.64373958 Z M18.9103718,4.2071732 C18.7161275,4.37820391 18.4538233,4.48377287 18.2734891,4.5478517 C17.583947,4.7949474 16.7597752,4.91019732 15.6792607,4.91019732 C15.3985754,4.91019732 15.1000055,4.9032823 14.7661638,4.88899141 C13.3378974,4.83090542 11.8410743,4.69444958 10.5663156,4.09837733 C10.3879686,4.01493646 10.2021697,3.91858749 10.056114,3.78120972 C9.89515461,3.62907984 9.81566848,3.44836806 9.83852081,3.28333032 C9.85988261,3.12843451 9.96222106,2.99290061 10.1529878,2.86750877 C10.3313348,2.749954 10.5375018,2.67942099 10.6552406,2.63931413 C11.2046885,2.45353133 11.7889116,2.31108253 12.3915157,2.21657756 C12.9762355,2.12529972 13.5738719,2.07873881 14.1680307,2.07873881 C14.6538897,2.07873881 15.14571,2.10962568 15.6295819,2.1709387 L15.6668409,2.1760096 C16.7105932,2.30831647 17.6962212,2.43370832 18.5785172,2.96708465 C18.7086757,3.04545461 19.1056095,3.28471335 19.1652241,3.61663295 C19.2004961,3.81855064 19.1075967,4.03383741 18.9103718,4.2071732 Z" id="Shape" fill="#FFFFFF"></path>
                <path d="M8.38954712,11.5770479 C8.12590248,18.8895459 7.99509023,26.2779841 8.00014083,33.538243 C8.00165607,35.1808707 8.0031713,37.0430956 8.80622694,38.6537993 C9.67544632,40.396068 11.5285353,41.6899517 13.5260732,41.9501794 C13.7816369,41.9830707 14.0442714,42 14.306906,42 C16.0928211,42 17.8448967,41.2459198 18.9934179,39.9820253 C20.901054,37.8837571 21.0288358,34.9143548 20.9960065,31.7998439 L20.7757975,11 L20.3889166,11.0029021 C16.5842507,11.0343422 12.6735209,11.1068965 8.76582162,11.2186299 L8.40217375,11.2287876 L8.38954712,11.5770479 Z M9.4400854,22.1801217 C9.41331691,21.1459822 9.38604326,20.076533 9.5289771,19.0569043 C9.65877916,18.1407863 9.92191876,17.5192385 10.2901123,17.2604618 C10.4244599,17.1661413 10.5673938,17.120674 10.7269948,17.120674 C10.7769964,17.120674 10.8300284,17.125511 10.8850806,17.1347011 C11.1987268,17.1859728 11.4325726,17.3596192 11.6840958,17.5463254 C11.9502657,17.7422218 12.2517905,17.9647214 12.6634197,18.0246996 C12.7654431,18.0396941 12.871002,18.0469496 12.9780761,18.0469496 C13.775071,18.0469496 14.5311555,17.6280698 15.0271309,17.3146356 L15.1331948,17.2493369 C15.7822052,16.8381962 16.5185922,16.3719144 17.3145769,16.3719144 C17.3767,16.3719144 17.4393284,16.3748167 17.5019565,16.3806209 C18.1994534,16.4415665 18.8530094,16.9015603 19.1676658,17.5526134 C19.4585841,18.1528787 19.4666652,18.8460134 19.4742412,19.464659 L19.5994977,30.1446403 C19.6202054,31.8274145 19.6414182,33.5677485 19.4454523,35.2819629 C19.3176705,36.4017163 19.0580664,37.8378062 18.1787457,39.0170541 C17.2766969,40.2253238 15.8054383,40.9760181 14.3387252,40.9760181 L14.3043807,40.9760181 C12.3346214,40.9600561 10.789118,39.6415041 10.1315214,38.3418162 C9.40675108,36.9066938 9.41382194,35.2606803 9.42038778,33.8081448 L9.46129813,23.5276953 C9.46382356,23.0710874 9.45119693,22.6009362 9.4400854,22.1801217 Z" id="Shape" fill="#FFFFFF"></path>
                <path d="M12.4153502,8 L15.969026,7.98710963 C17.4945889,7.97917706 19.0544843,7.97421926 20.6148774,7.97025298 L21,7.96926134 L20.9736286,5.4947942 L20.4730688,5.66584041 C19.4107475,6.0292514 18.1717875,6.19881009 16.5745739,6.19881009 C16.2123398,6.19881009 15.8202512,6.19038176 15.3749221,6.17352511 C13.5836546,6.10708974 11.5008085,5.93901831 9.62694352,5.19781858 L9.12787657,5 L9.07513363,6.1834407 C9.05523065,6.63262273 9.03532768,7.08130888 9.01641992,7.52949927 L9,7.90927129 L9.38114187,7.92563219 C10.5539245,7.97620228 11.5182236,8 12.4153502,8 Z" id="Path" fill="#FFFFFF"></path>
                <path d="M36.6984631,14.5779754 C36.359356,13.7089604 35.6484509,13.0938783 34.8877775,13.0107729 C34.8219078,13.003591 34.7550622,13 34.6887046,13 C33.8411808,13 33.0941693,13.5843024 32.4354721,14.1008893 L32.3378873,14.1773256 C31.8807027,14.5338578 31.1927299,15.007866 30.4954867,15.007866 C30.4061966,15.007866 30.3173944,14.9996581 30.2310319,14.9837552 C29.8958282,14.9237347 29.6421078,14.6918605 29.3976579,14.4676812 C29.1429617,14.2337551 28.8799707,13.9921341 28.5213466,13.9187757 C28.4564528,13.9049248 28.3896072,13.8977429 28.3227616,13.8977429 C28.1324713,13.8977429 27.9558428,13.9587893 27.7997072,14.0798565 C27.435716,14.3589262 27.1693096,14.9565664 27.0078068,15.8573872 L27,15.9004789 L27.0014638,15.9440835 C27.0239082,16.6145691 27.2927543,16.9346786 27.6645523,17.377907 C28.0041473,17.7836867 28.4574287,18.1181602 29.0497682,18.4008208 C29.8694804,18.7927497 30.7784826,19 31.67919,19 C32.2041961,19 32.7252988,18.9312586 33.2288363,18.7953147 C34.5999025,18.4259577 35.8797268,17.5461697 36.834106,16.3170315 L37,16.1995554 L36.9829228,15.9707593 C36.9414491,15.4115937 36.8511832,14.9688783 36.6984631,14.5779754 Z" id="Path" fill="#CBE580"></path>
                <path d="M16.2254208,21.8309318 C17.5999024,21.5240153 18.8811906,20.7929876 19.8345938,19.7713737 L20,19.6532181 L19.980483,19.4442844 C19.9385215,18.9927955 19.8487435,18.6330451 19.6974872,18.3117195 C19.4379117,17.7627283 18.8084899,17.092219 17.8882654,17.0091259 C17.8219078,17.0033622 17.7545744,17 17.6877287,17 C16.8445962,17 16.0990485,17.4841498 15.441815,17.9106628 L15.3432545,17.9745438 C14.8860698,18.2704131 14.1966333,18.6642652 13.493535,18.6642652 C13.403757,18.6642652 13.3149549,18.6575408 13.2300561,18.6450529 C12.891437,18.5941403 12.6382045,18.4010568 12.3927787,18.2142171 C12.1380825,18.0211336 11.8746036,17.821806 11.5135399,17.7603266 C11.4481581,17.7497599 11.3866797,17.7444765 11.3247134,17.7444765 C11.1149062,17.7444765 10.9226641,17.8064361 10.7548183,17.9284343 C10.5225665,18.0960615 10.2044401,18.4822287 10.0102465,19.3693565 L10,19.4164265 L10.0024397,19.4644573 C10.0287875,20.0230548 10.3117834,20.3025937 10.6708954,20.6570605 C11.0114662,20.993756 11.4642595,21.270413 12.0541596,21.5038425 C12.8738717,21.8285303 13.7823859,22 14.6811418,22 C15.2041962,22 15.7233472,21.9428434 16.2254208,21.8309318 Z" id="Path" fill="#B2EAF9"></path>
                <path d="M62.9922386,45.5971419 L62.9751491,45.2225248 L21.1894658,45.3506295 C18.6504603,45.3506295 15.9762039,45.3618579 13.8273263,45.3715549 L10.096453,45.3843145 C8.13507129,45.3843145 6.03892696,45.2745833 4.355371,45.1862879 C3.14104275,45.1219803 1.76558537,45.0495067 0.432607416,45.0122491 L0,45 L0.0498035072,45.4491323 C0.0971656942,45.8758082 0.196772959,46.5969718 0.353019452,47.6549847 L0.404287801,48 L0.737776316,47.9867302 C11.3566787,47.5717931 22.1733305,47.3615175 32.8869571,47.3615175 C42.7827312,47.3615175 52.7703,47.5411704 62.5718378,47.8953726 L62.9424349,47.9086424 L62.9595244,47.5212658 C62.9980977,46.6281048 63.0093279,45.9804356 62.9922386,45.5971419 Z" id="Path" fill="#AF7979"></path>
                <path d="M16.4966615,7.35784996 L15.908933,7.36032468 C14.7678172,7.36527414 13.6267016,7.37022371 12.4860763,7.37368841 L12.354598,7.37418333 C10.5717886,7.37418333 8.70557867,7.27123342 7.05915375,7.18065726 L7.0086228,7.17818254 C5.83610929,7.11433383 4.62336721,7.04850518 3.43122992,7.01286868 L3,7 L3.0456251,7.4335775 C3.11234554,8.06018615 3.27767483,9.21738267 3.37628368,9.90833495 L3.43417353,10.3196397 C3.46459014,10.5319738 3.48961033,10.7096614 3.50923399,10.8541873 L3.55584021,11.1961988 L3.89778242,11.1828351 C9.48120372,10.9576321 15.2078779,10.8195406 20.9183624,10.7725203 L20.9639873,10.7705404 L20.9914605,10.7646011 L21.0307078,10.7715303 L21.064068,10.7710354 C22.7095117,10.7581666 24.0831677,10.7522272 25.3876505,10.7522272 C35.7842645,10.7522272 46.2721287,11.0561275 56.560322,11.6560087 C58.1758397,11.7500494 59.8624931,11.8559691 61.5731855,11.9712928 L62,12 L61.7139852,7.21728374 L22.7767227,7.34102154 C20.685822,7.34102154 18.5561645,7.34943569 16.4966615,7.35784996 Z" id="Path" fill="#AF7979"></path>
                <path d="M47.2521892,24.6542443 C46.7108125,24.469487 46.2987622,24.2513972 45.9910223,23.9871182 C45.8829357,23.8947395 45.7691853,23.7966468 45.6762026,23.6980778 L45.133882,23.125235 L45.053643,23.9137867 C44.978124,24.6542443 44.9998358,25.4066064 45.0206035,26.1342072 C45.0305154,26.4780081 45.0418432,26.8679983 45.0408992,27.2441794 L45.0007797,35.8139646 C44.9960599,37.108694 44.9908679,38.4472319 45.6941383,39.6872008 C46.3407696,40.8276485 47.8615328,41.9852386 49.8037865,42 L49.833994,42 C51.2556387,42 52.7381707,41.3257312 53.6104148,40.2824241 C54.4647231,39.2614973 54.7125197,38.0815268 54.841846,37.0620286 C55.0259235,35.6320644 55.0070437,34.1763866 54.989108,32.7688028 L54.8711096,23.8523597 L54.8687496,23.74141 L54.8446779,23 L54.2763977,23.4709405 C53.4192573,24.1809228 52.3114885,24.6951956 51.1565201,24.9194757 C50.6878305,25.0104259 50.2012051,25.0566152 49.7108037,25.0566152 C48.8673512,25.0566152 48.0172908,24.917571 47.2521892,24.6542443 Z" id="Path" fill="#F7B36F"></path>
                <path d="M54.6902741,22.0434391 C54.4317628,21.6067971 53.8030436,21.0733738 52.8836211,21.0072023 C52.8163106,21.0022507 52.7499757,21 52.6836407,21 C51.8476246,21 51.1042825,21.3830744 50.4511755,21.7197839 L50.3497219,21.7711006 C49.8907424,22.006527 49.1986147,22.3198288 48.4923422,22.3198288 C48.4021071,22.3198288 48.3123598,22.3144272 48.2260268,22.3040738 C47.8850844,22.2635606 47.6304752,22.1105108 47.3846455,21.9628629 C47.1319871,21.8098131 46.8705492,21.6513616 46.5115599,21.6031959 C46.4476636,21.5946432 46.3891328,21.590592 46.3335285,21.590592 C45.8950347,21.590592 45.3102136,21.8134143 45.0146328,22.8744091 L45,22.9270763 L45.0034143,22.981544 C45.032192,23.4303398 45.31753,23.6531623 45.6779827,23.9349539 C46.0203882,24.203241 46.4725393,24.4233626 47.0607746,24.6074724 C47.8787436,24.8640559 48.7840211,25 49.6795435,25 C50.200956,25 50.7189542,24.9549854 51.2193932,24.8663066 C52.5895034,24.6223272 53.8669398,24.0443394 54.8205053,23.2376772 L55,23.1260409 L54.9726856,22.9162728 C54.9278119,22.5696601 54.8380646,22.2919198 54.6902741,22.0434391 Z" id="Path" fill="#F9D889"></path>
                <path d="M36.8713112,17.1549795 C36.8713112,17.0825791 36.8703672,17.010179 36.868951,16.9377787 L36.8533741,16 L36.2397346,16.6902482 C35.3877196,17.6485729 34.290249,18.3442022 33.1488795,18.6479896 C32.6806254,18.7727333 32.1967941,18.8353497 31.7106029,18.8353497 C30.8727489,18.8353497 30.0259264,18.6455437 29.2621812,18.2854993 C28.7217064,18.0306309 28.3096239,17.7317353 28.0018601,17.3697341 C27.9013177,17.2523284 27.7955829,17.1270955 27.705425,17.0033303 L27.1286038,16.2064386 L27.0544951,17.1994958 C26.9766101,18.2356019 27.0002115,19.3157351 27.0209809,20.2681894 L27.0242851,20.4604415 C27.0332537,20.9007132 27.0417502,21.3556605 27.0398621,21.7959322 L27.0011557,33.5453161 C26.9950193,35.2320458 26.9884108,37.1438034 27.6884319,38.835425 C28.3341695,40.3964327 29.8559955,41.9804324 31.804537,42 L31.8338028,42 C33.2612227,42 34.7476465,41.0754295 35.6204307,39.6445466 C36.4715014,38.2503528 36.7212056,36.5670474 36.8434615,35.2569945 C37.0256651,33.3002314 37.0072559,31.3058007 36.9888467,29.3769216 L36.8713112,17.1549795 Z" id="Path" fill="#94C668"></path>
                <path d="M27.9324486,4.03996277 C29.2564638,4.74631691 30.7870489,4.90675707 32.2438589,4.97551733 C32.547812,4.9895818 32.8556995,5 33.164079,5 C34.0936439,5 35.0271434,4.90831983 35.8681783,4.56347746 C36.0772074,4.47804821 36.3821441,4.33636068 36.6231423,4.09465843 C36.9103729,3.8060742 37.043168,3.4341445 36.9875907,3.07315375 C36.9029955,2.52619828 36.4042765,2.18187678 36.2404961,2.0688392 C35.296668,1.41770172 34.2800486,1.27028415 33.2029339,1.11401114 L33.1670299,1.10880211 C32.0599134,0.947840805 30.9424682,0.965551813 29.8466637,1.16141399 C29.2284292,1.27184691 28.627409,1.439059 28.0608171,1.65784122 C28.0608171,1.65836223 28.0608171,1.65836223 28.0603253,1.65836223 C27.8203107,1.75108415 27.0889546,2.0344592 27.0068184,2.71164225 C26.9694391,3.01950011 27.0869872,3.34506885 27.3289692,3.60448212 C27.5134067,3.80294881 27.7376827,3.93578077 27.9324486,4.03996277 Z M28.3657537,2.54390915 C28.8816868,2.34440071 29.4295891,2.1917741 29.9947055,2.09071749 C31.0014882,1.91100356 32.0279442,1.89485532 33.046039,2.04279377 L33.0819428,2.0480028 C34.0995458,2.19542037 34.9784519,2.3230433 35.7545648,2.85853895 C36.072289,3.07784204 36.1057337,3.20286045 36.1091766,3.22578049 C36.1150786,3.26276513 36.0831094,3.33777618 36.0113017,3.41018257 C35.9149024,3.50707191 35.7673524,3.59406378 35.5470111,3.68418132 C34.5795751,4.08059382 33.4065528,4.08632387 32.2832056,4.03371199 C30.925254,3.96964002 29.5068069,3.82430608 28.3328009,3.19817216 C28.2103344,3.13253756 28.0578662,3.0445038 27.9629422,2.94292631 C27.9063814,2.88197986 27.8911347,2.83457702 27.8891673,2.83457702 C27.8896591,2.83353526 27.9373669,2.70955861 28.3657537,2.54390915 Z" id="Shape" fill="#202020"></path>
                <path d="M27.0219606,20.0677062 C27.0336092,20.5713214 27.0452579,21.0926072 27.0437384,21.5962225 L27.0017021,33.385039 C26.9956246,35.0917348 26.9885342,37.0256958 27.7492394,38.7456447 C28.4592985,40.3512247 30.1372057,41.9803659 32.2851091,42 C32.2977706,42 32.3104322,42 32.3230937,42 C33.9240187,42 35.5213985,41.0737604 36.4988693,39.5761678 C37.4267069,38.1541667 37.6981703,36.4459983 37.8308632,35.1162775 C38.0283832,33.1391216 38.0076183,31.1276061 37.9878663,29.1823556 L37.8617574,16.9350824 C37.8541604,16.1938944 37.8455506,15.3535541 37.5229346,14.5912593 C37.1527112,13.7160685 36.3717475,13.0961211 35.5335536,13.0112035 C34.5155658,12.9086152 33.6530619,13.5300352 32.892863,14.0788088 L32.7910642,14.151946 C32.2597861,14.5343203 31.4661608,15.0271368 30.7079879,14.9009876 C30.3975268,14.849448 30.1599964,14.6486891 29.908285,14.4361497 C29.6302377,14.2010311 29.3430739,13.9585498 28.9318271,13.8805041 C28.6188338,13.8216018 28.3331896,13.8809951 28.0824911,14.058193 C27.5907169,14.405226 27.2650621,15.2008988 27.1141366,16.4236135 C26.9662499,17.6227674 26.9946117,18.8656072 27.0219606,20.0677062 Z M37.3092078,35.0671922 C37.182086,36.3409558 36.9248034,37.973042 36.0557155,39.3047261 C35.1871339,40.6364103 33.7239664,41.4924579 32.3215743,41.4924579 C32.3109387,41.4924579 32.300303,41.4924579 32.2896672,41.4919671 C30.3782814,41.4742964 28.873584,39.9992832 28.2303779,38.5453766 C27.5127218,36.9221257 27.5193059,35.0441221 27.5248769,33.3865116 L27.5674198,21.5976951 C27.568939,21.0876988 27.5572904,20.562977 27.5456419,20.0564167 C27.5228511,19.0501679 27.5000603,18.0159408 27.5816006,17.0136189 C27.68188,17.1446767 27.7968468,17.2713167 27.919917,17.4063013 C28.2860886,17.8088007 28.7712789,18.1396356 29.4023299,18.4174585 C30.283573,18.8052324 31.2367337,19.0025552 32.1893879,19.0025552 C32.7414311,19.0025552 33.2929677,18.93629 33.8293104,18.802778 C35.1395265,18.4768516 36.3676958,17.7464624 37.3350373,16.7289241 C37.3360503,16.7991162 37.3370632,16.869799 37.3380761,16.9395 L37.4636785,29.1872641 C37.4834306,31.1192615 37.5041954,33.1170333 37.3092078,35.0671922 Z M28.3909262,14.4680552 C28.4881668,14.3993359 28.5894591,14.3659577 28.7039194,14.3659577 C28.7444363,14.3659577 28.7869792,14.3698846 28.8310413,14.3782292 C29.1045305,14.4302595 29.32788,14.6187471 29.5638912,14.8185243 C29.8454838,15.0560971 30.1640481,15.3250846 30.6183442,15.400676 C31.5750501,15.560694 32.4947842,14.9971948 33.1030446,14.5593539 L33.2053497,14.485235 C33.9219929,13.967876 34.663959,13.4333372 35.4788558,13.5158005 C36.1281394,13.5815747 36.739945,14.0792996 37.0382508,14.7836737 C37.2013315,15.1694842 37.2722361,15.5822915 37.3056625,16.0019709 C37.2859106,16.0157148 37.2671716,16.0309311 37.2509648,16.0495836 C36.3124914,17.1716736 35.0508958,17.974709 33.6991498,18.3109434 C32.3514556,18.6466868 30.9019627,18.5205375 29.618589,17.9550749 C29.0564166,17.7081759 28.6294696,17.4185726 28.3129312,17.0705578 C27.9442272,16.6656041 27.7401231,16.4393208 27.7203711,15.934724 C27.9128265,14.9490912 28.2126517,14.5937135 28.3909262,14.4680552 Z" id="Shape" fill="#202020"></path>
                <path d="M10.9324311,4.03996277 C12.2564212,4.74631691 13.7869775,4.90675707 15.2437603,4.97551733 C15.5477076,4.9895818 15.8555894,5 16.1639631,5 C17.0935104,5 18.0269924,4.90831983 18.8680114,4.56347746 C19.0770367,4.47804821 19.3824594,4.33636068 19.6229613,4.09465843 C19.9106783,3.8060742 20.0434708,3.43362362 19.9874028,3.07315375 C19.9028091,2.5256774 19.4040996,2.18187678 19.2403221,2.0688392 C18.296512,1.41770172 17.2799117,1.27028415 16.203309,1.11401114 L16.1669139,1.10880211 C15.0598182,0.947840805 13.942394,0.965551813 12.84661,1.16141399 C12.2283873,1.27184691 11.6273784,1.439059 11.0607971,1.65784122 C11.0607971,1.65836223 11.0607971,1.65836223 11.0603052,1.65836223 C10.8202951,1.75108415 10.0894447,2.0344592 10.0068183,2.71164225 C9.96943963,3.01950011 10.0869856,3.34506885 10.328963,3.60448212 C10.5133969,3.80294881 10.7371769,3.93578077 10.9324311,4.03996277 Z M11.3662198,2.54338828 C11.8821432,2.3438797 12.4300352,2.1917741 12.9946491,2.09071749 C14.0014129,1.91100356 15.0278495,1.89485532 16.0459253,2.04279377 L16.0818284,2.0480028 C17.0994123,2.19542037 17.97781,2.3230433 18.7544001,2.85853895 C19.0716266,3.07784204 19.1055624,3.20286045 19.1090052,3.22630136 C19.1149071,3.26276513 19.0829384,3.33777618 19.0106404,3.41070345 C18.9147347,3.50707191 18.7671875,3.59406378 18.5468503,3.68418132 C17.5794325,4.08059382 16.406924,4.08632387 15.2831062,4.03371199 C13.9251802,3.96964002 12.5067597,3.82430608 11.3327758,3.19817216 C11.2103116,3.13253756 11.0573543,3.0445038 10.9624323,2.94292631 C10.9058725,2.88197986 10.8911178,2.83457702 10.8891506,2.83457702 C10.8896424,2.83353526 10.9373493,2.70955861 11.3662198,2.54338828 Z" id="Shape" fill="#202020"></path>
                <path d="M9.0219291,23.1103034 C9.03357797,23.5429975 9.04573329,23.9900034 9.0437074,24.4222205 L9.00167024,34.5616691 C8.99508614,36.0348327 8.98799547,37.7045452 9.75428696,39.1939287 C10.4658794,40.578359 12.143313,41.9828258 14.2856874,42 C14.2983492,42 14.3105045,42 14.3231664,42 C15.9185515,42 17.5124174,41.2028315 18.4904139,39.9133364 C19.4238408,38.6829968 19.696829,37.2060168 19.8305374,36.0567774 C20.0285678,34.3512854 20.0078025,32.6205091 19.9875437,30.9465029 L19.8619387,20.412525 C19.8543416,19.7704013 19.8457316,19.0419295 19.5180446,18.3764298 C19.145788,17.6193344 18.3653154,17.0826411 17.5306504,17.0096508 C16.5232786,16.9213946 15.662277,17.4552255 14.9045957,17.9260845 L14.8027949,17.9885795 C14.2694803,18.3191825 13.4728007,18.7456749 12.7024576,18.6349968 C12.3869258,18.589676 12.1483777,18.4165029 11.8961549,18.2328345 C11.6186085,18.0315149 11.332452,17.8235165 10.9257555,17.757205 C10.5945231,17.70282 10.294692,17.7672233 10.0343657,17.9470751 C9.5699312,18.2676599 9.26047721,18.9469944 9.11461341,19.9659961 C8.96621717,21.002172 8.99457957,22.0741275 9.0219291,23.1103034 Z M19.3098847,36.0028696 C19.1756698,37.1602189 18.9224341,38.4955118 18.0644714,39.6266228 C17.1958727,40.7710916 15.7301441,41.5067191 14.3216469,41.5067191 C14.311011,41.5067191 14.3003752,41.5067191 14.2897392,41.5067191 C12.3722381,41.4914532 10.8664983,40.2262883 10.2253054,38.9792515 C9.51219351,37.5924359 9.51928418,35.9833101 9.52485527,34.5635774 L9.56739887,24.4241286 C9.56942476,23.9847557 9.55726944,23.5339334 9.54562057,23.0978999 C9.52282938,22.2377594 9.50054464,21.3532887 9.5805672,20.4974418 C9.68388739,20.6152758 9.80290822,20.7278622 9.93104548,20.8485585 C10.2977308,21.1953816 10.782424,21.4801869 11.412981,21.7187173 C12.2906963,22.0512286 13.2408367,22.2201082 14.1899643,22.2201082 C14.7389794,22.2201082 15.2879945,22.1633379 15.822322,22.0488433 C17.1350962,21.7683316 18.3663283,21.1362262 19.3357148,20.255572 C19.3367278,20.3099569 19.3377407,20.3643419 19.3382471,20.4182497 L19.4638521,30.9522277 C19.4841109,32.6114449 19.5043698,34.3269553 19.3098847,36.0028696 Z M10.3438197,18.3444667 C10.4527111,18.2695682 10.5722383,18.2323575 10.7059468,18.2323575 C10.747984,18.2323575 10.7915406,18.235697 10.8366165,18.2433299 C11.1151758,18.2886506 11.3289068,18.4436953 11.5760649,18.6235473 C11.8566501,18.8272523 12.1742077,19.0581495 12.6239544,19.1230298 C13.5700432,19.2585152 14.4852372,18.7762067 15.0909772,18.401237 L15.1927779,18.3377879 C15.9119674,17.8912591 16.6569871,17.4289872 17.4820291,17.5010233 C18.2751635,17.5701972 18.8186074,18.1278812 19.0429742,18.5839512 C19.1989676,18.9011966 19.269367,19.241818 19.3033006,19.5886411 C19.288613,19.5986594 19.2744318,19.6096319 19.2617699,19.6229894 C18.3232782,20.5876063 17.0606448,21.2779132 15.7068465,21.5679661 C14.3520352,21.857542 12.8969426,21.748772 11.6084791,21.260739 C11.0452828,21.0474928 10.6178208,20.7989442 10.3017826,20.5003042 C9.91483839,20.1348757 9.74061219,19.9516844 9.72136621,19.5576322 C9.90268308,18.7633261 10.1792165,18.4584842 10.3438197,18.3444667 Z" id="Shape" fill="#202020"></path>
                <path d="M45.9323062,4.03996277 C47.2563148,4.74631691 48.7868922,4.90675707 50.2436949,4.97551733 C50.5476462,4.9895818 50.8560241,5 51.1644021,5 C52.0934704,5 53.0269652,4.90831983 53.8679958,4.56347746 C54.0770239,4.47804821 54.3824509,4.33636068 54.6229561,4.09465843 C54.9106771,3.8060742 55.0434714,3.43362362 54.9874027,3.07367476 C54.9028078,2.52619828 54.4040914,2.18187678 54.2403118,2.0688392 C53.2964885,1.41770172 52.2798743,1.27028415 51.2027649,1.11401114 L51.1668612,1.10880211 C50.0592583,0.947840805 48.9423106,0.965551813 47.8465117,1.16141399 C47.2282803,1.27184691 46.6272632,1.439059 46.0606741,1.65784122 C46.0606741,1.65836223 46.0606741,1.65836223 46.0601823,1.65836223 C45.8201689,1.75108415 45.0888165,2.0344592 45.0066808,2.71164225 C44.9697934,3.0189791 45.0868492,3.34506885 45.3283382,3.60500299 C45.5137583,3.80294881 45.7375414,3.93630178 45.9323062,4.03996277 Z M46.366101,2.54390915 C46.8820315,2.34440071 47.429931,2.1917741 47.9945528,2.09071749 C49.0018222,1.91100356 50.0282729,1.89485532 51.0463627,2.04279377 L51.0822663,2.0480028 C52.0998643,2.19542037 52.978274,2.3230433 53.7548748,2.85853895 C54.0721056,3.07784204 54.1055501,3.20286045 54.1094848,3.22630136 C54.1148949,3.26276513 54.082926,3.33777618 54.0106268,3.41070345 C53.9147198,3.50707191 53.7671705,3.59406378 53.5473221,3.68418132 C52.5793992,4.08059382 51.4068746,4.08632387 50.2835331,4.03371199 C48.9255884,3.96964002 47.5071484,3.82430608 46.3331483,3.19817216 C46.2101907,3.13253756 46.0572313,3.0445038 45.9627998,2.94292631 C45.9062392,2.88197986 45.8914844,2.83457702 45.8890251,2.83457702 C45.889517,2.83353526 45.9377164,2.70955861 46.366101,2.54390915 Z" id="Shape" fill="#202020"></path>
                <path d="M44.0220101,25.3985973 C44.033659,25.7773291 44.045308,26.1694103 44.0432821,26.5476476 L44.0012447,35.4384485 C43.995167,36.7387936 43.9880763,38.212683 44.7624746,39.5332997 C45.4766024,40.7505809 47.1520172,41.9851671 49.2852841,42 C49.2979461,42 49.3106079,42 49.3227632,42 C50.9100515,42 52.4988594,41.3013735 53.4773664,40.1706171 C54.4199139,39.0808982 54.6954355,37.7751143 54.829651,36.7590652 C55.0281887,35.2599601 55.0079297,33.7386057 54.9876708,32.267683 L54.8620653,23.0307825 C54.8539618,22.459224 54.8453517,21.8115236 54.5100661,21.2147492 C54.1347692,20.5452939 53.3563193,20.0721265 52.5267154,20.0083454 C51.5304818,19.931709 50.6760608,20.3974601 49.922428,20.8078351 L49.8196138,20.8637055 C49.2827518,21.1554179 48.4784717,21.531183 47.6964764,21.4332864 C47.3738527,21.3927432 47.1337841,21.2399651 46.8795344,21.0777927 C46.6035063,20.9022708 46.3188681,20.7208158 45.9192604,20.6634622 C45.3768271,20.585837 44.4241502,20.7391096 44.1157078,22.6288128 C43.9657916,23.5439987 43.9946606,24.4868725 44.0220101,25.3985973 Z M54.3100091,36.6933063 C54.177313,37.6989724 53.9266085,38.8589 53.0772523,39.8408337 C52.2086499,40.8445221 50.7378505,41.489256 49.3212438,41.489256 C49.3106079,41.489256 49.2999718,41.489256 49.2893359,41.489256 C47.3637232,41.4754121 45.8564577,40.3698714 45.2167814,39.2796581 C44.5122766,38.0781986 44.5183543,36.7373104 44.5249385,35.4409206 L44.5669757,26.5501198 C44.5690016,26.1634771 44.5568463,25.7669461 44.5451975,25.3837645 C44.5229125,24.6366841 44.5006278,23.8693321 44.5781182,23.1281848 C44.6885294,23.2409144 44.8136284,23.3462275 44.9463246,23.4564848 C45.3135179,23.760558 45.7972003,24.0097496 46.425734,24.2183982 C47.2999075,24.5086272 48.2454938,24.6564612 49.1895606,24.6564612 C49.7360457,24.6564612 50.2820242,24.606524 50.8133152,24.507144 C52.1291336,24.2604245 53.3644228,23.7022156 54.3358392,22.9234917 C54.3363456,22.962057 54.3373587,23.0001281 54.3378651,23.038199 L54.4634706,32.2746049 C54.4837295,33.7277283 54.5039884,35.2302944 54.3100091,36.6933063 Z M45.7146451,21.1603622 C45.7556694,21.1603622 45.7987196,21.1633287 45.8432893,21.1697563 C46.128434,21.2102994 46.3436853,21.3472559 46.5928703,21.5064616 C46.8714308,21.6834668 47.1874704,21.8851933 47.6296218,21.9405692 C48.5635592,22.0587375 49.472173,21.637485 50.0738635,21.3106683 L50.1771843,21.2547978 C50.8999221,20.8612333 51.6469707,20.4533304 52.485691,20.5185949 C53.2849065,20.5794095 53.8283527,21.0639488 54.0506946,21.4604798 C54.195546,21.7185712 54.2644264,21.9969339 54.2993731,22.28123 C54.291776,22.2866687 54.2836724,22.2911185 54.2765818,22.2975461 C53.3380862,23.1435121 52.072915,23.7496806 50.7145528,24.0048054 C49.3531517,24.2604245 47.8899492,24.1640111 46.5943897,23.7343533 C46.0296716,23.5469652 45.601195,23.3284281 45.2851554,23.0668759 C44.9017549,22.7489587 44.7412027,22.6011248 44.7214502,22.2851854 C44.8754182,21.6992885 45.1656276,21.1603622 45.7146451,21.1603622 Z" id="Shape" fill="#202020"></path>
                <path d="M63.4801287,45.0663111 C63.4723162,45.0658235 63.4654801,45.0648481 63.4566911,45.0658235 L59.8746539,45.076552 C59.8746539,45.0750891 59.8746539,45.0741137 59.8746539,45.0731384 C59.7530717,34.3738071 60.0226034,23.535004 60.6749482,12.8512779 C60.9469213,12.8693215 61.2193826,12.887365 61.4908675,12.9058962 C61.5006331,12.9063838 61.5108871,12.9068716 61.5206526,12.9068716 C61.6368638,12.9068716 61.7491688,12.8610312 61.8321767,12.7786161 C61.9220206,12.6893737 61.9693839,12.5655073 61.9620596,12.4392025 L61.670067,7.58744102 C61.6559069,7.35433793 61.4625472,7.17243958 61.2291483,7.17243958 C61.22866,7.17243958 61.2281718,7.17243958 61.2276834,7.17243958 L56.3775777,7.1880448 L56.3614644,5.5836327 C56.3609761,5.52316259 56.3482807,5.46561826 56.3253314,5.41343826 C56.7574612,5.20032946 57.077286,4.97307846 57.3224035,4.70486362 C57.7057049,4.2849856 57.8892989,3.76221062 57.825334,3.27015832 C57.7555097,2.73616717 57.4093178,2.24265198 56.7652737,1.76279136 C55.2833376,0.656771148 53.6490575,0.419766754 51.9190741,0.168620157 L51.859992,0.159842282 C50.075321,-0.0991069265 48.2716071,-0.0430256234 46.4996315,0.325647781 C45.5010946,0.533392381 44.5299016,0.840132524 43.6138844,1.23757797 C43.2652511,1.38924126 42.2042141,1.84959535 42.0875147,2.80151399 C42.0367334,3.21554004 42.1876125,3.66419021 42.5010896,4.03286374 C42.770133,4.34886952 43.1094891,4.56490424 43.4063646,4.73461104 C43.5054859,4.79166761 43.6070485,4.84433536 43.7086112,4.89700287 C43.6763845,5.60021331 43.6514822,6.20686638 43.6241384,6.87740335 L43.6099782,7.22803325 L38.8062592,7.24315072 L38.7896576,5.5836327 C38.7886811,5.52316259 38.7759857,5.46561826 38.7535248,5.41295063 C39.1851661,5.20032946 39.5054792,4.97307846 39.7501085,4.70486362 C40.1338981,4.2849856 40.3170039,3.76172286 40.253039,3.27015832 C40.1837029,2.73567942 39.8370226,2.24265198 39.1934669,1.76279136 C37.7115308,0.656283391 36.0772508,0.419279122 34.3472674,0.168132525 L34.2881853,0.159842282 C32.5035143,-0.0991069265 30.7002886,-0.0430256234 28.9278247,0.325160149 C27.9292879,0.533392381 26.9580948,0.840132524 26.0420778,1.23757797 C25.6934443,1.38875363 24.6328957,1.84910772 24.515708,2.80151399 C24.4649266,3.21554004 24.6153175,3.66419021 24.9292829,4.03286374 C25.1983263,4.34886952 25.5376823,4.56490424 25.8345578,4.73461104 C25.9341673,4.79166761 26.0352418,4.84433536 26.1372927,4.89749063 C26.1006716,5.69286927 26.0655153,6.48824803 26.032312,7.2836268 L22.4102357,7.29484308 C21.9536919,7.29484308 21.4951952,7.29581834 21.0366983,7.29630598 L21.0196084,5.5836327 C21.0191201,5.52316259 21.0059365,5.46561826 20.9834755,5.41343826 C21.4156051,5.20032946 21.7354298,4.97307846 21.9805475,4.70486362 C22.3643371,4.2849856 22.5474429,3.76172286 22.4834781,3.27015832 C22.4136537,2.73567942 22.0669734,2.24265198 21.4239059,1.76279136 C19.9414816,0.656771148 18.3076898,0.419766754 16.5777064,0.168620157 L16.5181359,0.159842282 C14.7334651,-0.0991069265 12.9302393,-0.0430256234 11.1577755,0.325647781 C10.1592387,0.533392381 9.18804556,0.840132524 8.27251677,1.23757797 C7.92388332,1.38924126 6.86284641,1.84959535 6.74614697,2.80151399 C6.69536563,3.21554004 6.84575651,3.66419021 7.15972191,4.03286374 C7.42876536,4.34886952 7.7681213,4.56539187 8.06450855,4.73461104 C8.16411809,4.79166761 8.26568076,4.844823 8.36724343,4.89749063 C8.33159887,5.66994919 8.29790732,6.44240775 8.26519251,7.21486631 C7.77300419,7.19048309 7.28179237,7.16463697 6.79546343,7.13830321 C5.45171118,7.0656413 4.06254873,6.99054122 2.69145268,6.96030604 C2.56303447,6.96030604 2.43656951,7.018338 2.35258487,7.11538301 C2.17631507,7.31873855 2.15776042,7.3397081 2.5991674,10.4056468 C2.6855933,11.0069356 2.76713644,11.5750632 2.77592545,11.7013681 C2.79301535,11.9393477 2.99662894,12.1217337 3.23491059,12.1114928 C3.43559455,12.1036902 3.63627852,12.096863 3.83696235,12.0890604 C4.13725585,23.0019881 4.02543929,34.0592642 3.50444229,44.9648771 C2.4932101,44.9170862 1.47025927,44.8746595 0.456585694,44.8536899 C0.327679228,44.8536899 0.199749264,44.9126971 0.115764748,45.0107176 C-0.0605050466,45.2155361 -0.0829659592,45.2418699 0.391155834,48.3034197 C0.480511484,48.8778869 0.572308512,49.4713732 0.581585903,49.5957272 C0.60697657,49.9478201 0.846234721,50 1.19584468,50 C1.26566905,50 1.33988792,49.9975617 1.4175248,49.9956111 C1.66264234,49.9887838 2.0146938,49.9785429 2.44242877,49.9658636 C3.29838732,49.9409928 4.45756889,49.9063687 5.67192642,49.8702816 C8.35601291,49.7907925 11.3984985,49.7000872 11.8657844,49.6908216 C14.4819998,49.6908216 17.1392307,49.6708274 19.708571,49.6513209 C25.1035996,49.6113324 30.6817339,49.5693935 36.1714892,49.7098405 C46.1094941,49.9644006 54.3678087,50.0277969 62.1622553,49.9107577 C63.5943866,49.8893005 63.9054224,49.2080349 63.9435083,48.1156693 C63.9444849,48.0946998 63.9464379,48.0493471 63.949856,47.9859509 C63.9625513,47.7172484 63.993313,47.0881629 63.9981959,46.5356404 C64.0060084,45.7295331 64.0118678,45.0931326 63.4801287,45.0663111 Z M58.9908633,45.0789904 L57.5680094,45.0833793 L58.758441,12.7269237 C59.1031682,12.7488687 59.4483837,12.7708135 59.7931107,12.7932459 C59.1397894,23.4984292 58.8692811,34.3586895 58.9908633,45.0789904 Z M6.94829581,11.9749471 C7.32671432,11.9622678 7.7056212,11.9510516 8.08403983,11.9393477 C7.83013316,19.2742904 7.70317982,26.7067657 7.70855096,34.0392701 C7.70952746,35.6646517 7.71099233,37.6874787 8.53716559,39.4157572 C9.46343664,41.3517803 11.3613891,42.7347932 13.4902989,43.0239775 C13.7720376,43.0625029 14.0552412,43.0815218 14.3374683,43.0815218 C16.187569,43.0810342 18.0049548,42.2739515 19.2285897,40.8694814 C21.1895305,38.6194032 21.3223432,35.5232293 21.2896283,32.2817318 L21.081132,11.6877135 C22.6743963,11.6764972 24.2686373,11.6706452 25.8628782,11.6730835 C25.6031122,19.092392 25.4732291,26.6145974 25.4786002,34.0392701 C25.4795768,35.6646517 25.4810416,37.6874787 26.3072148,39.4157572 C27.233486,41.3517803 29.1309501,42.7347932 31.2603481,43.0239775 C31.542087,43.0625029 31.8248022,43.0815218 32.1070293,43.0815218 C33.95713,43.0810342 35.7745158,42.2739515 36.998639,40.8694814 C38.9595798,38.6194032 39.0923925,35.5232293 39.0596775,32.2817318 C39.0245212,28.7939643 38.9942478,25.3535003 38.9639744,21.9125485 C38.9341891,18.5730307 38.9048922,15.2325375 38.8712007,11.8501053 C40.3892696,11.8891184 41.9068503,11.9339834 43.4239427,11.9856756 C43.1710127,19.3059885 43.0450358,26.7238339 43.050407,34.0392701 C43.0513835,35.6646517 43.0528484,37.6879664 43.8790216,39.4157572 C44.8052927,41.3517803 46.7032451,42.7347932 48.8321549,43.0239775 C49.1138936,43.0625029 49.396609,43.0815218 49.6788361,43.0815218 C51.5289368,43.0810342 53.346811,42.2739515 54.570934,40.8694814 C56.5313865,38.6194032 56.6646875,35.5232293 56.6314843,32.2817318 L56.4322652,12.5864767 C56.9117583,12.6142736 57.3932044,12.6430458 57.875627,12.6727932 L56.6832423,45.0858176 L21.6783008,45.188227 C19.2237069,45.188227 16.7280973,45.1979802 14.314519,45.2077335 C13.0947903,45.2126101 11.8750618,45.2174868 10.6553333,45.2210414 C9.38287013,45.2238264 8.08257496,45.180912 6.79058067,45.1238554 C6.79839318,45.0916696 6.80327594,45.0585085 6.80327594,45.0243721 L6.94829581,11.9749471 Z M20.1978296,11.6940531 L20.4063261,32.2905098 C20.4370879,35.3559608 20.3199002,38.2741376 18.562573,40.2901375 C17.3633522,41.666323 15.4185247,42.3953796 13.6094397,42.150085 C11.7998664,41.9038151 10.1221291,40.6812433 9.33501855,39.03538 C8.59478281,37.4875368 8.59331806,35.6553861 8.59234143,34.0387824 C8.5869703,26.6970124 8.71392376,19.2552715 8.96880694,11.9120386 C12.7051413,11.8003637 16.4492882,11.7272142 20.1978296,11.6940531 Z M37.9874103,11.8291358 C38.0215899,15.2213212 38.0508869,18.5715677 38.080672,21.9203511 C38.1109456,25.3613029 38.141219,28.8027423 38.1763753,32.2905098 C38.2076254,35.3559608 38.0899494,38.2741376 36.3326222,40.2901375 C35.1334015,41.6658354 33.1890623,42.3953796 31.3799772,42.150085 C29.5699157,41.9038151 27.8921785,40.6812433 27.1050678,39.03538 C26.3648322,37.4875368 26.3633673,35.6553861 26.3623908,34.0387824 C26.3570197,26.615085 26.4869026,19.0933673 26.7471569,11.6750342 C30.4947218,11.6872259 34.242775,11.7394057 37.9874103,11.8291358 Z M55.5484748,12.5362475 L55.7481821,32.2905098 C55.7794322,35.3559608 55.6617562,38.2741376 53.904429,40.2901375 C52.7052083,41.6658354 50.7598925,42.3953796 48.951784,42.150085 C47.1422107,41.9038151 45.4639853,40.6812433 44.6768744,39.03538 C43.936639,37.4880245 43.9356623,35.6553861 43.9341975,34.0387824 C43.9293147,26.7345626 44.0548032,19.326958 44.3067567,12.0178615 C48.0621341,12.1519689 51.8111638,12.3236263 55.5484748,12.5362475 Z M43.1744306,3.46132231 C43.0225749,3.28283763 42.9444498,3.07606842 42.9649576,2.9087999 C43.0015788,2.60986237 43.3384933,2.31970271 43.9664241,2.04709906 C44.8272654,1.67354896 45.7403529,1.38485232 46.6802958,1.18978703 C48.3507088,0.841595544 50.0509069,0.78892779 51.7330386,1.03324716 L51.7921209,1.04153741 C53.4781588,1.28634441 54.9342159,1.49750256 56.2369524,2.46941536 C56.6788478,2.79956333 56.9117583,3.09850086 56.949356,3.38427158 C56.9791412,3.61444863 56.8746489,3.88607702 56.6695704,4.1104021 C56.480117,4.3181467 56.2061907,4.49955743 55.8087291,4.68243105 C54.1768903,5.43050651 52.232063,5.4685443 50.3736614,5.3983208 C48.1324467,5.31395496 45.7901576,5.08231502 43.8458184,3.96897983 C43.6153493,3.83731069 43.3555832,3.6739436 43.1744306,3.46132231 Z M44.5074407,6.91349037 C44.5299016,6.35999257 44.5508977,5.84989689 44.5753118,5.29298554 C46.4288306,6.02838157 48.4976817,6.21076768 50.3404582,6.28001592 C50.7345018,6.29513339 51.1324518,6.30537429 51.5313782,6.30537429 C52.8731773,6.30537429 54.2266952,6.18979813 55.479627,5.76065449 L55.4942754,7.19048309 L44.4947453,7.22559484 L44.5074407,6.91349037 Z M25.6026238,3.46132231 C25.4507681,3.28283763 25.3721546,3.07606842 25.3926625,2.90928765 C25.429772,2.60986237 25.7661983,2.31970271 26.3941291,2.04709906 C27.2549703,1.67354896 28.1680578,1.38533996 29.1080008,1.18978703 C30.7789021,0.841595544 32.4791002,0.78892779 34.1607436,1.03324716 L34.2203141,1.04202504 C35.9058638,1.28634441 37.3619208,1.49799019 38.6646574,2.46990299 C39.107041,2.79956333 39.3399515,3.09850086 39.377061,3.38427158 C39.4068461,3.61444863 39.3023538,3.88607702 39.0977636,4.1104021 C38.9078219,4.3181467 38.6338956,4.50004506 38.236434,4.68243105 C36.6050837,5.43050651 34.6597679,5.4685443 32.8013663,5.39880843 C30.5601517,5.31395496 28.2178627,5.08231502 26.2735234,3.96946746 C26.0435425,3.83731069 25.7832882,3.6739436 25.6026238,3.46132231 Z M27.0039934,5.29347317 C28.8570238,6.02838157 30.9258749,6.21076768 32.7686515,6.28001592 C33.1626951,6.29513339 33.5601567,6.30537429 33.9595714,6.30537429 C35.3008823,6.30537429 36.6544001,6.18979813 37.9078202,5.76065449 L37.9224686,7.24607676 L26.9165909,7.28070075 C26.9449113,6.61845414 26.9742082,5.95571978 27.0039934,5.29347317 Z M7.83257454,3.46132231 C7.68071878,3.28283763 7.6021054,3.07606842 7.62261331,2.90928765 C7.65972275,2.60986237 7.99663731,2.31970271 8.62407986,2.04709906 C9.48492105,1.67354896 10.3980086,1.38533996 11.3379515,1.18978703 C13.0088527,0.841595544 14.7090509,0.78892779 16.3906944,1.03324716 L16.4502647,1.04202504 C18.1363028,1.28634441 19.5923598,1.49799019 20.8950964,2.46990299 C21.3369916,2.79956333 21.5699023,3.09850086 21.6070117,3.38427158 C21.6372851,3.61444863 21.5327928,3.88607702 21.3277144,4.1104021 C21.1377726,4.3181467 20.8643346,4.50004506 20.4663848,4.68243105 C18.8350345,5.43050651 16.8902069,5.4685443 15.0318053,5.39880843 C12.7901023,5.31395496 10.4478133,5.08231502 8.50347416,3.96946746 C8.27349328,3.83731069 8.01323897,3.6739436 7.83257454,3.46132231 Z M9.23394413,5.29347317 C11.0874629,6.02838157 13.1558257,6.21076768 14.9986022,6.28001592 C15.3926458,6.29513339 15.7901074,6.30537429 16.1895221,6.30537429 C17.530833,6.30537429 18.8843509,6.18979813 20.1377709,5.76065449 L20.1533959,7.29825675 C18.6221433,7.3016703 17.0904025,7.30800989 15.5933298,7.31434961 C14.451238,7.31873855 13.3096345,7.32361512 12.1675428,7.32751642 C11.1719356,7.32897944 10.1587503,7.29874439 9.14800649,7.25534239 C9.17535028,6.6013859 9.20464721,5.94742954 9.23394413,5.29347317 Z M3.47319224,10.2803173 C3.37504758,9.59612591 3.21147305,8.46035815 3.14604332,7.85468047 C4.3447757,7.88930447 5.56401612,7.95562667 6.74761185,8.01951058 C8.53179446,8.11558021 10.374571,8.21506363 12.1699842,8.21018694 C13.3125642,8.20628563 14.454656,8.2018967 15.597236,8.19702 C17.8301499,8.18726674 20.1392358,8.17751347 22.4112122,8.17751347 L60.8126437,8.05657299 L61.0494605,11.9915277 C59.3873483,11.8803404 57.7100995,11.7754929 56.0572646,11.6803985 C45.7618373,11.0864248 35.3799839,10.7889501 25.0098494,10.7889501 C23.5743001,10.7889501 22.1387509,10.7962651 20.7036898,10.8074813 C20.6812289,10.8040677 20.6587679,10.800654 20.6348421,10.800654 C20.6333772,10.800654 20.6319125,10.800654 20.6304476,10.800654 C20.6060334,10.8011417 20.5821076,10.8045553 20.5586701,10.8089443 C14.8945981,10.8552723 9.23736214,10.9888921 3.60600496,11.2137048 C3.57475491,10.9859661 3.53032134,10.6762999 3.47319224,10.2803173 Z M4.71977633,12.0558991 C5.16801933,12.038831 5.61577395,12.0212751 6.0645052,12.0051822 L5.91997371,45.0204708 C5.91997371,45.041928 5.92339172,45.0628975 5.92632135,45.0833793 C5.57280513,45.0663111 5.22075379,45.0492429 4.87065558,45.0316871 C4.71049906,45.0233967 4.54790104,45.0155941 4.38676802,45.0073039 C4.9092299,34.0768202 5.02104646,22.9941855 4.71977633,12.0558991 Z M4.82622188,45.9128945 C6.74565872,46.0094519 8.72808391,46.1055215 10.6582629,46.1035708 C11.8779916,46.0996695 13.0982083,46.0947928 14.3184253,46.0904039 C16.7310269,46.0806506 19.2256601,46.0708974 21.680254,46.0708974 L63.1080577,45.9494692 C63.1212413,46.2142704 63.1222178,46.734607 63.0758311,47.7543108 C42.5504061,47.0452486 21.7388478,47.0745084 1.21391121,47.8406273 C1.10941879,47.163263 0.972699807,46.2630367 0.912152831,45.7475766 C2.21537764,45.7817131 3.54057523,45.8480353 4.82622188,45.9128945 Z M62.1490717,49.0285748 C54.3668322,49.145614 46.1192597,49.0812426 36.1944385,48.8276577 C30.6900347,48.6867229 25.1040878,48.728662 19.7022234,48.7691381 C17.1338596,48.7881569 14.4785818,48.8081512 11.856507,48.8081512 C11.3765258,48.8179043 8.33159887,48.9086097 5.64555913,48.9885865 C3.92973601,49.0393035 2.16899081,49.0914835 1.40873566,49.1129407 C1.38041536,48.918363 1.34086442,48.6623398 1.29154797,48.3424328 C21.7832815,47.5787521 42.5601718,47.5499799 63.0523936,48.2580671 C63.0162606,48.8852019 62.8932136,49.0173587 62.1490717,49.0285748 Z" id="Shape" fill="#202020"></path>
            </g>
        </g>
    </g>
</svg>