<?xml version="1.0" encoding="UTF-8"?>
<svg width="24px" height="24px" viewBox="0 0 24 24" version="1.1" xmlns="http://www.w3.org/2000/svg" xmlns:xlink="http://www.w3.org/1999/xlink">
    <title>D1F896E6-510F-4B7B-BD12-C916E95160A9</title>
    <g id="A:-Create-Quiz" stroke="none" stroke-width="1" fill="none" fill-rule="evenodd">
        <g id="I-01-SC-MyAssignments" transform="translate(-312.000000, -810.000000)" fill="#FFFFFF" fill-rule="nonzero">
            <g id="Elements/CTAs/FloatingButton" transform="translate(304.000000, 802.000000)">
                <g id="Elements/Graphics/Style3/Flag/Black" transform="translate(8.000000, 8.000000)">
                    <g id="Flag">
                        <g transform="translate(1.000000, 1.000000)" id="Combined-Shape">
                            <path d="M11.5,0.15 C11.6691372,0.15 11.8102531,0.269973696 11.8428892,0.429462792 L11.85,0.5 L11.85,10.799 L22.15,10.8 C22.3432997,10.8 22.5,10.9567003 22.5,11.15 C22.5,11.3191372 22.3800263,11.4602531 22.2205372,11.4928892 L22.15,11.5 L11.85,11.499 L11.85,21.5 C11.85,21.6932997 11.6932997,21.85 11.5,21.85 C11.3308628,21.85 11.1897469,21.7300263 11.1571108,21.5705372 L11.15,21.5 L11.15,11.499 L1.15,11.5 C0.956700338,11.5 0.8,11.3432997 0.8,11.15 C0.8,10.9808628 0.919973696,10.8397469 1.07946279,10.8071108 L1.15,10.8 L11.15,10.799 L11.15,0.5 C11.15,0.306700338 11.3067003,0.15 11.5,0.15 Z"></path>
                        </g>
                    </g>
                </g>
            </g>
        </g>
    </g>
</svg>