<?xml version="1.0" encoding="UTF-8"?>
<svg width="40px" height="40px" viewBox="0 0 40 40" version="1.1" xmlns="http://www.w3.org/2000/svg" xmlns:xlink="http://www.w3.org/1999/xlink">
    <title>169C0D12-03CB-4C0A-A6B5-768A1EE049D1</title>
    <g id="Today--------------------------------------------" stroke="none" stroke-width="1" fill="none" fill-rule="evenodd">
        <g id="Wizard-View--Type-1---Topic-Resources" transform="translate(-64.000000, -1035.000000)" fill-rule="nonzero">
            <g id="*Screens/BrowseBooks/Chapters/TopicResources/Default/Mathematics" transform="translate(18.000000, 110.000000)">
                <g transform="translate(0.000000, 10.000000)" id="Group-2">
                    <g id="*Accordion-Section" transform="translate(0.000000, 705.000000)">
                        <g id="Overflow/Topic" transform="translate(0.000000, 60.000000)">
                            <g id="Revise" transform="translate(30.000000, 140.000000)">
                                <g transform="translate(16.000000, 10.000000)" id="Group">
                                    <g id="google-play" transform="translate(20.500000, 19.500000) rotate(-10.000000) translate(-20.500000, -19.500000) translate(7.000000, 6.000000)">
                                        <circle id="Oval" fill="#EBBA16" cx="13.5" cy="13.5" r="13.5"></circle>
                                        <g id="Group" transform="translate(9.775862, 6.051724)" fill="#FFFFFF">
                                            <polygon id="Path" points="10.7068966 7.44827586 0.465517241 14.4310345 0.465517241 7.57536207 0.465517241 0.465517241"></polygon>
                                            <path d="M0.465517241,14.8965517 C0.391034483,14.8965517 0.316086207,14.8788621 0.24812069,14.8425517 C0.0954310345,14.7620172 0,14.6037414 0,14.4310345 L0,0.465517241 C0,0.292810345 0.0954310345,0.134534483 0.24812069,0.054 C0.400810345,-0.027 0.585155172,-0.0158275862 0.728068966,0.081 L10.9694483,7.06375862 C11.096069,7.15034483 11.1724138,7.29418966 11.1724138,7.44827586 C11.1724138,7.60236207 11.096069,7.7462069 10.9689828,7.8327931 L0.727603448,14.8155517 C0.648931034,14.8690862 0.557224138,14.8965517 0.465517241,14.8965517 Z M0.931034483,1.34674138 L0.931034483,13.5502759 L9.88060345,7.44827586 L0.931034483,1.34674138 Z" id="Shape"></path>
                                        </g>
                                    </g>
                                </g>
                            </g>
                        </g>
                    </g>
                </g>
            </g>
        </g>
    </g>
</svg>