<?xml version="1.0" encoding="UTF-8"?>
<svg width="40px" height="40px" viewBox="0 0 40 40" version="1.1" xmlns="http://www.w3.org/2000/svg" xmlns:xlink="http://www.w3.org/1999/xlink">
    <title>B4D7EEE3-B5EC-4AC7-A26B-149EA818E747</title>
    <g id="Today--------------------------------------------" stroke="none" stroke-width="1" fill="none" fill-rule="evenodd">
        <g id="Wizard-View--Type-1---Topic-Resources" transform="translate(-64.000000, -1105.000000)" fill-rule="nonzero">
            <g id="*Screens/BrowseBooks/Chapters/TopicResources/Default/Mathematics" transform="translate(18.000000, 110.000000)">
                <g transform="translate(0.000000, 10.000000)" id="Group-2">
                    <g id="*Accordion-Section" transform="translate(0.000000, 705.000000)">
                        <g id="Overflow/Topic" transform="translate(0.000000, 60.000000)">
                            <g id="Practice" transform="translate(30.000000, 210.000000)">
                                <g id="Revise" transform="translate(16.000000, 10.000000)">
                                    <g id="pencil" transform="translate(7.000000, 7.000000)">
                                        <path d="M19.0657037,1.12811111 C20.5698519,-0.376037037 23.009037,-0.376037037 24.5131852,1.12811111 C26.0173333,2.63225926 26.0173333,5.07144444 24.5131852,6.57559259 L19.0657037,1.12811111 Z" id="Path" fill="#D75A4A"></path>
                                        <polygon id="Path" fill="#ED8A19" points="20.4273333 8.61803704 7.95022222 21.0956296 7.69503704 23.3937407 21.449037 9.63925926 21.449037 9.63925926"></polygon>
                                        <polygon id="Path" fill="#ED8A19" points="4.9712963 20.67 7.26940741 20.4148148 19.7465185 7.93722222 17.7040741 5.89477778 5.22648148 18.3718889"></polygon>
                                        <polygon id="Path" fill="#ED8A19" points="17.0232593 5.21396296 16.0015556 4.19225926 16.0015556 4.19225926 2.24755556 17.9462593 4.54566667 17.6910741"></polygon>
                                        <polygon id="Path" fill="#C7CAC7" points="23.4914815 7.59681481 23.4914815 7.59681481 24.5131852 6.57559259 19.0657037 1.12811111 18.044 2.14981481 18.0444815 2.14981481"></polygon>
                                        <polygon id="Path" fill="#C7CAC7" points="17.3631852 2.83062963 17.3631852 2.83062963 16.6823704 3.51144444 16.6823704 3.51144444 22.1298519 8.95844444 22.1298519 8.95844444 22.8106667 8.27762963 22.8106667 8.27762963"></polygon>
                                        <path d="M6.94488889,21.4201481 L4.47874074,21.6941111 C4.46140741,21.696037 4.44359259,21.697 4.42625926,21.697 C4.42625926,21.697 4.42577778,21.697 4.42577778,21.697 L4.42577778,21.697 L4.42577778,21.697 C4.4252963,21.697 4.4252963,21.697 4.4252963,21.697 C4.40796296,21.697 4.39014815,21.696037 4.37281481,21.6941111 C4.35403704,21.6921852 4.33862963,21.6815926 4.32081481,21.6772593 C4.28614815,21.6690741 4.25292593,21.6604074 4.22114815,21.645 C4.19707407,21.6334444 4.17637037,21.6194815 4.1547037,21.6045556 C4.12725926,21.5852963 4.10222222,21.5645926 4.07911111,21.540037 C4.06081481,21.5207778 4.04588889,21.501037 4.03096296,21.4788889 C4.01266667,21.4514444 3.99774074,21.423037 3.98522222,21.3917407 C3.97462963,21.3657407 3.96692593,21.3402222 3.96114815,21.3122963 C3.95777778,21.2968889 3.94959259,21.2838889 3.94766667,21.268 C3.94574074,21.2497037 3.95248148,21.2328519 3.95248148,21.215037 C3.95248148,21.1967407 3.94574074,21.1803704 3.94766667,21.1620741 L4.22162963,18.6959259 L1.75548148,18.9698889 C1.73766667,18.9718148 1.71937037,18.9727778 1.70203704,18.9727778 C1.664,18.9727778 1.62885185,18.9612222 1.59274074,18.9525556 L0.212814815,24.7476667 L1.22681481,23.7336667 C1.41507407,23.5454074 1.71937037,23.5454074 1.90762963,23.7336667 C2.09588889,23.9219259 2.09588889,24.2262222 1.90762963,24.4144815 L0.89362963,25.4284815 L6.68585185,24.0495185 C6.67333333,23.997037 6.66514815,23.9426296 6.67140741,23.8862963 L6.94488889,21.4201481 Z" id="Path" fill="#FBCE9D"></path>
                                        <path d="M1.90762963,23.7336667 C1.71937037,23.5454074 1.41507407,23.5454074 1.22681481,23.7336667 L0.212814815,24.7476667 L0,25.6412963 L0.89362963,25.4284815 L1.90762963,24.4144815 C2.09540741,24.2262222 2.09540741,23.9219259 1.90762963,23.7336667 Z" id="Path" fill="#38454F"></path>
                                        <polygon id="Path" fill="#F2ECBF" points="23.4914815 7.59681481 18.0444815 2.14981481 18.044 2.14981481 17.3631852 2.83062963 17.3631852 2.83062963 22.8106667 8.27762963 22.8106667 8.27762963"></polygon>
                                        <path d="M19.7465185,7.93722222 L7.26940741,20.4148148 L4.9712963,20.67 L5.22648148,18.3718889 L17.7040741,5.89477778 L17.0232593,5.21396296 L4.54566667,17.6910741 L2.24755556,17.9462593 L1.70203704,18.4917778 L1.59225926,18.9525556 C1.62837037,18.9612222 1.66303704,18.9727778 1.70155556,18.9727778 C1.71888889,18.9727778 1.73718519,18.9718148 1.755,18.9698889 L4.22114815,18.6959259 L3.94718519,21.1620741 C3.94525926,21.1803704 3.952,21.1972222 3.952,21.215037 C3.952,21.2333333 3.94525926,21.2497037 3.94718519,21.268 C3.94911111,21.2838889 3.9572963,21.2968889 3.96066667,21.3122963 C3.96644444,21.3397407 3.97462963,21.3662222 3.98474074,21.3917407 C3.99725926,21.4225556 4.01218519,21.4514444 4.03048148,21.4788889 C4.04492593,21.5005556 4.06081481,21.5212593 4.07862963,21.540037 C4.10125926,21.5641111 4.12677778,21.5852963 4.15422222,21.6045556 C4.17540741,21.6194815 4.19707407,21.6339259 4.22066667,21.645 C4.25196296,21.6599259 4.28566667,21.6690741 4.32033333,21.6772593 C4.33862963,21.6815926 4.35355556,21.6917037 4.37233333,21.6941111 C4.38966667,21.696037 4.407,21.697 4.42481481,21.697 L4.4252963,21.697 L4.4252963,21.697 L4.42577778,21.697 L4.42625926,21.697 C4.42625926,21.697 4.42674074,21.697 4.42674074,21.697 L4.42674074,21.697 C4.44359259,21.697 4.46140741,21.696037 4.47922222,21.6941111 L6.94537037,21.4201481 L6.67140741,23.8862963 C6.66514815,23.9431111 6.67333333,23.997037 6.68585185,24.0495185 L7.14951852,23.9392593 L7.69503704,23.3942222 L7.95022222,21.0961111 L20.4273333,8.61851852 L19.7465185,7.93722222 Z" id="Path" fill="#EBBA16"></path>
                                        <polygon id="Path" fill="#F2ECBF" points="22.1298519 8.95844444 16.6823704 3.51144444 16.6823704 3.51144444 16.0015556 4.19225926 16.0015556 4.19225926 17.0232593 5.21396296 17.7040741 5.89477778 19.7465185 7.93722222 20.4273333 8.61803704 21.449037 9.63925926 21.449037 9.63925926"></polygon>
                                    </g>
                                </g>
                            </g>
                        </g>
                    </g>
                </g>
            </g>
        </g>
    </g>
</svg>