<?xml version="1.0" encoding="UTF-8"?>
<svg width="24px" height="24px" viewBox="0 0 24 24" version="1.1" xmlns="http://www.w3.org/2000/svg" xmlns:xlink="http://www.w3.org/1999/xlink">
    <title>D0739AED-1DB7-4DE2-88F2-2FF4855CD88F</title>
    <g id="B:-Assign-A-Task" stroke="none" stroke-width="1" fill="none" fill-rule="evenodd">
        <g id="I-11-SC-AddTask" transform="translate(-1216.000000, -799.000000)" fill="#000000" fill-rule="nonzero">
            <g id="Group-2" transform="translate(859.000000, 120.000000)">
                <g id="Due-Date" transform="translate(16.000000, 626.000000)">
                    <g id="Elements/CTAs/IconBased/CR" transform="translate(341.000000, 53.000000)">
                        <g id="Elements/Graphics/Style3/Photos/Black">
                            <g id="Calendar/Black">
                                <g id="Calendar">
                                    <path d="M20.1,4.4 C19.4748,4.0648 15.5872,1.972 13.4508,0.6316 C13.086,0.2448 12.5724,0 12,0 C11.4276,0 10.914,0.2448 10.5492,0.6316 C8.4124,1.9716 4.5252,4.0648 3.9,4.4 L0,4.4 L0,24 L24,24 L24,4.4 L20.1,4.4 Z M12.8892,1.2016 C12.8908,1.2036 12.8912,1.206 12.8932,1.208 C12.9904,1.3172 13.0976,1.4824 13.156,1.6944 C13.1608,1.7124 13.1688,1.7292 13.1728,1.748 C13.1896,1.8256 13.2,1.9096 13.2,2 C13.2,2.6616 12.6616,3.2 12,3.2 C11.3384,3.2 10.8,2.6616 10.8,2 C10.8,1.9096 10.8104,1.8256 10.8276,1.748 C10.8316,1.7296 10.8392,1.7132 10.844,1.6952 C10.9024,1.4824 11.0096,1.3176 11.1068,1.208 C11.1084,1.206 11.1088,1.2036 11.1108,1.2016 C11.3308,0.9572 11.646,0.8 12,0.8 C12.354,0.8 12.6692,0.9572 12.8892,1.2016 Z M10.0024,1.9016 C10.0008,1.9344 10,1.9672 10,2 C10,3.1028 10.8972,4 12,4 C13.1028,4 14,3.1028 14,2 C14,1.9672 13.9992,1.9344 13.9976,1.9016 C15.4348,2.756 17.2116,3.7404 18.4204,4.4 L5.5796,4.4 C6.7884,3.7404 8.5652,2.756 10.0024,1.9016 Z M4,5.2 L20,5.2 L23.2,5.2 L23.2,7.2 L0.8,7.2 L0.8,5.2 L4,5.2 Z M0.8,23.2 L0.8,8 L23.2,8 L23.2,23.2 L0.8,23.2 Z" id="Shape"></path>
                                    <circle id="Oval" cx="9.2" cy="11.2" r="1"></circle>
                                    <circle id="Oval" cx="12" cy="11.2" r="1"></circle>
                                    <circle id="Oval" cx="14.8" cy="11.2" r="1"></circle>
                                    <circle id="Oval" cx="17.6" cy="11.2" r="1"></circle>
                                    <circle id="Oval" cx="20.4" cy="11.2" r="1"></circle>
                                    <circle id="Oval" cx="3.6" cy="14.4" r="1"></circle>
                                    <circle id="Oval" cx="6.4" cy="14.4" r="1"></circle>
                                    <circle id="Oval" cx="9.2" cy="14.4" r="1"></circle>
                                    <circle id="Oval" cx="12" cy="14.4" r="1"></circle>
                                    <circle id="Oval" cx="14.8" cy="14.4" r="1"></circle>
                                    <circle id="Oval" cx="17.6" cy="14.4" r="1"></circle>
                                    <circle id="Oval" cx="20.4" cy="14.4" r="1"></circle>
                                    <circle id="Oval" cx="3.6" cy="17.2" r="1"></circle>
                                    <circle id="Oval" cx="6.4" cy="17.2" r="1"></circle>
                                    <circle id="Oval" cx="9.2" cy="17.2" r="1"></circle>
                                    <circle id="Oval" cx="12" cy="17.2" r="1"></circle>
                                    <circle id="Oval" cx="14.8" cy="17.2" r="1"></circle>
                                    <circle id="Oval" cx="17.6" cy="17.2" r="1"></circle>
                                    <circle id="Oval" cx="20.4" cy="17.2" r="1"></circle>
                                    <circle id="Oval" cx="3.6" cy="20.4" r="1"></circle>
                                    <circle id="Oval" cx="6.4" cy="20.4" r="1"></circle>
                                    <circle id="Oval" cx="9.2" cy="20.4" r="1"></circle>
                                    <circle id="Oval" cx="12" cy="20.4" r="1"></circle>
                                    <circle id="Oval" cx="14.8" cy="20.4" r="1"></circle>
                                </g>
                            </g>
                        </g>
                    </g>
                </g>
            </g>
        </g>
    </g>
</svg>