<?xml version="1.0" encoding="UTF-8"?>
<svg width="28px" height="28px" viewBox="0 0 28 28" version="1.1" xmlns="http://www.w3.org/2000/svg" xmlns:xlink="http://www.w3.org/1999/xlink">
    <title>AC3F4F12-AA0F-41EE-836B-530461553D39</title>
    <g id="Syllabus-D" stroke="none" stroke-width="1" fill="none" fill-rule="evenodd">
        <g id="Syllabus-D-001" transform="translate(-564.000000, -274.000000)" fill-rule="nonzero">
            <g id="Group" transform="translate(543.000000, 120.000000)">
                <g id="Elements/List/BrowseBooks/Assign-Create-Copy" transform="translate(0.000000, 140.000000)">
                    <g id="Elements/Graphics/Style3/Oral/Black" transform="translate(35.000000, 28.000000) rotate(-10.000000) translate(-35.000000, -28.000000) translate(23.000000, 16.000000)">
                        <g id="phone" transform="translate(6.000000, 0.000000)">
                            <path d="M11.6170816,24 L1.38332446,24 C0.619144339,24 0,23.3689655 0,22.5910345 L0,1.40896552 C0,0.63062069 0.619550601,0 1.38332446,0 L11.6166753,0 C12.3808555,0 13,0.631034483 13,1.40896552 L13,22.5906207 C13.0004061,23.3689655 12.3808555,24 11.6170816,24 Z" id="Path" fill="#E7ECED"></path>
                            <circle id="Oval" fill="#FFFFFF" cx="6" cy="22" r="1"></circle>
                            <path d="M6.5,2 L4.5,2 C4.2235,2 4,1.7765 4,1.5 C4,1.2235 4.2235,1 4.5,1 L6.5,1 C6.7765,1 7,1.2235 7,1.5 C7,1.7765 6.7765,2 6.5,2 Z" id="Path" fill="#424A60"></path>
                            <path d="M8.66666667,2 L8.33333333,2 C8.149,2 8,1.7765 8,1.5 C8,1.2235 8.149,1 8.33333333,1 L8.66666667,1 C8.851,1 9,1.2235 9,1.5 C9,1.7765 8.851,2 8.66666667,2 Z" id="Path" fill="#424A60"></path>
                            <rect id="Rectangle" fill="#424A60" x="0" y="3" width="13" height="17"></rect>
                        </g>
                    </g>
                </g>
            </g>
        </g>
    </g>
</svg>