<?xml version="1.0" encoding="UTF-8"?>
<svg width="40px" height="40px" viewBox="0 0 40 40" version="1.1" xmlns="http://www.w3.org/2000/svg" xmlns:xlink="http://www.w3.org/1999/xlink">
    <title>912FECFA-2F78-4767-94A8-6EC33F63DE61</title>
    <defs>
        <filter id="filter-1">
            <feColorMatrix in="SourceGraphic" type="matrix" values="0 0 0 0 1.000000 0 0 0 0 1.000000 0 0 0 0 1.000000 0 0 0 1.000000 0"></feColorMatrix>
        </filter>
    </defs>
    <g id="A:-My-Lessons" stroke="none" stroke-width="1" fill="none" fill-rule="evenodd">
        <g id="A-01-Plans" transform="translate(-354.000000, -480.000000)">
            <g id="Heading-1" transform="translate(18.000000, 110.000000)">
                <g id="Elements/Graphics/Style3/Photos/Black" transform="translate(336.000000, 370.000000)">
                    <g id="Group" transform="translate(4.000000, 4.000000)">
                        <circle id="Oval" stroke-opacity="0.1" stroke="#FFFFFF" stroke-width="0.6" fill-opacity="0.2" fill="#FFFFFF" cx="16" cy="16" r="15.7"></circle>
                        <g filter="url(#filter-1)" id="download">
                            <g transform="translate(8.000000, 3.000000)">
                                <path d="M4.91718644,10.5573898 C4.77138983,10.4115932 4.53572881,10.4115932 4.3899322,10.5573898 C4.24413559,10.7031864 4.24413559,10.9388475 4.3899322,11.0846441 L8.11091525,14.8056271 C8.18027119,14.8761017 8.27498305,14.9152542 8.37416949,14.9152542 C8.37677966,14.9152542 8.37938983,14.9137627 8.382,14.9137627 C8.38461017,14.9137627 8.38684746,14.9152542 8.38983051,14.9152542 C8.514,14.9152542 8.61840678,14.8507458 8.68627119,14.7575254 L12.3744407,11.0693559 C12.5202373,10.9235593 12.5202373,10.6878983 12.3744407,10.5421017 C12.2286441,10.3963051 11.9929831,10.3963051 11.8471864,10.5421017 L8.76271186,13.6265763 L8.76271186,0.372881356 C8.76271186,0.166677966 8.5960339,0 8.38983051,0 C8.18362712,0 8.01694915,0.166677966 8.01694915,0.372881356 L8.01694915,13.6578983 L4.91718644,10.5573898 Z" id="Path" fill="#000000" fill-rule="nonzero"></path>
                                <path d="M11,5.96610169 C10.7937966,5.96610169 10.6271186,6.13277966 10.6271186,6.33898305 C10.6271186,6.54518644 10.7937966,6.71186441 11,6.71186441 L14.8474576,6.71186441 C15.3997424,6.71186441 15.8474576,7.15957966 15.8474576,7.71186441 L15.8474576,20.2542373 C15.8474576,20.806522 15.3997424,21.2542373 14.8474576,21.2542373 L1.93220339,21.2542373 C1.37991864,21.2542373 0.93220339,20.806522 0.93220339,20.2542373 L0.93220339,7.71186441 C0.93220339,7.15957966 1.37991864,6.71186441 1.93220339,6.71186441 L5.77966102,6.71186441 L5.77966102,6.71186441 C5.98586441,6.71186441 6.15254237,6.54518644 6.15254237,6.33898305 C6.15254237,6.13277966 5.98586441,5.96610169 5.77966102,5.96610169 L1.18644068,5.96610169 C0.634155928,5.96610169 0.186440678,6.41381695 0.186440678,6.96610169 L0.186440678,21 C0.186440678,21.5522847 0.634155928,22 1.18644068,22 L15.5932203,22 C16.1455051,22 16.5932203,21.5522847 16.5932203,21 L16.5932203,6.96610169 C16.5932203,6.41381695 16.1455051,5.96610169 15.5932203,5.96610169 L11,5.96610169 L11,5.96610169 Z" id="Path" fill="#000000" fill-rule="nonzero"></path>
                            </g>
                        </g>
                    </g>
                </g>
            </g>
        </g>
    </g>
</svg>