<?xml version="1.0" encoding="UTF-8"?>
<svg width="24px" height="25px" viewBox="0 0 24 25" version="1.1" xmlns="http://www.w3.org/2000/svg" xmlns:xlink="http://www.w3.org/1999/xlink">
    <title>7B7529DC-FC89-4610-853B-E5B5BE7A1AC4</title>
    <defs>
        <filter x="-1.5%" y="-20.0%" width="103.0%" height="140.0%" filterUnits="objectBoundingBox" id="filter-1">
            <feOffset dx="0" dy="2" in="SourceAlpha" result="shadowOffsetOuter1"></feOffset>
            <feGaussianBlur stdDeviation="2" in="shadowOffsetOuter1" result="shadowBlurOuter1"></feGaussianBlur>
            <feColorMatrix values="0 0 0 0 0   0 0 0 0 0   0 0 0 0 0  0 0 0 0.5 0" type="matrix" in="shadowBlurOuter1" result="shadowMatrixOuter1"></feColorMatrix>
            <feMerge>
                <feMergeNode in="shadowMatrixOuter1"></feMergeNode>
                <feMergeNode in="SourceGraphic"></feMergeNode>
            </feMerge>
        </filter>
    </defs>
    <g id="A:-Create-Quiz" stroke="none" stroke-width="1" fill="none" fill-rule="evenodd">
        <g id="I-01-SC-MyAssignments" transform="translate(-52.000000, -220.000000)" fill-rule="nonzero">
            <g id="Templates/Assignment/Default">
                <g id="Primary-Record-1" filter="url(#filter-1)" transform="translate(36.000000, 202.000000)">
                    <g id="Elements/Graphics/Style3/Oral/Black" transform="translate(16.000000, 18.000000)">
                        <g id="Task/Black">
                            <g id="Task-Colour">
                                <path d="M19.1685517,24 L0.647586207,24 C0.22137931,24 -0.0885517241,23.5953103 0.0227586207,23.1835862 L4.22937931,11.6507586 C4.30551724,11.3685517 4.56165517,11.1724138 4.8542069,11.1724138 L23.3751724,11.1724138 C23.8013793,11.1724138 24,11.5795862 24,11.9888276 L19.7933793,23.5216552 C19.7172414,23.8038621 19.4611034,24 19.1685517,24 Z" id="Path" fill="#FEE276"></path>
                                <path d="M4.22937931,11.6507586 C4.30551724,11.3685517 4.56165517,11.1724138 4.8542069,11.1724138 L19.0344828,11.1724138 L19.0344828,6.20689655 L12.8275862,0 L3.31034483,0 L3.31034483,14.1703448 L4.22937931,11.6507586 Z" id="Path" fill="#F4EFDC"></path>
                                <g id="Group" transform="translate(0.000000, 4.551724)" fill="#F8D250">
                                    <path d="M20.8005517,2.89655172 L19.0344828,2.89655172 L19.0344828,6.62068966 L21.5172414,6.62068966 L21.5172414,3.61324138 C21.5172414,3.21724138 21.1961379,2.89655172 20.8005517,2.89655172 Z" id="Path"></path>
                                    <path d="M3.31034483,0 L0.716689655,0 C0.321103448,0 0,0.320689655 0,0.716689655 L0,18.3972414 C0.0285517241,18.398069 0.0571034483,18.3997241 0.0848275862,18.4013793 L3.31034483,9.60496552 L3.31034483,0 Z" id="Path"></path>
                                </g>
                                <path d="M10.3448276,6.62068966 L6.20689655,6.62068966 C5.97848276,6.62068966 5.79310345,6.43572414 5.79310345,6.20689655 C5.79310345,5.97806897 5.97848276,5.79310345 6.20689655,5.79310345 L10.3448276,5.79310345 C10.5732414,5.79310345 10.7586207,5.97806897 10.7586207,6.20689655 C10.7586207,6.43572414 10.5732414,6.62068966 10.3448276,6.62068966 Z" id="Path" fill="#CEC9AE"></path>
                                <path d="M10.3448276,3.72413793 L6.20689655,3.72413793 C5.97848276,3.72413793 5.79310345,3.53917241 5.79310345,3.31034483 C5.79310345,3.08151724 5.97848276,2.89655172 6.20689655,2.89655172 L10.3448276,2.89655172 C10.5732414,2.89655172 10.7586207,3.08151724 10.7586207,3.31034483 C10.7586207,3.53917241 10.5732414,3.72413793 10.3448276,3.72413793 Z" id="Path" fill="#CEC9AE"></path>
                                <path d="M16.137931,9.51724138 L6.20689655,9.51724138 C5.97848276,9.51724138 5.79310345,9.33227586 5.79310345,9.10344828 C5.79310345,8.87462069 5.97848276,8.68965517 6.20689655,8.68965517 L16.137931,8.68965517 C16.3663448,8.68965517 16.5517241,8.87462069 16.5517241,9.10344828 C16.5517241,9.33227586 16.3663448,9.51724138 16.137931,9.51724138 Z" id="Path" fill="#CEC9AE"></path>
                                <polygon id="Path" fill="#D1BF86" points="12.8275862 6.20689655 19.0344828 6.20689655 12.8275862 0"></polygon>
                            </g>
                        </g>
                    </g>
                </g>
            </g>
        </g>
    </g>
</svg>