<?xml version="1.0" encoding="UTF-8"?>
<svg width="24px" height="24px" viewBox="0 0 24 24" version="1.1" xmlns="http://www.w3.org/2000/svg" xmlns:xlink="http://www.w3.org/1999/xlink">
    <title>F128E8E4-47E4-4B93-A28A-41C4FC5CD6AA</title>
    <g id="A-:-Browse-Books" stroke="none" stroke-width="1" fill="none" fill-rule="evenodd">
        <g id="G-05-ST-DefaultView" transform="translate(-320.000000, -2086.000000)" fill="#FFFFFF" fill-rule="nonzero">
            <g id="Screens/BrowseBooks/Chapters/Default-NEW">
                <g id="Compounds/Footers/BrowseBooks" transform="translate(0.000000, 2075.000000)">
                    <g id="Elements/Graphics/Style3/UnchangedArrow/Black" transform="translate(320.000000, 11.000000)">
                        <g id="Elements/Graphics/Style3/Photos/Black">
                            <g id="Edit/White">
                                <g transform="translate(-0.000000, -0.000000)" id="Combined-Shape">
                                    <path d="M12.2790552,2.94342328e-12 C12.2790552,-1.02117606 13.1068819,-1.84900281 14.128058,-1.84900281 C15.149234,-1.84900281 15.9770608,-1.02117606 15.9770608,2.94342328e-12 L15.9770608,16.6410253 L14.128058,21.3387497 L12.2790552,16.6410253 L12.2790552,2.94342328e-12 Z M15.0520552,3.91699719 L13.2030552,3.91699719 L13.2035566,15.7165239 L15.0525594,15.7165239 L15.0520552,3.91699719 Z M15.0520552,2.06799719 L13.2030552,2.06799719 L13.2030552,2.91699719 L15.0520552,2.91699719 L15.0520552,2.06799719 Z M14.128058,-0.924501407 C13.6539405,-0.924501407 13.2631803,-0.567606708 13.2097764,-0.107816395 L13.2035566,2.94475555e-12 L13.2030552,1.06799719 L15.0520552,1.06799719 L15.0525594,2.94475555e-12 C15.0525594,-0.474117455 14.6956647,-0.864877687 14.2358744,-0.91828161 L14.128058,-0.924501407 Z" transform="translate(14.128058, 9.744873) rotate(45.000000) translate(-14.128058, -9.744873) "></path>
                                    <path d="M13.914,5.54631741 L12.989,6.47131741 L0.924501407,6.47150985 L0.924501407,21.2635324 C0.924501407,22.2382913 1.67878157,23.0368787 2.63551097,23.1074636 L2.77350422,23.1125352 L17.5655267,23.1125352 L17.565,11.0473174 L18.49,10.1223174 L18.4900281,24.0370366 L2.77350422,24.0370366 C1.24174014,24.0370366 0,22.7952965 0,21.2635324 L0,5.54700844 L13.914,5.54631741 Z"></path>
                                </g>
                            </g>
                        </g>
                    </g>
                </g>
            </g>
        </g>
    </g>
</svg>