<?xml version="1.0" encoding="UTF-8"?>
<svg width="24px" height="24px" viewBox="0 0 24 24" version="1.1" xmlns="http://www.w3.org/2000/svg" xmlns:xlink="http://www.w3.org/1999/xlink">
    <title>63D4045A-C24C-44DD-BA0E-6C2FE9ECB0A7</title>
    <g id="A-:-Browse-Books" stroke="none" stroke-width="1" fill="none" fill-rule="evenodd">
        <g id="G-07-ST-View-Chapter-Resources" transform="translate(-315.000000, -678.000000)">
            <g id="Screens/BrowseBooks/Chapters/ExpandChapters">
                <g id="Overflow/Chapters" transform="translate(0.000000, 545.000000)">
                    <g id="Issues/Tabs1" transform="translate(0.000000, 113.928571)">
                        <g id="Elements/Graphics/Style3/Launch" transform="translate(315.000000, 19.071429)">
                            <g id="Launch">
                                <g id="Launch/Black" transform="translate(3.000000, 3.000000)">
                                    <path d="M18.0379529,5.43936533 L16.1119881,4.04041504 C15.7630271,3.78697257 15.2807185,4.04505141 15.2807185,4.48449175 L15.2807185,5.34011817 L6.03321852,5.34011817 C5.74198415,5.34011817 5.50583961,5.58338237 5.50583961,5.88347825 C5.50583961,6.18357414 5.74198415,6.42680212 6.03321852,6.42680212 L15.2806482,6.42680212 L15.2806482,7.28239232 C15.2806482,7.72473039 15.7655232,7.97799175 16.1118826,7.72646902 L18.0378474,6.32751874 C18.3319646,6.11402868 18.337906,5.65770908 18.0379529,5.43936533 Z" id="Path" fill="#666666" fill-rule="nonzero" transform="translate(11.883261, 5.883261) rotate(-45.000000) translate(-11.883261, -5.883261) "></path>
                                    <rect id="Rectangle" stroke="#666666" x="0.5" y="4.5" width="13" height="13" rx="2"></rect>
                                </g>
                            </g>
                        </g>
                    </g>
                </g>
            </g>
        </g>
    </g>
</svg>