<?xml version="1.0" encoding="UTF-8"?>
<svg width="24px" height="24px" viewBox="0 0 24 24" version="1.1" xmlns="http://www.w3.org/2000/svg" xmlns:xlink="http://www.w3.org/1999/xlink">
    <title>C0D0D93F-E2A7-4F7D-A2F1-7859027F63C9</title>
    <g id="Experience" stroke="none" stroke-width="1" fill="none" fill-rule="evenodd">
        <g id="F:05-ST-FirstQuestion" transform="translate(-16.000000, -571.000000)" fill="#202020" fill-rule="nonzero">
            <g id="Elements/CTAs/IconBased/CR-Copy" transform="translate(16.000000, 571.000000)">
                <g id="Elements/Graphics/Style3/Photos/Black">
                    <g id="Group">
                        <g id="Back">
                            <path d="M12,0 C5.38292308,0 0,5.38292308 0,12 C0,18.6170769 5.38292308,24 12,24 C18.6170769,24 24,18.6170769 24,12 C24,5.38292308 18.6170769,0 12,0 Z M12,23.0769231 C5.89246154,23.0769231 0.923076923,18.1075385 0.923076923,12 C0.923076923,5.89246154 5.89246154,0.923076923 12,0.923076923 C18.1075385,0.923076923 23.0769231,5.89246154 23.0769231,12 C23.0769231,18.1075385 18.1075385,23.0769231 12,23.0769231 Z" id="Shape"></path>
                            <path d="M14.7692308,16.9767692 L14.7692308,7.12523077 L6.48138462,11.9104615 L14.7692308,16.9767692 Z M13.8461538,15.3309231 L8.28784615,11.9330769 L13.8461538,8.724 L13.8461538,15.3309231 Z" id="Shape"></path>
                        </g>
                    </g>
                </g>
            </g>
        </g>
    </g>
</svg>