<?xml version="1.0" encoding="UTF-8"?>
<svg width="40px" height="40px" viewBox="0 0 40 40" version="1.1" xmlns="http://www.w3.org/2000/svg" xmlns:xlink="http://www.w3.org/1999/xlink">
    <title>ED3E5D94-E3C4-4ACF-A40A-953CE1303272</title>
    <g id="Lesson-Completion-&amp;-Notes---Jira" stroke="none" stroke-width="1" fill="none" fill-rule="evenodd">
        <g id="AFS-1401" transform="translate(-639.000000, -531.000000)">
            <g id="Uploaded-Record-1" transform="translate(351.000000, 523.000000)">
                <g id="Elements/Graphics/Style3/Close/Black" transform="translate(288.000000, 8.000000)">
                    <g id="Undo" transform="translate(8.000000, 8.000000)">
                        <circle id="Oval" fill-opacity="0.06" fill="#0073C1" cx="12" cy="12" r="12"></circle>
                        <path d="M12,4.5 C8.278,4.5 5.25,7.528 5.25,11.25 C5.25,14.77725 7.97025,17.67975 11.42275,17.97375 L10.32325,19.07325 C10.2255,19.171 10.2255,19.329 10.32325,19.42675 C10.372,19.4755 10.436,19.5 10.5,19.5 C10.564,19.5 10.628,19.4755 10.67675,19.42675 L12.1765,17.927 C12.19975,17.904 12.218,17.87625 12.23075,17.8455 C12.256,17.7845 12.256,17.7155 12.23075,17.6545 C12.218,17.62375 12.19975,17.59625 12.1765,17.573 L10.67675,16.07325 C10.579,15.9755 10.421,15.9755 10.32325,16.07325 C10.2255,16.171 10.2255,16.329 10.32325,16.42675 L11.36425,17.46775 C8.2155,17.14825 5.75,14.48175 5.75,11.25 C5.75,7.80375 8.55375,5 12,5 C15.44625,5 18.25,7.80375 18.25,11.25 C18.25,12.90825 17.6075,14.47025 16.4405,15.64825 C16.34325,15.7465 16.344,15.90475 16.44225,16.002 C16.54025,16.09875 16.6985,16.09825 16.79575,16.00025 C18.056,14.72775 18.75,13.04075 18.75,11.25 C18.75,7.528 15.722,4.5 12,4.5 Z" id="Path" fill="#1268B3" fill-rule="nonzero"></path>
                    </g>
                </g>
            </g>
        </g>
    </g>
</svg>