<?xml version="1.0" encoding="UTF-8"?>
<svg width="25px" height="24px" viewBox="0 0 25 24" version="1.1" xmlns="http://www.w3.org/2000/svg" xmlns:xlink="http://www.w3.org/1999/xlink">
    <title>49FF7DC6-6331-4690-9168-19C62D955FCE</title>
    <g id="Desktop--New-Design" stroke="none" stroke-width="1" fill="none" fill-rule="evenodd">
        <g id="D-14.1-SC-ViewAllNotesExpanded" transform="translate(-632.000000, -338.000000)" fill="#969696" fill-rule="nonzero">
            <g id="Group" transform="translate(333.000000, 215.000000)">
                <g id="Note-1" transform="translate(0.000000, 64.000000)">
                    <g id="Group" transform="translate(16.000000, 59.000000)">
                        <g id="Attachment" transform="translate(283.029070, 0.000000)">
                            <g id="Path" transform="translate(4.000000, 4.000000)">
                                <path d="M15.12,5.90953846 C14.9996923,5.78923077 14.8052308,5.78923077 14.6849231,5.90953846 L6.28676923,14.3076923 C5.66769231,14.9267692 4.84153846,15.2673846 3.95969231,15.2673846 C3.07753846,15.2673846 2.25107692,14.9267692 1.63230769,14.3076923 C1.01353846,13.6886154 0.672615385,12.8624615 0.672615385,11.9803077 C0.672615385,11.0984615 1.01323077,10.272 1.63230769,9.65323077 L10.0301538,1.25476923 C10.9215385,0.363692308 12.3209231,0.418153846 13.2852308,1.38184615 C14.2492308,2.34584615 14.304,3.74553846 13.4126154,4.63692308 L5.52338462,12.5264615 C5.08246154,12.9673846 4.36430769,12.9676923 3.92246154,12.5264615 C3.48123077,12.0849231 3.48123077,11.3667692 3.92246154,10.9255385 L9.26676923,5.58123077 C9.38707692,5.46092308 9.38707692,5.26646154 9.26676923,5.14615385 C9.14646154,5.02584615 8.952,5.02584615 8.83169231,5.14615385 L3.48738462,10.4901538 C2.80615385,11.1713846 2.80615385,12.2796923 3.48738462,12.9612308 C4.16923077,13.6430769 5.27784615,13.6418462 5.95846154,12.9612308 L13.848,5.07169231 C14.9873846,3.932 14.9326154,2.15846154 13.7206154,0.946461538 C12.5089231,-0.265230769 10.7350769,-0.320307692 9.59538462,0.819384615 L1.19692308,9.21784615 C0.461538462,9.95292308 0.0569230769,10.9338462 0.0569230769,11.9803077 C0.0569230769,13.0267692 0.461538462,14.008 1.19692308,14.7430769 C1.932,15.4784615 2.91292308,15.8830769 3.95969231,15.8830769 C5.00584615,15.8830769 5.98707692,15.4784615 6.72215385,14.7430769 L15.12,6.34461538 C15.2403077,6.22430769 15.2403077,6.02953846 15.12,5.90953846 Z"></path>
                            </g>
                        </g>
                    </g>
                </g>
            </g>
        </g>
    </g>
</svg>