<?xml version="1.0" encoding="UTF-8"?>
<svg width="25px" height="24px" viewBox="0 0 25 24" version="1.1" xmlns="http://www.w3.org/2000/svg" xmlns:xlink="http://www.w3.org/1999/xlink">
    <title>C941269D-92CF-437A-99F2-B8BD87F31946</title>
    <g id="Today--------------------------------------------" stroke="none" stroke-width="1" fill="none" fill-rule="evenodd">
        <g id="I---Wizard-View---Type-2" transform="translate(-459.000000, -658.000000)" fill-rule="nonzero">
            <g id="Screens/QuizSettings" transform="translate(18.000000, 260.000000)">
                <g id="Title" transform="translate(16.000000, 360.000000)">
                    <g id="Compounds/Inputs/Elements/TextBox/Error" transform="translate(16.000000, 30.000000)">
                        <g id="Group" transform="translate(10.000000, 8.000000)">
                            <g id="calendar-(2)" transform="translate(399.558140, 0.000000)">
                                <polygon id="Path" fill="#26B99A" points="17.5714286 2.06896552 6.42857143 2.06896552 0 2.06896552 0 7.44827586 24 7.44827586 24 2.06896552"></polygon>
                                <ellipse id="Oval" fill="#38454F" cx="8.14285714" cy="3.72413793" rx="1" ry="1"></ellipse>
                                <ellipse id="Oval" fill="#38454F" cx="10.7142857" cy="3.72413793" rx="1" ry="1"></ellipse>
                                <ellipse id="Oval" fill="#38454F" cx="13.2857143" cy="3.72413793" rx="1" ry="1"></ellipse>
                                <ellipse id="Oval" fill="#38454F" cx="15.8571429" cy="3.72413793" rx="1" ry="1"></ellipse>
                                <path d="M15.8571429,0 C15.3728571,0 14.9305714,0.161793103 14.5714286,0.424137931 C14.8002857,0.591724138 14.991,0.801517241 15.135,1.04275862 C15.3411429,0.907034483 15.5897143,0.827586207 15.8571429,0.827586207 C16.566,0.827586207 17.1428571,1.38455172 17.1428571,2.06896552 C17.1428571,2.75337931 16.566,3.31034483 15.8571429,3.31034483 C15.6201429,3.31034483 15.4285714,3.49531034 15.4285714,3.72413793 C15.4285714,3.95296552 15.6201429,4.13793103 15.8571429,4.13793103 C17.0387143,4.13793103 18,3.2097931 18,2.06896552 C18,0.928137931 17.0387143,0 15.8571429,0 Z" id="Path" fill="#AFB6BB"></path>
                                <path d="M14.0078571,1.04275862 C13.8261429,1.34648276 13.7142857,1.69365517 13.7142857,2.06896552 L14.5714286,2.06896552 C14.5714286,1.64275862 14.3477143,1.26662069 14.0078571,1.04275862 Z" id="Path" fill="#839594"></path>
                                <path d="M11.4364286,1.04275862 C11.2547143,1.34648276 11.1428571,1.69365517 11.1428571,2.06896552 L12,2.06896552 C12,1.64275862 11.7762857,1.26662069 11.4364286,1.04275862 Z" id="Path" fill="#839594"></path>
                                <path d="M15.135,1.04275862 C14.991,0.801517241 14.8002857,0.591724138 14.5714286,0.424137931 C14.2122857,0.161793103 13.77,0 13.2857143,0 C12.8014286,0 12.3591429,0.161793103 12,0.424137931 C12.2288571,0.591724138 12.4195714,0.801517241 12.5635714,1.04275862 C12.7697143,0.907034483 13.0182857,0.827586207 13.2857143,0.827586207 C13.5531429,0.827586207 13.8017143,0.907034483 14.0078571,1.04275862 C14.3477143,1.26662069 14.5714286,1.64275862 14.5714286,2.06896552 C14.5714286,2.75337931 13.9945714,3.31034483 13.2857143,3.31034483 C13.0487143,3.31034483 12.8571429,3.49531034 12.8571429,3.72413793 C12.8571429,3.95296552 13.0487143,4.13793103 13.2857143,4.13793103 C14.4672857,4.13793103 15.4285714,3.2097931 15.4285714,2.06896552 C15.4285714,1.69365517 15.3167143,1.34648276 15.135,1.04275862 Z" id="Path" fill="#AFB6BB"></path>
                                <path d="M8.865,1.04275862 C8.68328571,1.34648276 8.57142857,1.69365517 8.57142857,2.06896552 L9.42857143,2.06896552 C9.42857143,1.64275862 9.20485714,1.26662069 8.865,1.04275862 Z" id="Path" fill="#839594"></path>
                                <path d="M12.5635714,1.04275862 C12.4195714,0.801517241 12.2288571,0.591724138 12,0.424137931 C11.6408571,0.161793103 11.1985714,0 10.7142857,0 C10.23,0 9.78771429,0.161793103 9.42857143,0.424137931 C9.65742857,0.591724138 9.84814286,0.801517241 9.99214286,1.04275862 C10.1982857,0.907034483 10.4468571,0.827586207 10.7142857,0.827586207 C10.9817143,0.827586207 11.2302857,0.907034483 11.4364286,1.04275862 C11.7762857,1.26662069 12,1.64275862 12,2.06896552 C12,2.75337931 11.4231429,3.31034483 10.7142857,3.31034483 C10.4772857,3.31034483 10.2857143,3.49531034 10.2857143,3.72413793 C10.2857143,3.95296552 10.4772857,4.13793103 10.7142857,4.13793103 C11.8958571,4.13793103 12.8571429,3.2097931 12.8571429,2.06896552 C12.8571429,1.69365517 12.7452857,1.34648276 12.5635714,1.04275862 Z" id="Path" fill="#AFB6BB"></path>
                                <path d="M9.99214286,1.04275862 C9.84814286,0.801517241 9.65742857,0.591724138 9.42857143,0.424137931 C9.06942857,0.161793103 8.62714286,0 8.14285714,0 C6.96128571,0 6,0.928137931 6,2.06896552 L6.85714286,2.06896552 C6.85714286,1.38455172 7.434,0.827586207 8.14285714,0.827586207 C8.41028571,0.827586207 8.65885714,0.907034483 8.865,1.04275862 C9.20485714,1.26662069 9.42857143,1.64275862 9.42857143,2.06896552 C9.42857143,2.75337931 8.85171429,3.31034483 8.14285714,3.31034483 C7.90585714,3.31034483 7.71428571,3.49531034 7.71428571,3.72413793 C7.71428571,3.95296552 7.90585714,4.13793103 8.14285714,4.13793103 C9.32442857,4.13793103 10.2857143,3.2097931 10.2857143,2.06896552 C10.2857143,1.69365517 10.1738571,1.34648276 9.99214286,1.04275862 Z" id="Path" fill="#AFB6BB"></path>
                                <rect id="Rectangle" fill="#EDEADA" x="0" y="7.44827586" width="24" height="16.5517241"></rect>
                                <ellipse id="Oval" fill="#CEC9AE" cx="5.14285714" cy="12" rx="2.14285714" ry="2.06896552"></ellipse>
                                <ellipse id="Oval" fill="#CEC9AE" cx="12" cy="12" rx="2.14285714" ry="2.06896552"></ellipse>
                                <ellipse id="Oval" fill="#CEC9AE" cx="18.8571429" cy="12" rx="2.14285714" ry="2.06896552"></ellipse>
                                <ellipse id="Oval" fill="#CEC9AE" cx="5.14285714" cy="18.6206897" rx="2.14285714" ry="2.06896552"></ellipse>
                                <ellipse id="Oval" fill="#CEC9AE" cx="12" cy="18.6206897" rx="2.14285714" ry="2.06896552"></ellipse>
                                <ellipse id="Oval" fill="#26B99A" cx="18.8571429" cy="18.6206897" rx="2.14285714" ry="2.06896552"></ellipse>
                            </g>
                        </g>
                    </g>
                </g>
            </g>
        </g>
    </g>
</svg>