<?xml version="1.0" encoding="UTF-8"?>
<svg width="40px" height="40px" viewBox="0 0 40 40" version="1.1" xmlns="http://www.w3.org/2000/svg" xmlns:xlink="http://www.w3.org/1999/xlink">
    <title>DA2A3538-31F3-415D-9DFD-A2431581EB08</title>
    <defs>
        <filter id="filter-1">
            <feColorMatrix in="SourceGraphic" type="matrix" values="0 0 0 0 0.070588 0 0 0 0 0.407843 0 0 0 0 0.701961 0 0 0 1.000000 0"></feColorMatrix>
        </filter>
    </defs>
    <g id="SETTINGS" stroke="none" stroke-width="1" fill="none" fill-rule="evenodd">
        <g id="F-03-Syllabus" transform="translate(-304.000000, -160.000000)">
            <g id="Title" transform="translate(0.000000, 130.000000)">
                <g id="Close-or-Edit" transform="translate(304.000000, 30.000000)">
                    <g id="Group-2" transform="translate(8.000000, 8.000000)">
                        <g filter="url(#filter-1)" id="security">
                            <g transform="translate(7.000000, 5.000000)">
                                <path d="M8.41670588,12 L1.46564706,12 C0.656235294,12 0,11.3847794 0,10.6259559 L0,6.31522059 C0,5.55639706 0.656235294,4.94117647 1.46564706,4.94117647 L8.41670588,4.94117647 C9.22611765,4.94117647 9.88235294,5.55639706 9.88235294,6.31522059 L9.88235294,10.6259559 C9.88235294,11.3847794 9.22611765,12 8.41670588,12 Z" id="Path" fill="#989898" fill-rule="nonzero"></path>
                                <path d="M8.41670588,4.94117647 L4.94117647,4.94117647 L4.94117647,12 L8.41670588,12 C9.22611765,12 9.88235294,11.3847794 9.88235294,10.6259559 L9.88235294,6.31522059 C9.88235294,5.55639706 9.22611765,4.94117647 8.41670588,4.94117647 Z" id="Path" fill="#989898" fill-rule="nonzero"></path>
                                <path d="M1.46564706,4.93846032 L2.35294118,4.93846032 L2.35294118,3.33346071 C2.35294118,2.04007796 3.51411765,0.987692063 4.94117647,0.987692063 C6.36823529,0.987692063 7.52941176,2.04007796 7.52941176,3.33346071 L7.52941176,4.93846032 L8.41670588,4.93846032 C8.43482353,4.93846032 8.45247059,4.94068262 8.47058824,4.94117647 L8.47058824,3.33346071 C8.47058824,1.50005732 6.88235294,0 4.94117647,0 C3,0 1.41176471,1.50005732 1.41176471,3.33346071 L1.41176471,4.94117647 C1.42988235,4.94068262 1.44752941,4.93846032 1.46564706,4.93846032 Z" id="Path" fill="#989898" fill-rule="nonzero"></path>
                            </g>
                        </g>
                        <path d="M11.9411765,14.1764706 L11.9411765,14.1764706 C11.5529412,14.1764706 11.2352941,13.8588235 11.2352941,13.4705882 L11.2352941,12.0588235 C11.2352941,11.6705882 11.5529412,11.3529412 11.9411765,11.3529412 L11.9411765,11.3529412 C12.3294118,11.3529412 12.6470588,11.6705882 12.6470588,12.0588235 L12.6470588,13.4705882 C12.6470588,13.8588235 12.3294118,14.1764706 11.9411765,14.1764706 Z" id="Path" fill="#FFFFFF" fill-rule="nonzero"></path>
                    </g>
                </g>
            </g>
        </g>
    </g>
</svg>