<svg xmlns="http://www.w3.org/2000/svg" xmlns:xlink="http://www.w3.org/1999/xlink" width="24px" height="24px" viewBox="0 0 24 24" version="1.1">
    <title>6C58E0CF-6D6A-4976-BF3F-5C0A40E43192</title>
    <g id="Lessons-D" stroke="none" stroke-width="1" fill="none" fill-rule="evenodd">
        <g id="Lessons-D-01" transform="translate(-907.000000, -897.000000)" fill-rule="nonzero">
            <g id="D2/Compounds/Panels/Upcoming/Lessons/Default" transform="translate(438.000000, 783.000000)">
                <g id="Elements/Graphics/Style3/Redo/Colour" transform="translate(469.000000, 114.000000)">
                    <g id="security" transform="translate(7.000000, 6.000000)">
                        <path d="M8.41670588,12 L1.46564706,12 C0.656235294,12 0,11.3847794 0,10.6259559 L0,6.31522059 C0,5.55639706 0.656235294,4.94117647 1.46564706,4.94117647 L8.41670588,4.94117647 C9.22611765,4.94117647 9.88235294,5.55639706 9.88235294,6.31522059 L9.88235294,10.6259559 C9.88235294,11.3847794 9.22611765,12 8.41670588,12 Z" id="Path" fill="#989898"/>
                        <path d="M8.41670588,4.94117647 L4.94117647,4.94117647 L4.94117647,12 L8.41670588,12 C9.22611765,12 9.88235294,11.3847794 9.88235294,10.6259559 L9.88235294,6.31522059 C9.88235294,5.55639706 9.22611765,4.94117647 8.41670588,4.94117647 Z" id="Path" fill="#989898"/>
                        <path d="M4.94117647,9.17647059 L4.94117647,9.17647059 C4.55294118,9.17647059 4.23529412,8.85882353 4.23529412,8.47058824 L4.23529412,7.05882353 C4.23529412,6.67058824 4.55294118,6.35294118 4.94117647,6.35294118 L4.94117647,6.35294118 C5.32941176,6.35294118 5.64705882,6.67058824 5.64705882,7.05882353 L5.64705882,8.47058824 C5.64705882,8.85882353 5.32941176,9.17647059 4.94117647,9.17647059 Z" id="Path" fill="#FFFFFF"/>
                        <path d="M1.46564706,4.93846032 L2.35294118,4.93846032 L2.35294118,3.33346071 C2.35294118,2.04007796 3.51411765,0.987692063 4.94117647,0.987692063 C6.36823529,0.987692063 7.52941176,2.04007796 7.52941176,3.33346071 L7.52941176,4.93846032 L8.41670588,4.93846032 C8.43482353,4.93846032 8.45247059,4.94068262 8.47058824,4.94117647 L8.47058824,3.33346071 C8.47058824,1.50005732 6.88235294,0 4.94117647,0 C3,0 1.41176471,1.50005732 1.41176471,3.33346071 L1.41176471,4.94117647 C1.42988235,4.94068262 1.44752941,4.93846032 1.46564706,4.93846032 Z" id="Path" fill="#989898"/>
                    </g>
                </g>
            </g>
        </g>
    </g>
</svg>