<?xml version="1.0" encoding="UTF-8"?>
<svg width="40px" height="40px" viewBox="0 0 40 40" version="1.1" xmlns="http://www.w3.org/2000/svg" xmlns:xlink="http://www.w3.org/1999/xlink">
    <title>359D9100-E59D-4F33-9A9A-C8FD60D4EF72</title>
    <g id="Lesson-Completion-&amp;-Notes---Jira" stroke="none" stroke-width="1" fill="none" fill-rule="evenodd">
        <g id="AFS-1401" transform="translate(-639.000000, -471.000000)" fill="#1268B3">
            <g id="Uploaded-Record-2" transform="translate(351.000000, 463.000000)">
                <g id="Elements/Graphics/Style3/Close/Black" transform="translate(288.000000, 8.000000)">
                    <g id="Delete" transform="translate(8.000000, 8.000000)">
                        <circle id="Oval" fill-opacity="0.06" cx="12" cy="12" r="12"></circle>
                        <g id="Group" transform="translate(6.000000, 5.250000)" fill-rule="nonzero">
                            <path d="M5.49152542,11.6694915 C5.61783051,11.6694915 5.72033898,11.5672119 5.72033898,11.440678 L5.72033898,3.88983051 C5.72033898,3.76329661 5.61783051,3.66101695 5.49152542,3.66101695 C5.36522034,3.66101695 5.26271186,3.76329661 5.26271186,3.88983051 L5.26271186,11.440678 C5.26271186,11.5672119 5.36522034,11.6694915 5.49152542,11.6694915 Z" id="Path"></path>
                            <path d="M3.20338983,11.6694915 C3.32969492,11.6694915 3.43220339,11.5672119 3.43220339,11.440678 L3.43220339,3.88983051 C3.43220339,3.76329661 3.32969492,3.66101695 3.20338983,3.66101695 C3.07708475,3.66101695 2.97457627,3.76329661 2.97457627,3.88983051 L2.97457627,11.440678 C2.97457627,11.5672119 3.07708475,11.6694915 3.20338983,11.6694915 Z" id="Path"></path>
                            <path d="M7.77966102,11.6694915 C7.9059661,11.6694915 8.00847458,11.5672119 8.00847458,11.440678 L8.00847458,3.88983051 C8.00847458,3.76329661 7.9059661,3.66101695 7.77966102,3.66101695 C7.65335593,3.66101695 7.55084746,3.76329661 7.55084746,3.88983051 L7.55084746,11.440678 C7.55084746,11.5672119 7.65335593,11.6694915 7.77966102,11.6694915 Z" id="Path"></path>
                            <path d="M10.7542373,1.37288136 L7.54077966,1.37288136 C7.51561017,1.08686441 7.42751695,0.604525424 7.12594068,0.294940678 C6.93511017,0.0993050847 6.69302542,0 6.40655085,0 L4.11864407,0 C3.83216949,0 3.59008475,0.0993050847 3.39925424,0.294940678 C3.09767797,0.604525424 3.00958475,1.08686441 2.98441525,1.37288136 L0.228813559,1.37288136 C0.102508475,1.37288136 1.18705046e-13,1.47516102 1.18705046e-13,1.60169492 C1.18705046e-13,1.72822881 0.102508475,1.83050847 0.228813559,1.83050847 L0.695822034,1.83050847 L1.134,12.3607373 C1.1424661,12.7547542 1.38775424,13.5 2.25701695,13.5 L8.7260339,13.5 C9.59529661,13.5 9.84058475,12.7547542 9.84882203,12.3655424 L10.2872288,1.83050847 L10.7542373,1.83050847 C10.8805424,1.83050847 10.9830508,1.72822881 10.9830508,1.60169492 C10.9830508,1.47516102 10.8805424,1.37288136 10.7542373,1.37288136 Z M3.72783051,0.613449153 C3.83033898,0.508652542 3.95824576,0.457627119 4.11864407,0.457627119 L6.40655085,0.457627119 C6.56694915,0.457627119 6.69485593,0.508652542 6.79736441,0.613449153 C6.98155932,0.801762712 7.0554661,1.13308475 7.08109322,1.37288136 L3.44433051,1.37288136 C3.46995763,1.13308475 3.54386441,0.801762712 3.72783051,0.613449153 Z M9.39142373,12.3511271 C9.39005085,12.4218305 9.35847458,13.0423729 8.7260339,13.0423729 L2.25701695,13.0423729 C1.63144068,13.0423729 1.59391525,12.4206864 1.59139831,12.346322 L1.15367797,1.83050847 L9.82914407,1.83050847 L9.39142373,12.3511271 Z" id="Shape"></path>
                        </g>
                    </g>
                </g>
            </g>
        </g>
    </g>
</svg>