<?xml version="1.0" encoding="UTF-8"?>
<svg width="24px" height="24px" viewBox="0 0 24 24" version="1.1" xmlns="http://www.w3.org/2000/svg" xmlns:xlink="http://www.w3.org/1999/xlink">
    <title>0ABC07E4-ED1D-43CD-8D29-CD887C27FE28</title>
    <defs>
        <filter x="-2.5%" y="-14.0%" width="105.0%" height="127.9%" filterUnits="objectBoundingBox" id="filter-1">
            <feOffset dx="0" dy="2" in="SourceAlpha" result="shadowOffsetOuter1"></feOffset>
            <feGaussianBlur stdDeviation="2" in="shadowOffsetOuter1" result="shadowBlurOuter1"></feGaussianBlur>
            <feColorMatrix values="0 0 0 0 0   0 0 0 0 0   0 0 0 0 0  0 0 0 0.5 0" type="matrix" in="shadowBlurOuter1" result="shadowMatrixOuter1"></feColorMatrix>
            <feMerge>
                <feMergeNode in="shadowMatrixOuter1"></feMergeNode>
                <feMergeNode in="SourceGraphic"></feMergeNode>
            </feMerge>
        </filter>
    </defs>
    <g id="Lessons-D" stroke="none" stroke-width="1" fill="none" fill-rule="evenodd">
        <g id="Lessons-D-01" transform="translate(-612.000000, -273.000000)" stroke="#FFFFFF" stroke-width="0.6">
            <g id="NewCards/Lesson-Copy" filter="url(#filter-1)" transform="translate(454.000000, 215.000000)">
                <g id="StarSmall/Empty" transform="translate(158.000000, 58.000000)">
                    <path d="M11.7887703,7.45104371 C12.0082969,7.32814328 12.0763082,7.30688939 12.1224564,7.33866466 C12.161321,7.36542481 12.1922337,7.40425672 12.2111601,7.45019995 L12.2111601,7.45019995 L13.4212037,10.4056054 L16.4882771,10.6962108 C16.5331944,10.7004351 16.5744361,10.7187727 16.6080537,10.746792 C16.6446971,10.7773332 16.6723314,10.8191838 16.6874488,10.8679789 C16.7032659,10.9188327 16.7038551,10.9720507 16.6908184,11.0213585 C16.6782562,11.0688711 16.6529781,11.1128958 16.6155273,11.1470884 L16.6155273,11.1470884 L14.3065367,13.2597389 L14.9865115,16.3853035 C14.9978364,16.4374955 14.9939228,16.4906618 14.9766042,16.53864 C14.9601808,16.584138 14.9316081,16.6250745 14.8920211,16.6550128 C14.8557963,16.6824143 14.8137073,16.6977335 14.7708821,16.6996828 C14.7286508,16.701605 14.6860501,16.6904707 14.6476036,16.666337 L14.6476036,16.666337 L12.0000695,15.0145718 L9.45553837,16.6014909 C9.25234011,16.5532899 9.1186804,16.5022628 9.03745866,16.4406933 C9.02508555,16.4313139 9.01255922,16.4245271 9.00843271,16.413686 C9.00469394,16.4038635 9.01124033,16.3939453 9.01307678,16.3854625 L9.01307678,16.3854625 L9.69308192,13.2597582 L7.38355708,11.1461989 C7.34658675,11.1125369 7.32159308,11.0687707 7.30914694,11.0215899 C7.29612658,10.9722324 7.29674833,10.9189501 7.31258411,10.8681319 C7.32773436,10.8195137 7.35540823,10.77757 7.39210407,10.7469544 C7.42578089,10.7188576 7.46708012,10.7004818 7.51154982,10.6961916 L7.51154982,10.6961916 L10.5788635,10.4056094 Z" id="Star"></path>
                </g>
            </g>
        </g>
    </g>
</svg>