<?xml version="1.0" encoding="UTF-8"?>
<svg width="64px" height="64px" viewBox="0 0 64 64" version="1.1" xmlns="http://www.w3.org/2000/svg" xmlns:xlink="http://www.w3.org/1999/xlink">
    <title>D664F306-CC1D-4568-AFAF-0A64E1FF6719</title>
    <g id="Page-1" stroke="none" stroke-width="1" fill="none" fill-rule="evenodd">
        <g id="B-01-ST-Menu" transform="translate(-35.000000, -603.000000)" fill-rule="nonzero">
            <g id="View-School-Diary" transform="translate(20.000000, 588.000000)">
                <g id="Elements/Graphics/Style2/Books" transform="translate(15.000000, 15.000000)">
                    <g id="027-manual" transform="translate(13.000000, 4.000000)">
                        <path d="M37.7647095,8.03265378 L37.6138917,33.6434936 L37.3259277,33.6776733 C36.2539673,33.8032837 35.2315674,34.4441529 34.6594849,35.3499146 C34.1715698,36.1219482 33.9934082,37.0888061 34.1685792,38.0056763 L34.2647095,38.5085449 L33.7669677,38.3850708 C33.3568115,38.2833862 32.814209,38.1629029 32.2587891,38.1334229 C32.1724854,38.1278686 32.0848999,38.1257324 31.9994507,38.1257324 C31.2722779,38.1257324 30.6224365,38.2974854 30.1204224,38.6226197 C29.2368775,39.1934204 28.7519531,40.3179322 28.9403686,41.3569947 L29.0147095,41.7680053 L28.5977173,41.7427979 C25.1199341,41.53302 21.5904542,41.4266357 18.1066895,41.4266357 C14.8408203,41.4266357 11.5420533,41.5210572 8.30139166,41.7047729 L7.95233152,41.7252807 L8.178772,0.535766656 L8.51885989,0.550292969 C8.88073725,0.566528375 9.26354975,0.586181641 9.72198489,0.612243625 L9.85870364,0.621215875 C10.126587,0.636596625 10.3846435,0.651977594 10.6328736,0.662658719 C12.8259277,0.764343234 15.0595703,0.814758328 17.2709961,0.814758328 C19.0397949,0.814758328 20.8256836,0.781860406 22.5778198,0.717346219 C23.4147949,0.685729953 24.2940674,0.646423313 25.0007324,0.613525391 C26.6610107,0.539184625 28.376831,0.461425781 30.1105957,0.448181125 L30.5075073,0.445190375 L30.4353027,0.836547906 C30.2550049,1.80810547 30.3588257,2.53869634 30.7527466,3.06890872 C31.1462402,3.60296628 31.8640137,3.91998294 32.6697998,3.91998294 C32.7018432,3.91998294 32.7334595,3.91998294 32.7663574,3.91870117 C33.1786499,3.90673828 33.6259766,3.82043463 34.173706,3.64526367 L34.7808228,3.45300288 L34.585144,4.05883789 C34.3279419,4.85821536 34.0839844,5.89514166 34.4954224,6.82824713 C34.735962,7.37640378 35.2260132,7.82458491 35.8374023,8.05871588 C36.1304932,8.17022708 36.4346924,8.22705078 36.7410279,8.22705078 C36.9499512,8.22705078 37.1541748,8.19970703 37.3468628,8.14715573 L37.7647095,8.03265378 Z" id="Path" fill="#FF7C7C"></path>
                        <path d="M18.1092529,41.5428466 C14.8015137,41.5428466 11.4604492,41.6389771 8.17834478,41.8286743 C6.37536616,41.9329224 4.76721197,42.0807495 3.34704584,42.8391113 C1.53253177,43.8098145 0.687438937,45.5534057 0.790405219,46.7744751 L0.792114312,46.7954102 L0.796813937,46.815918 C1.04803464,47.9797363 1.48510742,48.9060059 2.13366694,49.6489868 C3.58288569,51.3067017 5.7097168,51.7386474 7.59899897,51.9424439 L7.9519043,51.9804688 L7.99890131,50.3005371 L7.69342044,50.2710572 C6.68981928,50.175354 5.62084961,49.9980469 4.60357669,49.352478 C3.96612552,48.9491577 3.4371948,48.3168335 3.15264895,47.6178589 C2.84417722,46.8629151 2.84759519,46.0968628 3.16204831,45.4602661 C3.87896731,44.0050659 5.77380366,43.7034302 7.34436041,43.6030273 C10.5461426,43.3966675 13.8064575,43.2924194 17.0338745,43.2924194 C21.5058594,43.2924194 26.0167237,43.4923706 30.4412841,43.8867188 C31.0372925,43.9396973 31.7362671,43.9935302 32.4040527,43.9935302 C33.9711914,43.9935302 35.0854492,43.6850586 35.9104615,43.0223999 L36.5342407,42.5216675 L35.7382812,42.4404908 C29.9157715,41.8449096 23.9843139,41.5428466 18.1092529,41.5428466 Z" id="Path" fill="#FF7C7C"></path>
                        <path d="M29.5816651,50.2283325 L29.1317749,50.2595215 C25.4813842,50.5128784 21.7767333,50.6410522 18.1199341,50.6410522 C18.1199341,50.6410522 18.1195068,50.6410522 18.1195068,50.6410522 C16.5130615,50.6410522 14.8886719,50.616272 13.2911987,50.5671387 L12.9566651,50.5568848 L12.9374389,52.3120117 L13.2527466,52.3278198 C16.1635742,52.47052 19.1256714,52.5431518 22.0570068,52.5431518 C24.472229,52.5431518 26.9182129,52.4940185 29.3261719,52.3966065 L29.8286133,52.3765259 L29.6077271,51.9244995 C29.4193115,51.5391236 29.3701783,51.0802612 29.4727173,50.6658325 L29.5816651,50.2283325 Z" id="Path" fill="#FF7C7C"></path>
                        <path d="M3.29235834,42.7365723 C4.04345703,42.3353882 4.90435794,42.0730591 6.00195312,41.9111328 L6.27838137,41.8705444 L6.85131836,0.525085422 L6.501831,0.542602594 C4.41687006,0.648132297 2.94927981,1.2009888 2.02044675,2.22680664 C0.676330594,3.65295416 0.561828641,5.73150638 0.558410672,7.91601563 L0.499450656,42.869873 C0.498169,43.6107177 0.509277344,44.1691284 0.534912109,44.6809693 L0.591735813,45.8114624 L1.1484375,44.8258057 C1.62567136,43.9802857 2.42675781,43.1992798 3.29235834,42.7365723 Z" id="Path" fill="#FF7C7C"></path>
                        <path d="M32.3703003,44.1131591 C31.6773072,44.1131591 31.0167846,44.0546264 30.430603,44.0025025 C26.0077514,43.6085815 21.4990234,43.4086303 17.0304565,43.4086303 C13.8060302,43.4086303 10.5499878,43.5128784 7.352478,43.7188111 C5.81225586,43.8187866 3.95587161,44.1127319 3.26672369,45.5119629 C2.99713137,46.0567017 2.97491458,46.7595215 3.20562747,47.4401245 C3.45257566,48.1694336 3.97167969,48.8132935 4.66680911,49.2537841 C5.65545652,49.8818359 6.68640131,50.0557251 7.65368647,50.1501465 L8.00360105,50.1843262 L8.0471802,48.6248779 C8.04931641,48.5261841 8.04931641,48.4215088 8.04846197,48.3146973 L8.045044,47.9938354 L8.03991694,47.9938354 L8.03649897,47.8669434 C8.02752683,47.5614624 8.02026367,47.2623901 8.03393555,46.9650268 L8.04418945,46.7420044 L8.07067866,46.5527344 C8.10144037,46.3305664 8.14501953,46.1459961 8.20397944,45.9887695 C8.41674805,45.4179687 8.87689206,45.3030396 9.55023191,45.3030396 C9.6027832,45.3030396 9.65447995,45.3034668 9.70788569,45.3043213 L9.85314947,45.3047486 C9.87878412,45.3047486 10.3406372,45.3009034 10.3406372,45.3009034 C11.9816895,45.286377 12.8314819,45.277832 12.928894,45.2748413 L12.9545288,45.2748413 C12.986145,45.2748413 13.0117798,45.3009034 13.0117798,45.3325195 L12.958374,50.4402466 L13.279663,50.4500732 C14.8826904,50.4992065 16.5113526,50.5244141 18.1212159,50.5244141 C22.972168,50.5244141 27.8718262,50.2992553 32.6847534,49.8549194 L33.2158203,49.8062134 L32.9325561,49.354187 C32.7646484,49.0863037 32.6398926,48.7821044 32.5617065,48.4501342 L32.5168457,48.260437 L32.4929199,48.0438232 C32.4412232,47.578125 32.479248,47.1047363 32.6061401,46.6369018 C32.7890014,45.9605713 33.1419068,45.2910767 33.6849365,44.5908203 L34.1561889,43.9832763 L33.3914185,44.0635987 C33.0722656,44.0969238 32.7381591,44.1131591 32.3703003,44.1131591 Z" id="Path" fill="#FFD2BB"></path>
                        <path d="M9.92834478,45.4213867 C9.85485834,45.4213867 9.78051758,45.4213867 9.70489505,45.420105 L9.5946655,45.4192505 C9.10076902,45.4192505 8.54064947,45.4192505 8.31292722,46.0297852 C8.11297605,46.5689698 8.13433841,47.244873 8.15484622,47.8981323 L8.15698242,47.9682007 C8.16381836,48.2010497 8.17022708,48.4210815 8.16381836,48.6295776 L7.97540286,55.3010254 L10.1253052,53.9000854 C10.1364135,53.8928223 10.1479492,53.8889771 10.1586303,53.8889771 C10.1693115,53.8889771 10.1791382,53.8919677 10.1902466,53.8988037 L12.7870483,55.5095215 L12.8955689,45.3944702 L12.5614624,45.3970337 C12.4157715,45.3978882 11.9620362,45.4025879 11.9620362,45.4025879 C11.4143066,45.4081421 10.7619018,45.413269 10.3410645,45.416687 C10.3406372,45.416687 9.92962644,45.4213867 9.92834478,45.4213867 Z" id="Path" fill="#ED6D66"></path>
                        <path d="M35.871582,1.11169428 L35.876709,1.0997315 L35.5806275,0.972839328 C35.5802003,0.972412109 35.5793457,0.972412109 35.5789185,0.971984891 C35.5784912,0.971984891 35.5784912,0.971984891 35.5780639,0.971557562 L35.2725831,0.843811062 L35.2687378,0.853210422 C34.47406,0.58020025 33.6199951,0.522094781 32.8060913,0.488342312 C32.1955566,0.462707547 31.5551147,0.448608344 30.9022827,0.446472141 L30.6339721,0.445617703 L30.579712,0.708373969 C30.3677979,1.73889166 30.4528198,2.466919 30.8463135,3.00054934 C31.3974609,3.74523931 32.3925171,3.80291745 32.6847534,3.80291745 C32.7108154,3.80291745 32.7368775,3.80249023 32.7625122,3.80163569 C33.4999389,3.78070066 34.2044677,3.52264402 34.887207,3.27270508 C34.8893432,3.27227786 34.8914794,3.27142331 34.8936158,3.27099609 L34.9034424,3.26928711 C34.9196777,3.26928711 34.935913,3.27569583 34.9470215,3.28680417 C34.9632568,3.3034668 34.9679565,3.32739258 34.9602661,3.34875494 C34.5253296,4.50915522 34.1390991,5.73022461 34.6018066,6.78082278 C34.8303833,7.30120847 35.2960815,7.72717291 35.878418,7.94848633 C36.1582642,8.05572513 36.447937,8.10998541 36.7388917,8.10998541 C37.032837,8.10998541 37.3122559,8.05444336 37.5686035,7.94464114 L37.7668457,7.86004636 L37.7745362,6.36212161 C37.7882081,4.22033697 37.6497802,2.05462644 35.871582,1.11169428 Z" id="Path" fill="#F9D889"></path>
                        <path d="M37.2349243,33.8071289 C36.2249146,33.9575195 35.2990723,34.5578003 34.7581787,35.413147 C34.5325927,35.770752 34.3736573,36.1779175 34.2890625,36.6043091 L34.2728271,36.6021729 L34.2382202,36.9345703 C34.2382202,36.9354248 34.2382202,36.9358521 34.237793,36.9362793 L34.2053223,37.2550049 L34.2207031,37.2571411 C34.2138672,37.7177124 34.2933349,38.1740112 34.458252,38.5922852 C34.4659424,38.6123658 34.4620971,38.6358643 34.4471435,38.6525268 C34.4360352,38.6649169 34.4202271,38.6721802 34.4035645,38.6721802 C34.3988647,38.6721802 34.3937378,38.6713257 34.3886108,38.670044 C33.6977539,38.4833374 32.9838257,38.2902221 32.2528076,38.2500611 C32.1724854,38.2453613 32.0870362,38.2427979 31.9977417,38.2427979 C31.2953491,38.2427979 30.6685792,38.4081421 30.184082,38.7208862 C29.3308716,39.2716065 28.8596191,40.3935547 29.06427,41.3886108 C29.06427,41.389038 29.0655518,41.3967285 29.0629883,41.4142456 L29.0117188,41.7662964 L29.3667603,41.7893677 C31.6888427,41.9397583 34.0147706,42.137146 36.2804565,42.3764038 L36.2988281,42.3836669 L36.5355224,42.3836669 L36.6333618,42.241394 C37.4985352,40.9788818 37.5809936,39.262207 37.5908203,37.6113281 L37.59552,36.8239135 L37.6138917,33.7503052 L37.2349243,33.8071289 Z" id="Path" fill="#F9D889"></path>
                        <path d="M36.5244141,49.7822876 C36.3167724,49.7156372 36.0817871,49.6835938 35.8066406,49.6835938 C35.545166,49.6835938 35.2836914,49.7117919 35.0311889,49.7391357 C33.3794556,49.9168701 31.6726074,50.0715332 29.9580689,50.199707 L29.7072754,50.2185059 C29.7072754,50.2185059 29.6585693,50.4714355 29.6589966,50.4714355 C29.6589966,50.4714355 29.6589966,50.4710083 29.6594238,50.4697266 C29.4329833,51.0187378 29.5286865,51.7019043 29.8982544,52.1688842 C29.8986816,52.1693115 29.9020996,52.1740112 29.9076538,52.1842651 L30.0046387,52.3688354 L30.2131348,52.3594361 C31.982788,52.279541 33.732788,52.175293 35.414856,52.0505371 C36.369751,51.979187 37.3934326,51.6185913 37.4028691,50.8209229 C37.4075318,50.3253174 36.9649048,49.9232788 36.5244141,49.7822876 Z" id="Path" fill="#F9D889"></path>
                        <path d="M6.76159663,41.8175659 C7.09997553,41.7833862 7.45928958,41.7547607 7.86090091,41.7304077 L8.16723633,41.7116089 L8.39282227,0.5408935 L8.0715332,0.532775906 C7.80535886,0.525939969 7.58447266,0.522522 7.376831,0.522522 L6.96795652,0.524230984 L6.39501953,41.8547363 L6.76159663,41.8175659 Z" id="Path" fill="#F9D889"></path>
                        <path d="M35.9984741,0.674621609 C34.9914551,0.173034641 33.8323365,0.0858764375 32.8248901,0.0435791563 C30.2054443,-0.0666503906 27.5496826,0.0534057344 24.9815064,0.169616672 C24.1881104,0.205505344 23.3677979,0.243103 22.5615845,0.272583063 C18.6104126,0.418273953 14.6045533,0.399902344 10.654663,0.21875 C10.3658448,0.205505344 10.0620728,0.187561063 9.74761966,0.168762234 C9.27551275,0.140991156 8.78759766,0.11236575 8.28259272,0.0944213594 C5.91906744,0.0119628906 3.28765872,0.165344266 1.69146731,1.92730716 C0.241394016,3.46453855 0.116638156,5.72851563 0.112792969,7.91558841 L0.054598538,42.869873 C0.0525512969,44.2571411 0.0871582031,45.6123658 0.347351047,46.8535156 C0.353332547,46.9090576 0.360595703,46.9645996 0.369567844,47.0197143 C0.376831,47.0637207 0.391784641,47.1047363 0.411865234,47.1419068 C0.663085937,48.1775513 1.08691406,49.1268921 1.798706,49.9416504 C3.33081055,51.6937866 5.48712161,52.1676026 7.61224363,52.3919068 L7.52722163,55.3997193 C7.52294922,55.5437012 7.59899897,55.6778565 7.72460938,55.7479247 C7.84979245,55.8179932 8.00402838,55.8132935 8.12451172,55.7346802 L10.1637573,54.4059448 L12.6405029,55.9418945 C12.7028809,55.9803466 12.7733764,56.0000092 12.8442993,56.0000092 C12.9083862,56.0000092 12.9724732,55.9841919 13.0301513,55.9521484 C13.152771,55.8850708 13.229248,55.756897 13.2305298,55.6176147 L13.2612915,52.7738647 C16.1853638,52.9174194 19.1231079,52.9891967 22.0638427,52.9891967 C26.5349732,52.9891967 31.0116577,52.8238526 35.4477539,52.4940185 C36.940979,52.3829346 37.8381958,51.7591552 37.8475952,50.8247681 C37.8548583,50.0813599 37.2374878,49.5438842 36.6602784,49.3588867 C36.09375,49.1777344 35.5037232,49.2409668 34.9833374,49.2969361 C34.5082397,49.3477784 34.0331421,49.3964844 33.55719,49.4430542 C32.9692993,48.8094482 32.763794,47.7571411 33.0350952,46.7531128 C33.2611083,45.9178466 33.7720948,45.09198 34.6428223,44.1550293 C35.298645,43.9602051 35.9160156,43.6466065 36.4364013,43.1548462 C37.8898926,41.7825318 38.0236206,39.6651001 38.0355835,37.6143189 L38.2201538,6.36425781 C38.2299805,4.65570066 38.2470703,1.79571536 35.9984741,0.674621609 Z M35.6532592,1.36676028 C37.3306275,2.20288086 37.4592285,4.29168698 37.4468384,6.35955808 L37.4391479,7.64300534 C37.0076294,7.82800288 36.4842529,7.82885742 35.9959107,7.64257813 C35.494751,7.45117188 35.0961303,7.08929441 34.9025879,6.64923098 C34.4890137,5.71014402 34.8564453,4.56042475 35.267456,3.46325678 C35.3208618,3.32183841 35.2862549,3.16247553 35.1802979,3.05523684 C35.0739135,2.94799805 34.9145508,2.91253659 34.7727051,2.96466067 C34.1156005,3.20520025 33.4362793,3.4534302 32.7531128,3.47393802 C32.2109375,3.48931888 31.4935913,3.32269284 31.1103516,2.80529791 C30.7775268,2.35540769 30.710022,1.70556641 30.9014282,0.774169922 C31.5337525,0.776733344 32.1643677,0.789123563 32.7924194,0.815612766 C33.7626953,0.856628391 34.7825318,0.93267825 35.6532592,1.36676028 Z M10.6192017,0.990783719 C14.5900268,1.17364505 18.6176758,1.19158933 22.5902099,1.045044 C23.3994141,1.01556394 24.2214355,0.977966281 25.0165405,0.942077609 C26.690918,0.866455078 28.4028931,0.789978 30.1127319,0.776306125 C29.9691772,1.55004883 29.9302979,2.51007083 30.4887085,3.26501459 C30.9650879,3.90802005 31.8208618,4.27630613 32.7757568,4.24682617 C33.2944336,4.23144531 33.798584,4.1096802 34.2732544,3.95843503 C33.9476928,4.9684448 33.7720948,6.00067136 34.1950684,6.96069336 C34.4714966,7.58874506 35.0273438,8.10015872 35.7199096,8.36462397 C36.0531616,8.49194336 36.4005128,8.55517578 36.7410279,8.55517578 C36.9781495,8.55517578 37.2114258,8.52398684 37.4344482,8.46289063 L37.2874755,33.3512573 C36.1142578,33.4892578 35.0132447,34.1754151 34.3817749,35.1747436 C33.8451538,36.0241089 33.6575927,37.0819702 33.845581,38.0671997 C33.336731,37.9403076 32.8150635,37.8347779 32.2767333,37.8057251 C31.3735352,37.7574463 30.5668945,37.9437255 29.9418335,38.3470458 C28.9425049,38.9926147 28.4054565,40.246582 28.6177979,41.4155273 C21.8468018,41.0070801 15.0356445,40.9925537 8.28259272,41.3770753 L8.50476069,0.878417969 C8.91278073,0.895507813 9.31396484,0.917724609 9.70233152,0.940368625 C10.0202026,0.959167453 10.3269654,0.977539063 10.6192017,0.990783719 Z M8.06298828,0.860900906 L7.84039309,41.4027099 C7.46612552,41.4262085 7.09527591,41.4539794 6.7286987,41.4911499 L7.29223633,0.850529485 C7.55072019,0.849792453 7.80834961,0.85363775 8.06298828,0.860900906 Z M0.828002875,42.8711548 L0.886108344,7.91687006 C0.889526312,5.80072019 0.996765109,3.79052734 2.25927734,2.45196536 C3.28552241,1.31890872 4.87615964,0.953613281 6.51849363,0.870727594 L5.95410156,41.5864258 C4.95989988,41.7329712 4.00927734,41.9812012 3.13769531,42.4473267 C2.25543216,42.9185792 1.39410403,43.7226563 0.863037109,44.6643066 C0.833129937,44.0794068 0.827148437,43.479126 0.828002875,42.8711548 Z M2.38104245,49.4328003 C1.71838384,48.6748657 1.33642578,47.7592773 1.11724856,46.7471314 C1.02239987,45.6200561 1.85595703,44.0089112 3.5021362,43.1292115 C4.86334231,42.4011841 6.43389895,42.2576294 8.19757083,42.1559448 C17.3406372,41.6278686 26.5917969,41.8346557 35.7053833,42.7660522 C34.4065552,43.8089599 32.4882202,43.7393189 30.4699096,43.5594482 C22.7978516,42.8762818 15.0100098,42.7805786 7.32385259,43.2749023 C5.66442866,43.3817138 3.65850833,43.7098388 2.86682134,45.3150025 C2.51092527,46.0370483 2.50451666,46.8988037 2.84844973,47.7426147 C3.15820312,48.501831 3.73413086,49.1901245 4.42840573,49.630188 C5.4161987,50.2565307 6.44543462,50.4816895 7.66308594,50.5979004 L7.6340332,51.6164551 C5.68579102,51.4066772 3.72515872,50.970459 2.38104245,49.4328003 Z M10.3624268,53.6193848 C10.3000488,53.5809326 10.229126,53.5617065 10.1586303,53.5617065 C10.085144,53.5617065 10.0116577,53.5826417 9.94757083,53.6240845 L8.3206177,54.684082 L8.49194336,48.6385498 C8.4987793,48.401001 8.49066159,48.1523438 8.482544,47.8891602 C8.46289063,47.2658081 8.44281003,46.6210938 8.62054441,46.1438599 C8.75683594,45.7781372 9.03967291,45.743103 9.7019043,45.7486573 C9.77923581,45.7495117 9.85656744,45.7495117 9.93304441,45.7490845 L10.3440552,45.7456665 C10.7636108,45.7418213 11.4172974,45.7362671 11.9658814,45.7311401 C12.1901855,45.7285767 12.3969727,45.7268677 12.5631714,45.7251587 L12.4649048,54.9233398 L10.3624268,53.6193848 Z M13.2694091,52.0001221 L13.2809448,50.8961182 C18.5570068,51.0576172 23.8736573,50.9533691 29.1548462,50.5863647 C29.0317993,51.0802612 29.0899048,51.6130371 29.3133544,52.0693359 C23.9680786,52.2842408 18.5946044,52.2615966 13.2694091,52.0001221 Z M35.0657958,50.0655518 C35.5319214,50.0155639 36.013855,49.96344 36.4244385,50.0950318 C36.7418823,50.1971435 37.0776978,50.4846802 37.0743057,50.8170776 C37.0682983,51.3938599 36.1633911,51.6655884 35.3900757,51.7228393 C33.6644287,51.8514404 31.9328003,51.9535522 30.1977539,52.0317383 C30.185791,52.0082397 30.1721191,51.9860229 30.1550293,51.9646607 C29.8580932,51.5882568 29.7807617,51.0375366 29.9627685,50.5940552 C29.972168,50.5718384 29.9781495,50.5491943 29.9828491,50.5265503 C31.6820068,50.3996582 33.3773193,50.2467042 35.0657958,50.0655518 Z M32.2891236,46.5514526 C32.0212402,47.5418091 32.1088257,48.6547852 32.654419,49.5280762 C26.2316284,50.1206665 19.7306518,50.3206177 13.2894897,50.1228027 C13.2958984,49.5071411 13.3027344,48.8914794 13.3091431,48.2758178 C13.3138427,47.8558349 13.3860474,47.449524 13.3753662,47.0342407 C13.3604126,46.4707031 13.3343505,45.90802 13.340332,45.3444824 C13.340332,45.3406372 13.340332,45.3363647 13.340332,45.3325195 C13.340332,45.119751 13.1685792,44.9471435 12.9558105,44.9458618 C12.9468384,44.9454346 12.9374389,44.9462891 12.9284668,44.9467163 C12.7806396,44.9509888 11.0725098,44.9659424 10.3376465,44.972351 L9.92535403,44.975769 C9.85357669,44.9766236 9.78051758,44.9761963 9.70788569,44.975769 C8.9140625,44.9680786 7.91601562,45.1543579 7.81945806,46.1395874 C7.70153803,47.3388672 7.71948242,48.6094971 7.68487552,49.822876 C6.57659909,49.7147827 5.69390872,49.5169677 4.84240728,48.977356 C3.46881106,48.1062012 3.10736081,46.5753784 3.56024167,45.6567993 C4.17675781,44.4075318 5.92205808,44.1400757 7.37341303,44.0465088 C15.0206909,43.5543213 22.7683716,43.6495971 30.4015503,44.3293457 C31.2667237,44.40625 32.350647,44.5028076 33.4260254,44.3895874 C32.8509521,45.1300049 32.4835206,45.831543 32.2891236,46.5514526 Z M36.3629151,42.0555419 C36.361206,42.0555419 36.3599243,42.0546875 36.3582154,42.0546875 C34.0421143,41.8098755 31.7174682,41.6124878 29.3872681,41.4616699 C29.3945313,41.4163818 29.3949585,41.3693848 29.3851318,41.3219604 C29.2073974,40.4546509 29.617981,39.4766846 30.3613892,38.9964599 C30.9761963,38.5995483 31.7196044,38.548706 32.2344361,38.5777588 C32.927002,38.6153565 33.6264038,38.8041992 34.3031616,38.9870605 C34.4441529,39.0250854 34.5949707,38.9802246 34.6923828,38.8712768 C34.7893677,38.7623292 34.8171387,38.607666 34.7637329,38.4718018 C34.395874,37.539978 34.5001221,36.4351197 35.0354615,35.5878906 C35.5272216,34.8094482 36.373169,34.2672729 37.2827759,34.1318359 L37.2622681,37.6096191 C37.2528686,39.2276001 37.1669922,40.883606 36.3629151,42.0555419 Z" id="Shape" fill="#000000"></path>
                    </g>
                </g>
            </g>
        </g>
    </g>
</svg>