<?xml version="1.0" encoding="UTF-8"?>
<svg width="40px" height="40px" viewBox="0 0 40 40" version="1.1" xmlns="http://www.w3.org/2000/svg" xmlns:xlink="http://www.w3.org/1999/xlink">
    <title></title>
    <g id="My-Lessons" stroke="none" stroke-width="1" fill="none" fill-rule="evenodd">
        <g id="B-05.4-FullScheduleFilter" transform="translate(-17.000000, -665.000000)" fill-rule="nonzero">
            <g id="Elements/Highlight/Expanded-Copy-9" transform="translate(17.000000, 665.000000)">
                <g id="Elements/Graphics/Style3/Photos/Black" transform="translate(8.000000, 8.000000)">
                    <g id="summary" transform="translate(12.000000, 12.000000) rotate(-10.000000) translate(-12.000000, -12.000000) translate(3.750000, 2.250000)">
                        <polygon id="Path" fill="#424A60" points="10.9267241 0.672413793 9.58189655 0.672413793 9.58189655 1.68103448 6.55603448 1.68103448 6.55603448 0.672413793 5.2112069 0.672413793 0.168103448 0.672413793 0.168103448 19.5 15.9698276 19.5 15.9698276 0.672413793"></polygon>
                        <rect id="Rectangle" fill="#303644" x="6.55603448" y="0" width="3.02586207" height="1.68103448"></rect>
                        <polygon id="Path" fill="#EDEADA" points="11.9353448 1.68103448 11.9353448 2.68965517 4.20258621 2.68965517 4.20258621 1.68103448 1.17672414 1.68103448 1.17672414 18.4913793 14.9612069 18.4913793 14.9612069 1.68103448"></polygon>
                        <polygon id="Path" fill="#7383BF" points="9.58189655 0.672413793 9.58189655 1.68103448 6.55603448 1.68103448 6.55603448 0.672413793 4.20258621 0.672413793 4.20258621 2.68965517 11.9353448 2.68965517 11.9353448 0.672413793"></polygon>
                        <path d="M7.56465517,5.37931034 L3.19396552,5.37931034 C3.0080431,5.37931034 2.85775862,5.22902586 2.85775862,5.04310345 C2.85775862,4.85718103 3.0080431,4.70689655 3.19396552,4.70689655 L7.56465517,4.70689655 C7.75057759,4.70689655 7.90086207,4.85718103 7.90086207,5.04310345 C7.90086207,5.22902586 7.75057759,5.37931034 7.56465517,5.37931034 Z" id="Path" fill="#CEC9AE"></path>
                        <path d="M7.56465517,15.8017241 L3.19396552,15.8017241 C3.0080431,15.8017241 2.85775862,15.6514397 2.85775862,15.4655172 C2.85775862,15.2795948 3.0080431,15.1293103 3.19396552,15.1293103 L7.56465517,15.1293103 C7.75057759,15.1293103 7.90086207,15.2795948 7.90086207,15.4655172 C7.90086207,15.6514397 7.75057759,15.8017241 7.56465517,15.8017241 Z" id="Path" fill="#CEC9AE"></path>
                        <path d="M12.9439655,7.39655172 L3.19396552,7.39655172 C3.0080431,7.39655172 2.85775862,7.24626724 2.85775862,7.06034483 C2.85775862,6.87442241 3.0080431,6.72413793 3.19396552,6.72413793 L12.9439655,6.72413793 C13.1298879,6.72413793 13.2801724,6.87442241 13.2801724,7.06034483 C13.2801724,7.24626724 13.1298879,7.39655172 12.9439655,7.39655172 Z" id="Path" fill="#CEC9AE"></path>
                        <path d="M12.9439655,11.4310345 L3.19396552,11.4310345 C3.0080431,11.4310345 2.85775862,11.28075 2.85775862,11.0948276 C2.85775862,10.9089052 3.0080431,10.7586207 3.19396552,10.7586207 L12.9439655,10.7586207 C13.1298879,10.7586207 13.2801724,10.9089052 13.2801724,11.0948276 C13.2801724,11.28075 13.1298879,11.4310345 12.9439655,11.4310345 Z" id="Path" fill="#CEC9AE"></path>
                        <path d="M12.9439655,13.7844828 L3.19396552,13.7844828 C3.0080431,13.7844828 2.85775862,13.6341983 2.85775862,13.4482759 C2.85775862,13.2623534 3.0080431,13.112069 3.19396552,13.112069 L12.9439655,13.112069 C13.1298879,13.112069 13.2801724,13.2623534 13.2801724,13.4482759 C13.2801724,13.6341983 13.1298879,13.7844828 12.9439655,13.7844828 Z" id="Path" fill="#CEC9AE"></path>
                        <path d="M7.90086207,9.4137931 L3.19396552,9.4137931 C3.0080431,9.4137931 2.85775862,9.26350862 2.85775862,9.07758621 C2.85775862,8.89166379 3.0080431,8.74137931 3.19396552,8.74137931 L7.90086207,8.74137931 C8.08678448,8.74137931 8.23706897,8.89166379 8.23706897,9.07758621 C8.23706897,9.26350862 8.08678448,9.4137931 7.90086207,9.4137931 Z" id="Path" fill="#CEC9AE"></path>
                        <path d="M12.9439655,9.4137931 L10.5905172,9.4137931 C10.4045948,9.4137931 10.2543103,9.26350862 10.2543103,9.07758621 C10.2543103,8.89166379 10.4045948,8.74137931 10.5905172,8.74137931 L12.9439655,8.74137931 C13.1298879,8.74137931 13.2801724,8.89166379 13.2801724,9.07758621 C13.2801724,9.26350862 13.1298879,9.4137931 12.9439655,9.4137931 Z" id="Path" fill="#CEC9AE"></path>
                        <path d="M9.24568966,9.4137931 C9.15457759,9.4137931 9.07052586,9.37983621 9.00698276,9.3162931 C8.94612931,9.25241379 8.90948276,9.165 8.90948276,9.07758621 C8.90948276,8.98647414 8.94310345,8.90242241 9.00698276,8.83887931 C9.13474138,8.71112069 9.35663793,8.71448276 9.48439655,8.83887931 C9.54793966,8.90242241 9.58189655,8.98647414 9.58189655,9.07758621 C9.58189655,9.16836207 9.54491379,9.25241379 9.48439655,9.3162931 C9.42051724,9.37681034 9.33646552,9.4137931 9.24568966,9.4137931 Z" id="Path" fill="#CEC9AE"></path>
                    </g>
                </g>
            </g>
        </g>
    </g>
</svg>