<?xml version="1.0" encoding="UTF-8"?>
<svg width="24px" height="24px" viewBox="0 0 24 24" version="1.1" xmlns="http://www.w3.org/2000/svg" xmlns:xlink="http://www.w3.org/1999/xlink">
    <title>08434B0C-1C73-466B-B5F7-2110B0CA3C51</title>
    <g id="A:-My-Lessons" stroke="none" stroke-width="1" fill="none" fill-rule="evenodd">
        <g id="A-01-Plans" transform="translate(-561.000000, -392.000000)" fill="#FFC107" fill-rule="nonzero">
            <g id="Secondary-Record-1" transform="translate(438.000000, 345.000000)">
                <g id="StarSmall/Colour" transform="translate(123.000000, 47.000000)">
                    <path d="M17.9686949,10.534656 C17.8901408,10.2811012 17.6746206,10.1010143 17.4196402,10.0770345 L13.9561186,9.7488655 L12.586549,6.40383419 C12.485564,6.15868668 12.2555781,6 12.0000484,6 C11.7445186,6 11.5145328,6.15868668 11.4135477,6.40440743 L10.0439781,9.7488655 L6.57990718,10.0770345 C6.32538456,10.1015875 6.11041369,10.2811012 6.03140181,10.534656 C5.95238994,10.7882107 6.02535918,11.0663185 6.21789912,11.2416286 L8.83591127,13.6375014 L8.06392042,17.1860261 C8.00743106,17.4469373 8.10447922,17.7166378 8.31194262,17.8731271 C8.42345649,17.9571995 8.55392221,18 8.68548658,18 C8.7989231,18 8.91144405,17.9680907 9.01242911,17.9050364 L12.0000484,16.0417814 L14.9865689,17.9050364 C15.2051105,18.0422273 15.4805991,18.029712 15.6876047,17.8731271 C15.8951597,17.71616 15.9921163,17.446364 15.9356269,17.1860261 L15.1636361,13.6375014 L17.7816482,11.2421063 C17.9741882,11.0663185 18.0477068,10.7886884 17.9686949,10.534656 Z" id="Path"></path>
                </g>
            </g>
        </g>
    </g>
</svg>