<?xml version="1.0" encoding="UTF-8"?>
<svg width="24px" height="24px" viewBox="0 0 24 24" version="1.1" xmlns="http://www.w3.org/2000/svg" xmlns:xlink="http://www.w3.org/1999/xlink">
    <title>2A8A2289-8036-42C2-8BF8-074AA7F1ED6E</title>
    <defs>
        <filter id="filter-1">
            <feColorMatrix in="SourceGraphic" type="matrix" values="0 0 0 0 0.070588 0 0 0 0 0.407843 0 0 0 0 0.701961 0 0 0 1.000000 0"></feColorMatrix>
        </filter>
    </defs>
    <g id="Lesson-Completion-&amp;-Notes---Jira" stroke="none" stroke-width="1" fill="none" fill-rule="evenodd">
        <g id="AFS-1483-01" transform="translate(-106.000000, -449.000000)">
            <g id="Secondary-Button" transform="translate(90.000000, 439.000000)">
                <g id="Elements/Graphics/Style3/Help&amp;Support/Colour" transform="translate(16.000000, 9.000000)">
                    <g id="notepad-1" transform="translate(0.000000, 0.400000)" filter="url(#filter-1)">
                        <g transform="translate(11.948571, 12.600000) rotate(-10.000000) translate(-11.948571, -12.600000) translate(3.000000, 1.800000)">
                            <path d="M13.14,0.72 L10.98,0.72 L10.98,0.36 C10.98,0.16092 10.81908,-1.79615459e-11 10.62,-1.79615459e-11 L7.38,-1.79615459e-11 C7.18092,-1.79615459e-11 7.02,0.16092 7.02,0.36 L7.02,0.72 L4.86,0.72 L0.18,0.72 L0.18,21.6 L17.82,21.6 L17.82,0.72 L13.14,0.72 Z M17.1,13.89096 L16.74,14.25096 L16.74,1.8 L13.5,1.8 L13.5,1.44 L17.1,1.44 L17.1,13.89096 Z M11.19096,19.8 L1.98,19.8 L1.98,2.52 L4.5,2.52 L4.5,3.24 L4.5,3.6 L4.86,3.6 L13.14,3.6 L13.5,3.6 L13.5,3.24 L13.5,2.52 L16.02,2.52 L16.02,14.97096 L11.19096,19.8 Z M16.02,15.98904 L16.02,19.8 L12.20904,19.8 L16.02,15.98904 Z M10.26,0.72 L10.26,1.08 L10.26,1.8 L7.74,1.8 L7.74,1.08 L7.74,0.72 L10.26,0.72 Z M7.02,1.44 L7.02,2.16 L7.02,2.52 L7.38,2.52 L10.62,2.52 L10.98,2.52 L10.98,2.16 L10.98,1.44 L12.78,1.44 L12.78,1.8 L12.78,2.88 L5.22,2.88 L5.22,1.8 L5.22,1.44 L7.02,1.44 Z M0.9,1.44 L4.5,1.44 L4.5,1.8 L1.26,1.8 L1.26,20.52 L10.47096,20.52 L10.11096,20.88 L0.9,20.88 L0.9,1.44 Z M11.12904,20.88 L11.48904,20.52 L16.74,20.52 L16.74,15.26904 L17.1,14.90904 L17.1,20.88 L11.12904,20.88 Z" id="Shape" fill="#000000" fill-rule="nonzero"></path>
                            <path d="M4.14,6.48 L7.38,6.48 C7.57908,6.48 7.74,6.31908 7.74,6.12 C7.74,5.92092 7.57908,5.76 7.38,5.76 L4.14,5.76 C3.94092,5.76 3.78,5.92092 3.78,6.12 C3.78,6.31908 3.94092,6.48 4.14,6.48 Z" id="Path" fill="#000000" fill-rule="nonzero"></path>
                            <path d="M4.14,9.36 L5.94,9.36 C6.13908,9.36 6.3,9.19908 6.3,9 C6.3,8.80092 6.13908,8.64 5.94,8.64 L4.14,8.64 C3.94092,8.64 3.78,8.80092 3.78,9 C3.78,9.19908 3.94092,9.36 4.14,9.36 Z" id="Path" fill="#000000" fill-rule="nonzero"></path>
                            <path d="M12.06,8.64 L9.54,8.64 C9.34092,8.64 9.18,8.80092 9.18,9 C9.18,9.19908 9.34092,9.36 9.54,9.36 L12.06,9.36 C12.25908,9.36 12.42,9.19908 12.42,9 C12.42,8.80092 12.25908,8.64 12.06,8.64 Z" id="Path" fill="#000000" fill-rule="nonzero"></path>
                            <path d="M7.4844,8.7444 C7.416,8.81244 7.38,8.90244 7.38,9 C7.38,9.0972 7.41924,9.1872 7.4844,9.2556 C7.55244,9.3204 7.64244,9.36 7.74,9.36 C7.8372,9.36 7.9272,9.32364 7.9956,9.2556 C8.0604,9.1872 8.1,9.0936 8.1,9 C8.1,8.90604 8.0604,8.81244 7.9956,8.7444 C7.8588,8.6112 7.6212,8.6112 7.4844,8.7444 Z" id="Path" fill="#000000" fill-rule="nonzero"></path>
                            <path d="M14.1156,8.7444 C13.9824,8.6112 13.7412,8.6112 13.6044,8.7444 C13.536,8.81244 13.5,8.90244 13.5,9 C13.5,9.0972 13.53924,9.1872 13.6044,9.2556 C13.67244,9.3204 13.76244,9.36 13.86,9.36 C13.9572,9.36 14.0472,9.3204 14.1156,9.2556 C14.1804,9.1872 14.22,9.0936 14.22,9 C14.22,8.90604 14.1804,8.81244 14.1156,8.7444 Z" id="Path" fill="#000000" fill-rule="nonzero"></path>
                            <path d="M8.46,11.52 L5.94,11.52 C5.74092,11.52 5.58,11.68092 5.58,11.88 C5.58,12.07908 5.74092,12.24 5.94,12.24 L8.46,12.24 C8.65908,12.24 8.82,12.07908 8.82,11.88 C8.82,11.68092 8.65908,11.52 8.46,11.52 Z" id="Path" fill="#000000" fill-rule="nonzero"></path>
                            <path d="M4.14,12.24 C4.2372,12.24 4.3272,12.2004 4.3956,12.1356 C4.4604,12.0672 4.5,11.9736 4.5,11.88 C4.5,11.78604 4.4604,11.69244 4.3956,11.6244 C4.2624,11.4912 4.0176,11.4912 3.8844,11.6244 C3.81924,11.69244 3.78,11.78244 3.78,11.88 C3.78,11.9772 3.81924,12.0672 3.8844,12.1356 C3.95244,12.2004 4.04244,12.24 4.14,12.24 Z" id="Path" fill="#000000" fill-rule="nonzero"></path>
                            <path d="M5.2722,14.81976 C4.4838,15.23016 4.21848,16.01532 4.12164,16.82928 C3.9726,16.70436 3.82356,16.5798 3.67452,16.45488 C3.32172,16.15932 2.8098,16.66584 3.16548,16.96428 C3.50208,17.24616 3.83904,17.5284 4.17564,17.81064 C4.41252,18.009 4.77936,17.88372 4.79016,17.55612 C4.81644,16.77636 4.85316,15.849 5.63544,15.44184 C6.04656,15.22764 5.68296,14.60592 5.2722,14.81976 Z" id="Path" fill="#000000" fill-rule="nonzero"></path>
                            <path d="M7.6662,16.2558 C7.1676,16.37136 6.60024,17.00568 6.24924,16.29396 C6.0444,15.87852 5.42304,16.24284 5.62752,16.6572 C5.81364,17.03484 6.16752,17.29944 6.58836,17.35272 C6.8022,17.37972 6.99552,17.34948 7.19604,17.27136 C7.34328,17.21412 7.89336,16.80048 8.01216,17.01324 C8.23824,17.41788 8.86032,17.055 8.63388,16.65 C8.44056,16.30368 8.04924,16.16688 7.6662,16.2558 Z" id="Path" fill="#000000" fill-rule="nonzero"></path>
                        </g>
                    </g>
                </g>
            </g>
        </g>
    </g>
</svg>