<?xml version="1.0" encoding="UTF-8"?>
<svg width="25px" height="24px" viewBox="0 0 25 24" version="1.1" xmlns="http://www.w3.org/2000/svg" xmlns:xlink="http://www.w3.org/1999/xlink">
    <title></title>
    <g id="SETTINGS" stroke="none" stroke-width="1" fill="none" fill-rule="evenodd">
        <g id="F-02-ClickonActiveProfile" transform="translate(-355.000000, -548.000000)" fill="#1268B3" fill-rule="nonzero">
            <g id="Compounds/SideColumn/Modal" transform="translate(333.000000, 110.000000)">
                <g id="Group-2" transform="translate(0.000000, 60.000000)">
                    <g id="Elements/CTAs/Secondary/Default/Centre" transform="translate(18.500000, 375.000000)">
                        <g id="Shape" transform="translate(4.000000, 3.000000)">
                            <path d="M18.3331584,5.66668326 C17.4437406,4.77777225 15.9971063,4.77777225 15.1076885,5.66668326 L5.96974414,14.8046276 C5.96543642,14.8089354 5.96290246,14.8142567 5.95910153,14.8188178 C5.95378023,14.8248993 5.94921911,14.8314875 5.9444046,14.8380758 C5.93097464,14.8568271 5.92058543,14.8768453 5.91273018,14.8986373 C5.91044962,14.9052256 5.90715548,14.9110537 5.90538171,14.917642 C5.90462152,14.9201759 5.90310115,14.9227099 5.90234097,14.9252438 L5.00658828,18.6881653 C5.00253395,18.7051428 5.00152037,18.7223737 5.00101358,18.7393512 C5.00101358,18.7426453 5,18.7456861 5,18.7489802 C5.0002534,18.7778673 5.00658828,18.8059942 5.0164707,18.8331075 C5.01875126,18.8394423 5.02128521,18.845017 5.02407256,18.8510985 C5.03648894,18.8782118 5.05194605,18.9043116 5.07373806,18.9261036 C5.09781062,18.9501761 5.1261909,18.968674 5.15685174,18.9813438 C5.18751258,18.9940135 5.22020059,19.0003484 5.25288859,19.0003484 C5.27240004,19.0003484 5.29216488,18.9980679 5.31142293,18.9935067 L9.0743444,18.0977541 C9.08118607,18.0962337 9.08726756,18.0924328 9.09385584,18.0901522 C9.10247128,18.0873648 9.11057994,18.0840707 9.11894198,18.0802698 C9.13718645,18.0719077 9.15416394,18.0615185 9.16987446,18.0491021 C9.17595594,18.0442876 9.18229083,18.0407401 9.18811892,18.0354188 C9.19014609,18.0333916 9.19268004,18.032378 9.1947072,18.0303509 L18.332905,8.89215311 C19.2223228,8.00273531 19.2223228,6.55584766 18.3331584,5.66668326 Z M17.9748573,6.02498433 C18.605305,6.65568545 18.6590248,7.64595461 18.1395643,8.34025796 L15.6595837,5.86027733 C16.3541404,5.34081679 17.3444096,5.39453661 17.9748573,6.02498433 Z M16.7205501,9.7879058 L14.2119358,7.27929149 L14.5702369,6.92099041 L17.0788512,9.42960472 L16.7205501,9.7879058 Z M6.2570945,17.7427471 C6.15801691,17.6436695 5.99787103,17.6436695 5.89879343,17.7427471 L5.70697312,17.9345674 L6.35414494,15.2161417 L7.47465933,15.0917246 L7.33047736,16.3896158 C7.32946377,16.3992448 7.33301131,16.4081136 7.33301131,16.4174893 C7.33301131,16.4271183 7.32946377,16.4357337 7.33047736,16.4453627 C7.33149094,16.4537248 7.33579866,16.4605665 7.33757243,16.4686751 C7.34061317,16.4833721 7.34492089,16.496802 7.3502422,16.5104854 C7.35683048,16.5269561 7.36468573,16.5419064 7.37431476,16.5563499 C7.38217001,16.5680061 7.39002527,16.5783953 7.3996543,16.5885311 C7.41181727,16.6014543 7.42499383,16.6123503 7.43943737,16.6224861 C7.45084016,16.6303414 7.46173617,16.6376898 7.47440593,16.6437713 C7.49113003,16.6516266 7.50861431,16.6561877 7.52685878,16.6604954 C7.5364878,16.662776 7.54434306,16.6680973 7.55422548,16.6693643 C7.56334771,16.6703779 7.57246995,16.6708846 7.58184558,16.6708846 C7.58184558,16.6708846 7.58209897,16.6708846 7.58209897,16.6708846 C7.58209897,16.6708846 7.58235237,16.6708846 7.58235237,16.6708846 L7.58260576,16.6708846 C7.58260576,16.6708846 7.58285916,16.6708846 7.58285916,16.6708846 C7.59198139,16.6708846 7.60135702,16.6703779 7.61047926,16.6693643 L8.90837042,16.5251823 L8.78395328,17.6456967 L6.0652742,18.2928685 L6.2570945,18.1010482 C6.35591871,18.002224 6.35591871,17.8418247 6.2570945,17.7427471 Z M9.43720659,16.3543938 L15.1076885,10.6836585 C15.2067661,10.5845809 15.2067661,10.424435 15.1076885,10.3253574 C15.0086109,10.2262798 14.848465,10.2262798 14.7493874,10.3253574 L9.07890551,15.9960927 L7.86944934,16.1303923 L8.00374889,14.9209361 L13.6747376,9.25045419 C13.7738152,9.15137659 13.7738152,8.99123071 13.6747376,8.89215311 C13.57566,8.79307552 13.4155141,8.79307552 13.3164365,8.89215311 L7.64544782,14.562635 L6.83889031,14.652337 L13.8536348,7.63759256 L16.3622491,10.1462069 L9.34750462,17.1609513 L9.43720659,16.3543938 Z M17.4371523,9.07130365 L14.928538,6.56268934 L15.2870924,6.20413487 L17.7957068,8.71274918 L17.4371523,9.07130365 Z"></path>
                        </g>
                    </g>
                </g>
            </g>
        </g>
    </g>
</svg>