<?xml version="1.0" encoding="UTF-8"?>
<svg width="24px" height="24px" viewBox="0 0 24 24" version="1.1" xmlns="http://www.w3.org/2000/svg" xmlns:xlink="http://www.w3.org/1999/xlink">
    <title>AllStatus/Colour-PDF </title>
    <g id="Symbols" stroke="none" stroke-width="1" fill="none" fill-rule="evenodd">
        <g id="AllStatus/Colour" transform="translate(3.000000, 3.000000)">
            <path d="M9,0 C4.03753846,0 0,4.03719231 0,9 C0,13.9628077 4.03753846,18 9,18 C13.9624615,18 18,13.9628077 18,9 C18,4.03719231 13.9624615,0 9,0 Z" id="Shape" fill="#02B55C"></path>
            <path d="M9,1.3 C11.1228682,1.3 13.0478247,2.16366569 14.4420976,3.55793858 C15.8363215,4.95216251 16.7,6.87705855 16.7,9 C16.7,11.1229415 15.8363215,13.0478375 14.4420976,14.4420614 C13.0478247,15.8363343 11.1228682,16.7 9,16.7 C6.87713184,16.7 4.9521753,15.8363343 3.55790241,14.4420614 C2.16367848,13.0478375 1.3,11.1229415 1.3,9 C1.3,6.87705855 2.16367848,4.95216251 3.55790241,3.55793858 C4.9521753,2.16366569 6.87713184,1.3 9,1.3 Z" id="Shape-Copy" stroke="#FFFFFF" stroke-width="0.6"></path>
        </g>
    </g>
</svg>