<?xml version="1.0" encoding="UTF-8"?>
<svg width="24px" height="24px" viewBox="0 0 24 24" version="1.1" xmlns="http://www.w3.org/2000/svg" xmlns:xlink="http://www.w3.org/1999/xlink">
    <title>60C6C96B-ADE6-4E5B-BA7B-15C1EE9AD8AD</title>
    <g id="Page-2" stroke="none" stroke-width="1" fill="none" fill-rule="evenodd">
        <g id="Icons" transform="translate(-366.000000, -2669.000000)">
            <g id="Redo/Colour" transform="translate(366.000000, 2669.000000)">
                <circle id="Oval" fill="#989898" cx="12" cy="12" r="6"></circle>
                <path d="M15.6577806,11.7159091 C15.4695987,11.7159091 15.3168715,11.8682955 15.3168715,12.0568182 C15.3168715,13.74875 13.9402806,15.125 12.2486897,15.125 C10.5570987,15.125 9.18050784,13.74875 9.18050784,12.0568182 C9.18050784,10.3648864 10.5570987,8.98863636 12.2486897,8.98863636 C13.2714169,8.98863636 14.1840306,9.50204545 14.741076,10.3522727 L12.5895987,10.3522727 C12.4014169,10.3522727 12.2486897,10.5046591 12.2486897,10.6931818 C12.2486897,10.8817045 12.4014169,11.0340909 12.5895987,11.0340909 L15.3168715,11.0340909 C15.3175533,11.0340909 15.3178942,11.03375 15.318576,11.03375 C15.3424397,11.03375 15.3663033,11.0245455 15.3901669,11.0194318 C15.4106215,11.0146591 15.4327806,11.0143182 15.4518715,11.0061364 C15.4525533,11.0057955 15.4532351,11.0061364 15.453576,11.0057955 C15.4651669,11.0006818 15.4726669,10.9911364 15.4832351,10.985 C15.5108487,10.9693182 15.5384624,10.9532955 15.5606215,10.9307955 C15.5756215,10.9151136 15.5844851,10.8956818 15.596076,10.8779545 C15.6083487,10.8592045 15.6233487,10.8425 15.6318715,10.8213636 C15.6434624,10.7927273 15.6465306,10.7617045 15.6502806,10.7310227 C15.6516442,10.7177273 15.6577806,10.7064773 15.6577806,10.6931818 L15.6577806,10.6894318 L15.6577806,10.68875 L15.6577806,7.96590909 C15.6577806,7.77738636 15.5050533,7.625 15.3168715,7.625 C15.1286897,7.625 14.9759624,7.77738636 14.9759624,7.96590909 L14.9759624,9.53409091 C14.2893715,8.75954545 13.3177806,8.30681818 12.2486897,8.30681818 C10.181076,8.30681818 8.49868966,9.98920455 8.49868966,12.0568182 C8.49868966,14.1244318 10.181076,15.8068182 12.2486897,15.8068182 C14.3163033,15.8068182 15.9986897,14.1244318 15.9986897,12.0568182 C15.9986897,11.8682955 15.8459624,11.7159091 15.6577806,11.7159091 Z" id="Path" fill="#FFFFFF" fill-rule="nonzero" transform="translate(12.248690, 11.715909) rotate(100.000000) translate(-12.248690, -11.715909) "></path>
            </g>
        </g>
    </g>
</svg>