<?xml version="1.0" encoding="UTF-8"?>
<svg width="24px" height="24px" viewBox="0 0 24 24" version="1.1" xmlns="http://www.w3.org/2000/svg" xmlns:xlink="http://www.w3.org/1999/xlink">
    <title>450B3892-7A8A-4DB6-BDF9-68E5D170A8D6</title>
    <defs>
        <filter id="filter-1">
            <feColorMatrix in="SourceGraphic" type="matrix" values="0 0 0 0 0.070588 0 0 0 0 0.407843 0 0 0 0 0.701961 0 0 0 1.000000 0"></feColorMatrix>
        </filter>
    </defs>
    <g id="Continue-&amp;-Skip-Flow" stroke="none" stroke-width="1" fill="none" fill-rule="evenodd">
        <g id="A-2.1" transform="translate(-1024.000000, -72.000000)">
            <g id="Timer" transform="translate(0.000000, 64.000000)">
                <g id="Elements/CTAs/Secondary/WhiteOpacity/Icon" transform="translate(956.000000, 5.000000)">
                    <g id="Group" transform="translate(9.000000, 3.000000)">
                        <g id="Elements/Graphics/Style3/Skip" transform="translate(59.000000, 0.000000)">
                            <circle id="Oval" cx="12" cy="12" r="12"></circle>
                            <g filter="url(#filter-1)" id="Group-2">
                                <g transform="translate(5.000000, 6.000000)">
                                    <path d="M8.38275862,5.75485705 L0.934482759,0.0548178513 C0.850068966,-0.00998259433 0.740551724,-0.017782648 0.648689655,0.0338177069 C0.55737931,0.0851180597 0.5,0.188018767 0.5,0.299919537 L0.5,5.63305621 L0.5,6.36686126 L0.5,11.6999979 C0.5,11.8118987 0.55737931,11.9147994 0.648689655,11.9663998 C0.688965517,11.9888999 0.732551724,12 0.775862069,12 C0.831586207,12 0.887310345,11.9813999 0.934482759,11.9450996 L8.38275862,6.24506042 C8.45641379,6.18926004 8.5,6.09745941 8.5,5.99995874 C8.5,5.90245807 8.45641379,5.81065744 8.38275862,5.75485705 Z" id="Shape" fill="#000000" fill-rule="nonzero"></path>
                                    <path d="M15.8827586,5.75485705 L8.43448276,0.0548178513 C8.35006897,-0.00998259433 8.24055172,-0.017782648 8.14868966,0.0338177069 C8.05737931,0.0851180597 8,0.188018767 8,0.299919537 L8,5.63305621 L8,6.36686126 L8,11.6999979 C8,11.8118987 8.05737931,11.9147994 8.14868966,11.9663998 C8.18896552,11.9888999 8.23255172,12 8.27586207,12 C8.33158621,12 8.38731034,11.9813999 8.43448276,11.9450996 L15.8827586,6.24506042 C15.9564138,6.18926004 16,6.09745941 16,5.99995874 C16,5.90245807 15.9564138,5.81065744 15.8827586,5.75485705 Z" id="Shape" fill="#000000" fill-rule="nonzero"></path>
                                </g>
                            </g>
                        </g>
                    </g>
                </g>
            </g>
        </g>
    </g>
</svg>