<?xml version="1.0" encoding="UTF-8"?>
<svg xmlns="http://www.w3.org/2000/svg" xmlns:xlink="http://www.w3.org/1999/xlink" width="40px" height="40px" viewBox="0 0 40 40" version="1.1">
    <defs>
        <rect id="path-1" x="0" y="0" width="614" height="590" rx="20"/>
        <filter x="-1.1%" y="-0.8%" width="102.3%" height="102.4%" filterUnits="objectBoundingBox" id="filter-2">
            <feOffset dx="0" dy="2" in="SourceAlpha" result="shadowOffsetOuter1"/>
            <feGaussianBlur stdDeviation="2" in="shadowOffsetOuter1" result="shadowBlurOuter1"/>
            <feColorMatrix values="0 0 0 0 0   0 0 0 0 0   0 0 0 0 0  0 0 0 0.5 0" type="matrix" in="shadowBlurOuter1"/>
        </filter>
    </defs>
    <g id="PROFILE-EDIT" stroke="none" stroke-width="1" fill="none" fill-rule="evenodd">
        <g id="F-02.4-Profile-Edit" transform="translate(-898.000000, -230.000000)">
            
            <g id="Screens/Modals/ProfileSettings">
                
                <g id="Title" transform="translate(543.000000, 200.000000)" fill="#1268B3">
                    <g id="Group" transform="translate(0.000000, 30.000000)">
                        <g id="Close-or-Edit" transform="translate(355.000000, 0.000000)">
                            <g id="Delete" transform="translate(5.000000, 5.000000)">
                                <circle id="Oval" fill-opacity="0.06" cx="15" cy="15" r="15"/>
                                <g id="Group" transform="translate(7.500000, 6.562500)" fill-rule="nonzero">
                                    <path d="M6.86440678,14.5868644 C7.02228814,14.5868644 7.15042373,14.4590148 7.15042373,14.3008475 L7.15042373,4.86228814 C7.15042373,4.70412076 7.02228814,4.57627119 6.86440678,4.57627119 C6.70652542,4.57627119 6.57838983,4.70412076 6.57838983,4.86228814 L6.57838983,14.3008475 C6.57838983,14.4590148 6.70652542,14.5868644 6.86440678,14.5868644 Z" id="Path"/>
                                    <path d="M4.00423729,14.5868644 C4.16211864,14.5868644 4.29025424,14.4590148 4.29025424,14.3008475 L4.29025424,4.86228814 C4.29025424,4.70412076 4.16211864,4.57627119 4.00423729,4.57627119 C3.84635593,4.57627119 3.71822034,4.70412076 3.71822034,4.86228814 L3.71822034,14.3008475 C3.71822034,14.4590148 3.84635593,14.5868644 4.00423729,14.5868644 Z" id="Path"/>
                                    <path d="M9.72457627,14.5868644 C9.88245763,14.5868644 10.0105932,14.4590148 10.0105932,14.3008475 L10.0105932,4.86228814 C10.0105932,4.70412076 9.88245763,4.57627119 9.72457627,4.57627119 C9.56669492,4.57627119 9.43855932,4.70412076 9.43855932,4.86228814 L9.43855932,14.3008475 C9.43855932,14.4590148 9.56669492,14.5868644 9.72457627,14.5868644 Z" id="Path"/>
                                    <path d="M13.4427966,1.71610169 L9.42597458,1.71610169 C9.39451271,1.35858051 9.28439619,0.75565678 8.90742585,0.368675847 C8.66888771,0.124131356 8.36628178,0 8.00818856,0 L5.14830508,0 C4.79021186,0 4.48760593,0.124131356 4.2490678,0.368675847 C3.87209746,0.75565678 3.76198093,1.35858051 3.73051907,1.71610169 L0.286016949,1.71610169 C0.128135593,1.71610169 1.48381307e-13,1.84395127 1.48381307e-13,2.00211864 C1.48381307e-13,2.16028602 0.128135593,2.28813559 0.286016949,2.28813559 L0.869777542,2.28813559 L1.4175,15.4509216 C1.42808263,15.9434428 1.7346928,16.875 2.82127119,16.875 L10.9075424,16.875 C11.9941208,16.875 12.3007309,15.9434428 12.3110275,15.456928 L12.859036,2.28813559 L13.4427966,2.28813559 C13.600678,2.28813559 13.7288136,2.16028602 13.7288136,2.00211864 C13.7288136,1.84395127 13.600678,1.71610169 13.4427966,1.71610169 Z M4.65978814,0.766811441 C4.78792373,0.635815678 4.9478072,0.572033898 5.14830508,0.572033898 L8.00818856,0.572033898 C8.20868644,0.572033898 8.36856992,0.635815678 8.49670551,0.766811441 C8.72694915,1.00220339 8.81933263,1.41635593 8.85136653,1.71610169 L4.30541314,1.71610169 C4.33744703,1.41635593 4.42983051,1.00220339 4.65978814,0.766811441 Z M11.7392797,15.4389089 C11.7375636,15.5272881 11.6980932,16.3029661 10.9075424,16.3029661 L2.82127119,16.3029661 C2.03930085,16.3029661 1.99239407,15.5258581 1.98924788,15.4329025 L1.44209746,2.28813559 L12.2864301,2.28813559 L11.7392797,15.4389089 Z" id="Shape"/>
                                </g>
                            </g>
                        </g>
                    </g>
                </g>
            </g>
        </g>
    </g>
</svg>