<?xml version="1.0" encoding="UTF-8"?>
<svg width="40px" height="40px" viewBox="0 0 40 40" version="1.1" xmlns="http://www.w3.org/2000/svg" xmlns:xlink="http://www.w3.org/1999/xlink">
    <title>216B99E7-E44C-4DFF-A254-25C41F2BD3FA</title>
    <g id="Page-2" stroke="none" stroke-width="1" fill="none" fill-rule="evenodd" opacity="0.8">
        <g id="Icons" transform="translate(-840.000000, -729.000000)" fill-rule="nonzero">
            <g id="LESSONS" transform="translate(40.000000, 430.000000)">
                <g id="Elements/Icons/LessonTypes/Big-Idea/EVS" transform="translate(800.000000, 299.000000)">
                    <g id="edit" transform="translate(7.000000, 7.000000)">
                        <path d="M17.8221875,25.1875 C17.8763542,25.1875 17.9190104,25.1719271 17.9501562,25.1407813 C17.9813021,25.1096354 18.0104167,25.0751042 18.0375,25.0371875 L18.0375,25.0371875 L18.99625,23.635625 C19.0341667,23.5733333 19.0626042,23.5029167 19.0815625,23.424375 L19.0815625,23.424375 L20.1175,25.0371875 C20.1391667,25.0751042 20.1669271,25.1096354 20.2007812,25.1407813 C20.2346354,25.1719271 20.2813542,25.1875 20.3409375,25.1875 L20.3409375,25.1875 L21.035625,25.1875 L19.5934375,23.0384375 L20.97875,21.0721875 L20.3125,21.0721875 C20.271875,21.0721875 20.2380208,21.0836979 20.2109375,21.1067188 C20.1838542,21.1297396 20.1567708,21.1602083 20.1296875,21.198125 L20.1296875,21.198125 L19.2440625,22.498125 C19.1980208,22.5739583 19.1628125,22.6497917 19.1384375,22.725625 L19.1384375,22.725625 L18.1309375,21.181875 C18.1092708,21.1466667 18.0848958,21.1195833 18.0578125,21.100625 C18.0307292,21.0816667 17.9873958,21.0721875 17.9278125,21.0721875 L17.9278125,21.0721875 L17.233125,21.0721875 L18.6184375,23.0790625 L17.17625,25.1875 L17.8221875,25.1875 Z M23.5665625,25.2525 C23.8346875,25.2525 24.0858854,25.2125521 24.3201562,25.1326563 C24.5544271,25.0527604 24.7595833,24.9376563 24.935625,24.7873438 C25.1116667,24.6370313 25.2504687,24.4548958 25.3520312,24.2409375 C25.4535937,24.0269792 25.504375,23.7859375 25.504375,23.5178125 C25.504375,23.1630208 25.4089062,22.8678125 25.2179687,22.6321875 C25.0270312,22.3965625 24.7419792,22.2286458 24.3628125,22.1284375 C24.5171875,22.0823958 24.6566667,22.0214583 24.78125,21.945625 C24.9058333,21.8697917 25.0121354,21.7770313 25.1001562,21.6673438 C25.1881771,21.5576563 25.2558854,21.4303646 25.3032812,21.2854688 C25.3506771,21.1405729 25.374375,20.9760417 25.374375,20.791875 C25.374375,20.5670833 25.3323958,20.3626042 25.2484375,20.1784375 C25.1644792,19.9942708 25.0473437,19.8371875 24.8970312,19.7071875 C24.7467187,19.5771875 24.5672917,19.4769792 24.35875,19.4065625 C24.1502083,19.3361458 23.9227083,19.3009375 23.67625,19.3009375 C23.4270833,19.3009375 23.1948437,19.3368229 22.9795312,19.4085938 C22.7642187,19.4803646 22.5732812,19.5853125 22.4067187,19.7234375 C22.2401562,19.8615625 22.1027083,20.0328646 21.994375,20.2373438 C21.8860417,20.4418229 21.8129167,20.6767708 21.775,20.9421875 L21.775,20.9421875 L22.1528125,21.0071875 C22.1717708,21.0098958 22.1886979,21.0119271 22.2035937,21.0132813 C22.2184896,21.0146354 22.2327083,21.0153125 22.24625,21.0153125 C22.3139583,21.0153125 22.3694792,20.9977083 22.4128125,20.9625 C22.4561458,20.9272917 22.4886458,20.8704167 22.5103125,20.791875 C22.5428125,20.6672917 22.5915625,20.5515104 22.6565625,20.4445313 C22.7215625,20.3375521 22.8021354,20.2454688 22.8982812,20.1682813 C22.9944271,20.0910938 23.1047917,20.0308333 23.229375,19.9875 C23.3539583,19.9441667 23.489375,19.9225 23.635625,19.9225 C23.781875,19.9225 23.9179687,19.9428125 24.0439062,19.9834375 C24.1698437,20.0240625 24.2788542,20.085 24.3709375,20.16625 C24.4630208,20.2475 24.5354687,20.3504167 24.5882812,20.475 C24.6410937,20.5995833 24.6675,20.7458333 24.6675,20.91375 C24.6675,21.0654167 24.6424479,21.2035417 24.5923437,21.328125 C24.5422396,21.4527083 24.4616667,21.5596875 24.350625,21.6490625 C24.2395833,21.7384375 24.0967187,21.8088542 23.9220312,21.8603125 C23.7473437,21.9117708 23.5367708,21.9388542 23.2903125,21.9415625 L23.2903125,21.9415625 L23.2903125,22.465625 C23.5936458,22.465625 23.8421354,22.4927083 24.0357812,22.546875 C24.2294271,22.6010417 24.3810937,22.6755208 24.4907812,22.7703125 C24.6004687,22.8651042 24.6763021,22.9775 24.7182812,23.1075 C24.7602604,23.2375 24.78125,23.3810417 24.78125,23.538125 C24.78125,23.6654167 24.7555208,23.7940625 24.7040625,23.9240625 C24.6526042,24.0540625 24.5760937,24.171875 24.4745312,24.2775 C24.3729687,24.383125 24.2456771,24.4691146 24.0926562,24.5354688 C23.9396354,24.6018229 23.7615625,24.635 23.5584375,24.635 C23.3553125,24.635 23.1853646,24.6052083 23.0485937,24.545625 C22.9118229,24.4860417 22.7973958,24.4129167 22.7053125,24.32625 C22.6132292,24.2395833 22.5401042,24.1468229 22.4859375,24.0479688 C22.4317708,23.9491146 22.3857292,23.8604167 22.3478125,23.781875 C22.3423958,23.7683333 22.3369792,23.7554688 22.3315625,23.7432813 C22.3261458,23.7310938 22.3207292,23.7195833 22.3153125,23.70875 C22.2936458,23.66 22.2618229,23.6241146 22.2198437,23.6010938 C22.1778646,23.5780729 22.1297917,23.5665625 22.075625,23.5665625 C22.01875,23.5665625 21.961875,23.57875 21.905,23.603125 L21.905,23.603125 L21.59625,23.733125 C21.6639583,23.9497917 21.7465625,24.1508854 21.8440625,24.3364063 C21.9415625,24.5219271 22.0661458,24.6823958 22.2178125,24.8178125 C22.3694792,24.9532292 22.555,25.0595313 22.774375,25.1367188 C22.99375,25.2139063 23.2578125,25.2525 23.5665625,25.2525 Z" id="x3" fill="#DF7B6F"></path>
                        <g id="pencil">
                            <path d="M19.0657037,1.12811111 C20.5698519,-0.376037037 23.009037,-0.376037037 24.5131852,1.12811111 C26.0173333,2.63225926 26.0173333,5.07144444 24.5131852,6.57559259 L19.0657037,1.12811111 Z" id="Path" fill="#D75A4A"></path>
                            <polygon id="Path" fill="#ED8A19" points="20.4273333 8.61803704 7.95022222 21.0956296 7.69503704 23.3937407 21.449037 9.63925926 21.449037 9.63925926"></polygon>
                            <polygon id="Path" fill="#ED8A19" points="4.9712963 20.67 7.26940741 20.4148148 19.7465185 7.93722222 17.7040741 5.89477778 5.22648148 18.3718889"></polygon>
                            <polygon id="Path" fill="#ED8A19" points="17.0232593 5.21396296 16.0015556 4.19225926 16.0015556 4.19225926 2.24755556 17.9462593 4.54566667 17.6910741"></polygon>
                            <polygon id="Path" fill="#C7CAC7" points="23.4914815 7.59681481 23.4914815 7.59681481 24.5131852 6.57559259 19.0657037 1.12811111 18.044 2.14981481 18.0444815 2.14981481"></polygon>
                            <polygon id="Path" fill="#C7CAC7" points="17.3631852 2.83062963 17.3631852 2.83062963 16.6823704 3.51144444 16.6823704 3.51144444 22.1298519 8.95844444 22.1298519 8.95844444 22.8106667 8.27762963 22.8106667 8.27762963"></polygon>
                            <path d="M6.94488889,21.4201481 L4.47874074,21.6941111 C4.46140741,21.696037 4.44359259,21.697 4.42625926,21.697 C4.42625926,21.697 4.42577778,21.697 4.42577778,21.697 L4.42577778,21.697 L4.42577778,21.697 C4.4252963,21.697 4.4252963,21.697 4.4252963,21.697 C4.40796296,21.697 4.39014815,21.696037 4.37281481,21.6941111 C4.35403704,21.6921852 4.33862963,21.6815926 4.32081481,21.6772593 C4.28614815,21.6690741 4.25292593,21.6604074 4.22114815,21.645 C4.19707407,21.6334444 4.17637037,21.6194815 4.1547037,21.6045556 C4.12725926,21.5852963 4.10222222,21.5645926 4.07911111,21.540037 C4.06081481,21.5207778 4.04588889,21.501037 4.03096296,21.4788889 C4.01266667,21.4514444 3.99774074,21.423037 3.98522222,21.3917407 C3.97462963,21.3657407 3.96692593,21.3402222 3.96114815,21.3122963 C3.95777778,21.2968889 3.94959259,21.2838889 3.94766667,21.268 C3.94574074,21.2497037 3.95248148,21.2328519 3.95248148,21.215037 C3.95248148,21.1967407 3.94574074,21.1803704 3.94766667,21.1620741 L4.22162963,18.6959259 L1.75548148,18.9698889 C1.73766667,18.9718148 1.71937037,18.9727778 1.70203704,18.9727778 C1.664,18.9727778 1.62885185,18.9612222 1.59274074,18.9525556 L0.212814815,24.7476667 L1.22681481,23.7336667 C1.41507407,23.5454074 1.71937037,23.5454074 1.90762963,23.7336667 C2.09588889,23.9219259 2.09588889,24.2262222 1.90762963,24.4144815 L0.89362963,25.4284815 L6.68585185,24.0495185 C6.67333333,23.997037 6.66514815,23.9426296 6.67140741,23.8862963 L6.94488889,21.4201481 Z" id="Path" fill="#FBCE9D"></path>
                            <path d="M1.90762963,23.7336667 C1.71937037,23.5454074 1.41507407,23.5454074 1.22681481,23.7336667 L0.212814815,24.7476667 L0,25.6412963 L0.89362963,25.4284815 L1.90762963,24.4144815 C2.09540741,24.2262222 2.09540741,23.9219259 1.90762963,23.7336667 Z" id="Path" fill="#38454F"></path>
                            <polygon id="Path" fill="#F2ECBF" points="23.4914815 7.59681481 18.0444815 2.14981481 18.044 2.14981481 17.3631852 2.83062963 17.3631852 2.83062963 22.8106667 8.27762963 22.8106667 8.27762963"></polygon>
                            <path d="M19.7465185,7.93722222 L7.26940741,20.4148148 L4.9712963,20.67 L5.22648148,18.3718889 L17.7040741,5.89477778 L17.0232593,5.21396296 L4.54566667,17.6910741 L2.24755556,17.9462593 L1.70203704,18.4917778 L1.59225926,18.9525556 C1.62837037,18.9612222 1.66303704,18.9727778 1.70155556,18.9727778 C1.71888889,18.9727778 1.73718519,18.9718148 1.755,18.9698889 L4.22114815,18.6959259 L3.94718519,21.1620741 C3.94525926,21.1803704 3.952,21.1972222 3.952,21.215037 C3.952,21.2333333 3.94525926,21.2497037 3.94718519,21.268 C3.94911111,21.2838889 3.9572963,21.2968889 3.96066667,21.3122963 C3.96644444,21.3397407 3.97462963,21.3662222 3.98474074,21.3917407 C3.99725926,21.4225556 4.01218519,21.4514444 4.03048148,21.4788889 C4.04492593,21.5005556 4.06081481,21.5212593 4.07862963,21.540037 C4.10125926,21.5641111 4.12677778,21.5852963 4.15422222,21.6045556 C4.17540741,21.6194815 4.19707407,21.6339259 4.22066667,21.645 C4.25196296,21.6599259 4.28566667,21.6690741 4.32033333,21.6772593 C4.33862963,21.6815926 4.35355556,21.6917037 4.37233333,21.6941111 C4.38966667,21.696037 4.407,21.697 4.42481481,21.697 L4.4252963,21.697 L4.4252963,21.697 L4.42577778,21.697 L4.42625926,21.697 C4.42625926,21.697 4.42674074,21.697 4.42674074,21.697 L4.42674074,21.697 C4.44359259,21.697 4.46140741,21.696037 4.47922222,21.6941111 L6.94537037,21.4201481 L6.67140741,23.8862963 C6.66514815,23.9431111 6.67333333,23.997037 6.68585185,24.0495185 L7.14951852,23.9392593 L7.69503704,23.3942222 L7.95022222,21.0961111 L20.4273333,8.61851852 L19.7465185,7.93722222 Z" id="Path" fill="#EBBA16"></path>
                            <polygon id="Path" fill="#F2ECBF" points="22.1298519 8.95844444 16.6823704 3.51144444 16.6823704 3.51144444 16.0015556 4.19225926 16.0015556 4.19225926 17.0232593 5.21396296 17.7040741 5.89477778 19.7465185 7.93722222 20.4273333 8.61803704 21.449037 9.63925926 21.449037 9.63925926"></polygon>
                        </g>
                    </g>
                </g>
            </g>
        </g>
    </g>
</svg>