<?xml version="1.0" encoding="UTF-8"?>
<svg width="40px" height="40px" viewBox="0 0 40 40" version="1.1" xmlns="http://www.w3.org/2000/svg" xmlns:xlink="http://www.w3.org/1999/xlink">
    <title>546506F3-7D44-46F6-BD62-477DBB39321D</title>
    <g id="Page-2" stroke="none" stroke-width="1" fill="none" fill-rule="evenodd">
        <g id="Icons" transform="translate(-840.000000, -649.000000)" fill-rule="nonzero">
            <g id="LESSONS" transform="translate(40.000000, 430.000000)">
                <g id="Elements/Icons/LessonTypes/Big-Idea/EVS" transform="translate(800.000000, 219.000000)">
                    <g id="edit" transform="translate(7.000000, 7.000000)">
                        <path d="M17.8221875,24.375 C17.8763542,24.375 17.9190104,24.3594271 17.9501562,24.3282813 C17.9813021,24.2971354 18.0104167,24.2626042 18.0375,24.2246875 L18.0375,24.2246875 L18.99625,22.823125 C19.0341667,22.7608333 19.0626042,22.6904167 19.0815625,22.611875 L19.0815625,22.611875 L20.1175,24.2246875 C20.1391667,24.2626042 20.1669271,24.2971354 20.2007812,24.3282813 C20.2346354,24.3594271 20.2813542,24.375 20.3409375,24.375 L20.3409375,24.375 L21.035625,24.375 L19.5934375,22.2259375 L20.97875,20.2596875 L20.3125,20.2596875 C20.271875,20.2596875 20.2380208,20.2711979 20.2109375,20.2942188 C20.1838542,20.3172396 20.1567708,20.3477083 20.1296875,20.385625 L20.1296875,20.385625 L19.2440625,21.685625 C19.1980208,21.7614583 19.1628125,21.8372917 19.1384375,21.913125 L19.1384375,21.913125 L18.1309375,20.369375 C18.1092708,20.3341667 18.0848958,20.3070833 18.0578125,20.288125 C18.0307292,20.2691667 17.9873958,20.2596875 17.9278125,20.2596875 L17.9278125,20.2596875 L17.233125,20.2596875 L18.6184375,22.2665625 L17.17625,24.375 L17.8221875,24.375 Z M25.46375,24.375 L25.46375,23.93625 C25.46375,23.863125 25.4407292,23.8035417 25.3946875,23.7575 C25.3486458,23.7114583 25.2863542,23.6884375 25.2078125,23.6884375 L25.2078125,23.6884375 L23.2578125,23.6884375 C23.1548958,23.6884375 23.0479167,23.6972396 22.936875,23.7148438 C22.8258333,23.7324479 22.7161458,23.7561458 22.6078125,23.7859375 L22.6078125,23.7859375 L24.139375,22.2178125 C24.301875,22.0526042 24.4555729,21.8907813 24.6004687,21.7323438 C24.7453646,21.5739063 24.8733333,21.4100521 24.984375,21.2407813 C25.0954167,21.0715104 25.1834375,20.8947917 25.2484375,20.710625 C25.3134375,20.5264583 25.3459375,20.3260417 25.3459375,20.109375 C25.3459375,19.8547917 25.30125,19.6272917 25.211875,19.426875 C25.1225,19.2264583 24.9999479,19.0565104 24.8442187,18.9170313 C24.6884896,18.7775521 24.5036458,18.67125 24.2896875,18.598125 C24.0757292,18.525 23.8455208,18.4884375 23.5990625,18.4884375 C23.3498958,18.4884375 23.1176562,18.5243229 22.9023437,18.5960938 C22.6870312,18.6678646 22.4960937,18.7728125 22.3295312,18.9109375 C22.1629687,19.0490625 22.0255208,19.2203646 21.9171875,19.4248438 C21.8088542,19.6293229 21.7357292,19.8642708 21.6978125,20.1296875 L21.6978125,20.1296875 L22.075625,20.1946875 C22.0945833,20.1973958 22.1115104,20.1994271 22.1264062,20.2007813 C22.1413021,20.2021354 22.1555208,20.2028125 22.1690625,20.2028125 C22.2394792,20.2028125 22.2963542,20.1852083 22.3396875,20.15 C22.3830208,20.1147917 22.4155208,20.0579167 22.4371875,19.979375 C22.4642708,19.8520833 22.5109896,19.735625 22.5773437,19.63 C22.6436979,19.524375 22.7249479,19.4329688 22.8210937,19.3557813 C22.9172396,19.2785938 23.0276042,19.2183333 23.1521875,19.175 C23.2767708,19.1316667 23.4121875,19.11 23.5584375,19.11 C23.7046875,19.11 23.8414583,19.1309896 23.96875,19.1729688 C24.0960417,19.2149479 24.2070833,19.2779167 24.301875,19.361875 C24.3966667,19.4458333 24.4711458,19.5521354 24.5253125,19.6807813 C24.5794792,19.8094271 24.6065625,19.9590625 24.6065625,20.1296875 C24.6065625,20.3003125 24.5821875,20.4607813 24.5334375,20.6110938 C24.4846875,20.7614063 24.4149479,20.9096875 24.3242187,21.0559375 C24.2334896,21.2021875 24.1244792,21.3477604 23.9971875,21.4926563 C23.8698958,21.6375521 23.7290625,21.7885417 23.5746875,21.945625 L23.5746875,21.945625 L21.71,23.8184375 C21.6639583,23.8644792 21.6307812,23.9145833 21.6104687,23.96875 C21.5901562,24.0229167 21.58,24.0757292 21.58,24.1271875 L21.58,24.1271875 L21.58,24.375 L25.46375,24.375 Z" id="x2" fill="#D75A4A" opacity="0.8"></path>
                        <g id="pencil">
                            <path d="M19.0657037,1.12811111 C20.5698519,-0.376037037 23.009037,-0.376037037 24.5131852,1.12811111 C26.0173333,2.63225926 26.0173333,5.07144444 24.5131852,6.57559259 L19.0657037,1.12811111 Z" id="Path" fill="#D75A4A"></path>
                            <polygon id="Path" fill="#ED8A19" points="20.4273333 8.61803704 7.95022222 21.0956296 7.69503704 23.3937407 21.449037 9.63925926 21.449037 9.63925926"></polygon>
                            <polygon id="Path" fill="#ED8A19" points="4.9712963 20.67 7.26940741 20.4148148 19.7465185 7.93722222 17.7040741 5.89477778 5.22648148 18.3718889"></polygon>
                            <polygon id="Path" fill="#ED8A19" points="17.0232593 5.21396296 16.0015556 4.19225926 16.0015556 4.19225926 2.24755556 17.9462593 4.54566667 17.6910741"></polygon>
                            <polygon id="Path" fill="#C7CAC7" points="23.4914815 7.59681481 23.4914815 7.59681481 24.5131852 6.57559259 19.0657037 1.12811111 18.044 2.14981481 18.0444815 2.14981481"></polygon>
                            <polygon id="Path" fill="#C7CAC7" points="17.3631852 2.83062963 17.3631852 2.83062963 16.6823704 3.51144444 16.6823704 3.51144444 22.1298519 8.95844444 22.1298519 8.95844444 22.8106667 8.27762963 22.8106667 8.27762963"></polygon>
                            <path d="M6.94488889,21.4201481 L4.47874074,21.6941111 C4.46140741,21.696037 4.44359259,21.697 4.42625926,21.697 C4.42625926,21.697 4.42577778,21.697 4.42577778,21.697 L4.42577778,21.697 L4.42577778,21.697 C4.4252963,21.697 4.4252963,21.697 4.4252963,21.697 C4.40796296,21.697 4.39014815,21.696037 4.37281481,21.6941111 C4.35403704,21.6921852 4.33862963,21.6815926 4.32081481,21.6772593 C4.28614815,21.6690741 4.25292593,21.6604074 4.22114815,21.645 C4.19707407,21.6334444 4.17637037,21.6194815 4.1547037,21.6045556 C4.12725926,21.5852963 4.10222222,21.5645926 4.07911111,21.540037 C4.06081481,21.5207778 4.04588889,21.501037 4.03096296,21.4788889 C4.01266667,21.4514444 3.99774074,21.423037 3.98522222,21.3917407 C3.97462963,21.3657407 3.96692593,21.3402222 3.96114815,21.3122963 C3.95777778,21.2968889 3.94959259,21.2838889 3.94766667,21.268 C3.94574074,21.2497037 3.95248148,21.2328519 3.95248148,21.215037 C3.95248148,21.1967407 3.94574074,21.1803704 3.94766667,21.1620741 L4.22162963,18.6959259 L1.75548148,18.9698889 C1.73766667,18.9718148 1.71937037,18.9727778 1.70203704,18.9727778 C1.664,18.9727778 1.62885185,18.9612222 1.59274074,18.9525556 L0.212814815,24.7476667 L1.22681481,23.7336667 C1.41507407,23.5454074 1.71937037,23.5454074 1.90762963,23.7336667 C2.09588889,23.9219259 2.09588889,24.2262222 1.90762963,24.4144815 L0.89362963,25.4284815 L6.68585185,24.0495185 C6.67333333,23.997037 6.66514815,23.9426296 6.67140741,23.8862963 L6.94488889,21.4201481 Z" id="Path" fill="#FBCE9D"></path>
                            <path d="M1.90762963,23.7336667 C1.71937037,23.5454074 1.41507407,23.5454074 1.22681481,23.7336667 L0.212814815,24.7476667 L0,25.6412963 L0.89362963,25.4284815 L1.90762963,24.4144815 C2.09540741,24.2262222 2.09540741,23.9219259 1.90762963,23.7336667 Z" id="Path" fill="#38454F"></path>
                            <polygon id="Path" fill="#F2ECBF" points="23.4914815 7.59681481 18.0444815 2.14981481 18.044 2.14981481 17.3631852 2.83062963 17.3631852 2.83062963 22.8106667 8.27762963 22.8106667 8.27762963"></polygon>
                            <path d="M19.7465185,7.93722222 L7.26940741,20.4148148 L4.9712963,20.67 L5.22648148,18.3718889 L17.7040741,5.89477778 L17.0232593,5.21396296 L4.54566667,17.6910741 L2.24755556,17.9462593 L1.70203704,18.4917778 L1.59225926,18.9525556 C1.62837037,18.9612222 1.66303704,18.9727778 1.70155556,18.9727778 C1.71888889,18.9727778 1.73718519,18.9718148 1.755,18.9698889 L4.22114815,18.6959259 L3.94718519,21.1620741 C3.94525926,21.1803704 3.952,21.1972222 3.952,21.215037 C3.952,21.2333333 3.94525926,21.2497037 3.94718519,21.268 C3.94911111,21.2838889 3.9572963,21.2968889 3.96066667,21.3122963 C3.96644444,21.3397407 3.97462963,21.3662222 3.98474074,21.3917407 C3.99725926,21.4225556 4.01218519,21.4514444 4.03048148,21.4788889 C4.04492593,21.5005556 4.06081481,21.5212593 4.07862963,21.540037 C4.10125926,21.5641111 4.12677778,21.5852963 4.15422222,21.6045556 C4.17540741,21.6194815 4.19707407,21.6339259 4.22066667,21.645 C4.25196296,21.6599259 4.28566667,21.6690741 4.32033333,21.6772593 C4.33862963,21.6815926 4.35355556,21.6917037 4.37233333,21.6941111 C4.38966667,21.696037 4.407,21.697 4.42481481,21.697 L4.4252963,21.697 L4.4252963,21.697 L4.42577778,21.697 L4.42625926,21.697 C4.42625926,21.697 4.42674074,21.697 4.42674074,21.697 L4.42674074,21.697 C4.44359259,21.697 4.46140741,21.696037 4.47922222,21.6941111 L6.94537037,21.4201481 L6.67140741,23.8862963 C6.66514815,23.9431111 6.67333333,23.997037 6.68585185,24.0495185 L7.14951852,23.9392593 L7.69503704,23.3942222 L7.95022222,21.0961111 L20.4273333,8.61851852 L19.7465185,7.93722222 Z" id="Path" fill="#EBBA16"></path>
                            <polygon id="Path" fill="#F2ECBF" points="22.1298519 8.95844444 16.6823704 3.51144444 16.6823704 3.51144444 16.0015556 4.19225926 16.0015556 4.19225926 17.0232593 5.21396296 17.7040741 5.89477778 19.7465185 7.93722222 20.4273333 8.61803704 21.449037 9.63925926 21.449037 9.63925926"></polygon>
                        </g>
                    </g>
                </g>
            </g>
        </g>
    </g>
</svg>