<?xml version="1.0" encoding="UTF-8"?>
<svg width="40px" height="40px" viewBox="0 0 40 40" version="1.1" xmlns="http://www.w3.org/2000/svg" xmlns:xlink="http://www.w3.org/1999/xlink">
    <title>23756AE2-A2C3-4773-97EB-68732BA1B140</title>
    <g id="Videos" stroke="none" stroke-width="1" fill="none" fill-rule="evenodd">
        <g id="Video---A" transform="translate(-170.000000, -5.000000)" fill="#FFFFFF" stroke="#FFFFFF">
            <g id="Elements/Graphics/Style3/Help/White" transform="translate(170.000000, 5.000000)">
                <g id="Group" transform="translate(6.000000, 6.000000)">
                    <circle id="Oval" stroke-opacity="0.8" stroke-width="0.6" fill-opacity="0.2" cx="14" cy="14" r="13.7"></circle>
                    <g id="info" transform="translate(10.000000, 6.000000)" fill-rule="nonzero" stroke-width="0.2">
                        <path d="M3.8899126,13.9969291 C4.46076569,13.8271454 4.58484824,13.9212936 4.6856235,14.0220688 C4.79275029,14.1291956 4.85897436,14.2772526 4.85897436,14.4410256 L4.85897436,14.4410256 L4.85897436,15.425641 C4.85897436,15.5894141 4.79275029,15.7374711 4.6856235,15.8445979 C4.5784967,15.9517247 4.43043974,16.0179487 4.26666667,16.0179487 C4.10289359,16.0179487 3.95483663,15.9517247 3.84770983,15.8445979 C3.74058304,15.7374711 3.67435897,15.5894141 3.67435897,15.425641 L3.67435897,15.425641 L3.67435897,14.4410256 C3.85390179,14.0158768 3.8602305,14.0098215 3.86678813,14.0038799 C3.87440023,14.0015673 3.88210797,13.9992503 3.8899126,13.9969291 Z" id="Path"></path>
                        <path d="M4.26705421,0.0641119786 C5.40698768,0.0797551483 6.39411503,0.53391326 7.11467075,1.2543776 C7.83562499,1.97524042 8.28948135,2.96294867 8.30462604,4.04503677 C8.32431312,5.44685803 7.63225081,6.73763519 6.4535721,7.4978451 C5.46824445,8.13380317 4.85897436,9.31497664 4.85897436,10.5803487 L4.85897436,10.5803487 L4.85897436,12.2953468 L3.67445312,10.6121421 C3.66436206,8.90784752 4.46600738,7.37069378 5.81148029,6.50271201 C6.64483926,5.9652145 7.1338244,5.05289741 7.1200302,4.06161747 C7.10956628,3.30987979 6.78166673,2.61240091 6.2692483,2.09998247 C5.75682986,1.58756403 5.05935098,1.25966449 4.306647,1.24918245 C3.54063332,1.23111385 2.81095336,1.53007133 2.26278884,2.07062906 C1.7148513,2.61095635 1.41282051,3.33297842 1.41282051,4.1025641 C0.208072543,3.05765464 0.635776409,2.01168515 1.43113696,1.22719867 C2.19290518,0.475526788 3.19749051,0.0641025641 4.26705421,0.0641119786 Z" id="Path"></path>
                    </g>
                </g>
            </g>
        </g>
    </g>
</svg>