<?xml version="1.0" encoding="UTF-8"?>
<svg width="24px" height="24px" viewBox="0 0 24 24" version="1.1" xmlns="http://www.w3.org/2000/svg" xmlns:xlink="http://www.w3.org/1999/xlink">
    <title>25034404-508E-417C-AA29-ED846D32406C</title>
    <g id="Page-1" stroke="none" stroke-width="1" fill="none" fill-rule="evenodd">
        <g id="B-01-ST-Menu" transform="translate(-316.000000, -18.000000)" fill="#000000" fill-rule="nonzero">
            <g id="Group" transform="translate(316.000000, 18.000000)">
                <path d="M12,0 C5.38338462,0 0,5.38292308 0,12 C0,18.6170769 5.38338462,24 12,24 C18.6166154,24 24,18.6170769 24,12 C24,5.38292308 18.6166154,0 12,0 Z M12,23.0769231 C5.89246154,23.0769231 0.923076923,18.1075385 0.923076923,12 C0.923076923,5.89246154 5.89246154,0.923076923 12,0.923076923 C18.1075385,0.923076923 23.0769231,5.89246154 23.0769231,12 C23.0769231,18.1075385 18.1075385,23.0769231 12,23.0769231 Z" id="Shape"></path>
                <path d="M16.4801538,7.51984615 C16.2996923,7.33938462 16.008,7.33938462 15.8275385,7.51984615 L12,11.3473846 L8.17246154,7.51984615 C7.992,7.33938462 7.70030769,7.33938462 7.51984615,7.51984615 C7.33938462,7.70030769 7.33938462,7.992 7.51984615,8.17246154 L11.3473846,12 L7.51984615,15.8275385 C7.33938462,16.008 7.33938462,16.2996923 7.51984615,16.4801538 C7.60984615,16.5701538 7.728,16.6153846 7.84615385,16.6153846 C7.96430769,16.6153846 8.08246154,16.5701538 8.17246154,16.4801538 L12,12.6526154 L15.8275385,16.4801538 C15.9175385,16.5701538 16.0356923,16.6153846 16.1538462,16.6153846 C16.272,16.6153846 16.3901538,16.5701538 16.4801538,16.4801538 C16.6606154,16.2996923 16.6606154,16.008 16.4801538,15.8275385 L12.6526154,12 L16.4801538,8.17246154 C16.6606154,7.992 16.6606154,7.70030769 16.4801538,7.51984615 Z" id="Path"></path>
            </g>
        </g>
    </g>
</svg>