<?xml version="1.0" encoding="UTF-8"?>
<svg width="24px" height="24px" viewBox="0 0 24 24" version="1.1" xmlns="http://www.w3.org/2000/svg" xmlns:xlink="http://www.w3.org/1999/xlink">
    <title>Others/ Colour-PDF </title>
    <g id="Symbols" stroke="none" stroke-width="1" fill="none" fill-rule="evenodd">
        <g id="Others/-Colour" transform="translate(3.000000, 3.000000)">
            <path d="M9,0 C4.03753846,0 0,4.03719231 0,9 C0,13.9628077 4.03753846,18 9,18 C13.9624615,18 18,13.9628077 18,9 C18,4.03719231 13.9624615,0 9,0 Z" id="Shape" fill="#C9C9C9"></path>
            <path d="M9,7.3 C9.46868547,7.3 9.89361854,7.49077684 10.2014254,7.79858367 C10.5092211,8.10637942 10.7,8.53129893 10.7,9 C10.7,9.46870107 10.5092211,9.89362058 10.2014254,10.2014163 C9.89361854,10.5092232 9.46868547,10.7 9,10.7 C8.53131453,10.7 8.10638146,10.5092232 7.79857463,10.2014163 C7.49077888,9.89362058 7.3,9.46870107 7.3,9 C7.3,8.53129893 7.49077888,8.10637942 7.79857463,7.79858367 C8.10638146,7.49077684 8.53131453,7.3 9,7.3 Z" id="Shape-Copy" stroke="#4D4D4D" stroke-width="0.6"></path>
        </g>
    </g>
</svg>