<svg xmlns="http://www.w3.org/2000/svg" xmlns:xlink="http://www.w3.org/1999/xlink" width="24px" height="24px" viewBox="0 0 24 24" version="1.1">
    <title>2CC1D4A3-905B-4435-9D39-11B8ACD58BC0</title>
    <g id="Experience" stroke="none" stroke-width="1" fill="none" fill-rule="evenodd">
        <g id="F:13-SC-ViewReport" transform="translate(-320.000000, -188.000000)" fill-rule="nonzero">
            <g id="Objectives" transform="translate(0.000000, 120.000000)">
                <g id="TQ's" transform="translate(0.000000, 50.000000)">
                    <g id="Group" transform="translate(52.000000, 10.000000)">
                        <g id="Revise" transform="translate(268.000000, 8.000000)">
                            <g id="play-button-1" transform="translate(12.000000, 11.781818) rotate(-10.000000) translate(-12.000000, -11.781818) translate(2.400000, 2.400000)">
                                <ellipse id="Oval" stroke="#FFFFFF" stroke-width="2" fill-opacity="0.2" fill="#000000" cx="9.6" cy="9.38181818" rx="9.6" ry="9.38181818"/>
                                <path d="M14.7064936,9.21969801 L7.22649356,14.2037889 C7.16903356,14.2420003 7.10205356,14.2616044 7.03507356,14.2616044 C6.98067356,14.2616044 6.92593356,14.248978 6.87629356,14.2230607 C6.76477356,14.1655776 6.69507356,14.0526048 6.69507356,13.9293316 L6.69507356,3.96114982 C6.69507356,3.83787664 6.76477356,3.72490392 6.87629356,3.66742073 C6.98781356,3.60960528 7.12245356,3.61757982 7.22683356,3.68669255 L14.7068336,8.67078346 C14.7993136,8.73258619 14.8550736,8.83525846 14.8550736,8.94524073 C14.8550736,9.05522301 14.7993136,9.15789528 14.7064936,9.21969801 Z" id="Shape" fill="#FFFFFF" transform="translate(10.775074, 8.945258) rotate(-7.000000) translate(-10.775074, -8.945258) "/>
                            </g>
                        </g>
                    </g>
                </g>
            </g>
        </g>
    </g>
</svg>