<?xml version="1.0" encoding="UTF-8"?>
<svg width="24px" height="24px" viewBox="0 0 24 24" version="1.1" xmlns="http://www.w3.org/2000/svg" xmlns:xlink="http://www.w3.org/1999/xlink">
    <title>399429AB-19A3-4570-BB14-21317E578D81</title>
    <g id="Lessons-D" stroke="none" stroke-width="1" fill="none" fill-rule="evenodd">
        <g id="Lessons-D-01" transform="translate(-561.000000, -399.000000)" fill-rule="nonzero" stroke="#A3A3A3" stroke-width="0.6">
            <g id="Group" transform="translate(438.000000, 351.000000)">
                <g id="StarSmall/Empty" transform="translate(123.000000, 48.000000)">
                    <path d="M11.6910282,6.51844495 C12.0271072,6.33101941 12.1172521,6.31310324 12.1809746,6.35697928 C12.2368603,6.39545932 12.2815725,6.45112387 12.3089183,6.51750565 L12.3089183,6.51750565 L13.7472234,10.0304163 L17.3915505,10.3757166 C17.4577032,10.3819379 17.5185382,10.4087692 17.5680793,10.4500603 C17.6206654,10.4938893 17.6605637,10.5538174 17.6822313,10.6237549 C17.7046314,10.6957739 17.7054507,10.77114 17.6869888,10.8409669 C17.6689994,10.9090067 17.6326343,10.9719283 17.5791353,11.0207727 L17.5791353,11.0207727 L14.8338094,13.5326558 L15.6424493,17.2496412 C15.658485,17.3235435 15.6528796,17.3988149 15.6283608,17.4667396 C15.6047477,17.5321556 15.5634928,17.5908578 15.5066219,17.6338673 C15.4531473,17.674317 15.3909554,17.696682 15.3277868,17.6995573 C15.2652104,17.7024056 15.2020241,17.6860765 15.1453651,17.6505098 L15.1453651,17.6505098 L12.0000775,15.688202 L8.95730992,17.5858507 C8.68800656,17.523345 8.51362923,17.456184 8.40870474,17.3766467 C8.38279648,17.3570071 8.36232178,17.3395146 8.35404405,17.3177673 C8.34531877,17.2948442 8.35235758,17.2715365 8.35706351,17.2498002 L8.35706351,17.2498002 L9.1657338,13.5326752 L6.4198736,11.0198036 C6.36686912,10.9715424 6.33081667,10.9088994 6.31296099,10.8412122 C6.29452377,10.7713205 6.29539319,10.6958699 6.31781775,10.6239079 C6.33955374,10.5541556 6.37948077,10.4941641 6.43208737,10.4502741 C6.48166809,10.4089086 6.54252568,10.3820332 6.60820102,10.3756973 L6.60820102,10.3756973 L10.2528598,10.0304203 Z" id="Star"></path>
                </g>
            </g>
        </g>
    </g>
</svg>