<?xml version="1.0" encoding="UTF-8"?>
<svg width="24px" height="24px" viewBox="0 0 24 24" version="1.1" xmlns="http://www.w3.org/2000/svg" xmlns:xlink="http://www.w3.org/1999/xlink">
    <title>7A337750-65E7-4C26-876A-A9923E108D07</title>
    <g id="View-Study-Plans" stroke="none" stroke-width="1" fill="none" fill-rule="evenodd">
        <g id="C:08-NS-StudyPlans-Home" transform="translate(-320.000000, -825.000000)" fill="#FCDEED" fill-rule="nonzero" stroke="#F973A7" stroke-width="0.5">
            <g id="Elements/List/Books/BrowseBooks" transform="translate(0.000000, 810.000000)">
                <g id="Elements/CTAs/IconBased/CR" transform="translate(320.000000, 15.000000)">
                    <g id="Heart" transform="translate(0.000000, 1.000000)">
                        <path d="M17.4640446,0.250455063 C19.1027425,0.250455063 20.576395,0.912762681 21.682737,2.03016979 C22.798413,3.15700422 23.5404649,4.74472808 23.7098685,6.58312174 C23.738206,6.76156771 23.8427526,7.61080199 23.5112166,8.99437848 C23.0252641,11.0251425 21.9017793,12.8707062 20.2666231,14.3319651 L20.2666231,14.3319651 L11.9288463,21.6658044 L3.73321744,14.3327898 C2.09659742,12.8706775 0.97312708,11.0246743 0.487166405,8.99432068 C0.155740096,7.61076493 0.260107447,6.76173328 0.286712763,6.60040638 C0.458163951,4.74434207 1.200151,3.15669356 2.31573085,2.02987612 C3.42208832,0.912373942 4.89579942,0.25 6.53435229,0.25 C8.68502451,0.25 10.6024916,1.38825508 11.7179062,3.27013202 C13.2737746,1.41208068 15.276265,0.250455063 17.4640446,0.250455063 Z" id="Shape"></path>
                    </g>
                </g>
            </g>
        </g>
    </g>
</svg>