<?xml version="1.0" encoding="UTF-8"?>
<svg width="40px" height="40px" viewBox="0 0 40 40" version="1.1" xmlns="http://www.w3.org/2000/svg" xmlns:xlink="http://www.w3.org/1999/xlink">
    <g id="" stroke="none" stroke-width="1" fill="none" fill-rule="evenodd">
        <g id="AFS-1401" transform="translate(-392.000000, -418.000000)" fill="#1268B3" fill-rule="nonzero">
            <g id="Toolbars" transform="translate(351.000000, 418.000000)">
                <g id="Elements/Graphics/Style3/Photos/Black" transform="translate(41.000000, 0.000000)">
                    <g id="Photos/Black" transform="translate(4.000000, 4.000000)">
                        <circle id="Oval" fill-opacity="0.06" cx="16" cy="16" r="16"></circle>
                        <g id="Group" transform="translate(7.000000, 9.000000)">
                            <path d="M17.6896552,9.40580946e-13 L0.310344828,9.40580946e-13 C0.139034483,9.40580946e-13 0,0.138724138 0,0.310344828 L0,13.9655172 C0,14.1371379 0.139034483,14.2758621 0.310344828,14.2758621 L17.6896552,14.2758621 C17.8609655,14.2758621 18,14.1371379 18,13.9655172 L18,0.310344828 C18,0.138724138 17.8609655,9.40580946e-13 17.6896552,9.40580946e-13 Z M17.3793103,13.6551724 L0.620689655,13.6551724 L0.620689655,0.620689655 L17.3793103,0.620689655 L17.3793103,13.6551724 Z" id="Shape"></path>
                            <path d="M4.96551724,6.87041379 C5.91858621,6.87041379 6.69382759,6.09517241 6.69382759,5.14241379 C6.69382759,4.18903448 5.91858621,3.4137931 4.96551724,3.4137931 C4.01244828,3.4137931 3.2372069,4.18903448 3.2372069,5.14210345 C3.2372069,6.09517241 4.01244828,6.87041379 4.96551724,6.87041379 Z M4.96551724,4.03448276 C5.57627586,4.03448276 6.07313793,4.53165517 6.07313793,5.14210345 C6.07313793,5.75255172 5.57627586,6.24972414 4.96551724,6.24972414 C4.35475862,6.24972414 3.85789655,5.75286207 3.85789655,5.14241379 C3.85789655,4.53196552 4.35475862,4.03448276 4.96551724,4.03448276 Z" id="Shape"></path>
                            <path d="M2.17241379,12.4137931 C2.24503448,12.4137931 2.31827586,12.3883448 2.37724138,12.3365172 L7.43989655,7.87934483 L10.637069,11.0762069 C10.7584138,11.1975517 10.9545517,11.1975517 11.0758966,11.0762069 C11.1972414,10.9548621 11.1972414,10.7587241 11.0758966,10.6373793 L9.58406897,9.14555172 L12.4333448,6.02534483 L15.9281379,9.22903448 C16.0544483,9.3447931 16.2508966,9.33610345 16.3666552,9.2097931 C16.4824138,9.08348276 16.4740345,8.88703448 16.3474138,8.77127586 L12.6232759,5.35748276 C12.5624483,5.30193103 12.4814483,5.27431034 12.3998276,5.27617241 C12.3175862,5.27989655 12.24,5.3162069 12.1844483,5.37703448 L9.14493103,8.70610345 L7.67296552,7.23413793 C7.55689655,7.11837931 7.37131034,7.11248276 7.24841379,7.22048276 L1.96727586,11.8703793 C1.83848276,11.9836552 1.82606897,12.1797931 1.93934483,12.3085862 C2.0007931,12.3784138 2.08644828,12.4137931 2.17241379,12.4137931 Z" id="Path"></path>
                        </g>
                    </g>
                </g>
            </g>
        </g>
    </g>
</svg>