<?xml version="1.0" encoding="UTF-8"?>
<svg width="40px" height="40px" viewBox="0 0 40 40" version="1.1" xmlns="http://www.w3.org/2000/svg" xmlns:xlink="http://www.w3.org/1999/xlink">
    <title>SVG</title>
    <g id="Symbols" stroke="none" stroke-width="1" fill="none" fill-rule="evenodd">
        <g id="Elements/Icons/LessonTypes/Notes/Colour/Multi" fill-rule="nonzero">
            <g id="notepad" transform="translate(19.916667, 20.000000) rotate(-10.000000) translate(-19.916667, -20.000000) translate(8.000000, 7.000000)">
                <polygon id="Path" fill="#FFEB61" points="17.4827586 2.24137931 5.82758621 2.24137931 0 2.24137931 0 26 23.3103448 26 23.3103448 2.24137931"></polygon>
                <circle id="Oval" fill="#918553" cx="7.62068966" cy="4.03448276" r="1"></circle>
                <circle id="Oval" fill="#918553" cx="10.3103448" cy="4.03448276" r="1"></circle>
                <circle id="Oval" fill="#918553" cx="13" cy="4.03448276" r="1"></circle>
                <circle id="Oval" fill="#918553" cx="15.6896552" cy="4.03448276" r="1"></circle>
                <path d="M15.6896552,0 C15.1831034,0 14.7204828,0.175275862 14.3448276,0.459482759 C14.5842069,0.641034483 14.7836897,0.868310345 14.9343103,1.12965517 C15.149931,0.98262069 15.409931,0.896551724 15.6896552,0.896551724 C16.4311034,0.896551724 17.0344828,1.49993103 17.0344828,2.24137931 C17.0344828,2.98282759 16.4311034,3.5862069 15.6896552,3.5862069 C15.4417586,3.5862069 15.2413793,3.78658621 15.2413793,4.03448276 C15.2413793,4.28237931 15.4417586,4.48275862 15.6896552,4.48275862 C16.9255517,4.48275862 17.9310345,3.47727586 17.9310345,2.24137931 C17.9310345,1.00548276 16.9255517,0 15.6896552,0 Z" id="Path" fill="#D8A852"></path>
                <path d="M13.7553448,1.12965517 C13.5652759,1.45868966 13.4482759,1.8347931 13.4482759,2.24137931 L14.3448276,2.24137931 C14.3448276,1.77965517 14.1108276,1.37217241 13.7553448,1.12965517 Z" id="Path" fill="#A37F46"></path>
                <path d="M11.0656897,1.12965517 C10.8756207,1.45868966 10.7586207,1.8347931 10.7586207,2.24137931 L11.6551724,2.24137931 C11.6551724,1.77965517 11.4211724,1.37217241 11.0656897,1.12965517 Z" id="Path" fill="#A37F46"></path>
                <path d="M14.9343103,1.12965517 C14.7836897,0.868310345 14.5842069,0.641034483 14.3448276,0.459482759 C13.9691724,0.175275862 13.5065517,0 13,0 C12.4934483,0 12.0308276,0.175275862 11.6551724,0.459482759 C11.8945517,0.641034483 12.0940345,0.868310345 12.2446552,1.12965517 C12.4602759,0.98262069 12.7202759,0.896551724 13,0.896551724 C13.2797241,0.896551724 13.5397241,0.98262069 13.7553448,1.12965517 C14.1108276,1.37217241 14.3448276,1.77965517 14.3448276,2.24137931 C14.3448276,2.98282759 13.7414483,3.5862069 13,3.5862069 C12.7521034,3.5862069 12.5517241,3.78658621 12.5517241,4.03448276 C12.5517241,4.28237931 12.7521034,4.48275862 13,4.48275862 C14.2358966,4.48275862 15.2413793,3.47727586 15.2413793,2.24137931 C15.2413793,1.8347931 15.1243793,1.45868966 14.9343103,1.12965517 Z" id="Path" fill="#D8A852"></path>
                <path d="M8.37603448,1.12965517 C8.18596552,1.45868966 8.06896552,1.8347931 8.06896552,2.24137931 L8.96551724,2.24137931 C8.96551724,1.77965517 8.73151724,1.37217241 8.37603448,1.12965517 Z" id="Path" fill="#A37F46"></path>
                <path d="M12.2446552,1.12965517 C12.0940345,0.868310345 11.8945517,0.641034483 11.6551724,0.459482759 C11.2795172,0.175275862 10.8168966,0 10.3103448,0 C9.8037931,0 9.34117241,0.175275862 8.96551724,0.459482759 C9.20489655,0.641034483 9.40437931,0.868310345 9.555,1.12965517 C9.77062069,0.98262069 10.0306207,0.896551724 10.3103448,0.896551724 C10.590069,0.896551724 10.850069,0.98262069 11.0656897,1.12965517 C11.4211724,1.37217241 11.6551724,1.77965517 11.6551724,2.24137931 C11.6551724,2.98282759 11.0517931,3.5862069 10.3103448,3.5862069 C10.0624483,3.5862069 9.86206897,3.78658621 9.86206897,4.03448276 C9.86206897,4.28237931 10.0624483,4.48275862 10.3103448,4.48275862 C11.5462414,4.48275862 12.5517241,3.47727586 12.5517241,2.24137931 C12.5517241,1.8347931 12.4347241,1.45868966 12.2446552,1.12965517 Z" id="Path" fill="#D8A852"></path>
                <path d="M9.555,1.12965517 C9.40437931,0.868310345 9.20489655,0.641034483 8.96551724,0.459482759 C8.58986207,0.175275862 8.12724138,0 7.62068966,0 C6.3847931,0 5.37931034,1.00548276 5.37931034,2.24137931 L6.27586207,2.24137931 C6.27586207,1.49993103 6.87924138,0.896551724 7.62068966,0.896551724 C7.90041379,0.896551724 8.16041379,0.98262069 8.37603448,1.12965517 C8.73151724,1.37217241 8.96551724,1.77965517 8.96551724,2.24137931 C8.96551724,2.98282759 8.36213793,3.5862069 7.62068966,3.5862069 C7.3727931,3.5862069 7.17241379,3.78658621 7.17241379,4.03448276 C7.17241379,4.28237931 7.3727931,4.48275862 7.62068966,4.48275862 C8.85658621,4.48275862 9.86206897,3.47727586 9.86206897,2.24137931 C9.86206897,1.8347931 9.74506897,1.45868966 9.555,1.12965517 Z" id="Path" fill="#D8A852"></path>
                <rect id="Rectangle" fill="#CEC9AE" x="0" y="7.17241379" width="23.3103448" height="1"></rect>
                <rect id="Rectangle" fill="#CEC9AE" x="0" y="11.6551724" width="23.3103448" height="1"></rect>
                <rect id="Rectangle" fill="#CEC9AE" x="0" y="16.137931" width="23.3103448" height="1"></rect>
                <rect id="Rectangle" fill="#CEC9AE" x="0" y="20.6206897" width="17.9310345" height="1"></rect>
                <polygon id="Path" fill="#EDD87E" points="17.9310345 26 17.9310345 20.6206897 23.3103448 20.6206897"></polygon>
                <polygon id="Path" fill="#918553" points="23.3103448 20.6206897 23.3103448 26 17.9310345 26"></polygon>
                <rect id="Rectangle" fill="#E54C4C" x="3.13793103" y="2.24137931" width="1" height="23.7586207"></rect>
            </g>
        </g>
    </g>
</svg>