<?xml version="1.0" encoding="UTF-8"?>
<svg xmlns="http://www.w3.org/2000/svg">
    <symbol id="img">
      <g stroke="none" stroke-width="1" viewBox="original-file's-viewBox">
        <g id="Elements/Graphics/Style3/Camera/Black" fill-rule="nonzero">
          <g id="photo-camera" transform="translate(0.000000, 2.000000)">
            <path
              d="M22.0804,4.2 L18.6708,4.2 L17.0708,0.2 L6.9292,0.2 L5.3292,4.2 L4.8,4.2 L4.8,2.2 L2.4,2.2 L2.4,4.2 L1.9196,4.2 C0.8608,4.2 0,5.0608 0,6.1196 L0,17.8668 C0,18.9328 0.8672,19.8 1.9332,19.8 L22.0668,19.8 C23.1328,19.8 24,18.9328 24,17.8668 L24,6.1196 C24,5.0608 23.1392,4.2 22.0804,4.2 Z M3.2,3 L4,3 L4,4.2 L3.2,4.2 L3.2,3 Z M23.2,17.8668 C23.2,18.492 22.6916,19 22.0668,19 L1.9332,19 C1.3084,19 0.8,18.4916 0.8,17.8668 L0.8,6.1196 C0.8,5.5024 1.3024,5 1.9196,5 L2.4,5 L4.8,5 L5.8708,5 L7.4708,1 L16.5292,1 L18.1292,5 L22.0804,5 C22.6976,5 23.2,5.5024 23.2,6.1196 L23.2,17.8668 Z"
              id="Shape" />
            <path
              d="M12,3.8 C8.03,3.8 4.8,7.03 4.8,11 C4.8,14.97 8.03,18.2 12,18.2 C15.97,18.2 19.2,14.97 19.2,11 C19.2,7.03 15.97,3.8 12,3.8 Z M12,17.4 C8.4712,17.4 5.6,14.5288 5.6,11 C5.6,7.4712 8.4712,4.6 12,4.6 C15.5288,4.6 18.4,7.4712 18.4,11 C18.4,14.5288 15.5288,17.4 12,17.4 Z"
              id="Shape" />
            <path
              d="M12,6.2 C9.3532,6.2 7.2,8.3532 7.2,11 C7.2,13.6468 9.3532,15.8 12,15.8 C14.6468,15.8 16.8,13.6468 16.8,11 C16.8,8.3532 14.6468,6.2 12,6.2 Z M12,15 C9.7944,15 8,13.2056 8,11 C8,8.7944 9.7944,7 12,7 C14.2056,7 16,8.7944 16,11 C16,13.2056 14.2056,15 12,15 Z"
              id="Shape" />
            <path
              d="M20.8,5.8 C19.9176,5.8 19.2,6.5176 19.2,7.4 C19.2,8.2824 19.9176,9 20.8,9 C21.6824,9 22.4,8.2824 22.4,7.4 C22.4,6.5176 21.6824,5.8 20.8,5.8 Z M20.8,8.2 C20.3588,8.2 20,7.8412 20,7.4 C20,6.9588 20.3588,6.6 20.8,6.6 C21.2412,6.6 21.6,6.9588 21.6,7.4 C21.6,7.8412 21.2412,8.2 20.8,8.2 Z"
              id="Shape" />
          </g>
        </g>
      </g>
    </symbol>


    <symbol id="file">
      <g stroke="none" stroke-width="1" fill="none" fill-rule="evenodd">
        <g id="Elements/Graphics/Style3/Document/Black" fill-rule="nonzero">
          <g id="document" transform="translate(2.000000, 0.000000)">
            <path
              d="M13.7141667,0 L0.208333333,0 L0.208333333,24 L19.7916667,24 L19.7916667,5.8344 L13.7141667,0 Z M13.9583333,1.3656 L18.3691667,5.6 L13.9583333,5.6 L13.9583333,1.3656 Z M1.04166667,23.2 L1.04166667,0.8 L13.125,0.8 L13.125,6.4 L18.9583333,6.4 L18.9583333,23.2 L1.04166667,23.2 Z"
              id="Shape" />
            <path
              d="M4.375,6.8 L8.125,6.8 C8.355,6.8 8.54166667,6.6212 8.54166667,6.4 C8.54166667,6.1788 8.355,6 8.125,6 L4.375,6 C4.145,6 3.95833333,6.1788 3.95833333,6.4 C3.95833333,6.6212 4.145,6.8 4.375,6.8 Z"
              id="Path" />
            <path
              d="M11.4583333,14.8 L4.375,14.8 C4.145,14.8 3.95833333,14.9788 3.95833333,15.2 C3.95833333,15.4212 4.145,15.6 4.375,15.6 L11.4583333,15.6 C11.6883333,15.6 11.875,15.4212 11.875,15.2 C11.875,14.9788 11.6883333,14.8 11.4583333,14.8 Z"
              id="Path" />
            <path
              d="M15.625,12 L12.7083333,12 C12.4783333,12 12.2916667,12.1788 12.2916667,12.4 C12.2916667,12.6212 12.4783333,12.8 12.7083333,12.8 L15.625,12.8 C15.855,12.8 16.0416667,12.6212 16.0416667,12.4 C16.0416667,12.1788 15.855,12 15.625,12 Z"
              id="Path" />
            <path
              d="M4.375,10 L6.45833333,10 C6.68833333,10 6.875,9.8212 6.875,9.6 C6.875,9.3788 6.68833333,9.2 6.45833333,9.2 L4.375,9.2 C4.145,9.2 3.95833333,9.3788 3.95833333,9.6 C3.95833333,9.8212 4.145,10 4.375,10 Z"
              id="Path" />
            <path
              d="M10.625,10 L13.5416667,10 C13.7716667,10 13.9583333,9.8212 13.9583333,9.6 C13.9583333,9.3788 13.7716667,9.2 13.5416667,9.2 L10.625,9.2 C10.395,9.2 10.2083333,9.3788 10.2083333,9.6 C10.2083333,9.8212 10.395,10 10.625,10 Z"
              id="Path" />
            <path
              d="M8.125,9.6 C8.125,9.704 8.17083333,9.808 8.24583333,9.884 C8.325,9.956 8.43333333,10 8.54166667,10 C8.65,10 8.75833333,9.956 8.8375,9.884 C8.9125,9.808 8.95833333,9.704 8.95833333,9.6 C8.95833333,9.4956 8.9125,9.3916 8.8375,9.316 C8.68333333,9.168 8.40416667,9.168 8.24583333,9.316 C8.17083333,9.3916 8.125,9.4956 8.125,9.6 Z"
              id="Path" />
            <path
              d="M6.45833333,12 C6.22833333,12 6.04166667,12.1788 6.04166667,12.4 C6.04166667,12.6212 6.22833333,12.8 6.45833333,12.8 L10.625,12.8 C10.855,12.8 11.0416667,12.6212 11.0416667,12.4 C11.0416667,12.1788 10.855,12 10.625,12 L6.45833333,12 Z"
              id="Path" />
            <path
              d="M4.375,12.8 C4.48333333,12.8 4.59166667,12.756 4.67083333,12.684 C4.74583333,12.608 4.79166667,12.504 4.79166667,12.4 C4.79166667,12.2956 4.74583333,12.1916 4.67083333,12.116 C4.51666667,11.968 4.23333333,11.968 4.07916667,12.116 C4.00416667,12.1916 3.95833333,12.2916 3.95833333,12.4 C3.95833333,12.504 4.00416667,12.608 4.07916667,12.684 C4.15833333,12.756 4.26666667,12.8 4.375,12.8 Z"
              id="Path" />
            <path
              d="M15.625,17.6 L12.7083333,17.6 C12.4783333,17.6 12.2916667,17.7788 12.2916667,18 C12.2916667,18.2212 12.4783333,18.4 12.7083333,18.4 L15.625,18.4 C15.855,18.4 16.0416667,18.2212 16.0416667,18 C16.0416667,17.7788 15.855,17.6 15.625,17.6 Z"
              id="Path" />
            <path
              d="M10.625,17.6 L6.45833333,17.6 C6.22833333,17.6 6.04166667,17.7788 6.04166667,18 C6.04166667,18.2212 6.22833333,18.4 6.45833333,18.4 L10.625,18.4 C10.855,18.4 11.0416667,18.2212 11.0416667,18 C11.0416667,17.7788 10.855,17.6 10.625,17.6 Z"
              id="Path" />
            <path
              d="M4.07916667,17.716 C4.00416667,17.788 3.95833333,17.8916 3.95833333,18 C3.95833333,18.108 4,18.208 4.07916667,18.284 C4.15833333,18.356 4.26666667,18.4 4.375,18.4 C4.4875,18.4 4.59166667,18.356 4.67083333,18.284 C4.74583333,18.208 4.79166667,18.104 4.79166667,18 C4.79166667,17.8916 4.74583333,17.7916 4.67083333,17.72 C4.51666667,17.568 4.2375,17.568 4.07916667,17.716 Z"
              id="Path" />
            <path
              d="M15.3291667,9.316 C15.2541667,9.3916 15.2083333,9.4956 15.2083333,9.6 C15.2083333,9.704 15.2541667,9.808 15.3291667,9.884 C15.4083333,9.956 15.5166667,10 15.625,10 C15.7333333,10 15.8416667,9.956 15.9208333,9.884 C16,9.808 16.0416667,9.704 16.0416667,9.6 C16.0416667,9.4956 16,9.3916 15.9208333,9.316 C15.7625,9.168 15.4875,9.168 15.3291667,9.316 Z"
              id="Path" />
            <path
              d="M13.8375,15.484 C13.9125,15.408 13.9583333,15.304 13.9583333,15.2 C13.9583333,15.0956 13.9125,14.9916 13.8375,14.916 C13.6791667,14.768 13.4,14.768 13.2458333,14.916 C13.1708333,14.9916 13.125,15.0956 13.125,15.2 C13.125,15.304 13.1708333,15.408 13.2458333,15.484 C13.325,15.5596 13.4291667,15.6 13.5416667,15.6 C13.6541667,15.6 13.7583333,15.556 13.8375,15.484 Z"
              id="Path" />
            <path
              d="M15.3291667,14.916 C15.2541667,14.9916 15.2083333,15.0956 15.2083333,15.2 C15.2083333,15.304 15.2541667,15.408 15.3291667,15.484 C15.4083333,15.556 15.5125,15.6 15.625,15.6 C15.7375,15.6 15.8416667,15.556 15.9208333,15.484 C15.9958333,15.408 16.0416667,15.304 16.0416667,15.2 C16.0416667,15.0956 15.9958333,14.9916 15.9208333,14.916 C15.7666667,14.768 15.4833333,14.768 15.3291667,14.916 Z"
              id="Path" />
          </g>
        </g>
      </g>
    </symbol>
 
      
    
      <symbol id="ico2">
        <path d="M13.5,0H0V24H19.6V5.8Zm.2,1.4,4.5,4.2H13.7ZM.8,23.2V.8H12.9V6.4h5.9V23.2Z" />
        <path d="M4.2,6.8H7.9a.4.4,0,1,0,0-.8H4.2a.5.5,0,0,0-.5.4A.5.5,0,0,0,4.2,6.8Z" />
        <path d="M11.2,14.8h-7a.4.4,0,1,0,0,.8h7a.4.4,0,1,0,0-.8Z" />
        <path d="M15.4,12H12.5a.4.4,0,0,0,0,.8h2.9a.4.4,0,0,0,0-.8Z" />
        <path d="M4.2,10H6.3a.4.4,0,0,0,0-.8H4.2a.5.5,0,0,0-.5.4A.5.5,0,0,0,4.2,10Z" />
        <path d="M10.4,10h2.9a.4.4,0,0,0,0-.8H10.4a.4.4,0,0,0,0,.8Z" />
        <path d="M7.9,9.6v.3h.6a.5.5,0,0,0,0-.6.6.6,0,0,0-.6,0Z" />
        <path d="M6.3,12a.4.4,0,1,0,0,.8h4.1a.4.4,0,0,0,0-.8Z" />
        <path d="M4.2,12.8h.3v-.6H3.9l-.2.3.2.3C3.9,12.8,4.1,12.8,4.2,12.8Z" />
        <path d="M15.4,17.6H12.5a.4.4,0,0,0,0,.8h2.9a.4.4,0,0,0,0-.8Z" />
        <path d="M10.4,17.6H6.3a.4.4,0,1,0,0,.8h4.1a.4.4,0,1,0,0-.8Z" />
        <path d="M3.9,17.7c-.1.1-.2.2-.2.3s.1.2.2.3h.6c0-.1.1-.2.1-.3s-.1-.2-.1-.3Z" />
        <path d="M15.1,9.3a.5.5,0,0,0,0,.6h.6a.5.5,0,0,0,0-.6A.6.6,0,0,0,15.1,9.3Z" />
        <path d="M13.6,15.5a.5.5,0,0,0,0-.6H13v.3c0,.1.1.2.1.3h.6Z" />
        <path d="M15.1,14.9a.5.5,0,0,0,0,.6h.6a.5.5,0,0,0,0-.6Z" />
      </symbol>
     
      <symbol id="ico3">
        <path
          d="M22.0804,4.2 L18.6708,4.2 L17.0708,0.2 L6.9292,0.2 L5.3292,4.2 L4.8,4.2 L4.8,2.2 L2.4,2.2 L2.4,4.2 L1.9196,4.2 C0.8608,4.2 0,5.0608 0,6.1196 L0,17.8668 C0,18.9328 0.8672,19.8 1.9332,19.8 L22.0668,19.8 C23.1328,19.8 24,18.9328 24,17.8668 L24,6.1196 C24,5.0608 23.1392,4.2 22.0804,4.2 Z M3.2,3 L4,3 L4,4.2 L3.2,4.2 L3.2,3 Z M23.2,17.8668 C23.2,18.492 22.6916,19 22.0668,19 L1.9332,19 C1.3084,19 0.8,18.4916 0.8,17.8668 L0.8,6.1196 C0.8,5.5024 1.3024,5 1.9196,5 L2.4,5 L4.8,5 L5.8708,5 L7.4708,1 L16.5292,1 L18.1292,5 L22.0804,5 C22.6976,5 23.2,5.5024 23.2,6.1196 L23.2,17.8668 Z"
          id="Shape"></path>
        <path
          d="M12,3.8 C8.03,3.8 4.8,7.03 4.8,11 C4.8,14.97 8.03,18.2 12,18.2 C15.97,18.2 19.2,14.97 19.2,11 C19.2,7.03 15.97,3.8 12,3.8 Z M12,17.4 C8.4712,17.4 5.6,14.5288 5.6,11 C5.6,7.4712 8.4712,4.6 12,4.6 C15.5288,4.6 18.4,7.4712 18.4,11 C18.4,14.5288 15.5288,17.4 12,17.4 Z"
          id="Shape"></path>
        <path
          d="M12,6.2 C9.3532,6.2 7.2,8.3532 7.2,11 C7.2,13.6468 9.3532,15.8 12,15.8 C14.6468,15.8 16.8,13.6468 16.8,11 C16.8,8.3532 14.6468,6.2 12,6.2 Z M12,15 C9.7944,15 8,13.2056 8,11 C8,8.7944 9.7944,7 12,7 C14.2056,7 16,8.7944 16,11 C16,13.2056 14.2056,15 12,15 Z"
          id="Shape"></path>
        <path
          d="M20.8,5.8 C19.9176,5.8 19.2,6.5176 19.2,7.4 C19.2,8.2824 19.9176,9 20.8,9 C21.6824,9 22.4,8.2824 22.4,7.4 C22.4,6.5176 21.6824,5.8 20.8,5.8 Z M20.8,8.2 C20.3588,8.2 20,7.8412 20,7.4 C20,6.9588 20.3588,6.6 20.8,6.6 C21.2412,6.6 21.6,6.9588 21.6,7.4 C21.6,7.8412 21.2412,8.2 20.8,8.2 Z"
          id="Shape"></path>

      </symbol>
     
      <symbol id="ico4">

        <g>
          <path
            d="M23.5862069,0 L0.413793103,0 C0.18537931,0 0,0.184965517 0,0.413793103 L0,18.6206897 C0,18.8495172 0.18537931,19.0344828 0.413793103,19.0344828 L23.5862069,19.0344828 C23.8146207,19.0344828 24,18.8495172 24,18.6206897 L24,0.413793103 C24,0.184965517 23.8146207,0 23.5862069,0 Z M23.1724138,18.2068966 L0.827586207,18.2068966 L0.827586207,0.827586207 L23.1724138,0.827586207 L23.1724138,18.2068966 Z"
            id="Shape"></path>
          <path
            d="M6.62068966,9.16055172 C7.89144828,9.16055172 8.92510345,8.12689655 8.92510345,6.85655172 C8.92510345,5.58537931 7.89144828,4.55172414 6.62068966,4.55172414 C5.34993103,4.55172414 4.31627586,5.58537931 4.31627586,6.85613793 C4.31627586,8.12689655 5.34993103,9.16055172 6.62068966,9.16055172 Z M6.62068966,5.37931034 C7.43503448,5.37931034 8.09751724,6.0422069 8.09751724,6.85613793 C8.09751724,7.67006897 7.43503448,8.33296552 6.62068966,8.33296552 C5.80634483,8.33296552 5.14386207,7.67048276 5.14386207,6.85655172 C5.14386207,6.04262069 5.80634483,5.37931034 6.62068966,5.37931034 Z"
            id="Shape"></path>
          <path
            d="M2.89655172,16.5517241 C2.99337931,16.5517241 3.09103448,16.5177931 3.16965517,16.4486897 L9.91986207,10.5057931 L14.1827586,14.7682759 C14.3445517,14.930069 14.606069,14.930069 14.7678621,14.7682759 C14.9296552,14.6064828 14.9296552,14.3449655 14.7678621,14.1831724 L12.7787586,12.194069 L16.5777931,8.0337931 L21.2375172,12.3053793 C21.405931,12.4597241 21.6678621,12.4481379 21.8222069,12.2797241 C21.9765517,12.1113103 21.9653793,11.8493793 21.7965517,11.6950345 L16.8310345,7.14331034 C16.749931,7.06924138 16.641931,7.03241379 16.5331034,7.03489655 C16.4234483,7.03986207 16.32,7.08827586 16.245931,7.16937931 L12.1932414,11.6081379 L10.2306207,9.64551724 C10.0758621,9.49117241 9.82841379,9.48331034 9.66455172,9.62731034 L2.62303448,15.8271724 C2.45131034,15.9782069 2.43475862,16.2397241 2.5857931,16.4114483 C2.66772414,16.5045517 2.78193103,16.5517241 2.89655172,16.5517241 Z"
            id="Path"></path>
        </g>
      </symbol>
    
      <symbol id="ico5" >
        <path
          d="M12.8275862,11.5862069 C12.5991724,11.5862069 12.4137931,11.7711724 12.4137931,12 L12.4137931,14.4827586 C12.4137931,17.6772414 9.81517241,20.2758621 6.62068966,20.2758621 C3.4262069,20.2758621 0.827586207,17.6772414 0.827586207,14.4827586 L0.827586207,12 C0.827586207,11.7711724 0.642206897,11.5862069 0.413793103,11.5862069 C0.18537931,11.5862069 0,11.7711724 0,12 L0,14.4827586 C0,17.9937931 2.74924138,20.8671724 6.20689655,21.0823448 L6.20689655,23.1724138 L4.13793103,23.1724138 C3.90951724,23.1724138 3.72413793,23.3573793 3.72413793,23.5862069 C3.72413793,23.8150345 3.90951724,24 4.13793103,24 L9.10344828,24 C9.33186207,24 9.51724138,23.8150345 9.51724138,23.5862069 C9.51724138,23.3573793 9.33186207,23.1724138 9.10344828,23.1724138 L7.03448276,23.1724138 L7.03448276,21.0823448 C10.4921379,20.8671724 13.2413793,17.9933793 13.2413793,14.4827586 L13.2413793,12 C13.2413793,11.7711724 13.056,11.5862069 12.8275862,11.5862069 Z"
          id="Path"></path>
        <path
          d="M6.62068966,19.0344828 C9.13034483,19.0344828 11.1724138,16.9924138 11.1724138,14.4827586 L11.1724138,4.55172414 C11.1724138,2.04206897 9.13034483,0 6.62068966,0 C4.11103448,0 2.06896552,2.04206897 2.06896552,4.55172414 L2.06896552,14.4827586 C2.06896552,16.9924138 4.11103448,19.0344828 6.62068966,19.0344828 Z M2.89655172,4.55172414 C2.89655172,2.49806897 4.56744828,0.827586207 6.62068966,0.827586207 C8.67393103,0.827586207 10.3448276,2.49806897 10.3448276,4.55172414 L10.3448276,14.4827586 C10.3448276,16.5364138 8.67393103,18.2068966 6.62068966,18.2068966 C4.56744828,18.2068966 2.89655172,16.5364138 2.89655172,14.4827586 L2.89655172,4.55172414 Z"
          id="Shape"></path>

      </symbol>
     
      <symbol id="ico6">

        <path
          d="M12,0 C5.3832,0 0,5.3832 0,12 C0,18.6168 5.3832,24 12,24 C18.6168,24 24,18.6168 24,12 C24,5.3832 18.6168,0 12,0 Z M12,23.2 C5.8244,23.2 0.8,18.1756 0.8,12 C0.8,5.8244 5.8244,0.8 12,0.8 C18.1756,0.8 23.2,5.8244 23.2,12 C23.2,18.1756 18.1756,23.2 12,23.2 Z"
          id="Shape"></path>
        <path
          d="M12,8.8 C10.2356,8.8 8.8,10.2356 8.8,12 C8.8,13.7644 10.2356,15.2 12,15.2 C13.7644,15.2 15.2,13.7644 15.2,12 C15.2,10.2356 13.7644,8.8 12,8.8 Z M12,14.4 C10.6764,14.4 9.6,13.3236 9.6,12 C9.6,10.6764 10.6764,9.6 12,9.6 C13.3236,9.6 14.4,10.6764 14.4,12 C14.4,13.3236 13.3236,14.4 12,14.4 Z"
          id="Shape"></path>
        <path
          d="M12,6.4 C8.912,6.4 6.4,8.912 6.4,12 C6.4,15.088 8.912,17.6 12,17.6 C15.088,17.6 17.6,15.088 17.6,12 C17.6,8.912 15.088,6.4 12,6.4 Z M12,16.8 C9.3532,16.8 7.2,14.6468 7.2,12 C7.2,9.3532 9.3532,7.2 12,7.2 C14.6468,7.2 16.8,9.3532 16.8,12 C16.8,14.6468 14.6468,16.8 12,16.8 Z"
          id="Shape"></path>

      </symbol>  
    


     
  </svg>