<?xml version="1.0" encoding="UTF-8"?>
<svg width="24px" height="24px" viewBox="0 0 24 24" version="1.1" xmlns="http://www.w3.org/2000/svg" xmlns:xlink="http://www.w3.org/1999/xlink">
    <title>C7AC213B-AF59-4B9A-9B48-475F1152B936</title>
    <g id="SETTINGS" stroke="none" stroke-width="1" fill="none" fill-rule="evenodd">
        <g id="F-04-Notification" transform="translate(-786.000000, -321.000000)" fill="#FF3EB9">
            <g id="Compounds/Forms/Notifications" transform="translate(543.000000, 230.000000)">
                <g id="Elements/Tags/Grade" transform="translate(243.000000, 91.000000)">
                    <g id="error" transform="translate(8.000000, 8.000000)">
                        <path d="M7.88299853,0.117301466 C7.72659658,-0.0391004887 7.47379342,-0.0391004887 7.31739146,0.117301466 L4.00015,3.43454293 L0.682908536,0.117301466 C0.526506581,-0.0391004887 0.273703421,-0.0391004887 0.117301466,0.117301466 C-0.0391004887,0.273703421 -0.0391004887,0.526506581 0.117301466,0.682908536 L3.43454293,4.00015 L0.117301466,7.31739146 C-0.0391004887,7.47379342 -0.0391004887,7.72659658 0.117301466,7.88299853 C0.195302441,7.96099951 0.297703721,8.0002 0.400105001,8.0002 C0.502506281,8.0002 0.604907561,7.96099951 0.682908536,7.88299853 L4.00015,4.56575707 L7.31739146,7.88299853 C7.39539244,7.96099951 7.49779372,8.0002 7.600195,8.0002 C7.70259628,8.0002 7.80499756,7.96099951 7.88299853,7.88299853 C8.03940049,7.72659658 8.03940049,7.47379342 7.88299853,7.31739146 L4.56575707,4.00015 L7.88299853,0.682908536 C8.03940049,0.526506581 8.03940049,0.273703421 7.88299853,0.117301466 Z" id="Path"></path>
                    </g>
                </g>
            </g>
        </g>
    </g>
</svg>