<?xml version="1.0" encoding="UTF-8"?>
<svg width="28px" height="28px" viewBox="0 0 28 28" version="1.1" xmlns="http://www.w3.org/2000/svg" xmlns:xlink="http://www.w3.org/1999/xlink">
    <title>F571BDA3-5CB4-4A5D-A289-418D4249B651</title>
    <g id="A-:-Browse-Books" stroke="none" stroke-width="1" fill="none" fill-rule="evenodd">
        <g id="F-08-ViewTopicResources" transform="translate(-564.000000, -209.000000)">
            <g id="ChapterListingTemplate" transform="translate(-1.000000, 0.000000)">
                <g id="Side-Column" transform="translate(543.000000, 130.000000)">
                    <g id="Elements/List/BrowseBooks/Assign-Create" transform="translate(0.000000, 65.000000)">
                        <g id="Elements/Graphics/Style3/Oral/Black" transform="translate(35.901471, 28.000000) rotate(-10.000000) translate(-35.901471, -28.000000) translate(23.901471, 16.000000)">
                            <g id="Oral-Colour" transform="translate(0.000000, 1.000000)">
                                <path d="M14.9576271,3.86674767 L14.9576271,18.1332523 L2.53389831,12.7036227 L2.53389831,9.2963773 L14.9576271,3.86674767 Z" id="Path" stroke="#92A5D9" fill="#E7ECED" fill-rule="nonzero"></path>
                                <path d="M8.65464407,18.832 L4.01084746,16.7453846 C3.4999322,16.5157949 3.21762712,15.7486154 3.38277966,15.0401026 L3.38277966,15.0401026 C3.54833898,14.3315897 4.10155932,13.9401026 4.61247458,14.1691282 L9.25627119,16.2551795 C9.76718644,16.4847692 10.0494915,17.2519487 9.88433898,17.9604615 L9.88433898,17.9604615 C9.71877966,18.6695385 9.16555932,19.0610256 8.65464407,18.832 Z" id="Path" stroke="#92A5D9" stroke-width="2" stroke-linecap="round"></path>
                                <path d="M1.01694915,14.9487179 L1.01694915,14.9487179 C0.457627119,14.9487179 0,14.3141026 0,13.5384615 L0,8.46153846 C0,7.68589744 0.457627119,7.05128205 1.01694915,7.05128205 L1.01694915,7.05128205 C1.57627119,7.05128205 2.03389831,7.68589744 2.03389831,8.46153846 L2.03389831,13.5384615 C2.03389831,14.3141026 1.57627119,14.9487179 1.01694915,14.9487179 Z" id="Path" fill="#92A5D9" fill-rule="nonzero"></path>
                                <path d="M16.6779661,21.7179487 L16.6779661,21.7179487 C16.0067797,21.7179487 15.4576271,20.9564103 15.4576271,20.025641 L15.4576271,1.97435897 C15.4576271,1.04358974 16.0067797,0.282051282 16.6779661,0.282051282 L16.6779661,0.282051282 C17.3491525,0.282051282 17.8983051,1.04358974 17.8983051,1.97435897 L17.8983051,20.025641 C17.8983051,20.9564103 17.3491525,21.7179487 16.6779661,21.7179487 Z" id="Path" fill="#92A5D9" fill-rule="nonzero"></path>
                                <path d="M23.5932203,11.8226496 L23.1864407,11.8226496 C22.9614915,11.8226496 22.779661,11.5127105 22.779661,11.1292735 C22.779661,10.7458365 22.9614915,10.4358974 23.1864407,10.4358974 L23.5932203,10.4358974 C23.8181695,10.4358974 24,10.7458365 24,11.1292735 C24,11.5127105 23.8181695,11.8226496 23.5932203,11.8226496 Z M21.9661017,11.8226496 L21.559322,11.8226496 C21.3343729,11.8226496 21.1525424,11.5127105 21.1525424,11.1292735 C21.1525424,10.7458365 21.3343729,10.4358974 21.559322,10.4358974 L21.9661017,10.4358974 C22.1910508,10.4358974 22.3728814,10.7458365 22.3728814,11.1292735 C22.3728814,11.5127105 22.1910508,11.8226496 21.9661017,11.8226496 Z M20.3389831,11.8226496 L19.9322034,11.8226496 C19.7072542,11.8226496 19.5254237,11.5127105 19.5254237,11.1292735 C19.5254237,10.7458365 19.7072542,10.4358974 19.9322034,10.4358974 L20.3389831,10.4358974 C20.5639322,10.4358974 20.7457627,10.7458365 20.7457627,11.1292735 C20.7457627,11.5127105 20.5639322,11.8226496 20.3389831,11.8226496 Z" id="Shape" fill="#C7CAC7" fill-rule="nonzero"></path>
                                <path d="M19.9322034,5.00020513 C19.8280678,5.00020513 19.7239322,4.94492308 19.6446102,4.83492308 C19.4855593,4.61435897 19.4855593,4.25784615 19.6446102,4.03728205 L19.9322034,3.63846154 C20.0912542,3.41789744 20.348339,3.41789744 20.5073898,3.63846154 C20.6664407,3.85902564 20.6664407,4.21553846 20.5073898,4.43610256 L20.2197966,4.83492308 C20.1404746,4.94548718 20.036339,5.00020513 19.9322034,5.00020513 Z M21.0825763,3.40492308 C20.9784407,3.40492308 20.8743051,3.34964103 20.7949831,3.23964103 C20.6359322,3.01907692 20.6359322,2.6625641 20.7949831,2.442 L21.0825763,2.04317949 C21.2416271,1.82261538 21.4987119,1.82261538 21.6577627,2.04317949 C21.8168136,2.26374359 21.8168136,2.62025641 21.6577627,2.84082051 L21.3701695,3.23964103 C21.2908475,3.34964103 21.1867119,3.40492308 21.0825763,3.40492308 Z M22.2333559,1.80907692 C22.1292203,1.80907692 22.0250847,1.75379487 21.9457627,1.64379487 C21.7867119,1.42323077 21.7867119,1.06671795 21.9457627,0.846153846 L22.2333559,0.447333333 C22.3924068,0.226769231 22.6494915,0.226769231 22.8085424,0.447333333 C22.9675932,0.667897436 22.9675932,1.02441026 22.8085424,1.24497436 L22.5209492,1.64379487 C22.4416271,1.75379487 22.3374915,1.80907692 22.2333559,1.80907692 Z" id="Shape" fill="#C7CAC7" fill-rule="nonzero"></path>
                                <path d="M19.9322034,8.38482051 C19.7617627,8.38482051 19.6031186,8.23533333 19.5465763,7.99897436 C19.4753898,7.70394872 19.5901017,7.38410256 19.803661,7.28538462 L20.1892881,7.10712821 C20.4020339,7.00784615 20.632678,7.16805128 20.7038644,7.46364103 C20.7750508,7.75923077 20.660339,8.07851282 20.4467797,8.17723077 L20.0611525,8.35548718 C20.0184407,8.37579487 19.9745085,8.38482051 19.9322034,8.38482051 Z M21.4759322,7.67179487 C21.3054915,7.67179487 21.1468475,7.52230769 21.0903051,7.28594872 C21.0191186,6.99092308 21.1338305,6.67107692 21.3473898,6.57235897 L21.7330169,6.39410256 C21.9461695,6.29482051 22.1764068,6.45502564 22.2475932,6.75061538 C22.3187797,7.04620513 22.2040678,7.36548718 21.9905085,7.46420513 L21.6048814,7.64246154 C21.5621695,7.66220513 21.5182373,7.67179487 21.4759322,7.67179487 Z M23.019661,6.95764103 C22.8492203,6.95764103 22.6901695,6.80815385 22.6336271,6.57123077 C22.5628475,6.27620513 22.6779661,5.95635897 22.8915254,5.85764103 L23.2771525,5.67994872 C23.4894915,5.58292308 23.7205424,5.7414359 23.7917288,6.03758974 C23.8625085,6.33261538 23.7473898,6.65246154 23.5338305,6.75117949 L23.1482034,6.92887179 C23.1054915,6.94805128 23.0619661,6.95764103 23.019661,6.95764103 Z" id="Shape" fill="#C7CAC7" fill-rule="nonzero"></path>
                                <path d="M22.5209492,21.7179487 C22.4168136,21.7179487 22.312678,21.6626667 22.2333559,21.5526667 L21.9457627,21.1538462 C21.7867119,20.9332821 21.7867119,20.5767692 21.9457627,20.3562051 C22.1048136,20.135641 22.3618983,20.135641 22.5209492,20.3562051 L22.8085424,20.7550256 C22.9675932,20.9755897 22.9675932,21.3321026 22.8085424,21.5526667 C22.7292203,21.6626667 22.6250847,21.7179487 22.5209492,21.7179487 Z M21.3701695,20.1221026 C21.2660339,20.1221026 21.1618983,20.0668205 21.0825763,19.9568205 L20.7949831,19.558 C20.6359322,19.3374359 20.6359322,18.9809231 20.7949831,18.760359 C20.9540339,18.5397949 21.2111186,18.5397949 21.3701695,18.760359 L21.6577627,19.1591795 C21.8168136,19.3797436 21.8168136,19.7362564 21.6577627,19.9568205 C21.5784407,20.0668205 21.4743051,20.1221026 21.3701695,20.1221026 Z M20.2197966,18.5268205 C20.115661,18.5268205 20.0115254,18.4715385 19.9322034,18.3615385 L19.6446102,17.9627179 C19.4855593,17.7421538 19.4855593,17.385641 19.6446102,17.1650769 C19.803661,16.9445128 20.0607458,16.9445128 20.2197966,17.1650769 L20.5073898,17.5638974 C20.6664407,17.7844615 20.6664407,18.1409744 20.5073898,18.3615385 C20.4280678,18.4715385 20.3239322,18.5268205 20.2197966,18.5268205 Z" id="Shape" fill="#C7CAC7" fill-rule="nonzero"></path>
                                <path d="M23.4052881,16.3482564 C23.3629831,16.3482564 23.3194576,16.3386667 23.2771525,16.3194872 L22.8915254,16.1417949 C22.6783729,16.0430769 22.5628475,15.7237949 22.6336271,15.4282051 C22.7044068,15.1326154 22.9354576,14.9729744 23.1482034,15.0705641 L23.5338305,15.2482564 C23.7469831,15.3469744 23.8625085,15.6662564 23.7917288,15.9618462 C23.7347797,16.1993333 23.5757288,16.3482564 23.4052881,16.3482564 Z M21.8615593,15.6352308 C21.8192542,15.6352308 21.775322,15.625641 21.7330169,15.6058974 L21.3473898,15.427641 C21.1342373,15.3289231 21.0191186,15.009641 21.0903051,14.7140513 C21.1614915,14.4184615 21.3921356,14.2576923 21.6048814,14.3575385 L21.9905085,14.5357949 C22.203661,14.6345128 22.3187797,14.9537949 22.2475932,15.2493846 C22.1906441,15.4857436 22.032,15.6352308 21.8615593,15.6352308 Z M20.3178305,14.921641 C20.2755254,14.921641 20.2315932,14.9120513 20.1892881,14.8923077 L19.803661,14.7140513 C19.5905085,14.6153333 19.4753898,14.2960513 19.5465763,14.0004615 C19.6177627,13.7048718 19.848,13.5441026 20.0611525,13.6439487 L20.4467797,13.8222051 C20.6599322,13.9209231 20.7750508,14.2402051 20.7038644,14.5357949 C20.6469153,14.7727179 20.4882712,14.921641 20.3178305,14.921641 Z" id="Shape" fill="#C7CAC7" fill-rule="nonzero"></path>
                            </g>
                        </g>
                    </g>
                </g>
            </g>
        </g>
    </g>
</svg>