<?xml version="1.0" encoding="UTF-8"?>
<svg width="24px" height="25px" viewBox="0 0 24 25" version="1.1" xmlns="http://www.w3.org/2000/svg" xmlns:xlink="http://www.w3.org/1999/xlink">
    <title>0F45E377-2996-46F4-8154-C16CF1FA98AE</title>
    <g id="B-:-Create-a-Digital-Test" stroke="none" stroke-width="1" fill="none" fill-rule="evenodd">
        <g id="G-14-SC-SaveSettings" transform="translate(-876.000000, -594.000000)" fill-rule="nonzero">
            <g id="Screens/QuizSettings" transform="translate(872.000000, 258.000000)">
                <g id="Elements/CTAs/Internal/Link/Dark" transform="translate(0.000000, 334.000000)">
                    <g id="Elements/Graphics/Style3/Marker/Colour" transform="translate(4.000000, 3.000000)">
                        <g id="View/colour" transform="translate(0.000000, -0.000000)">
                            <g id="View" transform="translate(0.000000, 5.000000)">
                                <path d="M20.4653155,3.8690003 C18.0797361,1.48342092 14.9530259,0.290631579 11.8263158,0.290631579 C8.69960573,0.290631579 5.57289548,1.48342092 3.18731609,3.8690003 L0.282842712,6.77347368 L3.27026346,9.76089443 C5.65584285,12.1464738 8.78255309,13.3392632 11.9092632,13.3392632 C15.0359732,13.3392632 18.1626835,12.1464738 20.5482629,9.76089443 L23.4527362,6.85642105 L20.4653155,3.8690003 Z" id="Path" stroke="#363E4B" stroke-width="0.4" fill="#E7ECED"></path>
                                <circle id="Oval" fill="#363E4B" cx="11.856" cy="6.80252632" r="5.05263158"></circle>
                                <path d="M8.90863158,6.80252632 C8.67621053,6.80252632 8.48757895,6.61389474 8.48757895,6.38147368 C8.48757895,4.75621053 9.80968421,3.43410526 11.4349474,3.43410526 C11.6673684,3.43410526 11.856,3.62273684 11.856,3.85515789 C11.856,4.08757895 11.6673684,4.27621053 11.4349474,4.27621053 C10.2741053,4.27621053 9.32968421,5.22063158 9.32968421,6.38147368 C9.32968421,6.61389474 9.14147368,6.80252632 8.90863158,6.80252632 Z" id="Path" fill="#FFFFFF"></path>
                            </g>
                        </g>
                    </g>
                </g>
            </g>
        </g>
    </g>
</svg>