<?xml version="1.0" encoding="UTF-8"?>
<svg width="28px" height="28px" viewBox="0 0 28 28" version="1.1" xmlns="http://www.w3.org/2000/svg" xmlns:xlink="http://www.w3.org/1999/xlink">
    <title>A5C8DF6D-9ED2-474F-BD8F-2735FB9ED107</title>
    <g id="Syllabus-D" stroke="none" stroke-width="1" fill="none" fill-rule="evenodd">
        <g id="Syllabus-D-001" transform="translate(-564.000000, -334.000000)" fill-rule="nonzero">
            <g id="Group" transform="translate(543.000000, 120.000000)">
                <g id="Elements/List/BrowseBooks/Assign-Create-Copy-2" transform="translate(0.000000, 200.000000)">
                    <g id="Elements/Graphics/Style3/Oral/Black" transform="translate(35.000000, 28.000000) rotate(-10.000000) translate(-35.000000, -28.000000) translate(23.000000, 16.000000)">
                        <g id="print" transform="translate(2.000000, 2.000000)">
                            <polygon id="Path" fill="#C7CAC7" points="16.8965517 11.8333333 16.8965517 17.5 17.9310345 17.5 17.9310345 16.5 20 16.5 20 5.83333333 0 5.83333333 0 16.5 2.06896552 16.5 2.06896552 17.5 3.10344828 17.5 3.10344828 11.8333333"></polygon>
                            <polygon id="Path" fill="#556080" points="20 11.6666667 20 5.83333333 0 5.83333333 0 11.6666667 3.10344828 11.6666667 16.8965517 11.6666667"></polygon>
                            <rect id="Rectangle" fill="#7383BF" x="2.5" y="12.5" width="15.8333333" height="5.83333333"></rect>
                            <polygon id="Path" fill="#EDEADA" points="17.5 0 17.5 2.40196078 17.5 5.83333333 3.33333333 5.83333333 3.33333333 0"></polygon>
                            <polyline id="Path" fill="#EDEADA" points="17.5 11.6666667 17.5 20 3.33333333 20 3.33333333 11.6666667"></polyline>
                            <path d="M14.6474359,15 L6.18589744,15 C5.99092949,15 5.83333333,14.81375 5.83333333,14.5833333 C5.83333333,14.3529167 5.99092949,14.1666667 6.18589744,14.1666667 L14.6474359,14.1666667 C14.8424038,14.1666667 15,14.3529167 15,14.5833333 C15,14.81375 14.8424038,15 14.6474359,15 Z" id="Path" fill="#CEC9AE"></path>
                            <path d="M14.6474359,16.6666667 L6.18589744,16.6666667 C5.99092949,16.6666667 5.83333333,16.4804167 5.83333333,16.25 C5.83333333,16.0195833 5.99092949,15.8333333 6.18589744,15.8333333 L14.6474359,15.8333333 C14.8424038,15.8333333 15,16.0195833 15,16.25 C15,16.4804167 14.8424038,16.6666667 14.6474359,16.6666667 Z" id="Path" fill="#CEC9AE"></path>
                            <circle id="Oval" fill="#A4E869" cx="17.0833333" cy="8.75" r="1.25"></circle>
                        </g>
                    </g>
                </g>
            </g>
        </g>
    </g>
</svg>