<?xml version="1.0" encoding="UTF-8"?>
<svg width="195px" height="195px" viewBox="0 0 195 195" version="1.1" xmlns="http://www.w3.org/2000/svg" xmlns:xlink="http://www.w3.org/1999/xlink">
    <title>AFAC08A3-421A-47ED-AC90-479488927F86</title>
    <g id="Today--------------------------------------------" stroke="none" stroke-width="1" fill="none" fill-rule="evenodd">
        <g id="N---Lesson-Conclusion" transform="translate(-815.000000, -290.000000)" fill-rule="nonzero">
            <g id="Elements/Graphics/Page/Revise" transform="translate(815.000000, 290.000000)">
                <g id="Layer_2" transform="translate(35.500000, 17.500000)">
                    <ellipse id="Oval" fill="#2B63A5" opacity="0.2" cx="60.65" cy="153.1" rx="41.2" ry="9.5"></ellipse>
                    <g id="Group">
                        <g>
                            <circle id="Oval" fill="#6FAFEF" cx="60.15" cy="62.45" r="60.05"></circle>
                            <circle id="Oval" fill="#7DDAFF" cx="64" cy="60.05" r="60.05"></circle>
                            <path d="M42.9,33.35 L42.15,34.3 C41.45,35.15 41.15,36.3 41.35,37.35 L50.6,91.4 C51.15,94.5 54.95,95.7 57.15,93.5 L87.25,63.25 C87.35,63.15 87.4,63.1 87.45,63 L90.95,58.85 C92.55,56.9 91.95,54 89.7,52.9 L47.6,32.3 C46,31.5 44,31.95 42.9,33.35 Z" id="Path" fill="#269FDB"></path>
                            <path d="M47,31.6 L91.8,52.6 C93.6,53.45 94,55.8 92.6,57.2 L57.3,91.95 C55.65,93.55 52.9,92.65 52.5,90.4 L43,34.65 C42.6,32.4 44.9,30.65 47,31.6 Z" id="Path" fill="#3EC4ED"></path>
                            <path d="M50.15,36 L87.8,53.6 C89.3,54.3 89.65,56.3 88.45,57.45 L58.8,86.65 C57.45,88 55.1,87.25 54.8,85.35 L46.8,38.55 C46.45,36.65 48.4,35.2 50.15,36 Z" id="Path" fill="#50DEFF"></path>
                        </g>
                        <path d="M28.65,28.05 L25.8,25.6 C29.4,21.4 35.7,15.7 45,12.35 C50.85,10.25 56.95,9.4 63.2,9.8 L62.95,13.55 C57.2,13.2 51.6,14 46.25,15.9 C37.7,18.95 31.95,24.2 28.65,28.05 Z" id="Path" fill="#C2F6FF"></path>
                        <path d="M99.9,92.9 L103.05,95 C99.95,99.6 94.45,106 85.6,110.45 C80.05,113.25 74.1,114.8 67.85,115.2 L67.65,111.45 C73.4,111.1 78.85,109.65 83.95,107.1 C92,103.05 97.05,97.15 99.9,92.9 Z" id="Path" fill="#57C7EA"></path>
                    </g>
                    <circle id="Oval" fill="#69DCF7" cx="46" cy="34.35" r="1.95"></circle>
                </g>
            </g>
        </g>
    </g>
</svg>