<?xml version="1.0" encoding="UTF-8"?>
<svg width="300px" height="300px" viewBox="0 0 300 300" version="1.1" xmlns="http://www.w3.org/2000/svg" xmlns:xlink="http://www.w3.org/1999/xlink">
    <title>C2CB7404-0C55-4F99-9E3A-D81D92D5995D</title>
    <defs>
        <radialGradient cx="59.8646273%" cy="14.7293408%" fx="59.8646273%" fy="14.7293408%" r="55.5907078%" gradientTransform="translate(0.598646,0.147293),scale(0.791469,1.000000),translate(-0.598646,-0.147293)" id="radialGradient-1">
            <stop stop-color="#D6ECFE" offset="0%"></stop>
            <stop stop-color="#CFF0FE" offset="57%"></stop>
            <stop stop-color="#C6F5FF" offset="100%"></stop>
        </radialGradient>
        <linearGradient x1="48.0596137%" y1="58.3606557%" x2="43.716146%" y2="76.0813306%" id="linearGradient-2">
            <stop stop-color="#344583" offset="36%"></stop>
            <stop stop-color="#334884" offset="38%"></stop>
            <stop stop-color="#276796" offset="63%"></stop>
            <stop stop-color="#207BA0" offset="85%"></stop>
            <stop stop-color="#1D82A4" offset="100%"></stop>
        </linearGradient>
        <linearGradient x1="52.0936185%" y1="-0.275551684%" x2="48.0641157%" y2="98.0746225%" id="linearGradient-3">
            <stop stop-color="#FFC9A9" offset="17%"></stop>
            <stop stop-color="#FDCAAA" offset="18%"></stop>
            <stop stop-color="#F2D0B4" offset="28%"></stop>
            <stop stop-color="#EBD3B9" offset="41%"></stop>
            <stop stop-color="#E9D4BB" offset="80%"></stop>
            <stop stop-color="#A7F6FF" offset="86%"></stop>
            <stop stop-color="#A4F3FF" offset="89%"></stop>
            <stop stop-color="#A1F0FF" offset="90%"></stop>
        </linearGradient>
        <linearGradient x1="73.306797%" y1="95.4482555%" x2="-7.30864612%" y2="21.4623091%" id="linearGradient-4">
            <stop stop-color="#616CB2" offset="0%"></stop>
            <stop stop-color="#D2B84F" offset="0%"></stop>
            <stop stop-color="#CFA84D" offset="2%"></stop>
            <stop stop-color="#CA944B" offset="6%"></stop>
            <stop stop-color="#C7864A" offset="10%"></stop>
            <stop stop-color="#C67D49" offset="15%"></stop>
            <stop stop-color="#C57B49" offset="23%"></stop>
            <stop stop-color="#C77C49" offset="33%"></stop>
            <stop stop-color="#CE8049" offset="36%"></stop>
            <stop stop-color="#D98648" offset="38%"></stop>
            <stop stop-color="#DC8748" offset="39%"></stop>
            <stop stop-color="#E09159" offset="40%"></stop>
            <stop stop-color="#E69E6F" offset="41%"></stop>
            <stop stop-color="#EAA980" offset="43%"></stop>
            <stop stop-color="#EDB08B" offset="46%"></stop>
            <stop stop-color="#EFB492" offset="49%"></stop>
            <stop stop-color="#EFB594" offset="59%"></stop>
            <stop stop-color="#EDB595" offset="76%"></stop>
            <stop stop-color="#E6B698" offset="82%"></stop>
            <stop stop-color="#DBB89C" offset="87%"></stop>
            <stop stop-color="#CABAA3" offset="90%"></stop>
            <stop stop-color="#B4BDAC" offset="93%"></stop>
            <stop stop-color="#98C0B7" offset="96%"></stop>
            <stop stop-color="#79C5C4" offset="98%"></stop>
            <stop stop-color="#67C7CB" offset="99%"></stop>
        </linearGradient>
        <linearGradient x1="47.2474715%" y1="16.3245735%" x2="55.3306978%" y2="97.913252%" id="linearGradient-5">
            <stop stop-color="#743D64" offset="47%"></stop>
            <stop stop-color="#774061" offset="52%"></stop>
            <stop stop-color="#7F4857" offset="56%"></stop>
            <stop stop-color="#8E5547" offset="59%"></stop>
            <stop stop-color="#A26930" offset="62%"></stop>
            <stop stop-color="#AA7027" offset="63%"></stop>
            <stop stop-color="#C09343" offset="69%"></stop>
            <stop stop-color="#DEC168" offset="76%"></stop>
            <stop stop-color="#F0DD7E" offset="82%"></stop>
            <stop stop-color="#F7E887" offset="86%"></stop>
        </linearGradient>
        <linearGradient x1="-0.0136638745%" y1="50.0440538%" x2="100.073765%" y2="50.0440538%" id="linearGradient-6">
            <stop stop-color="#DC8E00" offset="21%"></stop>
            <stop stop-color="#DC9006" offset="30%"></stop>
            <stop stop-color="#DE9717" offset="42%"></stop>
            <stop stop-color="#E0A134" offset="56%"></stop>
            <stop stop-color="#E2B05B" offset="71%"></stop>
            <stop stop-color="#E6C38D" offset="87%"></stop>
            <stop stop-color="#E9D4BB" offset="100%"></stop>
        </linearGradient>
        <linearGradient x1="10.3601381%" y1="17.3619126%" x2="60.0641342%" y2="84.8444448%" id="linearGradient-7">
            <stop stop-color="#DC651D" offset="49%"></stop>
            <stop stop-color="#DD6621" offset="61%"></stop>
            <stop stop-color="#DE6A2C" offset="71%"></stop>
            <stop stop-color="#E1713F" offset="81%"></stop>
            <stop stop-color="#E47A59" offset="91%"></stop>
            <stop stop-color="#E98579" offset="100%"></stop>
        </linearGradient>
        <linearGradient x1="47.6731627%" y1="2.5881814%" x2="52.2590653%" y2="97.5721484%" id="linearGradient-8">
            <stop stop-color="#C9B1D5" offset="9%"></stop>
            <stop stop-color="#8BA0CF" stop-opacity="0.62" offset="41%"></stop>
            <stop stop-color="#2383C5" stop-opacity="0" offset="94%"></stop>
        </linearGradient>
        <linearGradient x1="15.5858311%" y1="5.77452752%" x2="72.8065395%" y2="81.4536769%" id="linearGradient-9">
            <stop stop-color="#DAA458" offset="14%"></stop>
            <stop stop-color="#D69F59" offset="21%"></stop>
            <stop stop-color="#CC905B" offset="31%"></stop>
            <stop stop-color="#BA785E" offset="41%"></stop>
            <stop stop-color="#A25663" offset="52%"></stop>
            <stop stop-color="#913D66" offset="59%"></stop>
            <stop stop-color="#AF7D90" offset="74%"></stop>
            <stop stop-color="#DADACD" offset="96%"></stop>
        </linearGradient>
        <linearGradient x1="100.85793%" y1="78.6206085%" x2="-7.34495545%" y2="33.5398998%" id="linearGradient-10">
            <stop stop-color="#D8B29D" offset="8%"></stop>
            <stop stop-color="#DAA458" offset="37%"></stop>
            <stop stop-color="#D59F56" offset="41%"></stop>
            <stop stop-color="#C8904F" offset="46%"></stop>
            <stop stop-color="#B27843" offset="51%"></stop>
            <stop stop-color="#935633" offset="56%"></stop>
            <stop stop-color="#915332" offset="56%"></stop>
            <stop stop-color="#AC8268" offset="67%"></stop>
            <stop stop-color="#D9D3C5" offset="85%"></stop>
            <stop stop-color="#DADACD" offset="99%"></stop>
        </linearGradient>
        <linearGradient x1="56.4344988%" y1="78.7500263%" x2="45.7074801%" y2="19.3932779%" id="linearGradient-11">
            <stop stop-color="#FCFAE3" offset="14%"></stop>
            <stop stop-color="#FCFAE5" offset="33%"></stop>
            <stop stop-color="#FEFCEC" offset="39%"></stop>
            <stop stop-color="#FFFDF3" offset="43%"></stop>
            <stop stop-color="#FFFCF0" offset="44%"></stop>
            <stop stop-color="#FFFBE7" offset="46%"></stop>
            <stop stop-color="#FFF8D8" offset="47%"></stop>
            <stop stop-color="#FEF4C3" offset="48%"></stop>
            <stop stop-color="#FEEFA7" offset="48%"></stop>
            <stop stop-color="#FDE985" offset="49%"></stop>
            <stop stop-color="#FDE677" offset="50%"></stop>
            <stop stop-color="#FDE67B" offset="51%"></stop>
            <stop stop-color="#FDE786" offset="57%"></stop>
            <stop stop-color="#FDE78D" offset="65%"></stop>
            <stop stop-color="#FDE78F" offset="88%"></stop>
        </linearGradient>
        <linearGradient x1="52.7874269%" y1="59.8635287%" x2="48.0719027%" y2="43.1070963%" id="linearGradient-12">
            <stop stop-color="#F2633A" offset="0%"></stop>
            <stop stop-color="#DF3E7A" offset="53%"></stop>
            <stop stop-color="#DF407C" offset="67%"></stop>
            <stop stop-color="#DF4781" offset="72%"></stop>
            <stop stop-color="#E0528B" offset="75%"></stop>
            <stop stop-color="#E06398" offset="78%"></stop>
            <stop stop-color="#E179AA" offset="81%"></stop>
            <stop stop-color="#E28EBB" offset="83%"></stop>
            <stop stop-color="#D85A9A" offset="90%"></stop>
            <stop stop-color="#CC1A73" offset="99%"></stop>
        </linearGradient>
        <linearGradient x1="27.2584737%" y1="8.07025451%" x2="79.8197934%" y2="105.73493%" id="linearGradient-13">
            <stop stop-color="#F7C6C9" offset="26%"></stop>
            <stop stop-color="#F5BEC7" offset="35%"></stop>
            <stop stop-color="#EB9DBF" offset="76%"></stop>
            <stop stop-color="#E790BC" offset="99%"></stop>
        </linearGradient>
        <linearGradient x1="19.3118757%" y1="28.8920091%" x2="69.8113208%" y2="65.3861554%" id="linearGradient-14">
            <stop stop-color="#0E1639" offset="18%"></stop>
            <stop stop-color="#0E1639" stop-opacity="0.61" offset="34%"></stop>
            <stop stop-color="#0E1639" stop-opacity="0.27" offset="54%"></stop>
            <stop stop-color="#0E1639" stop-opacity="0.07" offset="74%"></stop>
            <stop stop-color="#0E1639" stop-opacity="0" offset="94%"></stop>
        </linearGradient>
        <linearGradient x1="3682.15135%" y1="-4792.19848%" x2="3734.4938%" y2="-4889.72527%" id="linearGradient-15">
            <stop stop-color="#F7C6C9" offset="26%"></stop>
            <stop stop-color="#F5BEC7" offset="35%"></stop>
            <stop stop-color="#EB9DBF" offset="76%"></stop>
            <stop stop-color="#E790BC" offset="99%"></stop>
        </linearGradient>
        <linearGradient x1="3359.37847%" y1="-2616.01218%" x2="3409.87791%" y2="-2652.57024%" id="linearGradient-16">
            <stop stop-color="#0E1639" offset="18%"></stop>
            <stop stop-color="#0E1639" stop-opacity="0.61" offset="34%"></stop>
            <stop stop-color="#0E1639" stop-opacity="0.27" offset="54%"></stop>
            <stop stop-color="#0E1639" stop-opacity="0.07" offset="74%"></stop>
            <stop stop-color="#0E1639" stop-opacity="0" offset="94%"></stop>
        </linearGradient>
        <linearGradient x1="3718.65798%" y1="-4856.16293%" x2="3771.39839%" y2="-4953.77549%" id="linearGradient-17">
            <stop stop-color="#F7C6C9" offset="26%"></stop>
            <stop stop-color="#F5BEC7" offset="35%"></stop>
            <stop stop-color="#EB9DBF" offset="76%"></stop>
            <stop stop-color="#E790BC" offset="99%"></stop>
        </linearGradient>
        <linearGradient x1="3359.37847%" y1="-2643.2052%" x2="3409.87791%" y2="-2679.76912%" id="linearGradient-18">
            <stop stop-color="#0E1639" offset="18%"></stop>
            <stop stop-color="#0E1639" stop-opacity="0.61" offset="34%"></stop>
            <stop stop-color="#0E1639" stop-opacity="0.27" offset="54%"></stop>
            <stop stop-color="#0E1639" stop-opacity="0.07" offset="74%"></stop>
            <stop stop-color="#0E1639" stop-opacity="0" offset="94%"></stop>
        </linearGradient>
        <linearGradient x1="-130.210552%" y1="64.8954478%" x2="-60.2652516%" y2="137.708975%" id="linearGradient-19">
            <stop stop-color="#134C93" offset="19%"></stop>
            <stop stop-color="#144A90" offset="35%"></stop>
            <stop stop-color="#164585" offset="48%"></stop>
            <stop stop-color="#1B3C74" offset="61%"></stop>
            <stop stop-color="#1F3362" offset="70%"></stop>
            <stop stop-color="#3D72B8" offset="95%"></stop>
        </linearGradient>
        <linearGradient x1="31.7408643%" y1="21.6601429%" x2="59.623568%" y2="49.9286974%" id="linearGradient-20">
            <stop stop-color="#4180C1" offset="14%"></stop>
            <stop stop-color="#3462A8" offset="31%"></stop>
            <stop stop-color="#294892" offset="50%"></stop>
            <stop stop-color="#253E8A" offset="61%"></stop>
            <stop stop-color="#156AA4" offset="73%"></stop>
            <stop stop-color="#0A8BB8" offset="84%"></stop>
            <stop stop-color="#039FC4" offset="94%"></stop>
            <stop stop-color="#00A6C8" offset="100%"></stop>
        </linearGradient>
        <linearGradient x1="-39.0553891%" y1="117.69218%" x2="-7.93122516%" y2="143.902962%" id="linearGradient-21">
            <stop stop-color="#83ADDC" offset="0%"></stop>
            <stop stop-color="#3A78BB" offset="71%"></stop>
            <stop stop-color="#3473B8" offset="77%"></stop>
            <stop stop-color="#7EABD9" offset="96%"></stop>
        </linearGradient>
        <linearGradient x1="-60.7032838%" y1="127.556017%" x2="8.526581%" y2="210.012448%" id="linearGradient-22">
            <stop stop-color="#83ADDC" offset="19%"></stop>
            <stop stop-color="#3473B8" offset="81%"></stop>
            <stop stop-color="#7EABD9" offset="96%"></stop>
        </linearGradient>
        <linearGradient x1="-61.8024691%" y1="129.155925%" x2="7.45903479%" y2="211.634096%" id="linearGradient-23">
            <stop stop-color="#83ADDC" offset="19%"></stop>
            <stop stop-color="#3473B8" offset="87%"></stop>
            <stop stop-color="#7EABD9" offset="100%"></stop>
        </linearGradient>
        <linearGradient x1="-61.4665323%" y1="129.097713%" x2="7.63791607%" y2="211.575884%" id="linearGradient-24">
            <stop stop-color="#83ADDC" offset="19%"></stop>
            <stop stop-color="#3473B8" offset="86%"></stop>
            <stop stop-color="#7EABD9" offset="96%"></stop>
        </linearGradient>
        <linearGradient x1="-2204.35451%" y1="-36321.6667%" x2="-2097.09793%" y2="-36328.125%" id="linearGradient-25">
            <stop stop-color="#83ADDC" offset="19%"></stop>
            <stop stop-color="#3473B8" offset="81%"></stop>
            <stop stop-color="#7EABD9" offset="96%"></stop>
        </linearGradient>
        <linearGradient x1="51.4827586%" y1="63.0376628%" x2="54.7310345%" y2="95.5696567%" id="linearGradient-26">
            <stop stop-color="#4180C1" offset="9%"></stop>
            <stop stop-color="#3F7BBD" offset="19%"></stop>
            <stop stop-color="#396DB1" offset="31%"></stop>
            <stop stop-color="#2F559E" offset="44%"></stop>
            <stop stop-color="#253E8A" offset="55%"></stop>
            <stop stop-color="#25519F" offset="95%"></stop>
        </linearGradient>
        <linearGradient x1="-54.9090909%" y1="120.176591%" x2="-32.9586777%" y2="238.160164%" id="linearGradient-27">
            <stop stop-color="#134C93" offset="19%"></stop>
            <stop stop-color="#144A90" offset="34%"></stop>
            <stop stop-color="#164585" offset="47%"></stop>
            <stop stop-color="#1B3C74" offset="58%"></stop>
            <stop stop-color="#1F3362" offset="67%"></stop>
            <stop stop-color="#0B77BD" offset="95%"></stop>
        </linearGradient>
    </defs>
    <g id="Full-Schedule---Jira" stroke="none" stroke-width="1" fill="none" fill-rule="evenodd">
        <g id="AFS-2209-Full-Schedule---02" transform="translate(-70.000000, -205.000000)">
            <g id="Templates/Global/MegaHeader/Type1/Desktop" transform="translate(18.000000, 90.000000)">
                <g id="Graphs/StudyRings/Overlap" transform="translate(52.000000, 115.000000)">
                    <g id="Full-Schedule" transform="translate(38.000000, 55.000000)">
                        <path d="M11.2501056,100.443912 C4.10040287,108.488024 0.104213345,118.859009 0.00302856831,129.632535 C-0.098530816,137.691902 2.35651113,145.575258 7.01395326,152.145233 C13.0074614,160.119254 20.7768239,162.548548 27.4547759,164.625502 C35.4526685,166.94033 43.8417415,167.571698 52.094754,166.479925 C62.953363,165.571258 64.0262749,163.568481 76.4387564,161.306084 C88.2563176,159.11775 100.309336,158.494281 112.288815,159.451661 C123.387904,160.45305 122.777454,162.010765 139.722063,164.013542 C154.890819,165.867966 161.08781,165.237462 163.77009,164.92221 C170.688522,164.124808 177.828936,163.308862 185.968269,158.542994 C193.623534,153.887227 199.900812,147.267942 204.152276,139.368257 C208.668108,130.634769 210.980025,120.924897 210.885724,111.088302 C211.504422,100.24829 209.604723,89.4122655 205.336179,79.433296 C201.636483,71.4592758 200.08261,72.5719298 192.387242,58.7564762 C191.462318,57.0689511 190.685381,55.6039566 182.583046,38.9697797 C174.480711,22.3356028 173.796267,20.7964314 171.668942,17.977708 C167.32774,11.7070289 161.438498,6.67218004 154.576344,3.36485245 C147.525241,-0.0297091881 139.5234,-0.8875327 131.915704,0.935557936 C124.072348,3.01251203 119.077757,7.66711449 113.713198,12.803867 C107.871705,18.6252071 102.793138,25.1682718 98.5999378,32.2753116 C90.6455906,44.5145053 79.5465013,61.519567 63.0458554,72.1454124 C55.2764929,77.1523553 56.1089246,74.4263531 33.6517674,85.8310563 C18.1130425,93.7123553 14.4688415,96.6608884 11.2501056,100.443912 Z" id="Path" fill="url(#radialGradient-1)" fill-rule="nonzero"></path>
                        <path d="M102.689494,196.919049 C92.9821281,200.506945 83.5351128,207.965993 80.9316046,213.215652 C78.3280965,218.465311 77.8259913,229.531139 82.7912533,234.516426 C87.7565153,239.501714 100.662477,242.069892 107.134055,240.578083 C111.488539,239.560213 115.76949,238.241584 119.947034,236.631397 C121.806683,235.838283 136.683872,227.189564 139.510538,226.377567 C142.337204,225.565569 148.567027,221.637767 157.623516,223.469482 C166.680005,225.301198 170.324917,226.377567 176.796494,224.526967 C183.268072,222.676368 190,216.633595 190,209.797709 C189.987248,202.053626 185.072233,195.195879 177.819301,192.80241 C169.506671,189.818791 136.869837,184.304761 102.689494,196.919049 Z" id="Path" fill="#DDE5ED" fill-rule="nonzero"></path>
                        <g id="Layer_6" transform="translate(36.000000, 32.000000)">
                            <g id="Layer0_0_MEMBER_0_FILL" transform="translate(0.000000, 34.379291)" fill="url(#linearGradient-2)" fill-rule="nonzero">
                                <path d="M4.61002513,0.618535469 C2.73007674,1.50549199 1.35721969,4.03085431 0.49145399,8.19462243 L6.70641494,51.2120137 L10.9548509,88.704405 L10.7136733,124.422883 C10.7136733,129.35042 12.8038791,131.537014 16.9842907,130.982666 L30.3789229,128.672883 L20.3607769,86.7641876 L4.61002513,0.618535469 Z" id="Path"></path>
                            </g>
                            <g id="Layer0_0_MEMBER_2_FILL" transform="translate(0.000000, 36.956522)" fill="url(#linearGradient-3)" fill-rule="nonzero">
                                <path d="M1.5860292,11.0684783 C0.881048557,5.72826087 0.82539219,2.30978261 1.38195586,0.776086957 C0.213172156,3.56630435 0.305932767,7.1326087 0.65842309,11.5119565 L8.07927199,67.2793478 C10.206582,87.4576087 10.9362988,103.213406 10.2684224,114.546739 C10.1571097,120.755435 10.2684224,126.169565 12.1236346,127.278261 L13.1254492,128.054348 C11.9566655,127.130435 11.7154879,124.986957 11.6412795,121.291304 L11.6412795,113.179348 C11.9699466,95.6515893 10.9341096,78.1248225 8.54307504,60.7565217 L1.5860292,11.0684783 Z" id="Path"></path>
                            </g>
                            <g id="Layer0_0_MEMBER_1_FILL" transform="translate(0.732632, 20.326087)" fill="url(#linearGradient-4)" fill-rule="nonzero">
                                <path d="M23.3014655,2.19891304 C22.2810988,2.19891304 20.4629908,-0.110869565 18.811852,0.997826087 L3.97015416,12.2141304 C1.44706553,14.6163043 0.259729711,20.4184783 0.927606112,23.8369565 L23.3571219,139.861957 C25.3607511,146.107609 29.6895796,148.737681 36.3436075,147.752174 L138.194759,123.841304 C141.588515,123.004752 144.755582,121.433832 147.47082,119.240217 L158.936031,110.352174 L54.2649576,131.269565 L44.3024679,124.173913 L20.6485121,7.87173913 L23.3014655,2.19891304 Z" id="Path"></path>
                            </g>
                            <g id="Layer0_0_MEMBER_3_FILL" transform="translate(13.719117, 14.782609)" fill="url(#linearGradient-5)" fill-rule="nonzero">
                                <path d="M147.266746,106.323913 L147.266746,106.13913 L121.850339,0.813043478 L90.3117311,2.38369565 L66.3609413,3.28913043 L42.7626418,4.5826087 L21.9286085,5.67282609 L5.23169847,6.85543478 C1.26154431,8.8326087 -0.074208489,12.5282609 1.22444007,17.9423913 L24.5444577,133.320652 L24.5444577,133.56087 C26.7954486,139.60942 31.408743,142.017754 38.3843409,140.78587 L138.565801,119.572826 C145.825865,118.242391 148.72618,113.826087 147.266746,106.323913 Z" id="Path"></path>
                            </g>
                            <g id="Group" opacity="0.3" transform="translate(39.692088, 75.760870)" stroke="#77486A" stroke-linecap="square" stroke-linejoin="round" stroke-width="0.61">
                                <path d="M8.71949745,59.3891304 L8.90501868,59.3891304 L6.02943973,46.6206522 L2.98689168,33.0576087 L0.129864856,20.2152174 L20.3702302,16.15 L39.9612713,12.1032609 L59.032853,8.1673913 L78.7908632,4.10217391 L97.6954757,0.184782609 L100.571055,12.9163043 L103.613603,26.4793478 L109.179239,51.4065217 L109.179239,51.4065217 L109.179239,51.4065217 L90.2004183,55.323913 L70.4609603,59.3891304 L51.3893786,63.325 L31.7797854,67.3717391 L11.6507328,71.5293478 L8.9235708,59.3706522 L29.0711756,55.2130435 L26.1584924,42.3891304 L6.02943973,46.5836957 M58.9400924,8.1673913 L61.7971192,20.898913 L81.5922336,16.8336957 L78.7352068,4.10217391 M39.8685107,12.1032609 L42.7255375,24.8347826 L61.7971192,20.898913 L64.8953236,34.4619565 L84.6533338,30.3782609 L81.5922336,16.8152174 L100.496846,12.9163043 M20.3702302,16.15 L23.227257,28.8815217 L42.7255375,24.8347826 L45.7680856,38.3793478 L64.8953236,34.4619565 L67.7709025,47.2304348 L87.5289127,43.1467391 L84.6533338,30.3782609 L103.576498,26.4793478 M45.7680856,38.3793478 L48.6436645,51.1663043 L67.7152462,47.2304348 L70.4609603,59.3891304 M51.3893786,63.325 L48.6622166,51.1663043 L29.0526234,55.2130435 L31.7797854,67.3717391 M23.1159443,28.8815217 L26.1584924,42.3891304 L45.7680856,38.3423913 M2.98689168,32.9836957 L23.1159443,28.8445652 M106.192348,39.2478261 L87.4547042,43.1097826 L90.2004183,55.323913" id="Layer0_0_MEMBER_4_1_STROKES"></path>
                            </g>
                            <g id="Layer0_0_MEMBER_9_FILL" transform="translate(3.587844, 24.021739)" fill="url(#linearGradient-6)" fill-rule="nonzero">
                                <path d="M4.32445908,6.11630435 L2.59911171,7.40978261 C0.840177649,9.46060138 -0.0569137206,12.1080674 0.0945752122,14.801087 L0.447065535,16.7597826 L24.045365,132.766304 C24.0514554,132.809207 24.0514554,132.85275 24.045365,132.895652 C25.9813688,137.503974 30.5718109,140.444274 35.5847851,140.286957 L35.6960978,140.286957 L141.814237,117.484783 L143.372615,116.505435 L35.5847851,139.344565 C31.028278,139.424974 26.8827989,136.730891 25.1213881,132.544565 L1.22625467,14.7641304 C0.970403643,11.5729395 2.09809832,8.42527519 4.32445908,6.11630435 M8.03488353,3.32608696 L8.03488353,3.32608696 C5.85817452,5.48970164 4.70518984,8.47149741 4.86247063,11.5304348 L28.7947083,129.791304 C28.7947083,129.791304 28.7947083,129.791304 28.7947083,129.920652 C30.6944733,134.562365 35.2849233,137.544217 40.3155762,137.404348 L40.4454411,137.404348 L145.524661,114.75 L146.749102,113.844565 L40.2599199,136.351087 C35.7034128,136.431495 31.5579337,133.737412 29.7965229,129.551087 L5.67876401,11.2902174 C5.27397175,8.07393771 6.43955254,4.85902618 8.81407267,2.6423913 M11.9493813,0.314130435 C10.3353467,1.09021739 8.4244781,5.74673913 9.07380238,9.10978261 C9.57470968,11.6967391 32.5978934,126.853261 32.5978934,126.853261 C32.589849,126.889783 32.589849,126.927608 32.5978934,126.96413 C34.4873602,131.616672 39.0819751,134.6086 44.1187613,134.466304 L44.2486261,134.466304 L148.752731,112.292391 L150.978985,110.592391 L44.1744177,133.394565 C39.6134693,133.509374 35.4531096,130.812968 33.7110207,126.613043 L9.94575212,8.86956522 C9.24077148,2.975 11.9493813,0.314130435 11.9493813,0.314130435 Z" id="Shape"></path>
                            </g>
                            <g id="Layer0_0_MEMBER_9_FILL-2" transform="translate(0.732632, 25.140160)" fill="url(#linearGradient-7)" fill-rule="nonzero">
                                <path d="M5.34301121,6.30983982 L3.89594567,7.40005721 C1.97635957,9.45225352 0.90905399,12.1528418 0.90905399,14.9576659 C0.90905399,14.9576659 1.26154431,16.8978833 1.26154431,16.9163616 L24.8783959,132.941362 C24.8703516,132.977884 24.8703516,133.015709 24.8783959,133.052231 C26.7948473,137.668349 31.3870229,140.614496 36.3992638,140.443535 C36.4337041,140.46334 36.4761363,140.46334 36.5105766,140.443535 L142.109256,117.585927 L143.816052,116.662014 L36.3436075,139.390275 C31.8297126,139.463397 27.7184942,136.813788 25.9358669,132.682666 L2.04073345,14.8837529 C1.8455577,11.6847197 3.04979743,8.55807578 5.34301121,6.30983982 M10.0552503,2.76201373 L9.14619626,3.44570938 C6.82566416,5.5591049 5.54536838,8.57505067 5.63984516,11.705492 L29.6462913,129.966362 C29.6543357,130.002884 29.6543357,130.040709 29.6462913,130.077231 C31.5468391,134.729117 36.1452847,137.718724 41.1857114,137.579405 L41.2970241,137.579405 L146.895704,114.925057 L148.138696,113.890275 L41.0929508,136.489188 C36.5274329,136.600986 32.365748,133.896371 30.6295538,129.689188 L6.51179491,11.4283181 C6.18362231,8.14939739 7.47780312,4.91648684 9.98104177,2.76201373 M12.7824122,0.618535469 C11.3910031,1.39462243 9.31316537,5.79244851 9.96248964,9.15549199 C10.4633969,11.7424485 33.4865806,126.89897 33.4865806,126.89897 C33.4804903,126.941873 33.4804903,126.985416 33.4865806,127.028318 C35.4158978,131.633727 39.9996766,134.574487 45.0074486,134.419622 L45.1373134,134.419622 L149.956804,112.245709 L151.329661,111.137014 L44.9517922,133.310927 C40.3862744,133.422725 36.2245894,130.718111 34.4883952,126.510927 L10.7602309,8.97070938 C10.0552503,3.09462243 12.7824122,0.710926773 12.7824122,0.710926773 L12.7824122,0.618535469 Z" id="Shape"></path>
                            </g>
                            <polygon id="Path" fill="url(#linearGradient-8)" fill-rule="nonzero" opacity="0.46" points="6.3353725 37.048913 2.71770866 39.4326087 18.5241168 117.725 22.5313752 116.671739"></polygon>
                            <g id="Layer0_0_MEMBER_5_MEMBER_0_FILL" transform="translate(139.140917, 89.695652)" fill="url(#linearGradient-9)" fill-rule="nonzero">
                                <polygon id="Path" points="34.2563165 1.95652174 31.75178 -0.00217391305 15.0548699 0.348913043 0.213172156 30.2467391 3.03309474 31.4108696"></polygon>
                            </g>
                            <g id="Layer0_0_MEMBER_5_MEMBER_1_FILL" transform="translate(15.574329, 20.326087)" fill="url(#linearGradient-10)" fill-rule="nonzero">
                                <path d="M146.524661,72.1576087 L156.579912,72.1576087 C157.841456,71.825 157.897112,71.0858696 157.748695,70.051087 C156.942489,68.4633336 155.998948,66.9485497 154.928773,65.523913 L155.68941,68.351087 L141.571245,68.351087 L136.005608,72.25 L126.247192,94.423913 L120.681555,98.4706522 L66.8804007,109.705435 L57.0477759,107.672826 L19.9435314,66.1521739 L13.4502886,55.5086957 L3.35793413,6.24565217 L5.39866757,0.240217391 L2.43032801,2.42065217 C0.772928606,4.13759826 -0.0237463621,6.50454363 0.259729711,8.86956522 L9.83262479,56.598913 C10.6879363,60.1321795 12.3944453,63.404765 14.8045935,66.1336957 L53.7640503,110.352174 C57.4481074,113.554476 62.3631425,114.974432 67.1957868,114.232609 L120.347617,103.145652 C125.560763,102.295652 127.768466,100.226087 129.196979,97.1217391 L138.47304,76.3152174 C139.400647,72.8967391 142.814237,72.176087 146.524661,72.1576087 Z" id="Path"></path>
                            </g>
                            <g id="Layer0_0_MEMBER_5_MEMBER_2_FILL" transform="translate(16.696910, 11.086957)" fill="url(#linearGradient-11)" fill-rule="nonzero">
                                <path d="M153.602119,79.9184783 C157.665034,80.0663043 156.310729,78.6065217 154.529725,74.9663043 L138.945942,57.5782609 C136.052062,54.5700965 133.993418,50.8640079 132.972159,46.823913 L123.955828,8.35217391 C122.397449,2.55 118.594264,-0.190942029 112.546272,0.129347826 L5.51907912,9.12826087 C1.252091,10.2123188 -0.4176,12.940942 0.510006112,17.3141304 L9.78606723,65.7086957 C10.7578174,69.4200727 12.6748562,72.8188162 15.3517039,75.576087 L53.4206587,118.390217 C56.5745195,121.605435 61.1754458,122.590942 67.2234377,121.346739 L120.894727,110.38913 C123.11209,109.878059 124.979709,108.398059 125.978009,106.36087 L136.756792,83.7065217 C138.025436,81.2404161 140.663096,79.7808838 143.435556,80.0108696 L153.602119,79.9184783 Z" id="Path"></path>
                            </g>
                            <g id="Layer0_0_MEMBER_5_MEMBER_4_FILL" transform="translate(16.696910, 11.086957)" fill="url(#linearGradient-12)" fill-rule="nonzero">
                                <path d="M129.577121,32.8913043 L123.844515,8.37065217 C122.273768,2.5807971 118.464399,-0.153985507 112.416407,0.166304348 L5.38921426,9.12826087 C1.14077827,10.2184783 -0.528912733,12.9347826 0.380141256,17.3141304 L6.37247674,48.7271739 L129.577121,32.8913043 Z" id="Path"></path>
                            </g>
                            <path d="M86.2208109,47.1380435 L59.6541718,50.7228261 C57.8484212,50.9526892 56.1934809,49.6917003 55.9437474,47.8956522 C55.9345581,47.7479678 55.9345581,47.5998583 55.9437474,47.4521739 L55.9437474,47.4521739 C55.9780268,45.8417044 57.1660294,44.4871684 58.7636699,44.2369565 L85.330309,40.5413043 C87.1360596,40.3114412 88.7909999,41.5724301 89.0407334,43.3684783 C89.0499227,43.5161627 89.0499227,43.6642721 89.0407334,43.8119565 L89.0407334,43.8119565 C89.0609118,45.4644657 87.8598698,46.8810897 86.2208109,47.1380435 L86.2208109,47.1380435 Z" id="Path" fill="#E46295" fill-rule="nonzero"></path>
                            <path d="M110.468435,44.2369565 L99.3371613,45.5304348 C98.4562119,45.6345007 97.5698934,45.3851542 96.8737836,44.8374169 C96.1776739,44.2896796 95.7289888,43.4885722 95.6267368,42.6108696 C95.6267368,42.4815217 95.6267368,42.3521739 95.6267368,42.2413043 L95.6267368,42.2413043 C95.6328895,40.5560041 96.8970204,39.138529 98.5765243,38.9336957 L109.707798,37.6402174 C110.588747,37.5361515 111.475065,37.785498 112.171175,38.3332353 C112.867285,38.8809726 113.31597,39.68208 113.418222,40.5597826 C113.427447,40.6889673 113.427447,40.8186414 113.418222,40.9478261 L113.418222,40.9478261 C113.419364,42.6324151 112.149167,44.0487346 110.468435,44.2369565 L110.468435,44.2369565 Z" id="Path" fill="#E46295" fill-rule="nonzero"></path>
                            <line x1="153.78764" y1="85.1293478" x2="159.167756" y2="90.598913" id="Path" stroke="#CF8867" stroke-width="0.58" stroke-linecap="round" stroke-linejoin="round"></line>
                            <line x1="125.254476" y1="101.076087" x2="152.192158" y2="96.2347826" id="Path" stroke="#CF8867" stroke-width="0.58" stroke-linecap="round" stroke-linejoin="round"></line>
                            <line x1="148.685806" y1="103.570652" x2="135.124205" y2="88.0304348" id="Path" stroke="#CF8867" stroke-width="0.58" stroke-linecap="round" stroke-linejoin="round"></line>
                            <line x1="135.421039" y1="112.292391" x2="145.884436" y2="110.204348" id="Path" stroke="#CF8867" stroke-width="0.58" stroke-linejoin="round"></line>
                            <path d="M135.921946,54.7141304 L116.701948,57.1717391 C116.809712,59.6329861 117.246442,62.0689378 118.000596,64.4152174 L136.979417,61.7358696 C136.260078,59.4648525 135.903241,57.0954134 135.921946,54.7141304 L135.921946,54.7141304 Z M125.310132,77.1652174 L125.310132,77.3315217 L135.068549,88.0304348 L153.78764,84.8891304 L143.973567,74.301087 L125.310132,77.1282609 C122.077256,73.3900038 119.595747,69.0677899 118.000596,64.3967391 L98.4837637,67.1684783 C100.090084,71.9344593 102.695523,76.3057598 106.127238,79.9923913 L106.127238,79.9923913 L125.310132,77.1652174 Z M106.201447,80.0663043 L116.256697,91.1532609 L153.78764,84.8891304 M116.683396,57.1717391 L97.5005012,59.6847826 C97.3918379,62.1868614 97.7246343,64.6885329 98.4837637,67.076087 L79.4678384,69.8478261 C81.168972,74.6275741 83.8047219,79.0239361 87.2226255,82.7826087 L87.2226255,82.875 L106.127238,80.0108696 M97.4262927,59.6847826 L78.2619504,62.1423913 C78.2334273,64.7535668 78.6409454,67.351299 79.4678384,69.8293478 L60.2292876,72.5271739 C61.8369917,77.3501039 64.48369,81.7647276 67.9840747,85.4619565 L68.2623565,85.776087 L87.296834,82.8934783 L97.6118139,94.2021739 L116.256697,91.1347826 L125.532758,101.445652 M97.6118139,94.2206522 L107.333126,104.901087 L125.588414,101.519565 L135.421039,112.366304 M97.6118139,94.2206522 L78.8741705,97.3434783 L89.0036292,108.430435 L107.333126,104.938043 L117.406928,116.025 L135.421039,112.329348 M70.6555803,111.88587 L81.0633209,123.342391 L99.3186092,119.646739 L89.0036292,108.393478 L70.6741324,111.867391 L60.2663919,100.41087 L49.5432652,88.5847826 C45.7798858,84.7976883 42.9257825,80.2114005 41.1948102,75.1695652 C40.3471034,72.5506954 39.8724903,69.8263152 39.7848489,67.076087 L59.0233997,64.5630435 L78.2805025,62.0869565 M99.3186092,119.554348 L117.406928,115.858696 M136.979417,61.6619565 C138.496649,66.2568059 140.869413,70.525822 143.973567,74.2456522 M59.0233997,64.5630435 C59.0410937,67.2372868 59.4472661,69.8949039 60.2292876,72.4532609 L41.1762581,75.2065217 M49.5432652,88.5847826 L68.2623565,85.7576087 L78.8556183,97.3065217 L60.3034961,100.392391" id="Layer0_0_MEMBER_5_MEMBER_3_1_STROKES" stroke="#CF8867" stroke-width="0.58" stroke-linejoin="round"></path>
                            <polygon id="Path" fill="#96C0BA" fill-rule="nonzero" points="53.1052727 78.0521739 45.1278601 79.1793478 44.5712964 77.7934783 52.3446357 76.6663043"></polygon>
                            <polygon id="Path" fill="#BADFD5" fill-rule="nonzero" points="59.079056 80.5467391 46.9645202 82.2467391 46.0369141 80.8608696 57.9659287 79.1793478"></polygon>
                            <polygon id="Path" fill="#96C0BA" fill-rule="nonzero" points="73.5311593 101.796739 65.5537467 103.293478 64.4220672 102.092391 72.2139586 100.595652"></polygon>
                            <polygon id="Path" fill="#BADFD5" fill-rule="nonzero" points="80.0800584 103.940217 67.9655226 106.176087 66.8338431 104.790217 78.7628577 102.554348"></polygon>
                            <polygon id="Path" fill="#BADFD5" fill-rule="nonzero" points="78.6329929 107.1 70.2845379 108.781522 69.1528584 107.395652 77.3157922 105.71413"></polygon>
                            <polygon id="Path" fill="#96C0BA" fill-rule="nonzero" points="139.27988 78.5880435 131.283916 79.9184783 130.170788 78.698913 137.999784 77.3684783"></polygon>
                            <polygon id="Path" fill="#BADFD5" fill-rule="nonzero" points="145.791675 80.8608696 133.621483 82.8565217 132.526908 81.4521739 144.511579 79.4380435"></polygon>
                            <polygon id="Path" fill="#BADFD5" fill-rule="nonzero" points="144.270401 83.9836957 135.884842 85.498913 134.790267 84.0945652 142.990305 82.5793478"></polygon>
                            <path d="M156.533354,91.8184783 L158.388566,92.8902174 C157.996244,92.9917061 157.611825,93.1213939 157.238335,93.2782609 C156.964014,93.3825811 156.697436,93.5060771 156.440594,93.6478261 L155.123393,92.7608696 C155.327222,92.5788874 155.544252,92.4121305 155.772717,92.2619565 C156.015097,92.0959017 156.269317,91.9476821 156.533354,91.8184783 L156.533354,91.8184783 Z" id="Path" fill="#EFBCE3" fill-rule="nonzero"></path>
                            <polygon id="Path" fill="#FFFFFF" fill-rule="nonzero" opacity="0.52" points="16.9471864 32.2445652 1.66023769 44.1815217 1.38195586 45.123913 16.8544258 33.5380435"></polygon>
                            <polygon id="Path" fill="#FFFFFF" fill-rule="nonzero" opacity="0.13" points="24.8874947 82.376087 8.69149202 80.8793478 17.6336149 127.130435 34.4047334 128.922826"></polygon>
                            <g id="Layer0_0_MEMBER_6_MEMBER_0_FILL" transform="translate(113.900577, 16.630435)" fill="url(#linearGradient-13)" fill-rule="nonzero">
                                <path d="M14.1923735,7.70543478 C14.2528312,5.85366606 13.5874852,4.05113014 12.3371613,2.67934783 C9.9736824,0.0960456229 5.95670904,-0.0940836219 3.35793413,2.25434783 L2.93123531,2.67934783 C0.302962735,5.51166991 0.302962735,9.88072139 2.93123531,12.7130435 C5.26405284,15.296248 9.25601632,15.5111708 11.8548061,13.1934783 C12.0247316,13.0427038 12.1857841,12.8822924 12.3371613,12.7130435 C13.5880646,11.3489972 14.2538749,9.55183515 14.1923735,7.70543478 Z" id="Path"></path>
                            </g>
                            <g id="Layer0_0_MEMBER_6_MEMBER_1_FILL" transform="translate(116.755789, 18.478261)" fill="#0E1235" fill-rule="nonzero">
                                <path d="M4.67694941,0.942364895 C3.42060151,0.945238629 2.22548689,1.48325288 1.39322377,2.42065217 C-0.41245887,4.44397926 -0.41245887,7.49297726 1.39322377,9.51630435 C2.98490165,11.315486 5.7364154,11.4970893 7.55252835,9.92282609 C7.69771193,9.79673331 7.83407824,9.66090991 7.96067504,9.51630435 C9.79185123,7.50269937 9.79185123,4.43425715 7.96067504,2.42065217 C7.13282362,1.47731461 5.9348575,0.938016682 4.67694941,0.942364895 L4.67694941,0.942364895 Z" id="Path"></path>
                            </g>
                            <path d="M117.110094,26.3130435 C117.422579,27.6332721 118.386859,28.7050685 119.670287,29.1586957 C120.411203,29.4793142 121.228802,29.5819087 122.026407,29.4543478 C122.499529,29.1198121 122.924047,28.7218568 123.287951,28.2717391 C122.197128,28.1244445 121.182618,27.632164 120.39382,26.8673913 C119.636127,25.9692803 119.286753,24.7981852 119.42911,23.6336957 C118.720543,24.5801911 117.945602,25.4755444 117.110094,26.3130435 Z" id="Path" fill="#141A37" fill-rule="nonzero" opacity="0.55"></path>
                            <path d="M118.835442,28.6967391 C121.120751,30.0480611 123.275778,31.6068644 125.273028,33.3532609 C127.462179,35.4967391 129.651329,37.751087 129.651329,37.751087 C130.912873,37.751087 135.550904,36.8271739 135.550904,36.8271739 C132.166804,33.4139093 128.586391,30.1994313 124.827777,27.2 C123.417816,27.3478261 118.835442,28.6967391 118.835442,28.6967391 Z" id="Path" fill="url(#linearGradient-14)" fill-rule="nonzero"></path>
                            <g id="Layer0_0_MEMBER_6_MEMBER_0_FILL-2" transform="translate(76.063701, 20.326087)" fill="url(#linearGradient-15)" fill-rule="nonzero">
                                <path d="M13.2924183,7.28043478 C13.3617302,5.42171863 12.6955221,3.6102113 11.4372061,2.23586957 C9.06722679,-0.349615095 5.04441931,-0.539627888 2.43942683,1.81086957 L2.01272801,2.23586957 C-0.565713144,5.09449721 -0.565713144,9.42941584 2.01272801,12.2880435 C4.34554554,14.871248 8.33750902,15.0861708 10.9362988,12.7684783 C11.1032679,12.6021739 11.270237,12.4543478 11.418654,12.2880435 C12.6797492,10.9290054 13.3528882,9.13005088 13.2924183,7.28043478 Z" id="Path"></path>
                            </g>
                            <g id="Layer0_0_MEMBER_6_MEMBER_1_FILL-2" transform="translate(77.918913, 22.173913)" fill="#0E1235" fill-rule="nonzero">
                                <path d="M4.79554635,0.554347826 C3.53903198,0.537891676 2.3385809,1.07155307 1.51182071,2.01413043 C0.61105419,2.98170504 0.125124196,4.26130922 0.157515789,5.58043478 C0.124045452,6.89423272 0.610460736,8.16847813 1.51182071,9.12826087 C2.27372695,9.99688957 3.35129574,10.527911 4.5068034,10.6041759 C5.66231107,10.6804409 6.80080663,10.2956824 7.6711253,9.53478261 L8.11637623,9.12826087 C9.02189007,8.17852096 9.50938616,6.90809564 9.47068115,5.59891304 C9.51814964,4.27177021 9.03046474,2.98089079 8.11637623,2.01413043 C7.28435848,1.05731682 6.06598225,0.521738519 4.79554635,0.554347826 L4.79554635,0.554347826 Z" id="Path"></path>
                            </g>
                            <path d="M78.3918153,29.6021739 C78.7043004,30.9224026 79.6685804,31.994199 80.9520081,32.4478261 C81.698221,32.7489706 82.5120095,32.8447047 83.3081277,32.725 C83.7869592,32.3836091 84.2175173,31.9796256 84.5882241,31.523913 C83.4868612,31.393779 82.4612091,30.8992617 81.6755409,30.1195652 C80.9421367,29.2253208 80.6190813,28.065611 80.785039,26.9228261 C80.0516073,27.8709332 79.2518773,28.7662756 78.3918153,29.6021739 L78.3918153,29.6021739 Z" id="Path" fill="#141A37" fill-rule="nonzero" opacity="0.55"></path>
                            <path d="M80.1171626,31.9858696 C82.4024722,33.3371916 84.5574993,34.8959948 86.5547491,36.6423913 C88.7438995,38.7858696 90.9330499,41.0586957 90.9330499,41.0586957 C92.1945942,41.0586957 96.8326248,40.1163043 96.8326248,40.1163043 C93.4199619,36.7056486 89.8150109,33.4913842 86.0352896,30.4891304 C84.6995368,30.6554348 80.1171626,31.9858696 80.1171626,31.9858696 Z" id="Path" fill="url(#linearGradient-16)" fill-rule="nonzero"></path>
                            <g id="Layer0_0_MEMBER_6_MEMBER_0_FILL-3" transform="translate(33.271239, 24.021739)" fill="url(#linearGradient-17)" fill-rule="nonzero">
                                <path d="M13.3964469,7.81630435 C13.4317878,5.9517188 12.7325249,4.14750665 11.448474,2.79021739 C9.08499514,0.206915188 5.06802177,0.0167859434 2.46924686,2.36521739 C2.31790212,2.49750813 2.17536758,2.6394752 2.04254805,2.79021739 C-0.585724532,5.62253948 -0.585724532,9.99159095 2.04254805,12.823913 C3.16028408,14.0689582 4.72975437,14.8194694 6.40417859,14.9096185 C8.07860281,14.9997676 9.72015168,14.4221339 10.9661188,13.3043478 C11.1360443,13.1535733 11.2970969,12.993162 11.448474,12.823913 C12.7331237,11.4744506 13.4328853,9.67558965 13.3964469,7.81630435 L13.3964469,7.81630435 Z" id="Path"></path>
                            </g>
                            <g id="Layer0_0_MEMBER_6_MEMBER_1_FILL-3" transform="translate(35.249032, 26.869565)" fill="#0E1235" fill-rule="nonzero">
                                <path d="M4.75844211,0.0717391304 C3.50244616,0.0577812205 2.30299752,0.590996986 1.47471647,1.53152174 C0.587152302,2.50719046 0.103295612,3.781335 0.120411545,5.09782609 C0.0909137515,6.41094593 0.576777878,7.68374749 1.47471647,8.64565217 C3.07824807,10.4414928 5.83523838,10.6146649 7.65257317,9.03369565 L8.04216774,8.64565217 C8.94516816,7.68559891 9.43754383,6.4131698 9.41502479,5.09782609 C9.45484608,3.78756477 8.99025115,2.51171002 8.11637623,1.53152174 C7.2760601,0.5645045 6.04172205,0.0279051644 4.75844211,0.0717391304 L4.75844211,0.0717391304 Z" id="Path"></path>
                            </g>
                            <path d="M35.6848299,33.8152174 C36.00715,35.1364562 36.9769057,36.2065843 38.2635749,36.6608696 C39.0029868,36.9631637 39.8111432,37.0589897 40.6011423,36.9380435 C41.0799738,36.5966525 41.5105319,36.1926691 41.8812387,35.7369565 C40.7864738,35.5973172 39.7655582,35.1115603 38.9685555,34.351087 C38.2342121,33.4501028 37.9113607,32.2844259 38.0780537,31.1358696 C37.3446219,32.0839767 36.5448919,32.9793191 35.6848299,33.8152174 L35.6848299,33.8152174 Z" id="Path" fill="#141A37" fill-rule="nonzero" opacity="0.55"></path>
                            <path d="M37.4101772,36.2173913 C39.6954868,37.5687133 41.8505139,39.1275165 43.8477637,40.873913 C46.0369141,42.998913 48.2260645,45.2717391 48.2260645,45.2717391 C49.4876088,45.2717391 54.1256394,44.3293478 54.1256394,44.3293478 C50.7298668,40.9204268 47.1369995,37.7120599 43.3654085,34.7206522 C41.3564947,35.1202535 39.3689292,35.619792 37.4101772,36.2173913 Z" id="Path" fill="url(#linearGradient-18)" fill-rule="nonzero"></path>
                            <path d="M12.9213759,25.9804348 L18.9879199,21.6934783 C19.4437502,20.8069082 20.0747886,20.0212506 20.8431321,19.3836957 C21.7892903,18.7369565 31.3807375,13.7108696 31.6961236,13.5630435 C33.5476488,12.6972772 35.7481104,13.1147441 37.1504475,14.5978261 C38.1708143,15.3369565 40.100235,18.4043478 40.2115477,23.726087 C39.7848489,31.1173913 36.5011233,33.2793478 35.7775905,33.8152174 C35.9526878,34.8323528 36.5894021,35.7120208 37.5029379,36.198913 C38.4351492,36.8368283 39.5747456,37.1007956 40.6939029,36.9380435 C44.1928507,33.6990617 46.0798677,29.0881915 45.8513929,24.3358696 C45.8513929,20.9358696 45.5360068,15.4478261 43.1056788,12.6391304 C41.0298689,9.64014694 37.6514981,7.79663653 33.9965868,7.66847826 C31.2668988,7.98367647 28.6292404,8.84473036 26.2417997,10.2 C26.2417997,10.2 19.7856611,13.7663043 18.9322635,14.3391304 C16.2978621,15.8173913 13.2924183,20.8434783 12.9213759,25.9804348 Z" id="Path" fill="#0E487C" fill-rule="nonzero"></path>
                            <path d="M56.1107165,17.498913 L62.4926465,16.8521739 C62.8204771,16.1922746 63.3043354,15.6215658 63.9026078,15.1891304 C64.8673182,14.523913 74.4402132,9.49782609 74.7741514,9.36847826 C76.6233048,8.48428669 78.8351445,8.90391215 80.2284754,10.4032609 C81.23029,11.123913 83.1597107,14.2097826 83.2710234,19.5315217 C82.8443246,26.9228261 79.4678384,29.0663043 78.8370662,29.6021739 C79.0296022,30.6166202 79.6606661,31.4952406 80.5624136,32.0043478 C81.4941615,32.642719 82.636315,32.9006646 83.7533786,32.725 C87.2317542,29.5091758 89.1230071,24.9382774 88.9294207,20.2152174 C88.9294207,16.8152174 88.5954825,11.3271739 86.1651545,8.53695652 C84.1037965,5.5220698 80.7166509,3.67377118 77.0560625,3.56630435 C74.3476901,3.85497126 71.7241278,4.67785192 69.3383796,5.98695652 C69.3383796,5.98695652 62.8451368,9.55326087 61.9175307,10.126087 C58.9729926,11.5958985 56.8428711,14.3004822 56.1107165,17.498913 Z" id="Path" fill="#0E487C" fill-rule="nonzero"></path>
                            <path d="M94.8289956,14.1913043 L101.210926,13.5445652 C101.535607,12.8775359 102.01977,12.3001222 102.620887,11.8630435 C103.585597,11.2163043 113.158492,6.19021739 113.492431,6.0423913 C115.343956,5.17662508 117.544417,5.59409193 118.946754,7.07717391 C119.948569,7.81630435 121.896542,10.8836957 121.989303,16.2054348 C121.562604,23.5967391 118.278878,25.7586957 117.555345,26.2945652 C117.747881,27.3090115 118.378945,28.1876319 119.280693,28.6967391 C120.219763,29.3182724 121.355279,29.574719 122.471658,29.4173913 C125.971051,26.1773836 127.863778,21.5691392 127.6477,16.8152174 C127.6477,13.4152174 127.313762,7.92717391 124.883434,5.11847826 C122.800219,2.09954055 119.395054,0.252693694 115.718685,0.147826087 C112.994607,0.46195362 110.362803,1.3231565 107.98245,2.67934783 C107.98245,2.67934783 101.50776,6.24565217 100.561601,6.81847826 C97.6555077,8.31726612 95.5588276,11.0138509 94.8289956,14.1913043 L94.8289956,14.1913043 Z" id="Path" fill="#0E487C" fill-rule="nonzero"></path>
                            <ellipse id="Oval" fill="#E8F5F8" fill-rule="nonzero" transform="translate(113.447639, 2.539580) rotate(-14.350000) translate(-113.447639, -2.539580) " cx="113.447639" cy="2.53958048" rx="1.55799715" ry="1"></ellipse>
                            <ellipse id="Oval" fill="#E8F5F8" fill-rule="nonzero" transform="translate(74.720272, 5.864089) rotate(-14.350000) translate(-74.720272, -5.864089) " cx="74.720272" cy="5.86408894" rx="1.55799715" ry="1"></ellipse>
                            <ellipse id="Oval" fill="#E8F5F8" fill-rule="nonzero" transform="translate(32.018856, 10.061918) rotate(-14.350000) translate(-32.018856, -10.061918) " cx="32.0188557" cy="10.0619184" rx="1.55799715" ry="1"></ellipse>
                        </g>
                        <path d="M217.11571,76.9438434 L218.211482,75.9075461 C219.625584,74.6171485 221.801221,74.7142929 223.097549,76.1257139 L223.097549,76.1257139 C224.380436,77.5471908 224.283993,79.7515204 222.881987,81.0526717 L221.786215,82.0707884 C221.116167,82.7012103 220.225102,83.0346921 219.311001,82.9971398 C218.3969,82.9595875 217.535472,82.5541112 216.918112,81.8708012 L216.918112,81.8708012 C216.295221,81.1926525 215.965722,80.2908151 216.002826,79.3656626 C216.03993,78.44051 216.440562,77.5686673 217.11571,76.9438434 L217.11571,76.9438434 Z" id="Path" fill="url(#linearGradient-19)" fill-rule="nonzero"></path>
                        <path d="M186.018544,104.528148 L214.48363,78.348855 C215.472665,77.4325802 216.786428,76.948637 218.133632,77.004325 C219.480836,77.0600129 220.75016,77.6507306 221.66017,78.6455042 L221.66017,78.6455042 C222.570859,79.6334797 223.051306,80.9429275 222.995652,82.28533 C222.939998,83.6277324 222.35281,84.8929341 221.363466,85.8021665 L221.363466,85.8021665 L192.898379,112 L192.898379,112 L186,104.58377 L186,104.58377 L186.018544,104.528148 Z" id="Path" fill="url(#linearGradient-20)" fill-rule="nonzero"></path>
                        <path d="M212.439261,76.2359491 L212.439261,76.2359491 L204.3483,83.6774642 C204.010475,83.9316598 203.903237,84.3915693 204.093753,84.7691291 C204.240511,84.9169036 204.440107,85 204.648302,85 C204.856497,85 205.056094,84.9169036 205.202851,84.7691291 L205.202851,84.7691291 L212.584716,77.9644184 C212.675954,77.8946561 212.802571,77.8946561 212.893809,77.9644184 L213.639268,78.783167 C213.922065,79.0605538 214.374659,79.0605538 214.657456,78.783167 C215.007846,78.5513274 215.10533,78.0798294 214.87564,77.727891 L214.87564,77.727891 L213.475631,76.1995602 C213.33412,76.0653435 213.14468,75.9936064 212.949826,76.0004481 C212.754972,76.0072898 212.571023,76.0921372 212.439261,76.2359491 L212.439261,76.2359491 Z" id="Path" fill="url(#linearGradient-21)" fill-rule="nonzero"></path>
                        <polygon id="Path" fill="url(#linearGradient-22)" fill-rule="nonzero" points="221 84.6742739 219.639456 86 213 78.2883817 214.378685 77"></polygon>
                        <polygon id="Path" fill="url(#linearGradient-23)" fill-rule="nonzero" points="197 107.690229 195.636364 109 189 101.309771 190.381818 100"></polygon>
                        <polygon id="Path" fill="url(#linearGradient-24)" fill-rule="nonzero" points="199 105.690229 197.621315 107 191 99.3097713 192.378685 98"></polygon>
                        <polygon id="Path" fill="url(#linearGradient-25)" fill-rule="nonzero" points="202 103.6875 200.606335 105 194 97.29375 195.375566 96"></polygon>
                        <path d="M182.498388,113.274496 L185.182231,113.270601 L185.182231,113.270601 L182.498388,113.274496 L182.498388,113.274496 Z" id="Rectangle" fill="url(#linearGradient-26)" fill-rule="nonzero" transform="translate(183.840310, 113.272548) rotate(-42.610000) translate(-183.840310, -113.272548) "></path>
                        <polyline id="Path" fill="url(#linearGradient-27)" fill-rule="nonzero" points="186.082645 104 193 111.466119 184.929752 113 184 112.057495 186.082645 104"></polyline>
                        <line x1="195" y1="95" x2="202" y2="103" id="Path" stroke="#1B4074" stroke-width="0.05"></line>
                        <line x1="215" y1="77" x2="222" y2="85" id="Path" stroke="#1B4074" stroke-width="0.05"></line>
                        <line x1="193" y1="97" x2="200" y2="105" id="Path" stroke="#1B4074" stroke-width="0.05"></line>
                        <line x1="190" y1="100" x2="197" y2="108" id="Path" stroke="#1B4074" stroke-width="0.05"></line>
                    </g>
                </g>
            </g>
        </g>
    </g>
</svg>