<?xml version="1.0" encoding="UTF-8"?>
<svg width="24px" height="24px" viewBox="0 0 24 24" version="1.1" xmlns="http://www.w3.org/2000/svg" xmlns:xlink="http://www.w3.org/1999/xlink">
    <title>54E06294-3B98-4D31-A8B2-154322A6337D</title>
    <g id="Today--------------------------------------------" stroke="none" stroke-width="1" fill="none" fill-rule="evenodd">
        <g id="A---Listing-Page---Type-1" fill="#0073C1">
         
                        <g id="Elements/Graphics/Style3/Oral/Black" transform=" rotate(-10.000000)">
                            <g id="StudyRings" transform="translate(-2, 2.000000)">
                                <path d="M12.0095307,1.78713039e-06 L12,0 C18.627417,0 24,5.372583 24,12 C24,18.627417 18.627417,24 12,24 C5.51613232,24 0.233328134,18.8576359 0.00751983195,12.42884 C0.0243261467,11.8250027 0.518023846,11.34 1.125,11.34 C1.7407975,11.34 2.24,11.8392025 2.24,12.455 C2.24,12.4566825 2.23999627,12.4583641 2.23998883,12.4600449 L2.23779997,12.4285405 C2.46210229,17.6263212 6.7469803,21.7714286 12,21.7714286 C17.396611,21.7714286 21.7714286,17.396611 21.7714286,12 C21.7714286,6.66068215 17.4890084,2.32157712 12.1715299,2.23004668 L12.1722655,2.21647622 C12.1185041,2.22444377 12.0634908,2.22857143 12.0075134,2.22857143 C11.3921104,2.22857143 10.8932277,1.72968872 10.8932277,1.11428571 C10.8932277,0.498882707 11.3921104,0 12.0075134,0 L12.0055198,0 L12.0095307,1.78713039e-06 Z" id="Outer"></path>
                                <path d="M11.9999022,3.51428571 C16.6864328,3.51428571 20.4856165,7.31346941 20.4856165,12 C20.4856165,16.6865306 16.6864328,20.4857143 11.9999022,20.4857143 C11.363694,20.4798978 10.85,19.9635101 10.85,19.3271429 C10.85,18.6880705 11.3680705,18.17 12.0071429,18.17 C12.0155962,18.17 12.0240284,18.1700906 12.0324384,18.170271 L11.9999022,18.1714286 C15.4082881,18.1714286 18.1713307,15.4083859 18.1713307,12 C18.1713307,8.59161412 15.4082881,5.82857143 11.9999022,5.82857143 L11.999,5.82628571 L11.9571429,5.82857143 C11.3606753,5.82857143 10.8696139,5.37727446 10.80679,4.79751203 L10.8,4.67142857 C10.8,4.03235622 11.3180705,3.51428571 11.9571429,3.51428571 C11.9713445,3.51428571 11.9854863,3.51454155 11.9995641,3.51504887 L11.9999022,3.51428571 Z" id="Middle"></path>
                                <path d="M12.0428571,7.02857143 C12.0506342,7.02857143 12.0583934,7.02864815 12.0661339,7.02880088 L12.0067949,7.02857143 C14.7456442,7.02857143 16.9714286,9.25435582 16.9714286,12 C16.9714286,14.7456442 14.7456442,16.9714286 12,16.9714286 C9.5004051,16.9714286 7.431671,15.1266942 7.08096783,12.7243956 C7.06082584,12.6378613 7.05,12.5476949 7.05,12.455 L7.05,12.455 L7.04681954,12.4289539 L7.04681954,12.4289539 C7.06426027,11.7974478 7.58036974,11.29 8.215,11.29 C8.85841173,11.29 9.38,11.8115883 9.38,12.455 L9.37873455,12.4405714 L9.40923034,12.5928081 C9.67859745,13.7749442 10.7362744,14.6571429 12,14.6571429 C13.4674995,14.6571429 14.6571429,13.4674995 14.6571429,12 C14.6571429,10.5348523 13.4713094,9.34667082 12.0070531,9.3428663 C11.3842367,9.32307722 10.8857143,8.81261383 10.8857143,8.18571429 C10.8857143,7.54664193 11.4037848,7.02857143 12.0428571,7.02857143 L12.0067345,7.03057143 L12.0067949,7.02857143 Z" id="Inner"></path>
                            </g>
                        </g>
                   
        </g>
    </g>
</svg>