<?xml version="1.0" encoding="UTF-8"?>
<svg width="40px" height="40px" viewBox="0 0 40 40" version="1.1" xmlns="http://www.w3.org/2000/svg" xmlns:xlink="http://www.w3.org/1999/xlink">
    <g id="Today--------------------------------------------" stroke="none" stroke-width="1" fill="none" fill-rule="evenodd">
        <g id="C---Listing-Page---Type-3" transform="translate(-23.000000, -830.000000)" fill-rule="nonzero">
            <g id="ChapterListingTemplate" transform="translate(-1.000000, 100.000000)">
                <g id="ChapterListing" transform="translate(18.000000, 185.000000)">
                    <g id="Chapter-1---All-Topics" transform="translate(0.000000, 155.000000)">
                        <g id="Topic-5" transform="translate(0.000000, 380.000000)">
                            <g id="Confidence" transform="translate(6.000000, 10.000000)">
                                <g id="summary" transform="translate(19.996333, 19.958085) rotate(-10.000000) translate(-19.996333, -19.958085) translate(8.996333, 6.958085)">
                                    <polygon id="Path" fill="#424A60" points="14.5689655 0.896551724 12.7758621 0.896551724 12.7758621 2.24137931 8.74137931 2.24137931 8.74137931 0.896551724 6.94827586 0.896551724 0.224137931 0.896551724 0.224137931 26 21.2931034 26 21.2931034 0.896551724"></polygon>
                                    <rect id="Rectangle" fill="#303644" x="8.74137931" y="0" width="4.03448276" height="2.24137931"></rect>
                                    <polygon id="Path" fill="#EDEADA" points="15.9137931 2.24137931 15.9137931 3.5862069 5.60344828 3.5862069 5.60344828 2.24137931 1.56896552 2.24137931 1.56896552 24.6551724 19.9482759 24.6551724 19.9482759 2.24137931"></polygon>
                                    <polygon id="Path" fill="#7383BF" points="12.7758621 0.896551724 12.7758621 2.24137931 8.74137931 2.24137931 8.74137931 0.896551724 5.60344828 0.896551724 5.60344828 3.5862069 15.9137931 3.5862069 15.9137931 0.896551724"></polygon>
                                    <path d="M10.0862069,7.17241379 L4.25862069,7.17241379 C4.01072414,7.17241379 3.81034483,6.97203448 3.81034483,6.72413793 C3.81034483,6.47624138 4.01072414,6.27586207 4.25862069,6.27586207 L10.0862069,6.27586207 C10.3341034,6.27586207 10.5344828,6.47624138 10.5344828,6.72413793 C10.5344828,6.97203448 10.3341034,7.17241379 10.0862069,7.17241379 Z" id="Path" fill="#CEC9AE"></path>
                                    <path d="M10.0862069,21.0689655 L4.25862069,21.0689655 C4.01072414,21.0689655 3.81034483,20.8685862 3.81034483,20.6206897 C3.81034483,20.3727931 4.01072414,20.1724138 4.25862069,20.1724138 L10.0862069,20.1724138 C10.3341034,20.1724138 10.5344828,20.3727931 10.5344828,20.6206897 C10.5344828,20.8685862 10.3341034,21.0689655 10.0862069,21.0689655 Z" id="Path" fill="#CEC9AE"></path>
                                    <path d="M17.2586207,9.86206897 L4.25862069,9.86206897 C4.01072414,9.86206897 3.81034483,9.66168966 3.81034483,9.4137931 C3.81034483,9.16589655 4.01072414,8.96551724 4.25862069,8.96551724 L17.2586207,8.96551724 C17.5065172,8.96551724 17.7068966,9.16589655 17.7068966,9.4137931 C17.7068966,9.66168966 17.5065172,9.86206897 17.2586207,9.86206897 Z" id="Path" fill="#CEC9AE"></path>
                                    <path d="M17.2586207,15.2413793 L4.25862069,15.2413793 C4.01072414,15.2413793 3.81034483,15.041 3.81034483,14.7931034 C3.81034483,14.5452069 4.01072414,14.3448276 4.25862069,14.3448276 L17.2586207,14.3448276 C17.5065172,14.3448276 17.7068966,14.5452069 17.7068966,14.7931034 C17.7068966,15.041 17.5065172,15.2413793 17.2586207,15.2413793 Z" id="Path" fill="#CEC9AE"></path>
                                    <path d="M17.2586207,18.3793103 L4.25862069,18.3793103 C4.01072414,18.3793103 3.81034483,18.178931 3.81034483,17.9310345 C3.81034483,17.6831379 4.01072414,17.4827586 4.25862069,17.4827586 L17.2586207,17.4827586 C17.5065172,17.4827586 17.7068966,17.6831379 17.7068966,17.9310345 C17.7068966,18.178931 17.5065172,18.3793103 17.2586207,18.3793103 Z" id="Path" fill="#CEC9AE"></path>
                                    <path d="M10.5344828,12.5517241 L4.25862069,12.5517241 C4.01072414,12.5517241 3.81034483,12.3513448 3.81034483,12.1034483 C3.81034483,11.8555517 4.01072414,11.6551724 4.25862069,11.6551724 L10.5344828,11.6551724 C10.7823793,11.6551724 10.9827586,11.8555517 10.9827586,12.1034483 C10.9827586,12.3513448 10.7823793,12.5517241 10.5344828,12.5517241 Z" id="Path" fill="#CEC9AE"></path>
                                    <path d="M17.2586207,12.5517241 L14.1206897,12.5517241 C13.8727931,12.5517241 13.6724138,12.3513448 13.6724138,12.1034483 C13.6724138,11.8555517 13.8727931,11.6551724 14.1206897,11.6551724 L17.2586207,11.6551724 C17.5065172,11.6551724 17.7068966,11.8555517 17.7068966,12.1034483 C17.7068966,12.3513448 17.5065172,12.5517241 17.2586207,12.5517241 Z" id="Path" fill="#CEC9AE"></path>
                                    <path d="M12.3275862,12.5517241 C12.2061034,12.5517241 12.0940345,12.5064483 12.0093103,12.4217241 C11.9281724,12.3365517 11.8793103,12.22 11.8793103,12.1034483 C11.8793103,11.9819655 11.9241379,11.8698966 12.0093103,11.7851724 C12.1796552,11.6148276 12.4755172,11.6193103 12.6458621,11.7851724 C12.7305862,11.8698966 12.7758621,11.9819655 12.7758621,12.1034483 C12.7758621,12.2244828 12.7265517,12.3365517 12.6458621,12.4217241 C12.5606897,12.5024138 12.4486207,12.5517241 12.3275862,12.5517241 Z" id="Path" fill="#CEC9AE"></path>
                                </g>
                            </g>
                        </g>
                    </g>
                </g>
            </g>
        </g>
    </g>
</svg>