<?xml version="1.0" encoding="UTF-8"?>
<svg width="24px" height="24px" viewBox="0 0 24 24" version="1.1" xmlns="http://www.w3.org/2000/svg" xmlns:xlink="http://www.w3.org/1999/xlink">
    <title>57CE5321-390E-45FA-8097-D746777CD1A6</title>
    <g id="Page-2" stroke="none" stroke-width="1" fill="none" fill-rule="evenodd">
        <g id="Icons" transform="translate(-845.000000, -2021.000000)" fill-rule="nonzero">
            <g id="ASSIGNMENTS" transform="translate(40.000000, 1956.000000)">
                <g id="Elements/Icons/LessonTypes/Big-Idea/EVS" transform="translate(805.000000, 65.000000)">
                    <g id="Group-2" transform="translate(0.000000, 1.000000)">
                        <path d="M17.630399,2.38669241 L3.5483871,2.38669241 C2.4438176,2.38669241 1.5483871,3.28212291 1.5483871,4.38669241 L1.5483871,18.4687043 C1.5483871,19.5732738 2.4438176,20.4687043 3.5483871,20.4687043 L17.630399,20.4687043 C18.7349685,20.4687043 19.630399,19.5732738 19.630399,18.4687043 L19.630399,4.38669241 C19.630399,3.28212291 18.7349685,2.38669241 17.630399,2.38669241 Z" id="Path" stroke="#FEE276" fill="#FEE276" transform="translate(10.589393, 11.427698) rotate(-10.000000) translate(-10.589393, -11.427698) "></path>
                        <path d="M22.4587978,1.66556972 C22.3025543,1.50932622 22.0500073,1.50932622 21.8937638,1.66556972 L9.78868894,13.7706446 L4.56592038,8.54787599 C4.40967688,8.39163249 4.15712985,8.39163249 4.00088635,8.54787599 C3.84464285,8.70411949 3.84464285,8.95666652 4.00088635,9.11291002 L9.50617193,14.6181956 C9.58409388,14.6961175 9.68639141,14.7352783 9.78868894,14.7352783 C9.89098648,14.7352783 9.99328401,14.6961175 10.071206,14.6181956 L22.4587978,2.23060375 C22.6150413,2.07436025 22.6150413,1.82181322 22.4587978,1.66556972 Z" id="Path" stroke="#556080" transform="translate(13.229842, 8.141833) rotate(-10.000000) translate(-13.229842, -8.141833) "></path>
                    </g>
                </g>
            </g>
        </g>
    </g>
</svg>