<?xml version="1.0" encoding="UTF-8"?>
<svg width="52px" height="52px" viewBox="0 0 52 52" version="1.1" xmlns="http://www.w3.org/2000/svg" xmlns:xlink="http://www.w3.org/1999/xlink">
    <title>CBA7CD79-D84B-4A2F-A245-FAEBA8188E3A</title>
    <defs>
        <filter id="filter-1">
            <feColorMatrix in="SourceGraphic" type="matrix" values="0 0 0 0 1.000000 0 0 0 0 1.000000 0 0 0 0 1.000000 0 0 0 1.000000 0"></feColorMatrix>
        </filter>
    </defs>
    <g id="Mobile" stroke="none" stroke-width="1" fill="none" fill-rule="evenodd">
        <g id="D-01-SC-Opening-Page" transform="translate(-16.000000, -329.000000)">
            <g id="Objectives" transform="translate(16.000000, 126.000000)">
                <g id="TeachingQuestion1" transform="translate(0.000000, 203.000000)">
                    <g id="Group" transform="translate(2.000000, 6.000000)">
                        <g id="star" transform="translate(8.000000, 5.000000)" filter="url(#filter-1)">
                            <g transform="translate(1.333333, 1.333333)">
                                <path d="M14.6667849,0.3 C14.9171341,0.3 15.154837,0.37802254 15.3547988,0.515706006 C15.5582012,0.655758415 15.7225087,0.857305794 15.8228224,1.1008217 L15.8228224,1.1008217 L19.2393948,9.44544424 L27.8865863,10.2647664 C28.1367798,10.288296 28.3674234,10.3887391 28.5549676,10.5450519 C28.7457244,10.7040422 28.8919106,10.9206421 28.9703462,11.1738136 C29.0497992,11.4292645 29.0526126,11.6965806 28.9871326,11.9442399 C28.9221067,12.1901818 28.7896545,12.4168768 28.5970717,12.592704 L28.5970717,12.592704 L22.0701726,18.5646023 L23.9939104,27.4072346 C24.0507732,27.6692932 24.0305044,27.9361413 23.943585,28.176936 C23.8576604,28.4149747 23.7064931,28.6276463 23.4998288,28.7839398 C23.2968563,28.9374739 23.0604385,29.0209025 22.8209603,29.0318029 C22.58206,29.042677 22.3404657,28.9813266 22.1259646,28.8466734 L22.1259646,28.8466734 L14.6668141,24.1929975 L7.20482704,28.8467311 C7.00705172,28.9702206 6.78679741,29.0333333 6.56452275,29.0333333 C6.3063415,29.0333333 6.05069051,28.9485141 5.8320735,28.7836946 C5.62561092,28.6279602 5.47454163,28.4156365 5.3886595,28.1777155 C5.30173141,27.9368969 5.28147563,27.6697691 5.3382819,27.4073935 L5.3382819,27.4073935 L7.26205007,18.5646216 L0.734616784,12.5910449 C0.542649606,12.4162563 0.410754464,12.1900148 0.346016104,11.9446051 C0.280632831,11.6967507 0.283648689,11.4291752 0.363175926,11.1739666 C0.441988381,10.9210518 0.588109375,10.7046465 0.778609318,10.5457112 C0.966023822,10.3893501 1.19638719,10.288812 1.44584473,10.2647472 L1.44584473,10.2647472 L10.0941615,9.44544823 L13.5105971,1.10258901 C13.6111321,0.857963383 13.7753582,0.656139257 13.9786951,0.515933236 C14.178663,0.378050182 14.4163996,0.3 14.6667849,0.3 Z" id="Star" stroke="#FFFFFF" stroke-width="0.6" fill="#194C79" fill-rule="nonzero"></path>
                            </g>
                        </g>
                    </g>
                </g>
            </g>
        </g>
    </g>
</svg>