<?xml version="1.0" encoding="UTF-8"?>
<svg width="52px" height="52px" viewBox="0 0 52 52" version="1.1" xmlns="http://www.w3.org/2000/svg" xmlns:xlink="http://www.w3.org/1999/xlink">
    <title>0B697D40-9954-4B5B-A1B2-D18050B76689</title>
    <g id="Mobile" stroke="none" stroke-width="1" fill="none" fill-rule="evenodd">
        <g id="D-01-SC-Opening-Page" transform="translate(-16.000000, -159.000000)" fill="#FFFFFF" fill-rule="nonzero">
            <g id="Objectives" transform="translate(16.000000, 126.000000)">
                <g id="TeachingQuestion1" transform="translate(0.000000, 33.000000)">
                    <g id="Group" transform="translate(2.000000, 6.000000)">
                        <g id="004-time" transform="translate(8.000000, 5.000000)">
                            <path d="M16,0.533333333 C24.5420041,0.533333333 31.4666667,7.45799587 31.4666667,16 C31.4666667,24.5420041 24.5420041,31.4666667 16,31.4666667 C7.45799587,31.4666667 0.533333333,24.5420041 0.533333333,16 C0.533333333,7.45799587 7.45799587,0.533333333 16,0.533333333 Z M16,6.4 C15.7050667,6.4 15.4666667,6.6384 15.4666667,6.93333333 L15.4666667,13.9424 C14.5488,14.1808 13.8666667,15.0085333 13.8666667,16 C13.8666667,17.1765333 14.8234667,18.1333333 16,18.1333333 C16.9914667,18.1333333 17.8192,17.4506667 18.0576,16.5333333 L21.8666667,16.5333333 C22.1616,16.5333333 22.4,16.2949333 22.4,16 C22.4,15.7050667 22.1616,15.4666667 21.8666667,15.4666667 L18.0576,15.4666667 C17.8634667,14.7205333 17.2794667,14.136 16.5333333,13.9424 L16.5333333,6.93333333 C16.5333333,6.6384 16.2949333,6.4 16,6.4 Z M16,14.9333333 C16.5882667,14.9333333 17.0666667,15.4117333 17.0666667,16 C17.0666667,16.5882667 16.5882667,17.0666667 16,17.0666667 C15.4117333,17.0666667 14.9333333,16.5882667 14.9333333,16 C14.9333333,15.4117333 15.4117333,14.9333333 16,14.9333333 Z" id="Combined-Shape"></path>
                        </g>
                    </g>
                </g>
            </g>
        </g>
    </g>
</svg>