<?xml version="1.0" encoding="UTF-8"?>
<svg width="52px" height="52px" viewBox="0 0 52 52" version="1.1" xmlns="http://www.w3.org/2000/svg" xmlns:xlink="http://www.w3.org/1999/xlink">
    <title>58A3F9C8-0C72-4E3D-9CF1-4B79FE690E51</title>
    <g id="Page-2" stroke="none" stroke-width="1" fill="none" fill-rule="evenodd" opacity="0.995884487">
        <g id="Icons" transform="translate(-481.000000, -2881.000000)">
            <g id="Elements/Graphics/LessonGraphics/Style3/Goals" transform="translate(481.000000, 2881.000000)">
                <g id="Group" transform="translate(2.000000, 6.000000)">
                    <circle id="Oval" fill="#64C6FD" cx="23" cy="23" r="23"></circle>
                    <g id="Stars" transform="translate(5.000000, 5.000000)" fill-rule="nonzero">
                        <g id="004-time">
                            <circle id="Oval" fill="#87A0B7" cx="18" cy="18" r="17.4"></circle>
                            <path d="M24.6,17.4 L20.3148,17.4 C20.0964,16.5606 19.4394,15.903 18.6,15.6852 L18.6,7.8 C18.6,7.4682 18.3318,7.2 18,7.2 C17.6682,7.2 17.4,7.4682 17.4,7.8 L17.4,15.6852 C16.3674,15.9534 15.6,16.8846 15.6,18 C15.6,19.3236 16.6764,20.4 18,20.4 C19.1154,20.4 20.0466,19.632 20.3148,18.6 L24.6,18.6 C24.9318,18.6 25.2,18.3318 25.2,18 C25.2,17.6682 24.9318,17.4 24.6,17.4 Z M18,19.2 C17.3382,19.2 16.8,18.6618 16.8,18 C16.8,17.3382 17.3382,16.8 18,16.8 C18.6618,16.8 19.2,17.3382 19.2,18 C19.2,18.6618 18.6618,19.2 18,19.2 Z" id="Shape" fill="#FFFFFF"></path>
                        </g>
                    </g>
                </g>
            </g>
        </g>
    </g>
</svg>