<?xml version="1.0" encoding="UTF-8"?>
<svg width="52px" height="52px" viewBox="0 0 52 52" version="1.1" xmlns="http://www.w3.org/2000/svg" xmlns:xlink="http://www.w3.org/1999/xlink">
    <title>479943B3-2C04-4E3C-8E15-F205C66A4060</title>
    <g id="Page-2" stroke="none" stroke-width="1" fill="none" fill-rule="evenodd">
        <g id="Icons" transform="translate(-481.000000, -3031.000000)">
            <g id="Elements/Graphics/LessonGraphics/Style3/Goals" transform="translate(481.000000, 3031.000000)">
                <g id="Group" transform="translate(2.000000, 6.000000)">
                    <circle id="Oval" fill="#D0EDFE" cx="23" cy="23" r="23"></circle>
                    <g id="Stars" transform="translate(5.000000, 5.000000)" fill="#87A0B7">
                        <g id="star" transform="translate(1.500000, 1.500000)">
                            <path d="M32.9139109,12.470304 C32.6978871,11.7730283 32.1052066,11.2777893 31.4040105,11.2118449 L21.8793262,10.3093801 L18.1130097,1.11054403 C17.8353009,0.436388373 17.2028397,0 16.500133,0 C15.7974263,0 15.1649651,0.436388373 14.8872562,1.11212042 L11.1209397,10.3093801 L1.59474474,11.2118449 C0.894807529,11.2793656 0.303637654,11.7730283 0.0863549899,12.470304 C-0.130927674,13.1675795 0.0697377447,13.9323758 0.599222592,14.4144786 L7.798756,21.0031288 L5.67578116,30.7615719 C5.52043542,31.4790774 5.78731786,32.2207538 6.3578422,32.6510995 C6.66450535,32.8822986 7.02328607,33 7.3850881,33 C7.69703852,33 8.00647115,32.9122494 8.28418004,32.73885 L16.500133,27.614899 L24.7130646,32.73885 C25.3140538,33.1161251 26.0716476,33.0817079 26.640913,32.6510995 C27.2116891,32.2194401 27.4783198,31.4775011 27.3229741,30.7615719 L25.1999992,21.0031288 L32.3995327,14.4157922 C32.9290175,13.9323758 33.1311936,13.1688932 32.9139109,12.470304 Z" id="Star"></path>
                        </g>
                    </g>
                </g>
            </g>
        </g>
    </g>
</svg>