<?xml version="1.0" encoding="UTF-8"?>
<svg width="24px" height="24px" viewBox="0 0 24 24" version="1.1" xmlns="http://www.w3.org/2000/svg" xmlns:xlink="http://www.w3.org/1999/xlink">
    <title>98A7E1F5-4887-4777-AB15-31C266AED84C</title>
    <g id="A:-My-Lessons" stroke="none" stroke-width="1" fill="none" fill-rule="evenodd">
        <g id="Desktop-C-04-BL-MyLessons-Paused" transform="translate(-881.000000, -251.000000)" fill-rule="nonzero">
            <g id="Compounds/Menus/Intent/StudyPlan-Pause/Desktop" transform="translate(858.000000, 120.000000)">
                <g id="Elements/List/BrowseBooks/Assign-Create-Copy" transform="translate(0.000000, 115.000000)">
                    <g id="Existing/Colour" transform="translate(23.000000, 16.000000)">
                        <path d="M12,0 C5.3832,0 0,5.3832 0,12 C0,18.6168 5.3832,24 12,24 C18.6168,24 24,18.6168 24,12 C24,5.3832 18.6168,0 12,0 Z" id="Shape" fill="#30224B"></path>
                        <path d="M12,10.9333333 C13.0293333,10.9333333 13.8666667,10.0957333 13.8666667,9.06666667 C13.8666667,8.0376 13.0293333,7.2 12,7.2 C10.9706667,7.2 10.1333333,8.0376 10.1333333,9.06666667 C10.1333333,10.0957333 10.9706667,10.9333333 12,10.9333333 Z M12,7.73333333 C12.7352,7.73333333 13.3333333,8.33146667 13.3333333,9.06666667 C13.3333333,9.80186667 12.7352,10.4 12,10.4 C11.2648,10.4 10.6666667,9.80186667 10.6666667,9.06666667 C10.6666667,8.33146667 11.2648,7.73333333 12,7.73333333 Z" id="Shape" fill="#FFFFFF"></path>
                        <path d="M11.9528,18.6018667 L16.0437333,12.6933333 C17.5781333,10.6477333 17.3562667,7.28533333 15.5688,5.49813333 C14.6029333,4.532 13.3186667,4 11.9528,4 C10.5869333,4 9.30266667,4.532 8.3368,5.49786667 C6.54933333,7.28506667 6.32746667,10.6474667 7.85573333,12.6850667 L11.9528,18.6018667 Z M8.71386667,5.87493333 C9.5792,5.00986667 10.7293333,4.53333333 11.9528,4.53333333 C13.1762667,4.53333333 14.3264,5.00986667 15.1917333,5.87493333 C16.8050667,7.488 17.0037333,10.5248 15.6112,12.3813333 L11.9528,17.6648 L8.28853333,12.3733333 C6.90186667,10.5248 7.1008,7.488 8.71386667,5.87493333 Z" id="Shape" fill="#FFFFFF"></path>
                        <path d="M15.2312,15.4685333 C15.0845333,15.4506667 14.9522667,15.5557333 14.9352,15.7021333 C14.9181333,15.8485333 15.0226667,15.9810667 15.1688,15.9981333 C17.9730667,16.3282667 19.4666667,17.2178667 19.4666667,17.7333333 C19.4666667,18.4570667 16.6261333,19.4666667 12,19.4666667 C7.37386667,19.4666667 4.53333333,18.4570667 4.53333333,17.7333333 C4.53333333,17.2178667 6.02693333,16.3282667 8.8312,15.9981333 C8.97733333,15.9810667 9.08186667,15.8482667 9.0648,15.7021333 C9.04746667,15.5557333 8.9152,15.4501333 8.7688,15.4685333 C5.96106667,15.7992 4,16.7304 4,17.7333333 C4,18.8597333 6.748,20 12,20 C17.252,20 20,18.8597333 20,17.7333333 C20,16.7304 18.0389333,15.7992 15.2312,15.4685333 Z" id="Path" fill="#FFFFFF"></path>
                    </g>
                </g>
            </g>
        </g>
    </g>
</svg>