<?xml version="1.0" encoding="UTF-8"?>
<svg width="24px" height="24px" viewBox="0 0 24 24" version="1.1" xmlns="http://www.w3.org/2000/svg" xmlns:xlink="http://www.w3.org/1999/xlink">
    <title>ECC0B8EF-C40A-4B75-AA85-651462301F3D</title>
    <g id="A:-My-Lessons" stroke="none" stroke-width="1" fill="none" fill-rule="evenodd">
        <g id="Desktop-C-04-BL-MyLessons-Paused" transform="translate(-881.000000, -191.000000)" fill-rule="nonzero">
            <g id="Compounds/Menus/Intent/StudyPlan-Pause/Desktop" transform="translate(858.000000, 120.000000)">
                <g id="Elements/List/BrowseBooks/Assign-Create" transform="translate(0.000000, 55.000000)">
                    <g id="repeat-1" transform="translate(23.000000, 16.000000)">
                        <path d="M12,0 C5.3832,0 0,5.3832 0,12 C0,18.6168 5.3832,24 12,24 C18.6168,24 24,18.6168 24,12 C24,5.3832 18.6168,0 12,0 Z" id="Shape" fill="#A587DF"></path>
                        <path d="M19.2,11.2 C18.9788,11.2 18.8,11.3788 18.8,11.6 C18.8,14.026 16.826,16 14.4,16 L9.63,16 L13.0352,13.5236 C13.214,13.394 13.2536,13.1436 13.1236,12.9652 C12.994,12.7864 12.744,12.7468 12.5652,12.8768 L7.72,16.4 L12.5648,19.9236 C12.636,19.9752 12.718,20 12.7996,20 C12.9236,20 13.0452,19.9428 13.1236,19.8352 C13.2536,19.6568 13.2144,19.4064 13.0352,19.2768 L9.63,16.8 L14.4,16.8 C17.2672,16.8 19.6,14.4672 19.6,11.6 C19.6,11.3788 19.4212,11.2 19.2,11.2 Z" id="Path" fill="#FFFFFF"></path>
                        <path d="M13.97,8 L10.5648,10.4764 C10.386,10.606 10.3464,10.8564 10.4764,11.0348 C10.5544,11.1428 10.6764,11.1996 10.8004,11.1996 C10.882,11.1996 10.964,11.1744 11.0352,11.1232 L15.88,7.6 L11.0352,4.0764 C10.856,3.9464 10.606,3.9856 10.4768,4.1648 C10.3468,4.3432 10.386,4.5936 10.5652,4.7232 L13.97,7.2 L9.2,7.2 C6.3328,7.2 4,9.5328 4,12.4 C4,12.6212 4.1788,12.8 4.4,12.8 C4.6212,12.8 4.8,12.6212 4.8,12.4 C4.8,9.974 6.774,8 9.2,8 L13.97,8 Z" id="Path" fill="#FFFFFF"></path>
                    </g>
                </g>
            </g>
        </g>
    </g>
</svg>