<?xml version="1.0" encoding="UTF-8"?>
<svg width="29px" height="28px" viewBox="0 0 29 28" version="1.1" xmlns="http://www.w3.org/2000/svg" xmlns:xlink="http://www.w3.org/1999/xlink">
    <g id="" stroke="none" stroke-width="1" fill="none" fill-rule="evenodd">
        <g id="" transform="translate(-978.000000, -354.000000)" fill-rule="nonzero">
            <g id="" transform="translate(0.000000, 100.000000)">
                <g id="" transform="translate(963.000000, 115.000000)">
                    <g id="" transform="translate(0.000000, 125.000000)">
                        <g id="" transform="translate(29.818166, 28.000000) rotate(-10.000000) translate(-29.818166, -28.000000) translate(17.818166, 16.000000)">
                            <g id="" transform="translate(2.000000, 2.000000)">
                                <path d="M18.0367857,20 L5.89285714,20 L5.89285714,0.00107142857 L18.0367857,0.00107142857 C18.6278571,0.00107142857 19.1071429,0.480357143 19.1071429,1.07142857 L19.1071429,18.9296429 C19.1071429,19.5207143 18.6278571,20 18.0367857,20 Z" id="Path" fill="#6B4842"></path>
                                <rect id="Rectangle" fill="#BFA380" x="15.1785714" y="0.00107142857" width="1.78571429" height="19.9989286"></rect>
                                <rect id="Rectangle" fill="#BE6E41" x="1.96428571" y="0" width="3.92857143" height="20"></rect>
                                <circle id="Oval" fill="#6B4842" cx="3.39285714" cy="16.0714286" r="1"></circle>
                                <circle id="Oval" fill="#6B4842" cx="3.39285714" cy="13.9285714" r="1"></circle>
                                <circle id="Oval" fill="#6B4842" cx="3.39285714" cy="11.7857143" r="1"></circle>
                                <circle id="Oval" fill="#6B4842" cx="3.39285714" cy="9.64285714" r="1"></circle>
                                <path d="M0.178571429,9.64285714 C0.178571429,10.0464286 0.318214286,10.415 0.544642857,10.7142857 C0.689285714,10.5235714 0.870357143,10.3646429 1.07857143,10.2446429 C0.961428571,10.0728571 0.892857143,9.86571429 0.892857143,9.64285714 C0.892857143,9.05214286 1.37357143,8.57142857 1.96428571,8.57142857 C2.555,8.57142857 3.03571429,9.05214286 3.03571429,9.64285714 C3.03571429,9.84035714 3.19535714,10 3.39285714,10 C3.59035714,10 3.75,9.84035714 3.75,9.64285714 C3.75,8.65821429 2.94892857,7.85714286 1.96428571,7.85714286 C0.979642857,7.85714286 0.178571429,8.65821429 0.178571429,9.64285714 Z" id="Path" fill="#D8A852"></path>
                                <path d="M1.07857143,11.1839286 C1.34071429,11.3353571 1.64035714,11.4285714 1.96428571,11.4285714 L1.96428571,10.7142857 C1.59642857,10.7142857 1.27178571,10.9007143 1.07857143,11.1839286 Z" id="Path" fill="#A37F46"></path>
                                <path d="M1.07857143,13.3267857 C1.34071429,13.4782143 1.64035714,13.5714286 1.96428571,13.5714286 L1.96428571,12.8571429 C1.59642857,12.8571429 1.27178571,13.0435714 1.07857143,13.3267857 Z" id="Path" fill="#A37F46"></path>
                                <path d="M1.07857143,10.2446429 C0.870357143,10.3646429 0.689285714,10.5235714 0.544642857,10.7142857 C0.318214286,11.0135714 0.178571429,11.3821429 0.178571429,11.7857143 C0.178571429,12.1892857 0.318214286,12.5578571 0.544642857,12.8571429 C0.689285714,12.6664286 0.870357143,12.5075 1.07857143,12.3875 C0.961428571,12.2157143 0.892857143,12.0085714 0.892857143,11.7857143 C0.892857143,11.5628571 0.961428571,11.3557143 1.07857143,11.1839286 C1.27178571,10.9007143 1.59642857,10.7142857 1.96428571,10.7142857 C2.555,10.7142857 3.03571429,11.195 3.03571429,11.7857143 C3.03571429,11.9832143 3.19535714,12.1428571 3.39285714,12.1428571 C3.59035714,12.1428571 3.75,11.9832143 3.75,11.7857143 C3.75,10.8010714 2.94892857,10 1.96428571,10 C1.64035714,10 1.34071429,10.0932143 1.07857143,10.2446429 Z" id="Path" fill="#D8A852"></path>
                                <path d="M1.07857143,15.4696429 C1.34071429,15.6210714 1.64035714,15.7142857 1.96428571,15.7142857 L1.96428571,15 C1.59642857,15 1.27178571,15.1864286 1.07857143,15.4696429 Z" id="Path" fill="#A37F46"></path>
                                <path d="M1.07857143,12.3875 C0.870357143,12.5075 0.689285714,12.6664286 0.544642857,12.8571429 C0.318214286,13.1564286 0.178571429,13.525 0.178571429,13.9285714 C0.178571429,14.3321429 0.318214286,14.7007143 0.544642857,15 C0.689285714,14.8092857 0.870357143,14.6503571 1.07857143,14.5303571 C0.961428571,14.3585714 0.892857143,14.1514286 0.892857143,13.9285714 C0.892857143,13.7057143 0.961428571,13.4985714 1.07857143,13.3267857 C1.27178571,13.0435714 1.59642857,12.8571429 1.96428571,12.8571429 C2.555,12.8571429 3.03571429,13.3378571 3.03571429,13.9285714 C3.03571429,14.1260714 3.19535714,14.2857143 3.39285714,14.2857143 C3.59035714,14.2857143 3.75,14.1260714 3.75,13.9285714 C3.75,12.9439286 2.94892857,12.1428571 1.96428571,12.1428571 C1.64035714,12.1428571 1.34071429,12.2360714 1.07857143,12.3875 Z" id="Path" fill="#D8A852"></path>
                                <circle id="Oval" fill="#6B4842" cx="3.39285714" cy="7.5" r="1"></circle>
                                <circle id="Oval" fill="#6B4842" cx="3.39285714" cy="5.35714286" r="1"></circle>
                                <circle id="Oval" fill="#6B4842" cx="3.39285714" cy="3.21428571" r="1"></circle>
                                <path d="M0.178571429,3.21428571 C0.178571429,3.61785714 0.318214286,3.98642857 0.544642857,4.28571429 C0.689285714,4.095 0.870357143,3.93607143 1.07857143,3.81607143 C0.961428571,3.64428571 0.892857143,3.43714286 0.892857143,3.21428571 C0.892857143,2.62357143 1.37357143,2.14285714 1.96428571,2.14285714 C2.555,2.14285714 3.03571429,2.62357143 3.03571429,3.21428571 C3.03571429,3.41178571 3.19535714,3.57142857 3.39285714,3.57142857 C3.59035714,3.57142857 3.75,3.41178571 3.75,3.21428571 C3.75,2.22964286 2.94892857,1.42857143 1.96428571,1.42857143 C0.979642857,1.42857143 0.178571429,2.22964286 0.178571429,3.21428571 Z" id="Path" fill="#D8A852"></path>
                                <path d="M1.07857143,4.75535714 C1.34071429,4.90678571 1.64035714,5 1.96428571,5 L1.96428571,4.28571429 C1.59642857,4.28571429 1.27178571,4.47214286 1.07857143,4.75535714 Z" id="Path" fill="#A37F46"></path>
                                <path d="M1.07857143,6.89821429 C1.34071429,7.04964286 1.64035714,7.14285714 1.96428571,7.14285714 L1.96428571,6.42857143 C1.59642857,6.42857143 1.27178571,6.615 1.07857143,6.89821429 Z" id="Path" fill="#A37F46"></path>
                                <path d="M1.07857143,3.81607143 C0.870357143,3.93607143 0.689285714,4.095 0.544642857,4.28571429 C0.318214286,4.585 0.178571429,4.95357143 0.178571429,5.35714286 C0.178571429,5.76071429 0.318214286,6.12928571 0.544642857,6.42857143 C0.689285714,6.23785714 0.870357143,6.07892857 1.07857143,5.95892857 C0.961428571,5.78714286 0.892857143,5.58 0.892857143,5.35714286 C0.892857143,5.13428571 0.961428571,4.92714286 1.07857143,4.75535714 C1.27178571,4.47214286 1.59642857,4.28571429 1.96428571,4.28571429 C2.555,4.28571429 3.03571429,4.76642857 3.03571429,5.35714286 C3.03571429,5.55464286 3.19535714,5.71428571 3.39285714,5.71428571 C3.59035714,5.71428571 3.75,5.55464286 3.75,5.35714286 C3.75,4.3725 2.94892857,3.57142857 1.96428571,3.57142857 C1.64035714,3.57142857 1.34071429,3.66464286 1.07857143,3.81607143 Z" id="Path" fill="#D8A852"></path>
                                <path d="M1.07857143,9.04107143 C1.34071429,9.1925 1.64035714,9.28571429 1.96428571,9.28571429 L1.96428571,8.57142857 C1.59642857,8.57142857 1.27178571,8.75785714 1.07857143,9.04107143 Z" id="Path" fill="#A37F46"></path>
                                <path d="M1.07857143,5.95892857 C0.870357143,6.07892857 0.689285714,6.23785714 0.544642857,6.42857143 C0.318214286,6.72785714 0.178571429,7.09642857 0.178571429,7.5 C0.178571429,7.90357143 0.318214286,8.27214286 0.544642857,8.57142857 C0.689285714,8.38071429 0.870357143,8.22178571 1.07857143,8.10178571 C0.961428571,7.93 0.892857143,7.72285714 0.892857143,7.5 C0.892857143,7.27714286 0.961428571,7.07 1.07857143,6.89821429 C1.27178571,6.615 1.59642857,6.42857143 1.96428571,6.42857143 C2.555,6.42857143 3.03571429,6.90928571 3.03571429,7.5 C3.03571429,7.6975 3.19535714,7.85714286 3.39285714,7.85714286 C3.59035714,7.85714286 3.75,7.6975 3.75,7.5 C3.75,6.51535714 2.94892857,5.71428571 1.96428571,5.71428571 C1.64035714,5.71428571 1.34071429,5.8075 1.07857143,5.95892857 Z" id="Path" fill="#D8A852"></path>
                                <path d="M1.07857143,14.5303571 C0.870357143,14.6503571 0.689285714,14.8092857 0.544642857,15 C0.318214286,15.2992857 0.178571429,15.6678571 0.178571429,16.0714286 C0.178571429,17.0560714 0.979642857,17.8571429 1.96428571,17.8571429 L1.96428571,17.1428571 C1.37357143,17.1428571 0.892857143,16.6621429 0.892857143,16.0714286 C0.892857143,15.8485714 0.961428571,15.6414286 1.07857143,15.4696429 C1.27178571,15.1864286 1.59642857,15 1.96428571,15 C2.555,15 3.03571429,15.4807143 3.03571429,16.0714286 C3.03571429,16.2689286 3.19535714,16.4285714 3.39285714,16.4285714 C3.59035714,16.4285714 3.75,16.2689286 3.75,16.0714286 C3.75,15.0867857 2.94892857,14.2857143 1.96428571,14.2857143 C1.64035714,14.2857143 1.34071429,14.3789286 1.07857143,14.5303571 Z" id="Path" fill="#D8A852"></path>
                            </g>
                        </g>
                    </g>
                </g>
            </g>
        </g>
    </g>
</svg>