<?xml version="1.0" encoding="UTF-8"?>
<svg width="42px" height="42px" viewBox="0 0 42 42" version="1.1" xmlns="http://www.w3.org/2000/svg" xmlns:xlink="http://www.w3.org/1999/xlink">
    <title>2E9415E4-0A7E-4EF7-909C-FC65209A487B</title>
    <defs>
        <rect id="path-1" x="0.696666667" y="0.696666667" width="40.4066667" height="40.4066667" rx="50"></rect>
    </defs>
    <g id="A:-My-Lessons" stroke="none" stroke-width="1" fill="none" fill-rule="evenodd">
        <g id="C:01-BL-MyLessons" transform="translate(-38.000000, -188.000000)">
            <g id="Templates/BaseLayer/Generic/MyLessons/Default" transform="translate(0.000000, -509.000000)">
                <g id="Templates/Global/Generic/Default" transform="translate(0.000000, 509.000000)">
                    <g id="GSN/Graphs/StudyRings" transform="translate(40.000000, 65.000000)">
                        <g id="Group-3" transform="translate(0.000000, 93.000000)">
                            <g id="Elements/Graphics/Style1/Time/Colour" transform="translate(0.000000, 32.000000)">
                                <g transform="translate(-1.900000, -1.900000)" id="Graphics">
                                    <mask id="mask-2" fill="white">
                                        <use xlink:href="#path-1"></use>
                                    </mask>
                                    <use id="Rectangle" fill="#8A6D54" xlink:href="#path-1"></use>
                                    <polygon id="Star" fill-opacity="0.6" fill="#C9A586" mask="url(#mask-2)" points="20.9 33.4039745 10.2358884 46.645443 12.0583549 29.7416451 -4.84544297 31.5641116 8.39602555 20.9 -4.84544297 10.2358884 12.0583549 12.0583549 10.2358884 -4.84544297 20.9 8.39602555 31.5641116 -4.84544297 29.7416451 12.0583549 46.645443 10.2358884 33.4039745 20.9 46.645443 31.5641116 29.7416451 29.7416451 31.5641116 46.645443"></polygon>
                                    <rect id="Rectangle" stroke="#FFFFFF" stroke-width="2" x="1" y="1" width="39.8" height="39.8" rx="50"></rect>
                                    <g id="Elements/Graphics/Time" opacity="0.6" transform="translate(8.360000, 8.360000)" fill-rule="nonzero">
                                        <g id="004-time">
                                            <circle id="Oval" fill="#CCCCCC" cx="12.54" cy="12.54" r="12.122"></circle>
                                            <path d="M24.652804,15.78577 C24.653222,15.784516 24.652804,15.782844 24.653222,15.78159 C24.929938,14.74704 25.08,13.660658 25.08,12.54 C25.08,11.419342 24.929938,10.33296 24.652804,9.29841 C24.652386,9.297156 24.652804,9.295484 24.652804,9.295484 C24.651968,9.292558 24.650714,9.291304 24.650296,9.289632 C24.365638,8.230838 23.94513,7.227638 23.409254,6.298424 C23.404656,6.289228 23.404656,6.278778 23.39964,6.269582 C23.394624,6.260804 23.385428,6.255788 23.379994,6.24701 C22.83743,5.315706 22.180752,4.459224 21.425008,3.699718 C21.417902,3.691358 21.414976,3.68049 21.407034,3.672548 C21.399092,3.664606 21.388224,3.66168 21.379864,3.654574 C20.620358,2.89883 19.763876,2.242152 18.832572,1.699588 C18.824212,1.694154 18.819196,1.685376 18.81,1.68036 C18.800804,1.674926 18.790354,1.674926 18.78074,1.670746 C17.851526,1.135288 16.848744,0.714362 15.78995,0.429704 C15.788278,0.429286 15.787024,0.428032 15.78577,0.427614 C15.784516,0.427196 15.782844,0.427614 15.78159,0.427614 C14.74704,0.150062 13.660658,0 12.54,0 C11.419342,0 10.33296,0.150062 9.29841,0.427196 C9.297156,0.427614 9.295484,0.427196 9.29423,0.427196 C9.292558,0.427614 9.291304,0.428868 9.29005,0.429286 C8.231256,0.713526 7.228474,1.134452 6.29926,1.66991 C6.289646,1.674926 6.279196,1.674926 6.27,1.68036 C6.260804,1.685376 6.255788,1.694572 6.247428,1.700006 C5.316124,2.24257 4.459642,2.899248 3.700136,3.654992 C3.691776,3.662098 3.680908,3.665024 3.672966,3.672966 C3.665024,3.680908 3.662098,3.691776 3.654992,3.700136 C2.899666,4.459642 2.24257,5.316124 1.700006,6.247428 C1.694154,6.256206 1.685376,6.261222 1.68036,6.27 C1.674926,6.279196 1.675344,6.289228 1.670746,6.298842 C1.13487,7.228056 0.714362,8.231256 0.429704,9.29005 C0.429286,9.291722 0.428032,9.292558 0.427614,9.29423 C0.427614,9.29423 0.427614,9.297156 0.427196,9.29841 C0.150062,10.33296 0,11.419342 0,12.54 C0,13.660658 0.150062,14.74704 0.427196,15.78159 C0.427614,15.782844 0.427196,15.784516 0.427614,15.78577 C0.428032,15.78786 0.429704,15.789114 0.430122,15.791204 C0.71478,16.84958 1.135288,17.852362 1.670746,18.781576 C1.674926,18.790772 1.674926,18.800804 1.68036,18.81 C1.687884,18.822958 1.698752,18.83299 1.70753,18.844694 C2.24884,19.770982 2.90301,20.623702 3.65541,21.379446 C3.662516,21.387806 3.665442,21.398674 3.673384,21.406616 C3.681326,21.414558 3.692194,21.417484 3.700554,21.42459 C4.459642,22.179916 5.315706,22.836176 6.246592,23.37874 C6.25537,23.38501 6.260804,23.394206 6.270418,23.39964 C6.28463,23.408 6.300096,23.411762 6.315144,23.418032 C7.240178,23.94931 8.237526,24.366892 9.290468,24.649878 C9.29214,24.650296 9.293394,24.65155 9.294648,24.651968 C9.296738,24.652386 9.298828,24.652386 9.300918,24.652804 C10.334632,24.930356 11.41976,25.08 12.54,25.08 C13.66024,25.08 14.745368,24.930356 15.7795,24.653222 C15.78159,24.652804 15.78368,24.652804 15.78577,24.652386 C15.787442,24.651968 15.788696,24.650714 15.78995,24.650296 C16.842892,24.36731 17.84024,23.949728 18.765274,23.41845 C18.780322,23.41218 18.795788,23.408418 18.81,23.400058 C18.819614,23.394624 18.825048,23.38501 18.833826,23.379158 C19.764294,22.836594 20.620776,22.180334 21.379864,21.425008 C21.388224,21.417902 21.399092,21.414976 21.407034,21.407034 C21.414976,21.399092 21.417902,21.388224 21.425008,21.379864 C22.17699,20.623702 22.831578,19.7714 23.372888,18.845112 C23.381666,18.83299 23.392534,18.823376 23.400058,18.810418 C23.405492,18.801222 23.405074,18.79119 23.409672,18.781576 C23.94513,17.85278 24.365638,16.849998 24.650296,15.791204 C24.650714,15.789114 24.651968,15.78786 24.652804,15.78577 Z M22.92939,15.75651 L23.72986,15.970944 C23.509992,16.686978 23.22199,17.373752 22.875468,18.02416 L22.161106,17.611594 C21.961302,17.496226 21.705486,17.56436 21.590118,17.764582 C21.47475,17.964804 21.543302,18.220202 21.743106,18.33557 L22.455378,18.746882 C22.059532,19.377226 21.605584,19.967024 21.10064,20.50917 L20.520456,19.928986 C20.357018,19.765548 20.092842,19.765548 19.929404,19.928986 C19.765966,20.092424 19.765966,20.3566 19.929404,20.520038 L20.509588,21.100222 C19.967442,21.605166 19.377644,22.059114 18.7473,22.45496 L18.335988,21.74227 C18.220202,21.542048 17.963968,21.473496 17.765,21.589282 C17.564778,21.70465 17.496226,21.960466 17.612012,22.16027 L18.024578,22.874632 C17.373752,23.221154 16.687396,23.509156 15.971362,23.729024 L15.756928,22.928554 C15.697154,22.705342 15.468926,22.572836 15.244878,22.633028 C15.022084,22.692802 14.889578,22.921866 14.949352,23.145078 L15.163368,23.94304 C14.450678,24.106896 13.713744,24.205544 12.958418,24.232296 L12.958418,22.572 C12.958418,22.340846 12.771572,22.154 12.540418,22.154 C12.309264,22.154 12.122418,22.340846 12.122418,22.572 L12.122418,24.23355 C11.367092,24.206798 10.630158,24.10815 9.917468,23.944294 L10.131484,23.146332 C10.191258,22.923538 10.058752,22.694056 9.835958,22.634282 C9.613164,22.574508 9.383682,22.706596 9.323908,22.929808 L9.109474,23.730278 C8.39344,23.51041 7.707084,23.222408 7.056258,22.875886 L7.468824,22.161524 C7.584192,21.961302 7.51564,21.705904 7.315836,21.590536 C7.116032,21.475168 6.860634,21.54372 6.744848,21.743524 L6.333536,22.456214 C5.703192,22.060368 5.113394,21.60642 4.571248,21.101476 L5.151432,20.521292 C5.31487,20.357854 5.31487,20.093678 5.151432,19.93024 C4.987994,19.766802 4.723818,19.766802 4.56038,19.93024 L3.97936,20.509588 C3.474416,19.967442 3.020468,19.377644 2.624622,18.7473 L3.336894,18.335988 C3.537116,18.22062 3.605668,17.965222 3.4903,17.765 C3.374514,17.564778 3.118698,17.496226 2.919312,17.612012 L2.20495,18.024578 C1.858428,17.373752 1.570426,16.687396 1.350558,15.971362 L2.151028,15.756928 C2.373822,15.697154 2.506328,15.46809 2.446554,15.244878 C2.387198,15.021666 2.158134,14.888742 1.934504,14.949352 L1.136542,15.16295 C0.972268,14.45026 0.873202,13.713326 0.84645,12.958 L2.508,12.958 C2.739154,12.958 2.926,12.771154 2.926,12.54 C2.926,12.308846 2.739154,12.122 2.508,12.122 L0.84645,12.122 C0.873202,11.366674 0.97185,10.62974 1.135706,9.91705 L1.933668,10.130648 C1.970034,10.140262 2.0064,10.14486 2.042348,10.14486 C2.226686,10.14486 2.395976,10.021968 2.445718,9.835122 C2.505492,9.612328 2.372986,9.382846 2.150192,9.323072 L1.35014,9.109056 C1.570008,8.393022 1.85801,7.706248 2.204532,7.05584 L2.918894,7.468406 C2.984938,7.506026 3.056416,7.524 3.127476,7.524 C3.272104,7.524 3.412552,7.449178 3.489882,7.315 C3.60525,7.114778 3.536698,6.85938 3.336894,6.744012 L2.624622,6.3327 C3.020468,5.702356 3.474416,5.112558 3.97936,4.570412 L4.559544,5.150596 C4.641054,5.232106 4.748062,5.27307 4.85507,5.27307 C4.962078,5.27307 5.069086,5.232106 5.150596,5.150596 C5.314034,4.987158 5.314034,4.722982 5.150596,4.559544 L4.570412,3.97936 C5.112558,3.474416 5.702356,3.020468 6.3327,2.624622 L6.744012,3.336894 C6.82176,3.471072 6.96179,3.545894 7.106418,3.545894 C7.177478,3.545894 7.249374,3.52792 7.315,3.489882 C7.515222,3.374514 7.583774,3.118698 7.467988,2.918894 L7.055422,2.204532 C7.706248,1.85801 8.392604,1.570008 9.108638,1.35014 L9.323072,2.15061 C9.372814,2.337456 9.541686,2.460348 9.726442,2.460348 C9.76239,2.460348 9.798756,2.45575 9.835122,2.446136 C10.057916,2.386362 10.190422,2.157298 10.130648,1.934086 L9.916632,1.136124 C10.62974,0.972268 11.366674,0.873202 12.122,0.84645 L12.122,2.508 C12.122,2.739154 12.308846,2.926 12.54,2.926 C12.771154,2.926 12.958,2.739154 12.958,2.508 L12.958,0.84645 C13.713326,0.873202 14.45026,0.97185 15.16295,1.135706 L14.948934,1.933668 C14.88916,2.156462 15.021666,2.385944 15.24446,2.445718 C15.280826,2.455332 15.317192,2.45993 15.35314,2.45993 C15.537478,2.45993 15.706768,2.337038 15.75651,2.150192 L15.970944,1.349722 C16.686978,1.56959 17.373752,1.857592 18.02416,2.204114 L17.611594,2.918476 C17.496226,3.118698 17.564778,3.374096 17.764582,3.489464 C17.830208,3.527502 17.902104,3.545476 17.973164,3.545476 C18.117792,3.545476 18.25824,3.470654 18.33557,3.336476 L18.746882,2.624204 C19.377226,3.02005 19.967024,3.473998 20.50917,3.978942 L19.928986,4.559126 C19.765548,4.722564 19.765548,4.98674 19.928986,5.150178 C20.010496,5.231688 20.117504,5.272652 20.224512,5.272652 C20.33152,5.272652 20.438528,5.231688 20.520038,5.150178 L21.100222,4.569994 C21.605166,5.11214 22.059114,5.701938 22.45496,6.332282 L21.742688,6.743594 C21.542466,6.858962 21.473914,7.114778 21.5897,7.314582 C21.667448,7.44876 21.807478,7.523582 21.952106,7.523582 C22.023166,7.523582 22.095062,7.505608 22.160688,7.46757 L22.87505,7.055004 C23.221572,7.70583 23.509574,8.392186 23.729442,9.10822 L22.928972,9.322654 C22.706178,9.382428 22.573672,9.611492 22.633446,9.834704 C22.683188,10.02155 22.85206,10.144442 23.036816,10.144442 C23.072764,10.144442 23.10913,10.139844 23.145496,10.13023 L23.943458,9.916632 C24.107314,10.629322 24.20638,11.366256 24.232714,12.121582 L22.572,12.121582 C22.340846,12.121582 22.154,12.308428 22.154,12.539582 C22.154,12.770736 22.340846,12.957582 22.572,12.957582 L24.23355,12.957582 C24.206798,13.712908 24.10815,14.449842 23.944294,15.162532 L23.146332,14.948934 C22.923956,14.88916 22.694056,15.021248 22.634282,15.24446 C22.574508,15.467672 22.706596,15.697154 22.92939,15.75651 Z" id="Shape" fill="#53463B"></path>
                                            <path d="M17.138,12.122 L14.152644,12.122 C14.000492,11.537218 13.542782,11.07909 12.958,10.927356 L12.958,5.434 C12.958,5.202846 12.771154,5.016 12.54,5.016 C12.308846,5.016 12.122,5.202846 12.122,5.434 L12.122,10.927356 C11.402622,11.114202 10.868,11.762938 10.868,12.54 C10.868,13.462108 11.617892,14.212 12.54,14.212 C13.317062,14.212 13.965798,13.67696 14.152644,12.958 L17.138,12.958 C17.369154,12.958 17.556,12.771154 17.556,12.54 C17.556,12.308846 17.369154,12.122 17.138,12.122 Z M12.54,13.376 C12.078946,13.376 11.704,13.001054 11.704,12.54 C11.704,12.078946 12.078946,11.704 12.54,11.704 C13.001054,11.704 13.376,12.078946 13.376,12.54 C13.376,13.001054 13.001054,13.376 12.54,13.376 Z" id="Shape" fill="#53463B"></path>
                                        </g>
                                    </g>
                                </g>
                            </g>
                        </g>
                    </g>
                </g>
            </g>
        </g>
    </g>
</svg>