<?xml version="1.0" encoding="UTF-8"?>
<svg width="18px" height="18px" viewBox="0 0 18 18" version="1.1" xmlns="http://www.w3.org/2000/svg" xmlns:xlink="http://www.w3.org/1999/xlink">
    <title>F9806CBC-12CE-457F-AA3C-40E459163BB5</title>
    <g id="B:-Manage-Study-Plans" stroke="none" stroke-width="1" fill="none" fill-rule="evenodd">
        <g id="C:04-SC-StudyPlans-Home" transform="translate(-735.000000, -421.000000)" fill-rule="nonzero">
            <g id="Screens/LandingPages/BrowseBooks/Desktop">
                <g id="Group-2" transform="translate(438.000000, 120.000000)">
                    <g id="Elements/Tracker" transform="translate(294.000000, 298.000000)">
                        <g id="Elements/Graphics/Style3/Tortoise/White" transform="translate(3.000000, 3.000000)">
                            <g id="Tortoise">
                                <g id="turtle" transform="translate(9.000000, 8.964844) scale(-1, 1) translate(-9.000000, -8.964844) translate(0.000000, 4.500000)">
                                    <path d="M16.8521484,5.04977344 L16.6170938,4.47897656 C16.5306094,4.26888281 16.304625,4.15300781 16.0834922,4.20532031 C14.5660078,4.56454688 9.00105469,6.2904375 6.02310938,3.80116406 C5.896125,3.69499219 5.70459375,3.79139063 5.71626563,3.95648438 C5.76246094,4.60785938 6.07422656,5.81139844 7.69492969,6.22961719 C9.84839063,6.78536719 14.5108828,6.21864844 16.6618125,5.47080469 C16.8344297,5.41075781 16.9217578,5.21880469 16.8521484,5.04977344 Z" id="Path" fill="#9E512B"></path>
                                    <g id="Group" transform="translate(5.976562, 0.175781)" fill="#7D3D1A">
                                        <path d="M6.150375,4.84235156 L5.8910625,2.83872656 C5.86026563,2.60085938 5.65769531,2.42275781 5.41778906,2.42275781 L4.39959375,2.42275781 C4.15975781,2.42275781 3.95711719,2.60085938 3.92632031,2.83872656 L3.657375,4.91709375 C4.49289844,4.97882813 5.34445313,4.93678125 6.150375,4.84235156 L6.150375,4.84235156 Z" id="Path"></path>
                                        <path d="M5.89113281,2.83879688 L6.15030469,4.84157813 C7.009875,4.74089063 7.81776563,4.58198438 8.49803906,4.42638281 L7.79041406,2.44040625 C7.70990625,2.21442188 7.47414844,2.08335938 7.23972656,2.13419531 L6.24466406,2.34998438 C6.04371094,2.39357813 5.89767188,2.55930469 5.87278125,2.75632031 C5.88114844,2.78282812 5.88740625,2.81032031 5.89113281,2.83879688 L5.89113281,2.83879688 Z" id="Path"></path>
                                        <path d="M8.67796875,1.54659375 L8.01991406,1.86792188 C7.82957812,1.960875 7.7265,2.16583594 7.75778906,2.36903906 C7.77030469,2.39167969 7.78148437,2.41530469 7.79041406,2.44040625 L8.49803906,4.42638281 C9.19448437,4.267125 9.75796875,4.11215625 10.107,4.02960938 C10.1583984,4.01744531 10.2099375,4.01519531 10.2600703,4.02032813 C9.95477344,3.27614063 9.45386719,2.33107031 8.67796875,1.54659375 L8.67796875,1.54659375 Z" id="Path"></path>
                                        <path d="M3.92639063,2.83879688 C3.93082031,2.80434375 3.93925781,2.77136719 3.95057813,2.73979688 C3.91978125,2.55016406 3.77641406,2.39238281 3.58108594,2.34998438 L2.58602344,2.13419531 C2.35160156,2.08335938 2.11584375,2.21442188 2.03533594,2.44040625 L1.33734375,4.39945312 C2.05832813,4.70053125 2.85032813,4.856625 3.65758594,4.91632031 L3.92639063,2.83879688 Z" id="Path"></path>
                                        <path d="M2.03533594,2.44033594 C2.04426562,2.41523437 2.055375,2.39160937 2.06796094,2.36896875 C2.09925,2.16576562 1.99617188,1.96080469 1.80583594,1.86785156 L1.28235937,1.61226563 C0.674929688,2.25358594 0.26578125,2.98476562 0.000140625,3.59669531 C0.016171875,3.60379687 0.0318515625,3.61307812 0.046546875,3.62538281 C0.437203125,3.95191406 0.872859375,4.20482812 1.33755469,4.39882031 L2.03533594,2.44033594 Z" id="Path"></path>
                                        <path d="M7.23972656,2.134125 C7.44813281,2.08891406 7.6573125,2.18770313 7.75778906,2.36896875 C7.7265,2.16576563 7.82957812,1.96080469 8.01991406,1.86785156 L8.67782812,1.54659375 C8.01365625,0.876023438 7.38625781,0.56475 7.08046875,0.441140625 C6.70795313,0.290601563 6.12330469,0.28434375 6.12330469,0.682734375 C6.12330469,1.03858594 6.2218125,1.71049219 6.381,2.32038281 L7.23972656,2.134125 Z" id="Path"></path>
                                        <path d="M3.01710937,0.40753125 C2.30990625,0.69834375 1.73988281,1.12971094 1.2825,1.61233594 L1.80583594,1.86785156 C1.99617187,1.96080469 2.09925,2.16576563 2.06796094,2.36896875 C2.1684375,2.18770312 2.37761719,2.08891406 2.58602344,2.134125 L3.40270312,2.31124219 C3.56048437,1.7038125 3.6579375,1.03682813 3.6579375,0.682734375 C3.65786719,0.379265625 3.30335156,0.289828125 3.01710937,0.40753125 L3.01710937,0.40753125 Z" id="Path"></path>
                                        <path d="M3.65786719,0.682734375 C3.65786719,1.03682812 3.56041406,1.7038125 3.40263281,2.31124219 L3.58101562,2.34991406 C3.77634375,2.39224219 3.91971094,2.55002344 3.95050781,2.73972656 C4.01695312,2.5531875 4.19449219,2.42275781 4.39959375,2.42275781 L5.41778906,2.42275781 C5.62900781,2.42275781 5.81111719,2.56085156 5.87271094,2.75617969 C5.89760156,2.55923437 6.04371094,2.3934375 6.24459375,2.34984375 L6.38092969,2.32024219 C6.22174219,1.71035156 6.12323437,1.03844531 6.12323437,0.68259375 C6.12323437,0.54225 6.19664062,0.452953125 6.30689062,0.401695312 C5.12690625,-0.336585938 4.01378906,0.120445312 3.5055,0.416109375 C3.59683594,0.469054687 3.65786719,0.557296875 3.65786719,0.682734375 Z" id="Path"></path>
                                    </g>
                                    <path d="M13.5915469,6.1644375 C13.5918984,6.16436719 13.5921797,6.16436719 13.5925313,6.16429687 C11.4864609,6.47936719 9.09710156,6.58378125 7.716375,6.23460937 C7.56963281,6.33979688 7.43765625,6.47507812 7.35651563,6.64586719 C7.71067969,7.29625781 8.48144531,7.56759375 9.15032813,7.318125 C9.32941406,7.25132813 9.53409375,7.28803125 9.68027344,7.41114844 C10.2230156,7.86803906 11.0136797,7.86810938 11.5564922,7.41114844 C11.7027422,7.28803125 11.9073516,7.25132813 12.0864375,7.318125 C12.6535781,7.52969531 13.3026328,7.37008594 13.7067891,6.89800781 C13.5311484,6.67244531 13.4385469,6.42199219 13.5915469,6.1644375 L13.5915469,6.1644375 Z" id="Path" fill="#F9BD55"></path>
                                    <path d="M9.47390625,6.4445625 L9.3616875,7.28613281 C9.47692969,7.29210938 9.58978125,7.335 9.68020313,7.41114844 C10.2229453,7.86803906 11.0136094,7.86810938 11.5564219,7.41114844 C11.6396719,7.34104687 11.7420469,7.30005469 11.8477266,7.28915625 L11.7011953,6.38064844 C10.9267031,6.44189063 10.1645156,6.46692187 9.47390625,6.4445625 L9.47390625,6.4445625 Z" id="Path" fill="#F9BD55"></path>
                                    <path d="M6.336,5.46180469 C5.87242969,4.95703125 5.74446094,4.35403125 5.71626563,3.95641406 C5.71542188,3.94474219 5.71584375,3.93349219 5.71696875,3.92252344 C5.58513281,3.89411719 5.44964063,3.84996094 5.3195625,3.78119531 C5.3195625,3.78119531 4.88102344,3.56196094 4.65841406,2.85082031 C4.42342969,2.10009375 3.66778125,1.67695312 3.10190625,1.60417969 C3.04185938,1.59644531 2.984625,1.57549219 2.93364844,1.54279687 C2.64466406,1.35682031 2.26947656,1.37102344 1.99335938,1.58069531 C1.95089063,1.61296875 1.90202344,1.63645313 1.84999219,1.64833594 C1.23574219,1.78797656 0.556242187,2.20134375 0.179578125,3.37380469 C0.162351562,3.4273125 0.203976562,3.48194531 0.260085937,3.477375 C0.369492187,3.46851563 0.589992187,3.47871094 0.679007812,3.51907031 C0.679007812,3.51907031 1.08689062,4.5061875 1.93338281,4.70299219 C2.77994531,4.89979688 3.4970625,4.55660156 4.2733125,5.05575 C4.2733125,5.05575 4.73674219,5.61972656 5.78172656,5.86357031 C5.91475781,5.72519531 6.09525,5.58984375 6.336,5.46180469 Z" id="Path" fill="#3AA03A"></path>
                                    <path d="M7.71630469,6.23460937 C7.70934375,6.23285156 7.70182031,6.231375 7.69492969,6.22961719 C7.06352344,6.06663281 6.63138281,5.78432813 6.33564844,5.46201563 C4.87891406,6.23664844 5.61466406,7.28254687 5.91032813,7.61892187 C5.9529375,7.6674375 5.92734375,7.74225 5.86490625,7.75877344 C5.38952344,7.88470312 5.22246094,8.21615625 5.16494531,8.46154687 C5.13021094,8.60969531 5.24369531,8.75109375 5.39585156,8.75109375 L6.96410156,8.75109375 C6.96410156,8.75109375 7.69492969,8.53185937 7.32951563,7.36249219 C7.1578125,6.81321094 7.40545313,6.4575 7.71630469,6.23460937 L7.71630469,6.23460937 Z" id="Path" fill="#3AA03A"></path>
                                    <path d="M15.6410859,5.76703125 C15.0293672,5.91841406 14.3282109,6.05425781 13.5915469,6.1644375 C13.2377344,6.76026562 14.1967969,7.31798437 14.4613125,7.61892187 C14.5039219,7.6674375 14.4783281,7.74225 14.4158906,7.75877344 C13.9405078,7.88470312 13.7734453,8.21615625 13.7159297,8.46154687 C13.6811953,8.60969531 13.7946797,8.75109375 13.9468359,8.75109375 L15.5150859,8.75109375 C15.5150859,8.75109375 16.3556016,7.94714062 15.7708828,7.2163125 C15.2355234,6.54707812 15.4092656,6.05657812 15.6410859,5.76703125 Z" id="Path" fill="#3AA03A"></path>
                                    <path d="M17.6868984,6.21267188 C17.2006172,5.99280469 16.8157969,5.70199219 16.5794766,5.49822656 C16.3018125,5.59153125 15.9859688,5.68167188 15.6410859,5.76703125 C15.5442656,5.88796875 15.4578516,6.04399219 15.4287422,6.23334375 C16.1002969,6.67996875 16.9738594,6.69501563 17.6071641,6.62238281 C17.8515,6.59432813 17.9055,6.31153125 17.6868984,6.21267188 L17.6868984,6.21267188 Z" id="Path" fill="#3AA03A"></path>
                                    <path d="M5.164875,8.46154688 C5.22239062,8.21615625 5.38945312,7.88463281 5.86483594,7.75877344 C5.92727344,7.74225 5.95286719,7.6674375 5.91025781,7.61892187 C5.66275781,7.33732031 5.10764062,6.55846875 5.78791406,5.85780469 C5.78784375,5.85773438 5.78777344,5.85773438 5.78770313,5.85766406 C5.78580469,5.85963281 5.783625,5.86160156 5.78172656,5.86357031 C5.49914062,5.79761719 5.2605,5.70810937 5.06060156,5.61283594 C3.94755469,6.36679688 4.61010938,7.30399219 4.88692969,7.61892187 C4.92953906,7.6674375 4.90394531,7.74225 4.84150781,7.75877344 C4.366125,7.88470313 4.1990625,8.21615625 4.14154688,8.46154688 C4.1068125,8.60969531 4.22029688,8.75109375 4.37245313,8.75109375 L5.39564063,8.75109375 C5.243625,8.75109375 5.13014063,8.60969531 5.164875,8.46154688 L5.164875,8.46154688 Z" id="Path" fill="#3AA03A"></path>
                                    <path d="M13.7159297,8.46154687 C13.7734453,8.21615625 13.9405078,7.88463281 14.4158906,7.75877344 C14.4783281,7.74225 14.5039219,7.6674375 14.4613125,7.61892187 C14.311125,7.4480625 13.9373437,7.19444531 13.7067187,6.89807812 C13.5401484,7.09263281 13.3316016,7.2331875 13.1047031,7.31749219 C13.2404766,7.43428125 13.3654922,7.53630469 13.4380547,7.61892187 C13.4806641,7.6674375 13.4550703,7.74225 13.3926328,7.75877344 C12.91725,7.88470312 12.7501875,8.21615625 12.6926719,8.46154687 C12.6579375,8.60969531 12.7714219,8.75109375 12.9235781,8.75109375 L13.9467656,8.75109375 C13.7946797,8.75109375 13.6811953,8.60969531 13.7159297,8.46154687 L13.7159297,8.46154687 Z" id="Path" fill="#3AA03A"></path>
                                    <path d="M2.00074219,4.09464844 C1.8286875,4.09464844 1.63764844,4.06385156 1.454625,3.97005469 C1.06150781,3.76875 0.651796875,3.6928125 0.647648438,3.69210937 C0.552164063,3.67474219 0.488742188,3.58326562 0.506109375,3.48771094 C0.523476563,3.39215625 0.614882813,3.32894531 0.710507813,3.34617187 C0.72928125,3.34961719 1.17604688,3.432375 1.6149375,3.65716406 C1.98682031,3.84771094 2.44757813,3.66011719 2.45207813,3.65828906 C2.54123438,3.62017969 2.64466406,3.66152344 2.68284375,3.75075 C2.72102344,3.83997656 2.67967969,3.94333594 2.59038281,3.98151562 C2.57421094,3.98840625 2.32024219,4.09464844 2.00074219,4.09464844 L2.00074219,4.09464844 Z" id="Path" fill="#000000"></path>
                                    <path d="M0.95484375,3.05789062 C0.896132813,3.05789062 0.838757813,3.0285 0.805429687,2.97499219 C0.754101562,2.89258594 0.779273437,2.78416406 0.86175,2.73290625 L1.0108125,2.64009375 C1.09314844,2.58869531 1.20157031,2.61386719 1.25289844,2.69641406 C1.30422656,2.77882031 1.27905469,2.88724219 1.19657813,2.9385 L1.04751563,3.0313125 C1.01861719,3.0493125 0.986554688,3.05789062 0.95484375,3.05789062 L0.95484375,3.05789062 Z" id="Path" fill="#000000"></path>
                                    <path d="M2.79492187,2.76180469 C2.78191406,2.76180469 2.76869531,2.76032813 2.75547656,2.757375 C2.66083594,2.73564844 2.60170312,2.64142969 2.62335937,2.54678906 C2.64571875,2.44926562 2.58454687,2.3518125 2.48709375,2.32952344 C2.38957031,2.30716406 2.29211719,2.36826562 2.26975781,2.46578906 C2.24803125,2.5605 2.15367187,2.61949219 2.05917187,2.59790625 C1.96453125,2.57617969 1.90539844,2.48196094 1.92705469,2.38732031 C1.99272656,2.10086719 2.27917969,1.92128906 2.5655625,1.98682031 C2.85201562,2.05249219 3.03166406,2.338875 2.9660625,2.62532812 C2.94735937,2.70667969 2.87500781,2.76180469 2.79492187,2.76180469 Z" id="Path" fill="#000000"></path>
                                    <path d="M9.97720312,6.62934375 C9.1625625,6.62934375 8.32113281,6.57274219 7.65098437,6.39984375 C5.93360156,5.95666406 5.5918125,4.68653906 5.54097656,3.96892969 C5.5305,3.82141406 5.60552344,3.68817188 5.73679687,3.62102344 C5.866875,3.55457812 6.02346094,3.57229687 6.13582031,3.66630469 C8.78976562,5.88473437 13.5378984,4.67177344 15.5654297,4.15378125 C15.7516172,4.10625 15.9122812,4.0651875 16.0429922,4.03425 C16.3499062,3.96147656 16.6595625,4.12052344 16.7795859,4.41203906 L17.0146406,4.98283594 C17.0667422,5.10939844 17.0644922,5.24784375 17.0083828,5.37257812 C16.9528359,5.49597656 16.8475078,5.59230469 16.7194687,5.63688281 C15.6424219,6.01136719 13.9092187,6.34739062 12.1962656,6.51403125 C11.6309531,6.56901562 10.8183516,6.62934375 9.97720312,6.62934375 L9.97720312,6.62934375 Z M5.90273437,3.93236719 C5.90111719,3.93236719 5.89914844,3.93285938 5.89689844,3.93398438 C5.89113281,3.9369375 5.89134375,3.93960938 5.89169531,3.94403906 C5.93585156,4.56742969 6.23460937,5.67119531 7.738875,6.05939063 C9.77238281,6.58413281 14.3901563,6.07457813 16.6040859,5.30479688 C16.6418438,5.29164844 16.6715859,5.26450781 16.6878281,5.22836719 C16.7039297,5.19264844 16.7045625,5.15299219 16.6895859,5.11671094 L16.4546016,4.54591406 C16.4007422,4.41520313 16.2618047,4.34397656 16.1240625,4.37639063 C15.9949687,4.40697656 15.8364141,4.44747656 15.6524766,4.49444531 C13.5727734,5.02572656 8.70236719,6.26983594 5.91032812,3.93602344 C5.90814844,3.93426563 5.90596875,3.93236719 5.90273437,3.93236719 L5.90273437,3.93236719 Z" id="Shape" fill="#000000"></path>
                                    <path d="M5.78179688,6.03935156 C5.76850781,6.03935156 5.75514844,6.037875 5.74185938,6.03478125 C4.75994531,5.80570313 4.26220313,5.30613281 4.15785938,5.19075 C3.73788281,4.92904688 3.34110937,4.93628906 2.88239063,4.94465625 C2.56957031,4.95028125 2.24613281,4.95625781 1.89365625,4.87434375 C1.10749219,4.69160156 0.675351563,3.91921875 0.552796875,3.6658125 C0.480445313,3.65350781 0.3605625,3.64570313 0.274359375,3.65273438 C0.189773438,3.65941406 0.108070313,3.62397656 0.05540625,3.55753125 C0.00225,3.49052344 -0.0138515625,3.40178906 0.012375,3.32022656 C0.342210938,2.29352344 0.947390625,1.6734375 1.81117969,1.477125 C1.8376875,1.47114844 1.86391406,1.45863281 1.88711719,1.44098438 C2.21990625,1.18821094 2.67869531,1.16985938 3.02892187,1.39514063 C3.05810156,1.41391406 3.09023437,1.42565625 3.12447656,1.43008594 C3.76354687,1.51221094 4.56869531,1.9755 4.82632031,2.79850781 C5.02115625,3.42098438 5.39458594,3.62235938 5.3983125,3.6241875 C5.50553906,3.68085938 5.62401563,3.72283594 5.75416406,3.75089063 C5.84184375,3.76980469 5.9011875,3.85164844 5.89197656,3.94080469 C5.91883594,4.32689063 6.04047656,4.88017969 6.46558594,5.34311719 C6.50235938,5.38319531 6.51853125,5.43803906 6.50939063,5.4916875 C6.50025,5.54533594 6.46671094,5.59167188 6.41861719,5.61719531 C6.20690625,5.72976563 6.03534375,5.85365625 5.90871094,5.98549219 C5.87510156,6.02029688 5.82911719,6.03935156 5.78179688,6.03935156 Z M3.10858594,4.59021094 C3.51541406,4.59021094 3.93426563,4.62874219 4.36844531,4.90788281 C4.38384375,4.91779688 4.397625,4.93003125 4.40922656,4.94416406 C4.41295312,4.94866406 4.82660156,5.43360938 5.72892188,5.6694375 C5.8258125,5.57978906 5.93880469,5.4945 6.06684375,5.41427344 C5.71429688,4.95386719 5.58808594,4.44663281 5.54892188,4.06132031 C5.43740625,4.02890625 5.33299219,3.98714063 5.2374375,3.93665625 C5.22035156,3.92814844 4.732875,3.67692188 4.49071875,2.90334375 C4.28871094,2.25808594 3.62791406,1.84907813 3.07954688,1.77855469 C2.9930625,1.76744531 2.91192188,1.73784375 2.83858594,1.69059375 C2.61217969,1.54483594 2.31525,1.557 2.09974219,1.7206875 C2.03709375,1.76835938 1.96417969,1.80260156 1.88908594,1.8196875 C1.18019531,1.98084375 0.688992188,2.46536719 0.390515625,3.29941406 C0.510117188,3.30236719 0.660164063,3.31748438 0.751710938,3.35896875 C0.792351563,3.37739063 0.824484375,3.41064844 0.841570313,3.45192188 C0.845226563,3.46071094 1.22716406,4.35825 1.97332031,4.53171094 C2.28332813,4.60378125 2.58440625,4.59815625 2.8760625,4.59302344 C2.953125,4.5916875 3.03067969,4.59021094 3.10858594,4.59021094 L3.10858594,4.59021094 Z" id="Shape" fill="#000000"></path>
                                    <path d="M6.96403125,8.926875 L5.39585156,8.926875 C5.26886719,8.926875 5.1508125,8.86978125 5.07199219,8.77035937 C4.99352344,8.67135938 4.96504687,8.54423438 4.99380469,8.42146875 C5.08260937,8.04269531 5.32792969,7.76573438 5.69088281,7.62989063 C5.4748125,7.35503906 5.21170312,6.90075 5.3038125,6.3961875 C5.38214062,5.96671875 5.70157031,5.60025 6.25317187,5.30690625 C6.32390625,5.26928906 6.41109375,5.28426563 6.46523438,5.34325781 C6.77446875,5.68019531 7.20302344,5.92115625 7.73894531,6.05946094 L7.75933594,6.06417188 C7.82571094,6.08083594 7.87640625,6.13455469 7.88920312,6.20184375 C7.902,6.26913281 7.87457813,6.3376875 7.81889062,6.37755469 C7.48195313,6.61907813 7.37676563,6.92409375 7.49742188,7.31010938 C7.64985938,7.7979375 7.64472656,8.20054688 7.48223438,8.50654688 C7.31475,8.82189844 7.04496094,8.91049219 7.01472656,8.9195625 C6.99820313,8.92434375 6.9811875,8.926875 6.96403125,8.926875 L6.96403125,8.926875 Z M6.30379687,5.68139063 C5.92242187,5.90744531 5.70255469,6.16872656 5.64953906,6.45925781 C5.56811719,6.90525 5.89710937,7.33767187 6.04230469,7.50283594 C6.10214062,7.57096875 6.12210937,7.66335938 6.09574219,7.74998438 C6.06888281,7.83815625 5.99941406,7.90495313 5.90983594,7.92864844 C5.59891406,8.01098437 5.40583594,8.20378125 5.33601562,8.501625 C5.33032031,8.52574219 5.34072656,8.54346094 5.34740625,8.55189844 C5.35436719,8.56061719 5.36983594,8.5753125 5.39578125,8.5753125 L6.93210937,8.5753125 C7.02766406,8.53284375 7.43667188,8.29483594 7.16167969,7.414875 C7.02949219,6.99180469 7.10015625,6.6166875 7.36544531,6.31420313 C6.94314844,6.16865625 6.58736719,5.95673438 6.30379687,5.68139063 Z" id="Shape" fill="#000000"></path>
                                    <path d="M15.5150859,8.926875 L13.9468359,8.926875 C13.8198516,8.926875 13.7017969,8.86978125 13.6229766,8.77028906 C13.5445078,8.67128906 13.5160313,8.54416406 13.5447891,8.42139844 C13.6323984,8.04775781 13.8724453,7.77311719 14.2273828,7.635375 C14.1849844,7.59733594 14.1364688,7.55599219 14.0865469,7.51338281 C13.7140313,7.19571094 13.0904297,6.66400781 13.4404453,6.07471875 C13.467375,6.02929687 13.5133594,5.99842969 13.5656016,5.990625 C14.2940391,5.88171094 14.9971641,5.745375 15.5988984,5.59645312 C15.6720234,5.57838281 15.7485938,5.60889844 15.7892344,5.67239062 C15.829875,5.7358125 15.8255156,5.81814844 15.7784062,5.877 C15.4950469,6.23095312 15.5387109,6.64460156 15.9082734,7.106625 C16.4502422,7.78408594 15.9676172,8.56174219 15.6367266,8.87821875 C15.6038906,8.90936719 15.5603672,8.926875 15.5150859,8.926875 L15.5150859,8.926875 Z M13.7098125,6.32432812 C13.6097578,6.61239844 13.9247578,6.91340625 14.3146406,7.24591406 C14.4277734,7.34245312 14.5255781,7.42577344 14.5933594,7.50290625 C14.6531953,7.57103906 14.6731641,7.66342969 14.6467969,7.75005469 C14.6199375,7.83822656 14.5504688,7.90502344 14.4608906,7.92871875 C14.1499688,8.01105469 13.9569609,8.20385156 13.8870703,8.50169531 C13.881375,8.5258125 13.8917813,8.54353125 13.8984609,8.55196875 C13.9053516,8.5606875 13.9208203,8.57538281 13.9468359,8.57538281 L15.4403437,8.57538281 C15.5939766,8.4065625 16.0422891,7.83703125 15.6336328,7.32614062 C15.2043047,6.78951562 15.1922812,6.34626562 15.2989453,6.02817187 C14.8074609,6.13814062 14.2666172,6.23903906 13.7098125,6.32432812 L13.7098125,6.32432812 Z" id="Shape" fill="#000000"></path>
                                    <path d="M17.0502891,6.83092969 C16.4931328,6.83092969 15.858,6.72996094 15.3312891,6.37973437 C15.2742656,6.34183594 15.2445234,6.27426562 15.2549297,6.206625 C15.2850937,6.01066406 15.3688359,5.8258125 15.5038359,5.65720312 C15.5279531,5.62703906 15.5613516,5.60566406 15.5988281,5.59638281 C15.9426562,5.51130469 16.2537187,5.42221875 16.5234375,5.33158594 C16.5824297,5.3116875 16.6472578,5.32448437 16.6942266,5.36505469 C16.9233047,5.5625625 17.2939922,5.84205469 17.75925,6.05242969 C17.9298281,6.1295625 18.0225703,6.29121094 17.9954297,6.46417969 C17.9677266,6.64108594 17.8197187,6.77482031 17.6270625,6.79689844 C17.4519141,6.81714844 17.256375,6.83092969 17.0502891,6.83092969 L17.0502891,6.83092969 Z M15.6282187,6.15044531 C16.2469687,6.5086875 17.0274375,6.5120625 17.5870547,6.44772656 C17.6285391,6.44301562 17.6459062,6.42438281 17.6481562,6.40989844 C17.6509687,6.39217969 17.6281875,6.37903125 17.6144766,6.37277344 C17.1600469,6.16732031 16.7902734,5.90196094 16.5411562,5.69594531 C16.3017422,5.7735 16.0343437,5.84950781 15.7438125,5.9225625 C15.6918516,5.9956875 15.65325,6.07190625 15.6282187,6.15044531 L15.6282187,6.15044531 Z" id="Shape" fill="#000000"></path>
                                    <path d="M10.6183125,7.93026563 C10.2449531,7.93026563 9.87159375,7.80201563 9.567,7.54565625 C9.46933594,7.46346094 9.32990625,7.43871094 9.21171094,7.48286719 C8.4538125,7.76566406 7.5898125,7.44194531 7.20203906,6.72996094 C7.17517969,6.68060156 7.17349219,6.62132813 7.19767969,6.57049219 C7.28388281,6.38901563 7.423875,6.22792969 7.61385937,6.09173438 C7.65604687,6.06164063 7.70920312,6.05144531 7.75933594,6.06417188 C9.21515625,6.43225781 11.7117422,6.26765625 13.5639141,5.99076563 C13.5647578,5.990625 13.5656016,5.99055469 13.5665156,5.99041406 C13.5693281,5.98999219 13.5722812,5.98964063 13.5749531,5.98935938 C13.669875,5.98028906 13.7550938,6.04785938 13.7668359,6.1425 C13.7724609,6.18785156 13.7602969,6.231375 13.7357578,6.26596875 C13.6763438,6.37235156 13.6414687,6.52795313 13.8454453,6.79007813 C13.8967031,6.85603125 13.8945234,6.94891406 13.8402422,7.01233594 C13.3948828,7.53264844 12.6653203,7.72178906 12.0249844,7.48279688 C11.9066484,7.43871094 11.7673594,7.46339063 11.6696953,7.54558594 C11.3651016,7.80201563 10.9916719,7.93026563 10.6183125,7.93026563 L10.6183125,7.93026563 Z M9.3346875,7.10915625 C9.49964062,7.10915625 9.66290625,7.1668125 9.79340625,7.27664063 C10.2713203,7.67896875 10.9652344,7.67896875 11.4432891,7.27664063 C11.63925,7.11161719 11.90925,7.0644375 12.1478906,7.15345313 C12.6083672,7.32522656 13.1276953,7.21497656 13.4806641,6.8810625 C13.3732969,6.70823438 13.3263281,6.5401875 13.3398281,6.37825781 C11.5228125,6.6301875 9.19778906,6.76251563 7.75638281,6.42522656 C7.67439844,6.49230469 7.608375,6.56507813 7.558875,6.64270313 C7.88245312,7.14508594 8.52314062,7.36439063 9.088875,7.15345313 C9.16853906,7.12371094 9.25185937,7.10915625 9.3346875,7.10915625 Z" id="Shape" fill="#000000"></path>
                                    <path d="M8.42800781,6.54082031 C8.42055469,6.54082031 8.41310156,6.54032813 8.40557812,6.53934375 C8.1225,6.50285156 7.86860156,6.45588281 7.65105469,6.39977344 C7.19486719,6.28207031 6.80294531,6.09433594 6.4861875,5.84177344 C6.44625,5.80992188 6.42213281,5.76225 6.42016406,5.71113281 C6.3916875,4.97932031 6.73136719,4.53508594 6.93639844,4.33539844 C6.98913281,4.284 7.068375,4.27099219 7.13482031,4.30277344 C7.56133594,4.50660938 8.04241406,4.66410938 8.56483594,4.77084375 C8.6146875,4.78103906 8.65764844,4.81232813 8.68267969,4.856625 C8.70771094,4.90092187 8.71228125,4.9539375 8.69526562,5.00189063 C8.5033125,5.54280469 8.537625,6.02261719 8.60027344,6.32988281 C8.61159375,6.3855 8.59542187,6.44315625 8.55675,6.48471094 C8.52328125,6.52078125 8.47652344,6.54082031 8.42800781,6.54082031 L8.42800781,6.54082031 Z M6.76996875,5.6165625 C7.03645312,5.81329688 7.36192969,5.96214844 7.73880469,6.05939063 C7.88146875,6.09623438 8.04178125,6.12892969 8.21735156,6.157125 C8.18402344,5.86286719 8.18824219,5.48789062 8.30383594,5.07389062 C7.87246875,4.97411719 7.46894531,4.84017187 7.10036719,4.67444531 C6.95102344,4.85071875 6.77235937,5.15735156 6.76996875,5.6165625 L6.76996875,5.6165625 Z" id="Shape" fill="#000000"></path>
                                    <path d="M10.4011172,6.62371875 C10.3341797,6.62371875 10.2728672,6.58560938 10.2432656,6.52528125 C9.93592969,5.89809375 10.0018125,5.38453125 10.1112891,5.06411719 C10.1358984,4.99211719 10.2058594,4.94219531 10.2801094,4.94521875 C10.7857266,4.95203906 11.3300859,4.92588281 11.8974375,4.86660938 C11.9465156,4.86126563 11.9953828,4.87715625 12.0322969,4.90985156 C12.0691406,4.94254688 12.0906563,4.98923438 12.0914297,5.03852344 C12.0985313,5.46714844 12.21075,5.87179688 12.4250625,6.24107813 C12.4550859,6.29275781 12.4567734,6.35610938 12.4295625,6.40926563 C12.4023516,6.46242188 12.3500391,6.49821094 12.290625,6.5041875 C11.6344688,6.57028125 11.0000391,6.6105 10.4049844,6.62364844 C10.4037187,6.62371875 10.4023828,6.62371875 10.4011172,6.62371875 L10.4011172,6.62371875 Z M10.4092031,5.29783594 C10.35225,5.53661719 10.3421953,5.86947656 10.5125625,6.26934375 C10.9860469,6.25619531 11.484,6.22596094 11.9975625,6.17920313 C11.8612266,5.88185156 11.7769922,5.56150781 11.7495,5.23448438 C11.2838906,5.27779688 10.8349453,5.30008594 10.4092031,5.29783594 Z" id="Shape" fill="#000000"></path>
                                    <path d="M14.1365391,6.25303125 C14.0838047,6.25303125 14.0333203,6.22933594 13.9996406,6.1875 C13.5428906,5.62007813 13.4884687,5.09273438 13.5233437,4.75024219 C13.5311484,4.67332031 13.5883125,4.61053125 13.6641797,4.59555469 C14.2481953,4.48017188 14.7613359,4.35592969 15.0964453,4.27253906 C15.1882734,4.24961719 15.2811562,4.30326563 15.3075937,4.3936875 C15.4733906,4.96005469 15.7858594,5.34902344 16.0188047,5.57564063 C16.0641562,5.61972656 16.0822969,5.68490625 16.0662656,5.74614844 C16.0502344,5.80739063 16.0025625,5.85527344 15.9413906,5.87151563 C15.4134844,6.01185938 14.81625,6.13940625 14.1661406,6.25057031 C14.1562969,6.2521875 14.1463828,6.25303125 14.1365391,6.25303125 Z M13.8663132,4.91357813 C13.8651328,5.16832031 13.9355859,5.5108125 14.2110703,5.886 C14.6967891,5.80085156 15.1510078,5.70649219 15.5663437,5.60453906 C15.3715078,5.37264844 15.1647187,5.05708594 15.0219141,4.65307031 C14.7194297,4.72717969 14.3173828,4.82189063 13.8663132,4.91357813 L13.8663132,4.91357813 Z" id="Shape" fill="#000000"></path>
                                    <path d="M10.4442187,5.29755469 C10.1604375,5.29755469 9.88572656,5.28778125 9.621,5.26823438 C9.57283594,5.26471875 9.52825781,5.24144531 9.49774219,5.20403906 C9.46722656,5.16663281 9.45344531,5.11825781 9.45963281,5.070375 L9.72864844,2.99200781 C9.770625,2.66751562 10.0489922,2.42282812 10.3762266,2.42282812 L11.3944219,2.42282812 C11.7215859,2.42282812 12.0000234,2.66751562 12.042,2.99200781 L12.3013125,4.99563281 C12.3072891,5.04225 12.2944219,5.08928906 12.2655234,5.12634375 C12.236625,5.16339844 12.1940859,5.18730469 12.1473984,5.19278906 C11.5515703,5.26253906 10.9816172,5.29755469 10.4442187,5.29755469 L10.4442187,5.29755469 Z M9.83235937,4.92953906 C10.4767031,4.96511719 11.1806016,4.94282812 11.9296406,4.86330469 L11.6933203,3.03707812 C11.6739844,2.8873125 11.5453828,2.77432031 11.3944219,2.77432031 L10.3762266,2.77432031 C10.2251953,2.77432031 10.0966641,2.88724219 10.0773281,3.03707812 L9.83235937,4.92953906 Z" id="Shape" fill="#000000"></path>
                                    <path d="M12.1266562,5.19307031 C12.0394687,5.19307031 11.9640234,5.12838281 11.9524922,5.03985938 L11.6933203,3.03707812 C11.6910703,3.01985156 11.6871328,3.00220313 11.6816484,2.98469531 C11.6740547,2.96057812 11.6717344,2.93505469 11.6749687,2.90995312 C11.7096328,2.63594531 11.9141719,2.41249219 12.1839609,2.35392187 L13.1790234,2.13813281 C13.498875,2.06866406 13.8226641,2.24894531 13.9324922,2.557125 L14.6401172,4.54317187 C14.6569922,4.59042187 14.6527734,4.64273437 14.6286562,4.68675 C14.6044687,4.73076563 14.5627031,4.76233594 14.5137656,4.77351562 C13.6617187,4.96835156 12.8876484,5.10525 12.1472578,5.19194531 C12.1403672,5.19271875 12.1334062,5.19307031 12.1266562,5.19307031 L12.1266562,5.19307031 Z M12.0292734,2.92338281 C12.0347578,2.94616406 12.0390469,2.96901563 12.042,2.99186719 L12.042,2.99200781 L12.2787422,4.82167969 C12.8977734,4.74314063 13.5435937,4.62888281 14.2423594,4.47419531 L13.6013203,2.67510937 C13.550625,2.53286719 13.4012109,2.44947656 13.2534844,2.48175 L12.2584219,2.69753906 C12.144375,2.72228906 12.0555,2.81116406 12.0292734,2.92338281 L12.0292734,2.92338281 Z" id="Shape" fill="#000000"></path>
                                    <path d="M14.4744609,4.77794531 C14.4016172,4.77794531 14.3343281,4.73238281 14.3089453,4.66108594 L13.6013906,2.67510937 C13.5961875,2.66055469 13.5894375,2.64585938 13.5807188,2.63003906 C13.5705938,2.61189844 13.5638438,2.59207031 13.5606797,2.57153906 C13.516875,2.28740625 13.6610859,2.01185156 13.9194141,1.88571094 L14.5773984,1.56438281 C14.64525,1.53133594 14.7265313,1.5451875 14.7795469,1.59876563 C15.6010781,2.42936719 16.1137969,3.43335938 16.3991953,4.1293125 C16.4226094,4.18647656 16.4143828,4.25172656 16.3773984,4.30122656 C16.3404141,4.35072656 16.2799453,4.37695312 16.2187031,4.37090625 C16.1854453,4.36746094 16.1536641,4.36935938 16.1240625,4.37639063 C15.9950391,4.40697656 15.8365547,4.44740625 15.6527578,4.494375 C15.3411328,4.57396875 14.9532891,4.67296875 14.5137656,4.77351563 C14.5006172,4.77646875 14.4873984,4.77794531 14.4744609,4.77794531 L14.4744609,4.77794531 Z M13.9052813,2.49236719 C13.9157578,2.51388281 13.9248281,2.53532813 13.9325625,2.557125 L14.5875938,4.39551563 C14.9606719,4.3081875 15.2926172,4.22346094 15.5657813,4.15371094 C15.7242656,4.11321094 15.8641875,4.0775625 15.982875,4.04873438 C15.7090078,3.42808594 15.2695547,2.62567969 14.6170547,1.93633594 L14.0736797,2.201625 C13.9622344,2.25597656 13.8968438,2.37065625 13.9052812,2.49236719 L13.9052813,2.49236719 Z" id="Shape" fill="#000000"></path>
                                    <path d="M9.63428906,5.26774219 C9.62992969,5.26774219 9.62557031,5.26760156 9.62114062,5.26725 C8.7294375,5.20136719 7.93040625,5.02305469 7.246125,4.73730469 C7.15985156,4.70130469 7.11696094,4.6040625 7.14825,4.51610156 L7.84624219,2.55705469 C7.95607031,2.24880469 8.28007031,2.06880469 8.59971094,2.1380625 L9.59477344,2.35385156 C9.85865625,2.41108594 10.0572187,2.62047656 10.1005312,2.88724219 C10.1052422,2.9165625 10.1025703,2.94651563 10.0925859,2.97442969 C10.0848516,2.99608594 10.0797891,3.01654688 10.0771875,3.03686719 L10.0771875,3.0369375 L9.8083125,5.11439063 C9.79699219,5.20277344 9.72182812,5.26774219 9.63428906,5.26774219 L9.63428906,5.26774219 Z M7.53630469,4.47483354 C8.10745312,4.69342969 8.76030469,4.83714844 9.48135938,4.90303125 L9.72864844,2.99214844 C9.73223437,2.96416406 9.73785937,2.93589844 9.74552344,2.90763281 C9.71500781,2.80195313 9.62985937,2.72130469 9.5203125,2.69753906 L8.52525,2.48175 C8.37745312,2.44947656 8.22803906,2.53286719 8.17741406,2.67517969 L7.53630469,4.47483354 Z" id="Shape" fill="#000000"></path>
                                    <path d="M7.31404687,4.75038281 C7.29105469,4.75038281 7.26799219,4.74588281 7.24633594,4.7368125 C6.74528906,4.5275625 6.29578125,4.25819531 5.91032812,3.93602344 C5.82180469,3.89707031 5.776875,3.79117969 5.81540625,3.70244531 C6.15909375,2.9109375 6.60178125,2.22616406 7.13123438,1.66717969 C7.18403906,1.61142188 7.2669375,1.59644531 7.33598438,1.630125 L7.85939063,1.88571094 C8.11771875,2.01185156 8.26185938,2.28747656 8.218125,2.57153906 C8.21496094,2.59207031 8.20821094,2.61189844 8.19808594,2.63003906 C8.18929688,2.64585938 8.18254688,2.66055469 8.17741406,2.67510938 L7.47963281,4.63359375 C7.46346094,4.67901563 7.42928906,4.71585938 7.38513281,4.73533594 C7.3625625,4.74539063 7.33830469,4.75038281 7.31404688,4.75038281 L7.31404687,4.75038281 Z M6.19474219,3.71467969 C6.49504687,3.95676563 6.83627344,4.165875 7.21174219,4.338 L7.84624219,2.557125 C7.85397656,2.53532813 7.86304688,2.51388281 7.87352344,2.49236719 C7.88196094,2.37065625 7.81657031,2.25597656 7.705125,2.201625 L7.29907031,2.00334375 C6.86432813,2.48385938 6.49357031,3.05845313 6.19474219,3.71467969 L6.19474219,3.71467969 Z" id="Shape" fill="#000000"></path>
                                    <path d="M13.7344219,2.72060156 C13.6719844,2.72060156 13.6123594,2.68720313 13.5806484,2.63003906 C13.5167344,2.51479688 13.3822266,2.45390625 13.2535547,2.48175 L12.3948281,2.66800781 C12.3025781,2.68797656 12.2113125,2.63172656 12.1874766,2.54060156 C12.0323672,1.94646094 11.9240859,1.25479688 11.9240859,0.858585938 C11.9240859,0.692226563 11.9976328,0.551039063 12.1311562,0.46096875 C12.3909609,0.28575 12.8273906,0.334617188 13.1228437,0.454007813 C13.44825,0.5855625 14.0961797,0.909140625 14.7792656,1.59876563 C14.8191328,1.63898438 14.8371328,1.69600781 14.8276406,1.75183594 C14.8181484,1.80766406 14.7823594,1.85554688 14.7314531,1.8804375 L14.0735391,2.20169531 C13.9542891,2.25991406 13.8877734,2.38703906 13.9080234,2.51810156 C13.9210312,2.60226563 13.8717422,2.68361719 13.7911641,2.71117969 C13.7725312,2.71750781 13.7533359,2.72060156 13.7344219,2.72060156 L13.7344219,2.72060156 Z M12.5756016,0.697359375 C12.4718906,0.697359375 12.3825234,0.715429688 12.3278203,0.75234375 C12.2908359,0.777304688 12.2757187,0.80803125 12.2757187,0.858515625 C12.2757187,1.14370313 12.348,1.70915625 12.4867969,2.28825 L13.1790937,2.1380625 C13.3313203,2.10501563 13.4840391,2.12702344 13.6146094,2.19382031 C13.6762031,2.06282813 13.7816016,1.95292969 13.9194141,1.88564063 L14.3519766,1.67442188 C13.7815312,1.14679688 13.2635391,0.889875 12.9911484,0.779835938 C12.8565,0.725414063 12.7048359,0.697359375 12.5756016,0.697359375 L12.5756016,0.697359375 Z" id="Shape" fill="#000000"></path>
                                    <path d="M8.04445313,2.72060156 C8.02553906,2.72060156 8.00634375,2.71750781 7.98757031,2.71110938 C7.90699219,2.68354688 7.85777344,2.60219531 7.87071094,2.51803125 C7.89089063,2.38696875 7.824375,2.25984375 7.70519531,2.201625 L7.18185938,1.94610938 C7.13158594,1.92157031 7.09600781,1.87453125 7.08602344,1.81947656 C7.07603906,1.76442188 7.09291406,1.70789062 7.13144531,1.66725 C7.6550625,1.11473437 8.25911719,0.695320312 8.92680469,0.42075 C9.15953906,0.325054687 9.42377344,0.33946875 9.59990625,0.457523437 C9.73553906,0.548367187 9.81021094,0.690820312 9.81021094,0.858515625 C9.81021094,1.25205469 9.70291406,1.93985156 9.54935156,2.53125 C9.52565625,2.62251562 9.43425,2.67890625 9.34192969,2.65886719 L8.52525,2.48175 C8.39629688,2.45376562 8.262,2.51486719 8.19815625,2.63003906 C8.16651563,2.68713281 8.10689063,2.72060156 8.04445313,2.72060156 L8.04445313,2.72060156 Z M8.45922656,2.12294531 C8.50570313,2.12294531 8.55274219,2.12786719 8.59985156,2.1380625 L9.24989063,2.27903906 C9.38721094,1.70310937 9.45871875,1.14145312 9.45871875,0.858445313 C9.45871875,0.8083125 9.44191406,0.774703125 9.40429688,0.749460938 C9.32533594,0.69665625 9.18400781,0.695109375 9.06053906,0.745804687 C8.50978125,0.97228125 8.00479688,1.30542188 7.55648438,1.73763281 L7.85953125,1.88557031 C7.99734375,1.95285937 8.10267188,2.06275781 8.16433594,2.19375 C8.25447656,2.14776562 8.35530469,2.12294531 8.45922656,2.12294531 L8.45922656,2.12294531 Z" id="Shape" fill="#000000"></path>
                                    <path d="M11.8492031,3.1078125 C11.773125,3.1078125 11.7049219,3.05859375 11.6816484,2.98490625 C11.6419219,2.85897656 11.5264688,2.77432031 11.3943516,2.77432031 L10.3761563,2.77432031 C10.2492422,2.77432031 10.1353359,2.85475781 10.0926562,2.9745 C10.0657266,3.05008594 9.99091406,3.09775781 9.91110938,3.09051563 C9.83123438,3.08320313 9.76640625,3.02280469 9.75353906,2.94363281 C9.73357031,2.82044531 9.64202344,2.72383594 9.5203125,2.69746875 L9.34192969,2.65879688 C9.29517187,2.64860156 9.25453125,2.61984375 9.22942969,2.57913281 C9.20439844,2.53835156 9.19701562,2.48913281 9.20896875,2.44286719 C9.37286719,1.81202344 9.45857812,1.16838281 9.45857812,0.858515625 C9.45857812,0.804515625 9.4393125,0.77034375 9.39403125,0.7441875 C9.33982031,0.712757812 9.30635156,0.654890625 9.30628125,0.592242187 C9.30621094,0.529523437 9.33953906,0.471585937 9.39367969,0.440085937 C9.86139844,0.168046875 11.0881406,-0.377507813 12.3766875,0.428554687 C12.4313203,0.462726562 12.4628906,0.524109375 12.4588828,0.588445312 C12.454875,0.65278125 12.4160625,0.709804687 12.3575625,0.736945312 C12.2892891,0.768726562 12.2755781,0.807046875 12.2755781,0.858515625 C12.2755781,1.1705625 12.3621328,1.818 12.5275781,2.45179687 C12.5396719,2.49813281 12.5323594,2.54742187 12.5072578,2.58820313 C12.4822266,2.62905469 12.4415156,2.6578125 12.3947578,2.66800781 L12.2584219,2.69753906 C12.1339688,2.72453906 12.0396797,2.8276875 12.0236484,2.95410938 C12.0133125,3.03602344 11.9472891,3.09972656 11.8650234,3.10710938 C11.85975,3.10760156 11.8544766,3.1078125 11.8492031,3.1078125 L11.8492031,3.1078125 Z M10.3762266,2.42282813 L11.3944219,2.42282813 C11.5543125,2.42282813 11.7029531,2.47999219 11.8179844,2.57807813 C11.9008125,2.47703906 12.0135234,2.40117187 12.1434609,2.36411719 C12.0123281,1.81420312 11.9240859,1.21605469 11.9240859,0.858515625 C11.9240859,0.766265625 11.9460234,0.683015625 11.988,0.611859375 C11.0996719,0.158273438 10.2738516,0.38925 9.76127344,0.641742187 C9.79326563,0.706921875 9.81021094,0.780257812 9.81021094,0.858515625 C9.81021094,1.21317187 9.72309375,1.80696094 9.5934375,2.35364062 L9.59491406,2.35392187 C9.74158594,2.38577344 9.86807812,2.46459375 9.95892187,2.57414063 C10.0737422,2.47865625 10.2204141,2.42282813 10.3762266,2.42282813 L10.3762266,2.42282813 Z" id="Shape" fill="#000000"></path>
                                    <path d="M5.39585156,8.926875 L4.37259375,8.926875 C4.24560937,8.926875 4.12755469,8.86978125 4.04866406,8.77028906 C3.97019531,8.67128906 3.94171875,8.54416406 3.97054687,8.42139844 C4.05928125,8.04269531 4.30467187,7.76573438 4.667625,7.62982031 C4.46210156,7.36811719 4.20975,6.937875 4.27134375,6.45623438 C4.31971875,6.07774219 4.55217187,5.74502344 4.96209375,5.46728906 C5.01377344,5.43227344 5.08014844,5.42742188 5.13632812,5.45414062 C5.33671875,5.549625 5.55215625,5.626125 5.77736719,5.68174219 C5.80710938,5.68005469 5.83790625,5.68617187 5.86638281,5.70044531 C5.91651563,5.72547656 5.95174219,5.77300781 5.96116406,5.82827344 C5.97051563,5.88353906 5.95314844,5.94 5.91405469,5.98021875 C5.67682031,6.22455469 5.3780625,6.7471875 6.04230469,7.50283594 C6.10214063,7.57096875 6.12210938,7.66335937 6.09574219,7.74998437 C6.06888281,7.83815625 5.99941406,7.90495312 5.90983594,7.92864844 C5.59891406,8.01098437 5.40590625,8.20378125 5.33601562,8.50155469 C5.33032031,8.52567187 5.34072656,8.54339062 5.34740625,8.55182813 C5.35436719,8.56054687 5.36983594,8.57524219 5.39578125,8.57524219 C5.49288281,8.57524219 5.5715625,8.65392187 5.5715625,8.75102344 C5.5715625,8.848125 5.49295313,8.926875 5.39585156,8.926875 L5.39585156,8.926875 Z M5.07986719,5.81491406 C4.80670312,6.01973438 4.65215625,6.25014844 4.62009375,6.5008125 C4.56489844,6.93267188 4.88074219,7.34540625 5.01911719,7.50283594 C5.07895312,7.57096875 5.09892187,7.66335938 5.07255469,7.74998438 C5.04569531,7.83815625 4.97622656,7.90495313 4.88664844,7.92864844 C4.57572656,8.01098438 4.38264844,8.20378125 4.31282812,8.50155469 C4.30713281,8.52567188 4.31753906,8.54346094 4.32421875,8.55182813 C4.33117969,8.56054688 4.34664844,8.57524219 4.37259375,8.57524219 L4.987125,8.57524219 C4.97967187,8.52475781 4.98171094,8.47272656 4.99373437,8.42139844 C5.08260937,8.04255469 5.32814062,7.76545313 5.69130469,7.62967969 C5.44689844,7.31517188 5.04260156,6.63159375 5.47804687,5.96334375 C5.34107812,5.92101563 5.20797656,5.87144531 5.07986719,5.81491406 L5.07986719,5.81491406 Z" id="Shape" fill="#000000"></path>
                                    <path d="M13.9468359,8.926875 L12.9236484,8.926875 C12.7966641,8.926875 12.6786094,8.86978125 12.5997891,8.77028906 C12.5213203,8.67128906 12.4928438,8.54416406 12.5216016,8.42139844 C12.6092109,8.04775781 12.8492578,7.77311719 13.2041953,7.635375 C13.1616563,7.59719531 13.1128594,7.55557031 13.0626563,7.51282031 L12.9900937,7.45080469 C12.9429141,7.41023437 12.9207656,7.34772656 12.9316641,7.28655469 C12.9426328,7.2253125 12.9851719,7.17440625 13.0434609,7.15275 C13.2485625,7.07660156 13.4317266,6.94898437 13.573125,6.78382031 C13.6074375,6.74374219 13.6580625,6.72025781 13.7107969,6.72236719 C13.7635312,6.72363281 13.8130312,6.74852344 13.8454453,6.79014844 C13.9737656,6.95503125 14.1548906,7.10957812 14.3147109,7.24591406 C14.4278438,7.34245312 14.5255781,7.42577344 14.5932891,7.50290625 C14.653125,7.57103906 14.6730937,7.66342969 14.6467266,7.75005469 C14.6198672,7.83822656 14.5503984,7.90502344 14.4608203,7.92871875 C14.1498984,8.01105469 13.9568906,8.20385156 13.887,8.50169531 C13.8813047,8.5258125 13.8917109,8.54353125 13.8983906,8.55196875 C13.9052812,8.5606875 13.92075,8.57538281 13.9467656,8.57538281 C14.0438672,8.57538281 14.1225469,8.6540625 14.1225469,8.75116406 C14.1225469,8.84826562 14.0439375,8.926875 13.9468359,8.926875 L13.9468359,8.926875 Z M13.4237109,7.36003125 C13.4808047,7.41072656 13.5305859,7.45783594 13.5701016,7.50283594 C13.6300078,7.57096875 13.6499766,7.66335937 13.6236094,7.74998437 C13.59675,7.83815625 13.5272812,7.90495312 13.4377031,7.92864844 C13.1267813,8.01098437 12.9337734,8.20378125 12.8638828,8.501625 C12.8581875,8.52574219 12.8685938,8.54346094 12.8752734,8.55189844 C12.8821641,8.56061719 12.8976328,8.5753125 12.9236484,8.5753125 L13.5381797,8.5753125 C13.5307266,8.52482812 13.5327656,8.47272656 13.5447891,8.42139844 C13.6323984,8.04775781 13.8724453,7.77311719 14.2273828,7.635375 C14.1849844,7.59733594 14.1365391,7.55599219 14.0866172,7.51338281 C13.9667344,7.41107812 13.8254062,7.2905625 13.6993359,7.15767187 C13.6148203,7.23445312 13.5223594,7.30230469 13.4237109,7.36003125 L13.4237109,7.36003125 Z" id="Shape" fill="#000000"></path>
                                    <path d="M10.6183828,7.93026563 C10.2449531,7.93026563 9.87159375,7.80208594 9.56707031,7.54565625 C9.50765625,7.49566406 9.43150781,7.46585156 9.35261719,7.46170313 C9.30360938,7.45917188 9.25790625,7.43625 9.22654688,7.39849219 C9.1951875,7.36073437 9.18105469,7.31158594 9.18752344,7.26292969 L9.29974219,6.42135938 C9.311625,6.33192188 9.38728125,6.26561719 9.47967188,6.26892188 C10.1408906,6.29022656 10.8837422,6.26892188 11.6874844,6.20542969 C11.7785391,6.1981875 11.8603125,6.2623125 11.8748672,6.35266406 L12.0213984,7.26117188 C12.0290625,7.30891406 12.0167578,7.35771094 11.9873672,7.39610156 C11.9579766,7.43449219 11.9140313,7.45910156 11.8658672,7.46402344 C11.7918984,7.47161719 11.7241172,7.49988281 11.6697656,7.54558594 C11.3651016,7.80201563 10.9917422,7.93026563 10.6183828,7.93026563 L10.6183828,7.93026563 Z M9.55778906,7.14571875 C9.64385156,7.17405469 9.72428906,7.21842187 9.79347656,7.27671094 C10.2714609,7.67910937 10.9653047,7.67903906 11.4432891,7.27671094 C11.5045313,7.22517187 11.5737188,7.1848125 11.6483906,7.15675781 L11.5534688,6.56817187 C10.8615234,6.61851563 10.2150703,6.63742969 9.62725781,6.6245625 L9.55778906,7.14571875 Z" id="Shape" fill="#000000"></path>
                                </g>
                            </g>
                        </g>
                    </g>
                </g>
            </g>
        </g>
    </g>
</svg>