<?xml version="1.0" encoding="UTF-8"?>
<svg width="18px" height="18px" viewBox="0 0 18 18" version="1.1" xmlns="http://www.w3.org/2000/svg" xmlns:xlink="http://www.w3.org/1999/xlink">
    <title>C543F7BC-7CA9-4124-BC5A-D0A6F82D15DD</title>
    <g id="B:-Manage-Study-Plans" stroke="none" stroke-width="1" fill="none" fill-rule="evenodd">
        <g id="C:04-SC-StudyPlans-Home" transform="translate(-635.000000, -571.000000)" fill-rule="nonzero">
            <g id="Screens/LandingPages/BrowseBooks/Desktop">
                <g id="Group-2" transform="translate(438.000000, 120.000000)">
                    <g id="Elements/Tracker" transform="translate(194.000000, 448.000000)">
                        <g id="Elements/Graphics/Style3/Hare/White" transform="translate(3.000000, 3.000000)">
                            <g id="Hare">
                                <g id="rabbit-(3)" transform="translate(1.500000, 0.000000)">
                                    <path d="M3.21995545,12.4129028 C3.1272583,12.3170471 3.0838623,12.1837006 3.10253906,12.05159 C3.13522341,11.8206024 2.97880555,11.6052704 2.74891662,11.565033 C2.61763,11.5419617 2.50419618,11.4595642 2.44157411,11.3417358 C2.33226014,11.1356049 2.0791626,11.0533447 1.86959841,11.1557922 C1.74971007,11.2144318 1.60949707,11.2144318 1.48960877,11.1557922 C1.28004455,11.0533447 1.02694704,11.1356049 0.917633039,11.3417358 C0.855010969,11.4595642 0.741577148,11.5419617 0.610153207,11.565033 C0.380401594,11.6052704 0.223983773,11.8206024 0.256668082,12.05159 C0.27534484,12.1837006 0.232086164,12.3170471 0.139251727,12.4129028 C-0.0229339687,12.5805817 -0.0229339687,12.8467255 0.139251727,13.0144043 C0.231948844,13.1103973 0.27534484,13.2436066 0.256668082,13.3758545 C0.223983773,13.606842 0.380401594,13.8220367 0.610153207,13.8624115 C0.741577148,13.8854828 0.855010969,13.9678803 0.917633039,14.0857086 C1.02694704,14.2918396 1.28004455,14.3740997 1.48960877,14.2716522 C1.60949707,14.2130127 1.74971007,14.2130127 1.86959841,14.2716522 C2.0791626,14.3740997 2.33226014,14.2918396 2.44157411,14.0857086 C2.50419618,13.9678803 2.61749268,13.8854828 2.74891662,13.8624115 C2.97880555,13.8220367 3.13522341,13.606842 3.10253906,13.3758545 C3.0838623,13.2437439 3.12712098,13.1103973 3.21995545,13.0144043 C3.38214111,12.8467255 3.38214111,12.5805817 3.21995545,12.4129028 Z" id="Path" fill="#E9E9E9"></path>
                                    <path d="M2.74891662,13.8624115 C2.97880555,13.8220367 3.13522341,13.606842 3.10253906,13.3758545 C3.0838623,13.2437439 3.12712098,13.1103973 3.21995545,13.0144043 C3.38214111,12.8467255 3.38214111,12.5805817 3.21995545,12.4129028 C3.1272583,12.3170471 3.0838623,12.1837006 3.10253906,12.05159 C3.13192751,11.8439484 3.00819396,11.649353 2.81593322,11.5828857 C2.73490907,11.6523742 2.65594482,11.7254334 2.57972716,11.801651 C1.89720155,12.4841766 1.48109435,13.3611603 1.38290407,14.3070831 C1.41915895,14.299942 1.45500184,14.2885437 1.48960877,14.2716522 C1.60949707,14.2130127 1.74971007,14.2130127 1.86959841,14.2716522 C2.0791626,14.3740997 2.33226014,14.2918396 2.44157411,14.0857086 C2.50419618,13.9678803 2.61763,13.8854828 2.74891662,13.8624115 L2.74891662,13.8624115 Z" id="Path" fill="#D3D2D8"></path>
                                    <path d="M9.33110047,18 C9.79733278,18 10.0854492,17.4943543 9.85089111,17.0914307 C9.68005371,16.7980957 9.41981505,16.5471954 9.02911377,16.5471954 C10.3110809,15.7780151 10.7509461,14.2852478 10.7509461,14.2852478 L8.4002838,13.2203979 C7.85357666,12.1897431 6.76977539,11.4877167 5.52186584,11.4877167 C3.72505187,11.4875793 2.26551818,12.9471131 2.26551818,14.743927 C2.2656555,16.5421143 3.72340392,18 5.52172852,18 L9.33110047,18 Z" id="Path" fill="#A6ADB9"></path>
                                    <path d="M7.78147889,1.7144165 C8.98420714,4.60684202 9.3945465,7.18629455 8.69773866,7.47605897 C8.00106813,7.76582336 6.46119689,5.65589904 5.25846864,2.76374816 C4.05574035,-0.128540039 6.5787506,-1.1778717 7.78147889,1.7144165 Z" id="Path" fill="#A6ADB9"></path>
                                    <path d="M12.5231781,1.7144165 C11.3203125,4.60684202 10.9101105,7.18629455 11.606781,7.47605897 C12.3035889,7.76582336 13.8433228,5.65589904 15.0461884,2.76374816 C16.2489166,-0.128540039 13.7259064,-1.1778717 12.5231781,1.7144165 L12.5231781,1.7144165 Z" id="Path" fill="#A6ADB9"></path>
                                    <path d="M8.69787598,7.47605897 C9.10862733,7.30522157 9.1344452,6.3380127 8.83987425,4.98010254 C8.06890869,5.12580871 7.39833068,5.4082947 6.83322145,5.82522581 C7.58633421,6.98634338 8.28794862,7.64648438 8.69787598,7.47605897 Z" id="Path" fill="#8895A2"></path>
                                    <path d="M11.606781,7.47605897 C12.0165711,7.64648438 12.7183228,6.98634338 13.4712982,5.82522581 C12.9063263,5.4082947 12.2357483,5.12580871 11.4646454,4.98010254 C11.1702118,6.3380127 11.1960297,7.30522157 11.606781,7.47605897 Z" id="Path" fill="#8895A2"></path>
                                    <path d="M8.4002838,13.2202606 C7.85357666,12.1897431 6.76977539,11.4877167 5.52186584,11.4875793 C5.35308838,11.4875793 5.18733214,11.5004883 5.02555848,11.5253448 C5.04080198,12.0635376 5.14146424,12.9623566 5.80325316,13.7400513 C6.6428833,14.7266235 8.06547547,15.2063141 10.1523285,15.2063141 C10.210556,15.2063141 10.2680969,15.2057648 10.3252258,15.2049408 C10.6285858,14.6999817 10.7509461,14.2852478 10.7509461,14.2852478 L8.4002838,13.2202606 Z" id="Path" fill="#8895A2"></path>
                                    <path d="M10.1523285,14.300766 C6.02586366,14.300766 5.92822266,12.2497559 5.92822266,11.2730713 C5.92822266,10.2963867 5.56196593,5.95019531 10.1523285,5.95019531 C14.742691,5.95019531 14.3764343,10.2963867 14.3764343,11.2730713 C14.3764343,12.2497559 14.2787933,14.300766 10.1523285,14.300766 L10.1523285,14.300766 Z" id="Path" fill="#A6ADB9"></path>
                                    <g id="Group" transform="translate(7.769531, 9.914062)" fill="#424952">
                                        <path d="M0.272598258,0.020324707 C0.122497559,0.020324707 0.0009613125,0.141998273 0.0009613125,0.291961687 L0.0009613125,0.67387391 C0.0009613125,0.823837289 0.122497559,0.945510855 0.272598258,0.945510855 C0.422698992,0.945510855 0.544235238,0.823837289 0.544235238,0.67387391 L0.544235238,0.291961687 C0.544235238,0.141998273 0.422698992,0.020324707 0.272598258,0.020324707 L0.272598258,0.020324707 Z" id="Path"></path>
                                        <path d="M4.49285889,0.020324707 C4.34289551,0.020324707 4.22122191,0.141998273 4.22122191,0.291961687 L4.22122191,0.67387391 C4.22122191,0.823837289 4.34289551,0.945510855 4.49285889,0.945510855 C4.64295959,0.945510855 4.76449587,0.823837289 4.76449587,0.67387391 L4.76449587,0.291961687 C4.76449587,0.141998273 4.64295959,0.020324707 4.49285889,0.020324707 L4.49285889,0.020324707 Z" id="Path"></path>
                                        <path d="M1.88140869,0.804336539 C2.03384398,0.869979867 2.2037201,0.906646711 2.38279725,0.906646711 C2.5618744,0.906646711 2.73175049,0.869979867 2.88418577,0.804336539 C3.0441742,0.735397348 2.99528504,0.496856672 2.82115174,0.496856672 L1.94444276,0.496856672 C1.7701721,0.496856672 1.7214203,0.735397348 1.88140869,0.804336539 L1.88140869,0.804336539 Z" id="Path"></path>
                                        <path d="M3.49530029,1.18597412 C3.38227843,1.08723449 3.21075439,1.09877013 3.11201476,1.21179199 C3.0489807,1.28402712 2.95326232,1.32536317 2.8497162,1.32536317 C2.74617004,1.32536317 2.65045166,1.28388976 2.58728027,1.21165467 C2.53660584,1.15356445 2.45970155,1.11909484 2.38279725,1.11909484 C2.30534364,1.11909484 2.2292633,1.15342713 2.17817687,1.21179199 C2.1151428,1.28402712 2.01942443,1.32536317 1.9158783,1.32536317 C1.81233214,1.32536317 1.71661377,1.28388976 1.65344238,1.21165467 C1.55470275,1.09877013 1.38304139,1.08723449 1.27015685,1.18597412 C1.15727235,1.28471375 1.14559938,1.45637511 1.24447634,1.56925965 C1.41078185,1.75959777 1.65550233,1.86877441 1.9158783,1.86877441 C2.08369445,1.86877441 2.24478148,1.82318115 2.38279725,1.73995973 C2.52081299,1.82318115 2.68190002,1.86877441 2.8497162,1.86877441 C3.11009217,1.86877441 3.35481261,1.75959777 3.52111816,1.56925965 C3.6198578,1.45623779 3.60832215,1.2845764 3.49530029,1.18597412 L3.49530029,1.18597412 Z" id="Path"></path>
                                    </g>
                                    <path d="M7.21911621,17.9997254 C7.21746826,17.9997254 7.21595763,18 7.21430968,18 L8.0279846,18 C8.13194276,17.7486877 8.11367796,17.4668884 7.97360231,17.2261505 C7.7376709,16.8210297 7.44914246,16.6468964 7.19343566,16.5813904 C7.18382264,16.2432861 7.10691834,15.6516724 6.72239686,15.2278748 C6.43098449,14.9065246 6.02696229,14.743515 5.52172852,14.743515 C5.37176514,14.743515 5.25009157,14.8651886 5.25009157,15.015152 C5.25009157,15.1652527 5.37176514,15.2867889 5.52172852,15.2867889 C5.87123107,15.2867889 6.13188172,15.3863525 6.3186493,15.5912476 C6.71292113,16.0238342 6.64727783,16.7851867 6.64672852,16.7921905 C6.63931273,16.8684082 6.66430664,16.9443512 6.71580506,17.0010681 C6.76730348,17.057785 6.84036253,17.0901947 6.91699219,17.0901947 C7.15168761,17.0901947 7.34367371,17.2240906 7.50407411,17.4994354 C7.56518555,17.6043549 7.56559754,17.7294617 7.50544738,17.8342438 C7.47688293,17.8839569 7.39160156,17.9997254 7.21911621,17.9997254 L7.21911621,17.9997254 Z" id="Path" fill="#8895A2"></path>
                                </g>
                            </g>
                        </g>
                    </g>
                </g>
            </g>
        </g>
    </g>
</svg>