<?xml version="1.0" encoding="UTF-8"?>
<svg width="29px" height="28px" viewBox="0 0 29 28" version="1.1" xmlns="http://www.w3.org/2000/svg" xmlns:xlink="http://www.w3.org/1999/xlink">
    <g id="" stroke="none" stroke-width="1" fill="none" fill-rule="evenodd">
        <g id="" transform="translate(-978.000000, -294.000000)" fill-rule="nonzero">
            <g id="" transform="translate(0.000000, 100.000000)">
                <g id="" transform="translate(963.000000, 115.000000)">
                    <g id="" transform="translate(0.000000, 65.000000)">
                        <g id="" transform="translate(29.818166, 28.000000) rotate(-10.000000) translate(-29.818166, -28.000000) translate(17.818166, 16.000000)">
                            <g id="" transform="translate(3.000000, 2.000000)">
                                <polygon id="Path" fill="#FC3952" points="15.862069 1.37931034 15.862069 2.75862069 13.4482759 2.75862069 13.4482759 1.37931034 5.17241379 1.37931034 5.17241379 2.75862069 2.75862069 2.75862069 2.75862069 1.37931034 0 1.37931034 0 5.17241379 18.6206897 5.17241379 18.6206897 1.37931034"></polygon>
                                <polygon id="Path" fill="#EDEADA" points="2.75862069 5.17241379 0 5.17241379 0 20 18.6206897 20 18.6206897 5.17241379 15.862069 5.17241379 13.4482759 5.17241379 5.17241379 5.17241379"></polygon>
                                <path d="M12.7586207,7.5862069 L12.0689655,7.5862069 L9.65517241,7.5862069 L8.96551724,7.5862069 L6.55172414,7.5862069 L5.86206897,7.5862069 L2.75862069,7.5862069 L2.75862069,10.6896552 L2.75862069,11.3793103 L2.75862069,13.7931034 L2.75862069,14.4827586 L2.75862069,17.5862069 L5.86206897,17.5862069 L6.55172414,17.5862069 L8.96551724,17.5862069 L9.65517241,17.5862069 L12.0689655,17.5862069 L12.7586207,17.5862069 L15.862069,17.5862069 L15.862069,14.4827586 L15.862069,13.7931034 L15.862069,11.3793103 L15.862069,10.6896552 L15.862069,7.5862069 L12.7586207,7.5862069 Z M9.65517241,8.27586207 L12.0689655,8.27586207 L12.0689655,10.6896552 L9.65517241,10.6896552 L9.65517241,8.27586207 Z M12.0689655,13.7931034 L9.65517241,13.7931034 L9.65517241,11.3793103 L12.0689655,11.3793103 L12.0689655,13.7931034 Z M6.55172414,11.3793103 L8.96551724,11.3793103 L8.96551724,13.7931034 L6.55172414,13.7931034 L6.55172414,11.3793103 Z M6.55172414,8.27586207 L8.96551724,8.27586207 L8.96551724,10.6896552 L6.55172414,10.6896552 L6.55172414,8.27586207 Z M3.44827586,8.27586207 L5.86206897,8.27586207 L5.86206897,10.6896552 L3.44827586,10.6896552 L3.44827586,8.27586207 Z M3.44827586,11.3793103 L5.86206897,11.3793103 L5.86206897,13.7931034 L3.44827586,13.7931034 L3.44827586,11.3793103 Z M5.86206897,16.8965517 L3.44827586,16.8965517 L3.44827586,14.4827586 L5.86206897,14.4827586 L5.86206897,16.8965517 Z M8.96551724,16.8965517 L6.55172414,16.8965517 L6.55172414,14.4827586 L8.96551724,14.4827586 L8.96551724,16.8965517 Z M12.0689655,16.8965517 L9.65517241,16.8965517 L9.65517241,14.4827586 L12.0689655,14.4827586 L12.0689655,16.8965517 Z M15.1724138,16.8965517 L12.7586207,16.8965517 L12.7586207,14.4827586 L15.1724138,14.4827586 L15.1724138,16.8965517 Z M15.1724138,13.7931034 L12.7586207,13.7931034 L12.7586207,11.3793103 L15.1724138,11.3793103 L15.1724138,13.7931034 Z M12.7586207,10.6896552 L12.7586207,8.27586207 L15.1724138,8.27586207 L15.1724138,10.6896552 L12.7586207,10.6896552 Z" id="Shape" fill="#CEC9AE"></path>
                                <rect id="Rectangle" fill="#28384C" x="2.75862069" y="0" width="2.4137931" height="2.75862069"></rect>
                                <rect id="Rectangle" fill="#28384C" x="13.4482759" y="0" width="2.4137931" height="2.75862069"></rect>
                                <rect id="Rectangle" fill="#26B99A" x="9.65517241" y="11.3793103" width="2.4137931" height="2.4137931"></rect>
                            </g>
                        </g>
                    </g>
                </g>
            </g>
        </g>
    </g>
</svg>