<?xml version="1.0" encoding="UTF-8"?>
<svg width="42px" height="43px" viewBox="0 0 42 43" version="1.1" xmlns="http://www.w3.org/2000/svg" xmlns:xlink="http://www.w3.org/1999/xlink">
    <title>03CBFB37-3786-4F78-A087-A897A5273F2C</title>
    <defs>
        <rect id="path-1" x="0.696666667" y="0" width="40.4066667" height="40.4066667" rx="50"></rect>
    </defs>
    <g id="A:-My-Lessons" stroke="none" stroke-width="1" fill="none" fill-rule="evenodd">
        <g id="C:01-BL-MyLessons" transform="translate(-146.000000, -257.000000)">
            <g id="Templates/BaseLayer/Generic/MyLessons/Default" transform="translate(0.000000, -509.000000)">
                <g id="Templates/Global/Generic/Default" transform="translate(0.000000, 509.000000)">
                    <g id="GSN/Graphs/StudyRings" transform="translate(40.000000, 65.000000)">
                        <g id="Group-3" transform="translate(0.000000, 93.000000)">
                            <g id="Elements/Graphics/Style1/Target/Colour" transform="translate(108.000000, 101.000000)">
                                <g transform="translate(-1.900000, -1.900000)" id="Group">
                                    <mask id="mask-2" fill="white">
                                        <use xlink:href="#path-1"></use>
                                    </mask>
                                    <use id="Rectangle" fill="#8AB1D8" xlink:href="#path-1"></use>
                                    <rect id="Rectangle" fill-opacity="0.2" fill="#202020" mask="url(#mask-2)" x="0" y="-0.696666667" width="20.9" height="20.9"></rect>
                                    <rect id="Rectangle" fill-opacity="0.2" fill="#202020" mask="url(#mask-2)" x="20.9" y="20.2033333" width="20.9" height="20.9"></rect>
                                    <path d="M20.9,6.96666667 C21.1568378,6.96666667 21.3644444,7.17427333 21.3644444,7.43111111 L21.3644444,7.43111111 L21.3644444,8.37161111 C27.90986,8.61172889 33.1882711,13.89014 33.4283889,20.4355556 L33.4283889,20.4355556 L34.3688889,20.4355556 C34.6257267,20.4355556 34.8333333,20.6431622 34.8333333,20.9 C34.8333333,21.1568378 34.6257267,21.3644444 34.3688889,21.3644444 L34.3688889,21.3644444 L33.4283889,21.3644444 C33.1882711,27.90986 27.90986,33.1882711 21.3644444,33.4283889 L21.3644444,33.4283889 L21.3644444,34.3688889 C21.3644444,34.6257267 21.1568378,34.8333333 20.9,34.8333333 C20.6431622,34.8333333 20.4355556,34.6257267 20.4355556,34.3688889 L20.4355556,34.3688889 L20.4355556,33.4283889 C13.89014,33.1882711 8.61172889,27.90986 8.37161111,21.3644444 L8.37161111,21.3644444 L7.43111111,21.3644444 C7.17427333,21.3644444 6.96666667,21.1568378 6.96666667,20.9 C6.96666667,20.6431622 7.17427333,20.4355556 7.43111111,20.4355556 L7.43111111,20.4355556 L8.37161111,20.4355556 C8.61172889,13.89014 13.89014,8.61172889 20.4355556,8.37161111 L20.4355556,8.37161111 L20.4355556,7.43111111 C20.4355556,7.17427333 20.6431622,6.96666667 20.9,6.96666667 Z M21.3644444,9.3005 L21.3644444,10.2177778 C21.3644444,10.4746156 21.1568378,10.6822222 20.9,10.6822222 C20.6431622,10.6822222 20.4355556,10.4746156 20.4355556,10.2177778 L20.4355556,10.2177778 L20.4355556,9.3005 C14.4024222,9.53968889 9.53968889,14.4024222 9.3005,20.4355556 L9.3005,20.4355556 L10.2177778,20.4355556 C10.4746156,20.4355556 10.6822222,20.6431622 10.6822222,20.9 C10.6822222,21.1568378 10.4746156,21.3644444 10.2177778,21.3644444 L10.2177778,21.3644444 L9.3005,21.3644444 C9.53968889,27.3975778 14.4024222,32.2603111 20.4355556,32.4995 L20.4355556,32.4995 L20.4355556,31.5822222 C20.4355556,31.3253844 20.6431622,31.1177778 20.9,31.1177778 C21.1568378,31.1177778 21.3644444,31.3253844 21.3644444,31.5822222 L21.3644444,31.5822222 L21.3644444,32.4995 C27.3975778,32.2603111 32.2603111,27.3975778 32.4995,21.3644444 L32.4995,21.3644444 L31.5822222,21.3644444 C31.3253844,21.3644444 31.1177778,21.1568378 31.1177778,20.9 C31.1177778,20.6431622 31.3253844,20.4355556 31.5822222,20.4355556 L31.5822222,20.4355556 L32.4995,20.4355556 C32.2603111,14.4024222 27.3975778,9.53968889 21.3644444,9.3005 L21.3644444,9.3005 Z M20.9,14.8622222 C21.1568378,14.8622222 21.3644444,15.0698289 21.3644444,15.3266667 L21.3644444,15.3266667 L21.3644444,17.6860444 C22.78518,17.8908644 23.9091356,19.01482 24.1139556,20.4355556 L24.1139556,20.4355556 L26.4733333,20.4355556 C26.7301711,20.4355556 26.9377778,20.6431622 26.9377778,20.9 C26.9377778,21.1568378 26.7301711,21.3644444 26.4733333,21.3644444 L26.4733333,21.3644444 L24.1139556,21.3644444 C23.9091356,22.7847156 22.78518,23.9091356 21.3644444,24.1139556 L21.3644444,24.1139556 L21.3644444,26.4733333 C21.3644444,26.7301711 21.1568378,26.9377778 20.9,26.9377778 C20.6431622,26.9377778 20.4355556,26.7301711 20.4355556,26.4733333 L20.4355556,26.4733333 L20.4355556,24.1139556 C19.01482,23.9091356 17.8908644,22.78518 17.6860444,21.3644444 L17.6860444,21.3644444 L15.3266667,21.3644444 C15.0698289,21.3644444 14.8622222,21.1568378 14.8622222,20.9 C14.8622222,20.6431622 15.0698289,20.4355556 15.3266667,20.4355556 L15.3266667,20.4355556 L17.6860444,20.4355556 C17.8908644,19.0152844 19.01482,17.8908644 20.4355556,17.6860444 L20.4355556,17.6860444 L20.4355556,15.3266667 C20.4355556,15.0698289 20.6431622,14.8622222 20.9,14.8622222 Z M20.9,18.5777778 C19.6195267,18.5777778 18.5777778,19.6195267 18.5777778,20.9 C18.5777778,22.1804733 19.6195267,23.2222222 20.9,23.2222222 C22.1804733,23.2222222 23.2222222,22.1804733 23.2222222,20.9 C23.2222222,19.6195267 22.1804733,18.5777778 20.9,18.5777778 Z" id="Combined-Shape" fill="#424A60" fill-rule="nonzero" mask="url(#mask-2)"></path>
                                    <rect id="Rectangle" stroke="#FFFFFF" stroke-width="2" x="1" y="1" width="39.8" height="39.8" rx="50"></rect>
                                </g>
                            </g>
                        </g>
                    </g>
                </g>
            </g>
        </g>
    </g>
</svg>