<?xml version="1.0" encoding="UTF-8"?>
<svg width="24px" height="25px" viewBox="0 0 24 25" version="1.1" xmlns="http://www.w3.org/2000/svg" xmlns:xlink="http://www.w3.org/1999/xlink">
    <title>F1DD7FCB-AFB7-4D85-AC5F-72C944C71A54</title>
    <g id="B:-Manage-Study-Plans" stroke="none" stroke-width="1" fill="none" fill-rule="evenodd">
        <g id="C:08-NS-StudyPlans-Home" transform="translate(-881.000000, -190.000000)" fill-rule="nonzero">
            <g id="Compounds/ActionSheets/StudyPlan" transform="translate(858.000000, 120.000000)">
                <g id="Group" transform="translate(0.000000, 54.045404)">
                    <g id="Elements/List/BrowseBooks/Assign-Create-Copy-2" transform="translate(0.000000, 0.201796)">
                        <g id="004-time" transform="translate(23.000000, 16.000000)">
                            <circle id="Oval" fill="#8EC9CE" cx="12" cy="12" r="11.6"></circle>
                            <path d="M23.5912,15.106 C23.5916,15.1048 23.5912,15.1032 23.5916,15.102 C23.8564,14.112 24,13.0724 24,12 C24,10.9276 23.8564,9.888 23.5912,8.898 C23.5908,8.8968 23.5912,8.8952 23.5912,8.8952 C23.5904,8.8924 23.5892,8.8912 23.5888,8.8896 C23.3164,7.8764 22.914,6.9164 22.4012,6.0272 C22.3968,6.0184 22.3968,6.0084 22.392,5.9996 C22.3872,5.9912 22.3784,5.9864 22.3732,5.978 C21.854,5.0868 21.2256,4.2672 20.5024,3.5404 C20.4956,3.5324 20.4928,3.522 20.4852,3.5144 C20.4776,3.5068 20.4672,3.504 20.4592,3.4972 C19.7324,2.774 18.9128,2.1456 18.0216,1.6264 C18.0136,1.6212 18.0088,1.6128 18,1.608 C17.9912,1.6028 17.9812,1.6028 17.972,1.5988 C17.0828,1.0864 16.1232,0.6836 15.11,0.4112 C15.1084,0.4108 15.1072,0.4096 15.106,0.4092 C15.1048,0.4088 15.1032,0.4092 15.102,0.4092 C14.112,0.1436 13.0724,0 12,0 C10.9276,0 9.888,0.1436 8.898,0.4088 C8.8968,0.4092 8.8952,0.4088 8.894,0.4088 C8.8924,0.4092 8.8912,0.4104 8.89,0.4108 C7.8768,0.6828 6.9172,1.0856 6.028,1.598 C6.0188,1.6028 6.0088,1.6028 6,1.608 C5.9912,1.6128 5.9864,1.6216 5.9784,1.6268 C5.0872,2.146 4.2676,2.7744 3.5408,3.4976 C3.5328,3.5044 3.5224,3.5072 3.5148,3.5148 C3.5072,3.5224 3.5044,3.5328 3.4976,3.5408 C2.7748,4.2676 2.146,5.0872 1.6268,5.9784 C1.6212,5.9868 1.6128,5.9916 1.608,6 C1.6028,6.0088 1.6032,6.0184 1.5988,6.0276 C1.086,6.9168 0.6836,7.8768 0.4112,8.89 C0.4108,8.8916 0.4096,8.8924 0.4092,8.894 C0.4092,8.894 0.4092,8.8968 0.4088,8.898 C0.1436,9.888 0,10.9276 0,12 C0,13.0724 0.1436,14.112 0.4088,15.102 C0.4092,15.1032 0.4088,15.1048 0.4092,15.106 C0.4096,15.108 0.4112,15.1092 0.4116,15.1112 C0.684,16.124 1.0864,17.0836 1.5988,17.9728 C1.6028,17.9816 1.6028,17.9912 1.608,18 C1.6152,18.0124 1.6256,18.022 1.634,18.0332 C2.152,18.9196 2.778,19.7356 3.498,20.4588 C3.5048,20.4668 3.5076,20.4772 3.5152,20.4848 C3.5228,20.4924 3.5332,20.4952 3.5412,20.502 C4.2676,21.2248 5.0868,21.8528 5.9776,22.372 C5.986,22.378 5.9912,22.3868 6.0004,22.392 C6.014,22.4 6.0288,22.4036 6.0432,22.4096 C6.9284,22.918 7.8828,23.3176 8.8904,23.5884 C8.892,23.5888 8.8932,23.59 8.8944,23.5904 C8.8964,23.5908 8.8984,23.5908 8.9004,23.5912 C9.8896,23.8568 10.928,24 12,24 C13.072,24 14.1104,23.8568 15.1,23.5916 C15.102,23.5912 15.104,23.5912 15.106,23.5908 C15.1076,23.5904 15.1088,23.5892 15.11,23.5888 C16.1176,23.318 17.072,22.9184 17.9572,22.41 C17.9716,22.404 17.9864,22.4004 18,22.3924 C18.0092,22.3872 18.0144,22.378 18.0228,22.3724 C18.9132,21.8532 19.7328,21.2252 20.4592,20.5024 C20.4672,20.4956 20.4776,20.4928 20.4852,20.4852 C20.4928,20.4776 20.4956,20.4672 20.5024,20.4592 C21.222,19.7356 21.8484,18.92 22.3664,18.0336 C22.3748,18.022 22.3852,18.0128 22.3924,18.0004 C22.3976,17.9916 22.3972,17.982 22.4016,17.9728 C22.914,17.084 23.3164,16.1244 23.5888,15.1112 C23.5892,15.1092 23.5904,15.108 23.5912,15.106 Z M21.942,15.078 L22.708,15.2832 C22.4976,15.9684 22.222,16.6256 21.8904,17.248 L21.2068,16.8532 C21.0156,16.7428 20.7708,16.808 20.6604,16.9996 C20.55,17.1912 20.6156,17.4356 20.8068,17.546 L21.4884,17.9396 C21.1096,18.5428 20.6752,19.1072 20.192,19.626 L19.6368,19.0708 C19.4804,18.9144 19.2276,18.9144 19.0712,19.0708 C18.9148,19.2272 18.9148,19.48 19.0712,19.6364 L19.6264,20.1916 C19.1076,20.6748 18.5432,21.1092 17.94,21.488 L17.5464,20.806 C17.4356,20.6144 17.1904,20.5488 17,20.6596 C16.8084,20.77 16.7428,21.0148 16.8536,21.206 L17.2484,21.8896 C16.6256,22.2212 15.9688,22.4968 15.2836,22.7072 L15.0784,21.9412 C15.0212,21.7276 14.8028,21.6008 14.5884,21.6584 C14.3752,21.7156 14.2484,21.9348 14.3056,22.1484 L14.5104,22.912 C13.8284,23.0688 13.1232,23.1632 12.4004,23.1888 L12.4004,21.6 C12.4004,21.3788 12.2216,21.2 12.0004,21.2 C11.7792,21.2 11.6004,21.3788 11.6004,21.6 L11.6004,23.19 C10.8776,23.1644 10.1724,23.07 9.4904,22.9132 L9.6952,22.1496 C9.7524,21.9364 9.6256,21.7168 9.4124,21.6596 C9.1992,21.6024 8.9796,21.7288 8.9224,21.9424 L8.7172,22.7084 C8.032,22.498 7.3752,22.2224 6.7524,21.8908 L7.1472,21.2072 C7.2576,21.0156 7.192,20.7712 7.0008,20.6608 C6.8096,20.5504 6.5652,20.616 6.4544,20.8072 L6.0608,21.4892 C5.4576,21.1104 4.8932,20.676 4.3744,20.1928 L4.9296,19.6376 C5.086,19.4812 5.086,19.2284 4.9296,19.072 C4.7732,18.9156 4.5204,18.9156 4.364,19.072 L3.808,19.6264 C3.3248,19.1076 2.8904,18.5432 2.5116,17.94 L3.1932,17.5464 C3.3848,17.436 3.4504,17.1916 3.34,17 C3.2292,16.8084 2.9844,16.7428 2.7936,16.8536 L2.11,17.2484 C1.7784,16.6256 1.5028,15.9688 1.2924,15.2836 L2.0584,15.0784 C2.2716,15.0212 2.3984,14.802 2.3412,14.5884 C2.2844,14.3748 2.0652,14.2476 1.8512,14.3056 L1.0876,14.51 C0.9304,13.828 0.8356,13.1228 0.81,12.4 L2.4,12.4 C2.6212,12.4 2.8,12.2212 2.8,12 C2.8,11.7788 2.6212,11.6 2.4,11.6 L0.81,11.6 C0.8356,10.8772 0.93,10.172 1.0868,9.49 L1.8504,9.6944 C1.8852,9.7036 1.92,9.708 1.9544,9.708 C2.1308,9.708 2.2928,9.5904 2.3404,9.4116 C2.3976,9.1984 2.2708,8.9788 2.0576,8.9216 L1.292,8.7168 C1.5024,8.0316 1.778,7.3744 2.1096,6.752 L2.7932,7.1468 C2.8564,7.1828 2.9248,7.2 2.9928,7.2 C3.1312,7.2 3.2656,7.1284 3.3396,7 C3.45,6.8084 3.3844,6.564 3.1932,6.4536 L2.5116,6.06 C2.8904,5.4568 3.3248,4.8924 3.808,4.3736 L4.3632,4.9288 C4.4412,5.0068 4.5436,5.046 4.646,5.046 C4.7484,5.046 4.8508,5.0068 4.9288,4.9288 C5.0852,4.7724 5.0852,4.5196 4.9288,4.3632 L4.3736,3.808 C4.8924,3.3248 5.4568,2.8904 6.06,2.5116 L6.4536,3.1932 C6.528,3.3216 6.662,3.3932 6.8004,3.3932 C6.8684,3.3932 6.9372,3.376 7,3.3396 C7.1916,3.2292 7.2572,2.9844 7.1464,2.7932 L6.7516,2.1096 C7.3744,1.778 8.0312,1.5024 8.7164,1.292 L8.9216,2.058 C8.9692,2.2368 9.1308,2.3544 9.3076,2.3544 C9.342,2.3544 9.3768,2.35 9.4116,2.3408 C9.6248,2.2836 9.7516,2.0644 9.6944,1.8508 L9.4896,1.0872 C10.172,0.9304 10.8772,0.8356 11.6,0.81 L11.6,2.4 C11.6,2.6212 11.7788,2.8 12,2.8 C12.2212,2.8 12.4,2.6212 12.4,2.4 L12.4,0.81 C13.1228,0.8356 13.828,0.93 14.51,1.0868 L14.3052,1.8504 C14.248,2.0636 14.3748,2.2832 14.588,2.3404 C14.6228,2.3496 14.6576,2.354 14.692,2.354 C14.8684,2.354 15.0304,2.2364 15.078,2.0576 L15.2832,1.2916 C15.9684,1.502 16.6256,1.7776 17.248,2.1092 L16.8532,2.7928 C16.7428,2.9844 16.8084,3.2288 16.9996,3.3392 C17.0624,3.3756 17.1312,3.3928 17.1992,3.3928 C17.3376,3.3928 17.472,3.3212 17.546,3.1928 L17.9396,2.5112 C18.5428,2.89 19.1072,3.3244 19.626,3.8076 L19.0708,4.3628 C18.9144,4.5192 18.9144,4.772 19.0708,4.9284 C19.1488,5.0064 19.2512,5.0456 19.3536,5.0456 C19.456,5.0456 19.5584,5.0064 19.6364,4.9284 L20.1916,4.3732 C20.6748,4.892 21.1092,5.4564 21.488,6.0596 L20.8064,6.4532 C20.6148,6.5636 20.5492,6.8084 20.66,6.9996 C20.7344,7.128 20.8684,7.1996 21.0068,7.1996 C21.0748,7.1996 21.1436,7.1824 21.2064,7.146 L21.89,6.7512 C22.2216,7.374 22.4972,8.0308 22.7076,8.716 L21.9416,8.9212 C21.7284,8.9784 21.6016,9.1976 21.6588,9.4112 C21.7064,9.59 21.868,9.7076 22.0448,9.7076 C22.0792,9.7076 22.114,9.7032 22.1488,9.694 L22.9124,9.4896 C23.0692,10.1716 23.164,10.8768 23.1892,11.5996 L21.6,11.5996 C21.3788,11.5996 21.2,11.7784 21.2,11.9996 C21.2,12.2208 21.3788,12.3996 21.6,12.3996 L23.19,12.3996 C23.1644,13.1224 23.07,13.8276 22.9132,14.5096 L22.1496,14.3052 C21.9368,14.248 21.7168,14.3744 21.6596,14.588 C21.6024,14.8016 21.7288,15.0212 21.942,15.078 Z" id="Shape" fill="#556080"></path>
                            <path d="M16.4,11.6 L13.5432,11.6 C13.3976,11.0404 12.9596,10.602 12.4,10.4568 L12.4,5.2 C12.4,4.9788 12.2212,4.8 12,4.8 C11.7788,4.8 11.6,4.9788 11.6,5.2 L11.6,10.4568 C10.9116,10.6356 10.4,11.2564 10.4,12 C10.4,12.8824 11.1176,13.6 12,13.6 C12.7436,13.6 13.3644,13.088 13.5432,12.4 L16.4,12.4 C16.6212,12.4 16.8,12.2212 16.8,12 C16.8,11.7788 16.6212,11.6 16.4,11.6 Z M12,12.8 C11.5588,12.8 11.2,12.4412 11.2,12 C11.2,11.5588 11.5588,11.2 12,11.2 C12.4412,11.2 12.8,11.5588 12.8,12 C12.8,12.4412 12.4412,12.8 12,12.8 Z" id="Shape" fill="#FFFFFF"></path>
                        </g>
                    </g>
                </g>
            </g>
        </g>
    </g>
</svg>