<?xml version="1.0" encoding="UTF-8"?>
<svg width="29px" height="28px" viewBox="0 0 29 28" version="1.1" xmlns="http://www.w3.org/2000/svg" xmlns:xlink="http://www.w3.org/1999/xlink">
    <g id="" stroke="none" stroke-width="1" fill="none" fill-rule="evenodd">
        <g id="" transform="translate(-978.000000, -459.000000)" fill-rule="nonzero">
            <g id="" transform="translate(0.000000, 100.000000)">
                <g id="S" transform="translate(963.000000, 115.000000)">
                    <g id="" transform="translate(0.000000, 230.000000)">
                        <g id="" transform="translate(29.818166, 28.000000) rotate(-10.000000) translate(-29.818166, -28.000000) translate(17.818166, 16.000000)">
                            <g id="" transform="translate(2.000000, 2.000000)">
                                <circle id="Oval" fill="#E8B966" cx="10" cy="10" r="10"></circle>
                                <g id="Group" transform="translate(11.034483, 4.482759)" fill="#FFFFFF">
                                    <rect id="Rectangle" x="0.344827586" y="0.344827586" width="2.06896552" height="10.3448276"></rect>
                                    <path d="M2.75862069,11.0344828 L0,11.0344828 L0,0 L2.75862069,0 L2.75862069,11.0344828 Z M0.689655172,10.3448276 L2.06896552,10.3448276 L2.06896552,0.689655172 L0.689655172,0.689655172 L0.689655172,10.3448276 Z" id="Shape"></path>
                                </g>
                                <g id="Group" transform="translate(6.206897, 4.482759)" fill="#FFFFFF">
                                    <rect id="Rectangle" x="0.344827586" y="0.344827586" width="2.06896552" height="10.3448276"></rect>
                                    <path d="M2.75862069,11.0344828 L0,11.0344828 L0,0 L2.75862069,0 L2.75862069,11.0344828 Z M0.689655172,10.3448276 L2.06896552,10.3448276 L2.06896552,0.689655172 L0.689655172,0.689655172 L0.689655172,10.3448276 Z" id="Shape"></path>
                                </g>
                            </g>
                        </g>
                    </g>
                </g>
            </g>
        </g>
    </g>
</svg>