<?xml version="1.0" encoding="UTF-8"?>
<svg width="24px" height="24px" viewBox="0 0 24 24" version="1.1" xmlns="http://www.w3.org/2000/svg" xmlns:xlink="http://www.w3.org/1999/xlink">
    <title>510C1386-4DDE-4D70-A517-CDEDF519C714</title>
    <g id="A:-My-Lessons" stroke="none" stroke-width="1" fill="none" fill-rule="evenodd">
        <g id="C:02-BL-MyLessons-Expanded" transform="translate(-316.000000, -318.000000)" fill="#FFFFFF" fill-rule="nonzero">
            <g id="Templates/BaseLayer/Generic/MyLessons/Default" transform="translate(0.000000, -206.000000)">
                <g id="Templates/Global/Generic/Default" transform="translate(0.000000, 206.000000)">
                    <g id="Elements/CTAs/IconBased/CR" transform="translate(316.000000, 318.000000)">
                        <g id="share-1" transform="translate(1.000000, 0.000000)">
                            <path d="M15.4279322,17.0558644 C15.2147797,17.2690169 15.031322,17.503322 14.872678,17.7510508 L7.84352542,13.484339 C8.02942373,13.0189831 8.13477966,12.5129492 8.13477966,11.9821017 C8.13477966,11.4512542 8.02942373,10.9452203 7.8439322,10.4798644 L14.8747119,6.24569492 C15.5967458,7.37979661 16.8626441,8.13559322 18.3042712,8.13559322 C20.5472542,8.13559322 22.3720678,6.31077966 22.3720678,4.06779661 C22.3720678,1.82481356 20.5472542,0 18.3042712,0 C16.0612881,0 14.2364746,1.82481356 14.2364746,4.06779661 C14.2364746,4.57871186 14.335322,5.0660339 14.5077966,5.51674576 L7.46766102,9.75661017 C6.74033898,8.64854237 5.48827119,7.91430508 4.06657627,7.91430508 C1.82359322,7.91430508 -0.00122033898,9.73911864 -0.00122033898,11.9821017 C-0.00122033898,14.2250847 1.82359322,16.0498983 4.06657627,16.0498983 C5.48827119,16.0498983 6.7399322,15.315661 7.46725424,14.2075932 L14.5061695,18.48 C14.3312542,18.9380339 14.2360678,19.4273898 14.2360678,19.9322034 C14.2360678,21.0187119 14.6591186,22.0405424 15.4275254,22.8085424 C16.220339,23.6013559 17.2621017,23.9979661 18.3038644,23.9979661 C19.3456271,23.9979661 20.3873898,23.6013559 21.1802034,22.8085424 C21.9486102,22.0401356 22.371661,21.0187119 22.371661,19.9322034 C22.371661,18.8456949 21.9486102,17.8238644 21.1802034,17.0558644 C19.5941695,15.4694237 17.0139661,15.4694237 15.4279322,17.0558644 Z M18.3042712,0.813559322 C20.0985763,0.813559322 21.5585085,2.27349153 21.5585085,4.06779661 C21.5585085,5.86210169 20.0985763,7.3220339 18.3042712,7.3220339 C16.5099661,7.3220339 15.0500339,5.86210169 15.0500339,4.06779661 C15.0500339,2.27349153 16.5095593,0.813559322 18.3042712,0.813559322 Z M4.06698305,15.236339 C2.27267797,15.236339 0.812745763,13.7764068 0.812745763,11.9821017 C0.812745763,10.1877966 2.27267797,8.72786441 4.06698305,8.72786441 C5.86128814,8.72786441 7.32122034,10.1877966 7.32122034,11.9821017 C7.32122034,13.7764068 5.86128814,15.236339 4.06698305,15.236339 Z M20.6050169,22.2333559 C19.3362712,23.5021017 17.2718644,23.5021017 16.0031186,22.2333559 C15.3884746,21.6187119 15.0500339,20.8010847 15.0500339,19.9322034 C15.0500339,19.063322 15.3884746,18.2456949 16.0031186,17.6310508 C16.6376949,16.9964746 17.4707797,16.6795932 18.3042712,16.6795932 C19.1377627,16.6795932 19.9708475,16.9964746 20.6054237,17.6310508 C21.2200678,18.2456949 21.5585085,19.063322 21.5585085,19.9322034 C21.5585085,20.8010847 21.2200678,21.6187119 20.6050169,22.2333559 Z" id="Shape"></path>
                        </g>
                    </g>
                </g>
            </g>
        </g>
    </g>
</svg>