<?xml version="1.0" encoding="UTF-8"?>
<svg width="360px" height="600px" viewBox="0 0 360 600" version="1.1" xmlns="http://www.w3.org/2000/svg" xmlns:xlink="http://www.w3.org/1999/xlink">
    <title>9985BF2D-5046-490E-B0BA-0BA650ED50D1</title>
    <defs>
        <rect id="path-1" x="1.30739863e-12" y="0" width="360" height="600"></rect>
    </defs>
    <g id="My-Lessons" stroke="none" stroke-width="1" fill="none" fill-rule="evenodd">
        <g id="Group">
            <mask id="mask-2" fill="white">
                <use xlink:href="#path-1"></use>
            </mask>
            <use id="Mask" fill="none" xlink:href="#path-1"></use>
            <g id="187" opacity="0.466761077" mask="url(#mask-2)">
                <g transform="translate(196.635602, 323.500000) scale(-1, 1) translate(-196.635602, -323.500000) translate(-18.947368, -28.000000)">
                    <g id="Dark" transform="translate(48.815095, 275.658919)">
                        <polygon id="Fill-47" fill-opacity="0.29" fill="#FFFFFF" points="16.3045944 358.50475 92.4943821 284.956066 58.706003 263.798388"></polygon>
                        <polygon id="Fill-48" fill-opacity="0.04" fill="#FFFFFF" points="57.3807503 183.196966 92.4943821 141.888528 36.8426724 74.3851265"></polygon>
                        <polygon id="Fill-48" fill-opacity="0.04" fill="#FFFFFF" points="4.61963508 174.341542 46.96629 142.311674 4.61963508 59.7889947"></polygon>
                        <polygon id="Fill-48" fill-opacity="0.04" fill="#FFFFFF" transform="translate(72.824644, 92.524407) rotate(-27.000000) translate(-72.824644, -92.524407) " points="67.8548693 148.031211 101.256799 107.067508 44.3924886 37.0176026"></polygon>
                        <polygon id="Fill-48" fill-opacity="0.04" fill="#FFFFFF" transform="translate(54.826410, 50.847053) rotate(-47.000000) translate(-54.826410, -50.847053) " points="26.5507128 7.85938378 28.7470415 30.7308118 50.4131186 93.8347216 83.1021075 62.2799096"></polygon>
                        <polygon id="Fill-49" fill-opacity="0.2" fill="#FFFFFF" points="16.3045944 358.50475 105.082428 355.48184 92.4943821 284.956066"></polygon>
                        <polygon id="Fill-55" fill-opacity="0.04" fill="#FFFFFF" points="57.3807503 183.196966 110.382326 221.482493 92.4943821 141.888528"></polygon>
                        <polygon id="Fill-56" fill-opacity="0.09" fill="#FFFFFF" points="92.4943821 284.956066 110.382326 221.482493 58.706003 263.798388"></polygon>
                        <polygon id="Fill-57" fill-opacity="0.15" fill="#FFFFFF" points="58.706003 263.798388 110.382326 221.482493 57.3807503 183.196966"></polygon>
                        <polygon id="Fill-57" fill-opacity="0.17" fill="#FFFFFF" points="4.61963508 258.561012 59.4041992 263.798388 4.61963508 176.755922"></polygon>
                        <polygon id="Fill-57" fill-opacity="0.12" fill="#FFFFFF" transform="translate(31.713983, 203.043534) scale(-1, 1) rotate(2.000000) translate(-31.713983, -203.043534) " points="6.57055239 263.869511 58.4717009 173.699227 12.7874728 142.217557 4.9562657 182.70048"></polygon>
                        <polygon id="Fill-61" fill-opacity="0.1" fill="#FFFFFF" points="110.382326 221.482493 158.746258 303.091373 151.458853 220.475036"></polygon>
                        <polygon id="Fill-66" fill-opacity="0.11" fill="#FFFFFF" points="105.082428 355.482378 158.746258 303.091373 92.4943821 284.956066"></polygon>
                        <polygon id="Fill-67" fill-opacity="0.14" fill="#FFFFFF" points="92.4943821 284.956066 158.746258 303.091373 110.382326 221.482493"></polygon>
                        <polygon id="Fill-67" fill-opacity="0.06" fill="#FFFFFF" points="4.61963508 59.7889947 46.96629 141.594085 36.9570806 74.140765 21.558297 56.2010522 4.61963508 42.5668705"></polygon>
                        <polygon id="Fill-42" fill-opacity="0.11" fill="#FFFFFF" points="200.903807 368.363784 215.47936 292.800187 156.51489 299.852925"></polygon>
                        <polygon id="Fill-42" fill-opacity="0.07" fill="#FFFFFF" transform="translate(152.963940, 322.593904) scale(1, -1) translate(-152.963940, -322.593904) " points="158.765498 342.02459 184.2031 303.163219 121.72478 306.401666"></polygon>
                        <polygon id="Fill-42" fill-opacity="0.07" fill="#FFFFFF" transform="translate(16.552237, 307.573630) scale(-1, 1) rotate(88.000000) translate(-16.552237, -307.573630) " points="38.8143298 321.834644 64.8282246 296.549181 -31.7232216 293.312616"></polygon>
                        <path d="M15.5575942,359.639497 L39.994482,358.952035 C37.8189413,352.712795 34.1195296,348.98837 28.8962468,347.778757 C23.6729641,346.569145 18.1748035,346.377145 12.4017652,347.202757 L-9.89202028,368.766087 L15.5575942,359.639497 Z" id="Fill-42" fill-opacity="0.07" fill="#FFFFFF" transform="translate(15.051231, 357.733233) scale(-1, 1) rotate(88.000000) translate(-15.051231, -357.733233) "></path>
                        <polygon id="Fill-42" fill-opacity="0.1" fill="#FFFFFF" transform="translate(31.250039, 293.559669) scale(-1, 1) translate(-31.250039, -293.559669) " points="32.9209959 328.289461 58.5153777 258.829877 3.98469941 263.584132"></polygon>
                        <polygon id="Fill-47" fill-opacity="0.04" fill="#FFFFFF" transform="translate(226.062698, 307.476923) scale(-1, 1) translate(-226.062698, -307.476923) " points="178.654406 332.753846 273.47099 303.851056 215.064697 282.2"></polygon>
                        <polygon id="Fill-48" fill-opacity="0.06" fill="#FFFFFF" transform="translate(121.108284, 203.686762) scale(-1, 1) rotate(-47.000000) translate(-121.108284, -203.686762) " points="117.322293 180.785867 92.9725452 199.608387 118.131122 226.587658 149.244022 207.881809"></polygon>
                        <polygon id="Fill-49" fill-opacity="0.08" fill="#FFFFFF" transform="translate(223.068490, 327.507692) scale(-1, 1) translate(-223.068490, -327.507692) " points="178.654406 330.085372 182.924991 349.277573 267.482574 350.876923 267.462881 304.138462"></polygon>
                        <polygon id="Fill-57" fill-opacity="0.1" fill="#FFFFFF" transform="translate(165.094002, 260.939932) scale(-1, 1) translate(-165.094002, -260.939932) " points="151.533599 297.083894 171.441746 300.397371 178.654406 221.482493"></polygon>
                        <polygon id="Fill-61" fill-opacity="0.07" fill="#FFFFFF" transform="translate(163.391507, 385.641324) rotate(-120.000000) translate(-163.391507, -385.641324) " points="140.832139 344.851247 185.950876 428.260614 180.562343 343.022034"></polygon>
                        <polygon id="Fill-42" fill-opacity="0.07" fill="#FFFFFF" points="178.654406 339.222078 178.654406 298.415385 155.675489 304.138462"></polygon>
                    </g>
                    <g id="Dark" transform="translate(107.701184, 185.158919) scale(1, -1) translate(-107.701184, -185.158919) translate(0.907768, 0.658919)">
                        <polygon id="Fill-47" fill-opacity="0.07" fill="#FFFFFF" points="14.3084558 358.50475 90.4982435 284.956066 56.7098644 263.798388"></polygon>
                        <polygon id="Fill-48" fill-opacity="0.04" fill="#FFFFFF" points="55.3846117 183.196966 90.4982435 141.888528 34.8465337 74.3851265"></polygon>
                        <polygon id="Fill-48" fill-opacity="0.04" fill="#FFFFFF" transform="translate(70.828505, 92.524407) rotate(-27.000000) translate(-70.828505, -92.524407) " points="65.8587307 148.031211 99.2606604 107.067508 42.3963499 37.0176026"></polygon>
                        <polygon id="Fill-48" fill-opacity="0.04" fill="#FFFFFF" transform="translate(52.830272, 50.847053) rotate(-47.000000) translate(-52.830272, -50.847053) " points="24.5545742 7.85938378 26.7509029 30.7308118 48.41698 93.8347216 81.1059689 62.2799096"></polygon>
                        <polygon id="Fill-49" fill-opacity="0.13" fill="#FFFFFF" points="14.3084558 358.50475 103.086289 355.48184 90.4982435 284.956066"></polygon>
                        <polygon id="Fill-55" fill-opacity="0.04" fill="#FFFFFF" points="55.3846117 183.196966 108.386187 221.482493 90.4982435 141.888528"></polygon>
                        <polygon id="Fill-56" fill-opacity="0.08" fill="#FFFFFF" points="90.4982435 284.956066 108.386187 221.482493 56.7098644 263.798388"></polygon>
                        <polygon id="Fill-57" fill-opacity="0.11" fill="#FFFFFF" points="56.7098644 263.798388 108.386187 221.482493 55.3846117 183.196966"></polygon>
                        <polygon id="Fill-57" fill-opacity="0.17" fill="#FFFFFF" points="2.62349647 258.561012 57.4080606 263.798388 2.62349647 176.755922"></polygon>
                        <polygon id="Fill-57" fill-opacity="0.12" fill="#FFFFFF" transform="translate(29.717845, 203.043534) scale(-1, 1) rotate(2.000000) translate(-29.717845, -203.043534) " points="4.57441378 263.869511 56.4755623 173.699227 10.7913342 142.217557 2.96012708 182.70048"></polygon>
                        <polygon id="Fill-61" fill-opacity="0.07" fill="#FFFFFF" points="108.386187 221.482493 156.75012 303.091373 149.462714 220.475036"></polygon>
                        <polygon id="Fill-66" fill-opacity="0.09" fill="#FFFFFF" points="103.086289 355.482378 156.75012 303.091373 90.4982435 284.956066"></polygon>
                        <polygon id="Fill-67" fill-opacity="0.14" fill="#FFFFFF" points="90.4982435 284.956066 156.75012 303.091373 108.386187 221.482493"></polygon>
                        <polygon id="Fill-42" fill-opacity="0.07" fill="#FFFFFF" points="198.907668 368.363784 213.483222 292.800187 154.518751 299.852925"></polygon>
                        <polygon id="Fill-42" fill-opacity="0.06" fill="#FFFFFF" transform="translate(150.967801, 322.593904) scale(1, -1) translate(-150.967801, -322.593904) " points="156.769359 342.02459 182.206961 303.163219 119.728641 306.401666"></polygon>
                        <polygon id="Fill-42" fill-opacity="0.1" fill="#FFFFFF" transform="translate(29.253900, 293.559669) scale(-1, 1) translate(-29.253900, -293.559669) " points="30.9248573 328.289461 56.5192391 258.829877 1.98856079 263.584132"></polygon>
                    </g>
                    <g id="Small" transform="translate(372.165941, 552.622793) scale(-1, 1) translate(-372.165941, -552.622793) translate(313.165941, 475.122793)">
                        <polyline id="Fill-47" fill-opacity="0.22" fill="#FFFFFF" points="6 83.273597 6.27218896 96.1668959 34 83.2954274 12 76.1668959"></polyline>
                        <polygon id="Fill-48" fill-opacity="0.06" fill="#FFFFFF" points="6 51.1668959 34 38.1168959 6 22.1668959"></polygon>
                        <polygon id="Fill-49" fill-opacity="0.24" fill="#FFFFFF" points="6 96.0161939 6 103.166896 40 103.166896 33.8028171 83.1668959"></polygon>
                        <polygon id="Fill-55" fill-opacity="0.11" fill="#FFFFFF" points="6 51.1668959 46 64.1668959 34 38.1668959"></polygon>
                        <polygon id="Fill-56" fill-opacity="0.22" fill="#FFFFFF" points="33.8028171 83.1668959 46 64.1668959 12 75.8454058"></polygon>
                        <polygon id="Fill-57" fill-opacity="0.17" fill="#FFFFFF" points="6 51.1668959 12 76.1668959 46 64.40219"></polygon>
                        <polygon id="Fill-61" fill-opacity="0.04" fill="#FFFFFF" points="46 64.1668959 74 89.1668959 70 64.1668959"></polygon>
                        <polyline id="Fill-66" fill-opacity="0.14" fill="#FFFFFF" points="34 83.1888373 40.1667833 103.166896 74 88.8811816 34.1962156 83.1668959"></polyline>
                        <polygon id="Fill-67" fill-opacity="0.08" fill="#FFFFFF" points="34 83.2845429 74 89.1668959 46 64.1668959"></polygon>
                        <polygon id="Fill-42" fill-opacity="0.1" fill="#FFFFFF" transform="translate(46.921053, 121.166896) scale(1, -1) translate(-46.921053, -121.166896) " points="73.8421053 154.166896 20 88.1668959 20 130.646096"></polygon>
                        <polygon id="Fill-42" fill-opacity="0.1" fill="#FFFFFF" transform="translate(69.000000, 104.760877) scale(1, -1) translate(-69.000000, -104.760877) " points="89 97.834058 49 90.1668959 73.8421053 119.354858"></polygon>
                        <polygon id="Fill-42" fill-opacity="0.04" fill="#FFFFFF" transform="translate(96.500000, 127.833448) scale(1, -1) translate(-96.500000, -127.833448) " points="118 104.253846 75 102.5 95 153.166896"></polygon>
                        <polygon id="Fill-22" fill-opacity="0.06" fill="#FFFFFF" points="34 38.1668959 45.9047619 64.1668959 59 38.1668959"></polygon>
                        <polyline id="Fill-23" fill-opacity="0.01" fill="#FFFFFF" points="89 29.1668959 90.2224123 51.1430115 111 55.1668959 89 29.1668959"></polyline>
                        <polygon id="Fill-43" fill-opacity="0.03" fill="#FFFFFF" points="68 91.1668959 111 87.4831369 96.188793 75.1668959"></polygon>
                        <polyline id="Fill-45" fill-opacity="0.03" fill="#FFFFFF" points="0 18.1668959 33.9574757 39.1668959 38 20.6743861 0 18.1668959"></polyline>
                        <polyline id="Fill-46" fill-opacity="0.01" fill="#FFFFFF" points="38.0908813 21.1668959 34 40.1668959 61 37.5906159 38.0908813 21.1668959"></polyline>
                        <polyline id="Fill-50" fill-opacity="0.02" fill="#FFFFFF" points="38 21.1753065 61.0137239 37.1668959 68 0.166895869 38 21.1753065"></polyline>
                        <polyline id="Fill-51" fill-opacity="0.01" fill="#FFFFFF" points="18.1914725 8.16689587 0 18.6303064 38 21.1668959 18.1914725 8.16689587"></polyline>
                        <polyline id="Fill-58" fill-opacity="0.01" fill="#FFFFFF" points="31 0.166895869 37.7999801 21.1668959 67 0.166895869 31 0.166895869"></polyline>
                        <polyline id="Fill-62" fill-opacity="0.05" fill="#FFFFFF" points="70.1582573 64.4797969 74 89.1668959 96 75.9316018 70 64.1668959"></polyline>
                        <polygon id="Fill-63" fill-opacity="0.1" fill="#FFFFFF" points="46 64.1668959 70 64.1668959 60 36.1668959"></polygon>
                        <polyline id="Fill-71" fill-opacity="0.02" fill="#FFFFFF" points="67.8985343 0.166895869 61 37.1668959 89 29.0143308 67.8985343 0.166895869"></polyline>
                        <polygon id="Fill-73" fill-opacity="0.07" fill="#FFFFFF" points="60 36.1668959 70 64.1668959 90 50.903738"></polygon>
                        <polygon id="Fill-74" fill-opacity="0.04" fill="#FFFFFF" points="60 36.5002292 90 51.1668959 88 29.1668959"></polygon>
                        <polyline id="Fill-1" fill-opacity="0.02" fill="#FFFFFF" points="89 28.7668287 111 55.1668959 111 22.1668959 89 28.7668287"></polyline>
                        <polygon id="Fill-7" fill-opacity="0.04" fill="#FFFFFF" points="110 87.1668959 110 55.1668959 96 75.5305322"></polygon>
                        <polygon id="Fill-75" fill-opacity="0.04" fill="#FFFFFF" points="70 64.40219 96 76.1668959 90 51.1668959"></polygon>
                        <polyline id="Fill-44" fill-opacity="0.04" fill="#FFFFFF" points="31.0612571 0.166895869 18 8.3161321 38 21.1668959 31.0612571 0.166895869"></polyline>
                        <polyline id="Fill-70" fill-opacity="0.04" fill="#FFFFFF" points="68 0.166895869 89.2727203 29.1668959 95 9.30817458 68 0.166895869"></polyline>
                        <polyline id="Fill-6" fill-opacity="0.06" fill="#FFFFFF" points="94.7036784 9.16689587 89 29.1668959 111 22.5002858 94.7036784 9.16689587"></polyline>
                        <polyline id="Fill-5" fill-opacity="0.02" fill="#FFFFFF" points="97 10.1668959 81 19.152767 97 32.1668959 97 10.1668959"></polyline>
                    </g>
                </g>
            </g>
        </g>
    </g>
</svg>