<?xml version="1.0" encoding="UTF-8"?>
<svg width="32px" height="30px" viewBox="0 0 32 30" version="1.1" xmlns="http://www.w3.org/2000/svg" xmlns:xlink="http://www.w3.org/1999/xlink">
    <title>E3C59093-7881-4379-B698-4102BB4E5936</title>
    <g id="Today--------------------------------------------" stroke="none" stroke-width="1" fill="none" fill-rule="evenodd">
        <g id="AFS-1334-Mobile-B2-1" transform="translate(-25.000000, -149.000000)">
            <g id="Group-4" transform="translate(0.000000, 140.000000)">
                <g id="Cards/Task" transform="translate(0.000000, 0.000000)">
                    <g id="Group-2" transform="translate(25.000000, 9.000000)">
                        <path d="M16.5636992,0 C24.5374244,0 31,6.21905965 31,13.8914164 L31,15.9408851 C31,23.6132419 24.5374244,29.833333 16.5636992,29.833333 L14.4363008,29.833333 C6.46257563,29.833333 0,23.6132419 0,15.9408851 L0,13.8914164 C0,6.21905965 6.46257563,0 14.4363008,0 L16.5636992,0 Z" id="Fill-35" fill="#00A4FF"></path>
                        <g id="Group" transform="translate(2.500000, 9.142473)">
                            <path d="M24.8619033,-1.30940784e-15 L24.9991629,-1.30940784e-15 C25.5136272,-1.30940784e-15 25.9305923,0.394424097 25.9305923,0.881018946 L25.9305923,1.01099999 C25.9305923,1.49759484 25.5136272,1.89208435 24.9991629,1.89208435 L24.8619033,1.89208435 C24.3474389,1.89208435 23.9304739,1.49759484 23.9304739,1.01099999 L23.9304739,0.881018946 C23.9304739,0.394424097 24.3474389,-1.30940784e-15 24.8619033,-1.30940784e-15" id="Fill-35" fill="#000000"></path>
                            <path d="M2.07574282e-15,6.7653594 L1.62052804,6.16840823 C1.84318599,6.70677962 2.31325702,6.96432132 2.91944673,6.96432132 C3.47605702,6.96432132 3.77308411,6.71858716 3.77308411,6.43759393 C3.77308411,6.1216687 3.16689439,6.02799338 2.4493757,5.89938607 C1.33598225,5.71206815 0.222623372,5.34920714 0.222623372,4.09715022 C0.222623372,3.11405004 1.22465328,2.23630188 2.75853834,2.25975341 C4.14413458,2.25975341 4.93584954,2.79812481 5.38116543,3.6173259 L3.88441308,4.21408082 C3.72347011,3.82796452 3.30301308,3.57039012 2.74622991,3.57039012 C2.18961962,3.57039012 1.94217197,3.79283628 1.94217197,4.05021444 C1.94217197,4.30775614 2.3009486,4.40143145 3.22860937,4.57694183 C4.26777198,4.77590375 5.46784299,5.12695722 5.46784299,6.39082169 C5.46784299,7.24515102 4.62654861,8.36860063 2.84525047,8.34514909 C1.34829067,8.34514909 0.445281318,7.79516641 2.07574282e-15,6.7653594" id="Fill-36" fill="#FFFFFF"></path>
                            <path d="M5.70709656,2.37671673 L6.69965313,2.37671673 L6.69965313,1.00750024 L8.39441201,0.129752085 L8.39441201,2.37671673 L9.55721202,2.37671673 L9.55721202,3.81612428 L8.39441201,3.81612428 L8.39441201,5.67693991 C8.39441201,6.58981631 8.5180494,6.73019845 9.55721202,6.73019845 L9.55721202,8.22818578 L9.30976436,8.22818578 C7.34294098,8.22818578 6.69965313,7.59617178 6.69965313,5.68861662 L6.69965313,3.81612428 L5.70709656,3.81612428 L5.70709656,2.37671673" id="Fill-37" fill="#FFFFFF"></path>
                            <path d="M10.227364,5.94612561 L10.227364,2.37671673 L11.9469472,2.37671673 L11.9469472,5.73551969 C11.9469472,6.51962524 12.3303061,6.97596532 13.0849575,6.97596532 C13.7282453,6.97596532 14.2602042,6.55472078 14.2602042,5.5716533 L14.2602042,2.37671673 L15.9549977,2.37671673 L15.9549977,8.22818578 L14.2725126,8.22818578 L14.2725126,7.58452778 C13.864364,8.0526754 13.2706556,8.34514909 12.5654453,8.34514909 C11.1056182,8.34514909 10.227364,7.45575693 10.227364,5.94612561" id="Fill-38" fill="#FFFFFF"></path>
                            <path d="M21.5785975,5.29082361 C21.5785975,4.42471945 20.9104854,3.72264521 19.995133,3.72264521 C19.054991,3.72264521 18.3374723,4.3895912 18.3374723,5.29082361 C18.3374723,6.19185977 19.054991,6.87064601 19.995133,6.87064601 C20.9104854,6.87064601 21.5785975,6.15676423 21.5785975,5.29082361 Z M16.6798115,5.30246761 C16.6798115,3.23101335 18.2880657,2.25975341 19.6857975,2.25975341 C20.4899938,2.25975341 21.1208003,2.54058311 21.5291564,2.95018365 L21.5291564,0.129752085 L23.2241227,0.129752085 L23.2241227,8.22818578 L21.5291564,8.22818578 L21.5291564,7.57288378 C21.1208003,8.02922386 20.465204,8.34514909 19.6611807,8.34514909 C18.3497807,8.34514909 16.6798115,7.36227787 16.6798115,5.30246761 L16.6798115,5.30246761 Z" id="Fill-39" fill="#FFFFFF"></path>
                            <polygon id="Fill-40" fill="#FFFFFF" points="24.0832919 8.22818578 25.77812 8.22818578 25.77812 2.37671673 24.0832919 2.37671673"></polygon>
                            <g id="Group-3" transform="translate(15.500000, 9.142473)" fill="#0A0B09">
                                <path d="M0.670134726,2.12102302 L0.670134726,2.99268752 L1.2219392,2.99268752 C1.63095217,2.99268752 1.83787885,2.83421793 1.83787885,2.55456572 C1.83787885,2.27483174 1.69007408,2.12102302 1.19246468,2.12102302 L0.670134726,2.12102302 Z M0.670134726,0.755224512 L0.670134726,1.52901074 L1.13325634,1.52901074 C1.56197661,1.52901074 1.70978138,1.36588028 1.70978138,1.12351503 C1.70978138,0.867085397 1.54719613,0.755224512 1.13325634,0.755224512 L0.670134726,0.755224512 Z M-2.03836947e-12,0.172533967 L1.13325634,0.172533967 C1.93641536,0.172533967 2.38484293,0.494134011 2.38484293,1.12351503 C2.38484293,1.41714985 2.25181864,1.64087162 1.99069688,1.7853586 C2.32572102,1.92992734 2.5129404,2.19093607 2.5129404,2.56854833 C2.5129404,3.23979541 2.015331,3.57537806 1.2219392,3.57537806 L-2.03836947e-12,3.57537806 L-2.03836947e-12,0.172533967 L-2.03836947e-12,0.172533967 Z" id="Fill-58"></path>
                                <path d="M3.38472923,1.90662299 L5.02043536,1.90662299 C4.92189884,1.53833248 4.6262893,1.3472368 4.21226308,1.3472368 C3.81379524,1.3472368 3.50297305,1.57095857 3.38472923,1.90662299 Z M2.71459451,2.2189013 C2.71459451,1.42181072 3.36994876,0.792511474 4.21226308,0.792511474 C5.06970361,0.792511474 5.69549691,1.38918463 5.69549691,2.19559694 L5.69549691,2.43330133 L3.35024145,2.43330133 C3.44385114,2.82023532 3.76418125,3.07658318 4.23732938,3.07658318 C4.61159526,3.07658318 4.89769689,2.89014838 5.0351294,2.59643178 L5.58226635,2.89480925 C5.33073894,3.33767368 4.88732463,3.63139028 4.23732938,3.63139028 C3.33053415,3.63139028 2.71459451,3.00667013 2.71459451,2.2189013 L2.71459451,2.2189013 Z" id="Fill-59"></path>
                                <path d="M5.76464534,0.848441917 L6.25732791,0.848441917 L6.25732791,0.433542699 L6.92720332,4.2737617e-15 L6.92720332,0.848441917 L7.51323627,0.848441917 L7.51323627,1.41248898 L6.92720332,1.41248898 L6.92720332,2.43330133 C6.92720332,2.90879186 7.00153789,2.98336578 7.51323627,2.98336578 L7.51323627,3.57537806 L7.41988589,3.57537806 C6.52787114,3.57537806 6.25732791,3.30496582 6.25732791,2.43804397 L6.25732791,1.41248898 L5.76464534,1.41248898 L5.76464534,0.848441917" id="Fill-60"></path>
                                <path d="M10.0311035,2.20491869 C10.0311035,1.7387499 9.66634553,1.36588028 9.16934118,1.36588028 C8.67579426,1.36588028 8.2972066,1.73417079 8.2972066,2.20491869 C8.2972066,2.68040922 8.67579426,3.05327883 9.16934118,3.05327883 C9.66634553,3.05327883 10.0311035,2.67574835 10.0311035,2.20491869 Z M7.64116087,2.2143222 C7.64116087,1.30994984 8.34128873,0.792511474 9.07080467,0.792511474 C9.44939232,0.792511474 9.78476221,0.93699845 9.99652928,1.1747846 L9.99652928,0.848441917 L10.6620829,0.848441917 L10.6620829,3.57537806 L9.99652928,3.57537806 L9.99652928,3.22107016 C9.78476221,3.47749979 9.43988442,3.63139028 9.0604324,3.63139028 C8.36549068,3.63139028 7.64116087,3.10929104 7.64116087,2.2143222 L7.64116087,2.2143222 Z" id="Fill-61"></path>
                            </g>
                        </g>
                    </g>
                </g>
            </g>
        </g>
    </g>
</svg>