<svg xmlns="http://www.w3.org/2000/svg" xmlns:xlink="http://www.w3.org/1999/xlink" viewBox="0 0 1276.44 1089.97"><defs><style>.cls-1{fill:#211e1f;}.cls-2{fill:url(#linear-gradient);}.cls-3{fill:url(#linear-gradient-2);}.cls-4{fill:#c8d6f3;}.cls-5{fill:#5db7e9;}.cls-6{fill:#f442b3;}.cls-7{fill:url(#linear-gradient-3);}.cls-8{fill:#522a68;}.cls-9{fill:url(#linear-gradient-4);}.cls-10,.cls-11,.cls-12,.cls-24,.cls-31,.cls-32,.cls-36,.cls-51,.cls-53{fill:none;}.cls-10{stroke:#543c80;}.cls-10,.cls-11,.cls-12,.cls-24,.cls-51,.cls-53{stroke-linecap:round;}.cls-10,.cls-11,.cls-12{stroke-linejoin:round;}.cls-10,.cls-11,.cls-12,.cls-31,.cls-32,.cls-35{stroke-width:0.39px;}.cls-11{stroke:#251342;}.cls-12{stroke:#402966;}.cls-13{fill:url(#linear-gradient-5);}.cls-14{fill:url(#linear-gradient-6);}.cls-15{fill:url(#radial-gradient);}.cls-16{fill:url(#linear-gradient-7);}.cls-17{opacity:0.29;fill:url(#linear-gradient-8);}.cls-18{mask:url(#mask);}.cls-19{mask:url(#mask-2);}.cls-20{mask:url(#mask-3);}.cls-21{mask:url(#mask-4);}.cls-22{fill:#282661;}.cls-23{fill:#3a60ab;}.cls-24,.cls-36{stroke:#fff;}.cls-24,.cls-31,.cls-32,.cls-35,.cls-36,.cls-38,.cls-51,.cls-53{stroke-miterlimit:10;}.cls-24{stroke-width:6.23px;}.cls-25{fill:url(#linear-gradient-9);}.cls-26{opacity:0.33;fill:url(#linear-gradient-10);}.cls-27{fill:url(#linear-gradient-11);}.cls-28{fill:url(#linear-gradient-12);}.cls-29{fill:url(#linear-gradient-13);}.cls-30{fill:url(#linear-gradient-14);}.cls-31{stroke:#382254;}.cls-32{stroke:#5b3b89;}.cls-33{fill:url(#linear-gradient-15);}.cls-34{fill:url(#radial-gradient-2);}.cls-35,.cls-54{fill:#fff;}.cls-35{stroke:#211e1f;}.cls-36{stroke-width:0.29px;}.cls-37{opacity:0.39;}.cls-38{fill:#61941b;stroke-width:0.64px;stroke:url(#linear-gradient-16);}.cls-39{fill:#1f531f;}.cls-40{fill:url(#linear-gradient-17);}.cls-41{fill:url(#linear-gradient-18);}.cls-42{fill:url(#linear-gradient-19);}.cls-43{fill:url(#linear-gradient-20);}.cls-44{fill:url(#linear-gradient-21);}.cls-45{fill:url(#linear-gradient-22);}.cls-46{fill:url(#linear-gradient-23);}.cls-47{fill:url(#linear-gradient-24);}.cls-48{fill:url(#linear-gradient-25);}.cls-49{fill:url(#linear-gradient-26);}.cls-50{fill:url(#linear-gradient-27);}.cls-51,.cls-53{stroke:#2f7608;}.cls-51{stroke-width:12.86px;}.cls-52{fill:#135108;}.cls-53{stroke-width:12.83px;}.cls-55{fill:url(#linear-gradient-28);}.cls-56{fill:url(#linear-gradient-29);}.cls-57{fill:url(#linear-gradient-30);}.cls-58{fill:url(#linear-gradient-31);}.cls-59{fill:#050505;}.cls-60{fill:url(#radial-gradient-3);}.cls-61{fill:url(#radial-gradient-4);}.cls-62{fill:#f279b6;}.cls-63{filter:url(#luminosity-noclip-4);}.cls-64{filter:url(#luminosity-noclip-3);}.cls-65{filter:url(#luminosity-noclip-2);}.cls-66{filter:url(#luminosity-noclip);}</style><linearGradient id="linear-gradient" y1="679.12" x2="1276.44" y2="679.12" gradientUnits="userSpaceOnUse"><stop offset="0.08" stop-color="#96d8f7"/><stop offset="0.63" stop-color="#173169"/><stop offset="0.86" stop-color="#122651"/><stop offset="0.9" stop-color="#11244d"/></linearGradient><linearGradient id="linear-gradient-2" x1="13.97" y1="633.02" x2="1273.98" y2="633.02" gradientUnits="userSpaceOnUse"><stop offset="0.04" stop-color="#5c80c0"/><stop offset="0.08" stop-color="#587dbe"/><stop offset="0.31" stop-color="#446bb2"/><stop offset="0.46" stop-color="#3c65ae"/><stop offset="0.57" stop-color="#345ba2"/><stop offset="0.78" stop-color="#294c90"/><stop offset="0.93" stop-color="#25478a"/></linearGradient><linearGradient id="linear-gradient-3" x1="741.7" y1="916.58" x2="882.27" y2="1271.84" gradientTransform="matrix(0.82, 0.57, -0.57, 0.82, 667.62, -406.41)" gradientUnits="userSpaceOnUse"><stop offset="0.08" stop-color="#96d8f7"/><stop offset="0.11" stop-color="#90ccee"/><stop offset="0.19" stop-color="#80abd3"/><stop offset="0.27" stop-color="#7493c0"/><stop offset="0.34" stop-color="#6c85b5"/><stop offset="0.41" stop-color="#6a80b1"/><stop offset="0.45" stop-color="#57699b"/><stop offset="0.52" stop-color="#3f4d7f"/><stop offset="0.59" stop-color="#2e396b"/><stop offset="0.66" stop-color="#232d5f"/><stop offset="0.73" stop-color="#20295b"/></linearGradient><linearGradient id="linear-gradient-4" x1="847.97" y1="928.79" x2="907.77" y2="955.02" gradientTransform="matrix(0.82, 0.57, -0.57, 0.82, 667.62, -406.41)" gradientUnits="userSpaceOnUse"><stop offset="0.14" stop-color="#85a2d3"/><stop offset="0.16" stop-color="#7e9bce"/><stop offset="0.25" stop-color="#5b7db6"/><stop offset="0.34" stop-color="#3f65a4"/><stop offset="0.44" stop-color="#2c5497"/><stop offset="0.54" stop-color="#20498f"/><stop offset="0.64" stop-color="#1c468c"/><stop offset="0.9" stop-color="#456db3"/></linearGradient><linearGradient id="linear-gradient-5" x1="964.89" y1="1171.58" x2="704.54" y2="1036.33" gradientTransform="translate(1820.05 141.8) rotate(90)" xlink:href="#linear-gradient-2"/><linearGradient id="linear-gradient-6" x1="948.4" y1="1134.18" x2="842.29" y2="1104.55" gradientTransform="translate(1820.97 141.62) rotate(90)" gradientUnits="userSpaceOnUse"><stop offset="0.01" stop-color="#fff"/><stop offset="0.07" stop-color="#f4f6f8"/><stop offset="0.18" stop-color="#d6dfe4"/><stop offset="0.32" stop-color="#a6bac5"/><stop offset="0.5" stop-color="#64859a"/><stop offset="0.67" stop-color="#184a68"/></linearGradient><radialGradient id="radial-gradient" cx="827.68" cy="1100.92" r="159.66" gradientTransform="matrix(0, 1, -1, 0, 1819.65, 142.32)" gradientUnits="userSpaceOnUse"><stop offset="0.69" stop-color="#c4d2eb"/><stop offset="0.83" stop-color="#b6c7e5"/><stop offset="0.95" stop-color="#b0c2e2"/></radialGradient><linearGradient id="linear-gradient-7" x1="887.81" y1="958.73" x2="837.22" y2="1106.67" gradientTransform="matrix(0.82, 0.57, -0.57, 0.82, 667.62, -406.41)" gradientUnits="userSpaceOnUse"><stop offset="0.06" stop-color="#5a80bf"/><stop offset="0.36" stop-color="#5379bb"/><stop offset="0.92" stop-color="#4b6fb5"/></linearGradient><linearGradient id="linear-gradient-8" x1="714.9" y1="1175.52" x2="680.78" y2="1275.29" gradientTransform="matrix(0.55, 1.01, -1.71, 0.93, 2469.52, -898.23)" gradientUnits="userSpaceOnUse"><stop offset="0.06" stop-color="#fff"/><stop offset="0.93" stop-color="#fff"/></linearGradient><filter id="luminosity-noclip" x="562.59" y="815.3" width="169.89" height="167.5" filterUnits="userSpaceOnUse" color-interpolation-filters="sRGB"><feFlood flood-color="#fff" result="bg"/><feBlend in="SourceGraphic" in2="bg"/></filter><mask id="mask" x="480.82" y="106.94" width="169.89" height="167.5" maskUnits="userSpaceOnUse"><g class="cls-66"><g transform="translate(-81.78 -708.37)"><path class="cls-1" d="M588.09,964.19c-.09,0-1.15,11.18-1,13.25s-6.82,5.36-6.82,5.36l-16.37-6.41L562.59,972l4-5.72,6.33-3.21,3.72-.62Z"/><path class="cls-1" d="M715.37,834.69s11-1.06,12.62-.83,4.49-6.87,4.49-6.87l-4-7-2.94-3.9-5.64-.8-4.69,3s-3.3,2.78-4.28,5.95a16.35,16.35,0,0,0-.3,6.81Z"/></g></g></mask><filter id="luminosity-noclip-2" x="830.41" y="955.22" width="57.79" height="38.12" filterUnits="userSpaceOnUse" color-interpolation-filters="sRGB"><feFlood flood-color="#fff" result="bg"/><feBlend in="SourceGraphic" in2="bg"/></filter><mask id="mask-2" x="748.64" y="246.85" width="57.79" height="38.12" maskUnits="userSpaceOnUse"><g class="cls-65"><g transform="translate(-81.78 -708.37)"><path class="cls-1" d="M850.46,956.7a116,116,0,0,1-1.69,23.22c-2.17,11.1,14.69,13.42,14.69,13.42l15.86-10.19,8.89-10-6.32-12.59s-5.34-4.73-10.83-5l-4.36-.25Z"/></g></g></mask><filter id="luminosity-noclip-3" x="713.41" y="816.68" width="17.81" height="38.51" filterUnits="userSpaceOnUse" color-interpolation-filters="sRGB"><feFlood flood-color="#fff" result="bg"/><feBlend in="SourceGraphic" in2="bg"/></filter><mask id="mask-3" x="631.63" y="108.31" width="17.81" height="38.51" maskUnits="userSpaceOnUse"><g class="cls-64"><g transform="translate(-81.78 -708.37)"><path class="cls-1" d="M717.15,834.51s8.38-.85,10.62-.69c2.47.18,3.44-6.56,3.44-6.56l-2-3.74-2.58-4.38-2.25-2.46-3.28.35-4.3,2.43-2.65,4.74-.71,4.81,2.69,4.82Z"/></g></g></mask><filter id="luminosity-noclip-4" x="709.14" y="1084.89" width="38.8" height="54.47" filterUnits="userSpaceOnUse" color-interpolation-filters="sRGB"><feFlood flood-color="#fff" result="bg"/><feBlend in="SourceGraphic" in2="bg"/></filter><mask id="mask-4" x="627.36" y="376.52" width="38.8" height="54.47" maskUnits="userSpaceOnUse"><g class="cls-63"><g transform="translate(-81.78 -708.37)"><path class="cls-1" d="M740.1,1102.1s-17.64,3.87-26.08,3.84c-6.75,0-4.53,26-4.53,26l18.51,7.46,13.59-6.93,6.34-12.7-1.62-8.6-6.21-9"/></g></g></mask><linearGradient id="linear-gradient-9" x1="854.29" y1="986.15" x2="867.76" y2="986.15" gradientTransform="matrix(0.82, 0.57, -0.57, 0.82, 585.84, -1114.78)" xlink:href="#linear-gradient-8"/><linearGradient id="linear-gradient-10" x1="782.61" y1="992.77" x2="706.07" y2="987.87" gradientTransform="matrix(0.82, 0.57, -0.57, 0.82, 667.62, -406.41)" gradientUnits="userSpaceOnUse"><stop offset="0.04" stop-color="#d8c591"/><stop offset="0.06" stop-color="#d6c092"/><stop offset="0.19" stop-color="#c99197"/><stop offset="0.3" stop-color="#be6f9b"/><stop offset="0.4" stop-color="#b85a9d"/><stop offset="0.46" stop-color="#b6529e"/><stop offset="0.47" stop-color="#b3519c"/><stop offset="0.58" stop-color="#803976"/><stop offset="0.69" stop-color="#582759"/><stop offset="0.78" stop-color="#3c1a43"/><stop offset="0.87" stop-color="#2a1237"/><stop offset="0.93" stop-color="#240f32"/></linearGradient><linearGradient id="linear-gradient-11" x1="750.8" y1="947.58" x2="719.21" y2="978.4" gradientTransform="matrix(0.82, 0.57, -0.57, 0.82, 667.62, -406.41)" gradientUnits="userSpaceOnUse"><stop offset="0.01" stop-color="#4c71b6"/><stop offset="0.41" stop-color="#496cb0"/><stop offset="0.51" stop-color="#3d5b9c"/><stop offset="0.76" stop-color="#243770"/></linearGradient><linearGradient id="linear-gradient-12" x1="708.97" y1="974.82" x2="770.03" y2="938.13" gradientTransform="translate(719.28 -407.2) rotate(37.26)" xlink:href="#linear-gradient-11"/><linearGradient id="linear-gradient-13" x1="744.96" y1="938.03" x2="699.4" y2="973.6" gradientTransform="matrix(0.82, 0.57, -0.57, 0.82, 667.62, -406.41)" gradientUnits="userSpaceOnUse"><stop offset="0.23" stop-color="#5d6e8b"/><stop offset="0.26" stop-color="#667998"/><stop offset="0.35" stop-color="#7e95bb"/><stop offset="0.42" stop-color="#8da7d1"/><stop offset="0.47" stop-color="#92add9"/><stop offset="0.52" stop-color="#7392c4"/><stop offset="0.6" stop-color="#5376af"/><stop offset="0.67" stop-color="#3b619e"/><stop offset="0.75" stop-color="#2a5292"/><stop offset="0.84" stop-color="#1f498b"/><stop offset="0.94" stop-color="#1c4689"/></linearGradient><linearGradient id="linear-gradient-14" x1="715.17" y1="937.27" x2="651.33" y2="975.35" gradientTransform="matrix(0.82, 0.57, -0.57, 0.82, 667.62, -406.41)" gradientUnits="userSpaceOnUse"><stop offset="0.01" stop-color="#4c71b6"/><stop offset="0.23" stop-color="#496cb0"/><stop offset="0.3" stop-color="#3d5b9c"/><stop offset="0.49" stop-color="#243770"/></linearGradient><linearGradient id="linear-gradient-15" x1="722.65" y1="919.18" x2="678.43" y2="952.54" gradientTransform="translate(717.64 -407.2) rotate(37.26)" gradientUnits="userSpaceOnUse"><stop offset="0.01" stop-color="#99c1e6"/><stop offset="0.32" stop-color="#89a5d5"/><stop offset="0.97" stop-color="#496eb3"/></linearGradient><radialGradient id="radial-gradient-2" cx="129.31" cy="766.78" r="0.5" gradientTransform="matrix(0.82, 0.57, -0.57, 0.82, 667.62, -406.41)" gradientUnits="userSpaceOnUse"><stop offset="0.26" stop-color="#214282"/><stop offset="0.37" stop-color="#2c619f"/><stop offset="0.52" stop-color="#3883bf"/><stop offset="0.64" stop-color="#3f98d2"/><stop offset="0.71" stop-color="#42a0d9"/><stop offset="0.71" stop-color="#429fd8"/><stop offset="0.79" stop-color="#3377b4"/><stop offset="0.86" stop-color="#295b9a"/><stop offset="0.92" stop-color="#22498a"/><stop offset="0.97" stop-color="#204384"/></radialGradient><linearGradient id="linear-gradient-16" x1="777.58" y1="503.16" x2="934.21" y2="503.16" gradientUnits="userSpaceOnUse"><stop offset="0.03" stop-color="#8af020"/><stop offset="0.23" stop-color="#82ea1f"/><stop offset="0.53" stop-color="#6eda1c"/><stop offset="0.89" stop-color="#4dc018"/></linearGradient><linearGradient id="linear-gradient-17" x1="859.68" y1="1214.89" x2="1015.66" y2="1214.89" gradientUnits="userSpaceOnUse"><stop offset="0.03" stop-color="#8cc420"/><stop offset="0.9" stop-color="#8cc520"/></linearGradient><linearGradient id="linear-gradient-18" x1="859.68" y1="1207.8" x2="1015.66" y2="1207.8" xlink:href="#linear-gradient-17"/><linearGradient id="linear-gradient-19" x1="859.68" y1="1216.15" x2="1015.66" y2="1216.15" xlink:href="#linear-gradient-17"/><linearGradient id="linear-gradient-20" x1="856.46" y1="1170.04" x2="1024.02" y2="1170.04" xlink:href="#linear-gradient-17"/><linearGradient id="linear-gradient-21" x1="859.68" y1="1186.87" x2="1015.66" y2="1186.87" xlink:href="#linear-gradient-17"/><linearGradient id="linear-gradient-22" x1="859.68" y1="1160.72" x2="1015.66" y2="1160.72" xlink:href="#linear-gradient-17"/><linearGradient id="linear-gradient-23" x1="859.68" y1="1162.47" x2="1015.66" y2="1162.47" xlink:href="#linear-gradient-17"/><linearGradient id="linear-gradient-24" x1="859.68" y1="1192.08" x2="1015.66" y2="1192.08" xlink:href="#linear-gradient-17"/><linearGradient id="linear-gradient-25" x1="859.68" y1="1182.54" x2="1015.66" y2="1182.54" xlink:href="#linear-gradient-17"/><linearGradient id="linear-gradient-26" x1="859.68" y1="1150.55" x2="1015.66" y2="1150.55" xlink:href="#linear-gradient-17"/><linearGradient id="linear-gradient-27" x1="859.68" y1="1213.68" x2="1015.66" y2="1213.68" xlink:href="#linear-gradient-17"/><linearGradient id="linear-gradient-28" x1="1179.19" y1="1368.66" x2="1141.5" y2="1373.52" gradientTransform="translate(430.37 -252.24) rotate(15.8)" gradientUnits="userSpaceOnUse"><stop offset="0.03" stop-color="#fdd4f2"/><stop offset="0.25" stop-color="#fdddf5"/><stop offset="0.62" stop-color="#fff6fc"/><stop offset="0.73" stop-color="#fff"/><stop offset="0.96" stop-color="#fff"/><stop offset="1" stop-color="#fff"/></linearGradient><linearGradient id="linear-gradient-29" x1="1119.28" y1="749.35" x2="975.88" y2="719.99" gradientUnits="userSpaceOnUse"><stop offset="0.03" stop-color="#fdd4f2"/><stop offset="0.17" stop-color="#fee7f8"/><stop offset="0.36" stop-color="#fff9fd"/><stop offset="0.49" stop-color="#fff"/><stop offset="0.93" stop-color="#fff"/><stop offset="1" stop-color="#fff"/></linearGradient><linearGradient id="linear-gradient-30" x1="1049.27" y1="620.18" x2="1050.3" y2="716.78" gradientUnits="userSpaceOnUse"><stop offset="0.08" stop-color="#f293cf"/><stop offset="0.21" stop-color="#f398d1"/><stop offset="0.38" stop-color="#f5a8d8"/><stop offset="0.57" stop-color="#f8c2e4"/><stop offset="0.77" stop-color="#fce6f4"/><stop offset="0.89" stop-color="#fff"/><stop offset="1" stop-color="#fff"/></linearGradient><linearGradient id="linear-gradient-31" x1="1011.91" y1="620.18" x2="1012.95" y2="716.78" xlink:href="#linear-gradient-30"/><radialGradient id="radial-gradient-3" cx="1003.87" cy="726.76" r="2.64" gradientUnits="userSpaceOnUse"><stop offset="0" stop-color="#fdfcf2"/><stop offset="0.78" stop-color="#fff"/><stop offset="1" stop-color="#fff"/></radialGradient><radialGradient id="radial-gradient-4" cx="1035.87" cy="726.39" r="2.64" xlink:href="#radial-gradient-3"/></defs><g id="Layer_3" data-name="Layer 3"><ellipse class="cls-2" cx="638.22" cy="679.12" rx="638.22" ry="410.85"/><ellipse class="cls-3" cx="643.97" cy="633.02" rx="630.01" ry="364.76"/><ellipse class="cls-4" cx="643.97" cy="633.02" rx="614.6" ry="355.84"/><path class="cls-5" d="M723.39,1002.71c-320.78,0-580.82,149.7-580.82,334.37s260,334.36,580.82,334.36,580.82-149.7,580.82-334.36S1044.17,1002.71,723.39,1002.71Zm0,571c-229.35,0-415.28-105.37-415.28-235.36S494,1102.94,723.39,1102.94s415.28,105.38,415.28,235.37S952.74,1573.67,723.39,1573.67Z" transform="translate(-81.78 -708.37)"/><path class="cls-5" d="M733.6,1153.88c-173.06,0-313.35,81.1-313.35,181.14s140.29,181.15,313.35,181.15S1047,1435.07,1047,1335,906.66,1153.88,733.6,1153.88Zm0,281.33c-94.84,0-171.72-44.44-171.72-99.26s76.88-99.27,171.72-99.27,171.71,44.44,171.71,99.27S828.43,1435.21,733.6,1435.21Z" transform="translate(-81.78 -708.37)"/><path class="cls-6" d="M666.49,1427.34C605,1412.24,561.88,1377,561.88,1336c0-54.83,76.88-99.27,171.72-99.27,88.74,0,161.75,38.91,170.77,88.83,42.8-2,108.87-5.75,141.17-7.64-15-92-148.89-164-311.94-164-173.06,0-313.35,81.1-313.35,181.14,0,69.58,67.86,130,167.4,160.33Z" transform="translate(-81.78 -708.37)"/><path class="cls-6" d="M529.75,1546.58c-131.81-39.45-221.64-117.92-221.64-208.27,0-130,185.93-235.37,415.28-235.37s415.28,105.38,415.28,235.37c0,66.57-48.78,126.69-127.18,169.51l153.57,46.4c86.75-58.42,139.15-134.26,139.15-217.14,0-184.67-260-334.37-580.82-334.37s-580.82,149.7-580.82,334.37c0,124.6,118.4,233.27,294,290.79Z" transform="translate(-81.78 -708.37)"/></g><g id="Layer_5" data-name="Layer 5"><path class="cls-7" d="M841.8,1051.08C791.39,1123.57,691.05,1141,617.67,1090s-92-151.15-41.61-223.64a158.72,158.72,0,0,1,113.8-67.21,162.35,162.35,0,0,1,110.33,28.33C873.57,878.46,892.2,978.58,841.8,1051.08Z" transform="translate(-81.78 -708.37)"/><path class="cls-8" d="M868.06,888.45l.26-.16,0,0c2.94-2.72-.86-14.62-8.77-27.16-8.15-12.93-17.58-21.63-21.06-19.44a2.25,2.25,0,0,0-.37.31h0l-11.87,7.94c7.78,12.5,19.82,30.64,30.18,45.58l11.48-6.94.12-.06Z" transform="translate(-81.78 -708.37)"/><path class="cls-9" d="M868.31,888.43l.26-.15,0,0c2.94-2.73-.88-14.66-8.8-27.22-8.17-13-17.62-21.7-21.1-19.5a1.56,1.56,0,0,0-.37.31h0l-12.13,8c10.84,15.27,20.47,30.46,30.26,45.7l11.73-7,.12-.06Z" transform="translate(-81.78 -708.37)"/><line class="cls-10" x1="760.12" y1="133.51" x2="745.47" y2="142.98"/><line class="cls-10" x1="767.22" y1="139.05" x2="750.3" y2="149.98"/><line class="cls-11" x1="775.06" y1="148.68" x2="757.2" y2="160.22"/><line class="cls-11" x1="781.47" y1="159.33" x2="763.86" y2="170.72"/><line class="cls-12" x1="786.74" y1="171.8" x2="770.89" y2="181.31"/><ellipse class="cls-13" cx="719.42" cy="970.12" rx="156.48" ry="146.69" transform="matrix(0.57, -0.82, 0.82, 0.57, -569.56, 298.65)"/><ellipse class="cls-14" cx="720.05" cy="970.9" rx="140.12" ry="129.07" transform="translate(-569.93 299.49) rotate(-55.19)"/><ellipse class="cls-15" cx="718.73" cy="969.99" rx="140.12" ry="127.47" transform="translate(-569.75 298.02) rotate(-55.19)"/><path class="cls-16" d="M722.77,836.64l-4,133.35,66.64,110.9a152.06,152.06,0,0,0,38-38.13c44.18-63.54,33.13-147.63-24.67-187.82-22.74-15.81-49.34-22.47-75.92-20.86Z" transform="translate(-81.78 -708.37)"/><path class="cls-17" d="M803.8,1043.9c-88.28,74.57-82.16-34.29-108-78.61C671.68,923.82,623.64,884,700,853.8c42-16.64,103.11,8,126.45,50.58S836.74,1016.08,803.8,1043.9Z" transform="translate(-81.78 -708.37)"/><g class="cls-18"><rect class="cls-1" x="569.68" y="966.95" width="36.99" height="8.89" rx="2.51" transform="matrix(1, -0.03, 0.03, 1, -115.24, -687.3)"/></g><g class="cls-19"><rect class="cls-1" x="830.47" y="964.68" width="36.99" height="8.89" rx="2.51" transform="translate(-115 -678.22) rotate(-2)"/></g><g class="cls-20"><rect class="cls-1" x="705.53" y="833.4" width="34.57" height="8.89" rx="2.51" transform="translate(1453.21 -622.06) rotate(88)"/></g><g class="cls-21"><rect class="cls-1" x="706.01" y="1099" width="36.99" height="8.89" rx="2.51" transform="translate(1720.28 -367.41) rotate(88)"/></g><path class="cls-22" d="M772.3,1056.89l-48.09-82.18a8.81,8.81,0,1,0-9.08,4.78l48.32,82.58a5.13,5.13,0,0,0,8.85-5.18Z" transform="translate(-81.78 -708.37)"/><path class="cls-23" d="M775,1054.85,727,972.67a8.81,8.81,0,1,0-12.9,3.28,8.73,8.73,0,0,0,3.82,1.49L766.19,1060a5.12,5.12,0,0,0,8.85-5.17Z" transform="translate(-81.78 -708.37)"/><path class="cls-24" d="M746.16,857.47s27.53-.18,51,22.68" transform="translate(-81.78 -708.37)"/><circle class="cls-25" cx="729.85" cy="186.42" r="6.73"/><path class="cls-26" d="M750.18,804l-3.16-.83a63.21,63.21,0,0,1-15.75,7l1.78-2.56-40.59-8.77c-.79.3-5.33,4.43-11.15,9.9a61.15,61.15,0,0,1-12.4-6l-3.72,1a73.85,73.85,0,0,0,14,7c-12.32,11.66-28.69,27.67-28.69,27.67s32.89-21.44,76.19-21.66l2-2.84A79.86,79.86,0,0,0,750.18,804Z" transform="translate(-81.78 -708.37)"/><path d="M642.86,1078.92a1.46,1.46,0,0,0-2,.37l-3.37,4.84,1.27.91,1.11.74,3.37-4.84A1.46,1.46,0,0,0,642.86,1078.92Z" transform="translate(-81.78 -708.37)"/><path d="M603,1028.55a1.45,1.45,0,0,0-2-.58l-5,2.69c.35.91.72,1.81,1.1,2.7l5.26-2.84A1.46,1.46,0,0,0,603,1028.55Z" transform="translate(-81.78 -708.37)"/><path d="M620.25,900a1.46,1.46,0,0,0-.37-2l-4.24-3c-.53.73-1.06,1.46-1.57,2.2l-.11.16,4.27,3A1.45,1.45,0,0,0,620.25,900Z" transform="translate(-81.78 -708.37)"/><path d="M670.78,855.86a1.45,1.45,0,0,0,.7-1.93l-2.37-5c-.86.44-1.72.89-2.57,1.35l2.31,4.92A1.45,1.45,0,0,0,670.78,855.86Z" transform="translate(-81.78 -708.37)"/><path d="M796.26,862.14a1.46,1.46,0,0,0,2-.36l3.31-4.77c-.77-.57-1.56-1.14-2.35-1.7l-3.34,4.81A1.45,1.45,0,0,0,796.26,862.14Z" transform="translate(-81.78 -708.37)"/><path d="M834.21,910.93a1.45,1.45,0,0,0,1.93.7l5.21-2.45c-.36-.9-.72-1.8-1.1-2.69L834.91,909A1.45,1.45,0,0,0,834.21,910.93Z" transform="translate(-81.78 -708.37)"/><path d="M821,1037.15a1.45,1.45,0,0,0-1.65,2.39l4.27,3q.82-1.18,1.62-2.4Z" transform="translate(-81.78 -708.37)"/><path d="M782.8,1074.51a1.45,1.45,0,0,0-.39,2l3.08,4.57c.77-.59,1.53-1.19,2.29-1.79l-3-4.4A1.44,1.44,0,0,0,782.8,1074.51Z" transform="translate(-81.78 -708.37)"/><path class="cls-27" d="M733.11,807.06l-.35-8L691,800.82l.34,8c.12,2.66,9.56,4.42,21.1,3.93S733.22,809.72,733.11,807.06Z" transform="translate(-81.78 -708.37)"/><ellipse class="cls-28" cx="711.87" cy="799.93" rx="20.91" ry="4.83" transform="translate(-115.35 -677.18) rotate(-2.45)"/><path class="cls-29" d="M731.37,798.66l-.52-20.54L692,778.7l.53,21.63c.11,2.47,8.89,4.1,19.61,3.64S731.47,801.14,731.37,798.66Z" transform="translate(-81.78 -708.37)"/><path class="cls-30" d="M746,773.47l-.56-13.15L677,763.25l.57,13.16c.18,4.36,15.66,7.24,34.57,6.43S746.22,777.84,746,773.47Z" transform="translate(-81.78 -708.37)"/><line class="cls-11" x1="599.08" y1="58.41" x2="599.73" y2="71.31"/><line class="cls-11" x1="607.78" y1="60.63" x2="608.43" y2="73.53"/><line class="cls-11" x1="618.35" y1="61.46" x2="619" y2="74.35"/><line class="cls-31" x1="629.28" y1="61.44" x2="629.93" y2="74.33"/><line class="cls-32" x1="641.39" y1="60.46" x2="642.04" y2="73.35"/><line class="cls-32" x1="651.35" y1="58.9" x2="652" y2="71.79"/><line class="cls-32" x1="660.29" y1="55.77" x2="660.94" y2="68.66"/><ellipse class="cls-33" cx="711.23" cy="761.78" rx="34.27" ry="7.91" transform="translate(-113.72 -677.24) rotate(-2.45)"/><path class="cls-34" d="M696.08,805.91h0a48.36,48.36,0,0,1-8.94-3.33,47.67,47.67,0,1,1,45.68-2l.22,4.19a51.27,51.27,0,1,0-37.74,4.82S697.9,807.93,696.08,805.91Z" transform="translate(-81.78 -708.37)"/><path class="cls-35" d="M892.25,896.78" transform="translate(-81.78 -708.37)"/><path class="cls-36" d="M726.68,816.75c.09-.09,69.4-4.32,113.93,55.65" transform="translate(-81.78 -708.37)"/><ellipse class="cls-37" cx="652.88" cy="634.39" rx="64.97" ry="14.24"/></g><g id="Layer_10" data-name="Layer 10"><ellipse class="cls-38" cx="855.9" cy="503.16" rx="77.99" ry="68.57"/><path class="cls-39" d="M1012.6,1230.6a61,61,0,0,0,3.06-19.07c0-37.88-34.91-68.58-78-68.58s-78,30.7-78,68.58a61.14,61.14,0,0,0,2.46,17.15C891.29,1231,962.08,1235.64,1012.6,1230.6Z" transform="translate(-81.78 -708.37)"/><path class="cls-40" d="M886.11,1226.56c-.13-2-.27-3.94-.49-5.91a47.76,47.76,0,0,0-3-13.3c-1.37-3.3-3.78-6.95-7.52-7.78-4.21-.93-8.79,1.86-11.8,4.53a24.86,24.86,0,0,0-3.54,3.83c-.07,1.19-.11,2.39-.11,3.6a61.14,61.14,0,0,0,2.46,17.15c6.32.5,14.61,1.11,24.22,1.71,0-.58-.08-1.16-.11-1.74A20.76,20.76,0,0,1,886.11,1226.56Z" transform="translate(-81.78 -708.37)"/><path class="cls-41" d="M955.51,1208.12c-2.48-7.41-6.19-14.76-12.46-19.67a27.78,27.78,0,0,0-10.79-5.16c-2.76-.75-9.59-.49-10.4-.54a30.57,30.57,0,0,0-5.07,1.1,33.13,33.13,0,0,0-13.14,7.91,48.38,48.38,0,0,0-8.38,12,68.82,68.82,0,0,0-5.77,14,31.25,31.25,0,0,0-1.33,9l.09,1.38a16.77,16.77,0,0,0,.4,2.44v0c20.58,1.25,46.76,2.4,72.75,2.31C959.63,1224.56,958.21,1216.18,955.51,1208.12Z" transform="translate(-81.78 -708.37)"/><path class="cls-42" d="M1002.49,1216.16a1.05,1.05,0,0,1-.26-.44c0-.09-.05-.18-.08-.27-.26-.54-.52-1.08-.8-1.6-2.49-4.8-5.71-9.82-10.45-12.67s-10.19-2-14.6,1.13c-4.94,3.48-8,9.25-9.87,14.85a49.75,49.75,0,0,0-2.64,15.68c15.19-.09,30.24-.62,44-1.8a1,1,0,0,1-.23-.43A74.88,74.88,0,0,0,1002.49,1216.16Z" transform="translate(-81.78 -708.37)"/><path class="cls-43" d="M925,1159.08c-2.47.31-6.58,1.49-9.06,1.64-5.39.34-7.4,3.41-8.64,4.5-2.61,2.3-7.12,8.53-4.18,12.3,1.5,1.93,4.39,2.51,6.68,2.75s29.45,1.07,32.86.78c3.67-.31,13.32,0,16.45-2.11,2.78-1.87.64-6.26-1.39-9.44-1.27-2-3-3.94-4.28-5.67a10.09,10.09,0,0,0-4.24-2.95C948.58,1160.64,938.33,1158.44,925,1159.08Z" transform="translate(-81.78 -708.37)"/><path class="cls-44" d="M892.56,1198.39c4.8-3.85,7.28-12.11,4.07-17.63-2.9-5-9.07-6.87-14.52-7.06a26.78,26.78,0,0,0-10.71,1.7,64.44,64.44,0,0,0-9.22,18.88,4.3,4.3,0,0,0,2.15,1.31,27.2,27.2,0,0,0,5.33.36,18.71,18.71,0,0,1,4.29.44c2,.53,4,1.36,6,2.07C883.88,1199.85,888.94,1201.29,892.56,1198.39Z" transform="translate(-81.78 -708.37)"/><path class="cls-45" d="M878.57,1167.58a26.47,26.47,0,0,0,9.6,3.37,22.15,22.15,0,0,0,9.79-.09,10.43,10.43,0,0,0,4.34-2.9,19.24,19.24,0,0,0,2.64-3.25,1.07,1.07,0,0,1,.22-.44l.12-.12a15.43,15.43,0,0,0,1.15-2.3c1.7-4.42.8-9.06-3.15-11.86a77.6,77.6,0,0,0-25.17,17.29Z" transform="translate(-81.78 -708.37)"/><path class="cls-46" d="M959.49,1166.6c1,6,7.5,10.13,13.4,9.26,4.66-.68,9-3.5,12.44-6.63a25,25,0,0,0,5.88-7.56,80,80,0,0,0-21.58-12.7C965,1153.92,958.16,1159,959.49,1166.6Z" transform="translate(-81.78 -708.37)"/><path class="cls-47" d="M984,1188.28a8.58,8.58,0,0,0-2.83-6.55c-3.88-3.12-10.07-2-14.48-.92a46.15,46.15,0,0,0-14,6,1,1,0,0,1-.57.17,3,3,0,0,0-.6,2,11.17,11.17,0,0,0,1.75,4.77c1.84,3.23,4.12,6.7,7,9a6.52,6.52,0,0,0,4.18,1.7,9.6,9.6,0,0,0,4.4-1.56c1.84-1.06,3.54-2.33,5.36-3.41,1.59-.93,3.22-1.78,4.78-2.77C982.12,1194.75,984.1,1192.13,984,1188.28Z" transform="translate(-81.78 -708.37)"/><path class="cls-48" d="M994.22,1196.5c4.18,2.93,9.43,2.4,13.67-.18a45.13,45.13,0,0,0,4.83-3.49,66.27,66.27,0,0,0-16.16-26.23c-1,.82-2.06,1.63-3.08,2.47a16.75,16.75,0,0,1-5.41,5.28c-.24.29-.47.57-.69.88a9.64,9.64,0,0,0-2.14,5.38,15.64,15.64,0,0,0,1.53,5.6C988.34,1190.08,990.73,1194.07,994.22,1196.5Z" transform="translate(-81.78 -708.37)"/><path class="cls-49" d="M937.67,1143a87.51,87.51,0,0,0-24,3.34c-1.08,1.3-2,3-1.36,4.66s2.67,2.74,4.26,3.49A36.41,36.41,0,0,0,925,1157a67.91,67.91,0,0,1,14.67-.32,40.19,40.19,0,0,1,8.12,1.45,35.19,35.19,0,0,0,13-4.63A27,27,0,0,0,967,1148,87.2,87.2,0,0,0,937.67,1143Z" transform="translate(-81.78 -708.37)"/><path class="cls-50" d="M1013.79,1196.62a8.58,8.58,0,0,0-3.14,2.51c-7.15,8.67-2.75,21,.23,30.49a1,1,0,0,1,0,.51l.18.61,1.52-.14a60.7,60.7,0,0,0,1.19-34Z" transform="translate(-81.78 -708.37)"/><path class="cls-51" d="M856.23,1221.24s86.86,20.57,165.72,2.86" transform="translate(-81.78 -708.37)"/><path class="cls-52" d="M889.3,1225.76s25.58,60,80.9,7.46l-26-23.75-29.25,1.89Z" transform="translate(-81.78 -708.37)"/><path class="cls-53" d="M878.69,1225.37s11.45,4.17,22.85-8.13c14.06-15.18,36.27-13.47,45.53-5.43,16.66,14.45,9.71,16,32.39,19.73" transform="translate(-81.78 -708.37)"/><ellipse cx="912.89" cy="1232.32" rx="7.71" ry="4.94" transform="translate(-505.73 1275.51) rotate(-82.81)"/><ellipse class="cls-54" cx="915.22" cy="1229.53" rx="3.05" ry="1.95" transform="translate(-500.93 1275.37) rotate(-82.81)"/><ellipse cx="935.94" cy="1232.08" rx="5.03" ry="7.86" transform="translate(-148.49 -654.72) rotate(-3.17)"/><ellipse class="cls-54" cx="937.75" cy="1228.86" rx="1.99" ry="3.11" transform="translate(-148.31 -654.62) rotate(-3.17)"/><ellipse class="cls-37" cx="876.97" cy="593.69" rx="41.41" ry="8.81"/></g><g id="Layer_9" data-name="Layer 9"><path class="cls-55" d="M1184.94,1381.26a14.31,14.31,0,0,0-24.9-8.82,10.27,10.27,0,0,0,1.29,20.49,14.34,14.34,0,0,0,9.85,3.43,10.11,10.11,0,0,0,3.38,1.68,10.26,10.26,0,0,0,10.38-16.78Z" transform="translate(-81.78 -708.37)"/><ellipse class="cls-56" cx="1056.02" cy="736.39" rx="73.18" ry="61.67"/><path class="cls-54" d="M1049.55,578.44h0a12,12,0,0,1,12,12V700a0,0,0,0,1,0,0h-23.94a0,0,0,0,1,0,0V590.41A12,12,0,0,1,1049.55,578.44Z"/><path class="cls-57" d="M1049.55,585.57h0a8,8,0,0,1,8,8V700a0,0,0,0,1,0,0h-16a0,0,0,0,1,0,0V593.55a8,8,0,0,1,8-8Z"/><path class="cls-54" d="M1012.2,578.44h0a12,12,0,0,1,12,12V700a0,0,0,0,1,0,0h-23.94a0,0,0,0,1,0,0V590.41A12,12,0,0,1,1012.2,578.44Z"/><path class="cls-58" d="M1012.2,585.57h0a8,8,0,0,1,8,8V700a0,0,0,0,1,0,0h-16a0,0,0,0,1,0,0V593.55A8,8,0,0,1,1012.2,585.57Z"/><ellipse class="cls-59" cx="1001.43" cy="729.58" rx="5.87" ry="6.81"/><ellipse class="cls-60" cx="1003.87" cy="726.76" rx="2.43" ry="2.82"/><ellipse class="cls-59" cx="1033.43" cy="729.21" rx="5.87" ry="6.81"/><ellipse class="cls-61" cx="1035.87" cy="726.39" rx="2.43" ry="2.82"/><ellipse class="cls-59" cx="1015.44" cy="746.77" rx="3.92" ry="2.26"/><ellipse class="cls-62" cx="1117.64" cy="1449.9" rx="8.06" ry="2.56" transform="translate(-463.33 -309.07) rotate(-17.35)"/><ellipse class="cls-62" cx="1080.34" cy="1449.9" rx="2.56" ry="8.06" transform="translate(-706.18 1344.19) rotate(-72.78)"/><ellipse class="cls-37" cx="1062.16" cy="815.8" rx="41.41" ry="8.81"/></g><g id="Layer_8" data-name="Layer 8"><path class="cls-54" d="M656.62,1424.7c1.67.48,21.51,5.22,21.51,5.22L445.36,1630.71l-18.23-6Z" transform="translate(-81.78 -708.37)"/></g></svg>