<?xml version="1.0" encoding="UTF-8"?>
<svg width="166px" height="166px" viewBox="0 0 166 166" version="1.1" xmlns="http://www.w3.org/2000/svg" xmlns:xlink="http://www.w3.org/1999/xlink">
    <title></title>
    <g id="REPORT---AP" stroke="none" stroke-width="1" fill="none" fill-rule="evenodd">
        <g id="F-01.4-Menu-WeeklyProgressReport" transform="translate(-531.000000, -263.000000)" fill-rule="nonzero">
            <g id="Templates/Menu/Desktop" transform="translate(33.000000, -4.000000)">
                <g id="Card/Task/Desktop" transform="translate(211.178125, 243.263889)">
                    <g id="Smarkmockups" transform="translate(287.236719, 24.000000)">
                        <g id="Plan_A" transform="translate(0.000000, 19.250000)">
                            <g id="Layer2_0_MEMBER_0_FILL" transform="translate(0.302895, 0.172508)" fill="#30ABE5">
                                <path d="M0.968435894,0.55295994 L0.968435894,12.0268787 L101.409073,12.0268787 C102.930901,12.0268787 104.314381,11.4739187 105.421165,10.3679989 C106.527948,9.26207899 107.08134,7.87967914 107.08134,6.35903931 C107.08134,4.83839947 106.527948,3.45599962 105.421165,2.35007974 C104.314381,1.24415986 102.930901,0.691199925 101.409073,0.691199925 L0.968435894,0.691199925 L0.968435894,0.55295994 Z" id="Path"></path>
                            </g>
                            <g id="Layer2_0_MEMBER_1_FILL" transform="translate(0.302895, 19.526106)" fill="#77CDF5">
                                <path d="M0.968435894,0.414719955 L0.968435894,11.8886387 L102.239161,11.8886387 C103.760989,11.8886387 105.144469,11.3356788 106.251252,10.2297589 C107.358036,9.12383901 107.911428,7.74143916 107.911428,6.22079932 C107.911428,4.70015949 107.358036,3.31775964 106.251252,2.21183976 C105.144469,1.10591988 103.760989,0.55295994 102.239161,0.55295994 L0.968435894,0.55295994 L0.968435894,0.414719955 Z" id="Path"></path>
                            </g>
                            <g id="Layer2_0_MEMBER_2_FILL" transform="translate(39.040330, 0.172508)" fill="#30ABE5">
                                <path d="M63.916769,0.55295994 C62.2565932,0.55295994 61.0114613,1.10591988 59.9046775,2.21183976 C58.7978936,3.31775964 58.1061537,4.5619195 58.1061537,6.22079932 C58.1061537,7.74143916 58.6595456,9.12383901 59.7663295,10.2297589 C60.8731134,11.3356788 62.1182452,11.8886387 63.778421,11.8886387 C77.3365236,12.1651187 89.0961023,17.1417581 98.9188092,26.8185571 C108.879864,36.771836 113.860392,48.7987147 113.860392,62.7609532 C113.860392,76.7231916 108.879864,88.7500703 98.9188092,98.8415892 C88.9577543,108.794868 76.9214796,113.771508 62.8099852,113.771508 C48.8368387,113.771508 36.800564,108.794868 26.8395091,98.8415892 C17.2934981,89.3030303 12.3129707,77.9673515 11.8979267,64.8345529 C11.7595787,63.1756731 11.2061868,61.9315132 10.0994029,60.8255934 C8.99261902,59.7196735 7.60913917,59.3049535 6.08731134,59.3049535 C4.42713552,59.4431935 3.18200365,59.9961535 2.07521977,61.1020733 C0.968435894,62.2079932 0.55339194,63.5903931 0.55339194,65.2492729 C1.10678388,81.2851111 7.19409522,95.2473496 18.8153259,106.859508 L18.8153259,106.859508 C30.9899486,119.024627 45.654835,125.107186 62.8099852,125.107186 C79.9651353,125.107186 94.6300217,119.024627 106.942992,106.859508 C119.117615,94.5561497 125.204926,79.9027113 125.204926,62.7609532 C125.204926,45.619195 119.117615,30.9657566 106.942992,18.662398 L106.942992,18.662398 C94.9067177,6.91199925 80.6568752,0.82943991 63.916769,0.55295994 Z" id="Path"></path>
                            </g>
                            <g id="Layer2_0_MEMBER_3_FILL" transform="translate(95.763004, 19.526106)" fill="#77CDF5">
                                <path d="M2.49026373,2.07359977 C1.38347985,3.17951965 0.830087909,4.5619195 0.830087909,6.08255934 C0.830087909,7.60319917 1.38347985,8.98559902 2.49026373,10.0915189 C3.59704761,11.1974388 4.98052746,11.7503987 6.50235529,11.7503987 C15.2182783,11.8886387 22.5507215,14.9299184 28.7763809,21.0124777 C35.0020402,27.233277 38.1840438,34.6982362 38.1840438,43.5455953 C38.1840438,52.2547143 35.0020402,59.7196735 28.7763809,66.0787128 L28.7763809,66.0787128 C22.5507215,72.2995121 15.2182783,75.3407918 6.50235529,75.4790318 C4.84217947,75.4790318 3.59704761,76.0319917 2.49026373,77.1379116 C1.38347985,78.2438315 0.830087909,79.6262313 0.830087909,81.1468712 C0.830087909,82.667511 1.38347985,84.0499108 2.49026373,85.1558307 C3.59704761,86.2617506 4.98052746,86.8147105 6.50235529,86.8147105 C18.261934,86.6764705 28.3613369,82.529271 36.800564,74.0966319 C45.2397911,65.6639928 49.5285786,55.434234 49.5285786,43.5455953 C49.5285786,31.6569565 45.2397911,21.4271977 36.800564,12.9945586 L36.800564,12.9945586 C28.3613369,4.70015949 18.261934,0.414719955 6.50235529,0.414719955 C4.84217947,0.414719955 3.59704761,0.967679894 2.49026373,2.07359977 Z" id="Path"></path>
                            </g>
                            <g id="Layer2_0_MEMBER_4_FILL" transform="translate(77.777766, 38.879704)" fill="#B6E8FF">
                                <path d="M41.2276995,7.18847922 C36.662216,2.7647997 31.2666446,0.414719955 25.1793333,0.27647997 C23.6575054,0.27647997 22.2740256,0.691199925 21.1672417,1.7971198 C20.0604578,2.90303968 19.3687179,4.14719955 19.3687179,5.80607937 C19.3687179,7.3267192 19.7837618,8.70911905 20.8905457,9.81503893 C21.9973296,10.9209588 23.3808095,11.6121587 24.9026373,11.6121587 C28.0846409,11.7503987 30.9899486,12.9945586 33.3418644,15.2063983 C35.8321281,17.6947181 37.07726,20.5977578 37.07726,24.1919974 C37.07726,27.647997 35.8321281,30.6892767 33.3418644,33.1775964 C30.8516006,35.6659161 27.807945,36.910076 24.3492453,36.910076 C20.8905457,36.910076 17.985238,35.6659161 15.4949743,33.1775964 C13.4197545,31.1039966 12.1746227,28.6156769 11.8979267,25.7126372 C11.6212307,24.1919974 10.9294908,22.9478375 9.68435894,21.9801576 C8.43922708,21.0124777 7.05574723,20.5977578 5.39557141,20.7359977 C3.73539559,20.8742377 2.62861171,21.7036776 1.66017582,22.9478375 C0.691739925,24.1919974 0.27669597,25.5743972 0.415043955,27.095037 C0.968435894,32.4863965 3.32035164,37.1865559 7.3324432,41.1955155 C12.0362747,45.895675 17.7085421,48.2457547 24.3492453,48.2457547 C30.9899486,48.2457547 36.662216,45.895675 41.3660475,41.1955155 C46.069879,36.495356 48.4217947,30.6892767 48.4217947,24.1919974 C48.4217947,17.6947181 45.931531,12.0268787 41.2276995,7.18847922 L41.2276995,7.18847922 Z" id="Path"></path>
                            </g>
                            <g id="Layer2_0_MEMBER_5_FILL" transform="translate(0.302895, 38.879704)" fill="#B6E8FF">
                                <path d="M0.968435894,0.138239985 L0.968435894,11.6121587 L101.132377,11.6121587 C102.654205,11.6121587 104.037685,11.0591988 105.144469,9.95327891 C106.251252,8.84735904 106.804644,7.46495919 106.804644,5.94431935 C106.804644,4.42367952 106.251252,3.04127967 105.144469,1.93535979 C104.037685,0.82943991 102.654205,0.27647997 101.132377,0.27647997 L0.968435894,0.27647997 L0.968435894,0.138239985 Z" id="Path"></path>
                            </g>
                        </g>
                    </g>
                </g>
            </g>
        </g>
    </g>
</svg>