<?xml version="1.0" encoding="UTF-8"?>
<svg width="478px" height="355px" viewBox="0 0 478 355" version="1.1" xmlns="http://www.w3.org/2000/svg" xmlns:xlink="http://www.w3.org/1999/xlink">
    <title>4FB0CE6E-DC56-46B4-AAC4-F2313AD1D192</title>
    <defs>
        <filter id="filter-1">
            <feColorMatrix in="SourceGraphic" type="matrix" values="0 0 0 0 0.000000 0 0 0 0 0.643408 0 0 0 0 0.967271 0 0 0 1.000000 0"></feColorMatrix>
        </filter>
        <filter id="filter-2">
            <feColorMatrix in="SourceGraphic" type="matrix" values="0 0 0 0 0.000000 0 0 0 0 0.643408 0 0 0 0 0.967271 0 0 0 1.000000 0"></feColorMatrix>
        </filter>
        <filter id="filter-3">
            <feColorMatrix in="SourceGraphic" type="matrix" values="0 0 0 0 0.000000 0 0 0 0 0.643408 0 0 0 0 0.967271 0 0 0 1.000000 0"></feColorMatrix>
        </filter>
        <filter id="filter-4">
            <feColorMatrix in="SourceGraphic" type="matrix" values="0 0 0 0 0.000000 0 0 0 0 0.643408 0 0 0 0 0.967271 0 0 0 1.000000 0"></feColorMatrix>
        </filter>
        <filter id="filter-5">
            <feColorMatrix in="SourceGraphic" type="matrix" values="0 0 0 0 0.101961 0 0 0 0 0.686275 0 0 0 0 0.980392 0 0 0 1.000000 0"></feColorMatrix>
        </filter>
        <filter id="filter-6">
            <feColorMatrix in="SourceGraphic" type="matrix" values="0 0 0 0 0.000000 0 0 0 0 0.643408 0 0 0 0 0.967271 0 0 0 1.000000 0"></feColorMatrix>
        </filter>
        <filter id="filter-7">
            <feColorMatrix in="SourceGraphic" type="matrix" values="0 0 0 0 0.101961 0 0 0 0 0.686275 0 0 0 0 0.980392 0 0 0 1.000000 0"></feColorMatrix>
        </filter>
        <filter id="filter-8">
            <feColorMatrix in="SourceGraphic" type="matrix" values="0 0 0 0 0.101961 0 0 0 0 0.686275 0 0 0 0 0.980392 0 0 0 1.000000 0"></feColorMatrix>
        </filter>
        <filter id="filter-9">
            <feColorMatrix in="SourceGraphic" type="matrix" values="0 0 0 0 0.000000 0 0 0 0 0.643408 0 0 0 0 0.967271 0 0 0 1.000000 0"></feColorMatrix>
        </filter>
        <filter id="filter-10">
            <feColorMatrix in="SourceGraphic" type="matrix" values="0 0 0 0 0.000000 0 0 0 0 0.643408 0 0 0 0 0.967271 0 0 0 1.000000 0"></feColorMatrix>
        </filter>
        <filter id="filter-11">
            <feColorMatrix in="SourceGraphic" type="matrix" values="0 0 0 0 0.101961 0 0 0 0 0.686275 0 0 0 0 0.980392 0 0 0 1.000000 0"></feColorMatrix>
        </filter>
        <filter id="filter-12">
            <feColorMatrix in="SourceGraphic" type="matrix" values="0 0 0 0 0.000000 0 0 0 0 0.643408 0 0 0 0 0.967271 0 0 0 1.000000 0"></feColorMatrix>
        </filter>
        <filter id="filter-13">
            <feColorMatrix in="SourceGraphic" type="matrix" values="0 0 0 0 0.101961 0 0 0 0 0.686275 0 0 0 0 0.980392 0 0 0 1.000000 0"></feColorMatrix>
        </filter>
        <filter id="filter-14">
            <feColorMatrix in="SourceGraphic" type="matrix" values="0 0 0 0 0.000000 0 0 0 0 0.643408 0 0 0 0 0.967271 0 0 0 1.000000 0"></feColorMatrix>
        </filter>
        <filter id="filter-15">
            <feColorMatrix in="SourceGraphic" type="matrix" values="0 0 0 0 1.000000 0 0 0 0 1.000000 0 0 0 0 1.000000 0 0 0 1.000000 0"></feColorMatrix>
        </filter>
        <filter id="filter-16">
            <feColorMatrix in="SourceGraphic" type="matrix" values="0 0 0 0 0.000000 0 0 0 0 0.643408 0 0 0 0 0.967271 0 0 0 1.000000 0"></feColorMatrix>
        </filter>
    </defs>
    <g id="REPORT---AP" stroke="none" stroke-width="1" fill="none" fill-rule="evenodd">
        <g id="F-01.4-Menu-WeeklyProgressReport-WithPlan" transform="translate(-244.000000, -239.000000)">
            <g id="Templates/Menu/Desktop" transform="translate(33.000000, -4.000000)">
                <g id="Card/Task/Desktop" transform="translate(211.178125, 243.263889)">
                    <g id="Group" transform="translate(0.012500, 0.000000)">
                        <rect id="Mask" fill-opacity="0" fill="#1268B3" x="0" y="0" width="477.372656" height="354" rx="20"></rect>
                        <g filter="url(#filter-1)" id="Elements/Graphics/Style3/Bonus/Black" opacity="0.5">
                            <g transform="translate(182.159766, 128.333333)" id="StarSmall/Empty" stroke="#FFFFFF" stroke-width="0.6">
                                <path d="M22.1216883,13.5438957 C22.6377962,13.425 22.7684973,13.4680672 22.8784734,13.5437911 C22.9918055,13.6218258 23.0830909,13.7343005 23.1388521,13.8696624 L23.1388521,13.8696624 L25.3475402,19.2641531 L30.9400981,19.7940485 C31.0779206,19.8070101 31.2048829,19.8625075 31.3081656,19.9485907 C31.4145586,20.0372662 31.4958478,20.1582059 31.5396222,20.2994989 C31.58424,20.4429505 31.5858359,20.5930664 31.549064,20.7321453 C31.5127575,20.8694643 31.4389739,20.9961631 31.3313125,21.0944575 L31.3313125,21.0944575 L27.1133547,24.9537504 L28.3562395,30.6667809 C28.3881741,30.8139557 28.3768585,30.9638314 28.3280395,31.0990757 C28.2801608,31.2317149 28.1961035,31.3503764 28.0808996,31.4375013 C27.9692071,31.5219887 27.8391675,31.5681332 27.7073399,31.5741337 C27.5760989,31.5801074 27.4434365,31.546246 27.3253101,31.4720927 L27.3253101,31.4720927 L22.5001047,28.4617041 L17.6730319,31.4721504 C17.5643198,31.5400295 17.4433027,31.575 17.3210728,31.575 C17.178924,31.575 17.0383365,31.5279284 16.9180686,31.4372561 C16.8030453,31.3504942 16.7190949,31.2320793 16.6712645,31.099574 C16.6224268,30.9642778 16.6111353,30.8142027 16.6430188,30.6669399 L16.6430188,30.6669399 L17.8859339,24.9537697 L13.6674419,21.0932197 C13.5603221,20.9956858 13.4869463,20.8693337 13.4508334,20.7324373 C13.4141143,20.5932428 13.4158196,20.4429744 13.4604813,20.2996519 C13.5044442,20.1585719 13.5857256,20.0376693 13.692031,19.9489779 C13.7952874,19.8628305 13.9221544,19.8072692 14.0593988,19.7940292 L14.0593988,19.7940292 L19.6525975,19.2641571 L21.8611488,13.8709241 C21.9171455,13.7346707 22.008382,13.6220233 22.1216883,13.5438957 Z" id="Star"></path>
                            </g>
                        </g>
                        <g filter="url(#filter-2)" id="Elements/Graphics/Style3/Flag/Black" opacity="0.5">
                            <g transform="translate(92.085156, 125.000000)" id="Flag" fill="#2E82EE">
                                <path d="M23.717295,8.63050333 C23.57424,8.572845 20.1770733,7.24296333 17.5338283,8.64452833 C15.4394283,9.75624333 11.7630083,8.92222333 10.8233333,8.68099333 L10.8233333,7.96166667 C10.8233333,7.789315 10.6840183,7.65 10.5116667,7.65 C10.339315,7.65 10.2,7.789315 10.2,7.96166667 L10.2,8.89666667 C10.2,8.90103 10.2021817,8.90477 10.2024933,8.90913333 C10.2024933,8.91287333 10.2,8.91599 10.2,8.91973 L10.2,17.935 L10.2,18.26973 L10.2,26.0383333 C10.2,26.210685 10.339315,26.35 10.5116667,26.35 C10.6840183,26.35 10.8233333,26.210685 10.8233333,26.0383333 L10.8233333,18.6752083 C11.5317517,18.8519233 13.0757483,19.1838483 14.6780267,19.1838483 C15.786625,19.1838483 16.9220267,19.0245867 17.8261717,18.5452433 C20.211045,17.279565 23.453625,18.54649 23.4860383,18.5592683 C23.5823433,18.597915 23.6908033,18.5860717 23.7765117,18.5274783 C23.8619083,18.46982 23.9133333,18.3732033 23.9133333,18.26973 L23.9133333,8.91973 C23.9133333,8.79225833 23.8357283,8.67787667 23.717295,8.63050333 Z" id="Shape"></path>
                            </g>
                        </g>
                        <g filter="url(#filter-3)" id="Elements/Graphics/Style3/Hare/Colour" opacity="0.5">
                            <g transform="translate(155.131969, 47.333333)" id="Hare/Colour" fill-rule="nonzero">
                                <g transform="translate(2.320000, 0.000000)">
                                    <path d="M4.98019777,19.9985657 C4.83682617,19.8441314 4.76970703,19.6292954 4.79859375,19.4164505 C4.84914554,19.0443039 4.60721925,18.6973801 4.2516577,18.6325531 C4.04860106,18.5953827 3.87315675,18.4626313 3.77630128,18.2727966 C3.60722902,17.9406967 3.21577148,17.8081665 2.89164554,17.9732208 C2.70621825,18.0676956 2.48935547,18.0676956 2.30392824,17.9732208 C1.97980223,17.8081665 1.58834475,17.9406967 1.41927243,18.2727966 C1.32241697,18.4626313 1.14697266,18.5953827 0.943703627,18.6325531 C0.588354465,18.6973801 0.346428236,19.0443039 0.396979967,19.4164505 C0.425866686,19.6292954 0.358959934,19.8441314 0.215376004,19.9985657 C-0.035471205,20.2687149 -0.035471205,20.6975022 0.215376004,20.9676514 C0.358747545,21.1223068 0.425866686,21.3369217 0.396979967,21.5499878 C0.346428236,21.9221344 0.588354465,22.268837 0.943703627,22.3338852 C1.14697266,22.3710556 1.32241697,22.5038071 1.41927243,22.6936416 C1.58834475,23.0257416 1.97980223,23.1582718 2.30392824,22.9932175 C2.48935547,22.8987427 2.70621825,22.8987427 2.89164554,22.9932175 C3.21577148,23.1582718 3.60722902,23.0257416 3.77630128,22.6936416 C3.87315675,22.5038071 4.04838867,22.3710556 4.2516577,22.3338852 C4.60721925,22.268837 4.84914554,21.9221344 4.79859375,21.5499878 C4.76970703,21.337143 4.83661378,21.1223068 4.98019777,20.9676514 C5.23104492,20.6975022 5.23104492,20.2687149 4.98019777,19.9985657 Z" id="Path" fill="#E9E9E9"></path>
                                    <path d="M4.2516577,22.3338852 C4.60721925,22.268837 4.84914554,21.9221344 4.79859375,21.5499878 C4.76970703,21.337143 4.83661378,21.1223068 4.98019777,20.9676514 C5.23104492,20.6975022 5.23104492,20.2687149 4.98019777,19.9985657 C4.83682617,19.8441314 4.76970703,19.6292954 4.79859375,19.4164505 C4.84404788,19.0819168 4.65267333,18.7684021 4.35531005,18.6613159 C4.22999269,18.7732696 4.10786133,18.890976 3.98997801,19.013771 C2.93433839,20.1133957 2.29075926,21.5263138 2.13889163,23.0503006 C2.19496585,23.0387955 2.25040285,23.0204315 2.30392824,22.9932175 C2.48935547,22.8987427 2.70621825,22.8987427 2.89164554,22.9932175 C3.21577148,23.1582718 3.60722902,23.0257416 3.77630128,22.6936416 C3.87315675,22.5038071 4.04860106,22.3710556 4.2516577,22.3338852 L4.2516577,22.3338852 Z" id="Path" fill="#D3D2D8"></path>
                                    <path d="M14.4321021,29 C15.153208,29 15.5988281,28.1853485 15.2360449,27.5361938 C14.9718164,27.0635986 14.569314,26.6593704 13.9650293,26.6593704 C15.9478052,25.4201355 16.6281299,23.0151215 16.6281299,23.0151215 L12.992439,21.29953 C12.1468652,19.6390305 10.4705859,18.507988 8.54048583,18.507988 C5.76141356,18.5077667 3.50400145,20.8592377 3.50400145,23.7541046 C3.50421384,26.6511841 5.75886473,29 8.54027344,29 L14.4321021,29 Z" id="Path" fill="#A6ADB9"></path>
                                    <path d="M12.035354,2.76211548 C13.8955737,7.42213437 14.5302319,11.577919 13.4525025,12.0447617 C12.3749854,12.5116043 9.99331786,9.11228179 8.13309816,4.45270537 C6.2728784,-0.207092285 10.1751343,-1.89768218 12.035354,2.76211548 Z" id="Path" fill="#A6ADB9"></path>
                                    <path d="M19.3691821,2.76211548 C17.50875,7.42213437 16.8743042,11.577919 17.9518213,12.0447617 C19.0295508,12.5116043 21.4110059,9.11228179 23.271438,4.45270537 C25.1316577,-0.207092285 21.2294018,-1.89768218 19.3691821,2.76211548 L19.3691821,2.76211548 Z" id="Path" fill="#A6ADB9"></path>
                                    <path d="M13.4527148,12.0447617 C14.0880103,11.7695236 14.1279419,10.2112427 13.6723388,8.02349854 C12.4799121,8.25824736 11.4427515,8.71336368 10.5687158,9.38508603 C11.7335302,11.2557754 12.8186939,12.3193359 13.4527148,12.0447617 Z" id="Path" fill="#8895A2"></path>
                                    <path d="M17.9518213,12.0447617 C18.5856299,12.3193359 19.6710059,11.2557754 20.8356079,9.38508603 C19.9617847,8.71336368 18.924624,8.25824736 17.7319849,8.02349854 C17.2765943,10.2112427 17.3165259,11.7695236 17.9518213,12.0447617 Z" id="Path" fill="#8895A2"></path>
                                    <path d="M12.992439,21.2993088 C12.1468652,19.6390305 10.4705859,18.507988 8.54048583,18.5077667 C8.27944336,18.5077667 8.02307372,18.5285645 7.77286378,18.5686111 C7.7964404,19.4356995 7.95213136,20.8837967 8.97569822,22.1367493 C10.2743262,23.7262268 12.4746021,24.4990616 15.7022681,24.4990616 C15.7923267,24.4990616 15.8813232,24.4981766 15.9696826,24.4968491 C16.4388794,23.6833038 16.6281299,23.0151215 16.6281299,23.0151215 L12.992439,21.2993088 Z" id="Path" fill="#8895A2"></path>
                                    <path d="M15.7022681,23.040123 C9.32000246,23.040123 9.16898438,19.7357178 9.16898438,18.1621704 C9.16898438,16.588623 8.60250731,9.58642578 15.7022681,9.58642578 C22.8020288,9.58642578 22.2355518,16.588623 22.2355518,18.1621704 C22.2355518,19.7357178 22.0845337,23.040123 15.7022681,23.040123 L15.7022681,23.040123 Z" id="Path" fill="#A6ADB9"></path>
                                    <g id="Group" transform="translate(12.016875, 15.972656)" fill="#424952">
                                        <path d="M0.421618639,0.0327453613 C0.189462891,0.0327453613 0.00148683,0.228774996 0.00148683,0.470382719 L0.00148683,1.08568574 C0.00148683,1.32729341 0.189462891,1.52332304 0.421618639,1.52332304 C0.653774441,1.52332304 0.841750502,1.32729341 0.841750502,1.08568574 L0.841750502,0.470382719 C0.841750502,0.228774996 0.653774441,0.0327453613 0.421618639,0.0327453613 L0.421618639,0.0327453613 Z" id="Path"></path>
                                        <path d="M6.94895508,0.0327453613 C6.71701172,0.0327453613 6.52882322,0.228774996 6.52882322,0.470382719 L6.52882322,1.08568574 C6.52882322,1.32729341 6.71701172,1.52332304 6.94895508,1.52332304 C7.18111083,1.52332304 7.36908694,1.32729341 7.36908694,1.08568574 L7.36908694,0.470382719 C7.36908694,0.228774996 7.18111083,0.0327453613 6.94895508,0.0327453613 L6.94895508,0.0327453613 Z" id="Path"></path>
                                        <path d="M2.90991211,1.29587554 C3.14567868,1.40163423 3.40842042,1.46070859 3.68539308,1.46070859 C3.96236574,1.46070859 4.22510742,1.40163423 4.460874,1.29587554 C4.70832277,1.18480684 4.63270753,0.800491305 4.36338136,0.800491305 L3.0074048,0.800491305 C2.73786618,0.800491305 2.66246339,1.18480684 2.90991211,1.29587554 L2.90991211,1.29587554 Z" id="Path"></path>
                                        <path d="M5.40606445,1.91073608 C5.23125731,1.75165556 4.9659668,1.77024077 4.8132495,1.95233154 C4.71575681,2.06871036 4.56771239,2.13530733 4.40756105,2.13530733 C4.24740965,2.13530733 4.09936523,2.06848906 4.00166016,1.9521103 C3.92328371,1.85852051 3.80433839,1.80298613 3.68539308,1.80298613 C3.56559816,1.80298613 3.44792723,1.85829927 3.36891356,1.95233154 C3.27142087,2.06871036 3.12337645,2.13530733 2.96322511,2.13530733 C2.80307372,2.13530733 2.6550293,2.06848906 2.55732422,1.9521103 C2.40460692,1.77024077 2.13910402,1.75165556 1.96450926,1.91073608 C1.78991456,2.0698166 1.77186038,2.34638213 1.92479007,2.52825166 C2.18200926,2.83490752 2.56051027,3.01080322 2.96322511,3.01080322 C3.22278075,3.01080322 3.47192868,2.93734741 3.68539308,2.80326846 C3.89885742,2.93734741 4.14800536,3.01080322 4.40756105,3.01080322 C4.81027589,3.01080322 5.18877684,2.83490752 5.44599609,2.52825166 C5.59871339,2.34616089 5.5808716,2.06959531 5.40606445,1.91073608 L5.40606445,1.91073608 Z" id="Path"></path>
                                    </g>
                                    <path d="M11.1655664,28.9995575 C11.1630176,28.9995575 11.1606811,29 11.1581323,29 L12.4166162,29 C12.5774048,28.595108 12.5491552,28.1410981 12.3325049,27.7532425 C11.9675977,27.1005478 11.5213403,26.8199997 11.1258472,26.7144623 C11.110979,26.1697388 10.9920337,25.2165833 10.3973071,24.5337982 C9.94658934,24.0160675 9.32170167,23.7534409 8.54027344,23.7534409 C8.30833008,23.7534409 8.12014163,23.9494705 8.12014163,24.1910782 C8.12014163,24.4329071 8.30833008,24.6287155 8.54027344,24.6287155 C9.08083739,24.6287155 9.48397706,24.7891235 9.77284425,25.1192322 C10.3826513,25.8161773 10.281123,27.0428009 10.2802734,27.0540848 C10.2688037,27.1768799 10.3074609,27.2992325 10.3871118,27.3906098 C10.4667627,27.481987 10.5797607,27.5342026 10.6982813,27.5342026 C11.0612768,27.5342026 11.3582153,27.7499237 11.6063013,28.1935349 C11.7008203,28.3625717 11.7014575,28.5641327 11.6084253,28.7329483 C11.5642456,28.8130417 11.4323438,28.9995575 11.1655664,28.9995575 L11.1655664,28.9995575 Z" id="Path" fill="#8895A2"></path>
                                </g>
                            </g>
                        </g>
                        <g filter="url(#filter-4)" id="Elements/Graphics/Style3/Next/Black" opacity="0.5">
                            <g transform="translate(175.151172, 269.000000)">
                                <g id="Group" transform="translate(1.423077, 4.269231)">
                                    <g id="layers" transform="translate(5.692308, 3.557692)" filter="url(#filter-5)">
                                        <g transform="translate(1.897436, 0.000000)">
                                            <polygon id="Path" fill="#FFFFFF" points="19.4487184 5.53991475 9.72435921 11.1135534 0 5.53991475 9.72435921 0"></polygon>
                                            <polygon id="Path" fill="#FFFFFF" points="9.48717949 12.7452865 3.59868813 9.48717949 0 11.4661538 9.48717949 16.7155066 18.974359 11.4661538 15.3756708 9.48717949"></polygon>
                                            <polygon id="Path" fill="#FFFFFF" points="9.48717949 18.4375942 3.59868813 15.1794872 0 17.1584614 9.48717949 22.4078143 18.974359 17.1584614 15.3756708 15.1794872"></polygon>
                                        </g>
                                    </g>
                                </g>
                            </g>
                        </g>
                        <g filter="url(#filter-6)" id="Elements/Graphics/Style3/Next/Black" opacity="0.5">
                            <g transform="translate(352.286719, 243.000000)" id="play-button-1" filter="url(#filter-7)">
                                <g transform="translate(15.000000, 14.727273) rotate(-10.000000) translate(-15.000000, -14.727273) translate(3.000000, 3.000000)">
                                    <path d="M18.3831169,11.5246225 L9.03311695,17.7547361 C8.96129195,17.8025003 8.87756695,17.8270055 8.79384195,17.8270055 C8.72584195,17.8270055 8.65741695,17.8112225 8.59536695,17.7788259 C8.45596695,17.7069719 8.36884195,17.565756 8.36884195,17.4116646 L8.36884195,4.95143728 C8.36884195,4.7973458 8.45596695,4.65612989 8.59536695,4.58427592 C8.73476695,4.5120066 8.90306695,4.52197478 9.03354195,4.60836569 L18.3835419,10.8384793 C18.4991419,10.9157327 18.5688419,11.0440731 18.5688419,11.1815509 C18.5688419,11.3190288 18.4991419,11.4473691 18.3831169,11.5246225 Z" id="Shape" fill="#FFFFFF" fill-rule="nonzero" transform="translate(13.468842, 11.181572) rotate(-7.000000) translate(-13.468842, -11.181572) "></path>
                                    <ellipse id="Oval" stroke="#FFFFFF" stroke-width="2" fill-rule="nonzero" cx="12" cy="11.7272727" rx="12" ry="11.7272727"></ellipse>
                                </g>
                            </g>
                        </g>
                        <g id="Elements/Graphics/Style3/Next/Black" opacity="0.5" transform="translate(287.237500, 172.000000)">
                            <g id="Redo/Colour" filter="url(#filter-8)">
                                <g>
                                    <circle id="Oval" cx="17" cy="17" r="17"></circle>
                                    <path d="M25.7236841,16.9254385 C25.2709472,16.9254385 24.9035086,17.2920569 24.9035086,17.7456139 C24.9035086,21.8161446 21.5916402,25.1271928 17.5219298,25.1271928 C13.4522193,25.1271928 10.1403509,21.8161446 10.1403509,17.7456139 C10.1403509,13.6750833 13.4522193,10.3640351 17.5219298,10.3640351 C19.982456,10.3640351 22.1780657,11.5992193 23.5182323,13.6447368 L18.3421052,13.6447368 C17.8893683,13.6447368 17.5219298,14.0113552 17.5219298,14.4649122 C17.5219298,14.9184692 17.8893683,15.2850877 18.3421052,15.2850877 L24.9035086,15.2850877 C24.905149,15.2850877 24.9059692,15.2842675 24.9076095,15.2842675 C24.9650218,15.2842675 25.0224341,15.2621227 25.0798464,15.2498201 C25.1290569,15.2383377 25.1823683,15.2375175 25.2282981,15.2178333 C25.2299385,15.2170131 25.2315788,15.2178333 25.232399,15.2170131 C25.2602849,15.2047105 25.2783288,15.1817455 25.3037542,15.1669824 C25.3701885,15.1292543 25.4366227,15.0907061 25.4899341,15.0365745 C25.5260218,14.9988464 25.5473464,14.9520964 25.5752323,14.9094473 C25.6047586,14.8643377 25.6408463,14.8241491 25.6613507,14.7732982 C25.6892367,14.7044034 25.6966183,14.6297675 25.7056402,14.5559517 C25.7089209,14.5239649 25.7236841,14.4968991 25.7236841,14.4649122 L25.7236841,14.4558903 L25.7236841,14.4542499 L25.7236841,7.90350877 C25.7236841,7.44995175 25.3562455,7.08333333 24.9035086,7.08333333 C24.4507718,7.08333333 24.0833332,7.44995175 24.0833332,7.90350877 L24.0833332,11.6763158 C22.4314999,9.81287717 20.0939999,8.7236842 17.5219298,8.7236842 C12.5475658,8.7236842 8.5,12.77125 8.5,17.7456139 C8.5,22.7199779 12.5475658,26.7675437 17.5219298,26.7675437 C22.4962937,26.7675437 26.5438595,22.7199779 26.5438595,17.7456139 C26.5438595,17.2920569 26.1764209,16.9254385 25.7236841,16.9254385 Z" id="Path" fill="#FFFFFF" transform="translate(17.521930, 16.925439) rotate(100.000000) translate(-17.521930, -16.925439) "></path>
                                </g>
                            </g>
                        </g>
                        <g filter="url(#filter-9)" id="Elements/Graphics/Style3/Next/Black" opacity="0.5">
                            <g transform="translate(74.071094, 278.000000)" id="Selected/Colour" fill="#FFFFFF" stroke="#FFFFFF" stroke-width="0.4">
                                <g id="Done/Colour" transform="translate(7.083333, 8.500000)">
                                    <path d="M18.1352404,1.43192308 L8.71433894,12.0303606 L3.03875,7.49001202 C2.77516827,7.27853365 2.3883774,7.32205529 2.17751202,7.58563702 C1.96603365,7.85044471 2.00894231,8.23600962 2.27313702,8.44748798 L8.40294471,13.3513341 C8.51573317,13.4414423 8.65120192,13.4855769 8.78605769,13.4855769 C8.95524038,13.4855769 9.1238101,13.4156971 9.24456731,13.2796154 L19.0522596,2.24596154 C19.2772236,1.99341346 19.2545433,1.60539663 19.0013822,1.38104567 C18.7476082,1.15546875 18.3608173,1.17814904 18.1352404,1.43192308 Z" id="Path"></path>
                                </g>
                            </g>
                        </g>
                        <g filter="url(#filter-10)" id="Elements/Graphics/Style3/Next/Black" opacity="0.5">
                            <g transform="translate(251.207812, 251.000000)" id="paper-plane-1" filter="url(#filter-11)">
                                <g transform="translate(2.250000, 6.750000)">
                                    <path d="M25.1024508,0.358109508 C25.1024508,0.357287213 25.1020328,0.35605377 25.1020328,0.355231475 C25.092418,0.303838033 25.0744426,0.256967213 25.0468525,0.214207869 C25.0460164,0.211740984 25.0451803,0.211329836 25.0447623,0.210507541 C25.0184262,0.170215082 24.9866557,0.135678689 24.9477787,0.106487213 C24.9398361,0.10032 24.9314754,0.095797377 24.9231148,0.0900413115 C24.8917623,0.069895082 24.8595738,0.0530380328 24.8232049,0.0419370492 C24.8002131,0.0341252459 24.7768033,0.0316583607 24.7529754,0.0279580328 C24.734582,0.0254911475 24.7182787,0.0172038046 24.6990492,0.0172038046 L24.697377,0.0172038046 C24.6810738,0.0168570492 24.6697869,0.0185016393 24.658082,0.019735082 C24.6543197,0.0201462295 24.6509754,0.019735082 24.6472131,0.0201462295 C24.6434508,0.020557377 24.6392705,0.0201462295 24.6350902,0.0209685246 C24.6238033,0.0226131148 24.6125164,0.0242577049 24.6016475,0.0267245902 L0.333590164,4.95926164 C0.160942623,4.99462033 0.0288442623,5.13235475 0.00418032787,5.30421443 C-0.0204836066,5.4760741 0.0668852459,5.64464459 0.222811475,5.72564066 L7.17553279,9.33263803 L8.39493443,15.9878833 C8.39409836,15.992817 8.39535246,15.998162 8.39493443,16.0030957 C8.3907541,16.0359875 8.39033607,16.068057 8.39451639,16.1005377 C8.39660656,16.1169836 8.39869672,16.1326072 8.40287705,16.148642 C8.4124918,16.187701 8.42795902,16.2242931 8.44886066,16.2588295 C8.45304098,16.2654079 8.45304098,16.2732197 8.45763934,16.279798 C8.45889344,16.2818538 8.46098361,16.2834984 8.46265574,16.285143 C8.46809016,16.2929548 8.47561475,16.299122 8.48188525,16.3069338 C8.50153279,16.3307803 8.52201639,16.3525711 8.54542623,16.3710728 C8.54918852,16.3739508 8.55169672,16.3784734 8.55587705,16.3813515 C8.56214754,16.3858741 8.5692541,16.3871075 8.57552459,16.391219 C8.60102459,16.4076649 8.62736066,16.4212328 8.65536885,16.4319226 C8.66665574,16.4360341 8.67710656,16.4409679 8.68881148,16.444257 C8.72643443,16.4549469 8.76531148,16.4623475 8.80460656,16.4623475 C8.80753279,16.4623475 8.80920492,16.4615252 8.81087705,16.4615252 C8.81798361,16.4619364 8.82509016,16.4623475 8.83219672,16.4623475 C8.9479918,16.4623475 9.0525,16.4113652 9.12983607,16.3328361 L13.7612213,13.2961003 L18.6104016,16.3961528 C18.678959,16.4397344 18.7583852,16.4623475 18.8382295,16.4623475 C18.882123,16.4623475 18.9268525,16.455358 18.9699098,16.441379 C19.0903033,16.4019089 19.1864508,16.3106341 19.2303443,16.1930459 L25.0560492,0.641390164 C25.0949262,0.579306885 25.117082,0.505711475 25.117082,0.427182295 C25.1166639,0.403335738 25.1066311,0.381544918 25.1024508,0.358109508 Z M20.259541,3.12225443 L10.2296803,10.3757193 C10.213377,10.3876426 10.200418,10.4024439 10.1862049,10.416423 C10.1807705,10.4213567 10.1753361,10.4254682 10.1707377,10.4308131 C10.161959,10.4402695 10.1540164,10.4497259 10.1460738,10.4600046 C10.1385492,10.4698721 10.1326967,10.4801508 10.1260082,10.4904295 C10.110541,10.5150984 10.097582,10.5405895 10.0875492,10.5677252 C10.085459,10.5730702 10.0821148,10.5771816 10.0804426,10.5825266 C10.0800246,10.5841711 10.0783525,10.5849934 10.0779344,10.586638 L8.92834426,14.2610636 L8.01745082,9.28987869 L20.259541,3.12225443 Z M9.57629508,15.0521115 L10.7158525,11.350139 L12.4899836,12.4844951 L12.9974754,12.8088905 L11.2735082,13.9391351 L9.57629508,15.0521115 Z" id="Shape" fill="#FFFFFF" fill-rule="nonzero"></path>
                                </g>
                            </g>
                        </g>
                        <g filter="url(#filter-12)" id="Elements/Graphics/Style3/Next/Black" opacity="0.5">
                            <g transform="translate(227.189062, 77.000000)" id="edit" filter="url(#filter-13)">
                                <g transform="translate(3.000000, 3.000000)">
                                    <path d="M0.224142857,22.257 L0.0111428571,23.1505714 C0.00428571429,23.1792857 0.00257142857,23.2084286 0.00171428571,23.2371429 C0.00171428571,23.2431429 0,23.2482857 0,23.2538571 C0.000428571429,23.3027143 0.0111428571,23.3502857 0.0278571429,23.3961429 C0.0317142857,23.4068571 0.036,23.4162857 0.0407142857,23.4265714 C0.0617142857,23.4724286 0.0878571429,23.5165714 0.124714286,23.5534286 C0.165428571,23.5941429 0.213428571,23.6254286 0.265285714,23.6468571 C0.317142857,23.6682857 0.372428571,23.679 0.427714286,23.679 C0.460714286,23.679 0.494142857,23.6751429 0.526714286,23.6674286 L1.42071429,23.4544286 L0.224142857,22.257 Z" id="Path" fill="#FFFFFF" fill-rule="nonzero"></path>
                                    <path d="M22.5505714,1.12757143 C21.0462857,-0.375857143 18.5995714,-0.375857143 17.0952857,1.12757143 L1.64014286,16.5827143 C1.63285714,16.59 1.62857143,16.599 1.62214286,16.6067143 C1.61314286,16.617 1.60542857,16.6281429 1.59728571,16.6392857 C1.57457143,16.671 1.557,16.7048571 1.54371429,16.7417143 C1.53985714,16.7528571 1.53428571,16.7627143 1.53128571,16.7738571 C1.53,16.7781429 1.52742857,16.7824286 1.52614286,16.7867143 L0.456857143,21.2781429 L2.4,23.2208571 L6.89142857,22.1515714 C6.903,22.149 6.91328571,22.1425714 6.92442857,22.1387143 C6.939,22.134 6.95271429,22.1284286 6.96685714,22.122 C6.99771429,22.1078571 7.02642857,22.0902857 7.053,22.0692857 C7.06328571,22.0611429 7.074,22.0551429 7.08385714,22.0461429 C7.08728571,22.0427143 7.09157143,22.041 7.095,22.0375714 L22.5505714,6.582 C24.0544286,5.07857143 24.0544286,2.63142857 22.5505714,1.12757143 Z M7.353,20.568 L7.50471429,19.2038571 L17.0952857,9.61285714 C17.2628571,9.44528571 17.2628571,9.17442857 17.0952857,9.00685714 C16.9277143,8.83928571 16.6568571,8.83928571 16.4892857,9.00685714 L6.89871429,18.5978571 L4.85314286,18.825 L5.08028571,16.7794286 L14.6717143,7.18885714 C14.8392857,7.02128571 14.8392857,6.75042857 14.6717143,6.58285714 C14.5041429,6.41528571 14.2332857,6.41528571 14.0657143,6.58285714 L4.47428571,16.1734286 L3.11014286,16.3251429 L14.9742857,4.461 L19.2171429,8.70385714 L7.353,20.568 Z M19.8231429,8.09785714 L15.5802857,3.855 L16.1862857,3.249 L20.4291429,7.49185714 L19.8231429,8.09785714 Z M21.0351429,6.88585714 L16.7922857,2.643 L17.3987143,2.03657143 L21.6415714,6.27942857 L21.0351429,6.88585714 Z" id="Shape" fill="#FFFFFF" fill-rule="nonzero"></path>
                                    <path d="M16.45125,24 C16.50125,24 16.540625,23.985625 16.569375,23.956875 C16.598125,23.928125 16.625,23.89625 16.65,23.86125 L16.65,23.86125 L17.535,22.5675 C17.57,22.51 17.59625,22.445 17.61375,22.3725 L17.61375,22.3725 L18.57,23.86125 C18.59,23.89625 18.615625,23.928125 18.646875,23.956875 C18.678125,23.985625 18.72125,24 18.77625,24 L18.77625,24 L19.4175,24 L18.08625,22.01625 L19.365,20.20125 L18.75,20.20125 C18.7125,20.20125 18.68125,20.211875 18.65625,20.233125 C18.63125,20.254375 18.60625,20.2825 18.58125,20.3175 L18.58125,20.3175 L17.76375,21.5175 C17.72125,21.5875 17.68875,21.6575 17.66625,21.7275 L17.66625,21.7275 L16.73625,20.3025 C16.71625,20.27 16.69375,20.245 16.66875,20.2275 C16.64375,20.21 16.60375,20.20125 16.54875,20.20125 L16.54875,20.20125 L15.9075,20.20125 L17.18625,22.05375 L15.855,24 L16.45125,24 Z M21.75375,24.06 C22.00125,24.06 22.233125,24.023125 22.449375,23.949375 C22.665625,23.875625 22.855,23.769375 23.0175,23.630625 C23.18,23.491875 23.308125,23.32375 23.401875,23.12625 C23.495625,22.92875 23.5425,22.70625 23.5425,22.45875 C23.5425,22.13125 23.454375,21.85875 23.278125,21.64125 C23.101875,21.42375 22.83875,21.26875 22.48875,21.17625 C22.63125,21.13375 22.76,21.0775 22.875,21.0075 C22.99,20.9375 23.088125,20.851875 23.169375,20.750625 C23.250625,20.649375 23.313125,20.531875 23.356875,20.398125 C23.400625,20.264375 23.4225,20.1125 23.4225,19.9425 C23.4225,19.735 23.38375,19.54625 23.30625,19.37625 C23.22875,19.20625 23.120625,19.06125 22.981875,18.94125 C22.843125,18.82125 22.6775,18.72875 22.485,18.66375 C22.2925,18.59875 22.0825,18.56625 21.855,18.56625 C21.625,18.56625 21.410625,18.599375 21.211875,18.665625 C21.013125,18.731875 20.836875,18.82875 20.683125,18.95625 C20.529375,19.08375 20.4025,19.241875 20.3025,19.430625 C20.2025,19.619375 20.135,19.83625 20.1,20.08125 L20.1,20.08125 L20.44875,20.14125 C20.46625,20.14375 20.481875,20.145625 20.495625,20.146875 C20.509375,20.148125 20.5225,20.14875 20.535,20.14875 C20.5975,20.14875 20.64875,20.1325 20.68875,20.1 C20.72875,20.0675 20.75875,20.015 20.77875,19.9425 C20.80875,19.8275 20.85375,19.720625 20.91375,19.621875 C20.97375,19.523125 21.048125,19.438125 21.136875,19.366875 C21.225625,19.295625 21.3275,19.24 21.4425,19.2 C21.5575,19.16 21.6825,19.14 21.8175,19.14 C21.9525,19.14 22.078125,19.15875 22.194375,19.19625 C22.310625,19.23375 22.41125,19.29 22.49625,19.365 C22.58125,19.44 22.648125,19.535 22.696875,19.65 C22.745625,19.765 22.77,19.9 22.77,20.055 C22.77,20.195 22.746875,20.3225 22.700625,20.4375 C22.654375,20.5525 22.58,20.65125 22.4775,20.73375 C22.375,20.81625 22.243125,20.88125 22.081875,20.92875 C21.920625,20.97625 21.72625,21.00125 21.49875,21.00375 L21.49875,21.00375 L21.49875,21.4875 C21.77875,21.4875 22.008125,21.5125 22.186875,21.5625 C22.365625,21.6125 22.505625,21.68125 22.606875,21.76875 C22.708125,21.85625 22.778125,21.96 22.816875,22.08 C22.855625,22.2 22.875,22.3325 22.875,22.4775 C22.875,22.595 22.85125,22.71375 22.80375,22.83375 C22.75625,22.95375 22.685625,23.0625 22.591875,23.16 C22.498125,23.2575 22.380625,23.336875 22.239375,23.398125 C22.098125,23.459375 21.93375,23.49 21.74625,23.49 C21.55875,23.49 21.401875,23.4625 21.275625,23.4075 C21.149375,23.3525 21.04375,23.285 20.95875,23.205 C20.87375,23.125 20.80625,23.039375 20.75625,22.948125 C20.70625,22.856875 20.66375,22.775 20.62875,22.7025 C20.62375,22.69 20.61875,22.678125 20.61375,22.666875 C20.60875,22.655625 20.60375,22.645 20.59875,22.635 C20.57875,22.59 20.549375,22.556875 20.510625,22.535625 C20.471875,22.514375 20.4275,22.50375 20.3775,22.50375 C20.325,22.50375 20.2725,22.515 20.22,22.5375 L20.22,22.5375 L19.935,22.6575 C19.9975,22.8575 20.07375,23.043125 20.16375,23.214375 C20.25375,23.385625 20.36875,23.53375 20.50875,23.65875 C20.64875,23.78375 20.82,23.881875 21.0225,23.953125 C21.225,24.024375 21.46875,24.06 21.75375,24.06 Z" id="x3" fill="#FFFFFF" fill-rule="nonzero"></path>
                                </g>
                            </g>
                        </g>
                        <g filter="url(#filter-14)" id="Elements/Graphics/Style3/Time/Black" opacity="0.5">
                            <g transform="translate(92.083203, 68.333333)" id="Time" filter="url(#filter-15)">
                                <g>
                                    <path d="M14.5,0 C6.5047,0 0,6.5047 0,14.5 C0,22.4953 6.5047,29 14.5,29 C22.4953,29 29,22.4953 29,14.5 C29,6.5047 22.4953,0 14.5,0 Z M14.5,28.0333333 C7.03781667,28.0333333 0.966666667,21.9621833 0.966666667,14.5 C0.966666667,7.03781667 7.03781667,0.966666667 14.5,0.966666667 C21.9621833,0.966666667 28.0333333,7.03781667 28.0333333,14.5 C28.0333333,21.9621833 21.9621833,28.0333333 14.5,28.0333333 Z" id="Shape" fill="#FFFFFF" fill-rule="nonzero"></path>
                                    <path d="M14.9833333,12.5768167 L14.9833333,7.67485 C14.9833333,7.40756667 14.7668,7.19151667 14.5,7.19151667 C14.2332,7.19151667 14.0166667,7.40756667 14.0166667,7.67485 L14.0166667,12.5768167 C13.3404833,12.75275 12.8112333,13.282 12.6353,13.9581833 L9.18333333,13.9581833 C8.91653333,13.9581833 8.7,14.1742333 8.7,14.4415167 C8.7,14.7088 8.91653333,14.92485 9.18333333,14.92485 L12.6353,14.92485 C12.85135,15.7561833 13.6019667,16.37485 14.5,16.37485 C15.5662333,16.37485 16.4333333,15.50775 16.4333333,14.4415167 C16.4333333,13.543 15.8146667,12.7928667 14.9833333,12.5768167 Z M14.5,15.4081833 C13.9668833,15.4081833 13.5333333,14.9746333 13.5333333,14.4415167 C13.5333333,13.9084 13.9668833,13.47485 14.5,13.47485 C15.0331167,13.47485 15.4666667,13.9084 15.4666667,14.4415167 C15.4666667,14.9746333 15.0331167,15.4081833 14.5,15.4081833 Z" id="Shape" fill="#FFFFFF" fill-rule="nonzero"></path>
                                    <path d="M14.5,4.77485 C14.7668,4.77485 14.9833333,4.5588 14.9833333,4.29151667 L14.9833333,3.80818333 C14.9833333,3.5409 14.7668,3.32485 14.5,3.32485 C14.2332,3.32485 14.0166667,3.5409 14.0166667,3.80818333 L14.0166667,4.29151667 C14.0166667,4.5588 14.2332,4.77485 14.5,4.77485 Z" id="Path" fill="#FFFFFF" fill-rule="nonzero"></path>
                                    <path d="M14.5,24.1081833 C14.2332,24.1081833 14.0166667,24.3242333 14.0166667,24.5915167 L14.0166667,25.07485 C14.0166667,25.3421333 14.2332,25.5581833 14.5,25.5581833 C14.7668,25.5581833 14.9833333,25.3421333 14.9833333,25.07485 L14.9833333,24.5915167 C14.9833333,24.3242333 14.7668,24.1081833 14.5,24.1081833 Z" id="Path" fill="#FFFFFF" fill-rule="nonzero"></path>
                                    <path d="M25.1333333,13.9581833 L24.65,13.9581833 C24.3832,13.9581833 24.1666667,14.1742333 24.1666667,14.4415167 C24.1666667,14.7088 24.3832,14.92485 24.65,14.92485 L25.1333333,14.92485 C25.4001333,14.92485 25.6166667,14.7088 25.6166667,14.4415167 C25.6166667,14.1742333 25.4001333,13.9581833 25.1333333,13.9581833 Z" id="Path" fill="#FFFFFF" fill-rule="nonzero"></path>
                                    <path d="M4.35,13.9581833 L3.86666667,13.9581833 C3.59986667,13.9581833 3.38333333,14.1742333 3.38333333,14.4415167 C3.38333333,14.7088 3.59986667,14.92485 3.86666667,14.92485 L4.35,14.92485 C4.6168,14.92485 4.83333333,14.7088 4.83333333,14.4415167 C4.83333333,14.1742333 4.6168,13.9581833 4.35,13.9581833 Z" id="Path" fill="#FFFFFF" fill-rule="nonzero"></path>
                                    <path d="M21.6770167,6.58058333 L21.3353,6.9223 C21.1463167,7.11128333 21.1463167,7.41675 21.3353,7.60573333 C21.42955,7.69998333 21.5532833,7.74735 21.6770167,7.74735 C21.80075,7.74735 21.9244833,7.69998333 22.0187333,7.60573333 L22.36045,7.26401667 C22.5494333,7.07503333 22.5494333,6.76956667 22.36045,6.58058333 C22.1714667,6.3916 21.866,6.39208333 21.6770167,6.58058333 Z" id="Path" fill="#FFFFFF" fill-rule="nonzero"></path>
                                    <path d="M6.98126667,21.2768167 L6.63955,21.6185333 C6.45056667,21.8075167 6.45056667,22.1129833 6.63955,22.3019667 C6.7338,22.3962167 6.85753333,22.4435833 6.98126667,22.4435833 C7.105,22.4435833 7.22873333,22.3962167 7.32298333,22.3019667 L7.6647,21.96025 C7.85368333,21.7712667 7.85368333,21.4658 7.6647,21.2768167 C7.47571667,21.0878333 7.16976667,21.0883167 6.98126667,21.2768167 Z" id="Path" fill="#FFFFFF" fill-rule="nonzero"></path>
                                    <path d="M22.0187333,21.2768167 C21.82975,21.0878333 21.5242833,21.0878333 21.3353,21.2768167 C21.1463167,21.4658 21.1463167,21.7712667 21.3353,21.96025 L21.6770167,22.3019667 C21.7712667,22.3962167 21.895,22.4435833 22.0187333,22.4435833 C22.1424667,22.4435833 22.2662,22.3962167 22.36045,22.3019667 C22.5494333,22.1129833 22.5494333,21.8075167 22.36045,21.6185333 L22.0187333,21.2768167 Z" id="Path" fill="#FFFFFF" fill-rule="nonzero"></path>
                                    <path d="M7.32298333,6.58058333 C7.134,6.3916 6.82853333,6.3916 6.63955,6.58058333 C6.45056667,6.76956667 6.45056667,7.07503333 6.63955,7.26401667 L6.98126667,7.60573333 C7.07551667,7.69998333 7.19925,7.74735 7.32298333,7.74735 C7.44671667,7.74735 7.57045,7.69998333 7.6647,7.60573333 C7.85368333,7.41675 7.85368333,7.11128333 7.6647,6.9223 L7.32298333,6.58058333 Z" id="Path" fill="#FFFFFF" fill-rule="nonzero"></path>
                                </g>
                            </g>
                        </g>
                        <g filter="url(#filter-16)" id="Tortoise" opacity="0.5">
                            <g transform="translate(31.035469, 113.000000)" id="Tortoise/Colour" fill-rule="nonzero">
                                <g transform="translate(14.400000, 14.941406) scale(-1, 1) translate(-14.400000, -14.941406) translate(0.000000, 7.500000)">
                                    <path d="M26.9634375,8.41628906 L26.58735,7.46496094 C26.448975,7.11480469 26.0874,6.92167969 25.7335875,7.00886719 C23.3056125,7.60757813 14.4016875,10.4840625 9.636975,6.33527344 C9.4338,6.15832031 9.12735,6.31898438 9.146025,6.59414063 C9.2199375,7.67976563 9.7187625,9.68566406 12.3118875,10.3826953 C15.757425,11.3089453 23.2174125,10.3644141 26.6589,9.11800781 C26.9350875,9.01792969 27.0748125,8.69800781 26.9634375,8.41628906 Z" id="Path" fill="#9E512B"></path>
                                    <g id="Group" transform="translate(9.562500, 0.292969)" fill="#7D3D1A">
                                        <path d="M9.8406,8.07058594 L9.4257,4.73121094 C9.376425,4.33476563 9.0523125,4.03792969 8.6684625,4.03792969 L7.03935,4.03792969 C6.6556125,4.03792969 6.3313875,4.33476563 6.2821125,4.73121094 L5.8518,8.19515625 C7.1886375,8.29804688 8.551125,8.22796875 9.8406,8.07058594 L9.8406,8.07058594 Z" id="Path"></path>
                                        <path d="M9.4258125,4.73132813 L9.8404875,8.06929688 C11.2158,7.90148438 12.508425,7.63664063 13.5968625,7.37730469 L12.4646625,4.06734375 C12.33585,3.69070313 11.9586375,3.47226563 11.5835625,3.55699219 L9.9914625,3.91664063 C9.6699375,3.98929688 9.436275,4.26550781 9.39645,4.59386719 C9.4098375,4.63804687 9.41985,4.68386719 9.4258125,4.73132813 L9.4258125,4.73132813 Z" id="Path"></path>
                                        <path d="M13.88475,2.57765625 L12.8318625,3.11320313 C12.527325,3.268125 12.3624,3.60972656 12.4124625,3.94839844 C12.4324875,3.98613281 12.450375,4.02550781 12.4646625,4.06734375 L13.5968625,7.37730469 C14.711175,7.111875 15.61275,6.85359375 16.1712,6.71601563 C16.2534375,6.69574219 16.3359,6.69199219 16.4161125,6.70054688 C15.9276375,5.46023438 15.1261875,3.88511719 13.88475,2.57765625 L13.88475,2.57765625 Z" id="Path"></path>
                                        <path d="M6.282225,4.73132813 C6.2893125,4.67390625 6.3028125,4.61894531 6.320925,4.56632813 C6.27165,4.25027344 6.0422625,3.98730469 5.7297375,3.91664063 L4.1376375,3.55699219 C3.7625625,3.47226563 3.38535,3.69070313 3.2565375,4.06734375 L2.13975,7.33242188 C3.293325,7.83421875 4.560525,8.094375 5.8521375,8.19386719 L6.282225,4.73132813 Z" id="Path"></path>
                                        <path d="M3.2565375,4.06722656 C3.270825,4.02539062 3.2886,3.98601563 3.3087375,3.94828125 C3.3588,3.60960937 3.193875,3.26800781 2.8893375,3.11308594 L2.051775,2.68710937 C1.0798875,3.75597656 0.42525,4.97460937 0.000225,5.99449219 C0.025875,6.00632812 0.0509625,6.02179687 0.074475,6.04230469 C0.699525,6.58652344 1.396575,7.00804687 2.1400875,7.33136719 L3.2565375,4.06722656 Z" id="Path"></path>
                                        <path d="M11.5835625,3.556875 C11.9170125,3.48152344 12.2517,3.64617188 12.4124625,3.94828125 C12.3624,3.60960938 12.527325,3.26800781 12.8318625,3.11308594 L13.884525,2.57765625 C12.82185,1.46003906 11.8180125,0.94125 11.32875,0.735234375 C10.732725,0.484335938 9.7972875,0.47390625 9.7972875,1.13789063 C9.7972875,1.73097656 9.9549,2.85082031 10.2096,3.86730469 L11.5835625,3.556875 Z" id="Path"></path>
                                        <path d="M4.827375,0.67921875 C3.69585,1.16390625 2.7838125,1.88285156 2.052,2.68722656 L2.8893375,3.11308594 C3.193875,3.26800781 3.3588,3.60960938 3.3087375,3.94828125 C3.4695,3.64617187 3.8041875,3.48152344 4.1376375,3.556875 L5.444325,3.85207031 C5.696775,2.8396875 5.8527,1.72804688 5.8527,1.13789063 C5.8525875,0.632109375 5.2853625,0.483046875 4.827375,0.67921875 L4.827375,0.67921875 Z" id="Path"></path>
                                        <path d="M5.8525875,1.13789062 C5.8525875,1.72804687 5.6966625,2.8396875 5.4442125,3.85207031 L5.729625,3.91652344 C6.04215,3.98707031 6.2715375,4.25003906 6.3208125,4.56621094 C6.427125,4.2553125 6.7111875,4.03792969 7.03935,4.03792969 L8.6684625,4.03792969 C9.0064125,4.03792969 9.2977875,4.26808594 9.3963375,4.59363281 C9.4361625,4.26539062 9.6699375,3.9890625 9.99135,3.91640625 L10.2094875,3.86707031 C9.9547875,2.85058594 9.797175,1.73074219 9.797175,1.13765625 C9.797175,0.90375 9.914625,0.754921875 10.091025,0.669492187 C8.20305,-0.560976563 6.4220625,0.200742187 5.6088,0.693515625 C5.7549375,0.781757812 5.8525875,0.928828125 5.8525875,1.13789062 Z" id="Path"></path>
                                    </g>
                                    <path d="M21.746475,10.2740625 C21.7470375,10.2739453 21.7474875,10.2739453 21.74805,10.2738281 C18.3783375,10.7989453 14.5553625,10.9729688 12.3462,10.3910156 C12.1114125,10.5663281 11.90025,10.7917969 11.770425,11.0764453 C12.3370875,12.1604297 13.5703125,12.6126563 14.640525,12.196875 C14.9270625,12.0855469 15.25455,12.1467188 15.4884375,12.3519141 C16.356825,13.1133984 17.6218875,13.1135156 18.4903875,12.3519141 C18.7243875,12.1467188 19.0517625,12.0855469 19.3383,12.196875 C20.245725,12.5494922 21.2842125,12.2834766 21.9308625,11.4966797 C21.6498375,11.1207422 21.501675,10.7033203 21.746475,10.2740625 L21.746475,10.2740625 Z" id="Path" fill="#F9BD55"></path>
                                    <path d="M15.15825,10.7409375 L14.9787,12.1435547 C15.1630875,12.1535156 15.34365,12.225 15.488325,12.3519141 C16.3567125,13.1133984 17.621775,13.1135156 18.490275,12.3519141 C18.623475,12.2350781 18.787275,12.1667578 18.9563625,12.1485937 L18.7219125,10.6344141 C17.482725,10.7364844 16.263225,10.7782031 15.15825,10.7409375 L15.15825,10.7409375 Z" id="Path" fill="#F9BD55"></path>
                                    <path d="M10.1376,9.10300781 C9.3958875,8.26171875 9.1911375,7.25671875 9.146025,6.59402344 C9.144675,6.57457031 9.14535,6.55582031 9.14715,6.53753906 C8.9362125,6.49019531 8.719425,6.41660156 8.5113,6.30199219 C8.5113,6.30199219 7.8096375,5.93660156 7.4534625,4.75136719 C7.0774875,3.50015625 5.86845,2.79492188 4.96305,2.67363281 C4.866975,2.66074219 4.7754,2.62582031 4.6938375,2.57132813 C4.2314625,2.26136719 3.6311625,2.28503906 3.189375,2.63449219 C3.121425,2.68828125 3.0432375,2.72742188 2.9599875,2.74722656 C1.9771875,2.97996094 0.8899875,3.66890625 0.287325,5.62300781 C0.2597625,5.7121875 0.3263625,5.80324219 0.4161375,5.795625 C0.5911875,5.78085938 0.9439875,5.79785156 1.0864125,5.86511719 C1.0864125,5.86511719 1.739025,7.5103125 3.0934125,7.83832031 C4.4479125,8.16632813 5.5953,7.59433594 6.8373,8.42625 C6.8373,8.42625 7.5787875,9.36621094 9.2507625,9.77261719 C9.4636125,9.54199219 9.7524,9.31640625 10.1376,9.10300781 Z" id="Path" fill="#3AA03A"></path>
                                    <path d="M12.3460875,10.3910156 C12.33495,10.3880859 12.3229125,10.385625 12.3118875,10.3826953 C11.3016375,10.1110547 10.6102125,9.64054688 10.1370375,9.10335938 C7.8062625,10.3944141 8.9834625,12.1375781 9.456525,12.6982031 C9.5247,12.7790625 9.48375,12.90375 9.38385,12.9312891 C8.6232375,13.1411719 8.3559375,13.6935937 8.2639125,14.1025781 C8.2083375,14.3494922 8.3899125,14.5851563 8.6333625,14.5851563 L11.1425625,14.5851563 C11.1425625,14.5851563 12.3118875,14.2197656 11.727225,12.2708203 C11.4525,11.3553516 11.848725,10.7625 12.3460875,10.3910156 L12.3460875,10.3910156 Z" id="Path" fill="#3AA03A"></path>
                                    <path d="M25.0257375,9.61171875 C24.0469875,9.86402344 22.9251375,10.0904297 21.746475,10.2740625 C21.180375,11.2671094 22.714875,12.1966406 23.1381,12.6982031 C23.206275,12.7790625 23.165325,12.90375 23.065425,12.9312891 C22.3048125,13.1411719 22.0375125,13.6935937 21.9454875,14.1025781 C21.8899125,14.3494922 22.0714875,14.5851563 22.3149375,14.5851563 L24.8241375,14.5851563 C24.8241375,14.5851563 26.1689625,13.2452344 25.2334125,12.0271875 C24.3768375,10.9117969 24.654825,10.0942969 25.0257375,9.61171875 Z" id="Path" fill="#3AA03A"></path>
                                    <path d="M28.2990375,10.3544531 C27.5209875,9.98800781 26.905275,9.50332031 26.5271625,9.16371094 C26.0829,9.31921875 25.57755,9.46945313 25.0257375,9.61171875 C24.870825,9.81328125 24.7325625,10.0733203 24.6859875,10.3889063 C25.760475,11.1332813 27.158175,11.1583594 28.1714625,11.0373047 C28.5624,10.9905469 28.6488,10.5192188 28.2990375,10.3544531 L28.2990375,10.3544531 Z" id="Path" fill="#3AA03A"></path>
                                    <path d="M8.2638,14.1025781 C8.355825,13.6935938 8.623125,13.1410547 9.3837375,12.9312891 C9.4836375,12.90375 9.5245875,12.7790625 9.4564125,12.6982031 C9.0604125,12.2288672 8.172225,10.9307813 9.2606625,9.76300781 C9.26055,9.76289063 9.2604375,9.76289063 9.260325,9.76277344 C9.2572875,9.76605469 9.2538,9.76933594 9.2507625,9.77261719 C8.798625,9.66269531 8.4168,9.51351562 8.0969625,9.35472656 C6.3160875,10.6113281 7.376175,12.1733203 7.8190875,12.6982031 C7.8872625,12.7790625 7.8463125,12.90375 7.7464125,12.9312891 C6.9858,13.1411719 6.7185,13.6935938 6.626475,14.1025781 C6.5709,14.3494922 6.752475,14.5851563 6.995925,14.5851563 L8.633025,14.5851563 C8.3898,14.5851563 8.208225,14.3494922 8.2638,14.1025781 L8.2638,14.1025781 Z" id="Path" fill="#3AA03A"></path>
                                    <path d="M21.9454875,14.1025781 C22.0375125,13.6935938 22.3048125,13.1410547 23.065425,12.9312891 C23.165325,12.90375 23.206275,12.7790625 23.1381,12.6982031 C22.8978,12.4134375 22.29975,11.9907422 21.93075,11.4967969 C21.6642375,11.8210547 21.3305625,12.0553125 20.967525,12.1958203 C21.1847625,12.3904688 21.3847875,12.5605078 21.5008875,12.6982031 C21.5690625,12.7790625 21.5281125,12.90375 21.4282125,12.9312891 C20.6676,13.1411719 20.4003,13.6935938 20.308275,14.1025781 C20.2527,14.3494922 20.434275,14.5851563 20.677725,14.5851563 L22.314825,14.5851563 C22.0714875,14.5851563 21.8899125,14.3494922 21.9454875,14.1025781 L21.9454875,14.1025781 Z" id="Path" fill="#3AA03A"></path>
                                    <path d="M3.2011875,6.82441406 C2.9259,6.82441406 2.6202375,6.77308594 2.3274,6.61675781 C1.6984125,6.28125 1.042875,6.1546875 1.0362375,6.15351562 C0.8834625,6.12457031 0.7819875,5.97210937 0.809775,5.81285156 C0.8375625,5.65359375 0.9838125,5.54824219 1.1368125,5.57695312 C1.16685,5.58269531 1.881675,5.720625 2.5839,6.09527344 C3.1789125,6.41285156 3.916125,6.10019531 3.923325,6.09714844 C4.065975,6.03363281 4.2314625,6.10253906 4.29255,6.25125 C4.3536375,6.39996094 4.2874875,6.57222656 4.1446125,6.63585937 C4.1187375,6.64734375 3.7123875,6.82441406 3.2011875,6.82441406 L3.2011875,6.82441406 Z" id="Path" fill="#000000"></path>
                                    <path d="M1.52775,5.09648438 C1.4338125,5.09648438 1.3420125,5.0475 1.2886875,4.95832031 C1.2065625,4.82097656 1.2468375,4.64027344 1.3788,4.55484375 L1.6173,4.40015625 C1.7490375,4.31449219 1.9225125,4.35644531 2.0046375,4.49402344 C2.0867625,4.63136719 2.0464875,4.81207031 1.914525,4.8975 L1.676025,5.0521875 C1.6297875,5.0821875 1.5784875,5.09648438 1.52775,5.09648438 L1.52775,5.09648438 Z" id="Path" fill="#000000"></path>
                                    <path d="M4.471875,4.60300781 C4.4510625,4.60300781 4.4299125,4.60054688 4.4087625,4.595625 C4.2573375,4.55941406 4.162725,4.40238281 4.197375,4.24464844 C4.23315,4.08210937 4.135275,3.9196875 3.97935,3.88253906 C3.8233125,3.84527344 3.6673875,3.94710937 3.6316125,4.10964844 C3.59685,4.2675 3.445875,4.36582031 3.294675,4.32984375 C3.14325,4.29363281 3.0486375,4.13660156 3.0832875,3.97886719 C3.1883625,3.50144531 3.6466875,3.20214844 4.1049,3.31136719 C4.563225,3.42082031 4.8506625,3.898125 4.7457,4.37554687 C4.715775,4.51113281 4.6000125,4.60300781 4.471875,4.60300781 Z" id="Path" fill="#000000"></path>
                                    <path d="M15.963525,11.0489062 C14.6601,11.0489062 13.3138125,10.9545703 12.241575,10.6664062 C9.4937625,9.92777344 8.9469,7.81089844 8.8655625,6.61488281 C8.8488,6.36902344 8.9688375,6.14695312 9.178875,6.03503906 C9.387,5.92429687 9.6375375,5.95382812 9.8173125,6.11050781 C14.063625,9.80789062 21.6606375,7.78628906 24.9046875,6.92296875 C25.2025875,6.84375 25.45965,6.7753125 25.6687875,6.72375 C26.15985,6.60246094 26.6553,6.86753906 26.8473375,7.35339844 L27.223425,8.30472656 C27.3067875,8.51566406 27.3031875,8.74640625 27.2134125,8.95429687 C27.1245375,9.15996094 26.9560125,9.32050781 26.75115,9.39480469 C25.027875,10.0189453 22.25475,10.5789844 19.514025,10.8567187 C18.609525,10.9483594 17.3093625,11.0489062 15.963525,11.0489062 L15.963525,11.0489062 Z M9.444375,6.55394531 C9.4417875,6.55394531 9.4386375,6.55476563 9.4350375,6.55664062 C9.4258125,6.5615625 9.42615,6.56601562 9.4267125,6.57339844 C9.4973625,7.61238281 9.975375,9.45199219 12.3822,10.0989844 C15.6358125,10.9735547 23.02425,10.1242969 26.5665375,8.84132813 C26.62695,8.81941406 26.6745375,8.77417969 26.700525,8.71394531 C26.7262875,8.65441406 26.7273,8.58832031 26.7033375,8.52785156 L26.3273625,7.57652344 C26.2411875,7.35867188 26.0188875,7.23996094 25.7985,7.29398438 C25.59195,7.34496094 25.3382625,7.41246094 25.0439625,7.49074219 C21.7164375,8.37621094 13.9237875,10.4497266 9.456525,6.56003906 C9.4530375,6.55710938 9.44955,6.55394531 9.444375,6.55394531 L9.444375,6.55394531 Z" id="Shape" fill="#000000"></path>
                                    <path d="M9.250875,10.0655859 C9.2296125,10.0655859 9.2082375,10.063125 9.186975,10.0579688 C7.6159125,9.67617188 6.819525,8.84355469 6.652575,8.65125 C5.9806125,8.21507813 5.345775,8.22714844 4.611825,8.24109375 C4.1113125,8.25046875 3.5938125,8.26042969 3.02985,8.12390625 C1.7719875,7.81933594 1.0805625,6.53203125 0.884475,6.1096875 C0.7687125,6.08917969 0.5769,6.07617188 0.438975,6.08789063 C0.3036375,6.09902344 0.1729125,6.03996094 0.08865,5.92921875 C0.0036,5.81753906 -0.0221625,5.66964844 0.0198,5.53371094 C0.5475375,3.82253906 1.515825,2.7890625 2.8978875,2.461875 C2.9403,2.45191406 2.9822625,2.43105469 3.0193875,2.40164063 C3.55185,1.98035156 4.2859125,1.94976563 4.846275,2.32523438 C4.8929625,2.35652344 4.944375,2.37609375 4.9991625,2.38347656 C6.021675,2.52035156 7.3099125,3.2925 7.7221125,4.66417969 C8.03385,5.70164063 8.6313375,6.03726563 8.6373,6.0403125 C8.8088625,6.13476563 8.998425,6.20472656 9.2066625,6.25148438 C9.34695,6.28300781 9.4419,6.41941406 9.4271625,6.56800781 C9.4701375,7.21148438 9.6647625,8.13363281 10.3449375,8.90519531 C10.403775,8.97199219 10.42965,9.06339844 10.415025,9.1528125 C10.4004,9.24222656 10.3467375,9.31945313 10.2697875,9.36199219 C9.93105,9.54960938 9.65655,9.75609375 9.4539375,9.97582031 C9.4001625,10.0338281 9.3265875,10.0655859 9.250875,10.0655859 Z M4.9737375,7.65035156 C5.6246625,7.65035156 6.294825,7.71457031 6.9895125,8.17980469 C7.01415,8.19632813 7.0362,8.21671875 7.0547625,8.24027344 C7.060725,8.24777344 7.7225625,9.05601563 9.166275,9.4490625 C9.3213,9.29964844 9.5020875,9.1575 9.70695,9.02378906 C9.142875,8.25644531 8.9409375,7.41105469 8.878275,6.76886719 C8.69985,6.71484375 8.5327875,6.64523438 8.3799,6.56109375 C8.3525625,6.54691406 7.5726,6.12820313 7.18515,4.83890625 C6.8619375,3.76347656 5.8046625,3.08179688 4.927275,2.96425781 C4.7889,2.94574219 4.659075,2.89640625 4.5417375,2.81765625 C4.1794875,2.57472656 3.7044,2.595 3.3595875,2.8678125 C3.25935,2.94726563 3.1426875,3.00433594 3.0225375,3.0328125 C1.8883125,3.30140625 1.1023875,4.10894531 0.624825,5.49902344 C0.8161875,5.50394531 1.0562625,5.52914063 1.2027375,5.59828125 C1.2677625,5.62898438 1.319175,5.68441406 1.3465125,5.75320313 C1.3523625,5.76785156 1.9634625,7.26375 3.1573125,7.55285156 C3.653325,7.67296875 4.13505,7.66359375 4.6017,7.65503906 C4.725,7.6528125 4.8490875,7.65035156 4.9737375,7.65035156 L4.9737375,7.65035156 Z" id="Shape" fill="#000000"></path>
                                    <path d="M11.14245,14.878125 L8.6333625,14.878125 C8.4301875,14.878125 8.2413,14.7829688 8.1151875,14.6172656 C7.9896375,14.4522656 7.944075,14.2403906 7.9900875,14.0357813 C8.132175,13.4044922 8.5246875,12.9428906 9.1054125,12.7164844 C8.7597,12.2583984 8.338725,11.50125 8.4861,10.6603125 C8.611425,9.94453125 9.1225125,9.33375 10.005075,8.84484375 C10.11825,8.78214844 10.25775,8.80710938 10.344375,8.90542969 C10.83915,9.46699219 11.5248375,9.86859375 12.3823125,10.0991016 L12.4149375,10.1069531 C12.5211375,10.1347266 12.60225,10.2242578 12.622725,10.3364063 C12.6432,10.4485547 12.599325,10.5628125 12.510225,10.6292578 C11.971125,11.0317969 11.802825,11.5401563 11.995875,12.1835156 C12.239775,12.9965625 12.2315625,13.6675781 11.971575,14.1775781 C11.7036,14.7031641 11.2719375,14.8508203 11.2235625,14.8659375 C11.197125,14.8739063 11.1699,14.878125 11.14245,14.878125 L11.14245,14.878125 Z M10.086075,9.46898438 C9.475875,9.84574219 9.1240875,10.2812109 9.0392625,10.7654297 C8.9089875,11.50875 9.435375,12.2294531 9.6676875,12.5047266 C9.763425,12.6182813 9.795375,12.7722656 9.7531875,12.9166406 C9.7102125,13.0635937 9.5990625,13.1749219 9.4557375,13.2144141 C8.9582625,13.3516406 8.6493375,13.6729688 8.537625,14.169375 C8.5285125,14.2095703 8.5451625,14.2391016 8.55585,14.2531641 C8.5669875,14.2676953 8.5917375,14.2921875 8.63325,14.2921875 L11.091375,14.2921875 C11.2442625,14.2214062 11.898675,13.8247266 11.4586875,12.358125 C11.2471875,11.6530078 11.36025,11.0278125 11.7847125,10.5236719 C11.1090375,10.2810938 10.5397875,9.92789063 10.086075,9.46898438 Z" id="Shape" fill="#000000"></path>
                                    <path d="M24.8241375,14.878125 L22.3149375,14.878125 C22.1117625,14.878125 21.922875,14.7829687 21.7967625,14.6171484 C21.6712125,14.4521484 21.62565,14.2402734 21.6716625,14.0356641 C21.8118375,13.4129297 22.1959125,12.9551953 22.7638125,12.725625 C22.695975,12.6622266 22.61835,12.5933203 22.538475,12.5223047 C21.94245,11.9928516 20.9446875,11.1066797 21.5047125,10.1245312 C21.5478,10.0488281 21.621375,9.99738281 21.7049625,9.984375 C22.8704625,9.80285156 23.9954625,9.575625 24.9582375,9.32742187 C25.0752375,9.29730469 25.19775,9.34816406 25.262775,9.45398437 C25.3278,9.5596875 25.320825,9.69691406 25.24545,9.795 C24.792075,10.3849219 24.8619375,11.0743359 25.4532375,11.844375 C26.3203875,12.9734766 25.5481875,14.2695703 25.0187625,14.7970312 C24.966225,14.8489453 24.8965875,14.878125 24.8241375,14.878125 L24.8241375,14.878125 Z M21.9357,10.5405469 C21.7756125,11.0206641 22.2796125,11.5223437 22.903425,12.0765234 C23.0844375,12.2374219 23.240925,12.3762891 23.349375,12.5048437 C23.4451125,12.6183984 23.4770625,12.7723828 23.434875,12.9167578 C23.3919,13.0637109 23.28075,13.1750391 23.137425,13.2145312 C22.63995,13.3517578 22.3311375,13.6730859 22.2193125,14.1694922 C22.2102,14.2096875 22.22685,14.2392187 22.2375375,14.2532812 C22.2485625,14.2678125 22.2733125,14.2923047 22.3149375,14.2923047 L24.70455,14.2923047 C24.9503625,14.0109375 25.6676625,13.0617187 25.0138125,12.2102344 C24.3268875,11.3158594 24.30765,10.5771094 24.4783125,10.0469531 C23.6919375,10.2302344 22.8265875,10.3983984 21.9357,10.5405469 L21.9357,10.5405469 Z" id="Shape" fill="#000000"></path>
                                    <path d="M27.2804625,11.3848828 C26.3890125,11.3848828 25.3728,11.2166016 24.5300625,10.6328906 C24.438825,10.5697266 24.3912375,10.4571094 24.4078875,10.344375 C24.45615,10.0177734 24.5901375,9.7096875 24.8061375,9.42867187 C24.844725,9.37839844 24.8981625,9.34277344 24.958125,9.32730469 C25.50825,9.18550781 26.00595,9.03703125 26.4375,8.88597656 C26.5318875,8.8528125 26.6356125,8.87414062 26.7107625,8.94175781 C27.0772875,9.2709375 27.6703875,9.73675781 28.4148,10.0873828 C28.687725,10.2159375 28.8361125,10.4853516 28.7926875,10.7736328 C28.7483625,11.0684766 28.51155,11.2913672 28.2033,11.3281641 C27.9230625,11.3619141 27.6102,11.3848828 27.2804625,11.3848828 L27.2804625,11.3848828 Z M25.00515,10.2507422 C25.99515,10.8478125 27.2439,10.8534375 28.1392875,10.7462109 C28.2056625,10.7383594 28.23345,10.7073047 28.23705,10.6831641 C28.24155,10.6536328 28.2051,10.6317187 28.1831625,10.6212891 C27.456075,10.2788672 26.8644375,9.83660156 26.46585,9.49324219 C26.0827875,9.6225 25.65495,9.74917969 25.1901,9.8709375 C25.1069625,9.9928125 25.0452,10.1198437 25.00515,10.2507422 L25.00515,10.2507422 Z" id="Shape" fill="#000000"></path>
                                    <path d="M16.9893,13.2171094 C16.391925,13.2171094 15.79455,13.0033594 15.3072,12.5760938 C15.1509375,12.4391016 14.92785,12.3978516 14.7387375,12.4714453 C13.5261,12.9427734 12.1437,12.4032422 11.5232625,11.2166016 C11.4802875,11.1343359 11.4775875,11.0355469 11.5162875,10.9508203 C11.6542125,10.6483594 11.8782,10.3798828 12.182175,10.1528906 C12.249675,10.1027344 12.334725,10.0857422 12.4149375,10.1069531 C14.74425,10.7204297 18.7387875,10.4460938 21.7022625,9.98460938 C21.7036125,9.984375 21.7049625,9.98425781 21.706425,9.98402344 C21.710925,9.98332031 21.71565,9.98273438 21.719925,9.98226563 C21.8718,9.96714844 22.00815,10.0797656 22.0269375,10.2375 C22.0359375,10.3130859 22.016475,10.385625 21.9772125,10.4432813 C21.88215,10.6205859 21.82635,10.8799219 22.1527125,11.3167969 C22.234725,11.4267188 22.2312375,11.5815234 22.1443875,11.6872266 C21.4318125,12.5544141 20.2645125,12.8696484 19.239975,12.4713281 C19.0506375,12.3978516 18.827775,12.4389844 18.6715125,12.5759766 C18.1841625,13.0033594 17.586675,13.2171094 16.9893,13.2171094 L16.9893,13.2171094 Z M14.9355,11.8485938 C15.199425,11.8485938 15.46065,11.9446875 15.66945,12.1277344 C16.4341125,12.7982813 17.544375,12.7982813 18.3092625,12.1277344 C18.6228,11.8526953 19.0548,11.7740625 19.436625,11.9224219 C20.1733875,12.2087109 21.0043125,12.0249609 21.5690625,11.4684375 C21.397275,11.1803906 21.322125,10.9003125 21.343725,10.6304297 C18.4365,11.0503125 14.7164625,11.2708594 12.4102125,10.7087109 C12.2790375,10.8205078 12.1734,10.9417969 12.0942,11.0711719 C12.611925,11.9084766 13.637025,12.2739844 14.5422,11.9224219 C14.6696625,11.8728516 14.802975,11.8485938 14.9355,11.8485938 Z" id="Shape" fill="#000000"></path>
                                    <path d="M13.4848125,10.9013672 C13.4728875,10.9013672 13.4609625,10.9005469 13.448925,10.8989063 C12.996,10.8380859 12.5897625,10.7598047 12.2416875,10.6662891 C11.5117875,10.4701172 10.8847125,10.1572266 10.3779,9.73628906 C10.314,9.68320313 10.2754125,9.60375 10.2722625,9.51855469 C10.2267,8.29886719 10.7701875,7.55847656 11.0982375,7.22566406 C11.1826125,7.14 11.3094,7.11832031 11.4157125,7.17128906 C12.0981375,7.51101562 12.8678625,7.77351563 13.7037375,7.95140625 C13.7835,7.96839844 13.8522375,8.02054688 13.8922875,8.094375 C13.9323375,8.16820312 13.93965,8.2565625 13.912425,8.33648438 C13.6053,9.23800781 13.6602,10.0376953 13.7604375,10.5498047 C13.77855,10.6425 13.752675,10.7385937 13.6908,10.8078516 C13.63725,10.8679688 13.5624375,10.9013672 13.4848125,10.9013672 L13.4848125,10.9013672 Z M10.83195,9.3609375 C11.258325,9.68882813 11.7790875,9.93691406 12.3820875,10.0989844 C12.61035,10.1603906 12.86685,10.2148828 13.1477625,10.261875 C13.0944375,9.77144531 13.1011875,9.14648438 13.2861375,8.45648437 C12.59595,8.29019531 11.9503125,8.06695312 11.3605875,7.79074219 C11.1216375,8.08453125 10.835775,8.59558594 10.83195,9.3609375 L10.83195,9.3609375 Z" id="Shape" fill="#000000"></path>
                                    <path d="M16.6417875,11.0395313 C16.5346875,11.0395313 16.4365875,10.9760156 16.389225,10.8754687 C15.8974875,9.83015625 16.0029,8.97421875 16.1780625,8.44019531 C16.2174375,8.32019531 16.329375,8.23699219 16.448175,8.24203125 C17.2571625,8.25339844 18.1281375,8.20980469 19.0359,8.11101563 C19.114425,8.10210938 19.1926125,8.12859375 19.251675,8.18308594 C19.310625,8.23757813 19.34505,8.31539063 19.3462875,8.39753906 C19.35765,9.11191406 19.5372,9.78632813 19.8801,10.4017969 C19.9281375,10.4879297 19.9308375,10.5935156 19.8873,10.6821094 C19.8437625,10.7707031 19.7600625,10.8303516 19.665,10.8403125 C18.61515,10.9504688 17.6000625,11.0175 16.647975,11.0394141 C16.64595,11.0395313 16.6438125,11.0395313 16.6417875,11.0395313 L16.6417875,11.0395313 Z M16.654725,8.82972656 C16.5636,9.22769531 16.5475125,9.78246094 16.8201,10.4489063 C17.577675,10.4269922 18.3744,10.3766016 19.1961,10.2986719 C18.9779625,9.80308594 18.8431875,9.26917969 18.7992,8.72414063 C18.054225,8.79632813 17.3359125,8.83347656 16.654725,8.82972656 Z" id="Shape" fill="#000000"></path>
                                    <path d="M22.6184625,10.4217188 C22.5340875,10.4217188 22.4533125,10.3822266 22.399425,10.3125 C21.668625,9.36679688 21.58155,8.48789063 21.63735,7.91707031 C21.6498375,7.78886719 21.7413,7.68421875 21.8626875,7.65925781 C22.7971125,7.46695313 23.6181375,7.25988281 24.1543125,7.12089844 C24.3012375,7.08269531 24.44985,7.17210938 24.49215,7.3228125 C24.757425,8.26675781 25.257375,8.91503906 25.6300875,9.29273438 C25.70265,9.36621094 25.731675,9.47484375 25.706025,9.57691406 C25.680375,9.67898438 25.6041,9.75878906 25.506225,9.78585938 C24.661575,10.0197656 23.706,10.2323438 22.665825,10.4176172 C22.650075,10.4203125 22.6342125,10.4217188 22.6184625,10.4217188 Z M22.1861012,8.18929688 C22.1842125,8.61386719 22.2969375,9.1846875 22.7377125,9.81 C23.5148625,9.66808594 24.2416125,9.51082031 24.90615,9.34089844 C24.5944125,8.95441406 24.26355,8.42847656 24.0350625,7.75511719 C23.5510875,7.87863281 22.9078125,8.03648438 22.1861012,8.18929688 L22.1861012,8.18929688 Z" id="Shape" fill="#000000"></path>
                                    <path d="M16.71075,8.82925781 C16.2567,8.82925781 15.8171625,8.81296875 15.3936,8.78039062 C15.3165375,8.77453125 15.2452125,8.73574219 15.1963875,8.67339844 C15.1475625,8.61105469 15.1255125,8.53042969 15.1354125,8.450625 L15.5658375,4.98667969 C15.633,4.44585937 16.0783875,4.03804687 16.6019625,4.03804687 L18.231075,4.03804687 C18.7545375,4.03804687 19.2000375,4.44585937 19.2672,4.98667969 L19.6821,8.32605469 C19.6916625,8.40375 19.671075,8.48214844 19.6248375,8.54390625 C19.5786,8.60566406 19.5105375,8.64550781 19.4358375,8.65464844 C18.4825125,8.77089844 17.5705875,8.82925781 16.71075,8.82925781 L16.71075,8.82925781 Z M15.731775,8.21589844 C16.762725,8.27519531 17.8889625,8.23804688 19.087425,8.10550781 L18.7093125,5.06179687 C18.678375,4.8121875 18.4726125,4.62386719 18.231075,4.62386719 L16.6019625,4.62386719 C16.3603125,4.62386719 16.1546625,4.81207031 16.123725,5.06179687 L15.731775,8.21589844 Z" id="Shape" fill="#000000"></path>
                                    <path d="M19.40265,8.65511719 C19.26315,8.65511719 19.1424375,8.54730469 19.1239875,8.39976563 L18.7093125,5.06179688 C18.7057125,5.03308594 18.6994125,5.00367188 18.6906375,4.97449219 C18.6784875,4.93429687 18.674775,4.89175781 18.67995,4.84992187 C18.7354125,4.39324219 19.062675,4.02082031 19.4943375,3.92320312 L21.0864375,3.56355469 C21.5982,3.44777344 22.1162625,3.74824219 22.2919875,4.261875 L23.4241875,7.57195312 C23.4511875,7.65070312 23.4444375,7.73789062 23.40585,7.81125 C23.36715,7.88460938 23.300325,7.93722656 23.222025,7.95585938 C21.85875,8.28058594 20.6202375,8.50875 19.4356125,8.65324219 C19.4245875,8.65453125 19.41345,8.65511719 19.40265,8.65511719 L19.40265,8.65511719 Z M19.2468375,4.87230469 C19.2556125,4.91027344 19.262475,4.94835938 19.2672,4.98644531 L19.2672,4.98667969 L19.6459875,8.03613281 C20.6364375,7.90523438 21.66975,7.71480469 22.787775,7.45699219 L21.7621125,4.45851562 C21.681,4.22144531 21.4419375,4.08246094 21.205575,4.13625 L19.613475,4.49589844 C19.431,4.53714844 19.2888,4.68527344 19.2468375,4.87230469 L19.2468375,4.87230469 Z" id="Shape" fill="#000000"></path>
                                    <path d="M23.1591375,7.96324219 C23.0425875,7.96324219 22.934925,7.88730469 22.8943125,7.76847656 L21.762225,4.45851562 C21.7539,4.43425781 21.7431,4.40976562 21.72915,4.38339844 C21.71295,4.35316406 21.70215,4.32011719 21.6970875,4.28589844 C21.627,3.81234375 21.8577375,3.35308594 22.2710625,3.14285156 L23.3238375,2.60730469 C23.4324,2.55222656 23.56245,2.5753125 23.647275,2.66460937 C24.961725,4.04894531 25.782075,5.72226562 26.2387125,6.8821875 C26.276175,6.97746094 26.2630125,7.08621094 26.2038375,7.16871094 C26.1446625,7.25121094 26.0479125,7.29492187 25.949925,7.28484375 C25.8967125,7.27910156 25.8458625,7.28226562 25.7985,7.29398437 C25.5920625,7.34496094 25.3384875,7.41234375 25.0444125,7.490625 C24.5458125,7.62328125 23.9252625,7.78828125 23.222025,7.95585938 C23.2009875,7.96078125 23.1798375,7.96324219 23.1591375,7.96324219 L23.1591375,7.96324219 Z M22.24845,4.15394531 C22.2652125,4.18980469 22.279725,4.22554688 22.2921,4.261875 L23.34015,7.32585938 C23.937075,7.1803125 24.4681875,7.03910156 24.90525,6.92285156 C25.158825,6.85535156 25.3827,6.7959375 25.5726,6.74789063 C25.1344125,5.71347656 24.4312875,4.37613281 23.3872875,3.22722656 L22.5178875,3.669375 C22.339575,3.75996094 22.23495,3.95109375 22.24845,4.15394531 L22.24845,4.15394531 Z" id="Shape" fill="#000000"></path>
                                    <path d="M15.4148625,8.77957031 C15.4078875,8.77957031 15.4009125,8.77933594 15.393825,8.77875 C13.9671,8.66894531 12.68865,8.37175781 11.5938,7.89550781 C11.4557625,7.83550781 11.3871375,7.6734375 11.4372,7.52683594 L12.5539875,4.26175781 C12.7297125,3.74800781 13.2481125,3.44800781 13.7595375,3.5634375 L15.3516375,3.92308594 C15.77385,4.01847656 16.09155,4.36746094 16.16085,4.81207031 C16.1683875,4.8609375 16.1641125,4.91085938 16.1481375,4.95738281 C16.1357625,4.99347656 16.1276625,5.02757813 16.1235,5.06144531 L16.1235,5.0615625 L15.6933,8.52398438 C15.6751875,8.67128906 15.554925,8.77957031 15.4148625,8.77957031 L15.4148625,8.77957031 Z M12.0580875,7.45804688 C12.971925,7.82238281 14.0164875,8.06191406 15.170175,8.17171875 L15.5658375,4.98691406 C15.571575,4.94027344 15.580575,4.89316406 15.5928375,4.84605469 C15.5440125,4.66992188 15.407775,4.53550781 15.2325,4.49589844 L13.6404,4.13625 C13.403925,4.08246094 13.1648625,4.22144531 13.0838625,4.45863281 L12.0580875,7.45804688 Z" id="Shape" fill="#000000"></path>
                                    <path d="M11.702475,7.91730469 C11.6656875,7.91730469 11.6287875,7.90980469 11.5941375,7.8946875 C10.7924625,7.5459375 10.07325,7.09699219 9.456525,6.56003906 C9.3148875,6.49511719 9.243,6.31863281 9.30465,6.17074219 C9.85455,4.8515625 10.56285,3.71027344 11.409975,2.77863281 C11.4944625,2.68570313 11.6271,2.66074219 11.737575,2.716875 L12.575025,3.14285156 C12.98835,3.35308594 13.218975,3.81246094 13.149,4.28589844 C13.1439375,4.32011719 13.1331375,4.35316406 13.1169375,4.38339844 C13.102875,4.40976563 13.092075,4.43425781 13.0838625,4.45851563 L11.9674125,7.72265625 C11.9415375,7.79835938 11.8868625,7.85976563 11.8162125,7.89222656 C11.7801,7.90898438 11.7412875,7.91730469 11.702475,7.91730469 L11.702475,7.91730469 Z M9.9115875,6.19113281 C10.392075,6.59460938 10.9380375,6.943125 11.5387875,7.23 L12.5539875,4.261875 C12.5663625,4.22554688 12.580875,4.18980469 12.5976375,4.15394531 C12.6111375,3.95109375 12.5065125,3.75996094 12.3282,3.669375 L11.6785125,3.33890625 C10.982925,4.13976563 10.3897125,5.09742188 9.9115875,6.19113281 L9.9115875,6.19113281 Z" id="Shape" fill="#000000"></path>
                                    <path d="M21.975075,4.53433594 C21.875175,4.53433594 21.779775,4.47867188 21.7290375,4.38339844 C21.626775,4.19132813 21.4115625,4.08984375 21.2056875,4.13625 L19.831725,4.44667969 C19.684125,4.47996094 19.5381,4.38621094 19.4999625,4.23433594 C19.2517875,3.24410156 19.0785375,2.09132813 19.0785375,1.43097656 C19.0785375,1.15371094 19.1962125,0.918398438 19.40985,0.76828125 C19.8255375,0.47625 20.523825,0.557695313 20.99655,0.756679688 C21.5172,0.9759375 22.5538875,1.51523438 23.646825,2.66460938 C23.7106125,2.73164063 23.7394125,2.82667969 23.724225,2.91972656 C23.7090375,3.01277344 23.651775,3.09257813 23.570325,3.1340625 L22.5176625,3.66949219 C22.3268625,3.76652344 22.2204375,3.97839844 22.2528375,4.19683594 C22.27365,4.33710938 22.1947875,4.47269531 22.0658625,4.51863281 C22.03605,4.52917969 22.0053375,4.53433594 21.975075,4.53433594 L21.975075,4.53433594 Z M20.1209625,1.16226563 C19.955025,1.16226563 19.8120375,1.19238281 19.7245125,1.25390625 C19.6653375,1.29550781 19.64115,1.34671875 19.64115,1.43085938 C19.64115,1.90617188 19.7568,2.84859375 19.978875,3.81375 L21.08655,3.5634375 C21.3301125,3.50835938 21.5744625,3.54503906 21.783375,3.65636719 C21.881925,3.43804688 22.0505625,3.25488281 22.2710625,3.14273438 L22.9631625,2.79070313 C22.05045,1.91132813 21.2216625,1.483125 20.7858375,1.29972656 C20.5704,1.20902344 20.3277375,1.16226563 20.1209625,1.16226563 L20.1209625,1.16226563 Z" id="Shape" fill="#000000"></path>
                                    <path d="M12.871125,4.53433594 C12.8408625,4.53433594 12.81015,4.52917969 12.7801125,4.51851562 C12.6511875,4.47257813 12.5724375,4.33699219 12.5931375,4.19671875 C12.625425,3.97828125 12.519,3.76640625 12.3283125,3.669375 L11.490975,3.24351562 C11.4105375,3.20261719 11.3536125,3.12421875 11.3376375,3.03246094 C11.3216625,2.94070312 11.3486625,2.84648437 11.4103125,2.77875 C12.2481,1.85789062 13.2145875,1.15886719 14.2828875,0.70125 C14.6552625,0.541757812 15.0780375,0.56578125 15.35985,0.762539062 C15.5768625,0.913945312 15.6963375,1.15136719 15.6963375,1.43085937 C15.6963375,2.08675781 15.5246625,3.23308594 15.2789625,4.21875 C15.24105,4.37085937 15.0948,4.46484375 14.9470875,4.43144531 L13.6404,4.13625 C13.434075,4.08960937 13.2192,4.19144531 13.11705,4.38339844 C13.066425,4.47855469 12.971025,4.53433594 12.871125,4.53433594 L12.871125,4.53433594 Z M13.5347625,3.53824219 C13.609125,3.53824219 13.6843875,3.54644531 13.7597625,3.5634375 L14.799825,3.79839844 C15.0195375,2.83851562 15.13395,1.90242187 15.13395,1.43074219 C15.13395,1.3471875 15.1070625,1.29117187 15.046875,1.24910156 C14.9205375,1.16109375 14.6944125,1.15851563 14.4968625,1.24300781 C13.61565,1.62046875 12.807675,2.17570313 12.090375,2.89605469 L12.57525,3.14261719 C12.79575,3.25476562 12.964275,3.43792969 13.0629375,3.65625 C13.2071625,3.57960937 13.3684875,3.53824219 13.5347625,3.53824219 L13.5347625,3.53824219 Z" id="Shape" fill="#000000"></path>
                                    <path d="M18.958725,5.1796875 C18.837,5.1796875 18.727875,5.09765625 18.6906375,4.97484375 C18.627075,4.76496094 18.44235,4.62386719 18.2309625,4.62386719 L16.60185,4.62386719 C16.3987875,4.62386719 16.2165375,4.75792969 16.14825,4.9575 C16.1051625,5.08347656 15.9854625,5.16292969 15.857775,5.15085938 C15.729975,5.13867188 15.62625,5.03800781 15.6056625,4.90605469 C15.5737125,4.70074219 15.4272375,4.53972656 15.2325,4.49578125 L14.9470875,4.43132813 C14.872275,4.41433594 14.80725,4.36640625 14.7670875,4.29855469 C14.7270375,4.23058594 14.715225,4.14855469 14.73435,4.07144531 C14.9965875,3.02003906 15.133725,1.94730469 15.133725,1.43085937 C15.133725,1.34085937 15.1029,1.28390625 15.03045,1.2403125 C14.9437125,1.18792969 14.8901625,1.09148437 14.89005,0.987070312 C14.8899375,0.882539062 14.9432625,0.785976562 15.0298875,0.733476562 C15.7782375,0.280078125 17.741025,-0.629179688 19.8027,0.714257812 C19.8901125,0.771210937 19.940625,0.873515625 19.9342125,0.980742187 C19.9278,1.08796875 19.8657,1.18300781 19.7721,1.22824219 C19.6628625,1.28121094 19.640925,1.34507812 19.640925,1.43085937 C19.640925,1.9509375 19.7794125,3.03 20.044125,4.08632812 C20.063475,4.16355469 20.051775,4.24570312 20.0116125,4.31367187 C19.9715625,4.38175781 19.906425,4.4296875 19.8316125,4.44667969 L19.613475,4.49589844 C19.41435,4.54089844 19.2634875,4.7128125 19.2378375,4.92351563 C19.2213,5.06003906 19.1156625,5.16621094 18.9840375,5.17851562 C18.9756,5.17933594 18.9671625,5.1796875 18.958725,5.1796875 L18.958725,5.1796875 Z M16.6019625,4.03804687 L18.231075,4.03804687 C18.4869,4.03804687 18.724725,4.13332031 18.908775,4.29679687 C19.0413,4.12839844 19.2216375,4.00195312 19.4295375,3.94019531 C19.219725,3.02367187 19.0785375,2.02675781 19.0785375,1.43085937 C19.0785375,1.27710937 19.1136375,1.13835938 19.1808,1.01976563 C17.759475,0.263789063 16.4381625,0.64875 15.6180375,1.06957031 C15.669225,1.17820313 15.6963375,1.30042969 15.6963375,1.43085937 C15.6963375,2.02195312 15.55695,3.01160156 15.3495,3.92273437 L15.3518625,3.92320312 C15.5865375,3.97628906 15.788925,4.10765625 15.934275,4.29023437 C16.1179875,4.13109375 16.3526625,4.03804687 16.6019625,4.03804687 L16.6019625,4.03804687 Z" id="Shape" fill="#000000"></path>
                                    <path d="M8.6333625,14.878125 L6.99615,14.878125 C6.792975,14.878125 6.6040875,14.7829688 6.4778625,14.6171484 C6.3523125,14.4521484 6.30675,14.2402734 6.352875,14.0356641 C6.49485,13.4044922 6.887475,12.9428906 7.4682,12.7163672 C7.1393625,12.2801953 6.7356,11.563125 6.83415,10.7603906 C6.91155,10.1295703 7.283475,9.57503906 7.93935,9.11214844 C8.0220375,9.05378906 8.1282375,9.04570312 8.218125,9.09023437 C8.53875,9.249375 8.88345,9.376875 9.2437875,9.46957031 C9.291375,9.46675781 9.34065,9.47695312 9.3862125,9.50074219 C9.466425,9.54246094 9.5227875,9.62167969 9.5378625,9.71378906 C9.552825,9.80589844 9.5250375,9.9 9.4624875,9.96703125 C9.0829125,10.3742578 8.6049,11.2453125 9.6676875,12.5047266 C9.763425,12.6182812 9.795375,12.7722656 9.7531875,12.9166406 C9.7102125,13.0635937 9.5990625,13.1749219 9.4557375,13.2144141 C8.9582625,13.3516406 8.64945,13.6729687 8.537625,14.1692578 C8.5285125,14.2094531 8.5451625,14.2389844 8.55585,14.2530469 C8.5669875,14.2675781 8.5917375,14.2920703 8.63325,14.2920703 C8.7886125,14.2920703 8.9145,14.4232031 8.9145,14.5850391 C8.9145,14.746875 8.788725,14.878125 8.6333625,14.878125 L8.6333625,14.878125 Z M8.1277875,9.69152344 C7.690725,10.0328906 7.44345,10.4169141 7.39215,10.8346875 C7.3038375,11.5544531 7.8091875,12.2423438 8.0305875,12.5047266 C8.126325,12.6182813 8.158275,12.7722656 8.1160875,12.9166406 C8.0731125,13.0635938 7.9619625,13.1749219 7.8186375,13.2144141 C7.3211625,13.3516406 7.0122375,13.6729688 6.900525,14.1692578 C6.8914125,14.2094531 6.9080625,14.2391016 6.91875,14.2530469 C6.9298875,14.2675781 6.9546375,14.2920703 6.99615,14.2920703 L7.9794,14.2920703 C7.967475,14.2079297 7.9707375,14.1212109 7.989975,14.0356641 C8.132175,13.4042578 8.525025,12.9424219 9.1060875,12.7161328 C8.7150375,12.1919531 8.0681625,11.0526563 8.764875,9.93890625 C8.545725,9.86835938 8.3327625,9.78574219 8.1277875,9.69152344 L8.1277875,9.69152344 Z" id="Shape" fill="#000000"></path>
                                    <path d="M22.3149375,14.878125 L20.6778375,14.878125 C20.4746625,14.878125 20.285775,14.7829687 20.1596625,14.6171484 C20.0341125,14.4521484 19.98855,14.2402734 20.0345625,14.0356641 C20.1747375,13.4129297 20.5588125,12.9551953 21.1267125,12.725625 C21.05865,12.6619922 20.980575,12.5926172 20.90025,12.5213672 L20.78415,12.4180078 C20.7086625,12.3503906 20.673225,12.2462109 20.6906625,12.1442578 C20.7082125,12.0421875 20.776275,11.9573437 20.8695375,11.92125 C21.1977,11.7943359 21.4907625,11.5816406 21.717,11.3063672 C21.7719,11.2395703 21.8529,11.2004297 21.937275,11.2039453 C22.02165,11.2060547 22.10085,11.2475391 22.1527125,11.3169141 C22.358025,11.5917187 22.647825,11.8492969 22.9035375,12.0765234 C23.08455,12.2374219 23.240925,12.3762891 23.3492625,12.5048437 C23.445,12.6183984 23.47695,12.7723828 23.4347625,12.9167578 C23.3917875,13.0637109 23.2806375,13.1750391 23.1373125,13.2145312 C22.6398375,13.3517578 22.331025,13.6730859 22.2192,14.1694922 C22.2100875,14.2096875 22.2267375,14.2392187 22.237425,14.2532812 C22.24845,14.2678125 22.2732,14.2923047 22.314825,14.2923047 C22.4701875,14.2923047 22.596075,14.4234375 22.596075,14.5852734 C22.596075,14.7471094 22.4703,14.878125 22.3149375,14.878125 L22.3149375,14.878125 Z M21.4779375,12.2667187 C21.5692875,12.3512109 21.6489375,12.4297266 21.7121625,12.5047266 C21.8080125,12.6182812 21.8399625,12.7722656 21.797775,12.9166406 C21.7548,13.0635937 21.64365,13.1749219 21.500325,13.2144141 C21.00285,13.3516406 20.6940375,13.6729687 20.5822125,14.169375 C20.5731,14.2095703 20.58975,14.2391016 20.6004375,14.2531641 C20.6114625,14.2676953 20.6362125,14.2921875 20.6778375,14.2921875 L21.6610875,14.2921875 C21.6491625,14.2080469 21.652425,14.1212109 21.6716625,14.0356641 C21.8118375,13.4129297 22.1959125,12.9551953 22.7638125,12.725625 C22.695975,12.6622266 22.6184625,12.5933203 22.5385875,12.5223047 C22.346775,12.3517969 22.12065,12.1509375 21.9189375,11.9294531 C21.7837125,12.0574219 21.635775,12.1705078 21.4779375,12.2667187 L21.4779375,12.2667187 Z" id="Shape" fill="#000000"></path>
                                    <path d="M16.9894125,13.2171094 C16.391925,13.2171094 15.79455,13.0034766 15.3073125,12.5760938 C15.21225,12.4927734 15.0904125,12.4430859 14.9641875,12.4361719 C14.885775,12.4319531 14.81265,12.39375 14.762475,12.3308203 C14.7123,12.2678906 14.6896875,12.1859766 14.7000375,12.1048828 L14.8795875,10.7022656 C14.8986,10.5532031 15.01965,10.4426953 15.167475,10.4482031 C16.225425,10.4837109 17.4139875,10.4482031 18.699975,10.3423828 C18.8456625,10.3303125 18.9765,10.4371875 18.9997875,10.5877734 L19.2342375,12.1019531 C19.2465,12.1815234 19.2268125,12.2628516 19.1797875,12.3268359 C19.1327625,12.3908203 19.06245,12.4318359 18.9853875,12.4400391 C18.8670375,12.4526953 18.7585875,12.4998047 18.671625,12.5759766 C18.1841625,13.0033594 17.5867875,13.2171094 16.9894125,13.2171094 L16.9894125,13.2171094 Z M15.2924625,11.9095313 C15.4301625,11.9567578 15.5588625,12.0307031 15.6695625,12.1278516 C16.4343375,12.7985156 17.5444875,12.7983984 18.3092625,12.1278516 C18.40725,12.0419531 18.51795,11.9746875 18.637425,11.9279297 L18.48555,10.9469531 C17.3784375,11.0308594 16.3441125,11.0623828 15.4036125,11.0409375 L15.2924625,11.9095313 Z" id="Shape" fill="#000000"></path>
                                </g>
                            </g>
                        </g>
                    </g>
                </g>
            </g>
        </g>
    </g>
</svg>