<svg xmlns="http://www.w3.org/2000/svg" xmlns:xlink="http://www.w3.org/1999/xlink" viewBox="0 0 1096 1898.95"><defs><style>.cls-1{fill:none;stroke:#c8c6e8;stroke-miterlimit:10;stroke-width:12.71px;}.cls-2{fill:#3769d3;}.cls-3{fill:#c3d2e7;}.cls-4{fill:#86a4e4;}.cls-5{fill:#232a51;opacity:0.3;}.cls-6{fill:#5d89d8;}.cls-7{fill:url(#linear-gradient);}.cls-8{fill:url(#linear-gradient-2);}.cls-9{fill:#d1d1d1;}.cls-10{fill:#fff;}.cls-11{fill:url(#linear-gradient-3);}.cls-12{fill:url(#linear-gradient-4);}.cls-13{fill:url(#linear-gradient-5);}.cls-14{fill:url(#linear-gradient-6);}.cls-15{fill:url(#linear-gradient-7);}.cls-16{fill:url(#linear-gradient-8);}.cls-17{fill:url(#linear-gradient-9);}.cls-18{fill:url(#linear-gradient-10);}.cls-19{fill:url(#linear-gradient-11);}.cls-20{fill:url(#linear-gradient-12);}.cls-21{fill:url(#linear-gradient-13);}.cls-22{fill:url(#linear-gradient-14);}.cls-23{fill:url(#linear-gradient-15);}.cls-24{fill:url(#linear-gradient-16);}.cls-25{fill:url(#linear-gradient-17);}.cls-26{fill:url(#linear-gradient-18);}.cls-27{fill:url(#linear-gradient-19);}.cls-28{fill:url(#linear-gradient-20);}.cls-29{fill:#7a47b3;}.cls-30{fill:#b67efd;}.cls-31{fill:#9e53fc;}.cls-32{fill:#f5fafb;}.cls-33{fill:#473961;}.cls-34{fill:#d8eaf0;}.cls-35{fill:#f7b8ab;}.cls-36{fill:url(#linear-gradient-21);}.cls-37{fill:#e882a6;}.cls-38{fill:url(#radial-gradient);}.cls-39{fill:#424242;}.cls-40{fill:#454648;}.cls-41{fill:url(#linear-gradient-22);}.cls-42{fill:#f2ae16;}.cls-43{fill:url(#linear-gradient-23);}.cls-44{fill:url(#linear-gradient-24);}</style><linearGradient id="linear-gradient" x1="632.68" y1="1139.88" x2="542.2" y2="1330.76" gradientUnits="userSpaceOnUse"><stop offset="0.21" stop-color="#b52929"/><stop offset="0.23" stop-color="#b83030"/><stop offset="0.26" stop-color="#bf4444"/><stop offset="0.31" stop-color="#ca6464"/><stop offset="0.35" stop-color="#db9090"/><stop offset="0.4" stop-color="#efc8c8"/><stop offset="0.43" stop-color="#fcebeb"/><stop offset="0.45" stop-color="#f4dadd"/><stop offset="0.52" stop-color="#d8a1af"/><stop offset="0.59" stop-color="#c17086"/><stop offset="0.66" stop-color="#ad4865"/><stop offset="0.73" stop-color="#9e284c"/><stop offset="0.8" stop-color="#94123a"/><stop offset="0.86" stop-color="#8d052f"/><stop offset="0.92" stop-color="#8b002b"/></linearGradient><linearGradient id="linear-gradient-2" x1="538.4" y1="1221.2" x2="659.74" y2="1347.89" gradientUnits="userSpaceOnUse"><stop offset="0.21" stop-color="#e84b3c"/><stop offset="0.35" stop-color="#e8443c"/><stop offset="0.56" stop-color="#e8313c"/><stop offset="0.8" stop-color="#e8113b"/><stop offset="0.92" stop-color="#e8003b"/></linearGradient><linearGradient id="linear-gradient-3" x1="300.79" y1="1649.54" x2="306.8" y2="1650.11" gradientTransform="matrix(0.68, -0.73, -0.55, -0.53, 1484.27, 2090.29)" gradientUnits="userSpaceOnUse"><stop offset="0" stop-color="red"/><stop offset="0.15" stop-color="#fa0000"/><stop offset="0.32" stop-color="#ec0000"/><stop offset="0.5" stop-color="#d40000"/><stop offset="0.7" stop-color="#b30000"/><stop offset="0.9" stop-color="#800"/><stop offset="1" stop-color="#6f0000"/></linearGradient><linearGradient id="linear-gradient-4" x1="742.19" y1="980.13" x2="793.91" y2="976.05" gradientUnits="userSpaceOnUse"><stop offset="0" stop-color="#f5d3bd"/><stop offset="0.14" stop-color="#eecab3"/><stop offset="0.38" stop-color="#dbb298"/><stop offset="0.68" stop-color="#bc8b6d"/><stop offset="0.99" stop-color="#975d3a"/></linearGradient><linearGradient id="linear-gradient-5" x1="609.62" y1="1872.78" x2="658.65" y2="1872.78" gradientTransform="matrix(-0.69, 0.72, 0.72, 0.69, -188.25, -844.73)" gradientUnits="userSpaceOnUse"><stop offset="0" stop-color="#ff9a00"/><stop offset="0.17" stop-color="#ff9903"/><stop offset="0.28" stop-color="#ff940c"/><stop offset="0.31" stop-color="#ff920f"/><stop offset="0.67" stop-color="#ff930c"/><stop offset="0.97" stop-color="#ff9602"/><stop offset="1" stop-color="#ff9700"/></linearGradient><linearGradient id="linear-gradient-6" x1="267.53" y1="1585.49" x2="395.3" y2="1669.88" gradientTransform="matrix(0.68, -0.73, -0.82, -0.79, 1824.34, 2418.1)" gradientUnits="userSpaceOnUse"><stop offset="0" stop-color="#ffac00"/><stop offset="1" stop-color="#ffae00"/></linearGradient><linearGradient id="linear-gradient-7" x1="644.27" y1="1873.26" x2="682.51" y2="1873.26" gradientTransform="matrix(-0.69, 0.72, 0.72, 0.69, -188.25, -844.73)" gradientUnits="userSpaceOnUse"><stop offset="0" stop-color="#fcf051"/><stop offset="0.34" stop-color="#fde64a"/><stop offset="0.92" stop-color="#ffcc38"/><stop offset="1" stop-color="#ffc735"/></linearGradient><linearGradient id="linear-gradient-8" x1="656.44" y1="1872.68" x2="668.67" y2="1872.68" gradientTransform="matrix(-0.69, 0.72, 0.72, 0.69, -394.39, -1066.41)" gradientUnits="userSpaceOnUse"><stop offset="0" stop-color="#fcf0e3"/><stop offset="0.11" stop-color="#fcf1d9"/><stop offset="0.31" stop-color="#fdf3be"/><stop offset="0.56" stop-color="#fdf693"/><stop offset="0.85" stop-color="#fefa57"/><stop offset="1" stop-color="#fffc35"/></linearGradient><linearGradient id="linear-gradient-9" x1="323.31" y1="1681.46" x2="323.31" y2="1567.78" gradientTransform="matrix(0.68, -0.73, -0.82, -0.79, 1618.2, 2196.42)" gradientUnits="userSpaceOnUse"><stop offset="0" stop-color="#ffae7c"/><stop offset="1" stop-color="#ffe686"/></linearGradient><linearGradient id="linear-gradient-10" x1="1122.4" y1="1139.76" x2="1209.74" y2="1139.76" gradientTransform="matrix(-0.68, 0.73, 0.72, 0.69, 623.63, -776.15)" gradientUnits="userSpaceOnUse"><stop offset="0"/><stop offset="0.5" stop-color="#868486"/><stop offset="0.58" stop-color="#9d9a9d"/><stop offset="0.63" stop-color="#a19ea1"/><stop offset="0.67" stop-color="#aeabad"/><stop offset="0.72" stop-color="#c4c1c1"/><stop offset="0.77" stop-color="#e2dfdd"/><stop offset="0.78" stop-color="#e8e5e3"/></linearGradient><linearGradient id="linear-gradient-11" x1="670.53" y1="1940.52" x2="637.61" y2="1943.72" gradientTransform="matrix(-0.69, 0.72, 0.72, 0.69, -188.25, -844.73)" gradientUnits="userSpaceOnUse"><stop offset="0" stop-color="#edc9b3"/><stop offset="0.22" stop-color="#d2a893"/><stop offset="0.69" stop-color="#8e5542"/><stop offset="0.99" stop-color="#601c0a"/></linearGradient><linearGradient id="linear-gradient-12" x1="1203.32" y1="1056.71" x2="1081.58" y2="1149.18" gradientTransform="matrix(-0.68, 0.73, 0.72, 0.69, 623.63, -776.15)" gradientUnits="userSpaceOnUse"><stop offset="0" stop-color="#ff564e"/><stop offset="0.14" stop-color="#ec4d46"/><stop offset="0.43" stop-color="#ba3530"/><stop offset="0.84" stop-color="#6a100e"/><stop offset="1" stop-color="#490000"/></linearGradient><linearGradient id="linear-gradient-13" x1="1195.26" y1="1105.68" x2="940.56" y2="1164.07" gradientTransform="matrix(-0.68, 0.73, 0.72, 0.69, 623.63, -776.15)" gradientUnits="userSpaceOnUse"><stop offset="0.21" stop-color="#dcd9db"/><stop offset="0.27" stop-color="#d1ced0"/><stop offset="0.38" stop-color="#b4b2b3"/><stop offset="0.53" stop-color="#858384"/><stop offset="0.71" stop-color="#444344"/><stop offset="0.87"/></linearGradient><linearGradient id="linear-gradient-14" x1="637.49" y1="918.84" x2="701.24" y2="1039.68" gradientTransform="translate(-48.59 1802.31) rotate(-112.71)" gradientUnits="userSpaceOnUse"><stop offset="0" stop-color="#ff6b00"/><stop offset="0.23" stop-color="#f85800"/><stop offset="0.68" stop-color="#e52600"/><stop offset="1" stop-color="#d60000"/></linearGradient><linearGradient id="linear-gradient-15" x1="633.78" y1="978.78" x2="695.31" y2="978.78" xlink:href="#linear-gradient-14"/><linearGradient id="linear-gradient-16" x1="466.29" y1="1088.39" x2="466.29" y2="1088.39" gradientTransform="translate(-48.59 1802.31) rotate(-112.71)" xlink:href="#linear-gradient-4"/><linearGradient id="linear-gradient-17" x1="609.75" y1="1817.25" x2="687.53" y2="1817.25" gradientTransform="matrix(-0.69, 0.72, 0.72, 0.69, -188.25, -844.73)" gradientUnits="userSpaceOnUse"><stop offset="0"/><stop offset="0.42" stop-color="#868486"/><stop offset="0.49" stop-color="#9d9a9d"/><stop offset="0.6" stop-color="#a19ea1"/><stop offset="0.73" stop-color="#aeabad"/><stop offset="0.85" stop-color="#c4c1c1"/><stop offset="0.98" stop-color="#e2dfdd"/><stop offset="1" stop-color="#e8e5e3"/></linearGradient><linearGradient id="linear-gradient-18" x1="672.76" y1="1790.79" x2="594.95" y2="1849.89" gradientTransform="matrix(-0.69, 0.72, 0.72, 0.69, -188.25, -844.73)" xlink:href="#linear-gradient-13"/><linearGradient id="linear-gradient-19" x1="607.81" y1="1802.88" x2="689.47" y2="1802.88" xlink:href="#linear-gradient-17"/><linearGradient id="linear-gradient-20" x1="673.97" y1="1775.1" x2="592.27" y2="1837.15" gradientTransform="matrix(-0.69, 0.72, 0.72, 0.69, -188.25, -844.73)" xlink:href="#linear-gradient-13"/><linearGradient id="linear-gradient-21" x1="961.04" y1="452.37" x2="1034.87" y2="404.18" gradientUnits="userSpaceOnUse"><stop offset="0.3" stop-color="#ff004e"/><stop offset="0.33" stop-color="#f9004c"/><stop offset="0.37" stop-color="#e90045"/><stop offset="0.41" stop-color="#ce0039"/><stop offset="0.46" stop-color="#a90029"/><stop offset="0.51" stop-color="#7a0015"/><stop offset="0.55" stop-color="#490000"/></linearGradient><radialGradient id="radial-gradient" cx="391.24" cy="1537.44" r="109.44" gradientUnits="userSpaceOnUse"><stop offset="0.27" stop-color="#fff63d"/><stop offset="0.61" stop-color="#ffc31a"/><stop offset="0.78" stop-color="#ffaf0c"/><stop offset="0.87" stop-color="#ffb50c"/><stop offset="1" stop-color="#ffc70c"/></radialGradient><linearGradient id="linear-gradient-22" x1="328.93" y1="1695.82" x2="427.19" y2="1695.82" gradientUnits="userSpaceOnUse"><stop offset="0.01" stop-color="#fff"/><stop offset="0.07" stop-color="#ddd"/><stop offset="0.17" stop-color="#aaa"/><stop offset="0.27" stop-color="#7c7c7c"/><stop offset="0.38" stop-color="#565656"/><stop offset="0.48" stop-color="#373737"/><stop offset="0.6" stop-color="#1f1f1f"/><stop offset="0.71" stop-color="#0d0d0d"/><stop offset="0.84" stop-color="#030303"/><stop offset="1"/></linearGradient><linearGradient id="linear-gradient-23" x1="328.37" y1="1691.14" x2="427.76" y2="1691.14" xlink:href="#linear-gradient-22"/><linearGradient id="linear-gradient-24" x1="323.95" y1="1699.23" x2="432.18" y2="1699.23" xlink:href="#linear-gradient-22"/></defs><g id="Layer_3" data-name="Layer 3"><ellipse class="cls-1" cx="1207.31" cy="352.27" rx="124.24" ry="88.47" transform="translate(634.18 1333.5) rotate(-89.3)"/><ellipse class="cls-1" cx="1207.31" cy="352.27" rx="87.35" ry="62.21" transform="translate(634.18 1333.5) rotate(-89.3)"/><ellipse class="cls-1" cx="1207.31" cy="352.27" rx="46.82" ry="33.34" transform="translate(634.18 1333.5) rotate(-89.3)"/></g><g id="Layer_2" data-name="Layer 2"><polygon class="cls-2" points="817.75 1499.08 627.06 1388.26 626.41 1159.7 817.1 1270.51 817.75 1499.08"/><polygon class="cls-3" points="817.1 1270.51 626.41 1159.7 825.31 1044.86 1016 1155.67 817.1 1270.51"/><polygon class="cls-4" points="1016 1155.67 1016.64 1384.24 817.75 1499.08 817.1 1270.51 1016 1155.67"/><polygon class="cls-2" points="817.08 1266.11 626.4 1155.29 625.75 926.73 816.43 1037.54 817.08 1266.11"/><polygon class="cls-3" points="816.43 1037.54 625.75 926.73 824.65 811.89 1015.33 922.71 816.43 1037.54"/><polygon class="cls-4" points="1015.33 922.71 1015.98 1151.27 817.08 1266.11 816.43 1037.54 1015.33 922.71"/><polygon class="cls-2" points="816.43 1033.75 625.74 922.94 625.1 694.37 815.78 805.18 816.43 1033.75"/><polygon class="cls-3" points="815.78 805.18 625.1 694.37 824 579.53 1014.68 690.35 815.78 805.18"/><polygon class="cls-4" points="1014.68 690.35 1015.33 918.92 816.43 1033.75 815.78 805.18 1014.68 690.35"/><polygon class="cls-2" points="817.09 801.13 626.4 690.32 625.75 461.74 816.44 572.56 817.09 801.13"/><polygon class="cls-3" points="816.44 572.56 625.75 461.74 824.65 346.91 1015.34 457.72 816.44 572.56"/><polygon class="cls-4" points="1015.34 457.72 1015.99 686.29 817.09 801.13 816.44 572.56 1015.34 457.72"/><polygon class="cls-2" points="608.84 1621.04 418.15 1510.23 417.5 1281.66 608.19 1392.47 608.84 1621.04"/><polygon class="cls-3" points="608.19 1392.47 417.5 1281.66 616.4 1166.83 807.09 1277.64 608.19 1392.47"/><polygon class="cls-4" points="807.09 1277.64 807.73 1506.21 608.84 1621.04 608.19 1392.47 807.09 1277.64"/><polygon class="cls-2" points="608.17 1388.08 417.49 1277.26 416.84 1048.69 607.52 1159.51 608.17 1388.08"/><polygon class="cls-3" points="607.52 1159.51 416.84 1048.69 615.74 933.86 806.42 1044.67 607.52 1159.51"/><polygon class="cls-4" points="806.42 1044.67 807.07 1273.24 608.17 1388.08 607.52 1159.51 806.42 1044.67"/><polygon class="cls-2" points="607.52 1155.72 416.83 1044.9 416.18 816.33 606.87 927.15 607.52 1155.72"/><polygon class="cls-3" points="606.87 927.15 416.18 816.33 615.08 701.5 805.77 812.31 606.87 927.15"/><polygon class="cls-4" points="805.77 812.31 806.42 1040.88 607.52 1155.72 606.87 927.15 805.77 812.31"/><polygon class="cls-2" points="398.46 1742.48 207.78 1631.67 207.13 1403.1 397.81 1513.92 398.46 1742.48"/><polygon class="cls-3" points="397.81 1513.92 207.13 1403.1 406.03 1288.27 596.72 1399.08 397.81 1513.92"/><polygon class="cls-4" points="596.72 1399.08 597.36 1627.65 398.46 1742.48 397.81 1513.92 596.72 1399.08"/><polygon class="cls-2" points="191.33 1861.97 0.65 1751.16 0 1522.59 190.68 1633.4 191.33 1861.97"/><polygon class="cls-3" points="190.68 1633.4 0 1522.59 198.9 1407.75 389.58 1518.57 190.68 1633.4"/><polygon class="cls-4" points="389.58 1518.57 390.23 1747.13 191.33 1861.97 190.68 1633.4 389.58 1518.57"/><polygon class="cls-2" points="398.14 1509.27 207.46 1398.45 206.81 1169.88 397.49 1280.7 398.14 1509.27"/><polygon class="cls-3" points="397.49 1280.7 206.81 1169.88 405.71 1055.05 596.39 1165.86 397.49 1280.7"/><polygon class="cls-4" points="596.39 1165.86 597.04 1394.43 398.14 1509.27 397.49 1280.7 596.39 1165.86"/><polygon class="cls-5" points="343.01 1898.27 293.76 1794.5 301.31 1789.09 353.55 1895.96 343.01 1898.27"/><polygon class="cls-5" points="392.8 1862.62 343.55 1758.85 351.1 1753.44 403.35 1860.31 392.8 1862.62"/><polygon class="cls-5" points="310.34 1609.77 293.76 1794.5 301.31 1789.09 317.89 1610.46 310.34 1609.77"/><polygon class="cls-5" points="356.88 1576.4 343.55 1758.82 351.12 1753.4 364.43 1577.09 356.88 1576.4"/><polygon class="cls-6" points="391.78 1837.5 385.32 1836.81 388.5 1864.89 394.96 1865.58 391.78 1837.5"/><polygon class="cls-6" points="386.71 1792.69 380.25 1792 384.38 1828.53 390.85 1829.21 386.71 1792.69"/><polygon class="cls-6" points="381.64 1747.88 375.17 1747.19 379.31 1783.72 385.77 1784.4 381.64 1747.88"/><polygon class="cls-6" points="376.56 1703.07 370.1 1702.39 374.23 1738.91 380.7 1739.6 376.56 1703.07"/><polygon class="cls-6" points="371.49 1658.26 365.02 1657.58 369.16 1694.1 375.62 1694.79 371.49 1658.26"/><polygon class="cls-6" points="366.42 1613.45 359.95 1612.77 364.09 1649.29 370.55 1649.98 366.42 1613.45"/><polygon class="cls-6" points="390.85 1829.21 384.38 1828.53 342.97 1858.9 349.44 1859.59 390.85 1829.21"/><polygon class="cls-6" points="362.3 1577.09 355.83 1576.4 359.01 1604.48 365.48 1605.17 362.3 1577.09"/><polygon class="cls-6" points="366.38 1574.09 359.92 1573.4 355.83 1576.4 362.3 1577.09 366.38 1574.09"/><polygon class="cls-6" points="385.77 1784.4 379.31 1783.72 337.9 1814.09 344.36 1814.78 385.77 1784.4"/><polygon class="cls-6" points="380.7 1739.6 374.23 1738.91 332.82 1769.28 339.29 1769.97 380.7 1739.6"/><polygon class="cls-6" points="375.62 1694.79 369.16 1694.1 327.75 1724.48 334.21 1725.16 375.62 1694.79"/><polygon class="cls-6" points="370.55 1649.98 364.09 1649.29 322.68 1679.67 329.14 1680.35 370.55 1649.98"/><polygon class="cls-6" points="365.48 1605.17 359.01 1604.48 317.6 1634.86 324.07 1635.54 365.48 1605.17"/><polygon class="cls-6" points="320.89 1607.46 314.42 1606.78 310.34 1609.77 316.81 1610.46 320.89 1607.46"/><path class="cls-6" d="M530.2,1857.22l41.41-30.37-3.18-28.08,4.08-3,32.67,288.5-4.08,3-3.18-28.08-41.41,30.38,3.18,28.08-4.08,3-32.67-288.49,4.08-3Zm5.08,44.82,41.4-30.38-4.13-36.53-41.41,30.38,4.14,36.53m10.14,89.61,41.41-30.37-4.13-36.53-41.41,30.38,4.13,36.52m-5.07-44.81,41.41-30.37L577.62,1880l-41.41,30.37,4.14,36.52m15.22,134.43L597,2050.89l-4.14-36.52-41.4,30.38,4.13,36.52m-5.07-44.81,41.41-30.38-4.14-36.52-41.41,30.38,4.14,36.52" transform="translate(-206.13 -221.68)"/><polygon class="cls-6" points="316.81 1610.46 310.34 1609.77 343.01 1898.27 349.47 1898.95 316.81 1610.46"/><polygon class="cls-5" points="498.81 1163.4 549.06 1128.83 528.42 952.76 519.64 949.89 535.88 1121.81 488.51 1157.84 498.81 1163.4"/><polygon class="cls-5" points="546.14 1190.37 596.39 1155.8 575.75 979.73 566.98 976.86 583.22 1148.78 535.85 1184.81 546.14 1190.37"/><polygon class="cls-6" points="496.15 1140.2 502.78 1139.64 499.52 1162.82 492.9 1163.39 496.15 1140.2"/><polygon class="cls-6" points="501.35 1103.21 507.98 1102.65 503.74 1132.8 497.12 1133.36 501.35 1103.21"/><polygon class="cls-6" points="506.55 1066.22 513.18 1065.65 508.94 1095.81 502.32 1096.37 506.55 1066.22"/><polygon class="cls-6" points="511.75 1029.23 518.38 1028.66 514.14 1058.82 507.52 1059.38 511.75 1029.23"/><polygon class="cls-6" points="516.95 992.24 523.58 991.67 519.34 1021.82 512.72 1022.39 516.95 992.24"/><polygon class="cls-6" points="522.15 955.25 528.78 954.68 524.54 984.83 517.91 985.4 522.15 955.25"/><polygon class="cls-6" points="497.12 1133.36 503.74 1132.8 546.18 1157.87 539.55 1158.44 497.12 1133.36"/><polygon class="cls-6" points="526.37 925.23 533 924.66 529.74 947.84 523.12 948.41 526.37 925.23"/><polygon class="cls-6" points="522.19 922.75 528.81 922.19 533 924.66 526.37 925.23 522.19 922.75"/><polygon class="cls-6" points="502.32 1096.37 508.94 1095.81 551.38 1120.88 544.75 1121.45 502.32 1096.37"/><polygon class="cls-6" points="507.52 1059.38 514.14 1058.82 556.58 1083.89 549.95 1084.46 507.52 1059.38"/><polygon class="cls-6" points="512.72 1022.39 519.34 1021.82 561.78 1046.9 555.15 1047.47 512.72 1022.39"/><polygon class="cls-6" points="517.91 985.4 524.54 984.83 566.98 1009.91 560.35 1010.48 517.91 985.4"/><polygon class="cls-6" points="523.12 948.41 529.74 947.84 572.18 972.92 565.55 973.48 523.12 948.41"/><polygon class="cls-6" points="568.81 950.3 575.43 949.74 579.62 952.21 572.99 952.77 568.81 950.3"/><path class="cls-6" d="M775,1172l4.18,2.48-33.48,238.16-4.18-2.48,3.26-23.18-42.44-25.08L699,1385.07l-4.18-2.47,33.47-238.17,4.19,2.48-3.26,23.18,42.44,25.07Zm-8.46,60.18,4.24-30.15-42.44-25.08-4.24,30.15,42.44,25.08m-10.4,74,4.24-30.15-42.44-25.08-4.24,30.15,42.44,25.08m5.2-37,4.23-30.15-42.43-25.08-4.24,30.15,42.44,25.08m-15.6,111,4.24-30.15-42.44-25.08L703.25,1355l42.44,25.08m5.2-37,4.24-30.15-42.44-25.08-4.24,30.15,42.44,25.08" transform="translate(-206.13 -221.68)"/><polygon class="cls-6" points="572.99 952.77 579.62 952.21 546.14 1190.37 539.52 1190.93 572.99 952.77"/><polygon class="cls-5" points="705.33 812.32 755.58 777.75 734.94 601.68 726.17 598.81 742.41 770.73 695.04 806.76 705.33 812.32"/><polygon class="cls-5" points="752.66 839.29 802.92 804.72 782.27 628.65 773.5 625.78 789.74 797.7 742.37 833.73 752.66 839.29"/><polygon class="cls-6" points="702.68 789.12 709.3 788.56 706.04 811.74 699.42 812.31 702.68 789.12"/><polygon class="cls-6" points="707.88 752.13 714.5 751.57 710.26 781.72 703.64 782.28 707.88 752.13"/><polygon class="cls-6" points="713.08 715.14 719.7 714.58 715.46 744.73 708.84 745.29 713.08 715.14"/><polygon class="cls-6" points="718.28 678.15 724.9 677.59 720.66 707.74 714.04 708.3 718.28 678.15"/><polygon class="cls-6" points="723.48 641.16 730.1 640.6 725.86 670.75 719.24 671.31 723.48 641.16"/><polygon class="cls-6" points="728.68 604.17 735.3 603.6 731.06 633.75 724.44 634.32 728.68 604.17"/><polygon class="cls-6" points="703.64 782.28 710.26 781.72 752.7 806.79 746.08 807.36 703.64 782.28"/><polygon class="cls-6" points="732.9 574.15 739.52 573.58 736.26 596.76 729.64 597.33 732.9 574.15"/><polygon class="cls-6" points="728.71 571.67 735.34 571.11 739.52 573.58 732.9 574.15 728.71 571.67"/><polygon class="cls-6" points="708.84 745.29 715.46 744.73 757.9 769.8 751.27 770.37 708.84 745.29"/><polygon class="cls-6" points="714.04 708.3 720.66 707.74 763.1 732.81 756.48 733.38 714.04 708.3"/><polygon class="cls-6" points="719.24 671.31 725.86 670.75 768.3 695.82 761.67 696.39 719.24 671.31"/><polygon class="cls-6" points="724.44 634.32 731.06 633.75 773.5 658.83 766.87 659.4 724.44 634.32"/><polygon class="cls-6" points="729.64 597.33 736.26 596.76 778.7 621.84 772.07 622.4 729.64 597.33"/><polygon class="cls-6" points="775.33 599.22 781.96 598.66 786.14 601.13 779.52 601.7 775.33 599.22"/><path class="cls-6" d="M981.47,820.9l4.18,2.48-33.48,238.16-4.18-2.47,3.26-23.19-42.44-25.07L905.55,1034l-4.18-2.47,33.48-238.16,4.18,2.47L935.77,819l42.44,25.08ZM973,881.08l4.24-30.15-42.44-25.08L930.57,856,973,881.08m-10.4,74,4.24-30.15-42.44-25.08L920.17,930l42.44,25.08m5.2-37,4.24-30.15-42.44-25.08L925.37,893l42.44,25.08m-15.6,111,4.24-30.15L914,973.82,909.77,1004,952.21,1029m5.2-37,4.24-30.15-42.44-25.08L915,967l42.44,25.08" transform="translate(-206.13 -221.68)"/><polygon class="cls-6" points="779.52 601.7 786.14 601.13 752.66 839.29 746.04 839.86 779.52 601.7"/><polygon class="cls-5" points="287.91 1499.32 338.16 1464.74 317.52 1288.68 308.74 1285.81 324.99 1457.72 277.61 1493.76 287.91 1499.32"/><polygon class="cls-5" points="335.24 1526.28 385.49 1491.71 364.85 1315.64 356.08 1312.78 372.32 1484.69 324.95 1520.72 335.24 1526.28"/><polygon class="cls-6" points="285.25 1476.12 291.88 1475.55 288.62 1498.73 282 1499.3 285.25 1476.12"/><polygon class="cls-6" points="290.45 1439.13 297.08 1438.56 292.84 1468.71 286.22 1469.28 290.45 1439.13"/><polygon class="cls-6" points="295.65 1402.14 302.28 1401.57 298.04 1431.72 291.42 1432.29 295.65 1402.14"/><polygon class="cls-6" points="300.85 1365.15 307.48 1364.58 303.24 1394.73 296.62 1395.3 300.85 1365.15"/><polygon class="cls-6" points="306.05 1328.15 312.68 1327.59 308.44 1357.74 301.82 1358.31 306.05 1328.15"/><polygon class="cls-6" points="311.25 1291.16 317.88 1290.6 313.64 1320.75 307.01 1321.32 311.25 1291.16"/><polygon class="cls-6" points="286.22 1469.28 292.84 1468.71 335.28 1493.79 328.65 1494.35 286.22 1469.28"/><polygon class="cls-6" points="315.47 1261.14 322.1 1260.57 318.84 1283.76 312.22 1284.32 315.47 1261.14"/><polygon class="cls-6" points="311.29 1258.67 317.91 1258.1 322.1 1260.57 315.47 1261.14 311.29 1258.67"/><polygon class="cls-6" points="291.42 1432.29 298.04 1431.72 340.48 1456.8 333.85 1457.36 291.42 1432.29"/><polygon class="cls-6" points="296.62 1395.3 303.24 1394.73 345.68 1419.81 339.05 1420.37 296.62 1395.3"/><polygon class="cls-6" points="301.82 1358.31 308.44 1357.74 350.88 1382.82 344.25 1383.38 301.82 1358.31"/><polygon class="cls-6" points="307.01 1321.32 313.64 1320.75 356.08 1345.82 349.45 1346.39 307.01 1321.32"/><polygon class="cls-6" points="312.22 1284.32 318.84 1283.76 361.28 1308.83 354.65 1309.4 312.22 1284.32"/><polygon class="cls-6" points="357.91 1286.22 364.53 1285.65 368.72 1288.12 362.09 1288.69 357.91 1286.22"/><path class="cls-6" d="M564.05,1507.9l4.18,2.47-33.48,238.16-4.18-2.47,3.26-23.18-42.44-25.08L488.13,1721l-4.18-2.47,33.47-238.16,4.19,2.47L518.35,1506l42.44,25.08Zm-8.46,60.17,4.24-30.15-42.44-25.08L513.15,1543l42.44,25.07m-10.4,74,4.24-30.15L507,1586.83,502.75,1617l42.44,25.07m5.2-37,4.24-30.15-42.44-25.07L508,1580l42.44,25.07m-15.6,111,4.24-30.14-42.44-25.08L492.35,1691,534.79,1716m5.2-37,4.24-30.15-42.44-25.07L497.55,1654,540,1679" transform="translate(-206.13 -221.68)"/><polygon class="cls-6" points="362.09 1288.69 368.72 1288.12 335.24 1526.28 328.62 1526.85 362.09 1288.69"/></g><g id="Layer_1" data-name="Layer 1"><ellipse class="cls-5" cx="412.49" cy="1190.94" rx="60.35" ry="16.65"/><ellipse class="cls-5" cx="619.07" cy="810.39" rx="46.07" ry="12.71"/><ellipse class="cls-5" cx="1051.89" cy="667.83" rx="19.24" ry="81.32" transform="translate(-218.11 1094.74) rotate(-63.78)"/><ellipse class="cls-5" cx="203.54" cy="1538.55" rx="41.45" ry="11.43"/><path class="cls-7" d="M647.44,1154h0l-34.37-19.9h0c-15.45-9.21-35.72-8.51-57.92,4.31-48.45,28-87.72,103-87.72,167.6,0,36,12.23,61.2,31.46,71.56l34.32,19.88h0c15.43,9.1,35.63,8.35,57.75-4.42,48.44-28,87.71-103,87.71-167.59C678.66,1189.52,666.53,1164.42,647.44,1154Z" transform="translate(-206.13 -221.68)"/><path class="cls-8" d="M678.66,1225.42C678.66,1290,639.39,1365,591,1393s-87.72-1.72-87.72-66.31S542.5,1187.08,591,1159.11,678.66,1160.83,678.66,1225.42Z" transform="translate(-206.13 -221.68)"/><path class="cls-9" d="M659.78,1239.6h0l-14.14-8.21,0,0-.1-.06h0a5.39,5.39,0,0,0-1.76-.66L576,1217.61c-7.41-1.42-16.67,11.06-16.67,22.47v104.36c0,4.57,1.48,7.59,3.74,8.93h0l.05,0,.08,0,14.12,8.19h0c3.38,2.08,8.53.35,13-5.68l67.78-91.32C664.86,1255.5,665.43,1242.78,659.78,1239.6Z" transform="translate(-206.13 -221.68)"/><path class="cls-10" d="M590.29,1225.92l67.78,13c7.42,1.43,7.42,15.69,0,25.67L590.29,1356c-7.41,10-16.67,8.2-16.67-3.21V1248.39C573.62,1237,582.88,1224.5,590.29,1225.92Z" transform="translate(-206.13 -221.68)"/><path class="cls-11" d="M786.49,996.49c3.08-3.19,3.15-5.46,3.18-5.57l4.64,13.25-12.77-4.54A12,12,0,0,0,786.49,996.49Z" transform="translate(-206.13 -221.68)"/><path class="cls-12" d="M792.63,1002.06l.28.05-.65-1.68a237.28,237.28,0,0,0-17.79-47.66c-.41-.82-.72-1.42-.72-1.42l-1.12,1.16,0,0L741.25,985a10,10,0,0,0,1.37.74,238.77,238.77,0,0,0,47.81,15.95l2.28.79Z" transform="translate(-206.13 -221.68)"/><path class="cls-13" d="M682.79,842.87l-17.51,18.41L768.2,966.78s2.83-.25,5.62-5a10.23,10.23,0,0,0,1-7.33,26.24,26.24,0,0,0-3-6.55Z" transform="translate(-206.13 -221.68)"/><path class="cls-14" d="M665.6,861l-18.46,19.4,109.43,98.44s6.88,1.34,10.46-2.48,1-9.84,1-9.84Z" transform="translate(-206.13 -221.68)"/><path class="cls-15" d="M647.14,880.36l-17.46,18.35L739.1,983.48l2.4,1.54s5.08,2.34,11.4-1.14c1.37-.75,3.24-2,3.74-2.89,1.47-2.32.15-2.48.15-2.48Z" transform="translate(-206.13 -221.68)"/><polygon class="cls-16" points="436.68 663.83 441.2 659.09 550.33 756.43 550.68 756.95 550.02 756.69 436.68 663.83"/><polygon class="cls-17" points="459.66 639.17 464.19 634.41 562.45 744.84 562.37 745.35 562.05 745.42 459.66 639.17"/><path class="cls-18" d="M593.85,871.83c13.93,1.84,40.59-23.45,40.59-23.45,23.79-20.45,20-39.52,20-39.52l35.11,41.7a2.54,2.54,0,0,1,.93.64,2.9,2.9,0,0,1,.68,1.3,5,5,0,0,1,.15,1.72c-.28,6.34-4.43,20.87-16.47,33.54-14.48,15.23-32.06,21.57-36.32,18.09a2.73,2.73,0,0,1-.71-.9Z" transform="translate(-206.13 -221.68)"/><path class="cls-19" d="M774.53,953.1a35.07,35.07,0,0,0-2.74-5.27,46.52,46.52,0,0,1,2.58,5.23,9,9,0,0,1-.3,7.13c-2.51,5.35-5.89,6.52-5.89,6.52l.06.11-.12-.11s1.63,5.1-2,8.85c-3.19,3.27-8.08,3.24-9.05,3.2l-.17-.07s-.78,2.53-5.69,5.23a10.9,10.9,0,0,1-7.83,1.23,14.28,14.28,0,0,1-5.41-2.6,11.66,11.66,0,0,0,11.47,3.15c5.74-1.48,8-5.21,8.47-6.25,1.38.18,6.34.55,9.39-2.7,3.48-3.7,1.86-8.85,1.77-9.13,1-.66,4.18-2.89,5.32-6.13A11.64,11.64,0,0,0,774.53,953.1Z" transform="translate(-206.13 -221.68)"/><path class="cls-20" d="M566.55,839.63c-.07-6.62,6.23-11,26-32a109.18,109.18,0,0,1,18.73-16.08c14.78-10.24,15-14,15-14l28.55,31.74c.43,2.76,5.28,22-16.05,44.3,0,0-21,23.73-44.07,19l-31-27.34C562.64,844.13,566.57,842,566.55,839.63Z" transform="translate(-206.13 -221.68)"/><path class="cls-21" d="M656,810.57s5.39,22.78-16.16,43.77c0,0-23.08,24.86-44.33,18.82l-1.1-.83s18.9,6.54,44.35-19C660.78,831.16,655,809.44,655,809.44Z" transform="translate(-206.13 -221.68)"/><path class="cls-22" d="M616.14,829.42c16.66-19.32,20.07-43.69,7.63-54.41s-36-3.75-52.69,15.58S551,834.28,563.45,845,599.48,848.75,616.14,829.42Z" transform="translate(-206.13 -221.68)"/><path class="cls-23" d="M616.23,829.32c-14.28,16.57-33.65,24-46.73,19.09,13,3.23,30.85-4.32,44.25-19.87,16.66-19.32,20.08-43.69,7.63-54.41a19.88,19.88,0,0,0-6-3.51,20.28,20.28,0,0,1,8.44,4.29C636.31,785.63,632.89,810,616.23,829.32Z" transform="translate(-206.13 -221.68)"/><path class="cls-24" d="M775.37,952" transform="translate(-206.13 -221.68)"/><path d="M636.05,903.38c19.93,4.06,38-16.41,38-16.41,18.4-19.27,14.45-35.41,14.07-37.8l1.54,1.72c.38,2.38,4.68,18.63-13.73,37.9,0,0-18.09,20.47-38,16.41Z" transform="translate(-206.13 -221.68)"/><path class="cls-25" d="M636,904.69c-.13-.27-.3-1.08-.08-1.24,0,0,.58.86.61.86.2,0,0-.57.74.42.44.07.76.27,1.36.34l-.17-.17c.69.14,1.38.25,2.06.34,4.34.27,18.52,1.16,35.1-16,15.91-16.5,15.17-31.33,14.74-35.65-.11-.69-.24-1.37-.41-2.06l.17.17c-.09-.6-.55-.74-.64-1.18-2.71-1.76-.32-1.63.17-1.44a2.31,2.31,0,0,1,1.09.9,10.76,10.76,0,0,1,.93,2.61c.37,2.32,3.39,19.64-14.48,38.17S640.3,908.16,636.89,906A2.19,2.19,0,0,1,636,904.69Z" transform="translate(-206.13 -221.68)"/><path class="cls-26" d="M636.3,904.27c-.48-.64-.39-.8-.39-.8,2.39.28,19.38,3.68,37.87-15.49,0,0,10.64-10.34,14.18-24a34.11,34.11,0,0,0,.26-14.8s.16-.09.81.36a3.51,3.51,0,0,1,1.06,1.67s4.78,18.43-14.63,38.35S638,905.26,638,905.26A3.36,3.36,0,0,1,636.3,904.27Z" transform="translate(-206.13 -221.68)"/><path d="M624,894.4C645,898.66,664,877.17,664,877.17c19.32-20.23,15.17-37.19,14.78-39.69l1.61,1.8c.4,2.5,4.91,19.57-14.41,39.8,0,0-19,21.49-39.92,17.23Z" transform="translate(-206.13 -221.68)"/><path class="cls-27" d="M624,895.77c-.13-.28-.31-1.13-.08-1.3,0,0,.62.91.65.91.2,0,0-.6.77.44.46.07.8.28,1.43.35l-.18-.17c.72.14,1.45.26,2.17.35,4.55.28,19.44,1.22,36.85-16.83,16.7-17.32,15.92-32.89,15.47-37.43-.11-.72-.25-1.44-.43-2.16l.18.17c-.09-.63-.58-.77-.67-1.23-2.85-1.86-.34-1.72.18-1.51a2.34,2.34,0,0,1,1.14.94,11.49,11.49,0,0,1,1,2.74c.38,2.43,3.56,20.62-15.2,40.07s-38.73,18.3-42.3,16A2.32,2.32,0,0,1,624,895.77Z" transform="translate(-206.13 -221.68)"/><path class="cls-28" d="M624.29,895.33c-.5-.67-.41-.84-.41-.84,2.51.3,20.35,3.87,39.77-16.26,0,0,11.16-10.85,14.88-25.15a35.89,35.89,0,0,0,.28-15.54s.17-.1.85.37a3.61,3.61,0,0,1,1.11,1.75s5,19.35-15.36,40.27-39.33,16.45-39.33,16.45A3.63,3.63,0,0,1,624.29,895.33Z" transform="translate(-206.13 -221.68)"/><path class="cls-29" d="M1202.8,436.92l-58,215.92c-1.58,5.92-5.47,9.69-10,10.41q-8,1.26-15.89,2.55c4.49-.73,8.38-4.5,10-10.4l58-215.94a23.54,23.54,0,0,0-1.31-15.32l15.68-3A23.56,23.56,0,0,1,1202.8,436.92Z" transform="translate(-206.13 -221.68)"/><path class="cls-30" d="M1201.29,421.14l-15.68,3a18,18,0,0,0-7.08-8.37l-127.9-73.84a10.86,10.86,0,0,0-7.19-1.46l15.89-2.54a10.85,10.85,0,0,1,7.19,1.45l127.89,73.84A17.58,17.58,0,0,1,1201.29,421.14Z" transform="translate(-206.13 -221.68)"/><path class="cls-31" d="M1178.52,415.77c7,4.06,10.81,14.72,8.4,23.7l-58,215.92c-2.41,9-10.13,13-17.16,9L983.91,590.5c-7-4.06-10.8-14.72-8.39-23.7l58-215.92c2.41-9,10.13-13,17.15-8.95Z" transform="translate(-206.13 -221.68)"/><path class="cls-32" d="M1167.8,422.14l-112.29-64.83c-2.31-1.33-4.92,0-5.71,3l-58,215.92c-.79,2.95.49,6.57,2.8,7.9L1106.92,649c2.31,1.34,4.93,0,5.72-3l58-215.92c.79-2.95-.49-6.57-2.8-7.91" transform="translate(-206.13 -221.68)"/><path class="cls-33" d="M1149.72,399.24l-69-39.83-3.07,11.42c-1.61,6,.91,13.1,5.59,15.8l52,30c4.69,2.71,9.84,0,11.45-6l3.06-11.43" transform="translate(-206.13 -221.68)"/><polygon class="cls-33" points="874.59 137.73 890.27 134.72 959.27 174.56 943.59 177.56 874.59 137.73"/><path class="cls-33" d="M1151.86,449.23l-63.46-36.64c-.71-.41-1.47,0-1.72.89a2.19,2.19,0,0,0,.84,2.37L1151,452.49a1.17,1.17,0,0,0,1.72-.9,2.18,2.18,0,0,0-.84-2.36" transform="translate(-206.13 -221.68)"/><path class="cls-33" d="M1149.08,459.56l-63.46-36.64c-.7-.41-1.47,0-1.71.9a2.2,2.2,0,0,0,.83,2.37l63.47,36.64c.7.41,1.47,0,1.72-.9a2.18,2.18,0,0,0-.85-2.37" transform="translate(-206.13 -221.68)"/><path class="cls-34" d="M1075.39,394.29l-11.61-6.7c-3.75-2.17-7.88,0-9.17,4.78l-4,14.82c-1.29,4.8.74,10.5,4.49,12.67l11.61,6.7c3.75,2.17,7.88,0,9.17-4.78l4-14.82c1.29-4.8-.73-10.5-4.49-12.67" transform="translate(-206.13 -221.68)"/><path class="cls-33" d="M1073.7,404.34a1.06,1.06,0,0,0-.93-.09l-11.89,4.69-2.43-6.55a1.89,1.89,0,0,0-.76-1,1.08,1.08,0,0,0-1.06,0,2,2,0,0,0-.58,2.34l3,8a1.84,1.84,0,0,0,.76,1,1,1,0,0,0,.94.09l13-5.13a1.81,1.81,0,0,0,.76-2.21,1.9,1.9,0,0,0-.82-1.14" transform="translate(-206.13 -221.68)"/><path class="cls-33" d="M1136.65,502.21l-63.46-36.64c-.7-.41-1.47,0-1.71.89a2.19,2.19,0,0,0,.84,2.37l63.46,36.64c.7.41,1.48,0,1.72-.9a2.17,2.17,0,0,0-.85-2.36" transform="translate(-206.13 -221.68)"/><path class="cls-33" d="M1133.88,512.54l-63.46-36.64c-.71-.41-1.47,0-1.71.9a2.17,2.17,0,0,0,.83,2.37L1133,515.81c.71.41,1.48,0,1.72-.9a2.19,2.19,0,0,0-.84-2.37" transform="translate(-206.13 -221.68)"/><path class="cls-34" d="M1060.19,447.27l-11.61-6.7c-3.76-2.17-7.88,0-9.17,4.78l-4,14.83c-1.29,4.79.73,10.49,4.49,12.66l11.61,6.71c3.75,2.16,7.88,0,9.17-4.79l4-14.82c1.28-4.8-.74-10.5-4.49-12.67" transform="translate(-206.13 -221.68)"/><path class="cls-33" d="M1058.5,457.32a1.08,1.08,0,0,0-.94-.09l-11.88,4.69-2.43-6.55a1.84,1.84,0,0,0-.77-1,1,1,0,0,0-1,0,1.93,1.93,0,0,0-.58,2.34l3,8.06a1.8,1.8,0,0,0,.76.95,1,1,0,0,0,.93.09l13-5.12a1.81,1.81,0,0,0,.76-2.22,1.85,1.85,0,0,0-.81-1.14" transform="translate(-206.13 -221.68)"/><path class="cls-33" d="M1121.45,555.19,1058,518.55c-.71-.41-1.47,0-1.71.89a2.2,2.2,0,0,0,.83,2.37l63.47,36.64c.7.41,1.47,0,1.71-.9a2.15,2.15,0,0,0-.84-2.36" transform="translate(-206.13 -221.68)"/><path class="cls-33" d="M1118.68,565.52l-63.47-36.64c-.7-.41-1.46,0-1.71.9a2.19,2.19,0,0,0,.84,2.37l63.46,36.64c.71.41,1.48,0,1.72-.9a2.2,2.2,0,0,0-.84-2.37" transform="translate(-206.13 -221.68)"/><path class="cls-34" d="M1045,500.25l-11.6-6.7c-3.76-2.17-7.89,0-9.17,4.78l-4,14.83c-1.29,4.79.73,10.5,4.49,12.67l11.6,6.7c3.76,2.16,7.89,0,9.17-4.78l4-14.83c1.29-4.79-.73-10.5-4.49-12.67" transform="translate(-206.13 -221.68)"/><path class="cls-33" d="M1106.25,608.17l-63.47-36.64c-.7-.41-1.46,0-1.7.89a2.17,2.17,0,0,0,.83,2.37l63.46,36.64c.71.41,1.48,0,1.72-.89a2.2,2.2,0,0,0-.84-2.37" transform="translate(-206.13 -221.68)"/><path class="cls-33" d="M1103.47,618.5,1040,581.86c-.7-.4-1.47,0-1.71.9a2.19,2.19,0,0,0,.83,2.37l63.47,36.64c.7.41,1.47,0,1.71-.89a2.18,2.18,0,0,0-.84-2.38" transform="translate(-206.13 -221.68)"/><path class="cls-34" d="M1029.78,553.24l-11.61-6.71c-3.75-2.16-7.88,0-9.17,4.78l-4,14.83c-1.29,4.8.73,10.5,4.49,12.67l11.61,6.7c3.75,2.17,7.88,0,9.17-4.78l4-14.83c1.29-4.79-.73-10.5-4.49-12.66" transform="translate(-206.13 -221.68)"/><path class="cls-35" d="M1031.33,507.59l-1.27-.91-20.22-14.53,19.76-12.3,4.94,23.39.42,2C1035.64,508.46,1034,509.53,1031.33,507.59Z" transform="translate(-206.13 -221.68)"/><path class="cls-36" d="M962.16,371.06l66.43,106.46c2.33,3.74,1.64,9-2.06,12.85-4.53,4.74-11.84,5.67-16.33,2.09a8.73,8.73,0,0,1-2-2.23L941.78,383.77a8.73,8.73,0,0,0,2,2.23c4.49,3.58,11.79,2.65,16.32-2.09C963.8,380,964.49,374.8,962.16,371.06Z" transform="translate(-206.13 -221.68)"/><path class="cls-37" d="M960.16,368.83c4.49,3.58,4.46,10.33-.07,15.08s-11.83,5.67-16.32,2.09-4.46-10.33.07-15.08S955.68,365.25,960.16,368.83Z" transform="translate(-206.13 -221.68)"/><path class="cls-33" d="M1031.33,507.59l-1.27-.91a4.47,4.47,0,0,0,4.48-3.44l.42,2C1035.64,508.46,1034,509.53,1031.33,507.59Z" transform="translate(-206.13 -221.68)"/><path class="cls-38" d="M453,1580.2a90.58,90.58,0,0,0,16-54.84c-1.69-49.28-43.06-88.55-92.36-87.8a91,91,0,0,0-75.53,139.57h0c30.88,52.86,28.35,95.49,28.35,95.49l11.48,8.64,74,6.66L427.71,1672s0-18.74.08-20C428.26,1638.84,433.63,1613.74,453,1580.2Z" transform="translate(-206.13 -221.68)"/><ellipse class="cls-39" cx="378.07" cy="1672.62" rx="22.8" ry="49.69" transform="translate(-1501.41 1825.85) rotate(-89.89)"/><path class="cls-40" d="M342.89,1658c19.3-11.21,50.68-11.21,70.1,0,9.59,5.53,14.46,12.77,14.62,20h4.56c-.17-7.94-5.49-15.85-16-21.9-21.21-12.24-55.46-12.24-76.53,0-10.41,6-15.65,14-15.72,21.9h4.55C328.58,1670.79,333.37,1663.55,342.89,1658Z" transform="translate(-206.13 -221.68)"/><path class="cls-41" d="M412.7,1653.45c-19.25-8.46-50.38-8.46-69.5,0-9.53,4.22-14.28,9.74-14.27,15.27a4.71,4.71,0,0,0,0,.53,4.36,4.36,0,0,0,0,.51c0,.09,0,.18,0,.27s0,.18,0,.27.05.33.09.5.09.36.14.54l.14.5c.06.18.14.35.21.53s.12.33.19.5l.12.23a2.59,2.59,0,0,0,.14.29c.08.17.16.34.25.5s.21.35.32.52l.31.5c.11.17.25.34.38.52l.35.48a1.63,1.63,0,0,1,.17.2l.28.32h0l.4.47.51.51.46.46c.17.17.36.33.55.49l.52.47.21.16.36.29.06,0,.56.44c.22.17.46.33.7.49s.39.29.6.43l.66.41.11.07c.22.14.42.28.65.41l.79.45.14.08.25.15-.11,40.25a13.1,13.1,0,0,0,.08,1.39c0,.11,0,.23,0,.35.06.43.13.85.23,1.27l0,.12a13.26,13.26,0,0,0,.41,1.36c0,.12.09.23.13.35.16.4.33.79.52,1.18a1.11,1.11,0,0,0,.09.19,12.39,12.39,0,0,0,.75,1.32c.06.11.14.22.21.33.24.37.5.73.78,1.1l.18.23c.33.43.69.84,1.08,1.26l.28.29q.5.51,1.05,1l.18.17.12.11c.2.18.42.36.63.53l.48.4c.23.19.48.37.72.55l.49.36c.27.2.56.39.85.58l.45.3c.45.29.91.57,1.39.85.28.16.59.3.88.46l.81.42c.67.34,1.35.68,2.05,1l1.31.55c.72.3,1.45.57,2.19.83l.82.28.68.23,1,.3c.72.21,1.45.4,2.18.59l.94.23c1,.23,2.08.45,3.15.63h.07c.88.16,1.78.27,2.67.38l.49.07.91.1c.81.08,1.62.15,2.44.2l.94.06c1.08,0,2.17.09,3.26.09h0c1.07,0,2.14,0,3.2-.09l.95-.06c.82-.05,1.63-.12,2.44-.2l.89-.1q1.6-.18,3.18-.45l.35-.06c.72-.13,1.43-.28,2.14-.44l.61-.12,1-.24c.74-.18,1.47-.38,2.19-.59.3-.09.61-.17.91-.27,1-.3,1.93-.62,2.86-1l.06,0c.81-.31,1.59-.66,2.37-1l.44-.19.53-.25c.88-.43,1.75-.87,2.57-1.35.49-.28.95-.57,1.41-.87.15-.09.29-.19.43-.29l.88-.6.12-.1.29-.21c.31-.23.61-.47.9-.7l.43-.36c.28-.23.54-.47.8-.71l.37-.34c.31-.3.6-.6.88-.91l.16-.15c.32-.36.63-.73.92-1.09l.06-.09.23-.3c.16-.21.31-.42.46-.64s.19-.28.28-.43l.38-.61c.09-.15.17-.3.25-.45s.22-.41.32-.62.15-.31.21-.46.18-.41.26-.62l.18-.46c.07-.21.14-.42.2-.63s.1-.31.14-.46l.15-.67.09-.42c0-.25.07-.5.1-.75s0-.23,0-.35c0-.37.05-.74.05-1.1l.11-39.8.91-.47.17-.1.37-.21,1-.55.37-.24.21-.13c.27-.17.56-.34.82-.52s.38-.27.57-.4l.71-.51.54-.42.63-.51.49-.43c.19-.17.39-.34.57-.52a.3.3,0,0,0,.08-.08l.37-.37.5-.51.11-.13.29-.33c.14-.18.3-.35.44-.52a2.14,2.14,0,0,1,.13-.19l.21-.28c.13-.18.26-.35.38-.53l.15-.24.14-.23c.11-.18.23-.36.32-.54s.1-.2.15-.3l.09-.18c.09-.18.19-.35.27-.53s.09-.25.14-.37l0-.12c.07-.18.15-.36.2-.54s.09-.3.13-.45v0c.05-.18.1-.36.14-.54a4.17,4.17,0,0,0,.08-.49c0-.18.07-.36.09-.54s0-.33,0-.5C427.49,1663.62,422.67,1657.83,412.7,1653.45Zm-34.8,37Z" transform="translate(-206.13 -221.68)"/><ellipse class="cls-42" cx="171.92" cy="1443.99" rx="48.17" ry="21.93"/><path class="cls-10" d="M428.34,1553.31c-2.84-6.29-10.39-10.09-18.35-9.23a19.42,19.42,0,0,0-7,2.09,26.35,26.35,0,0,0-8.88-3.34l-.21,0c-.52-.06-1.09-.1-1.69-.12v0a22.9,22.9,0,0,0-13.11,3.11,24,24,0,0,0-14.4-3l-.22,0a26.38,26.38,0,0,0-8.87,3.34,19.48,19.48,0,0,0-7-2.09c-8-.86-15.52,2.94-18.36,9.23-4.36,9.68,0,19.1,2.94,25.33.49,1.06,1,2.07,1.3,2.9,5.74,14.09,9.37,30.49,12.15,44.68,1.7,8.64,3.22,26.28,3.35,35.11l4.83-.06c-.13-9-1.69-27.1-3.43-36-2.84-14.42-6.52-31.1-12.42-45.57-.39-1-.88-2-1.4-3.13-2.69-5.75-6.37-13.63-2.91-21.29,2-4.34,7.6-7,13.43-6.42a15.11,15.11,0,0,1,3.45.79,20.13,20.13,0,0,0-4,7.67c-1.52,5.3-.74,10.54,2.05,13.67a8.3,8.3,0,0,0,7.81,2.67c6.72-1.12,8.17-10.1,7.45-14.66l0-.13a19.12,19.12,0,0,0-5-9.55,24.33,24.33,0,0,1,5.48-1.76,19,19,0,0,1,9.47,1.46c-.34.34-.66.69-1,1-3.61,4.17-5.13,13.1-1.69,18.36,2.34,3.58,5.87,5.13,9.43,4.16,3.93-1.08,6.71-5,6.92-9.75.24-5.66-1.42-10.34-4.84-13.75a19,19,0,0,1,9.59-1.52,24.26,24.26,0,0,1,5.49,1.76,19.12,19.12,0,0,0-5,9.55l0,.13c-.71,4.56.73,13.54,7.45,14.66A8.33,8.33,0,0,0,409,1571c2.78-3.13,3.57-8.37,2.05-13.67a20.14,20.14,0,0,0-4-7.67,15.23,15.23,0,0,1,3.45-.79c5.83-.62,11.48,2.08,13.44,6.42,3.45,7.66-.22,15.54-2.91,21.29-.52,1.12-1,2.18-1.4,3.13-5.9,14.47-9.59,31.15-12.42,45.57-1.74,8.88-3.3,26.94-3.43,36l4.83.06c.13-8.83,1.65-26.47,3.34-35.11,2.79-14.19,6.41-30.59,12.15-44.68.35-.83.82-1.84,1.31-2.9C428.32,1572.41,432.71,1563,428.34,1553.31Zm-68.27,6.52c.37,2.54-.35,8.56-3.48,9.08a3.48,3.48,0,0,1-3.41-1.12c-1.67-1.87-2.07-5.45-1-9.11a14.78,14.78,0,0,1,3.59-6.5A14.12,14.12,0,0,1,360.07,1559.83Zm20.21,8.1c-1.48.41-2.93-.35-4.1-2.13-2.18-3.34-1.1-9.8,1.29-12.55a15.87,15.87,0,0,1,1.7-1.68c3.19,2.52,4.69,6.24,4.48,11.07C383.52,1565.68,381.81,1567.51,380.28,1567.93Zm25.1-.14a3.5,3.5,0,0,1-3.42,1.12c-3.12-.52-3.84-6.54-3.47-9.08a14.12,14.12,0,0,1,4.31-7.65,14.88,14.88,0,0,1,3.59,6.5C407.44,1562.34,407.05,1565.92,405.38,1567.79Z" transform="translate(-206.13 -221.68)"/><path class="cls-43" d="M423.29,1665.8l-.44.54-.15.18c-.2.24-.41.47-.62.71l-.15.15-.51.55-.24.24-.48.47-.25.24c-.17.16-.35.33-.54.49l-.21.19c-.25.23-.51.45-.78.67l-.14.12-.68.54-.28.22-.59.44-.32.24-.5.35-.35.24-.53.36-.35.23-.6.38-.3.19-.94.56c-.54.31-1.09.62-1.65.91l-.34.18-1.66.83-.31.14-1.42.64-.54.23q-.9.39-1.83.75l-.08,0c-.59.23-1.2.45-1.81.66l-.59.2c-.46.16-.92.31-1.39.45l-.62.19c-.54.17-1.09.32-1.65.47l-.33.1c-.66.18-1.33.34-2,.5l-.56.13c-.51.12-1,.23-1.52.33l-.63.13-1.69.32-.38.06c-.68.12-1.37.23-2.06.33l-.55.07-1.6.2-.63.08-1.86.18-.26,0c-.71.06-1.41.11-2.12.15l-.59,0-1.61.07-.63,0-2.07,0h-.07l-2.13,0-.62,0-1.61-.07-.6,0c-.71,0-1.42-.09-2.12-.15H371l-2-.19-.63-.08-1.54-.19-.66-.09-2-.31-.1,0c-.7-.12-1.39-.25-2.08-.39l-.62-.13-1.47-.32-.68-.16-1.52-.38-.51-.13q-1-.27-2-.57l-.42-.13-1.62-.52-.36-.12c-.62-.22-1.22-.43-1.82-.66l-.29-.11c-.6-.23-1.19-.47-1.78-.72l-.1,0c-.6-.26-1.19-.52-1.77-.79l-.32-.15c-.56-.27-1.11-.54-1.66-.83l-.31-.16c-.57-.3-1.13-.6-1.68-.92l-.93-.55-.29-.18-.61-.38-.34-.23-.52-.34-.36-.25-.48-.33-.36-.27-.45-.33-.35-.27-.42-.33-.35-.27-.4-.33-.33-.29-.39-.33c-5.39-4.78-8.08-10.29-8.07-15.79l0,7.65-.13,37.61v.87a19.26,19.26,0,0,0,4.42,11.93l.06.08.74.9.05,0c.23.27.47.53.71.79l.16.17c.26.28.53.55.81.82l.12.12.72.67.13.12h0l.14.12.39.34.33.28.4.33.34.28.43.33.35.27.45.33.36.26.48.34.35.24.53.35.34.22c.2.13.4.26.61.38l.29.18c.3.19.61.37.93.55s.76.43,1.15.64l.53.29.31.16c.54.28,1.1.56,1.66.82l.32.15c.58.27,1.17.54,1.77.79l.1,0,1.78.71.28.11c.6.23,1.21.45,1.82.66l.37.12.47.16,1.14.37.42.13c.66.2,1.32.38,2,.56l.51.14,1.53.38.68.16,1.47.32.62.13,2.07.39h.11c.66.12,1.33.22,2,.31l.66.09.84.11.69.09.63.07c.65.07,1.3.14,1.95.19l.17,0c.71.06,1.42.1,2.13.14l.6,0c.54,0,1.07,0,1.61.06l.62,0q1.07,0,2.13,0h.07q1,0,2.07,0l.63,0,1.61-.06.59,0,2.12-.15.26,0,1.86-.18.63-.07,1.6-.2.54-.08c.7-.1,1.38-.2,2.07-.32l.37-.07,1.7-.31.62-.13.58-.13,1-.2.56-.13c.67-.16,1.34-.33,2-.51l.33-.09,1.65-.47.62-.19,1.39-.45.59-.2c.61-.21,1.22-.43,1.82-.66l.06,0c.62-.23,1.24-.48,1.84-.74l.54-.23.74-.33.68-.31.31-.15c.56-.26,1.11-.54,1.66-.82l.33-.18c.56-.3,1.12-.6,1.66-.92.32-.18.63-.37.93-.56l.31-.19.6-.38.35-.22.53-.36.35-.24.49-.35.16-.12.17-.12.58-.44.29-.22.68-.55.14-.11c.27-.22.53-.45.78-.67l.21-.19.54-.5.25-.24.48-.47c.08-.08.16-.15.23-.23s.35-.37.52-.55l.15-.16c.21-.23.42-.47.62-.71l.15-.18.44-.54.08-.1h0l.13-.17.29-.39.21-.29c.1-.13.19-.26.28-.4l.19-.28c.09-.14.18-.27.26-.41l.18-.28c.09-.14.17-.28.25-.42l.16-.27c.08-.16.17-.31.25-.46l.12-.24c.11-.21.21-.42.31-.63l0-.07.31-.7c0-.07.05-.14.08-.22s.14-.32.2-.49l.09-.27c.06-.15.11-.29.16-.44l.09-.29.12-.42.09-.31c0-.13.07-.27.1-.41s.05-.21.07-.31l.09-.41.06-.31.06-.42c0-.1,0-.2,0-.3s0-.3.05-.44l0-.28,0-.49c0-.08,0-.16,0-.23,0-.25,0-.49,0-.73v0l.13-40.63,0-5.44A19.18,19.18,0,0,1,423.29,1665.8Z" transform="translate(-206.13 -221.68)"/><path class="cls-44" d="M432.15,1679.2c0,.08,0,.17,0,.26s0,.41-.05.61l0,.29-.09.65,0,.22c-.05.29-.1.58-.16.86,0,.07,0,.14,0,.2,0,.21-.09.41-.14.61s-.06.2-.08.29l-.15.53c0,.1-.07.2-.1.31l-.17.51-.11.3-.21.54-.11.27c-.1.24-.21.49-.32.73l0,.06c-.12.27-.25.53-.39.8l-.13.24c-.1.18-.19.37-.3.55l-.17.29c-.09.16-.19.33-.3.5l-.21.34a2.75,2.75,0,0,1-.19.28c-.08.14-.17.27-.26.4l-.19.27-.3.42-.19.25-.37.47-.14.18c-.17.22-.35.44-.54.65l-.12.14-.44.51-.22.23-.38.41-.25.25-.37.38-.27.26-.38.37-.29.26-.4.37-.29.25-.44.38-.27.23-.53.43-.22.17-.77.59-.15.11-.64.47-.3.21-.49.34-1.28.84-.28.17c-.45.29-.91.57-1.39.85s-1.19.66-1.79,1l-.49.26-1.6.8-.29.13c-.62.3-1.25.58-1.88.85l-.57.24-1.49.6-.6.23c-.64.24-1.28.48-1.93.7l-.11,0c-.7.24-1.41.47-2.12.69l-.48.14c-.62.19-1.25.37-1.88.54l-.28.08-2.13.53-.51.12c-.7.16-1.39.32-2.1.46l-.08,0-2.22.41-.49.08c-.73.13-1.46.24-2.2.35l-.33,0-2,.26-.47.05c-.74.08-1.48.16-2.23.22l-.45,0c-.65.06-1.29.1-1.94.14l-.51,0-2.28.09-.49,0-1.9,0H378l-1.87,0h-.58l-2.4-.1-.59,0-1.81-.13-.85-.07-1.62-.16-.7-.08-2-.25-.25,0A71.12,71.12,0,0,1,340,1700.3a41.74,41.74,0,0,1-8.79-6.63c-4.46-4.49-6.84-9.49-7.14-14.52,0-.37,0-.75,0-1.13v.56l0,10.43c0,8,5.3,16.12,16,22.27a71.32,71.32,0,0,0,25.36,8.26l.25,0,2,.26.7.07.67.07h0l.95.09.85.08c.6,0,1.21.09,1.81.12l.59,0c.79,0,1.6.08,2.4.1h.58l1.47,0h1l1.9,0H381c.77,0,1.53-.06,2.29-.1l.51,0,1-.07.91-.06.46,0c.75-.06,1.49-.13,2.23-.22l.47-.05,2-.25.33,0,.15,0,2.05-.32.49-.09c.74-.13,1.48-.26,2.21-.41l.09,0,1.43-.31.67-.15c.17,0,.34-.07.51-.12.72-.16,1.42-.34,2.13-.53l.28-.08,1.87-.53.49-.15.36-.12,1.75-.56.12,0c.65-.22,1.29-.45,1.93-.69l.6-.24c.5-.19,1-.39,1.49-.6.19-.08.38-.15.57-.24l.3-.13,1.58-.71.29-.14c.54-.26,1.07-.52,1.6-.8l.49-.25c.6-.32,1.2-.65,1.79-1l1.39-.84.28-.17c.43-.28.86-.56,1.28-.85l.08-.05.41-.29.29-.2.64-.47.16-.12.77-.59.22-.17.53-.43.27-.23.44-.38.29-.25.4-.37a3.45,3.45,0,0,0,.28-.26l.39-.36.27-.27.37-.37.25-.26c.13-.13.26-.27.38-.41l.22-.23c.15-.17.3-.33.44-.5l.12-.14.54-.65a1.33,1.33,0,0,0,.14-.19c.13-.15.25-.31.37-.47l.18-.25.31-.41.18-.27c.09-.14.19-.27.27-.4l.19-.28.12-.2.09-.15c.11-.17.2-.33.3-.5a2.75,2.75,0,0,0,.17-.29l.3-.54c0-.09.09-.17.13-.25.14-.26.27-.53.39-.79l0-.07c.11-.24.22-.48.32-.73,0-.09.07-.18.11-.26l.21-.54c0-.1.07-.21.11-.31l.17-.51c0-.1.06-.2.1-.31l.15-.52c0-.1,0-.19.08-.29s.09-.41.14-.61,0-.12,0-.18v0c.06-.29.11-.58.16-.86l0-.23.09-.64,0-.29c0-.21,0-.41.05-.61s0-.18,0-.27c0-.29,0-.57,0-.86h0l0-11Q432.18,1678.77,432.15,1679.2Z" transform="translate(-206.13 -221.68)"/><path class="cls-40" d="M427.77,1678c.17,7.43-4.78,14.9-14.55,20.58-19.29,11.21-50.67,11.21-70.09,0-9.83-5.68-14.34-11.92-14.63-20.57H324c-.08,8.11,5.24,16.24,16,22.43,21.2,12.24,55.47,12.24,76.54,0,10.65-6.19,15.88-14.32,15.71-22.43Z" transform="translate(-206.13 -221.68)"/></g></svg>