<?xml version="1.0" encoding="UTF-8"?>
<svg width="24px" height="24px" viewBox="0 0 24 24" version="1.1" xmlns="http://www.w3.org/2000/svg" xmlns:xlink="http://www.w3.org/1999/xlink">
    <title>Pause</title>
    <g id="Symbols" stroke="none" stroke-width="1" fill="none" fill-rule="evenodd">
        <g id="Compounds/Players/Video/Elements/Interface/Elements/Pause">
            <g id="Pause">
                <g transform="translate(11.992000, 11.848000) rotate(90.000000) translate(-11.992000, -11.848000) translate(1.492000, 1.348000)">
                    <circle id="Oval" stroke="#FFFFFF" cx="10.5" cy="10.5" r="10"></circle>
                    <g id="Group" transform="translate(5.000000, 6.402000)" fill="#FFFFFF" fill-rule="nonzero">
                        <path d="M1.311012,3.45 L4.24533333,3.45 L6.89866667,3.45 L9.832988,3.45 C10.5538987,3.45 11.144,2.84450933 11.144,2.12333333 C11.144,1.40215733 10.5538987,0.796666667 9.832988,0.796666667 L6.89866667,0.796666667 L4.24533333,0.796666667 L1.311012,0.796666667 C0.590101333,0.796666667 0,1.40215733 0,2.12333333 C0,2.84450933 0.590101333,3.45 1.311012,3.45 Z" id="Path"></path>
                        <path d="M9.832988,4.58666667 L6.89866667,4.58666667 L4.24533333,4.58666667 L1.311012,4.58666667 C0.590101333,4.58666667 -1.21531616e-17,5.19215733 -1.21531616e-17,5.91333333 C-1.21531616e-17,6.63450933 0.590101333,7.24 1.311012,7.24 L4.24533333,7.24 L6.89866667,7.24 L9.832988,7.24 C10.5538987,7.24 11.144,6.63450933 11.144,5.91333333 C11.144,5.19215733 10.5538987,4.58666667 9.832988,4.58666667 Z" id="Path"></path>
                    </g>
                </g>
            </g>
        </g>
    </g>
</svg>