<?xml version="1.0" encoding="UTF-8"?>
<svg width="300px" height="299px" viewBox="0 0 300 299" version="1.1" xmlns="http://www.w3.org/2000/svg" xmlns:xlink="http://www.w3.org/1999/xlink">
    <title></title>
    <defs>
        <radialGradient cx="32.8583505%" cy="15.2419871%" fx="32.8583505%" fy="15.2419871%" r="63.6981036%" gradientTransform="translate(0.328584,0.152420),scale(0.668666,1.000000),translate(-0.328584,-0.152420)" id="radialGradient-1">
            <stop stop-color="#D6ECFE" offset="0%"></stop>
            <stop stop-color="#CFF0FE" offset="57.06%"></stop>
            <stop stop-color="#C6F5FF" offset="100%"></stop>
        </radialGradient>
        <linearGradient x1="38.7227966%" y1="-7.66041235%" x2="60.8884941%" y2="105.757859%" id="linearGradient-2">
            <stop stop-color="#F8D273" offset="10.5%"></stop>
            <stop stop-color="#F5C873" offset="11.19%"></stop>
            <stop stop-color="#ECA775" offset="13.84%"></stop>
            <stop stop-color="#E58F76" offset="16.38%"></stop>
            <stop stop-color="#E18177" offset="18.73%"></stop>
            <stop stop-color="#E07C77" offset="20.72%"></stop>
            <stop stop-color="#C26E75" offset="23.97%"></stop>
            <stop stop-color="#965973" offset="29.42%"></stop>
            <stop stop-color="#724871" offset="34.93%"></stop>
            <stop stop-color="#553B6F" offset="40.43%"></stop>
            <stop stop-color="#41326E" offset="45.91%"></stop>
            <stop stop-color="#352C6D" offset="51.38%"></stop>
            <stop stop-color="#312A6D" offset="56.82%"></stop>
        </linearGradient>
        <linearGradient x1="6.25379282%" y1="22.4260793%" x2="104.515601%" y2="74.4774887%" id="linearGradient-3">
            <stop stop-color="#E5878D" offset="13.85%"></stop>
            <stop stop-color="#C47689" offset="18.74%"></stop>
            <stop stop-color="#995F83" offset="25.98%"></stop>
            <stop stop-color="#764D7E" offset="33.35%"></stop>
            <stop stop-color="#5A3E7B" offset="40.76%"></stop>
            <stop stop-color="#473478" offset="48.22%"></stop>
            <stop stop-color="#3B2E77" offset="55.76%"></stop>
            <stop stop-color="#372C76" offset="63.52%"></stop>
            <stop stop-color="#C66294" offset="90.24%"></stop>
        </linearGradient>
        <linearGradient x1="86.864599%" y1="80.4079744%" x2="16.5792614%" y2="22.2821454%" id="linearGradient-4">
            <stop stop-color="#DCAC57" offset="4.411908%"></stop>
            <stop stop-color="#D1916D" offset="13.76%"></stop>
            <stop stop-color="#C36F88" offset="27.39%"></stop>
            <stop stop-color="#BB5A98" offset="38.66%"></stop>
            <stop stop-color="#B8529E" offset="46.09%"></stop>
            <stop stop-color="#A44D9C" offset="54.71%"></stop>
            <stop stop-color="#88469A" offset="69.64%"></stop>
            <stop stop-color="#764299" offset="82.64%"></stop>
            <stop stop-color="#704098" offset="92.18%"></stop>
        </linearGradient>
        <linearGradient x1="87.1669449%" y1="69.7218062%" x2="54.0885785%" y2="52.2207848%" id="linearGradient-5">
            <stop stop-color="#FFFFFF" offset="0.5547528%"></stop>
            <stop stop-color="#F4F6F8" offset="6.80273%"></stop>
            <stop stop-color="#D6DFE4" offset="17.81%"></stop>
            <stop stop-color="#A6B8C4" offset="32.28%"></stop>
            <stop stop-color="#648498" offset="49.66%"></stop>
            <stop stop-color="#194867" offset="67.34%"></stop>
        </linearGradient>
        <radialGradient cx="50.031689%" cy="49.9683579%" fx="50.031689%" fy="49.9683579%" r="62.3921493%" gradientTransform="translate(0.500317,0.499684),scale(1.000000,0.920554),rotate(10.710192),translate(-0.500317,-0.499684)" id="radialGradient-6">
            <stop stop-color="#F4DBC1" offset="69.03%"></stop>
            <stop stop-color="#EAC1B6" offset="79.09%"></stop>
            <stop stop-color="#E4AFAF" offset="88.48%"></stop>
            <stop stop-color="#E2A9AC" offset="95.37%"></stop>
        </radialGradient>
        <linearGradient x1="68.9844027%" y1="5.40471925%" x2="38.2022098%" y2="68.9543259%" id="linearGradient-7">
            <stop stop-color="#57C8E7" offset="5.529227%"></stop>
            <stop stop-color="#53BCE2" offset="23.05%"></stop>
            <stop stop-color="#4BA2D7" offset="66.32%"></stop>
            <stop stop-color="#4898D3" offset="92.18%"></stop>
        </linearGradient>
        <linearGradient x1="95.6559576%" y1="12.559452%" x2="22.6349887%" y2="75.7850981%" id="linearGradient-8">
            <stop stop-color="#FFFFFF" offset="6.087886%"></stop>
            <stop stop-color="#FFFFFF" offset="92.74%"></stop>
        </linearGradient>
        <linearGradient x1="0.677117941%" y1="39.67718%" x2="100.419612%" y2="58.4318156%" id="linearGradient-9">
            <stop stop-color="#FFFFFF" offset="6.087886%"></stop>
            <stop stop-color="#FFFFFF" offset="92.74%"></stop>
        </linearGradient>
        <linearGradient x1="119.262072%" y1="66.1281375%" x2="24.0507862%" y2="43.7252206%" id="linearGradient-10">
            <stop stop-color="#DCC794" offset="4.411908%"></stop>
            <stop stop-color="#DAC095" offset="6.185298%"></stop>
            <stop stop-color="#CB9199" offset="19.09%"></stop>
            <stop stop-color="#C16F9C" offset="30.51%"></stop>
            <stop stop-color="#BA5A9D" offset="39.9%"></stop>
            <stop stop-color="#B8529E" offset="46.09%"></stop>
            <stop stop-color="#B04E98" offset="47.66%"></stop>
            <stop stop-color="#7D3274" offset="58.71%"></stop>
            <stop stop-color="#551C58" offset="69.1%"></stop>
            <stop stop-color="#390D44" offset="78.54%"></stop>
            <stop stop-color="#270337" offset="86.73%"></stop>
            <stop stop-color="#210033" offset="92.74%"></stop>
        </linearGradient>
        <linearGradient x1="114.939658%" y1="24.1467171%" x2="25.3845414%" y2="62.2085303%" id="linearGradient-11">
            <stop stop-color="#B979B2" offset="20.01%"></stop>
            <stop stop-color="#D99A9A" offset="28.25%"></stop>
            <stop stop-color="#EEB08A" offset="35.3%"></stop>
            <stop stop-color="#F6B884" offset="39.87%"></stop>
            <stop stop-color="#CE9A81" offset="46.01%"></stop>
            <stop stop-color="#A0797E" offset="53.99%"></stop>
            <stop stop-color="#7A5D7B" offset="62.01%"></stop>
            <stop stop-color="#5D4879" offset="69.94%"></stop>
            <stop stop-color="#483877" offset="77.76%"></stop>
            <stop stop-color="#3B2F76" offset="85.42%"></stop>
            <stop stop-color="#372C76" offset="92.73%"></stop>
        </linearGradient>
        <linearGradient x1="3.2681842%" y1="59.0419919%" x2="180.23168%" y2="23.9899705%" id="linearGradient-12">
            <stop stop-color="#B979B2" offset="22.68%"></stop>
            <stop stop-color="#BC7CB0" offset="23.02%"></stop>
            <stop stop-color="#D192A0" offset="26.4%"></stop>
            <stop stop-color="#E2A393" offset="30.32%"></stop>
            <stop stop-color="#EDAF8B" offset="35.14%"></stop>
            <stop stop-color="#F4B685" offset="41.77%"></stop>
            <stop stop-color="#F6B884" offset="58.76%"></stop>
            <stop stop-color="#E2A983" offset="60.29%"></stop>
            <stop stop-color="#B5887F" offset="64.13%"></stop>
            <stop stop-color="#8E6C7C" offset="68.12%"></stop>
            <stop stop-color="#6E557A" offset="72.23%"></stop>
            <stop stop-color="#564378" offset="76.48%"></stop>
            <stop stop-color="#453677" offset="80.94%"></stop>
            <stop stop-color="#3A2E76" offset="85.73%"></stop>
            <stop stop-color="#372C76" offset="91.46%"></stop>
        </linearGradient>
        <linearGradient x1="116.414477%" y1="24.3706385%" x2="0.121379953%" y2="73.5711287%" id="linearGradient-13">
            <stop stop-color="#B979B2" offset="23.42%"></stop>
            <stop stop-color="#D99A9A" offset="30.24%"></stop>
            <stop stop-color="#EEB08A" offset="36.09%"></stop>
            <stop stop-color="#F6B884" offset="39.87%"></stop>
            <stop stop-color="#E2A983" offset="42.33%"></stop>
            <stop stop-color="#B5887F" offset="48.54%"></stop>
            <stop stop-color="#8E6C7C" offset="55%"></stop>
            <stop stop-color="#6E557A" offset="61.64%"></stop>
            <stop stop-color="#564378" offset="68.51%"></stop>
            <stop stop-color="#453677" offset="75.71%"></stop>
            <stop stop-color="#3A2E76" offset="83.46%"></stop>
            <stop stop-color="#372C76" offset="92.73%"></stop>
        </linearGradient>
        <linearGradient x1="62.752454%" y1="48.753543%" x2="-41.0311532%" y2="73.0615262%" id="linearGradient-14">
            <stop stop-color="#906EAF" offset="0.8379889%"></stop>
            <stop stop-color="#8E6CAE" offset="1.18749%"></stop>
            <stop stop-color="#735AA2" offset="5.639178%"></stop>
            <stop stop-color="#5D4A99" offset="10.69%"></stop>
            <stop stop-color="#4C3E91" offset="16.65%"></stop>
            <stop stop-color="#41368C" offset="24.03%"></stop>
            <stop stop-color="#3A3189" offset="34.38%"></stop>
            <stop stop-color="#383088" offset="63.12%"></stop>
            <stop stop-color="#393189" offset="86.63%"></stop>
        </linearGradient>
        <linearGradient x1="86.3162225%" y1="40.4829644%" x2="6.24112482%" y2="61.6183964%" id="linearGradient-15">
            <stop stop-color="#F4C56B" offset="0.8379889%"></stop>
            <stop stop-color="#F2907F" offset="59.22%"></stop>
            <stop stop-color="#AD5F9E" offset="96.09%"></stop>
        </linearGradient>
        <radialGradient cx="50.1440868%" cy="49.8881019%" fx="50.1440868%" fy="49.8881019%" r="50.1901486%" gradientTransform="translate(0.501441,0.498881),scale(0.997503,1.000000),rotate(10.710192),translate(-0.501441,-0.498881)" id="radialGradient-16">
            <stop stop-color="#DCC794" offset="26.2%"></stop>
            <stop stop-color="#DAC095" offset="28.12%"></stop>
            <stop stop-color="#CB9199" offset="42.09%"></stop>
            <stop stop-color="#C16F9C" offset="54.45%"></stop>
            <stop stop-color="#BA5A9D" offset="64.61%"></stop>
            <stop stop-color="#B8529E" offset="71.32%"></stop>
            <stop stop-color="#B14F9B" offset="72.5%"></stop>
            <stop stop-color="#89408B" offset="79.93%"></stop>
            <stop stop-color="#6D347F" offset="86.74%"></stop>
            <stop stop-color="#5B2D78" offset="92.63%"></stop>
            <stop stop-color="#552B75" offset="96.96%"></stop>
        </radialGradient>
    </defs>
    <g id="Study-Rings/Graph-&amp;-Alerts-Jira" stroke="none" stroke-width="1" fill="none" fill-rule="evenodd">
        <g id="AFS-1513-Alert-Deadline-Missed" transform="translate(-490.000000, -110.000000)">
            <g id="Compounds/MainColumn/BlankContent/Onboarding/Desktop" transform="translate(333.000000, 110.000000)">
                <g id="Elements/Graphics/OnboardingTour/Goal" transform="translate(157.000000, 0.000000)">
                    <g id="Deadline-passed" transform="translate(32.000000, 59.796610)">
                        <g id="Layer_3" transform="translate(0.000000, 4.983051)" fill="url(#radialGradient-1)" fill-rule="nonzero">
                            <path d="M63.3613445,1.48494915 C53.4739496,3.71237288 46.1983193,8.16722034 38.9226891,18.5618644 C36.497479,22.2742373 32.5798319,30.9983136 30.5277311,40.6504831 C27.9159664,52.158839 25.4907563,58.2842542 21.5731092,65.709 C10.7529412,85.7558136 8.32773109,81.4865847 2.17142857,95.7792203 C1.79831933,96.7073136 -2.86554622,114.526703 6.46218487,128.819339 C20.2672269,149.794246 54.2201681,147.195585 60.5630252,146.824347 C82.389916,145.15378 82.9495798,136.429703 108.507563,134.573517 C116.156303,134.016661 130.334454,133.088568 147.497479,137.729034 C159.996639,141.070169 163.354622,144.596924 176.040336,146.267492 C186.30084,147.566822 195.815126,148.866153 204.769748,143.483212 C213.910924,138.100271 220.253782,127.33439 220.253782,116.568508 C220.253782,101.533398 215.216807,91.6956102 206.448739,84.6421017 C183.87563,66.8227119 157.198319,81.3009661 140.594958,66.0802373 C129.215126,55.6855932 136.117647,48.0752288 123.991597,30.9983136 C111.492437,13.3645424 86.8672269,-3.52675424 63.3613445,1.48494915 Z" id="Path"></path>
                        </g>
                        <g id="Layer_4" transform="translate(98.000000, 191.349153)" fill="#AFC3D4" fill-rule="nonzero">
                            <path d="M18.6956522,6.43266564 C11.2173913,9.03291217 4.11304348,14.604869 2.05652174,18.6909707 C2.14717133e-13,22.7770724 -0.373913043,30.9492758 3.36521739,34.6639137 C7.10434783,38.3785516 17.0130435,40.4216025 21.873913,39.1214792 C26.7347826,37.8213559 30.1,36.7069646 31.5956522,36.1497689 C33.0913043,35.5925732 44.3086957,29.0919569 46.5521739,28.5347612 C48.7956522,27.9775655 53.4695652,25.0058552 60.3869565,26.3059784 C67.3043478,27.6061017 70.1086957,28.5347612 74.9695652,27.048906 C79.8304348,25.7487827 85.0652174,21.1054854 85.0652174,16.0907242 C85.0652174,11.075963 82.073913,5.50400616 75.7173913,3.27522342 C69.7347826,1.23217257 44.8695652,-2.85392912 18.6956522,6.43266564 Z" id="Path"></path>
                        </g>
                        <g id="Group" transform="translate(53.000000, 0.000000)">
                            <path d="M154.056122,125.240678 C146.213265,166.45344 105.691837,193.557328 63.6765306,185.574676 C21.6612245,177.592024 -5.9755102,137.678764 1.86734694,96.466002 C6.1622449,74.0031904 19.9806122,55.8101695 38.4673469,45.2285145 C54.1530612,36.132004 73.0132653,32.4191426 92.2469388,36.132004 C134.262245,44.114656 161.89898,84.0279163 154.056122,125.240678 Z" id="Path" fill="url(#linearGradient-2)" fill-rule="nonzero"></path>
                            <path d="M133.888776,49.4983051 L133.888776,49.4983051 L133.888776,49.4983051 C134.635714,47.6418744 130.714286,43.1864407 124.738776,39.2879362 C118.576531,35.2037886 112.787755,33.3473579 111.667347,34.8325025 C111.667347,34.8325025 111.667347,35.0181456 111.480612,35.0181456 L111.480612,35.0181456 L107.745918,40.7730808 C113.534694,44.6715852 122.311224,50.2408774 129.780612,54.6963111 L133.888776,49.4983051 C133.702041,49.4983051 133.702041,49.4983051 133.888776,49.4983051 C133.888776,49.4983051 133.888776,49.4983051 133.888776,49.4983051 Z" id="Path" fill="#522A68" fill-rule="nonzero"></path>
                            <path d="M133.888776,49.4983051 L133.888776,49.4983051 L133.888776,49.4983051 C134.635714,47.6418744 130.714286,43.1864407 124.738776,39.2879362 C118.576531,35.2037886 112.787755,33.3473579 111.667347,34.8325025 C111.667347,34.8325025 111.667347,35.0181456 111.480612,35.0181456 L111.480612,35.0181456 L107.745918,40.7730808 C115.402041,45.2285145 122.684694,50.0552343 129.967347,54.6963111 L133.888776,49.4983051 C133.888776,49.4983051 133.888776,49.4983051 133.888776,49.4983051 C133.888776,49.4983051 133.888776,49.4983051 133.888776,49.4983051 Z" id="Path" fill="url(#linearGradient-3)" fill-rule="nonzero"></path>
                            <line x1="113.347959" y1="34.2755733" x2="108.679592" y2="41.33001" id="Path" stroke="#543C81" stroke-width="0.09986356" stroke-linecap="round" stroke-linejoin="round"></line>
                            <line x1="117.456122" y1="35.3894317" x2="112.227551" y2="43.3720837" id="Path" stroke="#543C81" stroke-width="0.09986356" stroke-linecap="round" stroke-linejoin="round"></line>
                            <line x1="122.871429" y1="37.9884347" x2="117.269388" y2="46.528016" id="Path" stroke="#261443" stroke-width="0.09986356" stroke-linecap="round" stroke-linejoin="round"></line>
                            <line x1="127.726531" y1="41.33001" x2="122.12449" y2="49.6839482" id="Path" stroke="#261443" stroke-width="0.09986356" stroke-linecap="round" stroke-linejoin="round"></line>
                            <line x1="132.394898" y1="45.7854437" x2="127.353061" y2="53.0255234" id="Path" stroke="#402966" stroke-width="0.09986356" stroke-linecap="round" stroke-linejoin="round"></line>
                            <path d="M153.682653,126.911466 C146.026531,167.381655 108.866327,194.2999 70.772449,187.059821 C32.6785714,179.819741 8.02959184,141.205982 15.872449,100.921436 C23.7153061,60.6368893 60.6887755,33.533001 98.7826531,40.7730808 C136.876531,48.0131605 161.52551,86.4412762 153.682653,126.911466 Z" id="Path" fill="url(#linearGradient-4)" fill-rule="nonzero"></path>
                            <path d="M145.839796,125.426321 C138.930612,161.62672 106.065306,185.760319 72.6397959,179.448455 C39.027551,173.13659 17.5530612,138.606979 24.4622449,102.40658 C31.3714286,66.2061815 64.2367347,42.0725823 97.6622449,48.3844467 C131.087755,54.6963111 152.74898,89.2259222 145.839796,125.426321 Z" id="Path" fill="url(#linearGradient-5)" fill-rule="nonzero"></path>
                            <path d="M144.345918,125.240678 C137.436735,161.441077 104.944898,185.760319 71.8928571,179.448455 C38.8408163,173.13659 17.5530612,138.792622 24.4622449,102.592223 C31.3714286,66.3918245 63.8632653,42.0725823 96.9153061,48.3844467 C129.967347,54.6963111 151.255102,89.0402792 144.345918,125.240678 Z" id="Path" fill="url(#radialGradient-6)" fill-rule="nonzero"></path>
                            <path d="M60.1285714,55.0675972 L84.4040816,113.730808 L135.195918,149.002991 C139.490816,141.948554 142.665306,133.780259 144.345918,125.055035 C151.255102,88.8546361 129.967347,54.510668 96.9153061,48.1988036 C83.8438776,45.7854437 70.9591837,48.0131605 59.5683673,53.7680957 L60.1285714,55.0675972 Z" id="Path" fill="url(#linearGradient-7)" fill-rule="nonzero"></path>
                            <path d="M136.129592,129.510469 C112.040816,179.077168 93.3673469,130.438684 73.5734694,116.329811 C54.9,102.963509 26.1428571,94.9808574 53.5928571,66.9487537 C68.7183673,51.5403789 100.276531,50.4265204 118.763265,64.3497507 C137.25,78.2729811 145.092857,110.946162 136.129592,129.510469 Z" id="Path" fill="url(#linearGradient-8)" fill-rule="nonzero" opacity="0.29"></path>
                            <path d="M32.6785714,134.894118 L20.5408163,140.834696 C19.4204082,141.391625 19.0469388,142.691127 19.6071429,143.619342 L19.6071429,143.619342 C20.1673469,144.7332 21.4744898,145.104487 22.4081633,144.547557 L34.5459184,138.606979 C35.6663265,138.05005 36.0397959,136.750548 35.4795918,135.822333 L35.4795918,135.822333 C35.1061224,134.894118 33.7989796,134.522832 32.6785714,134.894118 Z" id="Path" fill="#231F20" fill-rule="nonzero"></path>
                            <path d="M146.4,83.470987 L134.262245,89.4115653 C133.141837,89.9684945 132.768367,91.267996 133.328571,92.1962114 L133.328571,92.1962114 C133.888776,93.3100698 135.195918,93.6813559 136.129592,93.1244267 L148.267347,87.1838485 C149.387755,86.6269192 149.761224,85.3274177 149.20102,84.3992024 L149.20102,84.3992024 C148.640816,83.285344 147.333673,82.9140578 146.4,83.470987 Z" id="Path" fill="#231F20" fill-rule="nonzero"></path>
                            <path d="M64.9836735,60.2656032 L59.755102,49.312662 C59.194898,48.1988036 57.8877551,47.8275174 56.9540816,48.3844467 L56.9540816,48.3844467 C55.8336735,48.9413759 55.4602041,50.2408774 56.0204082,51.1690927 L61.4357143,62.1220339 C61.9959184,63.2358923 63.3030612,63.6071785 64.2367347,63.0502493 L64.2367347,63.0502493 C65.1704082,62.49332 65.5438776,61.1938185 64.9836735,60.2656032 Z" id="Path" fill="#231F20" fill-rule="nonzero"></path>
                            <path d="M117.829592,175.921236 L111.854082,163.854437 C111.293878,162.740578 109.986735,162.369292 109.053061,162.926221 L109.053061,162.926221 C107.932653,163.483151 107.559184,164.782652 108.119388,165.710867 L114.094898,177.777667 C114.655102,178.891525 115.962245,179.262812 116.895918,178.705882 L116.895918,178.705882 C118.016327,178.148953 118.389796,176.849452 117.829592,175.921236 Z" id="Path" fill="#231F20" fill-rule="nonzero"></path>
                            <path d="M83.2836735,163.111864 L85.5244898,117.814955 C87.3918367,116.701097 88.1387755,114.659023 87.3918367,112.616949 C86.4581633,110.389232 84.0306122,109.461017 81.9765306,110.389232 C79.7357143,111.317448 78.8020408,113.730808 79.7357143,115.772881 C79.922449,116.329811 80.4826531,116.88674 80.8561224,117.443669 L78.4285714,162.740578 C78.4285714,164.04008 79.3622449,165.153938 80.8561224,165.339581 C82.1632653,165.525224 83.2836735,164.411366 83.2836735,163.111864 Z" id="Path" fill="#292563" fill-rule="nonzero"></path>
                            <path d="M84.9642857,162.926221 L87.0183673,117.629312 C88.8857143,116.515454 89.6326531,114.47338 88.8857143,112.431306 C87.9520408,110.203589 85.5244898,109.275374 83.4704082,110.203589 C81.2295918,111.131805 80.2959184,113.545165 81.2295918,115.587238 C81.4163265,116.144167 81.9765306,116.701097 82.35,117.258026 L80.2959184,162.740578 C80.2959184,164.04008 81.2295918,165.153938 82.7234694,165.339581 C83.8438776,165.339581 84.9642857,164.225723 84.9642857,162.926221 Z" id="Path" fill="#6950A0" fill-rule="nonzero"></path>
                            <path d="M74.5071429,59.708674 C74.5071429,59.708674 86.4581633,54.3250249 101.210204,59.708674" id="Path" stroke="#FFFFFF" stroke-width="1.5978" stroke-linecap="round"></path>
                            <ellipse id="Oval" fill="url(#linearGradient-9)" fill-rule="nonzero" cx="110.360204" cy="63.2358923" rx="3.1744898" ry="3.1559322"></ellipse>
                            <path d="M65.7306122,35.5750748 L64.2367347,35.7607178 C62.5561224,38.1740778 60.6887755,40.2161515 58.6346939,41.8869392 L58.8214286,40.4017946 L39.4010204,44.4859422 C39.027551,44.8572283 37.9071429,47.4562313 36.4132653,50.9834497 C32.4918367,51.1690927 29.877551,50.7978066 29.877551,50.7978066 L28.3836735,51.911665 C30.9979592,52.2829511 33.4255102,52.4685942 35.8530612,52.2829511 C32.6785714,59.708674 28.7571429,69.9190429 28.7571429,69.9190429 C28.7571429,69.9190429 39.027551,54.1393819 57.8877551,45.7854437 L58.2612245,44.114656 C63.1163265,40.0305085 65.7306122,35.5750748 65.7306122,35.5750748 Z" id="Path" fill="url(#linearGradient-10)" fill-rule="nonzero" opacity="0.33"></path>
                            <path d="M72.4530612,175.921236 C72.0795918,175.921236 71.7061224,176.106879 71.7061224,176.478166 L71.1459184,179.262812 C71.3326531,179.262812 71.7061224,179.448455 71.8928571,179.448455 C72.0795918,179.448455 72.2663265,179.448455 72.4530612,179.634098 L73.0132653,176.849452 C73.2,176.292522 72.8265306,175.921236 72.4530612,175.921236 Z" id="Path" fill="#000000" fill-rule="nonzero"></path>
                            <path d="M45.1897959,161.812363 C44.8163265,161.62672 44.4428571,161.62672 44.2561224,161.998006 L42.5755102,164.225723 C42.9489796,164.597009 43.322449,164.782652 43.5091837,165.153938 L45.1897959,162.926221 C45.5632653,162.369292 45.5632653,161.998006 45.1897959,161.812363 Z" id="Path" fill="#000000" fill-rule="nonzero"></path>
                            <path d="M27.6367347,102.592223 C27.6367347,102.220937 27.45,101.849651 27.0765306,101.849651 L24.6489796,101.478365 C24.6489796,101.849651 24.4622449,102.40658 24.4622449,102.777866 C24.4622449,102.777866 24.4622449,102.777866 24.4622449,102.777866 L26.8897959,103.149153 C27.2632653,103.149153 27.6367347,102.963509 27.6367347,102.592223 Z" id="Path" fill="#000000" fill-rule="nonzero"></path>
                            <path d="M41.2683673,73.6319043 C41.455102,73.2606181 41.455102,72.889332 41.2683673,72.7036889 L39.2142857,70.8472582 C38.8408163,71.2185444 38.6540816,71.5898305 38.2806122,71.9611167 L40.3346939,73.6319043 C40.5214286,73.8175474 40.894898,73.8175474 41.2683673,73.6319043 Z" id="Path" fill="#000000" fill-rule="nonzero"></path>
                            <path d="M97.2887755,51.911665 C97.6622449,51.911665 98.0357143,51.7260219 98.0357143,51.3547358 L98.5959184,48.5700897 C98.222449,48.3844467 97.6622449,48.3844467 97.2887755,48.1988036 L96.7285714,50.9834497 C96.7285714,51.5403789 96.9153061,51.911665 97.2887755,51.911665 Z" id="Path" fill="#000000" fill-rule="nonzero"></path>
                            <path d="M123.431633,65.8348953 C123.805102,66.0205384 124.178571,66.0205384 124.365306,65.8348953 L126.232653,63.7928215 C125.859184,63.4215354 125.485714,63.2358923 125.29898,62.8646062 L123.431633,64.90668 C123.058163,65.092323 123.058163,65.6492522 123.431633,65.8348953 Z" id="Path" fill="#000000" fill-rule="nonzero"></path>
                            <path d="M142.291837,123.198604 C141.918367,123.198604 141.544898,123.384247 141.544898,123.755533 C141.544898,124.12682 141.731633,124.498106 142.105102,124.498106 L144.532653,124.869392 C144.532653,124.498106 144.719388,123.941176 144.719388,123.56989 L142.291837,123.198604 Z" id="Path" fill="#000000" fill-rule="nonzero"></path>
                            <path d="M132.768367,146.960917 C132.581633,147.332203 132.581633,147.70349 132.955102,147.889133 L135.195918,149.188634 C135.382653,148.817348 135.569388,148.446062 135.756122,147.889133 L133.515306,146.589631 C133.515306,146.403988 132.955102,146.589631 132.768367,146.960917 Z" id="Path" fill="#000000" fill-rule="nonzero"></path>
                            <g transform="translate(39.214286, 36.132004)" fill-rule="nonzero" id="Path">
                                <path d="M19.7938776,4.08414756 L18.1132653,0.742572283 L0.186734694,9.65343968 L1.86734694,12.995015 C2.42755102,14.1088734 6.90918367,12.995015 11.7642857,10.581655 C16.8061224,8.16829511 20.3540816,5.19800598 19.7938776,4.08414756 Z" fill="url(#linearGradient-11)"></path>
                                <path d="M18.1132653,0.742572283 C17.5530612,-0.371286142 13.0714286,0.742572283 8.02959184,3.1559322 C3.1744898,5.56929212 -0.560204082,8.53958126 0.186734694,9.65343968 C0.746938776,10.7672981 5.22857143,9.65343968 10.2704082,7.24007976 C15.3122449,4.82671984 18.6734694,1.85643071 18.1132653,0.742572283 Z" fill="url(#linearGradient-12)"></path>
                            </g>
                            <path d="M56.5806122,36.8745763 L52.2857143,28.1493519 L35.4795918,35.9463609 L39.9612245,45.2285145 C40.5214286,46.3423729 44.6295918,45.2285145 49.2979592,43.0007976 C53.7795918,40.7730808 57.1408163,37.9884347 56.5806122,36.8745763 Z" id="Path" fill="url(#linearGradient-13)" fill-rule="nonzero"></path>
                            <path d="M58.0744898,23.136989 L55.2734694,17.5676969 L25.9561224,32.0478564 L28.7571429,37.6171486 C29.6908163,39.4735793 36.9734694,37.8027916 45.1897959,33.7186441 C53.2193878,29.8201396 59.0081633,24.9934197 58.0744898,23.136989 Z" id="Path" fill="url(#linearGradient-14)" fill-rule="nonzero"></path>
                            <line x1="28.1969388" y1="32.9760718" x2="30.9979592" y2="38.3597208" id="Path" stroke="#261443" stroke-width="0.09986356" stroke-linecap="round" stroke-linejoin="round"></line>
                            <line x1="32.4918367" y1="32.2334995" x2="35.2928571" y2="37.6171486" id="Path" stroke="#261443" stroke-width="0.09986356" stroke-linecap="round" stroke-linejoin="round"></line>
                            <line x1="37.3469388" y1="30.5627119" x2="40.1479592" y2="35.9463609" id="Path" stroke="#261443" stroke-width="0.09986356" stroke-linecap="round" stroke-linejoin="round"></line>
                            <line x1="42.0153061" y1="28.334995" x2="44.8163265" y2="33.9042871" id="Path" stroke="#392254" stroke-width="0.09986356"></line>
                            <line x1="47.0571429" y1="25.550349" x2="49.8581633" y2="31.1196411" id="Path" stroke="#5B3B89" stroke-width="0.09986356"></line>
                            <line x1="51.1653061" y1="22.951346" x2="53.9663265" y2="28.5206381" id="Path" stroke="#5B3B89" stroke-width="0.09986356"></line>
                            <line x1="54.5265306" y1="19.7954138" x2="57.327551" y2="25.3647059" id="Path" stroke="#5B3B89" stroke-width="0.09986356"></line>
                            <path d="M55.2734694,17.5676969 C54.3397959,15.7112662 47.0571429,17.3820538 38.8408163,21.4662014 C30.6244898,25.550349 24.8357143,30.1914257 25.7693878,32.0478564 C26.7030612,33.9042871 33.9857143,32.2334995 42.2020408,28.1493519 C50.4183673,24.0652044 56.2071429,19.4241276 55.2734694,17.5676969 Z" id="Path" fill="url(#linearGradient-15)" fill-rule="nonzero"></path>
                            <path d="M42.5755102,46.8993021 C42.5755102,46.8993021 42.5755102,46.8993021 42.5755102,46.8993021 C41.0816327,47.2705882 39.5877551,47.2705882 37.9071429,47.2705882 C25.3959184,46.8993021 15.4989796,36.3176471 15.872449,23.6939182 C16.2459184,11.2558325 26.8897959,1.41674975 39.5877551,1.78803589 C52.0989796,2.15932203 61.9959184,12.7409771 61.622449,25.3647059 C61.4357143,29.8201396 59.9418367,34.0899302 57.5142857,37.4315055 L58.4479592,39.2879362 C61.4357143,35.3894317 63.1163265,30.7483549 63.3030612,25.550349 C63.8632653,11.9984048 53.2193878,0.674177468 39.5877551,0.117248255 C26.1428571,-0.439680957 14.7520408,10.1419741 14.1918367,23.6939182 C13.6316327,37.2458624 24.2755102,48.5700897 37.9071429,49.1270189 C39.5877551,49.1270189 41.2683673,49.1270189 42.9489796,48.7557328 C42.9489796,48.7557328 43.6959184,47.4562313 42.5755102,46.8993021 Z" id="Path" fill="url(#radialGradient-16)" fill-rule="nonzero"></path>
                            <path d="M80.4826531,12.9266201 C90.7530612,13.6691924 108.492857,16.4538385 126.792857,27.0354935 C147.707143,39.2879362 158.72449,55.8101695 163.579592,64.7210369" id="Path" stroke="#88D6F2" stroke-width="0.6554" stroke-linecap="round" stroke-dasharray="1.9662"></path>
                            <path d="M164.139796,48.9413759 C169.928571,58.2235294 178.891837,75.3026919 181.506122,97.9511466 C184.493878,124.12682 177.397959,144.361914 172.916327,154.38664" id="Path" stroke="#88D6F2" stroke-width="0.7007" stroke-linecap="round" stroke-dasharray="2.1022"></path>
                            <path d="M58.0744898,45.7854437 C58.0744898,45.7854437 87.5785714,30.3770688 118.763265,47.8275174" id="Path" stroke="#FFFFFF" stroke-width="0.07489767"></path>
                        </g>
                    </g>
                </g>
            </g>
        </g>
    </g>
</svg>