<?xml version="1.0" encoding="UTF-8"?>
<svg width="40px" height="40px" viewBox="0 0 40 40" version="1.1" xmlns="http://www.w3.org/2000/svg" xmlns:xlink="http://www.w3.org/1999/xlink">
    <title>A33861F7-D63E-4086-B673-2491C19AFE5E</title>
    <g id="Today--------------------------------------------" stroke="none" stroke-width="1" fill="none" fill-rule="evenodd">
        <g id="AFS-1002" transform="translate(-851.000000, -250.000000)">
            <rect fill="#424242" x="0" y="0" width="1280" height="886"></rect>
            <g id="Background" transform="translate(0.000000, 100.000000)">
                <rect id="Rectangle" fill="#E0F5FF" x="0" y="0" width="1280" height="786"></rect>
                <rect fill="#E0F5FF" x="0" y="0" width="1280" height="786"></rect>
                <g id="Side-Column" transform="translate(543.000000, 130.000000)">
                    <path d="M25,0 L335,0 C348.807119,-2.53632657e-15 360,11.1928813 360,25 L360,218 C360,235.673112 345.673112,250 328,250 L32,250 C14.326888,250 2.164332e-15,235.673112 0,218 L0,25 C-1.69088438e-15,11.1928813 11.1928813,2.53632657e-15 25,0 Z" id="White-Background" fill="#FFFFFF"></path>
                    <g id="Close-Button" transform="translate(308.000000, 20.000000)" fill="#1268B3">
                        <g id="Delete" transform="translate(4.000000, 4.000000)">
                            <circle id="Oval" stroke-opacity="0.06" stroke="#0069B8" fill-opacity="0.06" cx="16" cy="16" r="16"></circle>
                            <g id="Group" transform="translate(8.000000, 7.000000)" fill-rule="nonzero">
                                <path d="M7.3220339,15.559322 C7.49044068,15.559322 7.62711864,15.4229492 7.62711864,15.2542373 L7.62711864,5.18644068 C7.62711864,5.01772881 7.49044068,4.88135593 7.3220339,4.88135593 C7.15362712,4.88135593 7.01694915,5.01772881 7.01694915,5.18644068 L7.01694915,15.2542373 C7.01694915,15.4229492 7.15362712,15.559322 7.3220339,15.559322 Z" id="Path"></path>
                                <path d="M4.27118644,15.559322 C4.43959322,15.559322 4.57627119,15.4229492 4.57627119,15.2542373 L4.57627119,5.18644068 C4.57627119,5.01772881 4.43959322,4.88135593 4.27118644,4.88135593 C4.10277966,4.88135593 3.96610169,5.01772881 3.96610169,5.18644068 L3.96610169,15.2542373 C3.96610169,15.4229492 4.10277966,15.559322 4.27118644,15.559322 Z" id="Path"></path>
                                <path d="M10.3728814,15.559322 C10.5412881,15.559322 10.6779661,15.4229492 10.6779661,15.2542373 L10.6779661,5.18644068 C10.6779661,5.01772881 10.5412881,4.88135593 10.3728814,4.88135593 C10.2044746,4.88135593 10.0677966,5.01772881 10.0677966,5.18644068 L10.0677966,15.2542373 C10.0677966,15.4229492 10.2044746,15.559322 10.3728814,15.559322 Z" id="Path"></path>
                                <path d="M14.3389831,1.83050847 L10.0543729,1.83050847 C10.0208136,1.44915254 9.90335593,0.806033898 9.50125424,0.393254237 C9.24681356,0.13240678 8.9240339,0 8.5420678,0 L5.49152542,0 C5.10955932,0 4.78677966,0.13240678 4.53233898,0.393254237 C4.13023729,0.806033898 4.01277966,1.44915254 3.97922034,1.83050847 L0.305084746,1.83050847 C0.136677966,1.83050847 1.58273394e-13,1.96688136 1.58273394e-13,2.13559322 C1.58273394e-13,2.30430508 0.136677966,2.44067797 0.305084746,2.44067797 L0.927762712,2.44067797 L1.512,16.4809831 C1.52328814,17.006339 1.85033898,18 3.00935593,18 L11.6347119,18 C12.7937288,18 13.1207797,17.006339 13.1317627,16.4873898 L13.7163051,2.44067797 L14.3389831,2.44067797 C14.5073898,2.44067797 14.6440678,2.30430508 14.6440678,2.13559322 C14.6440678,1.96688136 14.5073898,1.83050847 14.3389831,1.83050847 Z M4.97044068,0.817932203 C5.10711864,0.67820339 5.27766102,0.610169492 5.49152542,0.610169492 L8.5420678,0.610169492 C8.7559322,0.610169492 8.92647458,0.67820339 9.06315254,0.817932203 C9.30874576,1.06901695 9.40728814,1.51077966 9.44145763,1.83050847 L4.59244068,1.83050847 C4.62661017,1.51077966 4.72515254,1.06901695 4.97044068,0.817932203 Z M12.5218983,16.4681695 C12.5200678,16.5624407 12.4779661,17.3898305 11.6347119,17.3898305 L3.00935593,17.3898305 C2.17525424,17.3898305 2.12522034,16.5609153 2.12186441,16.4617627 L1.53823729,2.44067797 L13.1055254,2.44067797 L12.5218983,16.4681695 Z" id="Shape"></path>
                            </g>
                        </g>
                    </g>
                </g>
            </g>
        </g>
    </g>
</svg>