<?xml version="1.0" encoding="UTF-8"?>
<svg width="40px" height="40px" viewBox="0 0 40 40" version="1.1" xmlns="http://www.w3.org/2000/svg" xmlns:xlink="http://www.w3.org/1999/xlink">
    <title>EEEF02DB-8D86-4059-8CEF-6E922A9192BB</title>
    <g id="Page-2" stroke="none" stroke-width="1" fill="none" fill-rule="evenodd">
        <g id="Icons" transform="translate(-200.000000, -2290.000000)">
            <g id="Group-3" transform="translate(40.000000, 2151.000000)">
                <g id="Elements/Icons/LessonTypes/Big-Idea/EVS" transform="translate(160.000000, 139.000000)">
                    <g id="Flag/Black" transform="translate(4.000000, 4.000000)">
                        <circle id="Oval" stroke="#1268B3" stroke-width="0.6" fill-opacity="0.06" fill="#0073C1" cx="16" cy="16" r="15.7"></circle>
                        <path d="M23.9027,6.15353333 C23.7344,6.0857 19.7377333,4.52113333 16.6280333,6.17003333 C14.1640333,7.47793333 9.83883333,6.49673333 8.73333333,6.21293333 L8.73333333,5.36666667 C8.73333333,5.1639 8.56943333,5 8.36666667,5 C8.1639,5 8,5.1639 8,5.36666667 L8,6.46666667 C8,6.4718 8.00256667,6.4762 8.00293333,6.48133333 C8.00293333,6.48573333 8,6.4894 8,6.4938 L8,17.1 L8,17.4938 L8,26.6333333 C8,26.8361 8.1639,27 8.36666667,27 C8.56943333,27 8.73333333,26.8361 8.73333333,26.6333333 L8.73333333,17.9708333 C9.56676667,18.1787333 11.3832333,18.5692333 13.2682667,18.5692333 C14.5725,18.5692333 15.9082667,18.3818667 16.9719667,17.8179333 C19.7777,16.3289 23.5925,17.8194 23.6306333,17.8344333 C23.7439333,17.8799 23.8715333,17.8659667 23.9723667,17.7970333 C24.0728333,17.7292 24.1333333,17.6155333 24.1333333,17.4938 L24.1333333,6.4938 C24.1333333,6.34383333 24.0420333,6.20926667 23.9027,6.15353333 Z M23.4,16.9771667 C22.2046667,16.5965667 19.1298,15.8419667 16.6280333,17.1696667 C14.1644,18.4772 9.84066667,17.4967333 8.73333333,17.2129333 L8.73333333,17.1 L8.73333333,6.97083333 C10.1461,7.3232 14.3730333,8.1966 16.9719667,6.81793333 C19.3795,5.54083333 22.5299,6.45676667 23.4,6.75156667 L23.4,16.9771667 Z" id="Shape" fill="#1268B3" fill-rule="nonzero"></path>
                    </g>
                </g>
            </g>
        </g>
    </g>
</svg>