<?xml version="1.0" encoding="UTF-8"?>
<svg width="24px" height="24px" viewBox="0 0 24 24" version="1.1" xmlns="http://www.w3.org/2000/svg" xmlns:xlink="http://www.w3.org/1999/xlink">
    <title>2105C40E-496B-41B5-AC2C-12B8C50B1344</title>
    <g id="🥸Create-Study-Plan" stroke="none" stroke-width="1" fill="none" fill-rule="evenodd">
        <g id="B-04-OneSubjectSelected" transform="translate(-101.000000, -229.000000)">
            <g id="EVS" transform="translate(0.000000, 120.000000)">
                <g id="Done/Colour" transform="translate(101.000000, 109.000000)">
                    <path d="M12,6 C8.69169231,6 6,8.69146154 6,12 C6,15.3085385 8.69169231,18 12,18 C15.3083077,18 18,15.3085385 18,12 C18,8.69146154 15.3083077,6 12,6 Z" id="Shape" fill="#02B55C"></path>
                    <path d="M14.8273846,9.53907692 L11.2806923,13.5290769 L9.144,11.8197692 C9.04476923,11.7401538 8.89915385,11.7565385 8.81976923,11.8557692 C8.74015385,11.9554615 8.75630769,12.1006154 8.85576923,12.1802308 L11.1634615,14.0263846 C11.2059231,14.0603077 11.2569231,14.0769231 11.3076923,14.0769231 C11.3713846,14.0769231 11.4348462,14.0506154 11.4803077,13.9993846 L15.1726154,9.84553846 C15.2573077,9.75046154 15.2487692,9.60438462 15.1534615,9.51992308 C15.0579231,9.435 14.9123077,9.44353846 14.8273846,9.53907692 Z" id="Path" stroke="#FFFFFF" stroke-width="0.4" fill="#FFFFFF" fill-rule="nonzero"></path>
                </g>
            </g>
        </g>
    </g>
</svg>