<?xml version="1.0" encoding="UTF-8"?>
<svg width="24px" height="25px" viewBox="0 0 24 25" version="1.1" xmlns="http://www.w3.org/2000/svg" xmlns:xlink="http://www.w3.org/1999/xlink">
    <title>B396651D-603B-428C-871C-4FD79E5E3FA8</title>
    <g id="A-:-Browse-Books" stroke="none" stroke-width="1" fill="none" fill-rule="evenodd">
        <g id="G-05-ST-DefaultView" transform="translate(-20.000000, -77.000000)" fill-rule="nonzero">
            <g id="Screens/BrowseBooks/Chapters/Default-NEW">
                <g id="Highlight" transform="translate(16.000000, 75.000000)">
                    <g id="Elements/CTAs/Internal/ContextualWithIcon">
                        <g id="Elements/Graphics/Style3/Marker/Colour" transform="translate(4.000000, 3.000000)">
                            <g id="Marker">
                                <g id="Marker/Colour" transform="translate(3.036875, 1.784167)">
                                    <polygon id="Path" fill="#FF6C77" transform="translate(6.041105, 17.550641) rotate(-160.000000) translate(-6.041105, -17.550641) " points="4.69629099 19.4127014 4.69629099 16.7042639 7.3859199 15.6885807 7.3859199 19.4127014"></polygon>
                                    <path d="M15.1035586,11.8181818 L15.1035586,10.8024986 C15.1035586,10.6155313 14.953043,10.4639247 14.7673359,10.4639247 L14.4311133,10.4639247 L14.4311133,8.99169602 C14.431418,8.83970597 14.3302998,8.70647017 14.1845449,8.66692898 C13.4670059,8.47704688 12.8029014,8.3543196 12.2397246,7.82881676 C11.7552334,7.35416903 11.3932646,6.76745597 11.1853535,6.11976278 C11.0816074,5.81724006 11.0024268,5.50674006 10.9485732,5.19129261 C10.7994668,4.24721307 10.7277129,3.29239489 10.7340732,2.33646449 C10.7331973,2.15053267 10.5833672,2.00019176 10.3987266,2 L7.70483203,2 C7.52019141,2.00019176 7.37036133,2.15053267 7.36948535,2.33646449 C7.3758457,3.29239489 7.3040918,4.24721307 7.15498535,5.19129261 C7.10113184,5.50674006 7.02191309,5.81724006 6.91820508,6.11976278 C6.71029395,6.76745597 6.3483252,7.35416903 5.86383398,7.82881676 C5.30065723,8.3543196 4.63659082,8.47704688 3.91901367,8.66692898 C3.77329687,8.70647017 3.67214062,8.83970597 3.67244531,8.99169602 L3.67244531,10.4639247 L3.33622266,10.4639247 C3.15055371,10.4639247 3,10.6154929 3,10.8024986 L3,11.8181818 C3.37137598,11.8181818 3.67240723,12.1213565 3.67240723,12.4952912 C3.67240723,12.8692259 3.37137598,13.1724006 3,13.1724006 L3,16.5579858 L15.1035586,16.5579858 L15.1035586,13.1724006 C14.7320684,13.1724006 14.4310371,12.8692642 14.4310371,12.4952912 C14.4310371,12.1213182 14.7321826,11.8181818 15.1035586,11.8181818 Z" id="Path" fill="#3A3E48" transform="translate(9.051779, 9.278993) rotate(-160.000000) translate(-9.051779, -9.278993) "></path>
                                    <rect id="Rectangle" fill="#FF6C77" transform="translate(10.962354, 4.029675) rotate(-160.000000) translate(-10.962354, -4.029675) " x="4.91063215" y="2.33688196" width="12.1034443" height="3.38558523"></rect>
                                    <path d="M15.7403483,7.19065989 L15.7403483,8.20634312 L3.63686586,8.20634312 L3.63686586,7.19065989 C3.63686586,7.00369256 3.78738149,6.85208602 3.97308852,6.85208602 L15.4041256,6.85208602 C15.5897946,6.85208602 15.7403483,7.00369256 15.7403483,7.19065989 Z" id="Path" fill="#717275" transform="translate(9.688607, 7.529215) rotate(-160.000000) translate(-9.688607, -7.529215) "></path>
                                </g>
                            </g>
                        </g>
                    </g>
                </g>
            </g>
        </g>
    </g>
</svg>