<?xml version="1.0" encoding="UTF-8"?>
<svg width="300px" height="299px" viewBox="0 0 300 299" version="1.1" xmlns="http://www.w3.org/2000/svg" xmlns:xlink="http://www.w3.org/1999/xlink">
    <title>3CE2A296-FD84-4051-B99D-F3D227EF26B2</title>
    <defs>
        <radialGradient cx="60.0119827%" cy="14.8429899%" fx="60.0119827%" fy="14.8429899%" r="60.7676788%" gradientTransform="translate(0.600120,0.148430),scale(0.725979,1.000000),translate(-0.600120,-0.148430)" id="radialGradient-1">
            <stop stop-color="#D6ECFE" offset="0%"></stop>
            <stop stop-color="#CFF0FE" offset="57.06%"></stop>
            <stop stop-color="#C6F5FF" offset="100%"></stop>
        </radialGradient>
        <linearGradient x1="55.2371931%" y1="31.9470588%" x2="46.6545607%" y2="86.1823529%" id="linearGradient-2">
            <stop stop-color="#0E0C3B" offset="0%"></stop>
            <stop stop-color="#5E40C9" offset="79.22%"></stop>
            <stop stop-color="#7954FF" offset="92.16%"></stop>
            <stop stop-color="#563ABB" offset="100%"></stop>
        </linearGradient>
        <linearGradient x1="36.6755618%" y1="78.2100289%" x2="69.180618%" y2="23.3779858%" id="linearGradient-3">
            <stop stop-color="#683CB1" offset="0%"></stop>
            <stop stop-color="#6559C2" offset="34.9%"></stop>
            <stop stop-color="#6A3CB6" offset="61.18%"></stop>
            <stop stop-color="#653EAF" offset="87.06%"></stop>
            <stop stop-color="#695CC2" offset="90.98%"></stop>
            <stop stop-color="#1E1848" offset="94.51%"></stop>
        </linearGradient>
        <linearGradient x1="37.1666795%" y1="41.8253623%" x2="52.3426515%" y2="57.643791%" id="linearGradient-4">
            <stop stop-color="#211036" offset="0%"></stop>
            <stop stop-color="#422480" offset="56.08%"></stop>
            <stop stop-color="#2A247F" offset="100%"></stop>
        </linearGradient>
        <linearGradient x1="48.9252178%" y1="50.8788945%" x2="56.219666%" y2="46.378392%" id="linearGradient-5">
            <stop stop-color="#5B5AB7" offset="0%"></stop>
            <stop stop-color="#5B5AB7" offset="0%"></stop>
            <stop stop-color="#8E77DA" offset="7.058823%"></stop>
            <stop stop-color="#494695" offset="15.29%"></stop>
            <stop stop-color="#474493" offset="23.92%"></stop>
            <stop stop-color="#494695" offset="32.94%"></stop>
        </linearGradient>
        <linearGradient x1="29.4979786%" y1="89.0023758%" x2="68.584136%" y2="15.7197897%" id="linearGradient-6">
            <stop stop-color="#754BD7" offset="0%"></stop>
            <stop stop-color="#472791" offset="3.921568%"></stop>
            <stop stop-color="#754BD7" offset="9.411765%"></stop>
            <stop stop-color="#5F5FC5" offset="100%"></stop>
        </linearGradient>
        <linearGradient x1="24.0589699%" y1="75.8427986%" x2="73.31753%" y2="21.7595407%" id="linearGradient-7">
            <stop stop-color="#FFE9B4" offset="0%"></stop>
            <stop stop-color="#EECA71" offset="2.745098%"></stop>
            <stop stop-color="#FFE9A9" offset="7.058823%"></stop>
            <stop stop-color="#FFF4C9" offset="14.51%"></stop>
            <stop stop-color="#FFE9A9" offset="20.39%"></stop>
            <stop stop-color="#FFEBAC" offset="56.08%"></stop>
            <stop stop-color="#FFF2C6" offset="63.14%"></stop>
            <stop stop-color="#FDEAAE" offset="69.02%"></stop>
            <stop stop-color="#FEE8AD" offset="88.24%"></stop>
            <stop stop-color="#F7CB76" offset="95.29%"></stop>
            <stop stop-color="#FFE9A9" offset="100%"></stop>
        </linearGradient>
        <linearGradient x1="23.1019139%" y1="79.9316186%" x2="75.0422648%" y2="17.974135%" id="linearGradient-8">
            <stop stop-color="#FFC495" offset="0.7843137%"></stop>
            <stop stop-color="#EC9888" offset="3.529412%"></stop>
            <stop stop-color="#FFC495" offset="8.627451%"></stop>
            <stop stop-color="#FFDDC4" offset="14.51%"></stop>
            <stop stop-color="#FFC495" offset="20.39%"></stop>
            <stop stop-color="#FFC495" offset="56.08%"></stop>
            <stop stop-color="#FFDDC4" offset="63.14%"></stop>
            <stop stop-color="#FFC495" offset="69.02%"></stop>
            <stop stop-color="#FFC495" offset="88.24%"></stop>
            <stop stop-color="#FF9A95" offset="95.29%"></stop>
            <stop stop-color="#FFC495" offset="100%"></stop>
        </linearGradient>
        <linearGradient x1="2.38535156%" y1="90.1936092%" x2="93.0830078%" y2="24.1939002%" id="linearGradient-9">
            <stop stop-color="#6957C6" offset="0%"></stop>
            <stop stop-color="#21184D" offset="9.019607%"></stop>
            <stop stop-color="#4533A1" offset="14.51%"></stop>
        </linearGradient>
        <radialGradient cx="32.1050674%" cy="12.0617779%" fx="32.1050674%" fy="12.0617779%" r="167.05988%" gradientTransform="translate(0.321051,0.120618),scale(0.598671,1.000000),rotate(-7.292685),translate(-0.321051,-0.120618)" id="radialGradient-10">
            <stop stop-color="#2B00FF" stop-opacity="0.6196" offset="0%"></stop>
            <stop stop-color="#3E15FF" stop-opacity="0.4" offset="50.2%"></stop>
            <stop stop-color="#FFF35F" stop-opacity="0.01960784" offset="100%"></stop>
        </radialGradient>
        <radialGradient cx="-98.7251536%" cy="60.6094229%" fx="-98.7251536%" fy="60.6094229%" r="204.833402%" gradientTransform="translate(-0.987252,0.606094),scale(1.000000,0.483345),translate(0.987252,-0.606094)" id="radialGradient-11">
            <stop stop-color="#C058D7" offset="42.75%"></stop>
            <stop stop-color="#933FA7" offset="63.92%"></stop>
            <stop stop-color="#C058D7" offset="69.8%"></stop>
            <stop stop-color="#933FA7" offset="78.04%"></stop>
            <stop stop-color="#C058D7" offset="90.2%"></stop>
            <stop stop-color="#933FA7" offset="94.12%"></stop>
        </radialGradient>
        <radialGradient cx="89.034955%" cy="136.904647%" fx="89.034955%" fy="136.904647%" r="224.161441%" gradientTransform="translate(0.890350,1.369046),scale(1.000000,0.604786),translate(-0.890350,-1.369046)" id="radialGradient-12">
            <stop stop-color="#F68FAA" offset="42.75%"></stop>
            <stop stop-color="#BD5488" offset="63.92%"></stop>
            <stop stop-color="#F68FAA" offset="69.8%"></stop>
            <stop stop-color="#BD5488" offset="78.04%"></stop>
            <stop stop-color="#F68FAA" offset="90.2%"></stop>
            <stop stop-color="#BD5488" offset="94.12%"></stop>
        </radialGradient>
        <radialGradient cx="35.4340638%" cy="182.792369%" fx="35.4340638%" fy="182.792369%" r="306.808604%" gradientTransform="translate(0.354341,1.827924),scale(0.313140,1.000000),translate(-0.354341,-1.827924)" id="radialGradient-13">
            <stop stop-color="#F8DD8D" offset="42.75%"></stop>
            <stop stop-color="#F1BC64" offset="63.92%"></stop>
            <stop stop-color="#F8DD8D" offset="69.8%"></stop>
            <stop stop-color="#F1BC64" offset="78.04%"></stop>
            <stop stop-color="#F8DD8D" offset="90.2%"></stop>
            <stop stop-color="#F1BC64" offset="94.12%"></stop>
        </radialGradient>
        <radialGradient cx="86.5580365%" cy="66.8921136%" fx="86.5580365%" fy="66.8921136%" r="120.382021%" gradientTransform="translate(0.865580,0.668921),scale(0.719185,1.000000),rotate(-11.259425),translate(-0.865580,-0.668921)" id="radialGradient-14">
            <stop stop-color="#FF8ADD" offset="0%"></stop>
            <stop stop-color="#F0618A" offset="80.39%"></stop>
            <stop stop-color="#FF9CB2" offset="95.69%"></stop>
            <stop stop-color="#FF80A4" offset="100%"></stop>
        </radialGradient>
        <radialGradient cx="4.56175085%" cy="33.9372828%" fx="4.56175085%" fy="33.9372828%" r="131.160228%" gradientTransform="translate(0.045618,0.339373),scale(0.707406,1.000000),rotate(-4.793675),translate(-0.045618,-0.339373)" id="radialGradient-15">
            <stop stop-color="#FF80A4" offset="0%"></stop>
            <stop stop-color="#F0618A" offset="80.39%"></stop>
            <stop stop-color="#F4486D" offset="95.69%"></stop>
            <stop stop-color="#FF80A4" offset="100%"></stop>
        </radialGradient>
        <radialGradient cx="12.7043585%" cy="-5.025%" fx="12.7043585%" fy="-5.025%" r="178.638145%" gradientTransform="translate(0.127044,-0.050250),scale(0.435651,1.000000),translate(-0.127044,0.050250)" id="radialGradient-16">
            <stop stop-color="#E98F67" offset="35.69%"></stop>
            <stop stop-color="#B85A7C" offset="45.1%"></stop>
            <stop stop-color="#E98F67" offset="63.92%"></stop>
            <stop stop-color="#B85A7C" offset="68.63%"></stop>
            <stop stop-color="#E98F67" offset="90.2%"></stop>
            <stop stop-color="#B85A7C" offset="94.51%"></stop>
        </radialGradient>
        <radialGradient cx="51.5121224%" cy="-46.220861%" fx="51.5121224%" fy="-46.220861%" r="152.812148%" gradientTransform="translate(0.515121,-0.462209),scale(0.630281,1.000000),translate(-0.515121,0.462209)" id="radialGradient-17">
            <stop stop-color="#FF802D" offset="42.75%"></stop>
            <stop stop-color="#D75130" offset="63.92%"></stop>
            <stop stop-color="#FFAC2D" offset="69.8%"></stop>
            <stop stop-color="#D44E31" offset="78.04%"></stop>
            <stop stop-color="#FF802D" offset="90.2%"></stop>
            <stop stop-color="#CC403A" offset="94.12%"></stop>
        </radialGradient>
        <radialGradient cx="107.761248%" cy="22.5679078%" fx="107.761248%" fy="22.5679078%" r="111.53601%" gradientTransform="translate(1.077612,0.225679),scale(1.000000,0.977634),rotate(-14.958434),translate(-1.077612,-0.225679)" id="radialGradient-18">
            <stop stop-color="#FED165" offset="0%"></stop>
            <stop stop-color="#FDBB8A" offset="62.75%"></stop>
            <stop stop-color="#F96C53" offset="95.69%"></stop>
            <stop stop-color="#FDBB8A" offset="100%"></stop>
        </radialGradient>
        <radialGradient cx="13.6812272%" cy="160.040274%" fx="13.6812272%" fy="160.040274%" r="215.803228%" gradientTransform="translate(0.136812,1.600403),scale(0.468172,1.000000),rotate(-24.025439),translate(-0.136812,-1.600403)" id="radialGradient-19">
            <stop stop-color="#FEA560" offset="0%"></stop>
            <stop stop-color="#FE9C60" offset="80.39%"></stop>
            <stop stop-color="#FFE8AD" offset="95.69%"></stop>
            <stop stop-color="#FED360" offset="100%"></stop>
        </radialGradient>
        <radialGradient cx="28.1873824%" cy="18.4064234%" fx="28.1873824%" fy="18.4064234%" r="106.904016%" gradientTransform="translate(0.281874,0.184064),scale(0.937398,1.000000),rotate(-14.775450),translate(-0.281874,-0.184064)" id="radialGradient-20">
            <stop stop-color="#F8ED96" offset="0%"></stop>
            <stop stop-color="#F9C461" offset="62.75%"></stop>
            <stop stop-color="#FA8646" offset="95.69%"></stop>
            <stop stop-color="#FDD569" offset="100%"></stop>
        </radialGradient>
        <radialGradient cx="59.6968708%" cy="82.5891412%" fx="59.6968708%" fy="82.5891412%" r="186.384925%" gradientTransform="translate(0.596969,0.825891),scale(0.466749,1.000000),rotate(-16.275904),translate(-0.596969,-0.825891)" id="radialGradient-21">
            <stop stop-color="#FFF185" offset="0%"></stop>
            <stop stop-color="#FFF391" offset="47.06%"></stop>
            <stop stop-color="#FFFDD2" offset="63.14%"></stop>
        </radialGradient>
        <radialGradient cx="5.31345944%" cy="9.77424228%" fx="5.31345944%" fy="9.77424228%" r="137.051868%" gradientTransform="translate(0.053135,0.097742),scale(0.653257,1.000000),rotate(-12.170605),translate(-0.053135,-0.097742)" id="radialGradient-22">
            <stop stop-color="#FFFFFF" stop-opacity="0.9882" offset="0%"></stop>
            <stop stop-color="#FFFFFF" stop-opacity="0.01960784" offset="100%"></stop>
        </radialGradient>
        <linearGradient x1="70.6403846%" y1="77.4397831%" x2="37.4846154%" y2="34.6280425%" id="linearGradient-23">
            <stop stop-color="#A86ABC" offset="0%"></stop>
            <stop stop-color="#FF8C90" offset="100%"></stop>
        </linearGradient>
        <linearGradient x1="36.2206184%" y1="17.9534884%" x2="72.4285964%" y2="91.9139535%" id="linearGradient-24">
            <stop stop-color="#21184D" stop-opacity="0.6196" offset="0%"></stop>
            <stop stop-color="#FFF35F" stop-opacity="0.01960784" offset="100%"></stop>
        </linearGradient>
        <linearGradient x1="39.7660307%" y1="54.8575%" x2="60.1242186%" y2="46.7325%" id="linearGradient-25">
            <stop stop-color="#A1D7FD" offset="17.25%"></stop>
            <stop stop-color="#6163A9" offset="41.96%"></stop>
            <stop stop-color="#5F61A7" offset="62.75%"></stop>
            <stop stop-color="#A1A5FD" offset="72.94%"></stop>
        </linearGradient>
    </defs>
    <g id="Study-Rings/Graph-&amp;-Alerts-Jira" stroke="none" stroke-width="1" fill="none" fill-rule="evenodd">
        <g id="AFS-1513-Alert-PausePlan" transform="translate(-490.000000, -110.000000)" fill-rule="nonzero">
            <g id="Compounds/MainColumn/BlankContent/Onboarding/Desktop" transform="translate(333.000000, 110.000000)">
                <g id="Elements/Graphics/OnboardingTour/Goal" transform="translate(157.000000, 0.000000)">
                    <g id="paused-plan" transform="translate(34.000000, 81.722034)">
                        <path d="M12.3867597,101.647435 C9.57219373,104.639481 -0.184968125,115.298645 0.00266960299,131.19389 C0.00266960299,134.559942 0.377945059,144.8451 7.69581645,153.821239 C14.2631369,161.862362 22.8944724,164.2934 30.2123438,166.350432 C40.9076943,169.342478 49.7266675,168.781469 57.2321767,168.22046 C69.2409912,167.285446 70.3668176,165.228414 84.0643718,162.98438 C103.953971,159.618328 119.903178,160.927348 123.468295,161.114351 C135.664747,162.049365 134.914196,163.732391 153.677969,165.789423 C170.377727,167.659452 177.132685,167.098443 180.134889,166.724437 C187.828035,165.976426 195.521182,165.041411 204.527793,160.366339 C216.161332,154.008241 222.353377,144.8451 224.60503,141.105043 C231.359988,129.88487 231.735264,119.225706 231.922901,112.493602 C232.110539,107.444524 232.485815,94.3543227 225.730856,80.5161096 C221.790464,72.4749858 219.914087,73.5970031 211.658027,59.5717871 C210.719838,57.8887612 209.78165,56.3927381 200.962676,39.5624789 C191.956065,22.5452168 191.393152,21.2361967 188.953862,18.4311535 C185.576383,14.504093 179.947251,7.77198933 170.190089,3.65792597 C166.81261,2.34890581 157.055448,-1.57815467 145.234271,1.22688853 C136.602936,3.28392021 131.161441,7.95899221 125.157034,13.1950728 C116.900974,20.4881852 112.585306,27.033286 108.457276,32.8303752 C99.6383032,45.1725653 87.4418509,62.3768303 69.428629,73.0359944 C60.7972935,78.0850722 61.7354821,75.280029 37.1549398,86.8742075 C19.8922688,94.9153314 15.7642388,97.9073775 12.3867597,101.647435 Z" id="Path" fill="url(#radialGradient-1)"></path>
                        <path d="M57.49663,178.384405 C55.4232488,189.852492 60.5124572,198.688559 60.5124572,198.688559 C63.9052627,204.704605 68.994471,207.524626 70.3138954,208.276632 C72.1987874,209.216639 78.9843985,212.976668 86.7124556,210.908652 C87.4664124,210.720651 94.4405127,208.840636 98.2102966,203.388595 C98.9642534,202.260586 99.9066994,200.756575 101.791591,198.876561 C102.734037,197.936554 104.618929,196.244541 107.446267,195.304534 C109.331159,194.740529 111.216051,194.552528 114.420368,194.928531 C120.640511,195.492535 125.352741,196.808545 125.918209,196.996546 C133.080798,199.064562 135.719647,200.568574 139.67792,201.696582 C143.259215,202.824591 151.55274,205.080608 160.78871,204.328602 C165.123962,203.952599 174.736911,203.200594 183.595903,196.244541 C185.857773,194.364526 196.601658,185.904462 196.978636,171.804355 C197.355614,162.028281 192.643385,155.072228 190.758493,152.440208 C183.218925,142.28813 171.532594,139.65611 161.542667,137.588095 C153.437631,135.896082 136.473604,133.640065 113.289432,140.032113 C103.299505,142.852135 61.8318815,154.13222 57.49663,178.384405 Z" id="Path" fill="#B2B1E5"></path>
                        <g id="Group" transform="translate(36.000000, 10.205288)">
                            <g transform="translate(61.738272, 165.445424)" fill="url(#linearGradient-2)" id="Layer0_0_MEMBER_0_MEMBER_0_FILL">
                                <path d="M0.125925926,11.2271186 C0.125925926,12.9111864 0.87654321,14.2210169 2.19012346,15.1566102 C3.31604938,15.7179661 4.44197531,15.9050847 5.75555556,15.9050847 C4.62962963,15.7179661 3.87901235,15.5308475 3.31604938,14.9694915 C2.75308642,14.4081356 2.37777778,13.4725424 2.37777778,12.3498305 L3.69135802,0 L0.87654321,2.80677966 L0.125925926,11.2271186 Z" id="Path"></path>
                            </g>
                            <g transform="translate(66.367901, 130.889492)" fill="url(#linearGradient-3)" id="Layer0_0_MEMBER_0_MEMBER_1_FILL">
                                <path d="M0.187654321,46.5315254 L2.25185185,47.6542373 L66.8049383,12.8501695 L66.8049383,10.9789831 L59.2987654,0.126101695 L56.4839506,1.24881356 L62.4888889,10.0433898 C63.0518519,10.7918644 62.8641975,11.3532203 61.9259259,11.7274576 L0,44.660339 L0.187654321,46.5315254 Z" id="Path"></path>
                            </g>
                            <g transform="translate(63.614815, 128.021695)" fill="url(#linearGradient-4)" id="Layer0_0_MEMBER_0_MEMBER_2_FILL">
                                <path d="M0.501234568,49.2122034 C0.501234568,50.7091525 0.688888889,51.8318644 1.43950617,52.580339 C2.37777778,53.1416949 3.31604938,53.3288136 4.44197531,52.9545763 L70.8716049,17.4020339 C72.5604938,16.279322 72.7481481,14.7823729 71.8098765,12.5369492 L63.9283951,0.93559322 L61.6765432,2.99389831 L68.8074074,13.2854237 C69.3703704,14.2210169 69.182716,14.7823729 68.6197531,15.3437288 L6.1308642,49.2122034 C4.62962963,49.5864407 4.06666667,49.2122034 4.06666667,47.7152542 L5.19259259,34.9911864 L1.81481481,37.0494915 L0.501234568,49.2122034 Z" id="Path"></path>
                            </g>
                            <g transform="translate(74.874074, 89.723390)" fill="url(#linearGradient-5)" id="Layer0_0_MEMBER_1_MEMBER_0_FILL">
                                <polygon id="Path" points="6.1308642 37.5498305 10.2592593 35.6786441 4.44197531 0.313220339 0.125925926 1.4359322"></polygon>
                            </g>
                            <g transform="translate(74.874074, 89.723390)" fill="#16093F" fill-opacity="0.3373" id="Layer0_0_MEMBER_1_MEMBER_1_FILL">
                                <g>
                                    <path d="M1.62716049,10.7918644 L2.19012346,13.9728814 C2.19012346,13.9728814 2.19012346,13.7857627 2.19012346,13.7857627 C2.37777778,12.8501695 2.75308642,11.9145763 3.87901235,10.7918644 C4.44197531,10.2305085 4.81728395,9.66915254 5.19259259,8.92067797 C5.38024691,8.35932203 5.56790123,7.7979661 5.75555556,7.23661017 L5.19259259,4.05559322 C5.00493827,5.36542373 4.44197531,6.67525424 3.5037037,7.61084746 C2.5654321,8.73355932 2.00246914,9.66915254 1.81481481,10.4176271 C1.62716049,10.6047458 1.62716049,10.6047458 1.62716049,10.7918644 C1.62716049,10.6047458 1.62716049,10.7918644 1.62716049,10.7918644 M9.50864198,36.0528814 L9.50864198,36.0528814 C9.6962963,35.4915254 9.88395062,34.9301695 10.0716049,34.3688136 L9.50864198,31.1877966 C9.32098765,32.4976271 8.75802469,33.620339 7.81975309,34.7430508 C6.88148148,35.8657627 6.31851852,36.8013559 6.1308642,37.5498305 L6.1308642,37.5498305 L9.50864198,36.0528814 M6.69382716,27.819661 C5.75555556,28.9423729 5.19259259,29.8779661 5.00493827,30.8135593 L5.56790123,33.9945763 C5.75555556,33.0589831 6.31851852,32.1233898 7.25679012,31.000678 C8.19506173,30.0650847 8.75802469,28.9423729 8.94567901,27.4454237 L8.38271605,24.2644068 C8.19506173,25.5742373 7.63209877,26.8840678 6.69382716,27.819661 M5.56790123,20.8962712 C4.44197531,22.0189831 3.87901235,23.1416949 3.87901235,24.0772881 L4.44197531,27.2583051 C4.44197531,26.3227119 5.00493827,25.2 6.1308642,24.0772881 C7.0691358,23.1416949 7.63209877,22.0189831 7.81975309,20.5220339 L7.25679012,17.3410169 C7.0691358,18.8379661 6.50617284,19.960678 5.56790123,20.8962712 M5.00493827,17.3410169 C5.94320988,16.4054237 6.50617284,15.2827119 6.69382716,13.7857627 L6.1308642,10.6047458 C5.94320988,11.9145763 5.38024691,13.0372881 4.44197531,14.16 C3.31604938,15.4698305 2.75308642,16.5925424 2.75308642,17.5281356 L3.31604938,20.5220339 C3.31604938,19.5864407 3.87901235,18.4637288 5.00493827,17.3410169 M0.501234568,3.68135593 C0.501234568,3.68135593 0.501234568,3.68135593 0.501234568,3.68135593 C0.501234568,3.86847458 0.501234568,3.86847458 0.501234568,4.05559322 L0.501234568,4.24271186 L1.06419753,7.23661017 L1.06419753,7.04949153 C1.06419753,7.04949153 1.06419753,6.86237288 1.06419753,6.86237288 C1.25185185,5.92677966 1.62716049,4.99118644 2.75308642,3.86847458 C3.31604938,3.30711864 3.69135802,2.74576271 4.06666667,1.99728814 C4.25432099,1.4359322 4.44197531,0.874576271 4.62962963,0.313220339 L4.62962963,0.313220339 L2.00246914,1.06169492 C1.06419753,1.99728814 0.688888889,2.74576271 0.501234568,3.68135593 Z" id="Shape"></path>
                                </g>
                            </g>
                            <g transform="translate(49.479012, 95.336949)" fill="url(#linearGradient-6)" id="Layer0_0_MEMBER_2_MEMBER_0_FILL">
                                <path d="M3.00246914,76.8447458 L0,77.5932203 C2.62716049,78.9030508 5.06666667,80.0257627 7.31851852,80.9613559 C8.25679012,81.1484746 9.19506173,80.9613559 9.75802469,80.4 C17.8271605,70.4827119 26.2716049,63.3722034 35.4666667,59.0684746 L72.2469136,41.479322 C77.5012346,39.0467797 81.254321,35.3044068 83.5061728,30.2522034 L87.8222222,21.2705085 C91.0123457,15.2827119 95.1407407,10.4176271 100.207407,6.67525424 C101.145679,5.73966102 101.333333,4.42983051 100.958025,3.12 C100.582716,1.81016949 100.207407,0.874576271 99.2691358,0.687457627 L97.2049383,0.126101695 L88.7604938,5.73966102 L83.8814815,13.9728814 L75.6246914,29.3166102 L69.6197531,34.9301695 L38.4691358,49.899661 L23.8320988,57.0101695 L11.6345679,66.740339 L3.00246914,76.8447458 Z" id="Path"></path>
                            </g>
                            <g transform="translate(20.454321, 79.370847)" fill="url(#linearGradient-7)" id="Layer0_0_MEMBER_2_MEMBER_2_FILL">
                                <path d="M0.688888889,68.6725424 C-0.0617283951,70.5437288 0.125925926,71.8535593 1.25185185,72.7891525 L28.4617284,93.1850847 C30.9012346,94.4949153 32.9654321,94.120678 34.2790123,91.8752542 C41.2222222,82.519322 49.6666667,75.5959322 59.237037,70.7308475 L99.0197531,51.6447458 C103.523457,49.7735593 107.839506,43.7857627 111.967901,33.8684746 C116.283951,24.3254237 121.91358,18.3376271 128.481481,16.4664407 L96.3925926,1.12271186 C94.3283951,0.187118644 92.2641975,0.187118644 90.2,1.12271186 C85.1333333,3.74237288 79.691358,10.4786441 74.0617284,21.5186441 C69.9333333,29.1905085 64.6790123,34.4298305 57.9234568,36.8623729 L19.2666667,51.6447458 C11.3851852,53.8901695 5.19259259,59.8779661 0.688888889,68.6725424 Z" id="Path"></path>
                            </g>
                            <g transform="translate(24.207407, 81.242034)" fill="url(#linearGradient-8)" id="Layer0_0_MEMBER_2_MEMBER_3_FILL">
                                <path d="M14.5753086,83.6420339 L22.0814815,89.2555932 C26.7728395,80.4610169 33.5283951,73.3505085 42.7234568,68.2983051 L80.6296296,50.5220339 C87.3851852,47.7152542 92.6395062,42.1016949 96.7679012,34.2427119 C102.585185,23.0155932 108.02716,15.9050847 113.093827,13.2854237 C114.595062,12.5369492 116.283951,11.9755932 118.348148,11.6013559 L110.654321,7.85898305 C109.340741,8.23322034 108.02716,8.98169492 106.338272,9.91728814 C101.271605,12.7240678 95.8296296,19.6474576 90.2,30.8745763 C86.0716049,38.7335593 80.817284,44.16 74.0617284,46.779661 L35.4049383,62.8718644 C26.3975309,67.5498305 19.454321,74.4732203 14.5753086,83.6420339 M2.00246914,70.1694915 C1.43950617,71.1050847 1.06419753,72.2277966 0.688888889,73.3505085 L7.81975309,78.5898305 C11.7604938,68.6725424 18.5160494,61.9362712 28.0864198,58.3810169 L65.9925926,42.1016949 C72.7481481,39.4820339 78.0024691,34.2427119 82.1308642,26.3837288 C87.9481481,15.3437288 93.3901235,8.42033898 98.4567901,5.98779661 C99.9580247,5.23932203 101.646914,4.6779661 103.711111,4.49084746 L96.3925926,0.93559322 C94.891358,0.93559322 93.3901235,1.49694915 91.7012346,2.43254237 C86.6345679,5.05220339 81.1925926,11.7884746 75.562963,22.8284746 C71.4345679,30.500339 66.1802469,35.739661 59.4246914,38.1722034 L20.7679012,52.9545763 C12.8864198,55.3871186 6.69382716,61.1877966 2.00246914,70.1694915 Z" id="Shape"></path>
                            </g>
                            <g transform="translate(54.232099, 97.208136)" fill="url(#linearGradient-9)" id="Layer0_0_MEMBER_2_MEMBER_4_FILL">
                                <path d="M0.125925926,77.9674576 L0.688888889,78.3416949 C2.00246914,78.7159322 3.12839506,78.5288136 4.25432099,77.780339 C11.1975309,69.36 18.3283951,63.1850847 25.4592593,59.0684746 L69.5580247,37.3627119 C72.7481481,35.4915254 75.1876543,32.8718644 76.6888889,29.6908475 L83.0691358,17.3410169 C86.4469136,11.1661017 90.9506173,6.30101695 96.2049383,2.93288136 C96.2049383,2.37152542 96.2049383,1.4359322 95.8296296,0.313220339 C95.8296296,1.81016949 95.2666667,2.74576271 94.3283951,3.12 C90.9506173,5.55254237 88.3234568,8.17220339 86.2592593,10.7918644 C84.5703704,13.0372881 83.0691358,15.2827119 81.9432099,17.7152542 C81.9432099,17.7152542 81.9432099,17.7152542 81.9432099,17.7152542 L76.5012346,28.5681356 C74.6246914,32.4976271 71.8098765,35.4915254 68.0567901,37.3627119 L25.0839506,58.5071186 C17.9530864,62.6237288 10.8222222,68.7986441 3.87901235,77.2189831 C3.12839506,77.780339 1.81481481,77.9674576 0.125925926,77.9674576 Z" id="Path"></path>
                            </g>
                            <g transform="translate(58.861728, 79.370847)" fill="url(#radialGradient-10)" id="Layer0_0_MEMBER_2_MEMBER_5_FILL">
                                <path d="M79.9407407,19.2732203 C83.3185185,17.5891525 85.0074074,15.7179661 85.382716,13.8467797 L57.9851852,0.748474576 C55.9209877,-0.187118644 53.8567901,-0.187118644 51.7925926,0.748474576 C46.7259259,3.36813559 41.2839506,10.1044068 35.654321,21.1444068 C31.5259259,28.8162712 26.2716049,34.0555932 19.5160494,36.4881356 L0,43.7857627 C10.8839506,49.5864407 22.3308642,52.0189831 34.3407407,50.8962712 C45.4123457,49.960678 53.4814815,45.8440678 58.7358025,38.7335593 C65.1160494,29.9389831 72.2469136,23.3898305 79.9407407,19.2732203 Z" id="Path"></path>
                            </g>
                            <g transform="translate(112.404938, 40.075932)" fill="url(#radialGradient-11)" id="Layer0_0_MEMBER_3_FILL">
                                <path d="M17.0148148,0.561355932 L10.4469136,15.9050847 L2.00246914,25.6352542 C0.501234568,30.500339 0.501234568,33.3071186 1.43950617,33.8684746 C3.12839506,34.9911864 6.1308642,32.3715254 10.0716049,26.0094915 C14.3876543,18.8989831 16.6395062,10.2915254 17.0148148,0.561355932 Z" id="Path"></path>
                            </g>
                            <g transform="translate(0.688889, 20.489492)" fill="url(#radialGradient-12)" id="Layer0_0_MEMBER_4_FILL">
                                <path d="M26.2716049,0.313220339 C22.7061728,0.313220339 19.3283951,1.24881356 16.1382716,3.12 C10.508642,7.04949153 6.56790123,11.9145763 3.75308642,17.9023729 C-3.81722431e-13,27.0711864 -0.750617284,33.9945763 1.50123457,39.0467797 C3.19012346,42.7891525 5.81728395,44.0989831 9.19506173,42.9762712 L7.88148148,29.1294915 L15.3876543,10.7918644 L26.2716049,0.313220339 Z" id="Path"></path>
                            </g>
                            <g transform="translate(19.454321, 0.781017)" fill="url(#radialGradient-13)" id="Layer0_0_MEMBER_5_FILL">
                                <path d="M0.938271605,17.4020339 C-0.750617284,19.0861017 1.12592593,20.0216949 6.38024691,19.8345763 L30.0246914,6.92338983 L62.6765432,0.93559322 C54.4197531,-0.561355932 42.5975309,0.748474576 27.0222222,4.86508475 C16.1382716,8.23322034 7.50617284,12.3498305 0.938271605,17.4020339 Z" id="Path"></path>
                            </g>
                            <g transform="translate(6.318519, 20.489492)" id="Layer0_0_MEMBER_6_FILL">
                                <path d="M18.5777778,0.313220339 C6.75555556,10.2305085 0.750617284,21.2705085 0.750617284,33.2461017 C0.750617284,36.8013559 1.31358025,40.3566102 2.43950617,43.5376271 C21.017284,27.819661 40.345679,16.779661 60.4246914,10.0433898 C60.6123457,10.0433898 60.8,9.85627119 60.9876543,9.85627119 L60.8,9.66915254 L52.5432099,6.67525424 C51.9802469,6.48813559 51.2296296,6.11389831 50.6666667,5.92677966 C50.6666667,5.92677966 50.6666667,5.92677966 50.6666667,5.92677966 C50.6666667,5.92677966 50.6666667,5.92677966 50.4790123,5.92677966 C38.4691358,1.62305085 27.9604938,-0.248135593 18.5777778,0.313220339 Z" id="Path" fill="url(#radialGradient-14)"></path>
                                <path d="M123.851852,16.779661 C123.851852,13.0372881 123.288889,9.29491525 121.975309,5.92677966 C102.834568,2.93288136 85.1950617,3.30711864 68.6814815,7.42372881 C67.5555556,7.7979661 66.2419753,7.98508475 64.9283951,8.35932203 C63.4271605,8.73355932 62.1135802,9.10779661 60.6123457,9.66915254 L60.8,9.85627119 C60.6123457,9.85627119 60.4246914,10.0433898 60.237037,10.0433898 C76.9382716,18.4637288 92.5135802,31.3749153 106.962963,48.9640678 C118.222222,39.0467797 123.851852,28.3810169 123.851852,16.779661 Z" id="Path" fill="url(#radialGradient-15)"></path>
                            </g>
                            <g transform="translate(45.725926, 68.143729)" fill="url(#radialGradient-16)" id="Layer0_0_MEMBER_7_FILL">
                                <path d="M4.31604938,20.5830508 C1.12592593,23.2027119 0.187654321,25.4481356 1.50123457,27.319322 C2.62716049,29.1905085 5.44197531,30.1261017 10.3209877,30.1261017 C21.9555556,29.7518644 33.4024691,27.319322 44.6617284,22.4542373 C58.9234568,15.9050847 66.8049383,8.79457627 67.9308642,0.93559322 L36.7802469,15.7179661 L4.31604938,20.5830508 Z" id="Path"></path>
                            </g>
                            <g transform="translate(4.441975, 63.526780)" fill="url(#radialGradient-17)" id="Layer0_0_MEMBER_8_FILL">
                                <path d="M5.06666667,0.126101695 C0.562962963,2.18440678 -0.750617284,5.55254237 1.31358025,10.6047458 C4.12839506,17.1538983 9.75802469,22.0189831 18.2024691,25.5742373 C29.2740741,29.6908475 38.4691358,29.6908475 45.6,25.3871186 L18.9530864,15.6569492 L5.06666667,0.126101695 Z" id="Path"></path>
                            </g>
                            <g transform="translate(8.195062, 0.781017)" id="Layer0_0_MEMBER_9_FILL">
                                <path d="M58.5481481,29.3776271 L58.5481481,29.3776271 C50.6666667,31.6230508 42.4098765,35.1783051 33.5901235,39.8562712 C30.962963,41.1661017 28.5234568,42.6630508 25.8962963,44.16 C16.7012346,49.5864407 8.0691358,55.9484746 0.375308642,63.2461017 C3.00246914,70.5437288 8.44444444,76.5315254 16.7012346,81.3966102 C24.0197531,85.5132203 32.2765432,88.1328814 41.4716049,88.8813559 C41.4716049,88.8813559 41.4716049,88.8813559 41.4716049,88.8813559 C44.4740741,67.3627119 50.1037037,47.5281356 58.5481481,29.3776271 C58.5481481,29.5647458 58.5481481,29.5647458 58.5481481,29.3776271 L58.5481481,29.3776271 L58.5481481,29.3776271 Z" id="Path" fill="url(#radialGradient-18)"></path>
                                <path d="M78.6271605,0.748474576 C78.6271605,0.748474576 78.6271605,0.748474576 78.6271605,0.748474576 C70.745679,9.16881356 64.1777778,18.7118644 58.5481481,29.3776271 L58.5481481,29.5647458 L58.5481481,29.5647458 C58.5481481,29.5647458 58.5481481,29.5647458 58.5481481,29.5647458 C58.5481481,29.5647458 58.5481481,29.5647458 58.5481481,29.5647458 C77.1259259,23.7640678 97.5802469,22.6413559 120.098765,26.0094915 C117.471605,18.8989831 112.02963,13.0983051 103.960494,8.42033898 C96.454321,3.92949153 88.0098765,1.49694915 78.6271605,0.748474576 Z" id="Path" fill="url(#radialGradient-19)"></path>
                            </g>
                            <g transform="translate(25.083951, 0.781017)" id="Layer0_0_MEMBER_10_FILL">
                                <path d="M24.7703704,88.6942373 C30.5876543,89.2555932 36.9679012,89.0684746 43.5358025,88.1328814 C60.6123457,85.8874576 75.0617284,79.7125424 87.0716049,69.6081356 C87.4469136,69.2338983 88.0098765,68.859661 88.3851852,68.4854237 C73.5604938,50.3349153 57.9851852,37.4237288 41.6592593,29.3776271 C32.4641975,47.7152542 26.8345679,67.3627119 24.7703704,88.6942373 Z" id="Path" fill="url(#radialGradient-20)"></path>
                                <path d="M0,19.8345763 C0,19.8345763 0,19.8345763 0,19.8345763 C11.2592593,19.460339 25.145679,22.6413559 41.6592593,29.5647458 C46.7259259,19.6474576 53.2938272,10.1044068 61.7382716,0.93559322 C56.108642,0.561355932 49.9160494,0.748474576 43.5358025,1.49694915 C26.6469136,3.55525424 12.0098765,9.73016949 0,19.8345763 Z" id="Path" fill="url(#radialGradient-21)"></path>
                            </g>
                            <g transform="translate(27.960494, 4.523390)" fill="url(#radialGradient-22)" id="Layer0_0_MEMBER_11_FILL">
                                <path d="M71.9975309,16.6535593 C70.6839506,10.4786441 65.9925926,5.98779661 58.1111111,3.18101695 C50.2296296,0.374237288 41.4098765,1.48803192e-12 31.4641975,2.05830508 C21.7061728,4.11661017 13.637037,8.23322034 7.63209877,14.0338983 C1.62716049,19.8345763 -0.812345679,25.8223729 0.688888889,31.9972881 C2.00246914,38.1722034 6.69382716,42.6630508 14.5753086,45.4698305 C22.4567901,48.2766102 31.2765432,48.6508475 41.2222222,46.5925424 C50.9802469,44.5342373 59.0493827,40.4176271 65.054321,34.6169492 C71.0592593,28.8162712 73.4987654,22.8284746 71.9975309,16.6535593 Z" id="Path"></path>
                            </g>
                            <g transform="translate(61.738272, 26.977627)" fill="#8A5386" id="Layer0_0_MEMBER_12_FILL">
                                <path d="M1.81481481,1.30983051 C0.87654321,2.05830508 0.313580247,2.99389831 0.313580247,3.92949153 C0.313580247,4.86508475 0.87654321,5.80067797 1.81481481,6.3620339 C2.75308642,6.92338983 3.87901235,7.29762712 5.19259259,7.29762712 C6.50617284,7.29762712 7.63209877,6.73627119 8.57037037,5.98779661 C9.50864198,5.23932203 10.0716049,4.30372881 10.0716049,3.36813559 C10.0716049,2.43254237 9.50864198,1.49694915 8.57037037,0.93559322 C7.63209877,0.374237288 6.50617284,0 5.19259259,0 C3.87901235,0.187118644 2.75308642,0.561355932 1.81481481,1.30983051 Z" id="Path"></path>
                            </g>
                            <g transform="translate(61.738272, 26.103051)" fill="url(#linearGradient-23)" id="Layer0_0_MEMBER_13_FILL">
                                <path d="M1.62716049,1.81016949 C0.688888889,2.55864407 0.125925926,3.49423729 0.125925926,4.42983051 C0.125925926,5.36542373 0.688888889,6.30101695 1.62716049,6.86237288 C2.5654321,7.42372881 3.69135802,7.7979661 5.00493827,7.7979661 C6.31851852,7.7979661 7.44444444,7.23661017 8.38271605,6.48813559 C9.32098765,5.73966102 9.88395062,4.8040678 9.88395062,3.86847458 C9.88395062,2.93288136 9.32098765,1.99728814 8.38271605,1.4359322 C7.44444444,0.874576271 6.31851852,0.500338983 5.00493827,0.500338983 C3.69135802,0.687457627 2.5654321,1.06169492 1.62716049,1.81016949 Z" id="Path"></path>
                            </g>
                            <g transform="translate(65.491358, 29.845424)" fill="url(#linearGradient-24)" id="Layer0_0_MEMBER_14_MEMBER_0_FILL">
                                <path d="M5.19259259,2.55864407 L3.12839506,0.126101695 L0.125925926,1.06169492 L2.94074074,4.05559322 L2.94074074,4.42983051 C5.75555556,7.7979661 8.19506173,11.7274576 9.6962963,16.2183051 L13.8246914,13.9728814 C11.9481481,10.2305085 9.13333333,6.67525424 5.19259259,3.12 L5.19259259,2.55864407 Z" id="Path"></path>
                            </g>
                            <g transform="translate(64.491358, 23.235254)" fill="url(#linearGradient-25)" id="Layer0_0_MEMBER_14_MEMBER_1_FILL">
                                <path d="M0.750617284,0.748474576 C0.562962963,0.93559322 0.375308642,1.12271186 0.375308642,1.49694915 C0.375308642,1.49694915 0.375308642,1.49694915 0.375308642,1.49694915 L0.375308642,6.92338983 C0.375308642,6.92338983 0.375308642,6.92338983 0.375308642,6.92338983 C0.375308642,7.29762712 0.562962963,7.48474576 0.938271605,7.67186441 C1.31358025,7.85898305 1.68888889,7.85898305 2.06419753,7.85898305 C2.43950617,7.85898305 3.00246914,7.67186441 3.19012346,7.48474576 C3.5654321,7.29762712 3.75308642,6.92338983 3.75308642,6.73627119 C3.75308642,6.54915254 3.75308642,6.54915254 3.75308642,6.3620339 L2.43950617,1.30983051 C2.43950617,1.12271186 2.25185185,0.93559322 2.06419753,0.748474576 C1.87654321,0.561355932 1.68888889,0.374237288 1.31358025,0.374237288 C1.12592593,0.561355932 0.938271605,0.561355932 0.750617284,0.748474576 Z" id="Path"></path>
                            </g>
                            <g transform="translate(65.388019, 23.778013)" fill="#24213A" fill-opacity="0.4667" id="Layer0_0_MEMBER_15_FILL">
                                <g>
                                    <path d="M0.914811951,0.958105262 C1.04549937,0.958105262 1.04549937,0.8277909 1.04549937,0.697476538 C1.04549937,0.567162176 1.04549937,0.567162176 0.914811951,0.436847813 C0.78412453,0.436847813 0.78412453,0.306533451 0.653437108,0.306533451 C0.522749687,0.306533451 0.522749687,0.306533451 0.392062265,0.436847813 C0.261374843,0.436847813 0.261374843,0.567162176 0.261374843,0.697476538 C0.261374843,0.8277909 0.261374843,0.8277909 0.392062265,0.958105262 C0.522749687,0.958105262 0.522749687,1.08841962 0.653437108,1.08841962 C0.78412453,0.958105262 0.914811951,0.958105262 0.914811951,0.958105262 Z" id="Path"></path>
                                </g>
                            </g>
                            <g transform="translate(64.491358, 24.231864)" fill="#FFFFFF" fill-opacity="0.8196" id="Layer0_0_MEMBER_16_FILL">
                                <g>
                                    <polygon id="Path" points="0.750617284 0.687457627 0.750617284 0.687457627 0.750617284 6.48813559 1.12592593 6.67525424"></polygon>
                                </g>
                            </g>
                        </g>
                    </g>
                </g>
            </g>
        </g>
    </g>
</svg>