<?xml version="1.0" encoding="UTF-8"?>
<svg width="300px" height="299px" viewBox="0 0 300 299" version="1.1" xmlns="http://www.w3.org/2000/svg" xmlns:xlink="http://www.w3.org/1999/xlink">
    <title>62013F52-84AB-497C-A224-8CCDEC16B79F</title>
    <defs>
        <linearGradient x1="0.0032045822%" y1="50.0112923%" x2="99.9961681%" y2="50.0112923%" id="linearGradient-1">
            <stop stop-color="#0F8ECE" offset="0%"></stop>
            <stop stop-color="#139EE9" offset="74%"></stop>
            <stop stop-color="#14A4F4" offset="100%"></stop>
        </linearGradient>
    </defs>
    <g id="Study-Rings/Graph-&amp;-Alerts-Jira" stroke="none" stroke-width="1" fill="none" fill-rule="evenodd">
        <g id="AFS-1517-02-B1" transform="translate(-490.000000, -110.000000)" fill-rule="nonzero">
            <g id="Compounds/MainColumn/BlankContent/Onboarding/Desktop" transform="translate(333.000000, 110.000000)">
                <g id="Elements/Graphics/OnboardingTour/Goal" transform="translate(157.000000, 0.000000)">
                    <g id="Completed-plan" transform="translate(52.000000, 50.827119)">
                        <path d="M5.31970678,115.076566 C4.51668232,114.668171 -13.918709,147.731182 22.9008168,173.545174 C22.9008168,173.545174 40.652783,180.777176 47.7604038,199.495298 C57.0720704,224.050072 115.163202,267.220868 171.255314,213.261627 C212.534189,173.545174 175.270437,128.62168 147.198752,122.853095 C119.127067,117.08451 94.4895931,116.046505 61.4289052,99.0300306 C24.9681776,80.3459411 5.31970678,115.076566 5.31970678,115.076566 Z" id="Path" fill="url(#linearGradient-1)"></path>
                        <path d="M146.48851,18.0742753 L163.662113,18.115126 C164.531785,18.1171947 165.236279,18.8216873 165.23835,19.6913591 L165.246244,23.0064329 C165.248322,23.8790404 164.542619,24.588113 163.670011,24.5901909 C163.667504,24.5901969 163.664997,24.5901969 163.66249,24.5901909 L146.488887,24.5493402 C145.619215,24.5472715 144.914721,23.842779 144.91265,22.9731071 L144.904756,19.6580333 C144.902678,18.7854259 145.608381,18.0763533 146.480989,18.0742754 C146.483496,18.0742694 146.486003,18.0742694 146.48851,18.0742753 Z" id="Rectangle" fill="#FBD700" transform="translate(155.075500, 21.332233) rotate(-38.520000) translate(-155.075500, -21.332233) "></path>
                        <path d="M99.3929316,6.87842645 L116.903365,6.87842645 C117.775975,6.87842645 118.483365,7.58581654 118.483365,8.45842645 L118.483365,12.2120067 C118.483365,13.0846166 117.775975,13.7920067 116.903365,13.7920067 L99.3929316,13.7920067 C98.5203217,13.7920067 97.8129316,13.0846166 97.8129316,12.2120067 L97.8129316,8.45842645 C97.8129316,7.58581654 98.5203217,6.87842645 99.3929316,6.87842645 Z" id="Rectangle" fill="#FBD700" transform="translate(108.148148, 10.335217) rotate(-90.000000) translate(-108.148148, -10.335217) "></path>
                        <path d="M49.080116,19.80173 L66.2263497,19.7621289 C67.0989572,19.7601136 67.8079792,20.465868 67.8099946,21.3384756 C67.8100002,21.3409064 67.8100002,21.3433372 67.8099946,21.3457681 L67.8023302,24.6695692 C67.8003246,25.5393303 67.0957446,26.2439129 66.2259836,26.2459217 L49.0797499,26.2855227 C48.2071424,26.2875381 47.4981204,25.5817836 47.496105,24.7091761 C47.4960994,24.7067452 47.4960994,24.7043144 47.496105,24.7018836 L47.5037694,21.3780824 C47.505775,20.5083214 48.210355,19.8037388 49.080116,19.80173 Z" id="Rectangle" fill="#FBD700" transform="translate(57.653050, 23.023826) rotate(-125.450000) translate(-57.653050, -23.023826) "></path>
                        <path d="M176.386951,50.2837006 L193.597186,50.2951743 C194.468971,50.2957555 195.175548,51.0023304 195.176132,51.8741156 L195.178345,55.1775442 C195.178929,56.0501539 194.472013,56.7580177 193.599404,56.7586022 C193.5987,56.7586026 193.597996,56.7586026 193.597292,56.7586022 L176.387057,56.7471285 C175.515272,56.7465473 174.808695,56.0399723 174.808111,55.1681871 L174.805898,51.8647585 C174.805314,50.9921488 175.51223,50.2842851 176.384839,50.2837006 C176.385543,50.2837001 176.386247,50.2837001 176.386951,50.2837006 Z" id="Rectangle" fill="#FBD700" transform="translate(184.992122, 53.521151) rotate(-7.940000) translate(-184.992122, -53.521151) "></path>
                        <path d="M116.8436,124.769873 C168.960559,110.846331 161.116293,72.7035535 159.943963,68.7901818 C159.581208,67.5257812 158.829031,66.400229 157.788945,65.5654291 C156.082925,64.203018 153.871508,63.5944323 151.685933,63.8858704 L118.757256,67.8496289 C118.412454,67.8496289 118.084891,67.967198 117.740088,68.051176 C118.771118,65.3143386 121.286847,63.3692138 124.256863,63.0124999 L156.04769,59.1327193 C158.74893,58.7644863 161.453968,59.7804999 163.20235,61.8200132 C163.914302,62.6953509 164.425719,63.7089894 164.702243,64.7928321 C165.857332,69.2940494 174.339484,112.794619 123.187974,127.608327 C120.042045,128.561888 116.617975,127.534469 114.567901,125.021807 C115.334719,125.039494 116.100408,124.954727 116.8436,124.769873 L116.8436,124.769873 Z" id="Path" fill="#F9A722"></path>
                        <path d="M129.973053,120.085374 C129.724179,120.204259 115.886779,125.757922 120.416287,134.300712 C123.402777,139.939293 129.574854,139.565652 133.390924,136.984133 C133.893573,136.650321 134.227519,136.107263 134.304195,135.49898 C134.380871,134.890697 134.192531,134.278654 133.789123,133.825169 L133.789123,133.825169 C132.878465,132.798728 131.353821,132.651495 130.271702,133.485495 C129.53346,134.139203 128.526153,134.374704 127.583861,134.113891 C125.061937,133.36661 121.527925,129.018788 128.861415,125.859824 C135.780115,122.88768 129.973053,120.085374 129.973053,120.085374 Z" id="Path" fill="#F9A722"></path>
                        <ellipse id="Oval" fill="#F9A722" transform="translate(132.260175, 134.008957) rotate(-7.140000) translate(-132.260175, -134.008957) " cx="132.260175" cy="134.008957" rx="3.57169106" ry="3.75892901"></ellipse>
                        <path d="M89.4864851,140.755807 L99.047149,139.552219 L102.284892,139.145372 L111.845556,137.941784 C140.154614,117.599453 127.593529,49.215317 127.593529,49.215317 L91.6393296,53.7245337 L88.4015871,54.1313803 L52.345679,58.6405971 C52.345679,58.6405971 57.0243018,127.990994 89.4864851,140.755807 Z" id="Path" fill="#FFC121"></path>
                        <path d="M68.2533121,56.1054614 L52.345679,58.1018513 C52.345679,58.1018513 57.066654,127.907246 89.8226942,140.755807 L99.4699039,139.544322 L102.736955,139.134806 L105.679012,138.742354 C72.9742871,125.910856 68.2533121,56.1054614 68.2533121,56.1054614 Z" id="Path" fill="#F9A722"></path>
                        <path d="M119.621784,156.704377 C113.613477,153.272564 110.386158,144.693032 110.386158,144.693032 L110.180159,144.693032 L103.605356,145.516667 L100.652702,145.877007 L94.5070631,146.580529 L93.803233,146.580529 C93.803233,146.580529 92.8075708,155.709151 87.8292598,160.548008 C87.3357132,160.872893 86.8807357,161.252834 86.4730992,161.680506 L86.4730992,161.680506 C84.5908657,163.578391 83.685726,166.235678 84.0182769,168.887313 L85.0654389,177.175141 L126.419753,172.027422 L125.372591,163.739594 C124.922699,160.504078 122.704092,157.789958 119.621784,156.704377 L119.621784,156.704377 Z" id="Path" fill="#FFC121"></path>
                        <path d="M98.5086528,160.546602 L98.5086528,160.546602 C98.9123703,160.135358 99.3568967,159.766915 99.8352533,159.447055 C104.705053,154.676711 105.679012,145.677338 105.679012,145.677338 L103.176943,145.981828 L100.288648,146.320151 L94.2769653,147.013711 L93.5884764,147.013711 C93.5884764,147.013711 92.6145166,156.013084 87.7447174,160.783427 C87.2619286,161.103713 86.8168681,161.478274 86.4181169,161.899891 L86.4181169,161.899891 C84.5769103,163.770904 83.6914998,166.390567 84.0168021,169.004659 L85.0411392,177.175141 L97.1316751,175.652691 L96.1073381,167.482208 C95.8396158,164.925119 96.7203585,162.38131 98.5086528,160.546602 L98.5086528,160.546602 Z" id="Path" fill="#F9A722"></path>
                        <path d="M46.7136168,48.8614706 L131.633482,48.9125052 C132.924727,48.9132812 133.971296,49.9598466 133.972075,51.2510918 L133.975032,56.1470019 C133.975812,57.4393479 132.928791,58.487634 131.636445,58.4884144 C131.635505,58.488415 131.634565,58.488415 131.633626,58.4884144 L46.7137605,58.4373798 C45.4225153,58.4366038 44.3759469,57.3900384 44.3751672,56.0987932 L44.3722109,51.2028831 C44.3714306,49.910537 45.4184515,48.8622509 46.7107976,48.8614706 C46.7117373,48.86147 46.712677,48.86147 46.7136168,48.8614706 Z" id="Rectangle" fill="#F48025" transform="translate(89.173621, 53.674942) rotate(-7.140000) translate(-89.173621, -53.674942) "></path>
                        <path d="M62.7398423,57.5279416 L62.7398423,57.5279416 C62.4046728,54.9021356 64.2850298,52.5040769 66.9424749,52.168236 L48.6851368,54.4312228 C47.4102812,54.5883602 46.2509776,55.2397725 45.4626704,56.2419257 C44.6743632,57.2440789 44.3217419,58.5147348 44.4825043,59.7739134 L44.4825043,59.7739134 C44.6373816,61.036396 45.2950162,62.1859088 46.3099597,62.9682156 C47.3249032,63.7505224 48.6135207,64.1011582 49.8908101,63.9425733 L68.1481481,61.6795865 C66.8735052,61.8383985 65.5872439,61.4900553 64.572783,60.7113121 C63.5583221,59.9325689 62.8989096,58.7873303 62.7398423,57.5279416 L62.7398423,57.5279416 Z" id="Path" fill="#E85C21"></path>
                        <path d="M87.9782825,139.298731 L114.058127,139.314405 C115.448699,139.31524 116.575772,140.442311 116.576612,141.832883 L116.579793,147.100168 C116.580633,148.491925 115.453072,149.620848 114.061315,149.621689 C114.060303,149.621689 114.059291,149.621689 114.058279,149.621689 L87.9784341,149.606016 C86.5878623,149.60518 85.4607887,148.478109 85.459949,147.087538 L85.4567685,141.820253 C85.4559281,140.428495 86.5834891,139.299572 87.9752464,139.298731 C87.9762585,139.298731 87.9772705,139.298731 87.9782825,139.298731 Z" id="Rectangle" fill="#F48025" transform="translate(101.018281, 144.460210) rotate(-7.140000) translate(-101.018281, -144.460210) "></path>
                        <path d="M87.9782825,139.298731 L114.058127,139.314405 C115.448699,139.31524 116.575772,140.442311 116.576612,141.832883 L116.579793,147.100168 C116.580633,148.491925 115.453072,149.620848 114.061315,149.621689 C114.060303,149.621689 114.059291,149.621689 114.058279,149.621689 L87.9784341,149.606016 C86.5878623,149.60518 85.4607887,148.478109 85.459949,147.087538 L85.4567685,141.820253 C85.4559281,140.428495 86.5834891,139.299572 87.9752464,139.298731 C87.9762585,139.298731 87.9772705,139.298731 87.9782825,139.298731 Z" id="Rectangle" fill="#F48025" transform="translate(101.018281, 144.460210) rotate(-7.140000) translate(-101.018281, -144.460210) "></path>
                        <path d="M99.6976523,149.57016 C98.3431254,149.746309 96.9722752,149.388124 95.8936302,148.576221 C94.8149853,147.764318 94.1191736,146.566913 93.9627973,145.253498 L93.9627973,145.253498 C93.6059093,142.68246 95.3722653,140.284541 98.0009496,139.7715 L90.4336557,140.690638 C89.0759197,140.841909 87.8381082,141.515007 86.9988075,142.558442 C86.1595068,143.601876 85.7892353,144.927977 85.9713277,146.238288 L85.9713277,146.238288 C86.1277041,147.551703 86.8235157,148.749108 87.9021607,149.561011 C88.9808057,150.372914 90.3516559,150.731099 91.7061827,150.55495 L112.168417,148.076562 L112.592593,148.076562 L99.6976523,149.57016 Z" id="Path" fill="#E85C21"></path>
                        <path d="M145.185185,186.107041 L144.292462,178.835999 C143.399953,171.639152 136.905927,166.535373 129.78571,167.434866 L78.5399643,173.959715 C75.1222209,174.388712 72.0132931,176.173199 69.897771,178.920232 C67.7822489,181.667264 66.8336115,185.151577 67.26075,188.60592 L68.1534732,195.876962 L145.185185,186.107041 Z" id="Path" fill="#F48025"></path>
                        <path d="M81.9220119,194.136784 L81.0121209,187.125875 C80.184953,180.714374 84.4488497,174.725997 90.9007472,173.237916 L78.5399643,174.743839 C75.1222209,175.157487 72.0132931,176.878132 69.897771,179.526885 C67.7822489,182.175638 66.8336115,185.535294 67.26075,188.866052 L68.1534732,195.876962 L145.185185,186.523505 L145.185185,186.523505 L81.9220119,194.136784 Z" id="Path" fill="#E85C21"></path>
                        <path d="M70.0389994,191.025853 L144.94196,191.070867 C149.500625,191.073607 153.198374,194.753905 153.201114,199.291042 L153.202141,200.991915 L61.807883,200.936989 L61.8068544,199.236117 C61.8041106,194.705613 65.4870152,191.032497 70.0389994,191.025853 Z" id="Path" fill="#FFC121" transform="translate(107.504498, 196.008884) rotate(-7.140000) translate(-107.504498, -196.008884) "></path>
                        <path d="M87.9012346,193.908349 L67.4118869,196.45432 C65.8577246,196.627834 64.4384917,197.413036 63.4718357,198.634185 C62.5051796,199.855334 62.0718181,201.410461 62.2687444,202.951505 L62.7347897,206.704331 L83.2241373,204.158361 L82.7580921,200.405534 C82.5611658,198.864491 82.9945273,197.309363 83.9611834,196.088214 C84.9278394,194.867065 86.3470723,194.081863 87.9012346,193.908349 Z" id="Path" fill="#F9A722"></path>
                        <path d="M124.186405,170.739525 L134.145554,170.74551 C135.254701,170.746177 136.153676,171.645149 136.154346,172.754296 L136.156889,176.966517 C136.15756,178.076609 135.258196,178.97706 134.148104,178.97773 C134.147296,178.977731 134.146489,178.977731 134.145682,178.97773 L124.186532,178.971745 C123.077386,178.971079 122.178411,178.072106 122.177741,176.962959 L122.175197,172.750738 C122.174527,171.640646 123.073891,170.740195 124.183983,170.739525 C124.184791,170.739524 124.185598,170.739524 124.186405,170.739525 Z" id="Rectangle" fill="#FFFFFF" transform="translate(129.166043, 174.858628) rotate(-7.140000) translate(-129.166043, -174.858628) "></path>
                        <path d="M134.602296,187.739446 L144.561445,187.745432 C145.670592,187.746098 146.569567,188.645071 146.570237,189.754217 L146.57278,193.966439 C146.573451,195.076531 145.674087,195.976982 144.563994,195.977652 C144.563187,195.977652 144.56238,195.977652 144.561573,195.977652 L134.602423,195.971667 C133.493277,195.971 132.594301,195.072027 132.593632,193.962881 L132.591088,189.75066 C132.590418,188.640567 133.489782,187.740117 134.599874,187.739446 C134.600681,187.739446 134.601489,187.739446 134.602296,187.739446 Z" id="Rectangle" fill="#FFFFFF" transform="translate(139.581934, 191.858549) rotate(-7.140000) translate(-139.581934, -191.858549) "></path>
                        <path d="M111.604938,58.0132675 L118.408663,57.0897677 C118.408663,57.0897677 127.15381,102.854312 115.137978,119.101067 C116.302526,112.670582 116.88778,106.152586 116.887007,99.6220627 C116.904497,89.1044265 111.604938,58.0132675 111.604938,58.0132675 Z" id="Path" fill="#FFFFFF"></path>
                        <path d="M157.812862,59.2961955 L160.747818,59.2898518 C161.521014,59.2881805 162.149169,59.9136256 162.15084,60.6868225 C162.150845,60.6888421 162.150845,60.6908617 162.15084,60.6928814 L162.14451,63.6148655 C162.14284,64.3856973 161.518371,65.0101633 160.74754,65.0118294 L157.812584,65.0181731 C157.039387,65.0198444 156.411232,64.3943993 156.409561,63.6212024 C156.409557,63.6191828 156.409557,63.6171632 156.409561,63.6151435 L156.415891,60.6931594 C156.417561,59.9223276 157.04203,59.2978616 157.812862,59.2961955 Z" id="Rectangle" fill="#FFFFFF" transform="translate(159.280201, 62.154012) rotate(31.190000) translate(-159.280201, -62.154012) "></path>
                        <path d="M81.7456271,129.537751 C28.1763312,128.521236 26.1422705,89.4023569 26.1935494,85.2685299 C26.2271628,83.95182 26.6621714,82.6760446 27.4413345,81.6090765 C28.7407407,79.8562025 30.7148541,78.7153286 32.8939846,78.4578805 L65.6098852,74.3918212 L66.635462,74.3918212 C65.0105177,71.934162 62.1290506,70.5913149 59.1829371,70.9187289 L27.595171,74.8661948 C24.9149994,75.1719849 22.5861712,76.832643 21.4417101,79.2541505 C20.9727634,80.2811778 20.7336847,81.3966529 20.7407407,82.5239398 C20.7407407,87.21685 23.5270497,131.791025 76.3955347,133.857939 C79.6233541,133.999595 82.6139342,132.182206 83.9506173,129.26668 C83.2306524,129.451752 82.4893931,129.542879 81.7456271,129.537751 Z" id="Path" fill="#F9A722"></path>
                        <path d="M66.8421085,127.959824 C67.1292386,127.959824 82.0431151,130.006544 79.7629641,139.866395 C78.1921934,146.380304 72.0104507,147.643931 67.6021588,146.024353 C67.0290465,145.808377 66.5722751,145.342275 66.3490164,144.745614 C66.1257578,144.148952 66.1577361,143.479789 66.4367483,142.909779 L66.4367483,142.909779 C67.0974841,141.649045 68.547511,141.106626 69.8147497,141.646152 C70.6861533,142.13342 71.7301974,142.13342 72.601601,141.646152 C74.898642,140.222347 77.330803,134.847482 69.3249395,133.601652 C61.7919963,132.338025 66.8421085,127.959824 66.8421085,127.959824 Z" id="Path" fill="#F9A722"></path>
                        <ellipse id="Oval" fill="#F9A722" transform="translate(68.846348, 141.928471) rotate(-7.140000) translate(-68.846348, -141.928471) " cx="68.8463479" cy="141.928471" rx="3.57169106" ry="3.75892901"></ellipse>
                        <ellipse id="Oval" fill="#FFFFFF" cx="113.580247" cy="50.1996234" rx="3.95061728" ry="3.93722536"></ellipse>
                        <path d="M0.0635420576,100.281274 L3.20927373,97.7377853 C3.3565322,97.6340199 3.41134892,97.4393499 3.34034588,97.2723103 L1.94770426,93.398893 C1.87811491,93.2344284 1.92498272,93.0430676 2.06235197,92.9307874 C2.19972122,92.8185073 2.39397285,92.8127867 2.53752894,92.9167938 L5.94540492,95.1610485 C6.09272387,95.266628 6.28960655,95.266628 6.4369255,95.1610485 L9.59904119,92.6009358 C9.73519927,92.5033545 9.9160582,92.4992324 10.0563974,92.5905116 C10.1967366,92.6817909 10.2685574,92.8502608 10.2380179,93.0165385 L9.22220875,96.9564522 C9.1700769,97.1312837 9.23655818,97.320159 9.38604894,97.4219272 L12.6628528,99.6329337 C12.804678,99.727904 12.8703338,99.904568 12.8256231,100.07091 C12.7809124,100.237251 12.6359518,100.355633 12.4662445,100.364394 L8.48492789,100.597132 C8.30018916,100.604678 8.14133943,100.732277 8.09171143,100.91299 L6.96121411,105.035769 C6.91153773,105.20487 6.75828674,105.320778 6.58438167,105.320778 C6.41047659,105.320778 6.25722561,105.20487 6.20754923,105.035769 L4.56914732,101.045983 C4.50678192,100.881803 4.34927969,100.775263 4.17593086,100.779997 L0.276534306,100.879742 C0.15891163,100.842656 0.0652110273,100.751791 0.0233768289,100.634245 C-0.0184573694,100.516699 -0.00359110441,100.386054 0.0635420576,100.281274 Z" id="Path" fill="#F182B1"></path>
                        <path d="M31.7936819,47.9475809 L34.8780041,47.7862308 C35.0154828,47.7785858 35.1343501,47.686124 35.177624,47.5531696 L36.0059848,44.4875175 C36.0564158,44.3698568 36.1706052,44.2937853 36.2967923,44.2937853 C36.4229794,44.2937853 36.5371688,44.3698568 36.5875998,44.4875175 L37.7155805,47.4456028 C37.7624437,47.5811648 37.8917822,47.6688733 38.0328251,47.6607363 L41.1347719,47.4993862 C41.2742423,47.4768239 41.4102662,47.5563899 41.461247,47.6903549 C41.5122277,47.82432 41.4643225,47.9763088 41.3462683,48.0551477 L38.9493094,50.0809879 C38.8410069,50.1726547 38.8051145,50.3259951 38.8611859,50.4574715 L39.9362925,53.3259178 C39.9744501,53.4520006 39.9333186,53.5890125 39.8324262,53.6719039 C39.7315338,53.7547953 39.5911995,53.7668724 39.4780503,53.7024014 L36.8872197,52.0171892 C36.7766296,51.9363992 36.6276911,51.9363992 36.517101,52.0171892 L33.9967692,54.078885 C33.8913175,54.1536507 33.7519353,54.1563012 33.6438101,54.0855969 C33.535685,54.0148925 33.4801892,53.8848088 33.5032776,53.7561848 L34.2611397,50.5471104 C34.2954355,50.4131961 34.2466753,50.2714855 34.1377668,50.1885546 L31.6526843,48.3957757 C31.6041879,48.3192042 31.5919027,48.2245822 31.6191942,48.1378296 C31.6464857,48.051077 31.7104928,47.9812883 31.7936819,47.9475809 Z" id="Path" fill="#F182B1"></path>
                        <path d="M41.6974244,84.5227199 L44.1812455,85.5822168 C44.2833375,85.6400193 44.4128011,85.6400193 44.5148931,85.5822168 L46.368491,83.7491189 C46.4500648,83.6672706 46.5808053,83.6430256 46.6912355,83.6892679 C46.8016657,83.7355102 46.8661523,83.841506 46.8504264,83.9509279 L46.5167788,86.4567223 C46.5096434,86.5682881 46.5748099,86.6733986 46.6836026,86.7258008 L49.2044957,87.7852978 C49.3118677,87.8227697 49.382716,87.9163662 49.382716,88.0207416 C49.382716,88.1251169 49.3118677,88.2187134 49.2044957,88.2561853 L46.4611709,88.7943425 C46.3352688,88.8087849 46.2361214,88.8987398 46.2202032,89.0129689 L45.8124116,91.3674065 C45.7814625,91.4696355 45.6790248,91.5404896 45.5621759,91.5404896 C45.445327,91.5404896 45.3428893,91.4696355 45.3119402,91.3674065 L43.9588138,89.2988649 C43.88824,89.2070335 43.7650839,89.1610239 43.6437022,89.181143 L40.8076975,89.6856653 C40.69191,89.6993152 40.5790581,89.645876 40.5251902,89.5518884 C40.4713223,89.4579008 40.4879159,89.3433907 40.5667298,89.26523 L42.4203276,87.2975928 C42.4944715,87.2079 42.4944715,87.0845723 42.4203276,86.9948794 L41.178417,84.8590681 C41.0760457,84.7290361 41.1092411,84.5483303 41.252561,84.4554503 C41.3958809,84.3625703 41.595053,84.3926879 41.6974244,84.5227199 L41.6974244,84.5227199 Z" id="Path" fill="#F79C50"></path>
                        <path d="M117.804947,26.6812244 L120.580748,27.9791774 C120.691569,28.05906 120.840033,28.05906 120.950855,27.9791774 L123.070557,25.6906814 C123.161029,25.5913557 123.304829,25.5637456 123.424783,25.6226688 C123.544737,25.681592 123.612649,25.8131977 123.592071,25.9468563 L123.238788,29.0551122 C123.224134,29.1970316 123.29793,29.3332426 123.423841,29.3966787 L126.216465,30.7117101 C126.338182,30.754711 126.419753,30.8712089 126.419753,31.0020416 C126.419753,31.1328744 126.338182,31.2493723 126.216465,31.2923732 L123.154672,31.9584281 C123.028616,31.992225 122.935414,32.1003582 122.91915,32.2316813 L122.397636,35.1862322 C122.373836,35.3105912 122.277326,35.4073937 122.154548,35.4300557 C122.031771,35.4527176 121.907872,35.3965976 121.842476,35.2887022 L120.395694,32.6586395 C120.328292,32.537437 120.195188,32.4698751 120.059234,32.4878563 L116.913326,33.1197544 C116.782943,33.1499241 116.648504,33.0896997 116.582575,32.9715887 C116.516646,32.8534778 116.534839,32.7054491 116.627334,32.6074046 L118.76386,30.1481252 C118.830658,30.0381931 118.830658,29.8994125 118.76386,29.7894803 L117.350725,27.0911043 C117.239232,26.963771 117.25053,26.7687922 117.37596,26.655607 C117.501389,26.5424217 117.693454,26.5538911 117.804947,26.6812244 Z" id="Path" fill="#F79C50"></path>
                        <path d="M177.989098,83.2990255 L180.22953,82.076051 C180.330906,82.0150935 180.38488,81.8898776 180.363287,81.765744 L179.995455,79.0459947 C179.992082,78.9320265 180.049774,78.8263375 180.143194,78.7753427 C180.236614,78.724348 180.348675,78.7373744 180.430165,78.8087012 L182.185728,80.7618097 C182.274899,80.8348231 182.39751,80.8348231 182.486681,80.7618097 L184.727113,79.5205819 C184.823019,79.4705762 184.937382,79.4919977 185.012535,79.5740447 C185.087688,79.6560916 185.107309,79.7809453 185.061505,79.8856489 L183.94129,82.386358 C183.874411,82.4837092 183.874411,82.6175671 183.94129,82.7149183 L185.613253,84.5402534 C185.684344,84.6250877 185.699312,84.7493752 185.650723,84.8513878 C185.602133,84.9534004 185.50034,85.0114025 185.395898,84.9965871 L183.055149,84.7592936 C182.946239,84.7382442 182.837556,84.7975703 182.787635,84.9053204 L181.583821,87.4607895 C181.532119,87.5640337 181.425778,87.61967 181.319677,87.5989855 C181.213576,87.5783009 181.131445,87.4859214 181.115671,87.3695227 L180.647521,84.5402534 C180.628539,84.4289853 180.548804,84.3419361 180.446885,84.3212131 L178.055977,83.8283727 C177.922084,83.8485348 177.798571,83.746381 177.780103,83.6002058 C177.761635,83.4540306 177.855205,83.3191876 177.989098,83.2990255 Z" id="Path" fill="#F79C50"></path>
                        <path d="M141.399353,148.870192 L144.739932,147.241666 C144.888001,147.159275 144.972929,147.000035 144.95707,146.834534 L144.405874,143.154064 C144.372788,142.995331 144.45305,142.834698 144.601642,142.762259 C144.750234,142.689821 144.930193,142.723597 145.040584,142.844643 L147.779859,145.385145 C147.91437,145.480225 148.096326,145.480225 148.230837,145.385145 L151.571416,143.756618 C151.715218,143.676871 151.895947,143.700648 152.012927,143.814704 C152.129908,143.92876 152.154295,144.10497 152.072503,144.245176 L150.402213,147.632512 C150.314058,147.766478 150.314058,147.938248 150.402213,148.072214 L152.991162,150.645286 C153.095975,150.761891 153.116269,150.929406 153.042204,151.066611 C152.968139,151.203816 152.815027,151.282347 152.657104,151.264127 L148.949061,150.710428 C148.782291,150.687711 148.619785,150.773534 148.548192,150.922136 L146.710873,154.358327 C146.628891,154.487761 146.47476,154.555994 146.320855,154.530984 C146.166951,154.505975 146.043848,154.392692 146.009352,154.244331 L145.30783,150.417293 C145.272717,150.26278 145.14895,150.142108 144.990475,150.107873 L141.38265,149.456462 C141.286589,149.386761 141.231385,149.275798 141.23471,149.159094 C141.238035,149.042391 141.299472,148.934586 141.399353,148.870192 L141.399353,148.870192 Z" id="Path" fill="#FFFFFF"></path>
                        <path d="M137.673042,210.330748 L141.024243,210.996081 C141.175321,211.029771 141.33064,210.960048 141.404277,210.825483 L143.1317,207.857074 C143.205572,207.732841 143.350497,207.667821 143.493835,207.694603 C143.637174,207.721384 143.748032,207.834195 143.770846,207.976493 L144.185428,211.388457 C144.205311,211.54298 144.324016,211.667107 144.47909,211.695534 L147.933936,212.377927 C148.063534,212.430502 148.148148,212.555168 148.148148,212.693534 C148.148148,212.8319 148.063534,212.956566 147.933936,213.009141 L144.772752,214.510405 C144.632493,214.571371 144.55362,214.720077 144.582735,214.868661 L144.945494,218.144147 C144.958534,218.286905 144.879837,218.42249 144.748513,218.483523 C144.617189,218.544555 144.461241,218.51802 144.35817,218.417104 L142.043423,215.97755 C141.94114,215.859 141.770551,215.823902 141.628842,215.892251 L138.346737,217.359395 C138.214974,217.429581 138.051817,217.402816 137.950105,217.29433 C137.848393,217.185844 137.833904,217.023133 137.914882,216.89878 L139.590482,213.742713 C139.674249,213.625002 139.674249,213.468048 139.590482,213.350337 L137.396655,210.893722 C137.284908,210.797634 137.252207,210.63952 137.316849,210.50785 C137.381491,210.376181 137.527444,210.303612 137.673042,210.330748 Z" id="Path" fill="#FFFFFF"></path>
                        <path d="M23.155085,119.783808 L26.4958171,120.46972 C26.6445104,120.48855 26.7911397,120.422181 26.874663,120.298242 L28.5966899,117.314529 C28.6618628,117.182537 28.8077626,117.110395 28.9527527,117.138469 C29.0977427,117.166543 29.2058644,117.28787 29.2166195,117.434563 L29.6471263,120.864118 C29.6594944,121.016708 29.7719225,121.142657 29.9226506,121.172778 L33.3667043,121.841542 C33.4958966,121.894387 33.5802469,122.019696 33.5802469,122.158776 C33.5802469,122.297855 33.4958966,122.423164 33.3667043,122.476009 L30.2153951,123.916423 C30.0770431,123.980941 29.9943321,124.125076 30.0087519,124.276526 L30.3875978,127.586047 C30.4005969,127.72954 30.3221458,127.865825 30.191232,127.927172 C30.0603183,127.988519 29.9048576,127.961847 29.8021087,127.860411 L27.4773724,125.391131 C27.3531809,125.30502 27.1882775,125.30502 27.064086,125.391131 L23.8094552,126.86584 C23.6781032,126.936387 23.5154565,126.909484 23.414062,126.800439 C23.3126675,126.691394 23.2982235,126.527844 23.3789485,126.40285 L25.1009754,123.230512 C25.1796999,123.110732 25.1796999,122.955893 25.1009754,122.836113 L22.8106797,120.349685 C22.7037763,120.237547 22.6854469,120.068042 22.7659255,119.935811 C22.8464041,119.803581 23.0057869,119.741327 23.155085,119.783808 L23.155085,119.783808 Z" id="Path" fill="#FFFFFF"></path>
                        <path d="M166.180556,186.765108 L168.332176,187.200199 C168.431945,187.213026 168.529621,187.164832 168.579084,187.078374 L169.67253,185.198779 C169.699267,185.110264 169.781748,185.049592 169.875347,185.049592 C169.968945,185.049592 170.051427,185.110264 170.078163,185.198779 L170.342707,187.374236 C170.362188,187.470893 170.438756,187.546451 170.536705,187.565676 L172.688325,188.000767 C172.778024,188.027151 172.839506,188.108546 172.839506,188.200909 C172.839506,188.293273 172.778024,188.374668 172.688325,188.401052 L170.677795,189.358253 C170.589574,189.399511 170.534273,189.488191 170.536705,189.5845 L170.783612,191.690342 C170.8024,191.784039 170.754379,191.878373 170.666992,191.919437 C170.579604,191.960502 170.475122,191.93783 170.413252,191.864379 L168.914172,190.29805 C168.83343,190.2475 168.73037,190.2475 168.649629,190.29805 L166.568553,191.237847 C166.483581,191.285967 166.376249,191.270245 166.309104,191.199845 C166.241959,191.129444 166.232556,191.022769 166.286374,190.941985 L167.362184,188.923161 C167.421317,188.852426 167.421317,188.750245 167.362184,188.67951 L165.968922,187.095777 C165.915619,187.026406 165.911517,186.931682 165.958626,186.858075 C166.005736,186.784469 166.094174,186.747421 166.180556,186.765108 L166.180556,186.765108 Z" id="Path" fill="#FFFFFF"></path>
                        <ellipse id="Oval" fill="#FFFFFF" cx="90.8641975" cy="217.531701" rx="1.97530864" ry="1.96861268"></ellipse>
                        <ellipse id="Oval" fill="#FFFFFF" cx="65.6790123" cy="169.792844" rx="2.4691358" ry="2.46076585"></ellipse>
                        <ellipse id="Oval" fill="#FFFFFF" cx="55.8024691" cy="133.373509" rx="1.48148148" ry="1.47645951"></ellipse>
                        <ellipse id="Oval" fill="#FFFFFF" cx="7.40740741" cy="132.389203" rx="1.48148148" ry="1.47645951"></ellipse>
                        <ellipse id="Oval" fill="#FFFFFF" cx="20.7407407" cy="106.305085" rx="1" ry="1"></ellipse>
                        <ellipse id="Oval" fill="#FFFFFF" cx="128.888889" cy="154.043942" rx="1.48148148" ry="1.47645951"></ellipse>
                        <path d="M13.1254382,158.379306 C13.1254382,158.379306 8.71245694,140.702805 34.5599185,137.303478 C34.5599185,137.303478 51.2576853,134.702993 79.2179256,147.722416 C107.178166,160.741838 131.509197,171.109786 156.163961,163.019388 C156.163961,163.019388 180.955034,153.858201 169.028057,130.912743 C169.028057,130.912743 183.783431,141.552637 172.60615,161.914606 C161.42887,182.276576 130.009806,177.976427 97.7388159,166.843631 C97.7388159,166.843631 67.4613346,153.110349 61.957887,151.699628 C56.4544393,150.288908 31.2885193,140.549836 18.7651941,154.589056 C17.1569061,156.695169 16.7153326,159.465772 17.589535,161.965596 C15.9259773,161.005553 14.4203427,159.795982 13.1254382,158.379306 L13.1254382,158.379306 Z" id="Path" fill="#EF493C"></path>
                        <path d="M29.3160886,148.630257 C30.7082696,148.152749 32.1343804,147.797958 33.5802469,147.569411 L32.9688419,137.802888 C31.5102032,138.060325 30.0657589,138.403227 28.6419753,138.830056 L29.3160886,148.630257 Z" id="Path" fill="#F8EEED"></path>
                        <path d="M27.0350522,138.787194 C25.5561396,139.232794 24.1120568,139.801858 22.7160494,140.489165 L23.3511969,150.59887 C24.7139807,149.774265 26.1569685,149.112218 27.654321,148.624584 L27.0350522,138.787194 Z" id="Path" fill="#F59C97"></path>
                        <path d="M34.4212626,137.934128 L32.5925926,138.19661 L33.1963987,147.645951 C34.3005014,147.51471 35.4218556,147.41628 36.5432099,147.383469 L35.9221521,137.802888 C35.4198542,137.822621 34.9189218,137.866424 34.4212626,137.934128 Z" id="Path" fill="#F59C97"></path>
                        <path d="M161.717525,173.237916 C163.200592,172.497167 164.610584,171.595707 165.925926,170.547329 L165.180526,158.473321 C163.87472,159.678 162.471435,160.752966 160.987654,161.685209 L161.717525,173.237916 Z" id="Path" fill="#F8EEED"></path>
                        <path d="M159.276951,161.42624 C158.137317,162.144577 156.9436,162.762942 155.707857,163.275089 L155.061728,163.485923 L155.754009,174.222222 C157.209304,173.80586 158.629468,173.263415 160,172.600425 L159.276951,161.42624 Z" id="Path" fill="#F59C97"></path>
                        <path d="M168.85429,152.585343 C167.744374,154.399986 166.427569,156.039558 164.938272,157.461232 L165.693167,170.284997 C167.255086,168.978566 168.661266,167.447673 169.876543,165.730596 L169.090194,152.567483 L168.85429,152.585343 Z" id="Path" fill="#F59C97"></path>
                        <path d="M159.057158,110.24231 C159.057158,110.24231 159.224511,123.361635 169.198766,130.317288 C169.198766,130.317288 178.704431,137.014687 170.470651,150.59887 C170.080789,144.288711 166.809453,138.541207 161.651133,135.103604 C160.37585,134.158198 159.487231,132.759299 159.15757,131.178136 C158.90654,128.83663 159.057158,110.24231 159.057158,110.24231 Z" id="Path" fill="#A91F24"></path>
                        <path d="M159.043123,113.857389 C159.043123,113.857389 157.334902,97.0406232 179.370958,97.0406232 C179.370958,97.0406232 189.278643,97.2256076 192.592593,93.5091023 L192.045962,102.960125 C190.445608,105.521231 187.448915,106.897074 184.427294,106.458012 C179.821114,105.638097 175.072033,106.158222 170.761522,107.954704 C166.534791,109.834941 163.396232,113.49325 162.220415,117.91023 C161.572706,120.255825 161.710486,122.744505 162.613306,125.006905 C162.613306,125.006905 158.923548,116.81714 159.043123,113.857389 Z" id="Path" fill="#EF493C"></path>
                        <path d="M183.703704,96.8256151 L184.42144,106.262525 L184.660686,106.262525 C185.327853,106.319271 185.999499,106.319271 186.666667,106.262525 L185.930527,96.4620213 C185.15758,96.6603452 184.42144,96.7595071 183.703704,96.8256151 Z" id="Path" fill="#F8EEED"></path>
                        <path d="M185.679012,95.8819837 L186.243386,106.305085 C186.726124,106.239354 187.200219,106.097608 187.654321,105.883239 L187.089947,95.477715 C186.666667,95.6359071 186.15873,95.7765223 185.679012,95.8819837 Z" id="Path" fill="#F59C97"></path>
                        <path d="M183.190123,96.4620213 C182.663374,96.5482128 182.162963,96.5999277 181.728395,96.6344042 L182.215638,106.080987 C182.781893,106.080987 183.282305,106.218893 183.703704,106.305085 L183.190123,96.4620213 Z" id="Path" fill="#F59C97"></path>
                        <path d="M10.8641975,196.156728 C12.3958771,199.889454 13.5919573,203.748343 14.4385655,207.688638 C14.4385655,207.688638 16.6276522,202.041046 25.5379189,200.468513 C34.4481856,198.895979 44.6411202,195.395825 46.4197531,189.47769 L45.3765165,175.206529 C45.3765165,175.206529 45.2225963,185.825354 30.1042168,188.310971 C30.1726257,188.310971 15.8922559,188.378607 10.8641975,196.156728 Z" id="Path" fill="#EF4A3E"></path>
                        <path d="M40.2023882,195.876962 C40.9868174,195.445496 41.7439765,194.961084 42.4691358,194.42675 L41.7405384,183.080979 C41.0572835,183.788873 40.3087985,184.423275 39.5061728,184.974785 L40.2023882,195.876962 Z" id="Path" fill="#F8EEED"></path>
                        <path d="M43.5653236,181.112367 C42.9892287,182.101706 42.2886177,183.009276 41.4814815,183.81177 L42.2140822,194.892655 C43.0213219,194.31083 43.7686248,193.646443 44.4444444,192.90976 L43.6630037,181.112367 L43.5653236,181.112367 Z" id="Path" fill="#F59C97"></path>
                        <path d="M39.7937865,185.049592 C39.0699131,185.533188 38.3137266,185.963671 37.5308642,186.337834 L38.2146249,196.861268 C39.0123457,196.509929 39.8426265,196.14186 40.4938272,195.74033 L39.7937865,185.049592 Z" id="Path" fill="#F59C97"></path>
                        <path d="M45.42831,175.935792 C45.42831,175.935792 44.6202947,169.838672 34.3739732,167.618432 C34.3739732,167.618432 23.2680609,164.527175 19.6577799,162.272777 C16.0474988,160.01838 13.1936576,157.285777 12.8842049,154.536095 C12.8842049,154.536095 11.7667369,169.531254 20.7064806,173.818025 C29.6462242,178.104796 37.3309653,172.827456 41.439809,184.065286 C44.0278957,182.166757 45.5174866,179.130624 45.42831,175.935792 L45.42831,175.935792 Z" id="Path" fill="#A62023"></path>
                    </g>
                </g>
            </g>
        </g>
    </g>
</svg>