<?xml version="1.0" encoding="UTF-8"?>
<svg width="40px" height="40px" viewBox="0 0 40 40" version="1.1" xmlns="http://www.w3.org/2000/svg" xmlns:xlink="http://www.w3.org/1999/xlink">
    <title>487B6993-ADA9-413A-93D4-1C7F691370FE</title>
    <g id="A:-Landing-Pages" stroke="none" stroke-width="1" fill="none" fill-rule="evenodd">
        <g id="G-02-MyAssignments" transform="translate(-470.000000, -130.000000)">
            <g id="Main-Column/BlankContent" transform="translate(18.000000, 110.000000)">
                <g id="Search" transform="translate(452.000000, 20.000000)">
                    <g transform="translate(4.000000, 4.000000)">
                        <circle id="Oval" fill="#F0F7FC" cx="16" cy="16" r="16"></circle>
                        <path d="M24.9016374,25.0964621 L19.6572528,19.6424292 C20.994908,18.3008917 21.8236189,16.4514688 21.8236189,14.4118094 C21.8236189,10.3247259 18.4988929,7 14.4118094,7 C10.3247259,7 7,10.3247259 7,14.4118094 C7,18.4988929 10.3247259,21.8236189 14.4118094,21.8236189 C16.2058202,21.8236189 17.8523008,21.1823209 19.1356026,20.1181968 L24.3926932,25.5856415 C24.4618701,25.6579949 24.5543412,25.6939951 24.6471653,25.6939951 C24.7354011,25.6939951 24.823284,25.6611714 24.891755,25.595524 C25.0322264,25.4603467 25.0364618,25.2369336 24.9016374,25.0964621 Z M14.4118094,21.1177322 C10.7140224,21.1177322 7.70588661,18.1095964 7.70588661,14.4118094 C7.70588661,10.7140224 10.7140224,7.70588661 14.4118094,7.70588661 C18.1095964,7.70588661 21.1177322,10.7140224 21.1177322,14.4118094 C21.1177322,18.1095964 18.1092435,21.1177322 14.4118094,21.1177322 Z" id="Shape" fill="#0073C1"></path>
                    </g>
                </g>
            </g>
        </g>
    </g>
</svg>