<?xml version="1.0" encoding="UTF-8"?>
<svg xmlns="http://www.w3.org/2000/svg">
 
  <symbol id="high-confidence" viewBox="0 0 24 24" version="1.1">
      <g stroke="none" stroke-width="1" fill="none" fill-rule="evenodd">
          <g transform="translate(-208.000000, -1613.000000)" stroke="86BB27">
              <g transform="translate(40.000000, 1541.000000)">
                  <g transform="translate(168.000000, 72.000000)">
                      <rect id="Oval-3" stroke-opacity="0.8" fill-opacity="0.4" fill="#86BB27" x="0.5" y="0.5" width="23" height="23" rx="11.5"></rect>
                      <rect id="Oval-2" stroke-opacity="0.4" x="4.5" y="4.5" width="15" height="15" rx="7.5"></rect>
                      <rect id="Oval-1" stroke-opacity="0.4" x="8.5" y="8.5" width="7" height="7" rx="3.5"></rect>
                  </g>
              </g>
          </g>
      </g>
      
  <symbol id="medium-confidence" viewBox="0 0 24 24" version="1.1">
  <g stroke="none" stroke-width="1" fill="none" fill-rule="evenodd">
        <g transform="translate(-208.000000, -1693.000000)">
            <g transform="translate(40.000000, 1541.000000)">
                <g transform="translate(168.000000, 152.000000)">
                    <rect id="Oval-3" stroke="#EEEEEE" x="0.5" y="0.5" width="23" height="23" rx="11.5"></rect>
                    <rect id="Oval-2" stroke-opacity="0.8" stroke="#86BB27" fill-opacity="0.4" fill="#86BB27" x="4.5" y="4.5" width="15" height="15" rx="7.5"></rect>
                    <rect id="Oval-1" stroke-opacity="0.4" stroke="#86BB27" x="8.5" y="8.5" width="7" height="7" rx="3.5"></rect>
                </g>
            </g>
        </g>
    </g>
  </symbol>
  <symbol id="low-confidence" viewBox="0 0 24 24" version="1.1">

  <g stroke="none" stroke-width="1" fill="none" fill-rule="evenodd">
        <g transform="translate(-208.000000, -1773.000000)">
            <g transform="translate(40.000000, 1541.000000)">
                <g transform="translate(168.000000, 232.000000)">
                    <rect id="Oval-3" stroke="#F1F4EC" fill-opacity="0" fill="#69A203" x="0.5" y="0.5" width="23" height="23" rx="11.5"></rect>
                    <rect id="Oval-2" stroke="#EEEEEE" fill-opacity="0" fill="#69A203" x="4.5" y="4.5" width="15" height="15" rx="7.5"></rect>
                    <rect id="Oval-1" stroke-opacity="0.8" stroke="#86BB27" fill-opacity="0.4" fill="#86BB27" x="8.5" y="8.5" width="7" height="7" rx="3.5"></rect>
                </g>
            </g>
        </g>
    </g>
</symbol>

  <symbol id="not-studied" viewBox="0 0 24 24" version="1.1">

    <g istroke="none" stroke-width="1" fill="none" fill-rule="evenodd">
        <g transform="translate(-368.000000, -1853.000000)" stroke="#EEEEEE">
            <g transform="translate(40.000000, 1541.000000)">
                <g transform="translate(328.000000, 312.000000)">
                    <rect id="Oval-3" fill-opacity="0" fill="#69A203" x="0.5" y="0.5" width="23" height="23" rx="11.5"></rect>
                    <rect id="Oval-2" fill-opacity="0" fill="#69A203" x="4.5" y="4.5" width="15" height="15" rx="7.5"></rect>
                    <rect id="Oval-1" x="8.5" y="8.5" width="7" height="7" rx="3.5"></rect>
                </g>
            </g>
        </g>
    </g>
</symbol>

  <symbol id="icon-excluded" viewBox="0 0 24 24" version="1.1">
    <circle id="path-1" cx="10" cy="10" r="10"></circle>
    <g id="Syllabus-D" stroke="none" stroke-width="1" fill="none" fill-rule="evenodd">
        <g id="Syllabus-D-001" transform="translate(-261.000000, -982.000000)">
            <g id="D2/Compounds/Cards/01-Books/EVS-D" transform="translate(18.000000, 905.000000)">
                <g id="Group" transform="translate(120.000000, 26.000000)">
                    <g id="ChapterGraph" transform="translate(0.000000, 26.000000)">
                        <g id="6" transform="translate(123.000000, 25.000000)">
                            <g id="Status/NotStudied" transform="translate(2.000000, 2.000000)">
                                <use id="BlackBorder" stroke-opacity="0.8" stroke="#989898" mask="url(#mask-2)" stroke-width="1.2" stroke-linejoin="bevel" stroke-dasharray="2,2" xlink:href="#path-1"></use>
                                <g id="Group" transform="translate(6.000000, 5.000000)" fill="#989898" fill-opacity="0.8">
                                    <path d="M4.37692308,-0.0461538462 C4.5808436,-0.0461538462 4.74615385,0.1191564 4.74615385,0.323076923 L4.74615385,9.43076923 C4.74615385,9.63468975 4.5808436,9.8 4.37692308,9.8 C4.17300255,9.8 4.00769231,9.63468975 4.00769231,9.43076923 L4.00769231,0.323076923 C4.00769231,0.1191564 4.17300255,-0.0461538462 4.37692308,-0.0461538462 Z" id="Rectangle" transform="translate(4.376923, 4.876923) rotate(45.000000) translate(-4.376923, -4.876923) "></path>
                                    <path d="M4.43846154,-0.230769231 C4.64238206,-0.230769231 4.80769231,-0.0654589846 4.80769231,0.138461538 L4.80769231,9.24615385 C4.80769231,9.45007437 4.64238206,9.61538462 4.43846154,9.61538462 C4.23454102,9.61538462 4.06923077,9.45007437 4.06923077,9.24615385 L4.06923077,0.138461538 C4.06923077,-0.0654589846 4.23454102,-0.230769231 4.43846154,-0.230769231 Z" id="Rectangle" transform="translate(4.438462, 4.692308) scale(-1, 1) rotate(45.000000) translate(-4.438462, -4.692308) "></path>
                                </g>
                            </g>
                        </g>
                    </g>
                </g>
            </g>
        </g>
    </g>
</symbol>


  </svg>