<?xml version="1.0" encoding="UTF-8"?>
<svg width="64px" height="64px" viewBox="0 0 64 64" version="1.1" xmlns="http://www.w3.org/2000/svg" xmlns:xlink="http://www.w3.org/1999/xlink">
    <title>F98C982E-26DC-47BC-B644-C0507E269C47</title>
    <g id="Page-1" stroke="none" stroke-width="1" fill="none" fill-rule="evenodd">
        <g id="B-01-ST-Menu" transform="translate(-201.000000, -283.000000)" fill-rule="nonzero">
            <g id="Assignments" transform="translate(186.000000, 268.000000)">
                <g id="Elements/Graphics/Style2/Books" transform="translate(15.000000, 15.000000)">
                    <g id="003-writer" transform="translate(4.000000, 4.000000)">
                        <path d="M52.2215528,22.0750008 C51.5550474,21.6110105 50.7753216,21.3657706 49.9665429,21.3657706 C49.4777723,21.3657706 48.9988283,21.4554925 48.5425284,21.6328 C47.8200538,21.9122197 47.1911461,22.395436 46.7715894,22.9935819 C45.8380546,24.3210385 45.8619805,26.2329691 46.8288406,27.5390633 C47.5436249,28.5059234 48.7621335,29.1057783 50.0088403,29.1057783 C50.4057528,29.1057783 50.7932659,29.0459637 51.1594167,28.9271889 C52.7013513,28.4277372 53.8378285,26.8892206 53.8617543,25.2686725 C53.8809804,23.9775319 53.2828345,22.8132837 52.2215528,22.0750008 Z" id="Path" fill="#5B5D6D"></path>
                        <path d="M49.8618673,10.8789917 C49.8810935,9.58913287 49.2833749,8.42531189 48.2216659,7.68574722 C47.5551605,7.22218419 46.7750074,6.97737166 45.9658014,6.97737166 C45.4757491,6.97737166 44.9968052,7.06666626 44.5426416,7.24311927 C43.8193122,7.52382056 43.1904046,8.007037 42.7717026,8.60390111 C41.8377405,9.93221228 41.8616663,11.8445701 42.8289536,13.1506643 C43.5441652,14.1166699 44.7626737,14.7165247 46.0085262,14.7165247 C46.405866,14.7165247 46.7933791,14.6562829 47.1595298,14.5375082 C48.7014643,14.0397654 49.8379415,12.5008216 49.8618673,10.8789917 Z" id="Path" fill="#5B5D6D"></path>
                        <path d="M6.16004796,4.40491718 L6.16731124,3.9695524 L5.74690014,4.08234562 C4.88898806,4.31220448 4.05030207,4.54590865 3.27271243,4.76423192 L3.15180149,4.79841168 C2.36652146,5.01758939 1.55475205,5.24488483 0.719056818,5.46790784 L0.44989112,5.54011257 L0.477234931,5.81739588 C1.87817805,19.9635459 3.64698085,32.6929445 5.88532819,44.7323393 L6.53602537,44.6691067 L6.16004796,4.7967027 C6.1587663,4.66596504 6.15791175,4.5352275 6.16004796,4.40491718 Z" id="Path" fill="#F0F2FA"></path>
                        <path d="M52.9436004,21.0632797 C52.0617625,20.449753 51.0308153,20.1254724 49.9614159,20.1254724 C49.3162729,20.1254724 48.68352,20.2442472 48.0811016,20.477524 C47.6081392,20.6603857 47.1650839,20.9090436 46.7634717,21.2166615 C46.3631412,21.523852 46.0196346,21.8797489 45.7423513,22.2740979 C44.5093163,24.0292287 44.5413598,26.5546861 45.817974,28.278628 C46.7626173,29.5543877 48.3729114,30.3469309 50.0208032,30.3469309 C50.5446082,30.3469309 51.0555957,30.2678903 51.5388121,30.1115179 C53.5759261,29.4527029 55.0768449,27.4194341 55.1084612,25.2772174 C55.1332415,23.572929 54.343689,22.0369758 52.9436004,21.0632797 Z M51.0936206,28.7233921 C50.7509684,28.8336219 50.3878085,28.8895912 50.0152491,28.8895912 C48.830493,28.8895912 47.675217,28.3234889 47.0010211,27.4125982 C46.0879941,26.1782815 46.0653501,24.3718809 46.9463334,23.1170563 C47.3423915,22.5530902 47.9366922,22.0967904 48.6198602,21.8323244 C49.0518069,21.6648436 49.5046888,21.5802487 49.9665429,21.5802487 C50.7313151,21.5802487 51.4687435,21.8118166 52.0993602,22.2505993 C53.1012546,22.948721 53.6652207,24.0476004 53.6472762,25.2652545 C53.6242049,26.7973624 52.5501058,28.2517114 51.0936206,28.7233921 Z" id="Shape" fill="#939BAA"></path>
                        <path d="M47.6495822,15.6107528 C49.6862689,14.9519379 51.187615,12.9190965 51.2192312,10.7773069 C51.2448661,9.07472741 50.4557408,7.53834701 49.0539432,6.56251474 C48.1721053,5.94984252 47.1415853,5.62556198 46.0726132,5.62556198 C45.4274703,5.62556198 44.7947173,5.74433661 44.192299,5.97761355 C43.237829,6.34803666 42.4068335,6.9859166 41.8526941,7.77418738 C40.6209408,9.52760929 40.6525572,12.0530667 41.9287441,13.7787174 C42.8729601,15.0544772 44.482827,15.8470205 46.1302916,15.8470205 C46.654951,15.8470205 47.1663657,15.7675525 47.6495822,15.6107528 Z M43.000707,13.0229174 C42.08768,11.7894551 42.0646087,9.9830547 42.9464466,8.72780281 C43.3433591,8.16340948 43.9376598,7.70710962 44.6199733,7.44264367 C45.0510655,7.27559004 45.5035202,7.19099518 45.964947,7.19099518 C46.7305737,7.19099518 47.4684294,7.42299036 48.0994733,7.86220022 C49.1013676,8.55946741 49.665761,9.65791961 49.6473894,10.876001 C49.6247453,12.4081089 48.5502189,13.8624579 47.0928792,14.3345659 C46.7515088,14.4452228 46.3887761,14.5011922 46.0153622,14.5011922 C44.8310333,14.5011922 43.6757572,13.9346627 43.000707,13.0229174 Z" id="Shape" fill="#939BAA"></path>
                        <path d="M39.7232948,0.625916906 L39.4716462,0.578065236 C39.4169586,0.567384087 39.3490264,0.561829903 39.2575955,0.559266366 C37.7481317,0.519532417 36.1489459,0.499451778 34.5048993,0.499451778 C28.4730254,0.499451778 22.3886,0.763063183 16.5045537,1.01770254 C14.2568069,1.11468753 11.9321557,1.21509062 9.6382663,1.29968548 C8.62270009,1.33728322 7.57765374,1.43127768 6.93550139,2.1174364 C6.30873004,2.78565079 6.26643256,3.76532825 6.27711371,4.79499371 L6.72315963,52.0450998 C6.73255912,53.0170868 6.79750067,54.0172722 7.4605881,54.6265265 C8.01259118,55.1336688 8.78719017,55.2037373 9.54256296,55.2037373 C9.6673191,55.2037373 9.79378423,55.2011737 9.92153113,55.1986103 L37.8690426,54.5286869 L37.8130732,52.7389491 C37.812646,52.7355311 37.8130732,52.7304041 37.816064,52.7214319 L37.9092038,52.4492755 L37.6520011,52.3211014 C35.5204655,51.2623832 33.5854636,49.9238181 31.901683,48.3421496 C31.0770961,47.5675507 30.1999579,46.6143625 29.9487367,45.4189252 C29.7692929,44.5622949 29.9034485,43.6693486 30.3708568,42.6080669 L29.8534606,42.2299532 L28.1269552,43.7518073 C28.1167013,43.7607794 28.1030294,43.7659064 28.0863667,43.7659064 C28.0697042,43.7641974 28.0534687,43.7560798 28.0432148,43.7436895 C26.9853511,42.4286232 26.1436745,40.9311222 25.5408289,39.2926298 C24.4880921,36.4279383 24.2377253,33.3585955 24.8166451,30.4174267 C24.8354439,30.3212961 24.8538156,30.2038032 24.8768869,30.0465763 C24.8995311,29.8983216 24.9230297,29.7534848 24.9478099,29.6150568 L24.973872,29.4680838 L24.8803049,29.3518726 C24.8756052,29.3458912 24.8709055,29.3403369 24.8653513,29.3343555 L17.8085116,18.3523972 C17.7922763,18.3276168 17.798685,18.2938643 17.8234653,18.2750655 C17.8337192,18.267375 17.8452549,18.2635298 17.8584996,18.2635298 C17.8687535,18.2635298 17.8875524,18.2660932 17.9025061,18.2827559 L26.5252061,28.0645772 L26.6815784,28.0577413 C26.862304,28.0504781 27.0434567,28.0496235 27.199402,28.0496235 L27.2921146,28.048769 C27.3613285,28.0479146 27.4258429,28.0474873 27.4852302,28.0462056 C27.5954599,28.0432148 27.7056897,28.0415058 27.8167739,28.0415058 C29.3138476,28.0415058 30.881417,28.3175075 32.4754758,28.8622474 C34.8637868,29.6782893 37.0166847,30.9792566 38.8081316,32.1439321 L39.3131376,32.472485 L39.3541534,18.4190477 L39.3503082,18.0986124 L39.0303,18.0896402 C38.8726459,18.0853677 38.71371,18.0810953 38.5543469,18.0746866 C37.8754512,18.0507607 37.112388,17.9824012 36.6462615,17.4731227 C36.2668661,17.0595476 36.1873982,16.4584109 36.138692,15.8782095 C35.920796,13.2698663 35.820393,10.6226435 35.841328,8.01045498 C35.8494458,7.08204716 35.9037062,6.1160416 36.4574183,5.40723871 C37.0756447,4.61640438 38.1407717,4.36304691 39.0892602,4.18830289 C39.1520655,4.17676719 39.2157253,4.16651326 39.2789579,4.15583212 L39.6408362,4.09516298 L39.7378212,1.03351065 C39.7396152,1.00232153 39.7408119,0.935243773 39.7378212,0.881837918 L39.7232948,0.625916906 Z M15.0484958,5.83320399 C15.0989109,5.67640441 15.149326,5.51960471 15.1988867,5.36365945 L15.2510108,5.8545664 L15.0484958,5.83320399 Z M15.5735824,10.8418212 L15.771825,10.7794432 L15.8354848,11.3852795 C15.7590075,11.199427 15.6697129,11.0191288 15.5735824,10.8418212 Z M16.5900031,17.8841344 C16.4720828,17.9469398 16.3597169,18.014872 16.2537597,18.087504 L16.0456903,18.087504 C16.17301,18.0037636 16.2947754,17.9140417 16.4148318,17.8256015 L16.423804,17.8191929 C16.6028205,17.6871736 16.7878184,17.5508817 16.9826431,17.4436427 C17.2223288,17.3116234 17.4991849,17.2360007 17.7427156,17.2360007 C17.9033605,17.2360007 18.044352,17.2667625 18.1639812,17.328286 C17.6312042,17.4645778 17.0894549,17.6183867 16.5900031,17.8841344 Z" id="Shape" fill="#FFFFFF"></path>
                        <path d="M23.8604662,25.4707603 C23.5272135,25.5408289 23.2379673,25.7963225 23.1379914,26.1018042 L23.0384429,26.274412 L24.9478099,29.2459153 L25.1990312,28.7050205 C25.255855,28.5828279 25.3212238,28.4849883 25.3930013,28.415347 C25.4981041,28.3140895 25.6463589,28.235476 25.8463105,28.1756615 L26.3372174,28.0282611 L24.0476004,25.4314536 L23.8604662,25.4707603 Z" id="Path" fill="#F7B36F"></path>
                        <path d="M52.4860188,52.1724194 L51.9887032,50.1870023 L51.9891304,50.1870023 L51.2444388,47.2159264 L51.2474296,47.2150719 L51.1688161,46.9172806 C51.0226977,46.3622867 50.8248823,45.7419241 50.3241487,45.4090986 C50.0883083,45.2510171 49.8054707,45.1706947 49.4837537,45.1706947 C48.9834474,45.1706947 48.4536611,45.3548382 47.8914039,45.5505174 C47.3479457,45.7393605 46.7856886,45.9341852 46.2580385,45.9341852 C45.9183771,45.9341852 45.6278491,45.8512993 45.3676556,45.6786914 C45.3663739,45.677837 45.3462933,45.6598927 45.3210857,45.6376757 L45.3339031,45.6005053 C45.3381755,45.5876878 45.3420208,45.5834154 45.3420208,45.5829881 C46.0632139,44.7306303 46.8087599,43.8492196 47.2889856,42.8157089 C47.3402553,42.7059065 47.386398,42.5939678 47.4299771,42.4811746 L47.4855193,42.5948222 L47.6440279,41.8052697 L47.8508155,41.031098 L47.7516942,41.1041573 C47.7957006,40.5440364 47.7277684,40.0151045 47.5487518,39.552396 C47.4299771,39.2422146 47.2577965,38.9410054 47.0232379,38.6333876 L47.0518635,38.6261244 L46.6711863,38.2198124 C46.3443424,37.871606 45.9739192,37.5528798 45.5184738,37.181602 C45.3740643,37.0641092 45.2283731,36.947898 45.0818273,36.8312595 L45.0856726,36.8308322 L44.5161522,36.3817955 C44.00901,35.9823196 43.4753784,35.5738714 42.9289295,35.1649959 L42.9396106,35.1645687 L42.1778291,34.6091475 C41.6407796,34.2177892 41.0704047,33.814468 40.4803766,33.408156 L40.5008845,33.4085834 L39.5600864,32.7813847 C39.3263823,32.6254394 39.0926782,32.4694943 38.8576922,32.3161127 C38.0882203,31.8132428 37.4268419,31.4013767 36.8004978,31.0347987 L36.8423679,31.0330898 L35.7909129,30.4665601 C34.6048751,29.8273985 33.5077047,29.3386279 32.4374507,28.9729044 C32.2443352,28.9066811 32.0405382,28.8413123 31.8316145,28.7785071 L31.7465923,28.7532995 L30.921151,28.9519693 L30.9202965,28.5341217 C29.8637145,28.2841822 28.821659,28.157717 27.8236099,28.157717 C27.7116711,28.157717 27.5997324,28.159426 27.4856574,28.1624168 C27.405335,28.1654075 27.3147586,28.1654075 27.2164918,28.1654075 C27.2109376,28.1654075 27.1870117,28.1654075 27.1870117,28.1654075 C26.6145007,28.1688255 26.025327,28.1867698 25.6660122,28.3679226 L25.4728965,28.4653349 L25.4186362,28.4110745 L25.3827474,28.5106231 L25.153743,28.6259798 L25.305843,28.7238195 L25.2434649,28.8977089 C25.1182815,29.2463425 25.0430861,29.7376767 24.9926709,30.0649479 L24.9905346,30.0803288 C24.9691722,30.219184 24.9508007,30.3392405 24.9315745,30.4396436 C24.7410224,31.4094944 24.6401921,32.4105343 24.6325017,33.414992 L24.622675,34.6621262 L24.6653997,34.5882125 C24.7465766,35.8503003 24.9725902,37.1076883 25.3434408,38.3296149 L25.5950893,39.1593287 L25.6079066,39.1311303 C25.6220057,39.1712916 25.6352504,39.2114528 25.6502041,39.2524685 C25.9415866,40.0441574 26.3000468,40.8217469 26.715331,41.5634478 L27.0285031,42.1227143 L27.0357663,42.106906 C27.2989505,42.5367166 27.5822153,42.9532825 27.8800065,43.3450681 L28.09363,43.6261967 L29.6013848,42.2961765 L30.3358226,41.0806587 L30.6673663,41.3570875 L31.43812,40.6769102 C31.4492283,40.6670835 31.4620458,40.6623838 31.4769994,40.6623838 C31.4863988,40.6623838 31.5009252,40.6649473 31.5150244,40.6769102 C31.5368141,40.6957091 31.5419409,40.7281799 31.5269873,40.7525329 C30.6037065,42.2303805 29.7304134,43.8056403 30.0632389,45.3937177 C30.2136298,46.1072202 30.6160966,46.8168776 31.2932832,47.562851 L31.6461893,47.9512185 L31.6517435,47.9375466 C31.7615459,48.0473491 31.872203,48.1537337 31.9820054,48.2571274 C32.9702278,49.185108 34.0648348,50.0430201 35.2367734,50.8065106 L35.448688,50.9449386 L35.448688,50.9462204 L35.4948308,50.974846 L35.642231,51.0709766 L35.6430854,51.0671314 C36.3125816,51.4832699 36.9995948,51.8677923 37.6857536,52.2087355 L38.0724122,52.4014238 L38.0732666,52.3958696 L38.1023194,52.4095415 C39.0174827,52.8440518 39.9736615,53.2272925 40.9443668,53.5490095 L41.0921944,53.5981428 L41.091767,53.6002791 L41.2002879,53.6336043 L41.352815,53.6844468 L41.352815,53.6810288 L41.3814406,53.6900009 C42.2854954,53.9698478 43.2173212,54.2014157 44.1508559,54.3770142 L44.3140644,54.407776 L44.3140644,54.4082032 L44.3294453,54.4107667 L44.5272607,54.4479373 L44.5272607,54.4440921 L44.596902,54.4556277 C45.4629317,54.6021734 46.3370792,54.701722 47.1949913,54.7517099 L47.4688566,54.7679453 L47.4838103,54.7687998 L47.5030364,54.7696543 L47.5030364,54.769227 L47.6705172,54.776063 C47.9815531,54.7884531 48.2968614,54.7944345 48.6070428,54.7944345 C49.3107187,54.7944345 50.0182398,54.7623911 50.7116618,54.6995858 C51.2957084,54.6448981 51.9446968,54.5329595 52.3270829,54.1134028 L52.4625202,53.965148 L52.5112263,53.9907829 L52.5355795,53.8852528 L52.6116294,53.8015125 L52.5607871,53.7741687 L52.6069296,53.5729353 C52.70776,53.12988 52.5975302,52.6176109 52.4860188,52.1724194 Z" id="Path" fill="#ED6D66"></path>
                        <path d="M20.6625219,22.5774433 L23.1422639,26.4367659 L23.4186927,26.0112278 C23.4981607,25.8894624 23.6118084,25.7924773 23.747673,25.7305265 L24.1509942,25.5476648 L21.1846179,22.1830942 L20.6625219,22.5774433 Z" id="Path" fill="#F9D889"></path>
                        <path d="M55.1165789,6.13227693 C55.0174576,5.55122094 54.9153455,4.95008431 54.6521613,4.44080582 C54.485535,4.11951603 54.2454221,3.88453021 53.9745475,3.77857294 C53.754088,3.69269631 53.5062848,3.68756935 53.2567725,3.6828696 C52.5026815,3.66791593 51.7494449,3.64527186 51.0209886,3.62305501 L50.92144,3.61963704 C49.6516618,3.58161208 48.4519521,3.54529599 47.2381432,3.54529599 C45.7808035,3.54529599 44.5494775,3.59827474 43.3634397,3.71149518 C41.9428432,3.84693247 40.5119928,4.04645687 39.1101953,4.30365954 C38.1834964,4.4732767 37.1448588,4.71808924 36.5492764,5.47987065 C36.0177811,6.16047529 35.9665115,7.06495727 35.9579665,8.01045498 C35.9374586,10.6192255 36.0370072,13.2630303 36.254476,15.8688101 C36.3044638,16.4528568 36.3788049,17.0091325 36.7321382,17.3936548 C37.1683574,17.8704625 37.9036496,17.9349768 38.5581921,17.9580481 C39.5216342,17.9922279 40.4996027,18.0093178 41.4660356,18.0093178 C45.3809002,18.0093178 49.3196909,17.7303255 53.1730321,17.1808857 C53.6853013,17.1078265 54.1386104,17.0262224 54.5013431,16.7630382 C55.1199969,16.3152833 55.2874777,15.4877056 55.3767723,14.6601281 C55.6818268,11.8232077 55.5946684,8.958089 55.1182879,6.14381263 L55.1165789,6.13227693 Z M47.6858981,15.7222643 C47.1971275,15.8807729 46.6780223,15.9610955 46.1422545,15.9610955 C44.449929,15.9610955 42.7999008,15.1514623 41.8347497,13.8475043 C40.5290827,12.0838284 40.4970391,9.50154725 41.7578452,7.70710962 C42.3243749,6.90046719 43.173742,6.24763369 44.1495743,5.86866553 C44.766519,5.6298344 45.413371,5.50849623 46.0730405,5.50849623 C47.1663657,5.50849623 48.2203842,5.84003995 49.121021,6.4668114 C50.5544349,7.46400608 51.3619318,9.0358479 51.3362969,10.7785887 C51.303399,12.9695116 49.7683003,15.048923 47.6858981,15.7222643 Z" id="Shape" fill="#BFC7D8"></path>
                        <path d="M49.3085824,6.1976457 C47.7593846,5.11970147 45.786785,4.88215211 44.0312268,5.56275664 C42.9960072,5.96394165 42.0932341,6.65821808 41.4891069,7.51826637 C40.1492601,9.42507 40.1838671,12.1688505 41.5715655,14.0427562 C42.6234478,15.4646343 44.3849874,16.2892212 46.1426818,16.2892212 C46.6985302,16.2892212 47.2543785,16.2067624 47.7863012,16.0345819 C49.9990136,15.3189431 51.6298157,13.1105031 51.6644227,10.7837156 C51.6917665,8.93031796 50.8334272,7.25850016 49.3085824,6.1976457 Z M47.5487518,15.2988625 C45.6385302,15.917089 43.3860838,15.1950414 42.1927828,13.5830383 C40.9977728,11.9684717 40.9678655,9.60494098 42.1214325,7.96303064 C42.6388287,7.22645661 43.4164183,6.63044705 44.3106464,6.28394966 C45.8260917,5.69605772 47.5295258,5.90156352 48.866809,6.83210766 C50.1771757,7.74385282 50.9150313,9.17983024 50.8915328,10.7721799 C50.8616254,12.7781049 49.4555554,14.6819177 47.5487518,15.2988625 Z" id="Shape" fill="#000000"></path>
                        <path d="M53.1973851,20.6979835 C51.6486146,19.6200391 49.6755876,19.3824899 47.9204567,20.0630944 C46.8848099,20.4642793 45.9820369,21.1589831 45.3779095,22.0186041 C44.0384901,23.9249806 44.073097,26.6691883 45.4603682,28.5430939 C46.5126777,29.9649721 48.2737901,30.7895589 50.0314845,30.7895589 C50.5873329,30.7895589 51.1431813,30.7071002 51.6755312,30.5349196 C53.8878163,29.8192808 55.5190455,27.6108408 55.5532253,25.2840534 C55.5809964,23.4306556 54.7222298,21.7588379 53.1973851,20.6979835 Z M51.4375545,29.7992003 C49.5273329,30.4169994 47.2753137,29.6953792 46.0820126,28.0833761 C44.8865754,26.4688095 44.8566682,24.1052788 46.0106625,22.4629411 C46.5276313,21.7267944 47.305221,21.1307847 48.1998764,20.7838602 C49.7148944,20.1963955 51.4179012,20.4019013 52.7560389,21.3324453 C54.0659783,22.2441906 54.803834,23.6801679 54.7803354,25.2725177 C54.7504282,27.2784426 53.3447853,29.1822555 51.4375545,29.7992003 Z" id="Shape" fill="#000000"></path>
                        <path d="M52.2864944,21.9818608 C51.1752248,21.2085437 49.7601826,21.0384993 48.5010855,21.5264155 C47.7585302,21.8139528 47.1112509,22.3121229 46.6780223,22.9282131 C45.7175709,24.2954037 45.7423513,26.2633036 46.7374097,27.6074228 C47.491928,28.6268343 48.7552975,29.2181443 50.0156763,29.2181443 C50.4142979,29.2181443 50.812492,29.1591841 51.1944509,29.0357097 C52.7812464,28.5221588 53.9506217,26.938354 53.975402,25.2699542 C53.9950554,23.9407887 53.3793923,22.7423607 52.2864944,21.9818608 Z M51.0585863,28.6148714 C49.6439714,29.0728803 47.9759989,28.537967 47.092452,27.3442386 C46.2071961,26.1488014 46.1849793,24.3983702 47.0394734,23.1819979 C47.4231412,22.6368307 47.998643,22.1950571 48.660876,21.9382817 C49.7828267,21.5033441 51.0436327,21.6550169 52.0339914,22.3441663 C53.0046967,23.019644 53.5511457,24.0834891 53.5336286,25.2631182 C53.5118389,26.7486563 52.4706379,28.1581442 51.0585863,28.6148714 Z" id="Shape" fill="#000000"></path>
                        <path d="M48.2861802,7.59260741 C47.1749106,6.81929019 45.7602956,6.64924592 44.5011986,7.137162 C43.758216,7.42512657 43.1109367,7.92286936 42.6781354,8.53895955 C41.7176841,9.90615013 41.7424643,11.8736229 42.7370955,13.2177421 C43.4916138,14.2371536 44.7549833,14.8288907 46.0153622,14.8288907 C46.4139837,14.8288907 46.8126051,14.7699306 47.1941367,14.646029 C48.7809323,14.1329053 49.9507347,12.5491005 49.9755151,10.8802734 C49.9951684,9.55153513 49.3795054,8.35310717 48.2861802,7.59260741 Z M47.0582722,14.2256179 C45.6440844,14.6836267 43.9761119,14.1487134 43.0921378,12.9549851 C42.2073091,11.7595479 42.1850923,10.0091167 43.0395864,8.79317158 C43.422827,8.24757712 43.9983288,7.80580372 44.6605618,7.54902816 C45.0831091,7.38539262 45.5253098,7.30464284 45.9653742,7.30464284 C46.6938304,7.30464284 47.4167325,7.52552965 48.0341045,7.95534013 C49.0043825,8.63039048 49.5512587,9.69423559 49.5337416,10.8738648 C49.5115248,12.3594028 48.4703237,13.7688908 47.0582722,14.2256179 Z" id="Shape" fill="#000000"></path>
                        <path d="M55.5574978,6.06904437 C55.457522,5.47901621 55.3438743,4.8103746 55.0469376,4.23615456 C54.8303234,3.81787967 54.5068973,3.50812558 54.1364742,3.36414324 C53.8395375,3.24835937 53.5340558,3.24237786 53.2554907,3.2372509 C52.4877278,3.22272455 51.7105654,3.19922594 50.959465,3.17615454 C48.4716055,3.10053184 45.8982965,3.02191838 43.3211422,3.26801268 C42.2470431,3.3709792 41.1673899,3.50940735 40.098845,3.68201505 L40.1830126,1.04333725 C40.1872851,0.900209569 40.19583,0.634034627 40.0257857,0.415284136 C39.8023355,0.128174116 39.4425935,0.118774736 39.2695584,0.114074991 C31.6760965,-0.0841676422 23.953606,0.249512279 16.4857547,0.572511052 C14.2350174,0.66992338 11.9082299,0.770326465 9.62117642,0.854921326 C8.51417928,0.895509824 7.3695844,1.00317608 6.61079363,1.81280927 C6.15022136,2.30499788 5.95710569,2.92664226 5.87934667,3.58673904 C4.9381215,3.83539677 4.03064865,4.0896088 3.15222871,4.3357031 C2.23065684,4.59418754 1.27746874,4.86121692 0.288391788,5.12098313 C0.104675501,5.16926213 -0.0166626624,5.34357892 0.00170898821,5.5328494 C1.56244245,21.3751701 3.59314766,35.5260198 6.21046317,48.7933225 C6.21815356,48.8309202 6.23182547,48.8651 6.24848813,48.8971435 L6.27839548,52.0493723 C6.28779486,53.0717744 6.36469933,54.2236325 7.15937885,54.954225 C7.80494917,55.5476711 8.67738771,55.6480742 9.55281689,55.6480742 C9.67970924,55.6480742 9.80574715,55.645938 9.93178506,55.6429472 L37.9391111,54.9721693 C38.0420776,54.9696059 38.1399172,54.926454 38.2108402,54.8516857 C38.2817632,54.7764902 38.3193609,54.6765145 38.3163702,54.5735478 L38.2659551,52.9764984 C41.4993608,54.4492189 45.0472203,55.2404806 48.5967888,55.2404806 C49.3158457,55.2404806 50.0353297,55.2080097 50.7513958,55.1422137 C51.4768612,55.0759904 52.3680986,54.9085095 52.8222621,54.1992794 C53.2401098,53.5473005 53.0905734,52.7556117 52.9175383,52.0643259 L51.6430603,46.9753862 C51.4572079,46.2332581 51.2213675,45.4727584 50.5715248,45.0386754 C49.6939593,44.4524924 48.6595942,44.8118072 47.7461399,45.1292518 C47.1180868,45.3471477 46.516523,45.5560716 46.0204891,45.468486 C46.649824,44.7143948 47.2659142,43.9231333 47.6935886,43.0024159 C48.278917,41.7411826 48.3754748,40.458587 47.9644632,39.3908966 C47.554306,38.3257697 46.7062207,37.5750966 45.7991751,36.8368137 C43.8633187,35.2606993 41.8313317,33.7623439 39.7502114,32.3737909 C39.754911,32.3498651 39.7579018,32.3246575 39.7579018,32.29945 L39.7993447,18.4369921 C40.3551932,18.4481005 40.9114688,18.4545092 41.4681718,18.4545092 C45.4022626,18.4545092 49.3483164,18.1755169 53.2358373,17.6213775 C53.6771836,17.5585721 54.2817381,17.4722683 54.7623911,17.1236347 C55.5241726,16.5707769 55.7241241,15.591954 55.8194003,14.7071253 C56.1287271,11.8291892 56.0407143,8.92305468 55.5574978,6.06904437 Z M0.80365168,5.78449788 C1.68463516,5.54993928 2.53528407,5.31153537 3.3611526,5.07996741 C4.15967731,4.85651728 4.98340963,4.62623109 5.83192222,4.3997901 C5.83021335,4.53309118 5.83021335,4.66639226 5.831495,4.79926612 L6.20832696,44.6725247 C3.97638835,32.6720094 2.20203126,19.9020223 0.80365168,5.78449788 Z M23.1435456,25.8326386 L20.9385236,22.4005631 L23.6113812,25.4323082 C23.4212562,25.5181848 23.2571934,25.6574673 23.1435456,25.8326386 Z M23.4439003,26.2218607 C23.5084146,26.0086644 23.7087935,25.8377656 23.9283985,25.7920501 L25.7523162,27.8612076 C25.525448,27.9291398 25.3207966,28.0291157 25.1648514,28.1795067 C25.058467,28.2820459 24.9725902,28.413638 24.9008127,28.567447 L23.4221107,26.2658671 C23.4302284,26.2517679 23.4392006,26.238096 23.4439003,26.2218607 Z M39.3785064,33.0548228 L31.4411107,32.8715337 C30.9241417,32.3938716 30.3926464,31.9324448 29.8474791,31.4876806 C30.0880193,31.431284 30.3473583,31.4193211 30.5861893,31.4094944 L36.3732507,31.1663908 C37.1910015,31.6359354 37.963037,32.1238515 38.6778212,32.5908325 C38.9119526,32.743787 39.1452296,32.8993049 39.3785064,33.0548228 Z M41.9847134,34.8744679 L33.7371363,35.2055844 C33.1569349,34.5557417 32.5506713,33.928543 31.9217636,33.3244157 L40.0253584,33.5115499 C40.0343307,33.5124044 40.0428756,33.5111227 40.0514206,33.5106953 C40.7016905,33.9550323 41.3468336,34.4096231 41.9847134,34.8744679 Z M44.3136372,36.6394255 L36.0895587,38.1591433 C35.4717594,37.2871321 34.8120899,36.4433191 34.1122592,35.6328315 L42.4816018,35.2965881 C42.5025369,35.2957336 42.5221903,35.2910338 42.5409891,35.2846251 C43.1391349,35.7285348 43.7300176,36.1801349 44.3136372,36.6394255 Z M30.5678176,30.9681482 C30.2247383,30.9826745 29.8098814,31.0010462 29.4364674,31.1569913 C28.9378702,30.7634968 28.4285917,30.3841014 27.9094865,30.0196597 C28.0000629,29.9940249 28.0923483,29.9709535 28.1837792,29.9491639 L31.7376201,29.0925336 C31.934581,29.1519209 32.1328236,29.2151535 32.3314935,29.2830858 C33.4867695,29.6778621 34.5937666,30.1939765 35.635395,30.7553791 L30.5678176,30.9681482 Z M28.0803853,29.5193534 C27.8821427,29.5672051 27.6668102,29.6197565 27.4621588,29.7094783 C26.9255365,29.3458912 26.3795148,28.996403 25.8232391,28.6657139 C25.8202484,28.6635775 25.8168304,28.6627231 25.8134124,28.6610141 C26.137693,28.498233 26.8140251,28.4956695 27.1989746,28.4939605 C27.3087772,28.4935333 27.4096074,28.4931059 27.4980476,28.4905425 C28.5768465,28.4597807 29.6975154,28.5819733 30.8446737,28.8532752 L28.0803853,29.5193534 Z M25.2528643,30.5028761 C25.2746539,30.3930736 25.2943073,30.2636177 25.3173786,30.1140813 C25.3626669,29.8145812 25.437435,29.328374 25.5527918,29.0087932 C25.5660365,29.0224651 25.5805628,29.0348553 25.5972255,29.0451092 C26.0906958,29.3390552 26.5764757,29.6475275 27.0545652,29.9675355 C26.8345329,30.1644964 26.6879872,30.4174267 26.5576768,30.6438677 L24.9602001,33.4179827 C24.9678906,32.4404415 25.0635939,31.4646092 25.2528643,30.5028761 Z M26.9404902,30.8643271 C27.0703733,30.6387407 27.2045288,30.4054639 27.3980718,30.2546456 C27.4096074,30.2452462 27.4228521,30.2371285 27.4352423,30.2285835 C27.9787006,30.6032792 28.5110504,30.9950647 29.0322918,31.4022312 C28.6319613,31.7350567 28.4021023,32.2357901 28.2277855,32.6168946 L25.6574673,38.2343388 C25.2648273,36.939353 25.0353956,35.6106146 24.9742993,34.2780311 L26.9404902,30.8643271 Z M28.6293978,32.8006108 C28.8447303,32.3302118 29.0545086,31.9213363 29.3916065,31.6850687 C29.9141297,32.1050526 30.422981,32.5416991 30.919442,32.9924447 L27.0011593,41.4028029 C26.5986926,40.6850279 26.2487772,39.9296551 25.9586765,39.1392481 C25.9236422,39.0448265 25.8924532,38.9495504 25.8591279,38.8547016 L28.6293978,32.8006108 Z M31.2591034,33.3090347 L31.2650848,33.3090347 C31.9939683,33.989212 32.6925173,34.7014329 33.3577409,35.4431338 L29.3458912,42.0838348 L28.1406271,43.1459709 C27.8295913,42.7366683 27.5407723,42.3094212 27.2720339,41.8672205 L31.2591034,33.3090347 Z M31.7265116,40.4261162 C31.6547341,40.3650198 31.5658667,40.334258 31.4769994,40.334258 C31.3855685,40.334258 31.2941377,40.3667288 31.2210785,40.4308159 L30.4498975,41.110566 L33.6636498,35.7913402 C34.3899698,36.6240446 35.0739923,37.4913562 35.7118721,38.3898568 C34.1566929,41.2823193 32.7544681,44.290993 31.5359595,47.3419643 C31.0053186,46.7579175 30.5447463,46.0897031 30.384956,45.3266398 C30.0769108,43.8599007 30.917733,42.3483007 31.8051251,40.925568 C31.9063827,40.7627869 31.8730574,40.5500179 31.7265116,40.4261162 Z M35.9959915,38.7957414 C36.0246171,38.8376117 36.0545243,38.8782001 36.0827227,38.9196431 C36.5180874,39.5600864 36.9372168,40.2257374 37.3456649,40.8888248 L35.4153627,50.5317907 C34.2754676,49.7888082 33.198805,48.9501222 32.2067374,48.0178691 C32.0952259,47.9131936 31.9824326,47.8042455 31.8709212,47.6927341 C33.0727671,44.662698 34.4591839,41.6723958 35.9959915,38.7957414 Z M37.6857536,41.4421097 C37.7477044,41.5437945 37.8105097,41.6459066 37.8720333,41.7467369 C38.388575,42.5931132 38.9119526,43.4501708 39.46951,44.287575 C39.2315334,44.6639797 39.1439478,45.1130164 39.0721703,45.4842941 L37.8314449,51.9147895 C37.1410136,51.5712828 36.4685267,51.1944509 35.8148388,50.7868573 L37.6857536,41.4421097 Z M41.3814406,46.8322586 L41.0473334,53.2371191 C40.0903,52.920529 39.1533472,52.5454061 38.2428838,52.1134594 L39.505826,45.5680345 C39.5609409,45.2822061 39.6224645,44.9703159 39.7480751,44.6994413 C40.2552174,45.4381514 40.7935487,46.1563537 41.3814406,46.8322586 Z M42.4444313,47.9486551 C43.0447134,48.5190298 43.6877203,49.0342898 44.3567891,49.5106703 L44.2115251,54.0544428 C43.2886714,53.8809804 42.3756445,53.6545395 41.4784257,53.3764017 C41.4818437,53.3623024 41.4839799,53.3482033 41.4848343,53.3336769 L41.7997155,47.296676 C42.0082121,47.519699 42.2222628,47.737595 42.4444313,47.9486551 Z M50.9603195,47.4308317 L51.5960632,49.9703881 L47.9298562,51.1743703 C46.9313799,50.629203 45.9384576,50.0571192 44.9950961,49.4158214 L50.9603195,47.4308317 Z M47.5679779,51.479852 L47.2142174,54.4244386 C46.3554507,54.3735962 45.499675,54.2757567 44.6507351,54.1326289 L44.7891631,49.8110249 C45.6863819,50.4181431 46.6241892,50.9620285 47.5679779,51.479852 Z M50.6809,54.3723146 C49.6845598,54.4637454 48.6826655,54.487244 47.6833347,54.4479373 C47.676926,54.4342654 47.67009,54.4205935 47.6611177,54.4086305 L47.9853983,51.7075746 C48.3519763,51.9058172 48.718127,52.1010691 49.0829959,52.2950393 L52.0848338,53.8929433 C51.7802067,54.2266232 51.2106864,54.3240356 50.6809,54.3723146 Z M52.2864944,53.4994488 L49.2902108,51.9049628 C49.0159182,51.7588443 48.7403439,51.6118713 48.4643422,51.4636166 L51.7037294,50.4001986 L52.1672924,52.2518874 C52.2766677,52.6889611 52.3702348,53.1371433 52.2864944,53.4994488 Z M48.000352,45.8594169 C48.8151121,45.5761521 49.584584,45.3091227 50.1425686,45.6816822 C50.5266638,45.9384576 50.7052531,46.4438909 50.8517988,47.0014483 L44.5443506,49.1000858 C43.9150156,48.6489129 43.3113155,48.1631331 42.7490584,47.6282197 C42.5076638,47.3992153 42.2752414,47.1612387 42.0500822,46.9168534 L45.1429237,45.9183771 C45.1514686,45.9256403 45.159159,45.933758 45.1685585,45.9401667 C46.0448422,46.5387398 47.0834797,46.1781433 48.000352,45.8594169 Z M45.091654,45.3710735 C45.0608922,45.4073896 45.0391026,45.4488326 45.0237217,45.4924118 L41.7270834,46.5566841 C41.1101387,45.849163 40.5474544,45.0912268 40.0168136,44.309792 C40.3291311,44.0021741 40.8089296,43.8522103 41.2028514,43.7317266 L47.2219079,41.8868739 C47.2483971,41.8787562 47.2718958,41.8659388 47.2924036,41.8497034 C47.2193443,42.1248505 47.1193686,42.4021338 46.9920489,42.6768537 C46.5319039,43.6680668 45.7996024,44.5340966 45.091654,45.3710735 Z M47.355209,41.579256 C47.3082117,41.4831255 47.1984093,41.4327102 47.092452,41.4647538 L41.0733955,43.3096065 C40.6546934,43.4377806 40.1475511,43.5937258 39.7655922,43.9359508 C39.2387966,43.1387077 38.7406266,42.3226659 38.2492924,41.5168779 C38.1531619,41.359651 38.0557495,41.2007151 37.9587644,41.0417792 L46.7523633,38.8188127 C46.9557329,39.0828515 47.1249228,39.3631255 47.242843,39.6690344 C47.4586027,40.2295825 47.4932097,40.89267 47.355209,41.579256 Z M46.431928,38.4441171 L37.7160881,40.6474301 C37.3067855,39.983061 36.8863744,39.3157011 36.4480189,38.6714125 C36.4219568,38.6329603 36.394613,38.5953626 36.3681236,38.5569103 L44.7237943,37.0128395 C44.7391752,37.0098488 44.7537016,37.0055763 44.7678008,37.000022 C44.9493808,37.1448588 45.131388,37.2896956 45.3112591,37.4362414 C45.712444,37.7630853 46.0999571,38.0907837 46.431928,38.4441171 Z M38.9862936,31.8692122 C37.1602397,30.6810382 34.9812797,29.3719532 32.5814331,28.5516389 C30.825875,27.9513568 29.1083417,27.6727916 27.4758307,27.7176526 C27.3933721,27.720216 27.2985233,27.720216 27.195984,27.7206433 C27.0314938,27.7214978 26.8516228,27.7223524 26.6674793,27.7300428 L18.1481731,18.0661416 C18.0144448,17.9144689 17.7867221,17.8913976 17.6252227,18.013163 C17.4641506,18.1349285 17.4239894,18.3605149 17.5329373,18.5305592 L24.5983219,29.5266166 C24.6060123,29.5381523 24.615839,29.5471244 24.6248112,29.5578057 C24.5991763,29.6992244 24.576105,29.8461974 24.5530337,29.9974429 C24.531244,30.1384344 24.5128725,30.2601997 24.4940735,30.3537669 C23.9040454,33.3551775 24.1595392,36.4856166 25.2327838,39.4058502 C25.847165,41.0776679 26.706786,42.6063579 27.7877211,43.9496227 C27.8535171,44.0316541 27.9505022,44.083351 28.055605,44.0923231 C28.1607078,44.1012954 28.2653833,44.0671156 28.3444241,43.997047 L30.0700748,42.4760475 C29.6432551,43.4467528 29.4108327,44.4520652 29.6278741,45.4855759 C29.8978942,46.7711622 30.815621,47.7722021 31.6773783,48.5818352 C33.4064472,50.2058013 35.3807558,51.5601744 37.5054553,52.6150474 C37.4917834,52.6564904 37.484093,52.7004968 37.4853747,52.7466394 L37.5315174,54.2086789 L9.91341341,54.8704846 C9.03883866,54.8914197 8.20997938,54.8700574 7.68232924,54.3851319 C7.1157997,53.8638905 7.05983031,52.9418913 7.05128537,52.0425363 L6.60481223,4.79200295 C6.59584006,3.83112436 6.63258326,2.92108808 7.17518696,2.34174107 C7.73274445,1.74615873 8.70344975,1.66241831 9.64980189,1.627384 C11.9389917,1.54278914 14.267488,1.44238605 16.5190801,1.34497372 C23.9741139,1.02240217 31.6825053,0.68872225 39.2490505,0.886964883 C39.3336455,0.88952831 39.3819244,0.895082604 39.4092682,0.900636789 C39.4126862,0.938234529 39.4109772,0.994203921 39.4101226,1.01898419 L39.320828,3.81574346 C39.2242703,3.83283334 39.1264306,3.84821424 39.0298728,3.86573134 C38.0224242,4.05072929 36.8893651,4.32203119 36.1989339,5.2055781 C35.5807074,5.99641242 35.52132,7.02308712 35.5132023,8.007037 C35.4922672,10.6316157 35.592243,13.2890923 35.811848,15.9046988 C35.8648266,16.5417241 35.9549758,17.2043843 36.4040125,17.6944367 C36.9564429,18.2981368 37.7976923,18.376323 38.542384,18.4028123 C38.7038833,18.4083666 38.8653827,18.4130662 39.0264548,18.417766 L38.9862936,31.8692122 Z M55.0507828,14.6246667 C54.9700331,15.3766215 54.8243419,16.1238766 54.3086547,16.4977178 C54.0074455,16.7160409 53.5951521,16.7891002 53.1268894,16.8557508 C48.3195055,17.541055 43.4223997,17.8016757 38.5697278,17.6303496 C37.9814085,17.6094146 37.3247298,17.5555814 36.97396,17.172768 C36.6889862,16.8617322 36.6257536,16.3648439 36.5817473,15.8406118 C36.3647056,13.2480766 36.2651571,10.6145258 36.2865195,8.01344573 C36.2933555,7.12733529 36.3386436,6.28224067 36.8077609,5.68195859 C37.3315658,5.01203521 38.3014166,4.78559422 39.1695826,4.62623109 C40.5615535,4.37116463 41.9830045,4.172922 43.3946287,4.03791193 C45.9230768,3.79609004 48.3579577,3.87043108 50.9359665,3.94904454 C51.6892031,3.97211583 52.4685017,3.99561444 53.2503637,4.01056812 C53.4750956,4.01484053 53.6870102,4.01868584 53.8557728,4.08448183 C54.0510248,4.16053175 54.2300412,4.34040284 54.3599243,4.59162411 C54.6017462,5.05860511 54.700013,5.63795212 54.7948619,6.19807303 C55.2665426,8.98201483 55.3524192,11.8172263 55.0507828,14.6246667 Z" id="Shape" fill="#000000"></path>
                        <path d="M11.1878913,12.556791 C11.8885765,12.2414826 12.3833286,11.6382097 12.7358074,11.1477301 C13.1622,10.554284 13.5240783,9.92665798 13.8406683,9.27852423 C14.8780242,10.0920026 15.6218613,11.3002573 15.8495839,12.5939614 C15.8683828,12.7007732 15.9615227,12.7763959 16.0670527,12.7763959 C16.0773067,12.7763959 16.0875606,12.7759687 16.0978145,12.7742597 C16.2157346,12.757597 16.2994751,12.6507852 16.2866577,12.5324378 L15.4714703,4.81763777 C15.4603618,4.71338949 15.3779032,4.63135806 15.2736549,4.62067691 C15.1689794,4.60956843 15.0724216,4.67450998 15.0412325,4.77405863 C14.6357751,6.05964499 14.2217727,7.37129338 13.6642153,8.61244616 C13.5467223,8.53725068 13.4262386,8.46675483 13.3031915,8.40095884 C13.0617969,8.27193017 12.6939372,8.09590439 12.2884797,8.05787943 C11.8655052,8.01771826 11.4673109,8.13905631 11.196009,8.38942314 C10.9789675,8.58980198 10.8490844,8.88716593 10.839685,9.20546496 C10.8302855,9.52376409 10.9426515,9.82839122 11.1481573,10.0411603 C11.3532359,10.2543565 11.6535906,10.3778309 11.9718897,10.3799672 C11.9748804,10.3799672 11.9782984,10.3799672 11.9812891,10.3799672 C12.2961702,10.3799672 12.5943887,10.2611925 12.8007489,10.0535504 C12.8866256,9.96681926 12.8861983,9.82710945 12.7994673,9.74123282 C12.7127361,9.65492897 12.5730263,9.65578341 12.4871497,9.74208726 C12.363248,9.86727073 12.1791044,9.93819368 11.9812891,9.93819368 C11.9791529,9.93819368 11.9774438,9.93819368 11.9753076,9.93819368 C11.7749288,9.93691191 11.5895036,9.86257098 11.4660291,9.73482408 C11.342982,9.6070773 11.275477,9.41866126 11.2814584,9.21870964 C11.2870126,9.0183308 11.3651988,8.8341873 11.4959365,8.7141309 C11.6723895,8.55092258 11.953518,8.47017281 12.247464,8.49751662 C12.4991126,8.52144245 12.7605878,8.61159161 13.0951221,8.79060815 C13.2254326,8.86024934 13.3527521,8.93587215 13.4762266,9.01662181 C13.1617728,9.66945531 12.8020307,10.2987902 12.3769199,10.8901001 C12.0569118,11.3352916 11.6117204,11.8817405 11.0067385,12.153897 C10.5303582,12.3679477 9.81899184,12.402982 9.38149085,11.9735986 C9.17085797,11.7668111 9.0649007,11.4562025 9.08968109,11.1216681 C9.11531591,10.7871336 9.26656131,10.4961784 9.50581966,10.3231432 C9.71132547,10.1748886 10.030479,10.0860212 10.2804187,10.2201767 C10.3902211,10.2787096 10.4769522,10.3979115 10.5068595,10.5307854 C10.5205314,10.5914545 10.5329216,10.7080929 10.4628531,10.8037963 C10.3906483,10.902063 10.4115834,11.0400639 10.5098503,11.1122686 C10.6081171,11.1849006 10.7465451,11.1635382 10.8187498,11.0652715 C10.9477785,10.8896729 10.990076,10.6653682 10.9379518,10.433373 C10.8798462,10.1753158 10.7119381,9.9501566 10.4897697,9.83095464 C10.1214826,9.63271201 9.63399378,9.68569075 9.24733522,9.96511027 C8.90254682,10.2141953 8.68422366,10.6239252 8.64961657,11.0883427 C8.61458236,11.5531875 8.76881852,11.9906885 9.07216388,12.2884797 C9.57332475,12.7815228 10.443627,12.8913253 11.1878913,12.556791 Z M15.1429173,5.91139023 L15.6539048,10.7486814 C15.251438,10.0189433 14.6951624,9.37080959 14.0333568,8.86964883 C14.4704304,7.90877023 14.8194913,6.90901213 15.1429173,5.91139023 Z" id="Shape" fill="#000000"></path>
                        <path d="M21.0901963,11.1998543 C21.0047469,11.1131231 20.8650371,11.1114141 20.7774515,11.1964363 C20.5642552,11.4049329 20.3437957,11.6206926 20.0840295,11.7373311 C19.8315264,11.8509787 19.5580883,11.8441428 19.3880441,11.7193867 C19.1539127,11.5484879 19.1099062,11.1827644 19.1137514,10.9059083 C19.1158877,10.7478269 19.1291323,10.5910272 19.1526309,10.4355093 C19.350019,10.0138165 19.5081005,9.57417919 19.6251662,9.11958833 C19.65251,9.01320384 19.5973951,8.90254682 19.4957103,8.86024934 C19.3940255,8.81795196 19.277387,8.85725869 19.2209904,8.95168026 C18.9740416,9.36867339 18.8065607,9.827964 18.7262384,10.3030627 C18.5638844,10.6422968 18.3737595,10.9682864 18.1575725,11.2797494 C17.9712928,11.5480606 17.6884552,11.856533 17.3936548,11.8048361 C17.2398459,11.7779195 17.0941546,11.6382097 17.0313493,11.4574842 C16.9719619,11.2874399 16.9728165,11.0776616 17.0339127,10.8341308 C17.2398459,10.0121074 18.0336708,9.35671047 18.87962,9.30928602 C19.0013854,9.30245007 19.0945253,9.19820179 19.0876894,9.07600918 C19.0808534,8.95467102 18.9757507,8.86238566 18.8548397,8.86793984 C17.8068027,8.92689999 16.8604505,9.70876204 16.6053839,10.7268918 C16.5229253,11.0550175 16.525916,11.3498179 16.613929,11.6027482 C16.7297128,11.9351465 17.0057145,12.185086 17.3171776,12.2397736 C17.6059966,12.2910432 18.0494791,12.2090118 18.5203053,11.5318252 C18.5805471,11.4455213 18.6386527,11.3579357 18.6950493,11.2694955 C18.7484551,11.6309466 18.8950009,11.9065209 19.1274233,12.0761379 C19.2940497,12.1983306 19.5029735,12.2602814 19.7242875,12.2602814 C19.901595,12.2602814 20.0870202,12.2205475 20.2651822,12.140225 C20.5967259,11.9915431 20.8569194,11.7369038 21.0867783,11.512599 C21.1739367,11.4271496 21.1752184,11.2874399 21.0901963,11.1998543 Z" id="Path" fill="#000000"></path>
                        <path d="M23.234122,11.674953 C23.2550572,11.6813617 23.2759922,11.6843524 23.2965001,11.6843524 C23.3922034,11.6843524 23.4802163,11.6215471 23.5084146,11.5254165 L25.1131546,6.06220841 C25.1473343,5.94514278 25.0802566,5.82252284 24.9631908,5.78791586 C24.8461251,5.75330877 24.7235053,5.82081386 24.6893255,5.93787949 L23.0845856,11.4006604 C23.0499786,11.5177261 23.1170563,11.6407733 23.234122,11.674953 Z" id="Path" fill="#000000"></path>
                        <path d="M25.515194,8.83290553 C25.9766208,8.56373994 26.4239485,8.23903218 26.7606192,7.79512246 C27.265198,7.12904439 27.4736945,6.03315561 26.8652947,5.31324436 C26.5435777,4.93213998 26.0283177,4.70014481 25.4147909,4.66083808 C24.1860284,4.58436083 22.9628201,5.30341765 22.4377335,6.41554175 C22.3856094,6.52577144 22.4326065,6.65779086 22.5432635,6.70948773 C22.653066,6.76161181 22.7850853,6.71461469 22.8372095,6.6043849 C23.2798374,5.66700492 24.3509458,5.03382484 25.3865927,5.10175704 C25.6715665,5.12012869 26.1992165,5.20899607 26.5281968,5.59821817 C26.9879146,6.14253086 26.8097527,6.99873395 26.4081403,7.52809308 C25.9488498,8.13435668 25.2114213,8.51033408 24.5611514,8.84273224 C24.4616028,8.89357466 24.4158874,9.0106403 24.4547669,9.11574313 C24.4932191,9.22084596 24.6047305,9.28023322 24.7132513,9.25417118 C25.406246,9.08882654 26.2218607,9.49342953 26.571776,10.1753158 C26.905456,10.8255858 26.8447869,11.6873432 26.4171126,12.3705111 C26.0283177,12.9921556 25.34045,13.4800718 24.5299624,13.7103579 C23.8326952,13.9081733 23.0209257,13.9338081 22.1172982,13.7872625 C21.7558472,13.7287295 21.3123648,13.6227723 21.0854966,13.3194269 C20.9598859,13.1510915 20.9257061,12.9109787 20.994493,12.6764201 C21.0628525,12.4418614 21.2209339,12.2572907 21.4170403,12.183377 C21.6131467,12.1094633 21.8536868,12.1432158 22.0600471,12.2743806 C22.2668347,12.4055454 22.3997085,12.6084878 22.4163712,12.8174116 C22.4261978,12.9387498 22.5295916,13.0284717 22.6543478,13.0199267 C22.7756859,13.0101001 22.8666895,12.9037155 22.8568628,12.7819501 C22.8290918,12.4354527 22.6197408,12.1060453 22.296742,11.9013939 C21.9737432,11.6963153 21.5870847,11.6471819 21.2615224,11.7698018 C20.9359601,11.8924218 20.6779029,12.185086 20.5706639,12.5525184 C20.4634249,12.9195237 20.5236667,13.3053278 20.731736,13.5834655 C21.0530258,14.0141306 21.60332,14.1517042 22.0463752,14.2234817 C22.4539689,14.2892777 22.8453272,14.3221757 23.2183139,14.3221757 C23.7314376,14.3221757 24.2108088,14.2597977 24.650446,14.1350415 C25.5784266,13.8718573 26.3389263,13.3279719 26.7918082,12.6046426 C27.3002322,11.7920187 27.3681645,10.7593626 26.9652705,9.97322799 C26.6666249,9.39302644 26.1154761,8.97945129 25.515194,8.83290553 Z" id="Path" fill="#000000"></path>
                        <path d="M32.4105343,8.55220424 C32.3122674,8.47999952 32.1742665,8.50093459 32.1016346,8.59920147 C31.9546616,8.79829854 31.8038434,9.00252269 31.6231179,9.16060404 C31.6009011,9.01363106 31.5560401,8.88203897 31.4881078,8.76411878 C31.2902924,8.42061215 30.8198934,8.19673469 30.4357983,8.41035822 C30.2409737,8.5184517 30.1192083,8.72053963 30.1016912,8.96492495 C30.0811833,9.2447718 30.1986762,9.51820991 30.4080273,9.67757303 C30.623787,9.84206312 30.8844078,9.88777858 31.1339201,9.85872578 C30.8515097,11.0332279 29.7962095,11.9979517 28.6050447,12.1902129 L29.3420459,8.48341749 C30.2247383,7.8771539 30.9245689,7.00300648 31.289438,5.99128546 C31.3607882,5.79432448 31.4227391,5.58070107 31.3941135,5.35126932 C31.3582247,5.06074132 31.1655363,4.8202012 30.9155968,4.75355077 C30.6212236,4.67450998 30.3118967,4.8257555 30.046149,5.17908873 C29.3693897,6.07801653 29.1438032,7.21363925 28.9447062,8.21596089 L28.9442788,8.2180971 C28.4559355,8.52742397 27.9124773,8.74916521 27.3425296,8.85854046 C27.2224733,8.88118453 27.1438598,8.9969684 27.1669311,9.1170249 C27.1900025,9.23708129 27.3057865,9.31569475 27.4254156,9.29219614 C27.9167497,9.19820179 28.3897122,9.02773018 28.8293494,8.79445335 L28.1128561,12.3987095 C28.1000386,12.4657872 28.1179831,12.5350013 28.162844,12.5866982 C28.2051415,12.6354044 28.2658106,12.6627482 28.3298976,12.6627482 C28.3337428,12.6627482 28.3380153,12.6627482 28.3418605,12.6623209 C29.8966126,12.5785805 31.3287447,11.3113658 31.6017556,9.77840334 C31.606028,9.75362295 31.6103004,9.72969712 31.6137184,9.70577128 C31.6286721,9.69765356 31.6436258,9.68910873 31.6577249,9.68056368 C32.0059313,9.47292167 32.2456168,9.14778669 32.4571042,8.86153111 C32.5297361,8.76326434 32.508801,8.62483629 32.4105343,8.55220424 Z M30.3990551,5.44483645 C30.449043,5.37818591 30.6143876,5.17524353 30.7622151,5.17524353 C30.7754597,5.17524353 30.7887044,5.17695252 30.8010946,5.17994328 C30.8758628,5.20002391 30.9420862,5.29700902 30.9557581,5.40595694 C30.9728479,5.542676 30.9267052,5.69648494 30.8741538,5.84174893 C30.5947342,6.61592059 30.1004094,7.30165209 29.473638,7.82972956 C29.6479547,7.00257926 29.8825135,6.13056794 30.3990551,5.44483645 Z M30.6759112,9.3263759 C30.5866166,9.2584437 30.5327834,9.12599706 30.5421829,8.9969684 C30.5460281,8.94228077 30.5656814,8.84358679 30.6502764,8.79658955 C30.6844562,8.77779068 30.7216266,8.76924574 30.7605061,8.76924574 C30.8912437,8.76924574 31.0369349,8.86537641 31.1052945,8.98457826 C31.168527,9.0939535 31.1992888,9.23067256 31.1975798,9.39858074 C31.0189905,9.44515064 30.8216024,9.43746013 30.6759112,9.3263759 Z" id="Shape" fill="#000000"></path>
                        <path d="M13.364715,18.2314863 C13.0626515,18.1926068 12.7379437,18.300273 12.4991126,18.521587 C12.2824983,18.7215387 12.1662871,18.990277 12.1795318,19.2585882 C12.1859404,19.3799263 12.2867708,19.4752025 12.4115268,19.467512 C12.5332923,19.4615306 12.6268594,19.3577095 12.620878,19.2359441 C12.6114786,19.0488098 12.728117,18.9112364 12.7986127,18.8458676 C12.9404588,18.7147027 13.1352834,18.6471976 13.3083184,18.6698417 C13.6505434,18.7142754 13.9573067,19.0419739 14.0213937,19.4324778 C14.0803539,19.7947833 13.957734,20.2109218 13.6838686,20.5736546 C13.0951221,21.3538077 11.9552271,21.6870604 10.9738405,21.3661979 C10.0360332,21.0594345 9.27852423,20.1963955 9.04396563,19.1671574 C8.8243607,18.2054242 9.05421956,17.1005633 9.65791961,16.211035 C10.2129136,15.3937114 11.0900517,14.7263514 12.1278348,14.3320024 C12.6875285,14.1192334 13.1861258,14.0235301 13.6479799,14.0401927 C14.1871657,14.0594188 14.6746546,14.2401442 15.021152,14.5486167 C15.3932841,14.8793058 15.5936629,15.3796122 15.5317121,15.8226673 C15.4663433,16.2883667 15.0946383,16.6908333 14.6669641,16.7587656 C14.2333083,16.8275524 13.7616275,16.5088261 13.6954043,16.1033687 C13.6757509,15.9833122 13.5633849,15.9021353 13.4416195,15.9209342 C13.3211359,15.9410148 13.2395317,16.0546625 13.259185,16.1747189 C13.3659968,16.8262707 14.0564281,17.3026511 14.7361781,17.194985 C15.3582499,17.0962909 15.8769277,16.5447149 15.9692131,15.8837637 C16.0520991,15.289463 15.8017322,14.651156 15.3150979,14.2183547 C14.8916961,13.8419501 14.3055131,13.6219178 13.663788,13.5988464 C13.1391286,13.5809021 12.5866982,13.6847232 11.9706079,13.9188545 C10.8490844,14.3452471 9.89803251,15.0711398 9.29262347,15.9628044 C8.62099099,16.9514541 8.36677907,18.1861981 8.61287338,19.2654241 C8.88161175,20.4424898 9.75405028,21.431994 10.836267,21.7861817 C11.1293585,21.8818851 11.4348401,21.9280278 11.7386128,21.9280278 C12.6328409,21.9276005 13.5146788,21.530688 14.0363474,20.8398295 C14.3828448,20.3809662 14.5357993,19.8422076 14.4571858,19.3611275 C14.3614825,18.7762263 13.9021919,18.3011276 13.364715,18.2314863 Z" id="Path" fill="#000000"></path>
                        <path d="M16.8237072,17.1569599 C16.6075202,17.2765891 16.4105593,17.4214258 16.2200071,17.5615629 C15.9824578,17.7363069 15.7581531,17.9012243 15.5082135,18.0127358 C15.114719,18.1883343 14.5631431,18.1699627 14.3576372,17.833292 C14.2939774,17.7290437 14.1576856,17.696573 14.0538646,17.7598055 C13.9496162,17.8234653 13.9167182,17.9597571 13.980378,18.0635782 C14.3281572,18.6326713 15.1198459,18.6698417 15.6885118,18.416057 C15.688939,18.4156298 15.6897936,18.4156298 15.6902208,18.4152025 C15.455235,18.6617241 15.2770729,18.9368712 15.1668432,19.2286809 C14.8998137,19.9366293 15.0685763,20.7479714 15.5770003,21.2017078 C15.8564199,21.4503656 16.2259885,21.5858029 16.5972663,21.5858029 C16.7160409,21.5858029 16.8352429,21.572131 16.9514541,21.5435054 C17.4312526,21.4255852 17.8371372,21.0658432 18.0118813,20.6044163 C18.0550333,20.4903415 17.9973549,20.3625946 17.8832799,20.3194426 C17.7696322,20.2762906 17.6414581,20.333969 17.5983062,20.448044 C17.4765407,20.7706155 17.1813131,21.0320907 16.8463514,21.1141222 C16.5113897,21.1965808 16.1285763,21.1013047 15.8709463,20.8718731 C15.4958234,20.5373386 15.3761942,19.9255208 15.579991,19.3841988 C15.7602893,18.9065366 16.1738645,18.4762988 16.7442393,18.1729534 C17.2765891,17.8901158 17.8815709,17.7371614 18.4668994,17.5893339 C18.5442311,17.5696806 18.6053275,17.5094388 18.6258353,17.432107 C18.6467704,17.3547753 18.6236991,17.2723167 18.566448,17.2167745 C18.1028849,16.7668834 17.3569115,16.8625867 16.8237072,17.1569599 Z M16.9715347,17.5816435 C16.9933244,17.5688261 17.0151139,17.5560087 17.0369035,17.5440458 C17.2129293,17.4470607 17.4244166,17.3752832 17.6307769,17.3552025 C17.4090357,17.4205714 17.1877217,17.4936306 16.9715347,17.5816435 Z" id="Shape" fill="#000000"></path>
                    </g>
                </g>
            </g>
        </g>
    </g>
</svg>