<?xml version="1.0" encoding="UTF-8"?>
<svg width="24px" height="24px" viewBox="0 0 24 24" version="1.1" xmlns="http://www.w3.org/2000/svg" xmlns:xlink="http://www.w3.org/1999/xlink">
    <title>21F78872-1E27-4B7F-9569-DD5920FB71A9</title>
    <g id="Today--------------------------------------------" stroke="none" stroke-width="1" fill="none" fill-rule="evenodd">
        <g id="AFS-1334-DesktopA" transform="translate(-65.000000, -656.000000)">
            <g id="Elements/CTAs/Internal/MegaButton/Purple" transform="translate(61.000000, 653.000000)">
                <g id="Help&amp;Support/Colour" transform="translate(4.000000, 3.000000)">
                    <circle id="Oval" fill-opacity="0.06" fill="#0073C1" cx="12" cy="12" r="12"></circle>
                    <g id="help" transform="translate(5.250000, 5.250000)" fill="#1268B3" fill-rule="nonzero">
                        <path d="M13.2495517,8.57017241 C13.2497845,8.56900862 13.249319,8.56761207 13.2497845,8.56644828 C13.4115517,7.9880431 13.5,7.37937931 13.5,6.75 C13.5,6.12062069 13.4115517,5.5119569 13.2497845,4.93355172 C13.2495517,4.93238793 13.2500172,4.93099138 13.2495517,4.92982759 C13.2490862,4.92796552 13.2476897,4.92680172 13.2472241,4.92517241 C13.1864741,4.70940517 13.1154828,4.4982931 13.0344828,4.29183621 L13.0344828,4.21525862 C13.0344828,4.13123276 12.9876983,4.06117241 12.9211293,4.0202069 C12.8391983,3.83586207 12.7500517,3.65593966 12.6525259,3.48067241 C12.6932586,3.51535345 12.744,3.53839655 12.8017241,3.53839655 C12.9302069,3.53839655 13.0344828,3.43435345 13.0344828,3.30563793 L13.0344828,3.07823276 C13.0344828,2.94951724 12.9302069,2.84547414 12.8017241,2.84547414 C12.6732414,2.84547414 12.5689655,2.94951724 12.5689655,3.07823276 L12.5689655,3.30563793 C12.5689655,3.31960345 12.5745517,3.33147414 12.5768793,3.34474138 C12.5603534,3.31657759 12.5431293,3.28911207 12.5261379,3.26118103 C12.5231121,3.25606034 12.5200862,3.25093966 12.5168276,3.24605172 C12.5007672,3.21975 12.4854052,3.19298276 12.4688793,3.16691379 C12.4665517,3.16318966 12.4625948,3.16132759 12.4602672,3.15783621 C12.3087414,2.91762931 12.1434828,2.68696552 11.9637931,2.46840517 C11.9621638,2.46607759 11.9616983,2.46351724 11.960069,2.46118966 C11.91375,2.40509483 11.8667328,2.34969828 11.8187845,2.29523276 C11.8152931,2.29127586 11.8104052,2.28964655 11.806681,2.28592241 C11.6209397,2.07574138 11.4223966,1.87743103 11.2119828,1.69168966 C11.2084914,1.68819828 11.2070948,1.6835431 11.2031379,1.68028448 C11.1486724,1.63256897 11.0935086,1.58555172 11.0376466,1.53969828 C11.0360172,1.53830172 11.0339224,1.53806897 11.0320603,1.53667241 C10.8130345,1.35651724 10.5819052,1.19102586 10.3412328,1.03926724 C10.3377414,1.0367069 10.3358793,1.03298276 10.3319224,1.03042241 C10.306319,1.01436207 10.2800172,0.999 10.254181,0.983405172 C10.2492931,0.98037931 10.2444052,0.977353448 10.2392845,0.974327586 C10.2108879,0.957103448 10.1824914,0.939413793 10.1538621,0.922655172 C10.1685259,0.925215517 10.1820259,0.931034483 10.1976207,0.931034483 L10.4250259,0.931034483 C10.5535086,0.931034483 10.6577845,0.826991379 10.6577845,0.698275862 C10.6577845,0.569560345 10.5535086,0.465517241 10.4250259,0.465517241 L10.1976207,0.465517241 C10.0691379,0.465517241 9.96486207,0.569560345 9.96486207,0.698275862 C9.96486207,0.757163793 9.98860345,0.809301724 10.0244483,0.850267241 C9.84778448,0.751810345 9.666,0.6615 9.48002586,0.57887069 C9.43906034,0.512301724 9.36876724,0.465517241 9.28497414,0.465517241 L9.20839655,0.465517241 C9.0017069,0.384284483 8.79036207,0.313293103 8.57436207,0.252543103 C8.57296552,0.252310345 8.57203448,0.251146552 8.57040517,0.250681034 C8.56947414,0.250448276 8.56831034,0.250681034 8.56737931,0.250681034 C7.98874138,0.0884482759 7.37961207,0 6.75,0 C6.12038793,0 5.51125862,0.0884482759 4.93262069,0.250681034 C4.9314569,0.250913793 4.93052586,0.250681034 4.92959483,0.250681034 C4.92819828,0.250913793 4.92726724,0.252077586 4.92563793,0.252543103 C4.70963793,0.313293103 4.4982931,0.384284483 4.29160345,0.465517241 L4.21502586,0.465517241 C4.131,0.465517241 4.06093966,0.512301724 4.01997414,0.57887069 C3.83562931,0.660801724 3.6557069,0.749948276 3.48043966,0.847474138 C3.51512069,0.806741379 3.53816379,0.756 3.53816379,0.698275862 C3.53816379,0.569560345 3.43388793,0.465517241 3.30540517,0.465517241 L3.078,0.465517241 C2.94951724,0.465517241 2.84524138,0.569560345 2.84524138,0.698275862 C2.84524138,0.826991379 2.94951724,0.931034483 3.078,0.931034483 L3.30540517,0.931034483 C3.31937069,0.931034483 3.33147414,0.925448276 3.34474138,0.92312069 C3.31727586,0.939181034 3.29027586,0.956172414 3.2630431,0.972465517 C3.25652586,0.976422414 3.25024138,0.980146552 3.24372414,0.984103448 C3.21788793,0.999931034 3.19181897,1.01506034 3.16621552,1.03088793 C3.16249138,1.03321552 3.16062931,1.03693966 3.15713793,1.0395 C2.91693103,1.19149138 2.68603448,1.35675 2.46724138,1.53667241 C2.46537931,1.53806897 2.46305172,1.53853448 2.46118966,1.53993103 C2.40509483,1.58601724 2.34969828,1.63303448 2.29523276,1.68121552 C2.29127586,1.6847069 2.28987931,1.68912931 2.28662069,1.69262069 C2.0762069,1.87859483 1.87743103,2.07713793 1.69168966,2.28755172 C1.68819828,2.29127586 1.6835431,2.29267241 1.68005172,2.29639655 C1.63210345,2.35086207 1.58508621,2.40625862 1.53876724,2.46235345 C1.53713793,2.46444828 1.53690517,2.46700862 1.53527586,2.46910345 C1.35558621,2.68743103 1.19056034,2.91832759 1.03903448,3.15830172 C1.03647414,3.16202586 1.03228448,3.16412069 1.0299569,3.16807759 C1.01319828,3.19484483 0.99737069,3.22207759 0.981077586,3.24907759 C0.979215517,3.25163793 0.977586207,3.25443103 0.975956897,3.25722414 C0.958034483,3.28678448 0.93987931,3.31611207 0.922422414,3.34590517 C0.925215517,3.33147414 0.931034483,3.31797414 0.931034483,3.30237931 L0.931034483,3.07497414 C0.931034483,2.94625862 0.826758621,2.84221552 0.698275862,2.84221552 C0.569793103,2.84221552 0.465517241,2.94625862 0.465517241,3.07497414 L0.465517241,3.30237931 C0.465517241,3.43109483 0.569793103,3.53513793 0.698275862,3.53513793 C0.757163793,3.53513793 0.809301724,3.51139655 0.850267241,3.47555172 C0.751810345,3.65221552 0.6615,3.834 0.57887069,4.01997414 C0.512301724,4.06093966 0.465517241,4.13123276 0.465517241,4.21502586 L0.465517241,4.29160345 C0.384517241,4.49806034 0.313293103,4.70940517 0.252775862,4.92493966 C0.252310345,4.92680172 0.250913793,4.92796552 0.250448276,4.92959483 C0.250215517,4.93075862 0.250681034,4.93215517 0.250215517,4.93331897 C0.0884482759,5.5119569 0,6.12062069 0,6.75 C0,7.37937931 0.0884482759,7.9880431 0.250215517,8.56644828 C0.250448276,8.56761207 0.249982759,8.56900862 0.250448276,8.57017241 C0.250913793,8.57226724 0.252310345,8.57389655 0.253008621,8.57599138 C0.313525862,8.7912931 0.384517241,9.00217241 0.465517241,9.20839655 L0.465517241,9.28497414 C0.465517241,9.369 0.512301724,9.43906034 0.57887069,9.48002586 C0.660801724,9.66437069 0.749948276,9.8442931 0.847474138,10.0195603 C0.806741379,9.98487931 0.755767241,9.96183621 0.698275862,9.96183621 C0.569793103,9.96183621 0.465517241,10.0658793 0.465517241,10.1945948 L0.465517241,10.422 C0.465517241,10.5507155 0.569793103,10.6547586 0.698275862,10.6547586 C0.826758621,10.6547586 0.931034483,10.5507155 0.931034483,10.422 L0.931034483,10.1945948 C0.931034483,10.1808621 0.925448276,10.1689914 0.92312069,10.1557241 C0.940344828,10.1850517 0.958267241,10.2139138 0.975956897,10.2427759 C0.977586207,10.245569 0.979215517,10.2483621 0.981077586,10.2511552 C0.997836207,10.2786207 1.01389655,10.306319 1.03088793,10.333319 C1.03461207,10.3393707 1.03996552,10.3437931 1.04415517,10.3493793 C1.19451724,10.5870259 1.35814655,10.8155948 1.5362069,11.0320603 C1.53783621,11.0343879 1.53830172,11.0369483 1.53993103,11.0392759 C1.58625,11.0953707 1.63326724,11.1507672 1.68121552,11.2052328 C1.68447414,11.2089569 1.68912931,11.2101207 1.69262069,11.2136121 C1.87859483,11.4242586 2.07737069,11.6228017 2.28801724,11.8087759 C2.29150862,11.8122672 2.29290517,11.8169224 2.29686207,11.820181 C2.35132759,11.8678966 2.40649138,11.9149138 2.46235345,11.9607672 C2.46421552,11.9623966 2.46677586,11.9628621 2.46863793,11.9642586 C2.68743103,12.144181 2.91832759,12.3094397 3.15876724,12.4611983 C3.16225862,12.4637586 3.16412069,12.4674828 3.16807759,12.4700431 C3.19368103,12.4861034 3.21998276,12.5014655 3.24581897,12.5170603 C3.2507069,12.5200862 3.25559483,12.5231121 3.26071552,12.5261379 C3.28911207,12.5433621 3.31727586,12.5610517 3.34613793,12.5778103 C3.33147414,12.5747845 3.31797414,12.5689655 3.30237931,12.5689655 L3.07497414,12.5689655 C2.94649138,12.5689655 2.84221552,12.6730086 2.84221552,12.8017241 C2.84221552,12.9304397 2.94649138,13.0344828 3.07497414,13.0344828 L3.30237931,13.0344828 C3.43086207,13.0344828 3.53513793,12.9304397 3.53513793,12.8017241 C3.53513793,12.743069 3.51139655,12.6906983 3.47555172,12.6497328 C3.65221552,12.7481897 3.834,12.8385 4.01997414,12.9211293 C4.06093966,12.9876983 4.13123276,13.0344828 4.21502586,13.0344828 L4.29160345,13.0344828 C4.4982931,13.1157155 4.70963793,13.1867069 4.92563793,13.2474569 C4.92703448,13.2476897 4.92796552,13.2488534 4.92959483,13.249319 C4.93122414,13.2497845 4.93262069,13.2495517 4.93425,13.2497845 C5.51242241,13.4115517 6.12085345,13.5 6.75,13.5 C7.37914655,13.5 7.98757759,13.4115517 8.56575,13.2497845 C8.56737931,13.2495517 8.56877586,13.2495517 8.57040517,13.249319 C8.57180172,13.2490862 8.57273276,13.2479224 8.57436207,13.2474569 C8.79036207,13.1867069 9.0017069,13.1157155 9.20839655,13.0344828 L9.28497414,13.0344828 C9.369,13.0344828 9.43906034,12.9876983 9.48002586,12.9211293 C9.66437069,12.8391983 9.84452586,12.7500517 10.0195603,12.6525259 C9.98487931,12.6932586 9.96183621,12.744 9.96183621,12.8017241 C9.96183621,12.9304397 10.0661121,13.0344828 10.1945948,13.0344828 L10.422,13.0344828 C10.5504828,13.0344828 10.6547586,12.9304397 10.6547586,12.8017241 C10.6547586,12.6730086 10.5504828,12.5689655 10.422,12.5689655 L10.1945948,12.5689655 C10.1806293,12.5689655 10.1685259,12.5745517 10.1552586,12.5768793 C10.1827241,12.560819 10.2097241,12.5438276 10.2369569,12.5275345 C10.2434741,12.5235776 10.2497586,12.5198534 10.2562759,12.5158966 C10.2821121,12.500069 10.308181,12.4849397 10.3337845,12.4691121 C10.3375086,12.4667845 10.3393707,12.4630603 10.3428621,12.4605 C10.5828362,12.3089741 10.8137328,12.1439483 11.0320603,11.9642586 C11.0341552,11.9626293 11.0369483,11.961931 11.0390431,11.9603017 C11.0951379,11.9142155 11.1505345,11.8671983 11.205,11.8190172 C11.2087241,11.8157586 11.2101207,11.8111034 11.2136121,11.8076121 C11.4242586,11.6214052 11.6230345,11.4223966 11.8092414,11.21175 C11.8125,11.2084914 11.8169224,11.2073276 11.8199483,11.2038362 C11.8678966,11.1493707 11.9149138,11.0939741 11.9612328,11.0378793 C11.9628621,11.0357845 11.9630948,11.0332241 11.9647241,11.0311293 C12.1427845,10.8146638 12.3064138,10.5860948 12.4567759,10.3484483 C12.4609655,10.3428621 12.466319,10.3384397 12.4700431,10.3323879 C12.4868017,10.3056207 12.5026293,10.2783879 12.5189224,10.2513879 C12.5205517,10.2485948 12.5224138,10.2458017 12.5240431,10.2430086 C12.5419655,10.2134483 12.5601207,10.1841207 12.5775776,10.1543276 C12.5747845,10.1687586 12.5689655,10.1820259 12.5689655,10.1976207 L12.5689655,10.4250259 C12.5689655,10.5537414 12.6732414,10.6577845 12.8017241,10.6577845 C12.9302069,10.6577845 13.0344828,10.5537414 13.0344828,10.4250259 L13.0344828,10.1976207 C13.0344828,10.0689052 12.9302069,9.96486207 12.8017241,9.96486207 C12.7428362,9.96486207 12.6906983,9.98860345 12.6497328,10.0244483 C12.7481897,9.84778448 12.8385,9.666 12.9211293,9.48002586 C12.9876983,9.43906034 13.0344828,9.36876724 13.0344828,9.28497414 L13.0344828,9.20839655 C13.1154828,9.00240517 13.1862414,8.79152586 13.2469914,8.57599138 C13.2474569,8.57389655 13.2490862,8.5725 13.2495517,8.57017241 Z M12.1202069,10.011181 C11.5969655,10.8695948 10.8740172,11.5930086 10.0163017,12.1169483 C10.0090862,12.1213707 10.0016379,12.1257931 9.99442241,12.1302155 C9.58476724,12.3781034 9.14415517,12.5799052 8.6805,12.7298017 L8.03133621,10.1331466 C8.99798276,9.76562069 9.76585345,8.99775 10.1333793,8.03110345 L12.7300345,8.68026724 C12.5792069,9.14601724 12.3767069,9.58872414 12.1269569,10.0002414 C12.1246293,10.0037328 12.1225345,10.0074569 12.1202069,10.011181 Z M3.50348276,12.128819 C3.49766379,12.1253276 3.49184483,12.1218362 3.48602586,12.1183448 C2.62784483,11.5946379 1.90419828,10.8707586 1.38072414,10.0123448 C1.37793103,10.0079224 1.37513793,10.0032672 1.37257759,9.99884483 C1.1232931,9.5877931 0.920793103,9.14555172 0.770198276,8.68026724 L3.36685345,8.03110345 C3.73414655,8.99775 4.50225,9.76562069 5.46889655,10.1331466 L4.81973276,12.7298017 C4.35514655,12.5794397 3.91383621,12.3774052 3.50348276,12.128819 Z M1.3797931,3.48881897 C1.90303448,2.63040517 2.62598276,1.90699138 3.48369828,1.38305172 C3.49091379,1.37862931 3.49836207,1.3742069 3.50557759,1.36978448 C3.91523276,1.12189655 4.35584483,0.920094828 4.8195,0.770198276 L5.46866379,3.36685345 C4.50201724,3.73437931 3.73414655,4.50225 3.36662069,5.46889655 L0.769965517,4.81973276 C0.920793103,4.35398276 1.1232931,3.91127586 1.3730431,3.49975862 C1.37537069,3.49626724 1.37746552,3.4925431 1.3797931,3.48881897 Z M3.22952586,5.91416379 C3.16575,6.183 3.12827586,6.46184483 3.12827586,6.75 C3.12827586,7.03815517 3.16575,7.317 3.22952586,7.58583621 L0.643810345,8.2322069 C0.52812931,7.75668103 0.465517241,7.26067241 0.465517241,6.75 C0.465517241,6.23932759 0.52812931,5.74331897 0.643810345,5.2677931 L3.22952586,5.91416379 Z M3.5937931,6.75 C3.5937931,5.00966379 5.00966379,3.5937931 6.75,3.5937931 C8.49033621,3.5937931 9.9062069,5.00966379 9.9062069,6.75 C9.9062069,8.49033621 8.49033621,9.9062069 6.75,9.9062069 C5.00966379,9.9062069 3.5937931,8.49033621 3.5937931,6.75 Z M9.99651724,1.37118103 C10.0023362,1.37467241 10.0081552,1.37816379 10.0139741,1.38165517 C10.8712241,1.90489655 11.5939397,2.62737931 12.117181,3.48439655 C12.1213707,3.49137931 12.1255603,3.49812931 12.1295172,3.50487931 C12.3776379,3.91476724 12.5794397,4.35561207 12.729569,4.8195 L10.1329138,5.46866379 C9.76562069,4.50201724 8.99751724,3.73414655 8.03087069,3.36662069 L8.68003448,0.769965517 C9.14485345,0.920560345 9.58616379,1.12259483 9.99651724,1.37118103 Z M13.0344828,6.75 C13.0344828,7.26067241 12.9718707,7.75668103 12.8561897,8.2322069 L10.2704741,7.58583621 C10.33425,7.317 10.3717241,7.03815517 10.3717241,6.75 C10.3717241,6.46184483 10.33425,6.183 10.2704741,5.91416379 L12.8561897,5.2677931 C12.9718707,5.74331897 13.0344828,6.23932759 13.0344828,6.75 Z M8.2322069,0.643810345 L7.58583621,3.22975862 C7.317,3.16575 7.03815517,3.12827586 6.75,3.12827586 C6.46184483,3.12827586 6.183,3.16575 5.91416379,3.22952586 L5.2677931,0.643577586 C5.74331897,0.528362069 6.23932759,0.465517241 6.75,0.465517241 C7.26067241,0.465517241 7.75668103,0.528362069 8.2322069,0.643810345 Z M5.2677931,12.8561897 L5.91416379,10.2702414 C6.183,10.3340172 6.46184483,10.3714914 6.75,10.3714914 C7.03815517,10.3714914 7.317,10.3340172 7.58583621,10.2702414 L8.2322069,12.8561897 C7.75668103,12.9716379 7.26067241,13.0344828 6.75,13.0344828 C6.23932759,13.0344828 5.74331897,12.9716379 5.2677931,12.8561897 Z" id="Shape"></path>
                        <path d="M1.02867652,1.5 C1.11007044,1.5 1.1911856,1.46429623 1.24609862,1.39595699 C1.29041928,1.34072772 1.34059361,1.29051929 1.39494913,1.24728426 C1.51536752,1.15105144 1.53515851,0.97560089 1.43926979,0.855379604 C1.34310232,0.734600448 1.16777092,0.714796013 1.04735252,0.810749893 C0.960941179,0.879925946 0.881498491,0.958864748 0.811533176,1.04617162 C0.715086965,1.16611397 0.734041711,1.34184346 0.854181356,1.43835521 C0.90547067,1.47963769 0.967073597,1.5 1.02867652,1.5 Z" id="Path"></path>
                        <path d="M0.375,2.25 C0.582,2.25 0.75,2.13742445 0.75,1.99815312 L0.75,1.75184688 C0.75,1.61257555 0.582,1.5 0.375,1.5 C0.168,1.5 0,1.61257555 0,1.75184688 L0,1.99815312 C0,2.1371726 0.168,2.25 0.375,2.25 Z" id="Path"></path>
                        <path d="M1.75193147,0.75 L1.99806853,0.75 C2.1371347,0.75 2.25,0.582375 2.25,0.375 C2.25,0.167625 2.1371347,0 1.99806853,0 L1.75193147,0 C1.6128653,0 1.5,0.167625 1.5,0.375 C1.5,0.582375 1.6128653,0.75 1.75193147,0.75 Z" id="Path"></path>
                        <path d="M12.75,1.75184688 L12.75,1.99815312 C12.75,2.13742445 12.918,2.25 13.125,2.25 C13.332,2.25 13.5,2.13742445 13.5,1.99815312 L13.5,1.75184688 C13.5,1.61257555 13.332,1.5 13.125,1.5 C12.918,1.5 12.75,1.61257555 12.75,1.75184688 Z" id="Path"></path>
                        <path d="M12.2527742,1.39489634 C12.3079946,1.46403615 12.3891518,1.5 12.4711457,1.5 C12.5322228,1.5 12.5932999,1.48020594 12.6448947,1.43922388 C12.7653755,1.34304148 12.7851767,1.16768284 12.6892383,1.04752454 C12.6197945,0.960542202 12.5405895,0.881087177 12.4535756,0.811110998 C12.3336526,0.715207389 12.1579514,0.734165079 12.0614552,0.85404459 C11.964959,0.97420289 11.9842024,1.14984031 12.1044043,1.24602271 C12.1590669,1.29035025 12.2089884,1.34025358 12.2527742,1.39489634 Z" id="Path"></path>
                        <path d="M11.5019315,0.75 L11.7480685,0.75 C11.8871347,0.75 12,0.582375 12,0.375 C12,0.167625 11.8871347,0 11.7480685,0 L11.5019315,0 C11.3628653,0 11.25,0.167625 11.25,0.375 C11.25,0.582375 11.3628653,0.75 11.5019315,0.75 Z" id="Path"></path>
                        <path d="M12.2538071,12.1038249 C12.2095029,12.1590917 12.1593472,12.2093342 12.1050118,12.2525987 C11.9846382,12.3488969 11.9648546,12.5244667 12.0607077,12.6447698 C12.1158789,12.7139928 12.1969639,12.75 12.2788849,12.75 C12.3399076,12.75 12.4009304,12.7301821 12.4524793,12.6891507 C12.5391372,12.6199276 12.6185504,12.5409351 12.6884897,12.4535689 C12.7849001,12.3332659 12.7659524,12.1574169 12.6458573,12.0611187 C12.5257623,11.9650996 12.3502174,11.9843592 12.2538071,12.1038249 Z" id="Path"></path>
                        <path d="M11.7480685,12.75 L11.5019315,12.75 C11.3628653,12.75 11.25,12.917625 11.25,13.125 C11.25,13.332375 11.3628653,13.5 11.5019315,13.5 L11.7480685,13.5 C11.8871347,13.5 12,13.332375 12,13.125 C12,12.917625 11.8871347,12.75 11.7480685,12.75 Z" id="Path"></path>
                        <path d="M13.125,11.25 C12.918,11.25 12.75,11.3625756 12.75,11.5018469 L12.75,11.7481531 C12.75,11.8874244 12.918,12 13.125,12 C13.332,12 13.5,11.8874244 13.5,11.7481531 L13.5,11.5018469 C13.5,11.3628274 13.332,11.25 13.125,11.25 Z" id="Path"></path>
                        <path d="M1.99806853,12.75 L1.75193147,12.75 C1.6128653,12.75 1.5,12.917625 1.5,13.125 C1.5,13.332375 1.6128653,13.5 1.75193147,13.5 L1.99806853,13.5 C2.1371347,13.5 2.25,13.332375 2.25,13.125 C2.25,12.917625 2.1371347,12.75 1.99806853,12.75 Z" id="Path"></path>
                        <path d="M0.75,11.7481531 L0.75,11.5018469 C0.75,11.3625756 0.582,11.25 0.375,11.25 C0.168,11.25 0,11.3625756 0,11.5018469 L0,11.7481531 C0,11.8874244 0.168,12 0.375,12 C0.582,12 0.75,11.8874244 0.75,11.7481531 Z" id="Path"></path>
                        <path d="M1.24713173,12.1050153 C1.15087862,11.9843245 0.975391066,11.9650921 0.855144427,12.060697 C0.734618794,12.1568593 0.714810183,12.3321815 0.810784298,12.4523147 C0.880253934,12.539279 0.959488378,12.6187175 1.04653467,12.6886791 C1.09814866,12.7296526 1.15980644,12.75 1.22090624,12.75 C1.30237264,12.75 1.38356005,12.7143224 1.43852197,12.6457544 C1.53505408,12.5256211 1.51580345,12.3500203 1.39555681,12.2538579 C1.34087389,12.2095396 1.29093387,12.1596466 1.24713173,12.1050153 Z" id="Path"></path>
                    </g>
                </g>
            </g>
        </g>
    </g>
</svg>