<?xml version="1.0" encoding="UTF-8"?>
<svg width="60px" height="61px" viewBox="0 0 60 61" version="1.1" xmlns="http://www.w3.org/2000/svg" xmlns:xlink="http://www.w3.org/1999/xlink">
    <title>EC22F5AB-24D4-4659-AEAF-10B1611D715F</title>
    <defs>
        <linearGradient x1="8.75800756%" y1="44.4949939%" x2="78.2934029%" y2="54.1275235%" id="linearGradient-1">
            <stop stop-color="#9B7AEC" offset="8.1993%"></stop>
            <stop stop-color="#4E4FCE" offset="15.69%"></stop>
            <stop stop-color="#9B7AEC" offset="22.27%"></stop>
            <stop stop-color="#6A7AF5" offset="100%"></stop>
        </linearGradient>
        <linearGradient x1="-9.0417853%" y1="47.3995873%" x2="91.7654383%" y2="52.7635161%" id="linearGradient-2">
            <stop stop-color="#8B69E0" offset="9.816428%"></stop>
            <stop stop-color="#4243BD" offset="15.69%"></stop>
            <stop stop-color="#8361D4" offset="21.96%"></stop>
            <stop stop-color="#5060D7" offset="100%"></stop>
        </linearGradient>
        <linearGradient x1="82.5265098%" y1="42.9219045%" x2="-1.65481198%" y2="52.1052532%" id="linearGradient-3">
            <stop stop-color="#64B6FF" offset="1.176471%"></stop>
            <stop stop-color="#64E9FF" offset="72.16%"></stop>
            <stop stop-color="#3C90DB" offset="80.78%"></stop>
            <stop stop-color="#64FFFA" offset="88.63%"></stop>
        </linearGradient>
        <linearGradient x1="55.1340173%" y1="98.9618256%" x2="49.4582%" y2="43.5836403%" id="linearGradient-4">
            <stop stop-color="#FF9393" offset="0%"></stop>
            <stop stop-color="#FFC783" offset="100%"></stop>
        </linearGradient>
        <linearGradient x1="89.3277141%" y1="49.0669681%" x2="-10.6331151%" y2="50.3739808%" id="linearGradient-5">
            <stop stop-color="#649CFF" offset="1.176471%"></stop>
            <stop stop-color="#64ADFF" offset="72.16%"></stop>
            <stop stop-color="#466AD4" offset="80.78%"></stop>
            <stop stop-color="#64C7FF" offset="88.63%"></stop>
        </linearGradient>
    </defs>
    <g id="Today--------------------------------------------" stroke="none" stroke-width="1" fill="none" fill-rule="evenodd">
        <g id="AFS-1334" transform="translate(-784.000000, -339.000000)" fill-rule="nonzero">
            <g id="Menu1" transform="translate(756.000000, 325.572917)">
                <g id="Revise" transform="translate(28.000000, 14.000000)">
                    <g id="Syllabus_A" transform="translate(3.000000, 0.000000)">
                        <g id="Group">
                            <g transform="translate(5.857988, 0.701183)" fill="#6A7AF5" id="Layer0_0_MEMBER_2_MEMBER_0_FILL_1_">
                                <polygon id="Path" points="32.4852071 5.68047337 31.4201183 3.81656805 1.65088757 0.0710059172 0.106508876 2.04142012 0.74556213 5.3964497 3.07100592 2.75147929 27.5857988 5.85798817 26.7159763 12.6923077 31.4911243 13.295858"></polygon>
                            </g>
                            <g transform="translate(6.745562, 2.121302)" fill="#FDFBE8" id="Layer0_0_MEMBER_2_MEMBER_1_FILL_1_">
                                <path d="M30.0177515,7.81065089 C29.7869822,6.35502959 29.7869822,4.91715976 30.0532544,3.6035503 L2.75147929,0.159763314 C1.81065089,1.38777878e-17 1.10059172,0.195266272 0.585798817,0.727810651 C0.0710059172,1.26035503 -0.0710059172,2.20118343 0.213017751,3.47928994 L1.10059172,4.17159763 L30.0177515,7.81065089 Z" id="Path"></path>
                            </g>
                            <g transform="translate(4.615385, 0.168639)" fill="#9CACFF" id="Layer0_0_MEMBER_2_MEMBER_2_FILL_1_">
                                <path d="M33.7633136,5.85798817 C33.7988166,5.60946746 33.7988166,5.3964497 33.7633136,5.20118343 C33.6745562,4.40236686 33.1775148,3.95857988 32.3254438,3.76331361 L3.92307692,0.195266272 C2.98224852,0.0887573964 2.16568047,0.319526627 1.43786982,0.887573964 C0.710059172,1.4556213 0.266272189,2.21893491 0.159763314,3.14201183 L0.159763314,3.14201183 C0.0532544379,4.08284024 0.284023669,4.89940828 0.852071006,5.62721893 C1.42011834,6.35502959 2.18343195,6.79881657 3.10650888,6.90532544 L32.147929,10.5798817 C33.3372781,10.7751479 33.8698225,11.4319527 33.7455621,12.6213018 L33.9053254,11.4497041 C33.9408284,11.2011834 33.9408284,10.9881657 33.9053254,10.7928994 C33.852071,10.3136095 33.6568047,9.95857988 33.2840237,9.71005917 C33.0710059,9.55029586 32.8047337,9.4260355 32.4674556,9.37278107 L3.76331361,5.73372781 C3.15976331,5.66272189 2.69822485,5.3964497 2.34319527,4.89940828 C1.98816568,4.40236686 1.84615385,3.90532544 1.89940828,3.30177515 L1.89940828,3.30177515 C1.9704142,2.69822485 2.23668639,2.23668639 2.71597633,1.8816568 C3.17751479,1.52662722 3.72781065,1.38461538 4.31360947,1.43786982 L32.0591716,4.93491124 C33.2485207,5.13017751 33.7810651,5.78698225 33.6568047,6.97633136 L33.7633136,5.85798817 Z" id="Path"></path>
                            </g>
                            <g transform="translate(0.000000, 3.718935)" fill="url(#linearGradient-1)" id="Layer0_0_MEMBER_2_MEMBER_3_FILL_1_">
                                <path d="M38.3609467,9.14201183 C38.5029586,7.8816568 37.9526627,7.17159763 36.7100592,7.0295858 L7.59763314,3.35502959 C5.92899408,2.85798817 4.95266272,1.73964497 4.73964497,0 L0.177514793,36.1597633 C-0.0355029586,37.9881657 0.852071006,39.1775148 2.84023669,39.6745562 L32.2899408,43.3846154 C33.5680473,43.5443787 34.2071006,43.0473373 34.2781065,41.8402367 L38.3609467,9.14201183 Z" id="Path"></path>
                            </g>
                            <g transform="translate(0.532544, 31.588757)" fill="url(#linearGradient-2)" id="Layer0_0_MEMBER_2_MEMBER_8_FILL_1_">
                                <path d="M3.33727811,3.47928994 C1.36686391,2.98224852 0.49704142,1.84615385 0.674556213,0.0177514793 L0.177514793,4.04733728 C-0.0177514793,5.85798817 0.869822485,6.99408284 2.84023669,7.50887574 L5.0591716,7.79289941 C5.36094675,7.57988166 5.68047337,7.63313609 6.01775148,7.89940828 L34.0295858,11.4319527 L34.5443787,7.40236686 L6.49704142,3.86982249 C6.17751479,3.58579882 5.85798817,3.55029586 5.53846154,3.76331361 L3.33727811,3.47928994 Z" id="Path"></path>
                            </g>
                            <g transform="translate(5.147929, 7.269231)" fill="#000000" fill-opacity="0.05882353" id="Layer0_0_MEMBER_2_MEMBER_9_FILL_1_">
                                <g>
                                    <polygon id="Path" points="5.07692308 0.106508876 4.63313609 0.0532544379 0.0532544379 36.4260355 0.49704142 36.4792899"></polygon>
                                </g>
                            </g>
                        </g>
                        <g id="Group" transform="translate(10.295858, 12.958580)">
                            <g transform="translate(0.000000, 5.316568)" fill="#352A72" fill-opacity="0.4471" id="Layer0_0_MEMBER_1_FILL">
                                <g>
                                    <polygon id="Path" points="0 25.7573964 14.556213 28.0650888 19.5088757 0.0177514793 4.98816568 1.56213018"></polygon>
                                </g>
                            </g>
                            <g transform="translate(4.970414, 0.000000)">
                                <g transform="translate(1.065089, 1.056213)" fill="#64B6FF" id="Layer0_0_MEMBER_2_MEMBER_0_FILL">
                                    <polygon id="Path" points="32.3786982 1.70414201 30.9053254 0.142011834 1.08284024 3.30177515 0.0355029586 5.5739645 1.42011834 8.69822485 3.07100592 5.59171598 27.6568047 2.98224852 28.3846154 9.83431953 33.1775148 9.31952663"></polygon>
                                </g>
                                <g transform="translate(2.130178, 2.476331)" fill="#FDFBE8" id="Layer0_0_MEMBER_2_MEMBER_1_FILL">
                                    <path d="M30.6035503,4.1183432 C30.035503,2.75147929 29.7159763,1.36686391 29.6804734,0 L2.30769231,2.89349112 C1.36686391,2.94674556 0.710059172,3.30177515 0.337278107,3.9408284 C-0.0355029586,4.57988166 0.0355029586,5.52071006 0.603550296,6.71005917 L1.61538462,7.17159763 L30.6035503,4.1183432 Z" id="Path"></path>
                                </g>
                                <g transform="translate(0.000000, 0.701183)" fill="#B8E6F5" id="Layer0_0_MEMBER_2_MEMBER_2_FILL">
                                    <path d="M33.408284,1.70414201 C33.3905325,1.4556213 33.3372781,1.24260355 33.2662722,1.06508876 C33,0.319526627 32.4142012,-0.0177514793 31.5443787,-3.25260652e-19 L3.05325444,3.01775148 C2.11242604,3.12426036 1.36686391,3.53254438 0.781065089,4.26035503 C0.195266272,4.98816568 -0.0532544379,5.82248521 0.0532544379,6.74556213 L0.0532544379,6.74556213 C0.159763314,7.68639053 0.568047337,8.43195266 1.29585799,9.01775148 C2.02366864,9.6035503 2.85798817,9.85207101 3.78106509,9.74556213 L32.8934911,6.67455621 C34.0828402,6.58579882 34.7573964,7.1183432 34.9171598,8.28994083 L34.7928994,7.1183432 C34.7751479,6.86982249 34.7218935,6.65680473 34.6508876,6.47928994 C34.4911243,6.03550296 34.2071006,5.71597633 33.7988166,5.55621302 C33.5502959,5.44970414 33.2662722,5.3964497 32.9289941,5.41420118 L4.15384615,8.44970414 C3.55029586,8.52071006 3.03550296,8.36094675 2.5739645,7.9704142 C2.11242604,7.57988166 1.86390533,7.1183432 1.79289941,6.5147929 L1.79289941,6.5147929 C1.72189349,5.9112426 1.8816568,5.3964497 2.25443787,4.93491124 C2.62721893,4.47337278 3.12426036,4.22485207 3.71005917,4.15384615 L31.5088757,1.20710059 C32.6982249,1.1183432 33.3727811,1.65088757 33.5325444,2.82248521 L33.408284,1.70414201 Z" id="Path"></path>
                                </g>
                                <g transform="translate(0.000000, 7.269231)" fill="url(#linearGradient-3)" id="Layer0_0_MEMBER_2_MEMBER_3_FILL">
                                    <path d="M34.9349112,1.81065089 C34.7928994,0.550295858 34.1005917,-0.0177514793 32.8402367,0.124260355 L3.65680473,3.21301775 C1.91715976,3.10650888 0.727810651,2.25443787 0.106508876,0.603550296 L3.9408284,36.852071 C4.15384615,38.6804734 5.27218935,39.6390533 7.33136095,39.6568047 L36.8343195,36.5325444 C38.112426,36.408284 38.6272189,35.7514793 38.4142012,34.5798817 L34.9349112,1.81065089 Z" id="Path"></path>
                                </g>
                                <g transform="translate(0.000000, 0.701183)" fill="#ECFAFF" id="Layer0_0_MEMBER_2_MEMBER_5_FILL">
                                    <path d="M34.8816568,7.82840237 C34.8461538,7.77514793 34.8106509,7.72189349 34.7751479,7.70414201 C34.8461538,7.8816568 34.8994083,8.07692308 34.9349112,8.30769231 L34.8816568,7.82840237 M31.7928994,0.443786982 C32.4497041,0.426035503 32.9289941,0.603550296 33.2485207,1.0295858 C32.9822485,0.301775148 32.3964497,-0.0177514793 31.5266272,-4.14924171e-16 L3.05325444,3.01775148 C2.11242604,3.12426036 1.36686391,3.53254438 0.781065089,4.26035503 C0.195266272,4.98816568 -0.0532544379,5.82248521 0.0532544379,6.74556213 L0.0532544379,6.74556213 C0.106508876,7.33136095 0.284023669,7.82840237 0.585798817,8.27218935 C0.443786982,7.95266272 0.337278107,7.57988166 0.301775148,7.18934911 L0.301775148,7.18934911 C0.195266272,6.24852071 0.461538462,5.43195266 1.0295858,4.70414201 C1.61538462,3.97633136 2.3964497,3.56804734 3.30177515,3.46153846 L31.7928994,0.443786982 Z" id="Shape"></path>
                                </g>
                                <g transform="translate(4.970414, 0.177515)" fill="url(#linearGradient-4)" id="Layer0_0_MEMBER_2_MEMBER_6_FILL">
                                    <polygon id="Path" points="6.56804734 0.142011834 3.47928994 1.93491124 0.0710059172 0.834319527 0.781065089 7.56213018 7.26035503 6.86982249"></polygon>
                                </g>
                                <g transform="translate(9.940828, 12.772189)" fill="#64FAFF" fill-opacity="0.5569" id="Layer0_0_MEMBER_2_MEMBER_7_FILL">
                                    <g>
                                        <path d="M20.2189349,16.1893491 C22.1538462,15.9763314 23.0059172,14.9112426 22.8106509,12.9940828 L21.7278107,2.73372781 C21.5147929,0.798816568 20.4497041,-0.0532544379 18.5325444,0.142011834 L2.73372781,1.81065089 C0.798816568,2.02366864 -0.0532544379,3.0887574 0.142011834,5.00591716 L1.22485207,15.2840237 C1.43786982,17.2189349 2.50295858,18.0710059 4.42011834,17.8757396 L20.2189349,16.1893491 L20.2189349,16.1893491 Z" id="Path"></path>
                                    </g>
                                </g>
                                <g transform="translate(3.017751, 35.139053)" fill="url(#linearGradient-5)" id="Layer0_0_MEMBER_2_MEMBER_8_FILL">
                                    <path d="M3.4260355,3.44378698 C1.40236686,3.40828402 0.284023669,2.50295858 0.0532544379,0.692307692 L0.479289941,4.72189349 C0.710059172,6.5147929 1.82840237,7.43786982 3.85207101,7.47337278 L6.07100592,7.24260355 C6.31952663,6.95857988 6.63905325,6.9408284 7.0295858,7.13609467 L35.112426,4.17159763 L34.6863905,0.142011834 L6.58579882,3.10650888 C6.21301775,2.89349112 5.89349112,2.92899408 5.62721893,3.21301775 L3.4260355,3.44378698 Z" id="Path"></path>
                                </g>
                                <g transform="translate(5.857988, 10.109467)" fill="#000000" fill-opacity="0.05882353" id="Layer0_0_MEMBER_2_MEMBER_9_FILL">
                                    <g>
                                        <polygon id="Path" points="0.443786982 0.0710059172 0 0.124260355 3.85207101 36.5680473 4.29585799 36.5147929"></polygon>
                                    </g>
                                </g>
                                <g transform="translate(5.680473, 6.914201)" fill="#10213F" fill-opacity="0.1176" id="Layer0_0_MEMBER_2_MEMBER_10_FILL">
                                    <g>
                                        <polygon id="Path" points="8.02366864 1.22485207 7.5443787 1.27810651 6.55029586 0.106508876 0.106508876 0.781065089 0.976331361 1.9704142 1.49112426 1.91715976 2.37869822 3.12426036 9.03550296 2.41420118"></polygon>
                                    </g>
                                </g>
                                <g transform="translate(4.970414, 0.168639)" fill="#FFFDF7" id="Layer0_0_MEMBER_2_MEMBER_11_FILL">
                                    <polygon id="Path" points="6.6035503 0.49704142 6.56804734 0.142011834 3.47928994 1.93491124 0.0710059172 0.834319527 0.106508876 1.18934911 3.5147929 2.28994083"></polygon>
                                </g>
                            </g>
                        </g>
                    </g>
                </g>
            </g>
        </g>
    </g>
</svg>