<?xml version="1.0" encoding="UTF-8"?>
<svg width="60px" height="61px" viewBox="0 0 60 61" version="1.1" xmlns="http://www.w3.org/2000/svg" xmlns:xlink="http://www.w3.org/1999/xlink">
    <title>4454CDC1-9F38-4A82-BB74-1858C418A892</title>
    <defs>
        <linearGradient x1="46.4722512%" y1="1.60473631%" x2="53.3429477%" y2="95.8520667%" id="linearGradient-1">
            <stop stop-color="#FFA42C" offset="0.5913454%"></stop>
            <stop stop-color="#DB2A2A" offset="86.95%"></stop>
        </linearGradient>
        <linearGradient x1="45.2864722%" y1="1.41832266%" x2="55.6005905%" y2="107.466449%" id="linearGradient-2">
            <stop stop-color="#FFE471" offset="2.742573%"></stop>
            <stop stop-color="#F4A147" offset="6.219666%"></stop>
            <stop stop-color="#FF833E" offset="45.25%"></stop>
            <stop stop-color="#F46D5B" offset="85.88%"></stop>
            <stop stop-color="#C1362B" offset="91.25%"></stop>
        </linearGradient>
        <linearGradient x1="55.1893894%" y1="67.373813%" x2="40.7705806%" y2="18.4465523%" id="linearGradient-3">
            <stop stop-color="#372974" offset="32.68%"></stop>
            <stop stop-color="#3E2E7A" offset="34.76%"></stop>
            <stop stop-color="#57408E" offset="43.16%"></stop>
            <stop stop-color="#674A9B" offset="50.81%"></stop>
            <stop stop-color="#6C4E9F" offset="56.98%"></stop>
        </linearGradient>
        <linearGradient x1="55.1406477%" y1="67.378613%" x2="40.7214418%" y2="18.4486999%" id="linearGradient-4">
            <stop stop-color="#372974" offset="32.68%"></stop>
            <stop stop-color="#3E2E7A" offset="34.76%"></stop>
            <stop stop-color="#57408E" offset="43.16%"></stop>
            <stop stop-color="#674A9B" offset="50.81%"></stop>
            <stop stop-color="#6C4E9F" offset="56.98%"></stop>
        </linearGradient>
        <linearGradient x1="55.0990673%" y1="67.3776786%" x2="40.6795218%" y2="18.4454186%" id="linearGradient-5">
            <stop stop-color="#372974" offset="32.68%"></stop>
            <stop stop-color="#3E2E7A" offset="34.76%"></stop>
            <stop stop-color="#57408E" offset="43.16%"></stop>
            <stop stop-color="#674A9B" offset="50.81%"></stop>
            <stop stop-color="#6C4E9F" offset="56.98%"></stop>
        </linearGradient>
        <linearGradient x1="55.1531363%" y1="67.4081531%" x2="40.7341561%" y2="18.4782757%" id="linearGradient-6">
            <stop stop-color="#372974" offset="32.68%"></stop>
            <stop stop-color="#3E2E7A" offset="34.76%"></stop>
            <stop stop-color="#57408E" offset="43.16%"></stop>
            <stop stop-color="#674A9B" offset="50.81%"></stop>
            <stop stop-color="#6C4E9F" offset="56.98%"></stop>
        </linearGradient>
    </defs>
    <g id="Today--------------------------------------------" stroke="none" stroke-width="1" fill="none" fill-rule="evenodd">
        <g id="AFS-1334" transform="translate(-784.000000, -606.000000)" fill-rule="nonzero">
            <g id="Menu1" transform="translate(756.000000, 592.760417)">
                <g id="Revise" transform="translate(28.000000, 14.000000)">
                    <g id="diary_A" transform="translate(7.000000, 4.000000)">
                        <g id="Layer_4_2_" transform="translate(39.568357, 6.075456)" fill="#DB3F3B">
                            <path d="M3.13119678,12.8051928 L3.13119678,12.8051928 C2.04073024,12.9142395 1.07488845,12.1353348 0.965841794,11.0448683 L0.0778904672,2.27440164 C-0.0311561869,1.1839351 0.747748486,0.218093308 1.83821503,0.109046654 L1.83821503,0.109046654 C2.92868157,-4.46864767e-15 3.89452336,0.778904672 4.00357002,1.86937121 L4.89152134,10.6398378 C5.03172418,11.7303044 4.23724142,12.6961462 3.13119678,12.8051928 Z" id="Path"></path>
                        </g>
                        <g id="Group" transform="translate(2.336714, 0.000000)">
                            <path d="M39.9266535,49.5539153 L7.96040575,52.8097368 C6.24681547,52.9810958 4.73574041,51.7348483 4.56438138,50.0524142 L0.155780934,6.68300209 C-0.0311561869,4.96941181 1.21509129,3.45833675 2.91310347,3.28697772 L34.8637731,0.0467342803 C36.5773634,-0.124624748 38.0884385,1.12162273 38.2597975,2.80405682 L42.683976,46.1578909 C42.8553351,47.8714812 41.6246657,49.3981343 39.9266535,49.5539153 Z" id="Path" fill="url(#linearGradient-1)"></path>
                            <path d="M38.5713594,48.1363088 L8.98855992,51.1428808 C7.27496964,51.3142398 5.76389458,50.0679923 5.59253555,48.3855583 L1.49549697,8.13176478 C1.32413794,6.43375259 2.55480733,4.92267753 4.25281951,4.7513185 L33.835619,1.74474647 C35.5492092,1.57338744 37.0602843,2.81963491 37.2316433,4.50206901 L41.3286819,44.7558625 C41.5000409,46.4382966 40.2537935,47.9493716 38.5713594,48.1363088 Z" id="Path" fill="url(#linearGradient-2)"></path>
                            <path d="M42.683976,46.2980937 L39.7552945,17.3851523 C28.9129414,29.7385804 10.9669778,30.9692498 2.60154161,30.8134688 L4.56438138,50.1614609 C4.73574041,51.8750512 6.26239357,53.1057206 7.96040575,52.9187834 L39.9110754,49.67854 C41.6090876,49.507181 42.8553351,47.9805278 42.683976,46.2980937 Z" id="Path" fill="#FFFFFF" opacity="0.13"></path>
                        </g>
                        <g id="Layer_3_2_" transform="translate(0.000000, 12.462475)">
                            <g id="Group" opacity="0.5" transform="translate(3.115619, 0.778905)" fill="#964B30">
                                <path d="M4.29955379,3.98799192 C5.39002033,3.87894527 6.16892501,2.89752538 6.05987835,1.82263693 L6.05987835,1.82263693 C5.9508317,0.732170392 4.96941181,-0.0467342803 3.89452336,0.0623123738 L0.124624748,0.436186617 L0.514077084,4.37744426 L4.29955379,3.98799192 L4.29955379,3.98799192 Z" id="Path"></path>
                                <path d="M5.21866131,13.0855985 C6.30912785,12.9765518 7.08803252,11.995132 6.97898586,10.9202435 C6.86993921,9.82977697 5.88851932,9.05087229 4.81363088,9.15991895 L1.04373226,9.53379319 L1.4331846,13.4750508 L5.21866131,13.0855985 L5.21866131,13.0855985 Z" id="Path"></path>
                                <path d="M6.15334691,22.1832051 C7.24381345,22.0741584 8.02271813,21.0927385 7.91367147,20.0178501 L7.91367147,20.0178501 C7.80462482,18.9273835 6.82320493,18.1484789 5.74831648,18.2575255 L1.97841787,18.6313998 L2.3678702,22.5726574 L6.15334691,22.1832051 Z" id="Path"></path>
                                <path d="M7.02572015,30.8134688 C8.11618669,30.7044222 8.89509136,29.7230023 8.7860447,28.6481139 C8.67699805,27.5576473 7.69557816,26.7787426 6.62068972,26.8877893 L2.8507911,27.2616635 L3.24024344,31.2029212 L7.02572015,30.8134688 L7.02572015,30.8134688 Z" id="Path"></path>
                            </g>
                            <path d="M6.86993921,4.0347262 L2.32113592,4.50206901 C1.23066938,4.61111566 0.264827589,3.83221099 0.155780934,2.74174445 L0.155780934,2.74174445 C0.0467342803,1.65127791 0.825638953,0.685436112 1.91610549,0.576389458 L6.46490878,0.109046654 C7.55537532,0 8.52121712,0.778904672 8.63026377,1.86937121 L8.63026377,1.86937121 C8.75488852,2.95983776 7.96040575,3.92567955 6.86993921,4.0347262 Z" id="Path" fill="#372974"></path>
                            <path d="M6.62068972,3.72316433 L2.49249495,4.14377286 C1.62012172,4.22166332 0.841217046,3.59853959 0.763326579,2.72616635 L0.763326579,2.72616635 C0.685436112,1.85379312 1.30855985,1.07488845 2.18093308,0.996997981 L6.30912785,0.576389458 C7.18150108,0.49849899 7.96040575,1.12162273 8.03829622,1.99399596 L8.03829622,1.99399596 C8.13176478,2.8507911 7.50864104,3.62969577 6.62068972,3.72316433 Z" id="Path" fill="url(#linearGradient-3)"></path>
                            <path d="M7.80462482,13.1323328 L3.25582153,13.5996756 C2.16535499,13.7087222 1.1995132,12.9298176 1.09046654,11.839351 L1.09046654,11.839351 C0.981419887,10.7488845 1.76032456,9.78304269 2.8507911,9.67399603 L7.39959439,9.20665323 C8.49006093,9.09760657 9.45590272,9.87651125 9.56494938,10.9669778 L9.56494938,10.9669778 C9.68957412,12.0574443 8.89509136,13.0232861 7.80462482,13.1323328 Z" id="Path" fill="#372974"></path>
                            <path d="M7.53979723,12.7117243 L3.41160247,13.1323328 C2.53922923,13.2102232 1.76032456,12.5870995 1.68243409,11.7147263 L1.68243409,11.7147263 C1.60454363,10.842353 2.22766736,10.0634484 3.1000406,9.9855579 L7.22823536,9.56494938 C8.10060859,9.48705891 8.87951327,10.1101826 8.95740373,10.9825559 L8.95740373,10.9825559 C9.05087229,11.8549291 8.41217046,12.6182557 7.53979723,12.7117243 Z" id="Path" fill="url(#linearGradient-4)"></path>
                            <path d="M8.70815424,22.2299394 L4.15935095,22.6972822 C3.06888441,22.8063288 2.10304262,22.0274241 1.99399596,20.9369576 L1.99399596,20.9369576 C1.88494931,19.8464911 2.66385398,18.8806493 3.75432052,18.7716026 L8.30312381,18.3042598 C9.39359035,18.1952131 10.3594321,18.9741178 10.4684788,20.0645844 L10.4684788,20.0645844 C10.6086816,21.1550509 9.81419887,22.1208927 8.70815424,22.2299394 Z" id="Path" fill="#372974"></path>
                            <path d="M8.47448284,21.8560651 L4.34628807,22.2766736 C3.47391484,22.3545641 2.69501017,21.7314404 2.6171197,20.8590671 L2.6171197,20.8590671 C2.53922923,19.9866939 3.16235297,19.2077892 4.0347262,19.1298988 L8.16292097,18.7092902 C9.0352942,18.6313998 9.81419887,19.2545235 9.89208934,20.1268967 L9.89208934,20.1268967 C9.9855579,20.99927 9.33127798,21.7625965 8.47448284,21.8560651 Z" id="Path" fill="url(#linearGradient-5)"></path>
                            <path d="M9.58052747,30.8602031 L5.03172418,31.3275459 C3.94125764,31.4365926 2.97541585,30.6576879 2.86636919,29.5672214 L2.86636919,29.5672214 C2.75732254,28.4767548 3.53622721,27.510913 4.62669375,27.4018664 L9.17549704,26.9345236 C10.2659636,26.8254769 11.2318054,27.6043816 11.340852,28.6948481 L11.340852,28.6948481 C11.4498987,29.8008928 10.6554159,30.7667346 9.58052747,30.8602031 Z" id="Path" fill="#372974"></path>
                            <path d="M9.31569988,30.4863289 L5.20308321,30.9069374 C4.33070998,30.9848279 3.55180531,30.3617041 3.47391484,29.4893309 L3.47391484,29.4893309 C3.39602437,28.6169577 4.01914811,27.838053 4.89152134,27.7601625 L9.01971611,27.339554 C9.89208934,27.2616635 10.670994,27.8847873 10.7488845,28.7571605 L10.7488845,28.7571605 C10.842353,29.6295337 10.2036512,30.3928603 9.31569988,30.4863289 Z" id="Path" fill="url(#linearGradient-6)"></path>
                        </g>
                        <g id="Layer_5_2_" transform="translate(12.774037, 7.321704)">
                            <path d="M21.6068156,10.5152131 L3.59853959,12.3534281 C2.07188643,12.509209 0.701014205,11.3875863 0.560811364,9.87651125 L0.0467342803,4.90709944 C-0.109046654,3.38044628 1.01257607,2.00957405 2.52365114,1.86937121 L20.5163491,0.0311561869 C22.0430022,-0.124624748 23.4138745,0.996997981 23.5540773,2.50807305 L24.0681544,7.47748486 C24.2395134,9.00413801 23.1334688,10.3594321 21.6068156,10.5152131 Z" id="Path" fill="#FFD95F"></path>
                            <path d="M24.847059,31.9039354 L4.81363088,33.9290875 C4.43975663,33.9758218 4.09703858,33.6954161 4.06588239,33.3215419 L4.06588239,33.3215419 C4.01914811,32.9476676 4.29955379,32.6049496 4.67342803,32.5737934 L24.7068562,30.5486413 C25.0807305,30.501907 25.4234485,30.7823127 25.4546047,31.1561869 L25.4546047,31.1561869 C25.501339,31.5300611 25.2209333,31.8727792 24.847059,31.9039354 Z" id="Path" fill="#D34E33"></path>
                            <path d="M25.174199,35.1130226 L5.14077084,37.1381748 C4.7668966,37.1849091 4.42417854,36.9045034 4.39302235,36.5306291 L4.39302235,36.5306291 C4.34628807,36.1567549 4.62669375,35.8140368 5.000568,35.7828807 L25.0339962,33.7577285 C25.4078704,33.7109942 25.7505885,33.9913999 25.7817447,34.3652741 L25.7817447,34.3652741 C25.8284789,34.7391484 25.5636513,35.0818664 25.174199,35.1130226 Z" id="Path" fill="#D34E33"></path>
                        </g>
                    </g>
                </g>
            </g>
        </g>
    </g>
</svg>