<?xml version="1.0" encoding="UTF-8"?>
<svg width="24px" height="24px" viewBox="0 0 24 24" version="1.1" xmlns="http://www.w3.org/2000/svg" xmlns:xlink="http://www.w3.org/1999/xlink">
    <title>044DA9E3-C079-4969-94E4-55B8F8267058</title>
    <g id="Today--------------------------------------------" stroke="none" stroke-width="1" fill="none" fill-rule="evenodd">
        <g id="AFS-1334-DesktopA" transform="translate(-62.000000, -300.000000)" fill-rule="nonzero" stroke="#1268B3" stroke-width="0.6">
            <g id="Elements/CTAs/Internal/MegaButton/Purple" transform="translate(62.000000, 292.000000)">
                <g id="Elements/Graphics/Style3/Help&amp;Support/Colour" transform="translate(0.000000, 8.000000)">
                    <g id="Shape" transform="translate(4.500000, 4.500000)">
                        <path d="M14.2277778,5.83333333 L12.8244444,5.83333333 C12.5988889,5.83333333 12.4130556,5.70916667 12.3266667,5.50083333 C12.2402778,5.2925 12.2841667,5.07305556 12.4433333,4.91361111 L13.4355556,3.92166667 C13.5813889,3.77583333 13.6616667,3.58166667 13.6616667,3.37555556 C13.6616667,3.16916667 13.5813889,2.97527778 13.4355556,2.82916667 L12.1708333,1.56444444 C11.8791667,1.27277778 11.3705556,1.27222222 11.0783333,1.56444444 L10.0863889,2.55638889 C9.95444444,2.68833333 9.80944444,2.71583333 9.71083333,2.71583333 C9.57194444,2.71583333 9.43388889,2.66138889 9.33194444,2.56611111 C9.25666667,2.49555556 9.16666667,2.37055556 9.16666667,2.17555556 L9.16666667,0.772222222 C9.16666667,0.346388889 8.82027778,0 8.39444444,0 L6.60555556,0 C6.17972222,0 5.83333333,0.346388889 5.83333333,0.772222222 L5.83333333,2.17555556 C5.83333333,2.51388889 5.55638889,2.71583333 5.28861111,2.71583333 C5.19027778,2.71583333 5.04527778,2.68805556 4.91333333,2.55638889 L3.92138889,1.56444444 C3.62916667,1.27222222 3.12055556,1.27277778 2.82888889,1.56444444 L1.56416667,2.82916667 C1.41833333,2.975 1.33805556,3.16916667 1.33805556,3.37555556 C1.33805556,3.58166667 1.41833333,3.77555556 1.56416667,3.92166667 L2.55638889,4.91361111 C2.71555556,5.07305556 2.75916667,5.2925 2.67305556,5.50083333 C2.58694444,5.70916667 2.40111111,5.83333333 2.17555556,5.83333333 L0.772222222,5.83333333 C0.346388889,5.83333333 0,6.17972222 0,6.60555556 L0,8.39388889 C0,8.82 0.346388889,9.16666667 0.772222222,9.16666667 L2.17555556,9.16666667 C2.40111111,9.16666667 2.58694444,9.29083333 2.67333333,9.49916667 C2.75972222,9.7075 2.71583333,9.92694444 2.55666667,10.0863889 L1.56444444,11.0783333 C1.41861111,11.2241667 1.33833333,11.4183333 1.33833333,11.6244444 C1.33833333,11.8308333 1.41861111,12.0247222 1.56444444,12.1708333 L2.82916667,13.4355556 C3.12111111,13.7275 3.62944444,13.7280556 3.92166667,13.4355556 L4.91361111,12.4436111 C5.04555556,12.3116667 5.19055556,12.2841667 5.28916667,12.2841667 C5.55666667,12.2841667 5.83361111,12.4863889 5.83361111,12.8244444 L5.83361111,14.2275 C5.83333333,14.6533333 6.17972222,15 6.60555556,15 L8.39416667,15 C8.82,15 9.16638889,14.6533333 9.16638889,14.2275 L9.16638889,12.8244444 C9.16638889,12.4861111 9.44333333,12.2841667 9.71083333,12.2841667 C9.80916667,12.2841667 9.95444444,12.3119444 10.0863889,12.4436111 L11.0783333,13.4355556 C11.3705556,13.7277778 11.8791667,13.7272222 12.1708333,13.4355556 L13.4355556,12.1708333 C13.5813889,12.025 13.6616667,11.8308333 13.6616667,11.6244444 C13.6616667,11.4183333 13.5813889,11.2244444 13.4355556,11.0783333 L12.4433333,10.0863889 C12.2841667,9.92694444 12.2405556,9.7075 12.3266667,9.49916667 C12.4127778,9.29083333 12.5988889,9.16666667 12.8244444,9.16666667 L14.2277778,9.16666667 C14.6536111,9.16666667 15,8.82 15,8.39416667 L15,6.60555556 C15,6.17972222 14.6536111,5.83333333 14.2277778,5.83333333 Z M9.44444444,7.5 C9.44444444,8.57194444 8.57194444,9.44444444 7.5,9.44444444 C6.42805556,9.44444444 5.55555556,8.57194444 5.55555556,7.5 C5.55555556,6.42805556 6.42805556,5.55555556 7.5,5.55555556 C8.57194444,5.55555556 9.44444444,6.42805556 9.44444444,7.5 Z"></path>
                    </g>
                </g>
            </g>
        </g>
    </g>
</svg>