<?xml version="1.0" encoding="UTF-8"?>
<svg width="64px" height="64px" viewBox="0 0 64 64" version="1.1" xmlns="http://www.w3.org/2000/svg" xmlns:xlink="http://www.w3.org/1999/xlink">
    <title>29CC4E35-5081-4E77-8E33-96AE3C57510B</title>
    <g id="Page-1" stroke="none" stroke-width="1" fill="none" fill-rule="evenodd">
        <g id="B-01-ST-Menu" transform="translate(-35.000000, -123.000000)" fill-rule="nonzero">
            <g id="Study-Plans" transform="translate(20.000000, 108.000000)">
                <g id="Elements/Graphics/Style2/Books" transform="translate(15.000000, 15.000000)">
                    <g id="Graphics" transform="translate(4.000000, 4.000000)">
                        <path d="M32.3542632,19.0106688 L32.3556156,18.7282909 L32.0589901,18.6866772 C31.5982741,18.6221337 31.1145671,18.5656581 30.6218443,18.5193736 L30.5104972,18.5087579 L30.5104972,18.5066348 L30.3730035,18.4960191 L30.2819423,18.4875265 L30.2819423,18.4888003 L30.154817,18.4786092 C29.5868108,18.4335987 29.0260174,18.40345 28.4882148,18.3885881 L28.4656749,18.3877388 L28.4670272,18.3834925 L27.997746,18.3775477 C27.8579984,18.3758492 27.7182509,18.375 27.5780525,18.375 C27.158359,18.375 26.7337068,18.3839172 26.3131118,18.400053 L26.3203246,18.3902865 L25.6008501,18.4335987 C24.7772411,18.4832802 23.9486733,18.5643842 23.1367851,18.6756368 L22.8392581,18.7164012 L22.8406105,18.9996284 C22.8419629,19.2569533 22.8370041,19.5138535 22.8315945,19.7541932 C22.8279881,19.9329618 22.8243817,20.1113057 22.8234801,20.2904989 C22.8207753,20.5805201 22.823931,20.8624734 22.8266357,21.1002653 L22.8347501,21.7278663 L22.8383565,21.7253184 L22.8500772,22.1873142 C22.8672076,22.8403927 22.8883951,23.6535562 22.870814,24.4395435 L22.8626996,24.7941083 L22.75,24.8624734 L22.8604456,24.8845541 L22.8568392,25.0399682 L23.0569938,24.9236199 L23.5736089,25.0255308 C24.0776017,25.1253185 24.5960201,25.2038747 25.117594,25.2620488 L25.0562854,25.2951699 L26.2292632,25.3529193 C26.5317491,25.3677812 26.8387428,25.375 27.1407779,25.375 C27.8945131,25.375 28.6536579,25.3282908 29.3979262,25.2361465 L29.3947707,25.2463376 L29.9231066,25.1652335 C30.6362699,25.056104 31.3602524,24.8998407 32.0752189,24.70069 L32.3285677,24.6302016 L32.3231581,24.3813694 C32.3073802,23.6662951 32.3254121,22.9469745 32.343444,22.2518577 L32.3470504,22.0998407 C32.359222,21.6098195 32.3713936,21.1036624 32.3727459,20.5983545 L32.375,19.5979299 L32.3605744,19.6166135 C32.3565172,19.4200106 32.3533617,19.2153396 32.3542632,19.0106688 Z" id="Path" fill="#F0F2FA"></path>
                        <path d="M50.8011235,17.3317473 C50.4529046,16.9909169 49.9780995,16.7729238 49.3059562,16.6461937 L49.1925825,16.625 L49.0996673,16.6756055 L35.0332449,19.9718858 L35.0332449,20.2361591 L35.0336711,20.276384 C35.0358022,20.392301 35.0375071,20.5095155 35.0387857,20.6267301 L35.0392119,20.6812283 L35.0362285,21.0743945 C35.0345235,21.3680795 35.029409,21.6812283 35.0200322,22.0886678 L35.0191798,22.133218 C35.0127865,22.4026816 35.0068195,22.6691176 35.0034097,22.932526 L35,23.2192906 L35.2791718,23.2647059 C37.1144599,23.5644464 39.1952488,23.9044117 41.1426319,24.575692 C41.652813,24.7512976 42.314301,25.0017301 42.9058895,25.383218 C44.7151785,26.5475778 45.6588217,28.7378892 46.3480137,30.3369377 L46.472469,30.625 L46.7627224,30.5151384 C47.8653444,30.0968857 48.7548582,29.601211 49.4811311,28.9995674 L49.7701059,28.7599481 L49.4990322,28.5004325 C48.7970536,27.8287198 48.2821841,26.9623702 47.7835108,26.1241349 C47.0725818,24.9269031 46.4008647,23.7962803 45.2372936,23.1198097 C44.3554517,22.608564 43.3572527,22.400519 42.3918724,22.1993945 L41.4584583,22.0051903 C43.0601798,21.5367647 44.8166179,21.0955882 46.3795538,20.7037197 C47.9416371,20.3118512 49.7121404,19.867647 51.3368777,19.391436 L51.625,19.3070934 L51.5670346,19.0082179 C51.4638901,18.4762111 51.2831743,17.8053633 50.8011235,17.3317473 Z" id="Path" fill="#D8DEEC"></path>
                        <path d="M20.1059146,22.4630361 L20.1050664,22.4189646 C20.0957358,22.0273101 20.0906465,21.726709 20.0885258,21.4444018 L20.0859811,21.0598153 L20.0868293,21.0144965 C20.0876776,20.9209484 20.0885258,20.8278161 20.0906465,20.734268 L20.0978565,20.4448927 L19.8047909,20.4099682 C14.8269184,19.8137552 9.85455944,18.847092 5.02512819,17.5365877 L4.88898635,17.5 L4.76853685,17.5723438 C4.62772969,17.6563292 4.50812837,17.7465511 4.40167484,17.8467514 C3.8193608,18.3980613 3.65268247,19.2715923 3.54198771,20.0474175 L3.5,20.3421978 L13.3963686,22.3998392 L12.7695222,22.5258173 C11.808895,22.7191499 10.8156107,22.9191348 9.93811066,23.4109897 C8.78026857,24.0608369 8.11228286,25.1476574 7.40443001,26.2989221 C6.90863603,27.104267 6.39545335,27.9374683 5.69862751,28.582742 L5.42931258,28.8322035 L5.71601632,29.0621238 C6.42768632,29.6325591 7.33741932,30.1227509 8.42061654,30.5193946 L8.70944095,30.625 L8.8328593,30.3480977 C9.51865802,28.8109992 10.4580793,26.7055444 12.2580359,25.5862938 C12.8492563,25.2191697 13.506215,24.9784393 14.0126119,24.8100528 C15.950831,24.1647792 18.0209508,23.8379847 19.8476268,23.5498567 L20.125,23.5062008 L20.1216071,23.230546 C20.1182141,22.9777584 20.1118523,22.7220603 20.1059146,22.4630361 Z" id="Path" fill="#D8DEEC"></path>
                        <path d="M53.5922376,15.4236091 C52.7943631,14.6575037 51.617435,14.4823939 50.4798505,14.3691619 C48.0172699,14.1241765 45.5089999,14 43.0256898,14 C41.1993782,14 39.3582597,14.066929 37.5531006,14.1991033 C36.1832611,14.3001282 34.7571558,14.468082 33.6978358,15.3002746 C32.3593021,16.3521963 32.3880695,17.7707541 32.4189522,19.2718156 L32.4197984,19.3189606 C32.4227598,19.4814422 32.4257211,19.6443449 32.4274134,19.8064056 C32.4320669,20.4517021 32.415991,21.1092058 32.4016072,21.689678 C32.3609943,23.3595351 32.3229197,24.9372072 32.6427464,26.5717057 C33.1554843,29.1895132 34.4034851,31.3232431 36.1557628,32.5793192 C37.4536836,33.5095901 39.1310813,34.0408126 41.007313,34.1153184 C41.1672263,34.1216325 41.3305241,34.125 41.4929757,34.125 C42.8628151,34.125 44.3337639,33.904429 46.1211549,33.4312958 C49.5034485,32.5368046 51.8285374,31.2007503 53.2288366,29.3465227 C54.2538895,27.9890008 54.8901584,26.1798133 55.0686859,24.1151172 C55.2362141,22.1716509 54.9988825,20.198298 54.7636661,18.5015008 C54.6067141,17.363287 54.3871505,16.1884517 53.5922376,15.4236091 Z M52.2262055,24.109224 C52.0929444,25.6544839 51.6148966,27.011164 50.8440975,28.0323572 C49.7932385,29.4227123 48.0549214,30.4237006 45.5297294,31.0917277 C44.1992336,31.444052 43.1031082,31.6077965 42.0801706,31.6077965 C41.9490247,31.6077965 41.8301474,31.6056918 41.7150775,31.6006406 C40.3084326,31.5450769 39.0481633,31.1456077 38.0713383,30.4455893 C36.7548032,29.5022695 35.8173219,27.9018668 35.4323454,25.9394583 C35.1933215,24.7174781 35.2229351,23.4904466 35.2521256,22.3029832 L35.2533948,22.2364751 C35.2639711,21.8033309 35.2745473,21.3558748 35.2703169,20.9147328 C35.2703169,20.8137079 35.2686246,20.712683 35.2665093,20.6120792 L35.2648171,20.5182102 C35.2415493,19.3812591 35.2199738,18.3078697 36.248411,17.5005125 C37.0555925,16.8661604 38.127181,16.7398793 39.1551952,16.6649524 C40.4966903,16.5664532 41.8635685,16.5167826 43.217332,16.5167826 C45.0588735,16.5167826 46.91776,16.6085469 48.7423796,16.7903917 C49.5630987,16.8720535 50.4904268,17.0088581 51.1034278,17.5977489 C51.7134675,18.1841143 51.8805727,19.0722914 51.9994501,19.9322658 C52.1745932,21.1921303 52.3510055,22.6582541 52.2262055,24.109224 Z" id="Shape" fill="#939BAA"></path>
                        <path d="M23.5721637,19.8080894 C23.5742791,19.6443449 23.5772403,19.4814422 23.5802017,19.3185395 L23.5810479,19.2726574 C23.6115075,17.7707541 23.6406979,16.3521963 22.3017443,15.3002746 C21.2428498,14.4676611 19.8167478,14.2997072 18.4464885,14.1991033 C16.6413336,14.066929 14.8002195,14 12.9739121,14 C10.491877,14 7.98403593,14.1241765 5.51976901,14.3691619 C4.38345644,14.4823939 3.20695408,14.6575037 2.40781232,15.42403 C1.61290123,16.1884517 1.39333819,17.363287 1.23638657,18.5010799 C1.00074768,20.1978771 0.763839611,22.1708089 0.931367458,24.1151172 C1.10989455,26.1798133 1.74616194,27.9885798 2.7712124,29.3461018 C4.17150835,31.2003294 6.49616868,32.5368046 9.87845442,33.4312958 C11.6671103,33.9048499 13.1359403,34.125 14.5015461,34.125 C14.6656896,34.125 14.8311022,34.1216325 14.9927073,34.1153184 C16.8685116,34.0403917 18.5463283,33.5091691 19.8442461,32.5793192 C21.5965197,31.3228221 22.8445175,29.1895132 23.3572543,26.5712848 C23.6770802,24.9359444 23.6390057,23.3591142 23.5983929,21.689257 C23.5840091,21.1092058 23.5679333,20.4517021 23.5721637,19.8080894 Z M20.5676618,25.9394583 C20.1822631,27.9018668 19.2452071,29.5022695 17.9282521,30.4460103 C16.9526985,31.1456077 15.6924322,31.5450769 14.2832523,31.6006406 C14.1698748,31.6056918 14.0505748,31.6077965 13.9194292,31.6077965 C12.896494,31.6077965 11.8007942,31.444052 10.4698785,31.0917277 C7.94469229,30.4237006 6.20637938,29.4231332 5.15552288,28.0323572 C4.38514864,27.011164 3.90710195,25.6544839 3.77384113,24.109224 C3.6486183,22.6582541 3.8254533,21.1925513 4.000596,19.9322658 C4.11947316,19.0727123 4.28657799,18.1845352 4.89619318,17.5977489 C5.5096158,17.0088581 6.43694167,16.8724744 7.25808203,16.7903917 C9.08227415,16.6089678 10.9411563,16.5167826 12.7826935,16.5167826 C14.1364538,16.5167826 15.5033288,16.5668741 16.8448208,16.6649524 C17.8728325,16.7403002 18.9444185,16.8665813 19.7515981,17.5005125 C20.7800329,18.3078697 20.7584575,19.3816802 20.7351897,20.5194729 L20.7334975,20.6120792 C20.7313822,20.712683 20.7296899,20.8137079 20.7296899,20.9117863 C20.7254595,21.3558748 20.7360357,21.8037518 20.7466119,22.2364751 L20.7478811,22.303825 C20.7766485,23.4904466 20.8066851,24.7174781 20.5676618,25.9394583 Z" id="Shape" fill="#939BAA"></path>
                        <path d="M43.4157267,25.655289 C42.7736257,25.2930367 42.0640056,25.0556576 41.5166995,24.8896918 C39.4611713,24.2673198 37.208452,23.9429683 35.3988538,23.6824497 L35,23.625 L35.0008942,23.9852576 C35.0022357,24.8717388 35.0661775,25.5579437 35.2083698,26.2106363 C35.6103537,28.0454367 36.5846839,29.5395283 37.9525022,30.4176314 C38.965734,31.0687282 40.2754234,31.4409545 41.739378,31.4932178 C41.8650259,31.4976063 41.9938038,31.5 42.1212403,31.5 C43.1899182,31.5 44.3386352,31.3452049 45.7368594,31.0132732 C46.1366075,30.9183215 46.5157869,30.8157898 46.8954136,30.7008903 L47.25,30.5935711 L47.0997591,30.2879706 C46.4111549,28.884043 45.3706471,26.762393 43.4157267,25.655289 Z" id="Path" fill="#FFFFFF"></path>
                        <path d="M52.1906193,19.6164566 L52.1326098,19.25 L51.7606409,19.3526417 C50.1133501,19.8068953 48.3619965,20.2225521 46.6682096,20.6242123 C45.1993753,20.9720068 43.5343717,21.3664567 42,21.7787203 L42.0239122,22.4115367 L42.5393548,22.5120577 C43.523744,22.7054654 44.5413447,22.9056593 45.4234423,23.3904508 C46.5809741,24.0241154 47.2956857,25.159113 47.9886992,26.2606035 C48.4966138,27.0673171 49.0718372,27.981762 49.8419014,28.6675958 L50.0748248,28.875 L50.3064197,28.6667474 C50.5791969,28.4215948 50.8236336,28.1615972 51.0335304,27.8943892 C51.8275068,26.8823922 52.31948,25.5353248 52.4563114,23.998667 C52.5860576,22.5527751 52.4027302,21.0805865 52.2211738,19.8153781 C52.2114319,19.7492123 52.201247,19.6821983 52.1906193,19.6164566 Z" id="Path" fill="#FFFFFF"></path>
                        <path d="M36.836108,17.7181505 C35.9454078,18.5043169 35.8728989,19.5423063 35.875,20.5376055 L35.8759023,21 L49,17.6121451 L48.9558082,16.8864159 C47.2606462,16.7127782 45.5350219,16.625 43.8261305,16.625 C42.4591889,16.625 41.0789469,16.6811205 39.7240186,16.7924021 C38.698169,16.8768227 37.6302726,17.0173638 36.836108,17.7181505 Z" id="Path" fill="#FFFFFF"></path>
                        <path d="M14.2600186,31.4932178 C15.7233659,31.4409545 17.0329118,31.0687282 18.047374,30.4176314 C19.4145955,29.5391294 20.3883718,28.0450378 20.7903117,26.2106363 C20.9320413,25.5611354 20.9964232,24.8749304 20.9991059,23.9856566 L21,23.625 L20.6011898,23.6824497 C18.7913428,23.9429683 16.5388701,24.2669208 14.4822257,24.8896918 C13.9354265,25.0560566 13.2254371,25.2934356 12.5847476,25.655289 C10.6295941,26.762393 9.58875324,28.884043 8.90022446,30.2883695 L8.75,30.59397 L9.10454758,30.7012893 C9.48413269,30.8161887 9.86327061,30.9183215 10.2629749,31.0136721 C11.6601519,31.3456039 12.8109785,31.5 13.8844574,31.5 C14.0105388,31.5 14.1357258,31.4976063 14.2600186,31.4932178 Z" id="Path" fill="#FFFFFF"></path>
                        <path d="M10.2547014,23.8950445 C11.0962217,23.3780047 12.067922,23.164307 13.0113039,22.9569477 L13.1228867,22.932952 L13.125,22.2520168 L3.76007507,20.125 L3.71400492,20.4976128 C3.56565048,21.7055483 3.42870795,23.1312562 3.54155877,24.5447399 C3.67216134,26.1850511 4.141739,27.6229833 4.89957219,28.7027906 C5.09991409,28.9884755 5.33364623,29.2660109 5.59358347,29.5277 L5.81505832,29.75 L6.03695602,29.5286056 C6.7719654,28.7960569 7.32100354,27.820382 7.80791032,26.9556306 C8.46726325,25.7839151 9.14944,24.5719049 10.2547014,23.8950445 Z" id="Path" fill="#FFFFFF"></path>
                        <path d="M20.1209265,21 L20.1243218,20.5934191 C20.1332343,19.5618382 20.0666024,18.4886535 19.1736499,17.7029123 C18.3884969,17.0121975 17.3317233,16.8736762 16.3173904,16.7904689 C14.9796594,16.6807866 13.6126441,16.625 12.2541171,16.625 C10.4087952,16.625 8.5469214,16.7285363 6.71942463,16.9318268 C6.35188806,16.9734304 5.92620774,17.0277988 5.52726521,17.1502458 L4.375,17.5029311 L5.52811397,17.8508888 C10.1779178,19.2526475 14.9660783,20.2955749 19.7589073,20.9503593 L20.1209265,21 Z" id="Path" fill="#FFFFFF"></path>
                        <path d="M44.6461881,33.7002462 C43.6779347,33.8749615 42.7971197,33.9601459 41.9527376,33.9601459 C41.7868614,33.9601459 41.6192708,33.956669 41.4551092,33.9501499 C39.532318,33.8714846 37.8118356,33.3156119 36.4788262,32.3416396 C34.6794776,31.0282328 33.3996171,28.8012653 32.8745571,26.0701442 C32.7545433,25.4421255 32.6765345,24.7789029 32.6366728,24.0417958 L32.6139558,23.625 L32.2179107,23.7388691 C30.7331696,24.1660957 29.2068522,24.382534 27.6805349,24.382534 C26.4401075,24.382534 25.1953938,24.2399802 23.9806835,23.9583497 L23.6043548,23.8709921 L23.5786375,24.2612764 C23.5357756,24.9123297 23.4620527,25.5038408 23.3536118,26.0701442 C22.8289804,28.8012653 21.5486912,31.0286674 19.7484855,32.3425087 C19.6516173,32.4137856 19.5483198,32.4846279 19.4325922,32.5598163 L19.25,32.6784661 L21.916019,49 L40.3394102,46.1928213 L39.8079209,45.7190909 C39.4787404,45.4252912 39.2837182,45.0158838 39.2721454,44.5947418 C39.2520002,43.8893615 39.7453424,43.2257043 40.4199909,43.0505545 C40.532718,43.0210006 40.6518746,43.0057892 40.7731742,43.0057892 C40.8331809,43.0057892 40.8940451,43.0092661 40.9549092,43.0166545 L41.1602183,43.0409929 L42.4846555,40.9196369 L42.6089553,40.800987 L42.5832381,40.6184486 C42.5798091,40.5949794 42.5768089,40.5723794 42.5742371,40.5515179 C42.5313751,40.109949 42.668105,39.6214417 42.9595669,39.175092 C43.4409076,38.4362464 44.2852898,37.9225315 45.1639616,37.8347392 L45.5,37.8008392 L44.9873701,33.6389655 L44.6461881,33.7002462 Z" id="Path" fill="#AF7979"></path>
                        <path d="M33.008571,0.875 L14,3.06716387 L15.8707945,13.3000755 L16.1321336,13.3118908 C16.8469726,13.343961 17.5455849,13.3848926 18.208754,13.4334199 C19.6076865,13.534694 21.0651212,13.7047502 22.1621473,14.5605171 C22.9658076,15.187151 23.3701998,15.9851072 23.4726857,17.1472283 L23.5025774,17.4881847 L23.8454781,17.4400795 C25.2093945,17.2480805 26.5980784,17.1506041 27.9726704,17.1506041 C29.372884,17.1506041 30.7859082,17.2518783 32.1728839,17.4506289 L32.5170657,17.5 L32.5469575,17.1573557 C32.6481623,15.9901708 33.0525545,15.1888389 33.8587769,14.5605171 C34.9553759,13.7047502 36.4128107,13.5342721 37.8117432,13.4334199 C39.0727466,13.3418511 40.3499771,13.2815086 41.6079915,13.2536581 L42,13.2452186 L40.1377459,4.15248546 L39.7081592,4.55336247 C39.2597835,4.9719624 38.6811652,5.21755222 38.0773525,5.24498062 C38.0508769,5.24582462 38.0235473,5.24709058 37.9953638,5.24709058 C37.7921001,5.24709058 37.1084337,5.20615896 36.834711,4.68164309 C36.7591277,4.53606138 36.7271008,4.35925363 36.7407656,4.16936449 L36.7612628,3.883265 L36.4764374,3.82798615 C36.469178,3.82672019 36.4640537,3.82461034 36.4580754,3.82123454 L35.5566265,3.26000675 L35.390941,3.34313605 C35.3098064,3.38364572 35.2419095,3.41276202 35.1778557,3.43428281 C35.0061919,3.49167151 34.8225713,3.52078781 34.6316913,3.52078781 C34.1073052,3.52078781 33.5978649,3.29756267 33.2686289,2.92327017 C32.8975446,2.50171638 32.7540643,1.89069552 32.8945555,1.32904578 L33.008571,0.875 Z" id="Path" fill="#AF7979"></path>
                        <path d="M14.5882981,34.7602541 C14.4268405,34.7667318 14.2628797,34.7701866 14.1018392,34.7701866 C13.3763232,34.7701866 12.6257748,34.7045451 11.8068052,34.5698073 L11.375,34.4985518 L13.5511312,49.5572253 C13.6057848,49.9325045 13.6687825,50.2611437 13.8878141,50.484843 C14.0626222,50.6631978 14.31503,50.75 14.6596397,50.75 C14.8148394,50.75 14.9879786,50.7335897 15.2216123,50.6968822 L20.125,49.9342319 L17.7118975,34.125 L17.3526855,34.2498052 C16.4932472,34.5482148 15.5633016,34.7200919 14.5882981,34.7602541 Z" id="Path" fill="#AF7979"></path>
                        <path d="M7.9489419,4.67012392 C7.82584835,4.96725646 7.87754765,5.304708 7.951814,5.68291664 L9.58116099,14 L9.84745313,13.9886056 C10.8116852,13.9478485 11.7902781,13.9268126 12.755741,13.9268126 C13.3289463,13.9268126 13.9099474,13.9342628 14.4827421,13.9487249 L14.875,13.9583665 L12.9621277,3.5 L9.32758854,3.9535873 C8.76299991,4.02458364 8.15779043,4.16482322 7.9489419,4.67012392 Z" id="Path" fill="#AF7979"></path>
                        <path d="M24.5349661,49.3857355 L24.5523783,49 L20.125,49.648135 L21.1251416,55.125 L23.0315685,52.930198 C23.0464327,52.9132289 23.0646942,52.9107456 23.0744621,52.9107456 C23.0863533,52.9107456 23.0973953,52.9144706 23.1071632,52.9210927 L25.375,54.5728849 L24.5353907,49.3969103 C24.5349661,49.3931853 24.5345414,49.3894604 24.5349661,49.3857355 Z" id="Path" fill="#ED6D66"></path>
                        <path d="M45.1586122,38.5274681 C44.2973774,38.6015485 43.4996692,39.0635108 43.0234318,39.7639454 C42.7480073,40.1726364 42.618822,40.6158704 42.659752,41.0104111 C42.7057982,41.473622 42.98975,41.8719084 43.383701,42.0250634 C43.4873049,42.0658493 43.599436,42.0862423 43.7166834,42.0862423 C44.0603246,42.0862423 44.3783846,41.9093647 44.508849,41.645089 C44.5199341,41.6226152 44.5421045,41.6147077 44.559585,41.6147077 C44.5676858,41.6147077 44.5762128,41.6167887 44.5826082,41.6197019 C44.6116002,41.633436 44.6231117,41.6658982 44.6103211,41.6925338 C44.4606709,41.9930174 44.1012545,42.1952819 43.7149779,42.1952819 C43.5840873,42.1952819 43.4591656,42.1723919 43.342771,42.1261958 C43.157307,42.0546123 42.9884709,41.9289253 42.8541694,41.763701 L42.5676595,41.4103623 L41.2651484,43.41969 L41.5576272,43.5865791 C41.810455,43.7309944 42.010415,43.9336751 42.1361894,44.1738123 C42.1447165,44.1896271 42.1430111,44.2046097 42.1396002,44.2141819 C42.1366157,44.2237541 42.1293677,44.237072 42.1127399,44.2453955 C42.1042129,44.2495574 42.0948331,44.2520544 42.0858797,44.2520544 C42.0782053,44.2520544 42.0513449,44.2495574 42.0372753,44.2220893 C41.8027807,43.7788553 41.2877452,43.4808688 40.7552291,43.4808688 C40.6448035,43.4808688 40.5365095,43.4941866 40.4337583,43.51999 C39.8219404,43.6723126 39.3567882,44.2745283 39.3755479,44.8900618 C39.3930284,45.5051791 39.8905834,46.0815916 40.5070911,46.2010358 C40.5211608,46.2039491 40.532246,46.210608 40.5407731,46.2218449 L40.6580205,46.375 L46.375,45.5363928 L45.4732615,38.5 L45.1586122,38.5274681 Z" id="Path" fill="#F9D889"></path>
                        <path d="M40.1817125,4.93963076 L40.25,4.8246024 L39.4954864,0.875 L33.5054605,1.61580027 L33.4275374,1.78057063 C33.4216722,1.79345022 33.4166449,1.80632981 33.4116176,1.81965362 C33.1288321,2.42899293 33.2239318,3.20798789 33.6437113,3.71873154 C33.9453492,4.08824343 34.4149826,4.30852936 34.899279,4.30852936 C35.0731397,4.30852936 35.2415542,4.28010537 35.3994952,4.22325739 C35.7514061,4.09668171 36.0333537,3.8368687 36.1535899,3.5268696 C36.2897459,3.1755668 36.2055386,2.76563952 35.9541736,2.5529038 C35.9395108,2.54046819 35.9353213,2.5249239 35.9340645,2.51382081 C35.9328077,2.50316181 35.9340645,2.48672911 35.9462138,2.47074061 C35.9600389,2.45208742 35.9788912,2.44942262 35.9885269,2.44942262 C36.0010951,2.44942262 36.0128256,2.45386392 36.0228802,2.46230221 C36.3065035,2.70346204 36.4066305,3.1795639 36.2558115,3.56950558 C36.224391,3.65078046 36.1824969,3.72983463 36.1322239,3.80489171 L35.9349024,4.09845833 L36.9851888,4.80106381 L37.1523465,4.4937294 C37.3094495,4.20593649 37.5331643,3.96610906 37.7313236,3.75426153 C37.7443108,3.74049363 37.7598116,3.73738473 37.7698662,3.73738473 C37.7799208,3.73738473 37.7945838,3.74004953 37.8084088,3.75426153 C37.821815,3.76847352 37.8243286,3.78446202 37.8247476,3.79556511 C37.8247476,3.80622411 37.8222339,3.8222126 37.8012869,3.84441879 C37.57841,4.08424633 37.3479921,4.33251205 37.2022004,4.63718176 C37.0455164,4.97160775 37.0287587,5.32868415 37.1573737,5.59249426 C37.3479921,5.98510075 37.8172066,6.125 38.1929971,6.125 C38.2210662,6.125 38.2491353,6.12411181 38.2751097,6.1227794 C39.0304612,6.08591701 39.7786908,5.62180656 40.1817125,4.93963076 Z" id="Path" fill="#F9D889"></path>
                        <path d="M18.7731186,33.4833318 C18.4524717,33.6651487 18.1068618,33.8296499 17.7470488,33.9720732 L17.5,34.069908 L19.983399,49.875 L21.875,49.5897204 L19.1845795,33.25 L18.7731186,33.4833318 Z" id="Path" fill="#F9D889"></path>
                        <path d="M12.25,3.68171165 L14.2842928,13.9486373 L14.552816,13.9564064 C14.8125782,13.9641756 15.0714643,13.9741027 15.3303505,13.98403 L15.75,14 L13.8243429,3.5 L12.25,3.68171165 Z" id="Path" fill="#F9D889"></path>
                        <path d="M51.9259042,31.6955069 L51.7231776,31.5 L51.4775153,31.6531406 C50.6369519,32.177472 49.6308432,32.6442786 48.4879605,33.0407338 L48.125,33.1666667 L48.3166608,33.4647855 C48.7380491,34.1212687 49.2621286,34.9382774 50.0699369,35.4420088 C50.5103584,35.7171953 51.0614386,35.875 51.5815345,35.875 C52.0374483,35.875 52.4420163,35.7525654 52.7523032,35.5201337 C53.4552072,34.9919154 53.4875195,34.0431437 53.2197255,33.3851058 C52.9479478,32.7161847 52.4092614,32.1623134 51.9259042,31.6955069 Z" id="Path" fill="#BFC7D8"></path>
                        <path d="M4.52225984,31.6531406 L4.27658119,31.5 L4.07384084,31.6955069 C3.59045132,32.1623134 3.05217142,32.7161847 2.78037554,33.3851058 C2.51256361,34.0431437 2.54443545,34.9919154 3.24827178,35.5205224 C3.55769421,35.7521766 3.96184677,35.875 4.41734841,35.875 C4.93747909,35.875 5.48859623,35.7171953 5.92993272,35.4423974 C6.73779521,34.9382774 7.26235248,34.1212687 7.68376898,33.4651741 L7.875,33.1666667 L7.51245783,33.0407338 C6.3690558,32.6442786 5.36287955,32.1770834 4.52225984,31.6531406 Z" id="Path" fill="#BFC7D8"></path>
                        <path d="M20.7858819,26.4399562 C21.0417027,25.1829351 21.0104944,23.9364453 20.9797255,22.7316596 C20.9682972,22.2792332 20.9564291,21.8112203 20.9599456,21.3499474 C20.9612643,21.2193588 20.9639015,21.0891913 20.9665389,20.9594453 C20.9907145,19.7929936 21.0157691,18.5865229 19.8162242,17.6791425 C18.9028294,16.987865 17.7318556,16.8530638 16.610991,16.7738682 C13.2826827,16.5392298 9.91217684,16.5821978 6.59221996,16.9010868 C5.68234172,16.9882864 4.65202542,17.1369889 3.93774889,17.797936 C3.22654939,18.4567768 3.03841997,19.4058615 2.90655355,20.3220883 C2.72238008,21.6010146 2.53732757,23.0901466 2.67007315,24.5746447 C2.81380747,26.182149 3.33292158,27.5975615 4.17159213,28.6667035 C5.31047836,30.1183438 7.17638818,31.1588405 9.87657294,31.8471691 C11.2809503,32.2048135 12.4598362,32.375 13.5477341,32.375 C13.6800401,32.375 13.8105879,32.3724725 13.9402565,32.3674175 C15.4690278,32.308442 16.8417573,31.8876095 17.9098753,31.1504155 C19.348538,30.1570991 20.3700631,28.4843006 20.7858819,26.4399562 Z M5.82739472,29.2223371 C6.5794729,28.5415911 7.12583947,27.6784422 7.65286562,26.8405686 C8.36318607,25.7111873 9.03394654,24.6441516 10.157888,24.0274361 C11.0198548,23.5547895 12.0229187,23.358064 12.9925764,23.167236 L20.1722635,21.7568786 C20.1753404,22.0917753 20.1814941,22.4249869 20.1898457,22.7497736 C20.1968786,23.026116 20.2034719,23.298246 20.2069884,23.5686908 C18.1788828,23.8812611 16.0888001,24.2123665 14.1042104,24.8581485 C13.5613603,25.0346538 12.855875,25.287406 12.2132459,25.6783295 C10.3192046,26.8296159 9.32405266,28.9177706 8.53505189,30.6461747 C7.44143971,30.2544088 6.54298983,29.781762 5.82739472,29.2223371 Z M6.67090029,17.6547097 C8.55966695,17.4731493 10.4646972,17.3821585 12.3697274,17.3821585 C13.7666324,17.3821585 15.1639769,17.4310241 16.5529699,17.5291761 C17.5516382,17.5995255 18.5885478,17.714949 19.3265602,18.2735315 C20.1186379,18.8725543 20.1916039,19.6704088 20.1823733,20.592112 C15.2378221,20.0112031 10.3020619,19.0865512 5.49157491,17.8387977 C5.86431732,17.7410668 6.2704659,17.6930438 6.67090029,17.6547097 Z M4.48675284,18.342617 C4.58433394,18.2524688 4.69246446,18.1749581 4.80850691,18.1075575 C9.83349663,19.4399831 15.0000229,20.4215042 20.1753404,21.0272671 C20.1731426,21.123313 20.1713844,21.2193588 20.1705053,21.3158259 L14.0061897,22.5265092 C13.9749813,22.4915451 13.932784,22.4650061 13.8817957,22.4544747 L3.69555432,20.3840126 C3.80808033,19.6122758 3.96632004,18.8249526 4.48675284,18.342617 Z M4.80323225,28.2117495 C4.05379134,27.2563459 3.58830297,25.9761559 3.4573156,24.5101929 C3.34435006,23.2476955 3.47753517,21.9599228 3.63489571,20.8136914 L13.016752,22.7211283 L12.9020282,22.743876 C11.8972061,22.9410228 10.8585383,23.1453309 9.93371511,23.6525203 C8.70779698,24.3248413 7.97461957,25.4904503 7.26605745,26.617304 C6.74738276,27.4425401 6.20936776,28.2930514 5.4854212,28.9375696 C5.23135851,28.7088288 5.00366921,28.4674504 4.80323225,28.2117495 Z M13.9086086,31.611267 C12.7925791,31.6538136 11.575452,31.496686 10.0792078,31.1154514 C9.68712482,31.015193 9.31570109,30.9069308 8.96142004,30.7919285 C9.72360789,29.1229212 10.6853536,27.1194385 12.4554406,26.0435565 C13.057191,25.6779083 13.7301493,25.4369511 14.2492634,25.2680283 C16.1762714,24.6412028 18.2215195,24.3134674 20.2096256,24.0067947 C20.2074279,24.7755827 20.1661097,25.5300482 20.0105074,26.295045 C19.6329298,28.1498252 18.7230516,29.6558072 17.4479032,30.5362275 C16.5059375,31.186222 15.2817775,31.5581891 13.9086086,31.611267 Z" id="Shape" fill="#000000"></path>
                        <path d="M53.9962105,29.8452172 C55.0822686,28.3910267 55.7547531,26.463719 55.9414595,24.2714656 C56.1144939,22.2392118 55.8718184,20.194055 55.6312791,18.4370694 C55.4612355,17.1970721 55.220269,15.9132039 54.3170718,15.0349262 C53.4104568,14.1536378 52.1381195,13.9592296 50.912352,13.835789 C48.0844136,13.5501982 45.2282771,13.4267576 42.378122,13.4628865 C42.378122,13.4624564 42.378122,13.4624564 42.378122,13.4624564 L39.7338993,0.310226425 C39.6941655,0.113237654 39.5117316,-0.0209556082 39.3130624,0.0027002828 L9.04356926,3.55882161 C8.61333296,3.60957425 7.60588789,3.72785359 7.25640108,4.52312068 C7.06114988,4.96828105 7.15941631,5.44139832 7.23119356,5.78720403 L8.84490011,13.5527789 C7.58879806,13.6160045 6.33525966,13.7097678 5.08727542,13.835789 C3.86193516,13.9592296 2.58959784,14.1536378 1.68298282,15.0349262 C0.779785664,15.9132039 0.538391952,17.1970721 0.368775494,18.4370694 C0.127809,20.1936249 -0.114439258,22.2383517 0.0585951652,24.2714656 C0.245301555,26.463719 0.917786006,28.3910267 2.00384415,29.8452172 C2.40759129,30.3858612 2.88311556,30.8847848 3.43212608,31.3437085 C2.92626734,31.9071482 2.41058192,32.5428458 2.13671755,33.3153172 C1.81927407,34.2116595 1.8756706,35.4396138 2.71691707,36.1630531 C3.12536382,36.5144502 3.62481385,36.662837 4.12981804,36.662837 C4.74547897,36.662837 5.36883026,36.4426224 5.84606352,36.1011178 C6.70995398,35.4839148 7.23418431,34.5441319 7.69731849,33.7148863 C7.70714517,33.6968218 7.71440831,33.6778971 7.72124424,33.6589724 C8.2565829,33.8473592 8.82268323,34.0215523 9.42039979,34.181552 C9.97411003,34.3295086 10.5009038,34.4542395 11.0054809,34.5561749 L13.2070772,49.367326 C13.2562104,49.698078 13.3305511,50.1974317 13.6779018,50.5419472 C13.993209,50.8546346 14.4076371,50.9342044 14.7801953,50.9342044 C15.0241525,50.9342044 15.2497382,50.900226 15.4185002,50.8748497 L19.9763558,50.1853887 L20.9483394,55.681291 C20.9748286,55.8288175 21.0829217,55.9479571 21.2269035,55.9866667 C21.2598014,55.995699 21.2935538,56 21.3264517,56 C21.4379628,56 21.5456287,55.9509679 21.6199695,55.862796 L23.3802211,53.7677466 L25.4826965,55.3479584 C25.6078794,55.4421518 25.777496,55.4503237 25.9112238,55.3690336 C26.0449517,55.2877435 26.1163017,55.1329051 26.0919487,54.9776366 L25.2254946,49.4572183 C25.2216494,49.4348527 25.2156681,49.4142076 25.2088321,49.3935625 L46.367741,46.1931392 C46.5736734,46.1617415 46.7176551,45.9707741 46.6915931,45.7626026 L45.2910822,34.4942395 C45.7050832,34.4047773 46.1331832,34.3011217 46.5796548,34.181552 C47.1773714,34.0215523 47.7434717,33.8469291 48.2788104,33.6589724 C48.2856463,33.6778971 48.2929095,33.6963917 48.3031634,33.7148863 C48.7658703,34.5441319 49.2901007,35.4839148 50.1539911,36.1011178 C50.6312244,36.4426224 51.2545757,36.662837 51.8702366,36.662837 C52.3748136,36.662837 52.8742636,36.5144502 53.2827103,36.1630531 C54.124384,35.4396138 54.1803532,34.2116595 53.8633371,33.3153172 C53.5894727,32.5428458 53.0733601,31.9071482 52.5679286,31.3437085 C53.1169391,30.8847848 53.5924633,30.3858612 53.9962105,29.8452172 Z M33.6477864,14.8800878 C32.6202608,15.6968603 32.3011084,16.7041699 32.211814,17.7575011 C29.4163464,17.3497599 26.5837083,17.345889 23.7873861,17.7467483 C23.6963829,16.6972882 23.3763759,15.6938495 22.3522683,14.8800878 C21.18247,13.9506275 19.6683118,13.7678321 18.2178131,13.6607355 C17.5235391,13.6091228 16.827556,13.5686928 16.1307185,13.5364348 L14.3670489,3.71193967 L32.5681368,1.57344951 C32.4053563,2.23581379 32.5660006,2.9768874 33.0137539,3.49473575 C33.4132286,3.95753046 34.0199171,4.21731486 34.6253242,4.21731486 C34.8457829,4.21731486 35.0666688,4.18290633 35.2768736,4.11064842 C35.3661679,4.08011093 35.4507626,4.04183136 35.5323665,4.00011105 L36.27791,4.47279824 C36.3189256,4.49860463 36.3629319,4.51494863 36.4073654,4.52355076 C36.3898483,4.77172236 36.4308638,5.01258206 36.5368207,5.21946331 C36.8230753,5.77946206 37.4571077,5.97645094 37.9907374,5.97645094 C38.0240626,5.97645094 38.0565332,5.97559067 38.0890039,5.97387024 C38.7760148,5.94247249 39.4339728,5.64956992 39.9291505,5.17903323 L41.5971171,13.4766499 C40.3226436,13.5058972 39.0498792,13.5665423 37.7818144,13.6603055 C36.3313157,13.7678321 34.8171574,13.9506275 33.6477864,14.8800878 Z M23.8284017,21.7450194 C23.8241292,21.5587832 23.8198568,21.3708267 23.8155844,21.1815798 C24.9477851,20.4116889 25.9347224,19.4026588 26.680693,18.2512634 C27.2450844,18.2258871 27.8099031,18.217285 28.3747216,18.2250269 C27.602689,20.6280325 25.9791559,22.7136194 23.8480549,24.0413586 C23.8647176,23.2671667 23.8467733,22.4998565 23.8284017,21.7450194 Z M23.8066122,20.6482476 C23.802767,20.3772803 23.8006308,20.105453 23.802767,19.8349159 C23.8040487,19.6542712 23.8074667,19.4744867 23.8108847,19.2955623 C23.8164388,19.0383585 23.8211386,18.7802945 23.8194296,18.5226607 C24.5871898,18.4108329 25.3575136,18.3308332 26.1286918,18.2813709 C25.4946594,19.1910464 24.7025461,19.9987865 23.8066122,20.6482476 Z M28.8344379,18.2357796 C29.3556774,18.2516935 29.8760626,18.281801 30.3960204,18.326102 C30.0918216,20.9970639 28.3217432,23.4508222 25.8898615,24.563508 C25.3417054,24.5054436 24.7956856,24.4194223 24.2539383,24.3050139 C26.4234913,22.8946944 28.0675322,20.7243764 28.8344379,18.2357796 Z M30.8330926,18.366532 C31.2829822,18.4116932 31.7320173,18.4671769 32.1801978,18.5338435 C32.1784889,18.7876063 32.1836158,19.0417994 32.1887427,19.294702 C32.1895973,19.339003 32.1895973,19.3833039 32.1904517,19.427605 C31.006127,20.9149137 30.143091,22.6641573 29.6803841,24.5123253 C28.699001,24.6426477 27.7082186,24.6817873 26.7199996,24.6297444 C28.9544938,23.3381342 30.5421384,20.9484619 30.8330926,18.366532 Z M32.1972877,20.1433024 C32.1960059,20.6809357 32.184043,21.2202893 32.1712257,21.7454495 C32.1537086,22.4813619 32.1357643,23.2284571 32.1507179,23.982434 C31.4919052,24.1785626 30.8241204,24.3338311 30.1507814,24.4439384 C30.5605099,22.9002858 31.2590564,21.4323319 32.1972877,20.1433024 Z M14.9190502,13.4895532 L13.0528416,3.86634786 L13.9304039,3.76312228 L15.680829,13.5162197 C15.4274723,13.5063272 15.1732612,13.496865 14.9190502,13.4895532 Z M39.7343265,4.21000307 C39.3797127,4.78204492 38.7234636,5.17086129 38.0539697,5.20182896 C37.7318265,5.21774288 37.3490145,5.11881831 37.2199864,4.86591562 C37.1375281,4.7050558 37.1563269,4.46505626 37.2686925,4.24011048 C37.3938754,3.98978849 37.6139069,3.76613305 37.8266751,3.54935932 C37.9757838,3.39753172 37.9740748,3.15237089 37.8232571,3.00226371 C37.6728667,2.85215654 37.4293368,2.85387696 37.280228,3.00570457 C37.0619055,3.22849974 36.8175212,3.47839176 36.639787,3.78806852 L36.1501635,3.47796168 C36.2155321,3.38634889 36.2702195,3.28828458 36.3120896,3.185059 C36.5231489,2.66764072 36.3821579,2.05473883 35.9771291,1.72828789 C35.8117851,1.59452481 35.5699641,1.62162145 35.437518,1.78807273 C35.3046446,1.9549541 35.3311338,2.19796441 35.4969051,2.33129741 C35.6374689,2.44484555 35.6836114,2.69086653 35.6015803,2.89129615 C35.5152767,3.10376887 35.3016538,3.285704 35.030353,3.37817695 C34.5385933,3.54634855 33.9340408,3.3816178 33.5930989,2.98720996 C33.2525842,2.59280222 33.1743983,1.96742727 33.4076743,1.50033144 C33.412374,1.49172931 33.4145102,1.48226702 33.4179282,1.47366477 L39.0511608,0.811730786 L39.7343265,4.21000307 Z M7.98271852,5.6289248 C7.91734998,5.31408676 7.87035291,5.03709811 7.95879277,4.83580821 C8.11131941,4.48914223 8.66631141,4.38161564 9.13286356,4.32699207 L12.6157693,3.91753058 L14.470015,13.4783703 C12.8550268,13.4396608 11.2370479,13.452564 9.62248691,13.5175101 L7.98271852,5.6289248 Z M5.40130082,35.4710116 C4.79076694,35.9075698 3.8170744,36.0925157 3.21593988,35.5750974 C2.65539371,35.093378 2.63873111,34.2009067 2.86004436,33.5751017 C3.09417481,32.9135977 3.55944531,32.3518784 4.04266006,31.8163957 C4.88006135,32.4159644 5.8622988,32.9385439 6.99749021,33.3892957 C6.5813531,34.1342402 6.1075378,34.9660664 5.40130082,35.4710116 Z M2.6177961,29.3807021 C1.61846872,28.0426404 0.99810817,26.2529668 0.823791984,24.2056593 C0.65759349,22.251685 0.894287473,20.2581408 1.12927258,18.5424456 C1.28094478,17.4366415 1.48944061,16.2981493 2.21618528,15.591054 C2.94592069,14.8818082 4.07256719,14.7149269 5.1637524,14.6048196 C7.64818522,14.3540674 10.1544077,14.2284763 12.6593484,14.2284763 C14.4973588,14.2284763 16.3345147,14.2964332 18.1614167,14.4314866 C19.493141,14.5299811 20.8769894,14.6929914 21.8763168,15.4869683 C23.0990935,16.4590092 23.0734588,17.7661031 23.0431244,19.2796483 C23.0397065,19.4620135 23.0358612,19.645239 23.0345794,19.8288945 C23.0298798,20.4796458 23.0452606,21.1325476 23.0606415,21.763514 C23.1012298,23.4512523 23.1396819,25.0452274 22.8226656,26.6813529 C22.3206522,29.2731754 21.1068475,31.3802677 19.4051285,32.6142435 C18.146463,33.5269298 16.514385,34.0486491 14.6849196,34.1226274 C13.204941,34.181982 11.5950797,33.9634879 9.61778729,33.4340267 C6.2758725,32.539405 3.98626354,31.2138164 2.6177961,29.3807021 Z M20.432654,49.3342078 L18.0588777,34.2163906 C18.4288724,34.0701543 18.783059,33.9019827 19.1193012,33.7118756 L21.6588488,49.1488319 L20.432654,49.3342078 Z M15.3039984,50.11012 C14.8682079,50.1763565 14.4345536,50.2073242 14.2162311,49.9909805 C14.0641318,49.8400132 14.0128624,49.5673256 13.9662925,49.2529176 L11.8035756,34.7011208 C12.6559305,34.8378947 13.4480437,34.9054214 14.2051228,34.9054214 C14.3768755,34.9054214 14.5473465,34.9019806 14.7156813,34.8950989 C15.7555969,34.8529484 16.7386889,34.674024 17.6388953,34.3699387 L19.9985725,49.4000141 L15.3039984,50.11012 Z M24.4667065,49.5776481 L25.1857608,54.1600039 L23.5502648,52.9307592 C23.3874843,52.808609 23.1584807,52.8348454 23.0273163,52.9905441 L21.5614367,54.7354866 L20.7359984,50.0705504 L24.4624341,49.5066806 C24.4620069,49.5299063 24.4628613,49.5535622 24.4667065,49.5776481 Z M40.66444,46.2739993 C40.6097526,46.2008811 40.530285,46.1462575 40.4341548,46.1269028 C39.9663209,46.0335697 39.5745367,45.566904 39.5617193,45.0869051 C39.5480474,44.6069061 39.9133424,44.1191651 40.3751948,43.9991654 C40.8370474,43.8791657 41.3907576,44.1299178 41.60908,44.5565835 C41.7060648,44.7466907 41.9380591,44.8215292 42.1260472,44.723465 C42.3148896,44.6258308 42.3892304,44.3927129 42.2922457,44.2030359 C42.1320285,43.8903484 41.8816627,43.6378758 41.5860088,43.4632526 L42.4622893,42.0697072 C42.6297696,42.2813196 42.8433925,42.448201 43.0882042,42.5466954 C43.2475667,42.6107813 43.4154742,42.6408887 43.5821,42.6408887 C44.0785593,42.6408887 44.5639103,42.3737926 44.7741151,41.9350838 C44.8664001,41.7428261 44.7860779,41.5118589 44.5950992,41.4189559 C44.4041205,41.3264829 44.1746895,41.4069129 44.0824045,41.5991706 C43.9760204,41.8211055 43.6312332,41.9325031 43.3727496,41.8284174 C43.0958945,41.7174498 42.8861169,41.4060526 42.8515101,41.0542255 C42.818185,40.7183123 42.9292688,40.3368077 43.1638266,39.9798191 C43.5833817,39.3419711 44.3020088,38.9157354 45.0582334,38.8486388 L45.8828173,45.4847536 L40.66444,46.2739993 Z M44.9629577,38.0808984 C43.9879832,38.1768122 43.0647056,38.7299294 42.5238127,39.5535835 C42.1918429,40.0585287 42.0367529,40.6185275 42.087595,41.1307844 C42.0901585,41.161322 42.0948583,41.1909993 42.0991307,41.2211069 C42.0790501,41.2413219 42.0602513,41.2632572 42.0444432,41.2886336 L40.8370474,43.2086295 C40.620861,43.1832531 40.3991206,43.1948661 40.1842161,43.2503498 C39.3677499,43.4615322 38.7704605,44.2602401 38.7935318,45.1084103 C38.8080581,45.6309899 39.0575695,46.1208813 39.4399543,46.4593752 L22.092503,49.0834557 L19.5234755,33.4667147 C19.6358411,33.3940267 19.7464976,33.3196183 19.8541636,33.2417691 C21.7152451,31.8925247 23.0371429,29.6151101 23.5767541,26.8293096 C23.6951011,26.217698 23.7655966,25.6065165 23.8061849,24.9987758 C25.0451971,25.2835065 26.3068532,25.4267319 27.5676548,25.4267319 C29.1211197,25.4267319 30.6728755,25.2082378 32.1801978,24.7777011 C32.2177954,25.4581298 32.2904271,26.1432896 32.4233005,26.8297397 C32.9629117,29.6151101 34.2848095,31.8925247 36.145891,33.2417691 C37.5267487,34.2434873 39.303663,34.815099 41.2839461,34.8950989 C41.4527082,34.9019806 41.6227518,34.9054214 41.7945046,34.9054214 C42.6511319,34.9054214 43.5521928,34.8194001 44.5357121,34.6434864 L44.9629577,38.0808984 Z M46.3822673,33.4340267 C44.4049749,33.9634879 42.795541,34.181982 41.3147078,34.1226274 C39.4856696,34.0486491 37.8535916,33.5269298 36.5949261,32.6142435 C34.8927798,31.3802677 33.6789752,29.2731754 33.1769617,26.6813529 C32.8603728,25.0452274 32.8988248,23.4512523 32.9389859,21.7639441 C32.9543668,21.1325476 32.9697476,20.4800759 32.9650479,19.8288945 C32.9637661,19.645239 32.959921,19.4615834 32.956503,19.2792182 C32.9265959,17.765673 32.9009611,16.458579 34.1237378,15.4869683 C35.122638,14.6925613 36.5064864,14.5299811 37.8382108,14.4314866 C39.6659672,14.2960031 41.5022687,14.2284763 43.3407062,14.2284763 C45.8452197,14.2284763 48.3518694,14.3540674 50.835875,14.6048196 C51.9274874,14.7144968 53.0537067,14.8813782 53.7834421,15.591054 C54.5101868,16.2977192 54.7191099,17.4366415 54.8703548,18.5424456 C55.1053398,20.2585709 55.3420339,22.2525452 55.1758354,24.2056593 C55.0019465,26.2525366 54.3815859,28.0422103 53.3822585,29.3807021 C52.0137911,31.2138164 49.7241821,32.539405 46.3822673,33.4340267 Z M53.1400103,33.5751017 C53.3613235,34.2009067 53.3446609,35.093378 52.7841148,35.5750974 C52.182553,36.0920855 51.2092877,35.9075698 50.5987538,35.4710116 C49.8920896,34.9660664 49.4182743,34.1342402 49.0025644,33.3892957 C50.1377558,32.9385439 51.1199933,32.4159644 51.9569674,31.8163957 C52.4406093,32.3518784 52.9058798,32.9135977 53.1400103,33.5751017 Z" id="Shape" fill="#000000"></path>
                        <path d="M53.0932512,20.3219894 C52.9613849,19.4062084 52.7732556,18.4567278 52.0616171,17.7979046 C51.3477808,17.1369752 50.3174654,16.9886979 49.407588,16.9010794 C46.0880735,16.5821989 42.717131,16.5392321 39.3883859,16.7738643 C38.2675223,16.8530577 37.096989,16.9878553 36.1831555,17.6791143 C34.9836117,18.5868918 35.0086663,19.7929089 35.0332813,20.9597506 C35.0359187,21.0890719 35.0385559,21.2192359 35.0394351,21.349821 C35.0433911,21.8110816 35.0315231,22.279082 35.0200947,22.7314963 C34.9897655,23.936671 34.9581176,25.1827062 35.2134986,26.4396938 C35.6297566,28.4839834 36.6508413,30.1571585 38.0899424,31.150027 C39.1584989,31.8876225 40.5312272,32.3084437 42.0595577,32.3674177 C42.1892262,32.3724726 42.3197739,32.375 42.4520798,32.375 C43.5404164,32.375 44.7193011,32.2048182 46.1236773,31.846762 C48.8234202,31.1588731 50.689768,30.1184042 51.8282137,28.6668027 C52.6668836,27.597268 53.1864367,26.1823146 53.330171,24.5744321 C53.4624769,23.0899737 53.2774245,21.6008816 53.0932512,20.3219894 Z M52.2057909,19.8047037 C50.5732861,20.2562756 48.8128709,20.6745694 47.1056417,21.0793834 C45.2942382,21.5090508 43.4208576,21.9530403 41.7004418,22.4378904 C41.6824201,22.4429453 41.6661566,22.4505276 41.6503327,22.4589525 L35.8293143,21.3157004 C35.8279956,21.1914339 35.8257978,21.0675886 35.8231606,20.9441645 C35.8231606,20.9420583 35.8227209,20.9399522 35.8227209,20.937846 L50.0866994,17.7814762 C50.1073585,17.7768425 50.1258197,17.7688389 50.1438414,17.7595715 C50.6704276,17.8543511 51.159212,18.0152657 51.5126138,18.3425711 C51.902938,18.7035759 52.0893091,19.2360264 52.2057909,19.8047037 Z M47.4647577,30.6457997 C46.6753181,28.9174419 45.6806065,26.829343 43.7861272,25.6780874 C43.1439383,25.2875956 42.4384536,25.0348501 41.8956039,24.8579283 C39.911016,24.2121636 37.8204956,23.8810671 35.7928312,23.5685051 C35.7963477,23.2980675 35.802941,23.0259448 35.8099739,22.750031 C35.8178858,22.4252531 35.8244791,22.0916291 35.8271165,21.7571625 L43.007237,23.1674823 C43.9768938,23.3578839 44.9799569,23.5550254 45.8414835,24.0276594 C46.9658635,24.6443583 47.6366234,25.7109443 48.3469432,26.8402954 C48.8739689,27.6785678 49.420335,28.5416937 50.1719729,29.2220002 C49.456818,29.7814102 48.5583689,30.2540443 47.4647577,30.6457997 Z M36.6732586,18.2734874 C37.4112704,17.7149199 38.4477395,17.5994995 39.446407,17.529152 C42.5694407,17.3092633 45.7302761,17.3370654 48.8493539,17.6108729 L35.8169544,20.4951201 C35.8143694,19.6143021 35.9088736,18.851432 36.6732586,18.2734874 Z M45.9201636,31.1146426 C44.4239206,31.4962883 43.2072341,31.6534117 42.0912056,31.610445 C40.7175983,31.5577897 39.4938789,31.1858326 38.5514744,30.5354342 C37.2763272,29.6554587 36.3664496,28.1490956 35.9893121,26.2943651 C35.8337099,25.52981 35.7919522,24.7753648 35.790194,24.0061761 C37.7778587,24.3128406 39.8235447,24.6405672 41.750551,25.2677972 C42.2692252,25.4367155 42.9421828,25.6772449 43.5443724,26.0433046 C45.3140183,27.1187366 46.2757631,29.122587 47.0379504,30.7911283 C46.6836695,30.9061276 46.3126858,31.0148081 45.9201636,31.1146426 Z M52.5424896,24.5099821 C52.4115024,25.9759058 51.9460144,27.2560616 51.1965741,28.2114396 C50.9961374,28.4671337 50.7684483,28.7085056 50.5139463,28.9368191 C49.7900002,28.2927394 49.2524253,27.4422508 48.733751,26.6170368 C48.0247499,25.489792 47.2920128,24.3246354 46.0660957,23.6519112 C45.1412733,23.1447352 44.1026063,22.9408539 43.0977851,22.7432911 L42.5905393,22.6438779 C44.0859033,22.2415913 45.672255,21.8650006 47.2142117,21.4993621 C48.9086937,21.0974969 50.6550432,20.682573 52.2818338,20.234371 C52.2919436,20.2979786 52.3011743,20.3620075 52.3104049,20.4256151 C52.488864,21.664068 52.6682021,23.1030322 52.5424896,24.5099821 Z" id="Shape" fill="#000000"></path>
                    </g>
                </g>
            </g>
        </g>
    </g>
</svg>