<?xml version="1.0" encoding="UTF-8"?>
<svg width="24px" height="24px" viewBox="0 0 24 24" version="1.1" xmlns="http://www.w3.org/2000/svg" xmlns:xlink="http://www.w3.org/1999/xlink">
    <title>EEA56447-7BE0-4246-BC1D-4DAE2986EAAA</title>
    <g id="Today--------------------------------------------" stroke="none" stroke-width="1" fill="none" fill-rule="evenodd">
        <g id="AFS-1334-DesktopA" transform="translate(-61.000000, -260.000000)" fill="#1268B3" fill-rule="nonzero">
            <g id="Elements/CTAs/Internal/MegaButton/Purple" transform="translate(61.000000, 252.000000)">
                <g id="Elements/Graphics/Style3/Help&amp;Support/Colour" transform="translate(0.000000, 8.000000)">
                    <g id="shuffle-1" transform="translate(4.500000, 4.500000)">
                        <path d="M2.75,4.75 L3.25,4.75 C3.92825,4.75 4.5795,4.9985 5.084,5.44975 C5.13175,5.4925 5.1915,5.5135 5.25075,5.5135 C5.31925,5.5135 5.38775,5.4855 5.437,5.43025 C5.529,5.32725 5.52025,5.16925 5.4175,5.07725 C4.82125,4.54375 4.0515,4.25 3.25,4.25 L2.75,4.25 C2.61175,4.25 2.5,4.36175 2.5,4.5 C2.5,4.63825 2.61175,4.75 2.75,4.75 Z" id="Path"></path>
                        <path d="M9.04775,2.353 C8.9665,2.4645 8.991,2.621 9.103,2.702 L11.23125,4.25 L9.25,4.25 C7.458,4.25 6,5.708 6,7.5 C6,9.01625 4.76625,10.25 3.25,10.25 L2.75,10.25 C2.61175,10.25 2.5,10.36175 2.5,10.5 C2.5,10.63825 2.61175,10.75 2.75,10.75 L3.25,10.75 C5.042,10.75 6.5,9.292 6.5,7.5 C6.5,5.98375 7.73375,4.75 9.25,4.75 L11.23125,4.75 L9.103,6.29775 C8.99125,6.37875 8.9665,6.53525 9.04775,6.64675 C9.0965,6.71425 9.17275,6.74975 9.25025,6.74975 C9.30125,6.74975 9.3525,6.734 9.397,6.702 L12.425,4.5 L9.397,2.29775 C9.285,2.2165 9.129,2.241 9.04775,2.353 Z" id="Path"></path>
                        <path d="M9.04775,8.353 C8.9665,8.4645 8.991,8.621 9.103,8.702 L11.23125,10.25 L9.25,10.25 C8.57875,10.25 7.9325,10.006 7.4305,9.563 C7.32775,9.47175 7.1695,9.4815 7.07775,9.58525 C6.9865,9.68875 6.99625,9.84675 7.1,9.938 C7.69325,10.46175 8.457,10.75 9.25,10.75 L11.23125,10.75 L9.103,12.29775 C8.99125,12.37875 8.9665,12.53525 9.04775,12.64675 C9.0965,12.71425 9.17275,12.74975 9.25025,12.74975 C9.30125,12.74975 9.3525,12.734 9.397,12.702 L12.425,10.5 L9.397,8.29775 C9.285,8.2165 9.129,8.241 9.04775,8.353 Z" id="Path"></path>
                        <path d="M7.5,0 C3.3645,0 0,3.3645 0,7.5 C0,11.6355 3.3645,15 7.5,15 C11.6355,15 15,11.6355 15,7.5 C15,3.3645 11.6355,0 7.5,0 Z M7.5,14.5 C3.64025,14.5 0.5,11.35975 0.5,7.5 C0.5,3.64025 3.64025,0.5 7.5,0.5 C11.35975,0.5 14.5,3.64025 14.5,7.5 C14.5,11.35975 11.35975,14.5 7.5,14.5 Z" id="Shape"></path>
                    </g>
                </g>
            </g>
        </g>
    </g>
</svg>