<?xml version="1.0" encoding="UTF-8"?>
<svg width="64px" height="64px" viewBox="0 0 64 64" version="1.1" xmlns="http://www.w3.org/2000/svg" xmlns:xlink="http://www.w3.org/1999/xlink">
    <title>55A6F57A-6154-4FA8-B9F4-D6649E2D8FAD</title>
    <g id="Page-1" stroke="none" stroke-width="1" fill="none" fill-rule="evenodd">
        <g id="B-01-ST-Menu" transform="translate(-35.000000, -443.000000)" fill-rule="nonzero">
            <g id="Browse-Books" transform="translate(20.000000, 428.000000)">
                <g id="Elements/Graphics/Style2/Books" transform="translate(15.000000, 15.000000)">
                    <g id="052-math" transform="translate(2.000000, 5.000000)">
                        <path d="M4.36614984,48.5366822 C4.33273312,48.5321045 4.29885867,48.5298157 4.26544195,48.5298157 C3.97933957,48.5298157 3.68133539,48.6717224 3.42544559,48.9289856 C3.20297238,49.152832 3.03771973,49.4380188 2.97225949,49.7103881 C2.81707758,50.3503418 3.10546875,51.0694886 3.65707395,51.4210511 C3.89877316,51.5748596 4.18624875,51.6563415 4.48837277,51.6563415 C4.86557004,51.6563415 5.22216797,51.5304565 5.49270633,51.3020325 C6.00448605,50.8708191 6.17614746,50.1177979 5.90194699,49.511261 C5.61630246,48.8809205 4.89028934,48.5916138 4.36614984,48.5366822 Z" id="Path" fill="#FFFFFF"></path>
                        <polygon id="Path" fill="#FFFFFF" points="0.726013125 46.5797425 8.78402707 46.8997193 8.87466434 43.8487243 0.832672148 43.8409424"></polygon>
                        <polygon id="Path" fill="#FFFFFF" points="9.94400027 7.93350223 2.20779422 8.21182254 2.08694461 11.368103 9.85015875 11.0636902"></polygon>
                        <path d="M17.0132447,15.1176452 L16.5316772,15.2783203 C16.5142822,15.2842712 16.5074157,15.2851868 16.5074157,15.2851868 L9.84924316,15.2998352 L9.79202273,17.2329712 L16.940918,17.0457458 L17.0132447,15.1176452 Z" id="Path" fill="#FFFFFF"></path>
                        <path d="M19.2292786,49.0411377 C18.2322693,49.0411377 17.2164916,49.0132141 16.2098694,48.9582825 L15.852356,48.9385986 L15.7997132,50.3741455 L16.1471557,50.390625 C17.6683044,50.4615784 19.2114258,50.4972839 20.7339478,50.4972839 C21.6563415,50.4972839 22.5865173,50.4844665 23.4983825,50.4579163 L23.8645935,50.4977416 L23.9653015,48.8420105 L23.5629272,48.8731384 C22.1159363,48.984375 20.657959,49.0411377 19.2292786,49.0411377 Z" id="Path" fill="#FFFFFF"></path>
                        <path d="M35.3691101,47.9278564 L35.7458496,47.9278564 L35.7550049,47.5854492 C35.7641602,47.2306823 35.7746888,46.8772888 35.7852173,46.5106201 L35.7957458,46.1585999 L24.2706299,45.8441162 L24.1603089,47.6719665 L35.3517151,47.9241943 L35.3691101,47.9278564 Z" id="Path" fill="#FFFFFF"></path>
                        <polygon id="Path" fill="#FFFFFF" points="58.2833862 41.9325257 46.3453675 42.0373535 46.2016296 45.0059509 58.1350709 45.2041627"></polygon>
                        <path d="M42.0785522,18.0088806 C42.1257019,18.0088806 42.1733093,18.0079651 42.2200013,18.0075073 C43.9585876,17.979126 45.6765748,17.3808288 47.0594788,16.3215638 C47.0681763,16.3146973 47.0805359,16.3110352 47.1006775,16.3110352 C47.1011353,16.3110352 47.4577331,16.3325501 47.4577331,16.3325501 L47.587738,13.5955811 L47.0585632,13.8459778 C45.5836487,14.5436096 43.9118958,14.9125671 42.2236634,14.9125671 C40.7240296,14.9125671 39.2253112,14.6173096 37.8895569,14.0588379 L37.4345398,13.8684082 L37.4029541,14.3605042 C37.3631286,14.9880982 37.3246765,15.6166077 37.2871399,16.2437439 L37.275238,16.4414978 L37.4377441,16.5541077 C38.7931823,17.4920654 40.4406738,18.0088806 42.0785522,18.0088806 Z" id="Path" fill="#FFFFFF"></path>
                        <polygon id="Path" fill="#FFFFFF" points="38.0621338 2.85095215 26.3937377 3.19061273 26.3658142 4.58862305 37.9426575 4.4590759"></polygon>
                        <path d="M53.303833,10.359192 C53.3692932,10.3628541 53.4347534,10.3642273 53.4997559,10.3642273 C54.3241882,10.3642273 55.097351,10.0964355 55.6764221,9.60983273 C56.3067627,9.08157352 56.6697693,8.24066156 56.6468811,7.36038211 C56.6258239,6.48101813 56.2371826,5.6913757 55.5807495,5.19378656 C55.2410889,4.93652344 54.8176575,4.80606082 54.3232727,4.80606082 C53.1413269,4.80606082 51.9172669,5.53894043 51.3652038,6.22879031 C50.8543396,6.86828613 50.4313659,7.96783453 50.9211731,8.96163938 C51.3121032,9.75311273 52.2468567,10.3019714 53.303833,10.359192 Z" id="Path" fill="#FFFFFF"></path>
                        <path d="M47.8184509,11.437683 L46.3513184,41.9119263 L58.2888795,41.8075561 L58.5910034,35.0985717 C58.6903382,32.9104615 58.8070678,30.6843567 58.9201355,28.5319519 L58.9329529,28.2902527 C59.1233825,24.6775818 59.320221,20.9417725 59.4419861,17.2219849 C59.5019531,15.3918457 59.5289612,13.5630798 59.521637,11.786499 L59.5202637,11.4367676 L47.8184509,11.437683 Z M50.6236267,35.489502 L51.0118103,35.3219604 L51.0447693,35.5274964 L50.6236267,35.489502 Z" id="Shape" fill="#CBE580"></path>
                        <path d="M47.8628541,6.51763922 L47.8637695,6.56112668 C47.8871155,7.60803223 47.9109192,8.69018555 47.9063415,9.77371219 C47.9063415,9.77371219 47.9058838,9.7787475 47.903595,9.79019168 L47.8962708,9.82040402 L47.8244018,11.3136292 L59.5184326,11.3113404 L59.5147705,10.9561158 C59.488678,8.49380496 59.3980407,6.15371707 59.2373658,3.80172727 L59.2149353,3.47808844 L47.8170776,3.33114621 L47.8179932,3.68820187 C47.8207397,4.6733093 47.8440857,5.6959534 47.8628541,6.51763922 Z M51.5455628,6.37207031 C52.0655823,5.72113031 53.212738,5.02899164 54.3136596,5.02899164 C54.7572327,5.02899164 55.1371765,5.14617914 55.4420471,5.37689203 C56.0426331,5.83236691 56.3978577,6.55746457 56.4175416,7.36587527 C56.437683,8.17749023 56.1053467,8.95065305 55.5299378,9.43405148 C54.9980163,9.87945562 54.2591858,10.1348877 53.5020446,10.1348877 C53.4402466,10.1348877 53.3770752,10.1325989 53.3161927,10.1293945 C52.3265075,10.0753784 51.4878845,9.58877566 51.1280823,8.8600159 C50.7632447,8.12118527 50.927124,7.14477539 51.5455628,6.37207031 Z" id="Shape" fill="#CBE580"></path>
                        <polygon id="Path" fill="#CBE580" points="45.8102416 53.1340027 57.7752686 53.1742859 58.1304932 45.3286744 46.1956787 45.1318359"></polygon>
                        <path d="M37.6647949,10.2905273 C37.5933838,11.3520813 37.5256348,12.4136353 37.457428,13.4802246 L37.441864,13.7228393 L37.6634216,13.8226318 C39.0591431,14.4548034 40.6375123,14.7885131 42.2277832,14.7885131 C44.0542603,14.7885131 45.8409118,14.3568421 47.386322,13.5443115 L47.3963929,13.5401917 L47.5959778,13.4381104 L47.7717591,9.79431152 L37.6863098,9.96780398 L37.6647949,10.2905273 Z" id="Path" fill="#B2EAF9"></path>
                        <path d="M42.2286987,18.1329346 L42.0913697,18.1338502 C40.5688477,18.1338502 39.0724182,17.7127076 37.7636719,16.9161987 L37.2647095,16.6122436 L37.2299194,17.1954346 C36.6201783,27.4461364 36.161499,37.8126526 35.8676147,48.0065918 L35.8575439,48.3618164 L45.4916381,48.5298157 C45.4975891,48.5302734 45.5030823,48.5316468 45.5085755,48.5325622 L45.9036255,48.6044311 L47.4632263,16.1975098 L46.875,16.6127014 C45.5232239,17.5662232 43.8711548,18.1059265 42.2286987,18.1329346 Z M39.785614,30.75531 C39.9453736,30.7086182 40.1046752,30.6591797 40.2635193,30.6079102 L40.2841186,30.8221436 C40.1174927,30.8015442 39.9513245,30.7791138 39.785614,30.75531 Z" id="Shape" fill="#B2EAF9"></path>
                        <path d="M45.4852295,48.6543274 L35.8529663,48.4877014 L35.8428955,48.8356018 C35.8067321,50.1379395 35.7728577,51.4402771 35.741272,52.7412415 L35.7321166,53.1005859 L45.6852722,53.1330872 L45.9022522,48.6218262 L45.5058288,48.6520385 L45.4852295,48.6543274 Z" id="Path" fill="#B2EAF9"></path>
                        <path d="M26.3891602,3.42132562 L38.0451966,3.0812073 L38.1143189,2.1437073 C38.1454467,1.72027594 38.1770325,1.29684445 38.2090759,0.874328672 L38.2392884,0.480194063 L26.4381409,0.970458984 L26.3891602,3.42132562 Z" id="Path" fill="#AF7979"></path>
                        <path d="M28.9439392,44.3083191 C28.6605834,44.4383239 28.3232116,44.4987488 27.8823853,44.4987488 C27.714386,44.4987488 27.5518799,44.4905091 27.3944092,44.4827271 L24.361267,44.3238831 L24.2774964,45.7191468 L35.7989502,46.0340882 L35.8493041,44.5706177 L35.4364014,44.6264648 C34.9429322,44.6923828 34.4549561,44.7262573 33.9852905,44.7262573 C33.6021423,44.7262573 33.2148743,44.7056579 32.8349304,44.664917 C32.4957275,44.6282959 32.1020508,44.5687866 31.7546081,44.4049072 C31.3769531,44.2263795 31.0954284,43.9334107 30.981903,43.601532 C30.8509827,43.2165527 30.9764099,42.7619934 31.2730407,42.5450134 C31.3911438,42.4589538 31.5431214,42.4118041 31.7005921,42.4118041 C31.7623901,42.4118041 31.8241882,42.4191284 31.8841553,42.4333191 C32.0755005,42.4795533 32.2311401,42.5967408 32.3112487,42.7555847 C32.3263549,42.7853393 32.3130798,42.8242493 32.2842408,42.83844 C32.2746277,42.8434753 32.2654724,42.8457642 32.2554016,42.8457642 C32.2361755,42.8457642 32.2109986,42.8366088 32.2032165,42.8210449 C32.1418763,42.6896667 32.0141602,42.5926208 31.8544007,42.5550843 C31.8040466,42.5427246 31.7523193,42.5367737 31.6996765,42.5367737 C31.5682983,42.5367737 31.4433288,42.5756836 31.348114,42.6452637 C31.0871888,42.8352356 30.9837341,43.2215882 31.1009216,43.560791 C31.2011719,43.8592529 31.458435,44.1256713 31.8077087,44.2918396 C32.1354675,44.4465638 32.5012207,44.5028686 32.8477478,44.5399475 C33.2203675,44.5802307 33.5998535,44.6003723 33.9756775,44.6003723 C34.5030212,44.6003723 35.0372314,44.5605469 35.5622864,44.4822693 L35.8520508,44.4387818 L35.8616638,44.145813 C36.2681579,31.7070007 36.9154358,19.108429 37.7851868,6.70028684 L37.8121948,6.31118777 L34.8820495,6.40869141 C34.4485474,6.42333984 34.0003968,6.43890375 33.581543,6.56616211 C33.1237793,6.7044068 32.7575684,6.97814941 32.5758362,7.31781 C32.3547363,7.73300168 32.427063,8.25439453 32.7479554,8.53408816 C32.8752136,8.64212039 33.0464173,8.70162961 33.2295227,8.70162961 C33.2876587,8.70162961 33.3457946,8.69522098 33.3956909,8.68423465 C33.6044311,8.64257812 33.7701416,8.52264398 33.8516236,8.35418695 C33.8635254,8.32809445 33.8882447,8.31893918 33.9074707,8.31893918 C33.916626,8.31893918 33.9257812,8.32122797 33.9344788,8.32534793 C33.9537048,8.3345032 33.9624023,8.34960938 33.9665222,8.36105344 C33.9701843,8.37203977 33.9729309,8.38943484 33.9633178,8.40957645 C33.8671875,8.61053461 33.6703491,8.75518805 33.4217835,8.80691531 C33.358612,8.82064816 33.2931518,8.82751465 33.2281494,8.82751465 C33.0143737,8.82751465 32.8138733,8.75564578 32.6637268,8.6256409 C32.3071289,8.31756586 32.2201538,7.71652219 32.4659729,7.25738531 C32.6646423,6.88476562 33.0477905,6.5968323 33.5449219,6.44577023 C33.9779663,6.3139343 34.4540405,6.2974548 34.8825073,6.28280637 L37.8208923,6.18576047 L37.8456116,5.8346557 C37.8657532,5.54534906 37.8863525,5.25650027 37.9074096,4.96719363 L37.935791,4.58541867 L26.3630677,4.71450809 L26.317749,6.95800781 L26.7160034,6.91360477 C27.1476745,6.86599734 27.5074768,6.80374148 27.8883362,6.73828125 L27.915802,6.73370367 C28.3232116,6.66229242 28.744812,6.5885925 29.252472,6.53686523 C29.4062805,6.52084348 29.5806885,6.50299078 29.7587585,6.50299078 C30.0668334,6.50299078 30.3144837,6.55929563 30.5145264,6.67327875 C30.8303834,6.85546875 31.0409545,7.20794672 31.0510254,7.57186887 C31.0610962,7.92984012 30.8660889,8.30154422 30.5653382,8.49700922 C30.4060364,8.60046387 30.2160645,8.6576843 30.0325013,8.65859988 C29.9391175,8.65859988 29.8452759,8.64303586 29.7601318,8.61373898 C29.4781494,8.51806641 29.2712402,8.26629633 29.2442321,7.98843387 C29.2414856,7.95364383 29.2662048,7.92297363 29.3078613,7.91931152 C29.339447,7.91931152 29.3664551,7.94448855 29.3692017,7.9747009 C29.3902588,8.20220953 29.5669556,8.41644281 29.8027038,8.49655148 C29.874115,8.5203552 29.9510193,8.53225711 30.0311279,8.53225711 C30.1931763,8.53225711 30.3588867,8.48236078 30.4966736,8.39218137 C30.7653809,8.21823117 30.9338379,7.8977966 30.9265137,7.57461551 C30.9169007,7.25418094 30.7315064,6.94335938 30.4508972,6.78131109 C30.2687073,6.67739871 30.0494385,6.62933344 29.7619629,6.62933344 C29.5999146,6.62933344 29.4277955,6.64443973 29.2652893,6.66091922 C28.77182,6.71173102 28.3749389,6.78039551 27.9551696,6.85317996 L27.9359436,6.85638422 C27.5802612,6.91909793 27.1371459,6.99645996 26.6244506,7.05001828 L26.315918,7.0820618 L26.1534118,15.189972 C26.1534118,15.199585 26.1479187,15.2124023 26.1428834,15.2215576 L26.1071777,15.2888489 L24.3690491,44.1998291 L27.3820495,44.3568421 C27.5340271,44.364624 27.7061462,44.3737793 27.8791809,44.3737793 C28.1460572,44.3737793 28.541565,44.355011 28.8908386,44.1938782 C29.3211364,43.9970398 29.6928405,43.4902955 29.5426941,43.0151367 C29.4493103,42.722168 29.1586303,42.5028991 28.8510131,42.4937439 L28.8308716,42.4937439 C28.5301208,42.4937439 28.235321,42.6979065 28.1309509,42.9780579 C28.1199646,43.0064392 28.0929565,43.0192566 28.0709838,43.0192566 C28.0641175,43.0192566 28.0567932,43.0178834 28.0508423,43.0155945 C28.0297852,43.0078125 28.0192566,42.9931641 28.0142212,42.9821777 C28.0096436,42.9716491 28.0055237,42.9551696 28.0128479,42.935028 C28.1382751,42.6013184 28.4733581,42.3678588 28.8272095,42.3678588 L28.8519287,42.3683167 C29.2185974,42.3783874 29.5518493,42.6287842 29.6621705,42.9776002 C29.833374,43.5173034 29.42276,44.0885925 28.9439392,44.3083191 Z" id="Path" fill="#AF7979"></path>
                        <path d="M23.8604736,52.651062 L23.8009643,53.0589294 L35.6071472,53.0992126 L35.615387,52.7549743 C35.6515502,51.2480163 35.692749,49.710846 35.7408142,48.0560303 L35.7513428,47.694397 L35.3892517,47.694397 C35.381012,47.694397 35.3727722,47.6948548 35.3645325,47.6953125 L24.1744995,47.4421692 L23.8604736,52.651062 Z" id="Path" fill="#AF7979"></path>
                        <polygon id="Path" fill="#F7B36F" points="16.98349 19.2018128 25.7405091 19.309845 26.0137939 14.7550964 17.1528626 14.7651673"></polygon>
                        <path d="M16.9798279,19.32724 L15.8578491,48.8145446 L16.2030029,48.8328552 C17.2068786,48.8873291 18.2281494,48.9147949 19.237976,48.9147949 C20.716095,48.9147949 22.2061158,48.8562012 23.6668396,48.7399291 L23.9712525,48.7156677 L25.7322693,19.4357299 L16.9798279,19.32724 Z" id="Path" fill="#F7B36F"></path>
                        <path d="M23.4974671,50.2281189 C22.5878906,50.2546692 21.6494752,50.2679443 20.7092285,50.2679443 C19.2095947,50.2679443 17.6792907,50.2322388 16.1613464,50.1617432 L15.8070374,50.1452637 L15.6976318,53.0323792 L23.7739563,53.0593873 C23.7739563,53.0593873 23.7355042,52.6620483 23.7355042,52.6565552 L23.8815307,50.2171325 L23.4974671,50.2281189 Z" id="Path" fill="#F7B36F"></path>
                        <path d="M6.29058844,3.98162836 L6.20727539,3.98849484 C5.01754758,4.08462527 3.8529968,4.17572016 2.68295285,4.23248297 L2.36114508,4.24804688 L2.21328738,8.08685297 L9.94766238,7.80853266 L10.0694275,3.7252807 L9.68902594,3.7440491 C8.55194086,3.79989621 7.40249637,3.89236453 6.29058844,3.98162836 Z" id="Path" fill="#ED6D66"></path>
                        <polygon id="Path" fill="#ED6D66" points="0.836791992 43.7155151 8.87832645 43.7232971 9.84649664 11.1891175 2.08099359 11.493988"></polygon>
                        <path d="M0.721435547,46.7047119 L0.479278594,52.9806518 L8.50158691,53.0076599 L8.65814203,52.3406982 C8.64166266,52.3324584 8.62243652,52.3132324 8.62335211,52.2834778 L8.77899164,47.0256042 L0.721435547,46.7047119 Z M5.3443909,51.126709 C5.11413574,51.3212585 4.8106384,51.4279174 4.48974609,51.4279174 C4.23248297,51.4279174 3.98712164,51.3587952 3.78112793,51.2278747 C3.40393066,50.9870911 3.16040039,50.5293274 3.16040039,50.0614929 C3.16040039,49.9580384 3.17230219,49.8587037 3.19519043,49.7644043 C3.31008914,49.2897034 3.77883914,48.7605286 4.26773074,48.7605286 C4.28924555,48.7605286 4.3112182,48.7614441 4.33181766,48.763733 C4.84405523,48.817749 5.46340945,49.0988159 5.69274902,49.6055603 C5.91796875,50.1031494 5.76461789,50.7714844 5.3443909,51.126709 Z" id="Shape" fill="#ED6D66"></path>
                        <path d="M10.0300598,9.25231934 L9.85290527,15.1744079 L16.506958,15.1597595 C16.5156555,15.1597595 16.5261841,15.1620483 16.5357971,15.1661682 L17.0040893,15.3630066 L17.2338867,9.32647711 L10.0300598,9.25231934 Z" id="Path" fill="#F9D889"></path>
                        <path d="M9.04953,42.1916198 L9.66934207,41.5992737 C10.428772,40.8741761 11.4477539,40.436554 12.466278,40.3981018 C12.5193786,40.395813 12.5724792,40.3948975 12.6255798,40.3948975 C13.6358643,40.3948975 14.6617126,40.7830811 15.4394531,41.459198 L15.993805,41.9412232 L16.9358825,17.1716309 L9.78790289,17.3588562 L9.04953,42.1916198 Z" id="Path" fill="#F9D889"></path>
                        <path d="M15.8871459,42.1037292 C15.8807373,42.0968627 15.8738708,42.0895385 15.8660889,42.0817566 C15.098877,41.1181641 13.8560486,40.5198669 12.6210022,40.5198669 C12.5706482,40.5198669 12.5202942,40.5207825 12.4708557,40.5226136 C11.1776733,40.5715943 9.92477414,41.2687683 9.20333859,42.3390198 C9.20288086,42.3394775 9.19830328,42.3454284 9.18136594,42.3577881 L9.04174805,42.4594116 L8.74832156,52.2871399 C8.74740598,52.3205566 8.72360227,52.3352051 8.71353152,52.3402405 L8.86367801,53.0090332 L15.2352905,53.0310059 L15.6404114,53.0259704 L15.5863952,52.6437377 L15.9837341,42.2099304 L15.8871459,42.1037292 Z" id="Path" fill="#F9D889"></path>
                        <path d="M59.6864319,3.3865357 C59.6713256,3.17184445 59.4941712,3.00476074 59.2785645,3.00155637 L47.7616882,2.8527832 C47.6509095,2.84957883 47.5447083,2.89398187 47.4659729,2.97180176 C47.3872376,3.04916379 47.3423767,3.15490723 47.3419189,3.26522824 C47.3373413,4.3666077 47.3620605,5.46569824 47.3858643,6.52908328 C47.4064636,7.44186398 47.4266052,8.38211062 47.428894,9.32327273 L38.0712891,9.48486328 C38.2745361,6.4654541 38.4901429,3.45153809 38.7199402,0.445861875 C38.7290954,0.327758789 38.6869812,0.211486875 38.6050416,0.126342773 C38.522644,0.0411986719 38.4082031,-0.00366210938 38.2896423,-0.000207734362 L26.360321,0.496673555 C26.14151,0.505828828 25.9675598,0.683441133 25.9629821,0.902252227 L25.6947327,14.2790222 L17.5222779,14.2881775 L17.7127076,9.28024289 C17.7172852,9.16809082 17.6760865,9.05960086 17.5987243,8.97857672 C17.52182,8.89755246 17.4151611,8.85131836 17.3030091,8.84994504 L10.3953552,8.77990723 L10.5473327,3.67355344 C10.5509948,3.55865484 10.5065918,3.44741824 10.4246521,3.36685184 C10.3431702,3.28582758 10.2328491,3.24188227 10.1165771,3.24737555 C8.79684445,3.30093387 7.46063227,3.40896609 6.16882324,3.51333621 C4.88479617,3.61679074 3.55682367,3.72436523 2.25402832,3.77700809 C2.02514648,3.78616336 1.84753418,3.97888184 1.85668945,4.20776367 C1.85852051,4.2494202 1.86813352,4.28878781 1.88140875,4.32632449 C1.88140875,4.32815555 1.88049316,4.3299866 1.88049316,4.33227539 L0.000116608712,53.0273438 C-0.00411986719,53.1394958 0.0375365625,53.2489014 0.115356445,53.3299255 C0.193176328,53.4109498 0.300292969,53.4571839 0.412902891,53.4571839 L57.7377319,53.6517334 L57.83432,53.6517334 C57.8347779,53.6517334 57.8352356,53.6517334 57.8356934,53.6517334 C58.057251,53.6517334 58.2398987,53.4777832 58.2495117,53.2562256 L59.0679932,35.1200866 C59.1700745,32.8518677 59.2918396,30.5456543 59.4090271,28.314972 C59.6003723,24.6858216 59.7981263,20.9326172 59.9185181,17.2370911 C60.0787354,12.346344 60.0027466,7.81585687 59.6864319,3.3865357 Z M58.8867188,3.82507324 C59.0460205,6.15966797 59.1375732,8.52539062 59.1636657,10.9597779 L48.1929016,10.9616088 L48.2455444,9.86892703 C48.2528686,9.83825684 48.257904,9.80667117 48.257904,9.77371219 C48.2629395,8.67233273 48.2382202,7.57324219 48.2139587,6.510315 C48.1933594,5.58746344 48.1723022,4.63760379 48.1700134,3.68637082 L58.8867188,3.82507324 Z M57.7999877,44.8466491 L46.5705872,44.6607971 L46.6799927,42.3857116 L57.9153443,42.2877503 L57.7999877,44.8466491 Z M1.17050168,44.1934205 L8.51211551,44.2002868 L8.44253543,46.5344238 L1.09130859,46.2423705 L1.17050168,44.1934205 Z M10.1298523,17.7012634 L16.5701295,17.5328064 L15.6706238,41.193695 C14.790802,40.4296875 13.6193848,39.9998474 12.4525452,40.0460815 C11.3305664,40.0891113 10.236969,40.570221 9.42626953,41.3447571 L10.1298523,17.7012634 Z M16.191101,49.309845 C17.20047,49.3643189 18.2144166,49.3927002 19.2288209,49.3927002 C20.6854248,49.3927002 22.1429443,49.3354798 23.5894775,49.2237854 L23.5359192,50.1081848 C23.5253906,50.1072693 23.514862,50.1058959 23.503418,50.1063538 C21.0662842,50.1763916 18.5993958,50.1535034 16.1631775,50.039978 L16.191101,49.309845 Z M24.6006775,46.2052917 L35.4341126,46.5010071 C35.4231263,46.8594361 35.4135131,47.217865 35.4029846,47.5762939 C35.3965759,47.5758362 35.390625,47.5744629 35.3842163,47.5740052 L24.5329284,47.3281861 L24.6006775,46.2052917 Z M35.5096436,44.1348267 C34.6412659,44.263916 33.7586975,44.2835999 32.8852845,44.1902161 C32.5708008,44.1563415 32.2402955,44.106903 31.9587708,43.9736939 C31.6964721,43.8500977 31.505127,43.6582946 31.4337158,43.4486389 C31.3682556,43.2550049 31.4213562,43.0270385 31.5550232,42.9295349 C31.607666,42.8915405 31.6950989,42.8778076 31.7720032,42.8965759 C31.8264771,42.909851 31.8685912,42.9368591 31.884613,42.9689026 C31.9876099,43.1730652 32.2366334,43.2559205 32.4407959,43.1529236 C32.6454163,43.0499268 32.7278138,42.8009033 32.624817,42.5967408 C32.4989319,42.346344 32.2590638,42.162323 31.9665527,42.0913697 C31.6525268,42.0158386 31.3160706,42.0785522 31.0665893,42.2607422 C30.6436158,42.5692748 30.4678345,43.181305 30.6495667,43.7150573 C30.7923889,44.1361999 31.1407471,44.5037842 31.6044616,44.7225952 C31.9985962,44.908905 32.4284362,44.9743652 32.7969361,45.013733 C33.1919861,45.056305 33.5888672,45.077362 33.9857483,45.077362 C34.486084,45.077362 34.9859619,45.0416565 35.4826355,44.9743652 C35.4748535,45.2073669 35.4675293,45.4399109 35.4602051,45.6729127 L24.6501159,45.3781127 L24.6913147,44.6932983 L27.3573304,44.8320007 C27.5216674,44.8406982 27.6983643,44.8498535 27.8819275,44.8498535 C28.274231,44.8498535 28.6972045,44.8077393 29.0899658,44.6273803 C29.7180176,44.3389893 30.2293396,43.6029053 29.9977112,42.871399 C29.8425293,42.3820495 29.3756104,42.030487 28.8619995,42.0172119 C28.3451843,42.0016479 27.8645325,42.3303223 27.6841736,42.8109741 C27.6036071,43.0252076 27.7120971,43.2641602 27.9263306,43.3442688 C28.1401062,43.4248352 28.3790589,43.3163452 28.4596253,43.1021119 C28.5150146,42.9537963 28.6798096,42.8402709 28.8404846,42.8453064 C28.9984131,42.8494263 29.1600036,42.9707337 29.2076111,43.1217956 C29.2959595,43.3996582 29.0341186,43.7416077 28.7443542,43.874817 C28.3525085,44.0542603 27.8466797,44.0281677 27.4003601,44.0048217 L24.7407532,43.8665771 L26.4532471,15.3858948 C26.4839173,15.3291321 26.503601,15.2650452 26.5045166,15.1963806 L26.6610717,7.39929199 C27.1664428,7.34664914 27.588501,7.27340695 27.9963684,7.20245367 C28.4161377,7.12966922 28.8121032,7.06100461 29.3005371,7.01065066 C29.6919251,6.9708252 30.0361634,6.94885254 30.276947,7.08709711 C30.4490661,7.18597406 30.5690003,7.38555914 30.5740357,7.58422852 C30.5795287,7.78289789 30.4714966,7.9888916 30.3048705,8.09738156 C30.1831055,8.17611691 30.0292969,8.20175168 29.9125671,8.16192633 C29.8127747,8.12805176 29.7276306,8.03146359 29.718933,7.94219977 C29.6974182,7.71469113 29.4960022,7.54760742 29.2675781,7.56912234 C29.0396119,7.591095 28.872528,7.79296875 28.8945007,8.020935 C28.9338684,8.43521121 29.2364502,8.80737305 29.6466064,8.9465332 C29.7702026,8.98864746 29.9006653,9.0092468 30.0325013,9.0092468 C30.2819824,9.0092468 30.5360413,8.93508914 30.7562256,8.79180914 C31.162262,8.528595 31.415863,8.04519656 31.4021302,7.56134039 C31.3888549,7.0774841 31.1087037,6.60919195 30.6889343,6.36886594 C30.1977539,6.08688352 29.6305847,6.1445618 29.2163086,6.18713379 C28.6990357,6.23977664 28.2696533,6.31439203 27.8544616,6.38671875 C27.4722291,6.45309445 27.1087646,6.51580805 26.6775513,6.56433105 L26.7077637,5.06195062 L37.5567627,4.94064328 C37.53479,5.24185184 37.513733,5.54306027 37.492218,5.84426883 L34.8710632,5.93170172 C34.4265748,5.94680789 33.9230346,5.96328738 33.4419251,6.10977176 C32.8555298,6.2878418 32.3986816,6.63665766 32.1551514,7.09213254 C31.8301392,7.69958496 31.9496155,8.47366336 32.4330139,8.89160156 C32.6486205,9.07836914 32.9333496,9.17907715 33.2281494,9.17861941 C33.3169556,9.17861941 33.4066772,9.16992187 33.4954834,9.15115359 C33.8502503,9.07745367 34.1363525,8.86184695 34.2805481,8.5606384 C34.3794251,8.35418695 34.2919922,8.10699469 34.0855407,8.00811773 C33.8790893,7.90924078 33.631897,7.99667355 33.5330201,8.203125 C33.4881592,8.29742437 33.3737182,8.33038336 33.3265686,8.3404541 C33.1965638,8.36746219 33.0587768,8.33816531 32.9750061,8.26538086 C32.7836609,8.09967047 32.7433777,7.7485657 32.8857422,7.48260492 C33.0226136,7.22625727 33.3132935,7.01477051 33.6827087,6.90261844 C34.0594482,6.78817746 34.486084,6.77398687 34.898529,6.76025391 L37.4331666,6.67556766 C36.5625,19.1148376 35.9184265,31.6603089 35.5096436,44.1348267 Z M37.616272,4.11163336 L26.7251587,4.2329407 L26.7388916,3.53256223 L37.6826477,3.21395871 C37.6606751,3.51287836 37.6377868,3.81179812 37.616272,4.11163336 Z M23.6393737,48.38974 C21.1807252,48.5852051 18.6872864,48.6154174 16.2226868,48.4817505 L17.3176575,19.6833802 L25.3596497,19.7822571 L23.6393737,48.38974 Z M16.6017151,16.7033386 L10.1545716,16.8717956 L10.1907349,15.6504821 L16.5078736,15.6362916 C16.555481,15.6362916 16.6003418,15.6266784 16.6429138,15.6115723 L16.6017151,16.7033386 Z M9.50912473,10.724945 L2.45223996,11.0023499 L2.54699707,8.55194086 L9.58099359,8.29879758 L9.50912473,10.724945 Z M2.42019656,11.8322754 L9.48394781,11.5548705 L8.53683469,43.3717346 L1.2025452,43.3648682 L2.42019656,11.8322754 Z M9.09988406,52.2981263 L9.38735965,42.642517 C9.42672727,42.6145935 9.46334836,42.5816345 9.49172977,42.5390625 C10.1541138,41.5571595 11.3003541,40.9190368 12.4841309,40.8737182 C13.6660767,40.8283997 14.8599244,41.3777161 15.594635,42.3065186 C15.6047058,42.3188782 15.6161498,42.3284912 15.6271362,42.3399353 L15.2348327,52.6560974 C15.234375,52.6638795 15.2357483,52.6712037 15.2362061,52.6789856 L8.86505133,52.6574707 C8.99963379,52.5924682 9.09530637,52.4578857 9.09988406,52.2981263 Z M16.1453248,50.5123901 C17.6596069,50.5828857 19.1853333,50.6199646 20.7092285,50.6199646 C21.6439819,50.6199646 22.5782776,50.6066895 23.5075378,50.5796814 L23.3843994,52.6322937 C23.3825684,52.6579284 23.3843994,52.6826477 23.3871459,52.7069092 L16.0629272,52.6817321 L16.1453248,50.5123901 Z M24.2111205,52.68219 L24.5045471,47.8010559 L35.3736878,48.0473327 C35.3755188,48.0473327 35.3773499,48.0473327 35.3791809,48.0473327 C35.3823853,48.0473327 35.3860474,48.0464173 35.3892517,48.0464173 C35.343933,49.6147155 35.3013611,51.1816406 35.2638245,52.7467346 L24.2070007,52.709198 C24.2079163,52.7000427 24.2106628,52.6913452 24.2111205,52.68219 Z M36.1949157,48.8452148 L45.4792786,49.0063477 C45.4820251,49.0063477 45.4843139,49.0063477 45.4870605,49.0063477 C45.5021667,49.0063477 45.5172729,49.003601 45.5319213,49.0017701 L45.3501892,52.781067 L36.0923767,52.7499389 C36.1235046,51.4494323 36.1582946,50.1475525 36.1949157,48.8452148 Z M45.5712891,48.1869506 C45.546112,48.1819153 45.5204773,48.1782532 45.493927,48.1777955 L36.2187195,48.0171204 C36.5144348,37.7778626 36.9699096,27.47818 37.5810241,17.2160339 C38.9323425,18.0395508 40.5075073,18.4849548 42.0909118,18.4849548 C42.1366882,18.4849548 42.1824646,18.4849548 42.2282409,18.4840393 C43.9567566,18.4561158 45.6655884,17.8953552 47.0777893,16.8992614 L45.5712891,48.1869506 Z M47.123108,15.960846 C47.026062,15.9544372 46.927185,15.980072 46.8438721,16.0437012 C45.5227662,17.0562744 43.8789368,17.6289368 42.2149658,17.6559448 C40.5903626,17.6852416 38.9726257,17.1885681 37.6382447,16.2648011 C37.676239,15.6376648 37.7146911,15.0100709 37.7540589,14.3829346 C39.1607666,14.9711609 40.6919861,15.2641296 42.2241211,15.2641296 C43.9434814,15.2641296 45.6632995,14.8951721 47.2096253,14.163208 L47.123108,15.960846 Z M47.4023438,10.1522827 L47.2549439,13.2174682 C47.2503662,13.2197571 47.2453308,13.2211303 47.2402955,13.2234192 C44.3701172,14.7363281 40.7643128,14.841156 37.8085327,13.5031127 C37.8758239,12.4397278 37.9444886,11.3763428 38.015442,10.3138733 L47.4023438,10.1522827 Z M37.8588867,0.847320586 C37.8108216,1.4772034 37.7645873,2.10845953 37.7178955,2.73925781 L26.7485046,3.0587768 L26.7837525,1.30828852 L37.8588867,0.847320586 Z M25.6407165,15.1071166 L25.4090882,18.9541627 L17.3487854,18.8548279 L17.4911498,15.116272 L25.6407165,15.1071166 Z M16.8690491,9.67391965 L16.6726685,14.8425293 C16.6218567,14.8205566 16.5660095,14.8077393 16.506958,14.8077393 C16.506958,14.8077393 16.5065003,14.8077393 16.5060424,14.8077393 L10.2154541,14.82193 L10.3710937,9.60754395 L16.8690491,9.67391965 Z M6.2356568,4.33868414 C7.37411496,4.24667355 8.54690555,4.15191656 9.7064209,4.09469602 L9.60571289,7.46887207 L2.57904047,7.72201535 L2.69989008,4.58404547 C3.88504031,4.52636719 5.07751465,4.43206781 6.2356568,4.33868414 Z M1.05926508,47.0700073 L8.41827398,47.3625183 L8.27178961,52.273407 C8.26675418,52.4404908 8.36242676,52.5865173 8.50296023,52.6560974 L0.844573945,52.6304626 L1.05926508,47.0700073 Z M57.4401855,52.8218079 L46.179657,52.7838135 L46.5307617,45.4888916 L57.7624512,45.6747436 L57.4401855,52.8218079 Z M59.0908814,17.210083 C58.9700318,20.8973694 58.7727356,24.6459961 58.5818482,28.2714844 C58.4642029,30.50354 58.3428955,32.8111267 58.2403564,35.0825501 L57.9528809,41.459198 L46.7198181,41.5571595 L48.1530762,11.7901611 L59.1696166,11.7878723 C59.1773987,13.5525513 59.1513061,15.3547669 59.0908814,17.210083 Z" id="Shape" fill="#000000"></path>
                        <path d="M3.87680051,40.6860352 C4.25674441,40.9707642 4.72961426,41.1172486 5.20156863,41.1172486 C5.54122922,41.1172486 5.88043219,41.0417175 6.18438727,40.8874512 C6.54418945,40.7052612 6.80145258,40.4360962 6.90856934,40.1293945 C7.10678098,39.5635986 6.78176883,38.972168 6.39541629,38.662262 C5.99624637,38.3413697 5.49957281,38.2063294 5.06149289,38.0863952 C4.99374387,38.0680847 4.92050168,38.0809021 4.86282352,38.1216431 C4.80514523,38.1619263 4.76898188,38.226471 4.76348883,38.2969665 L4.69116211,39.2468262 C4.68109125,39.3772888 4.778595,39.4908142 4.90905762,39.500885 C5.04043582,39.5095826 5.15304563,39.4134521 5.16265875,39.2829895 L5.21347043,38.6206055 C5.53482059,38.7149048 5.84838867,38.8298034 6.09924316,39.0312195 C6.36795047,39.2468262 6.57852176,39.6395873 6.46224973,39.9728393 C6.37207031,40.2305603 6.11526492,40.3916931 5.9706116,40.4653931 C5.39978027,40.7542419 4.67239383,40.6910706 4.16015625,40.3074646 C3.64837641,39.9238587 3.38287359,39.2436218 3.50006109,38.6146546 C3.52432254,38.4860229 3.43963617,38.3624268 3.31100461,38.338623 C3.18237305,38.3143616 3.0587768,38.3995056 3.0349732,38.5276794 C2.88528445,39.3296814 3.22357172,40.1971436 3.87680051,40.6860352 Z" id="Path" fill="#000000"></path>
                        <path d="M3.67034906,37.0820618 C3.99810797,37.3036194 4.40963742,37.3118591 4.71084598,37.3182679 L6.57852176,37.3562623 C6.59042355,37.3562623 6.60415652,37.35672 6.6192627,37.35672 C6.73141477,37.35672 6.9259643,37.3416138 7.0513916,37.1850586 C7.1731568,37.0326233 7.14889523,36.8421936 7.13745117,36.7506409 L6.99554437,35.6222534 C6.979065,35.4927063 6.86004633,35.3997803 6.73095703,35.4171752 C6.60140988,35.433197 6.50939941,35.5517578 6.52587891,35.681305 L6.6677857,36.8096924 C6.67144781,36.839447 6.6737366,36.8632507 6.67419434,36.880188 C6.65725711,36.882019 6.63024902,36.8838502 6.58813477,36.8824768 L5.39108273,36.8582154 L5.38558957,35.491333 C5.38513184,35.3608704 5.27893066,35.2555847 5.14892578,35.2555847 C5.14846805,35.2555847 5.14801031,35.2555847 5.14801031,35.2555847 C5.01708984,35.2565003 4.91180414,35.3627014 4.91226199,35.4936218 L4.91775516,36.8486023 L4.72045898,36.8444824 C4.39590457,36.8380737 4.13177484,36.8225098 3.93539426,36.6897584 C3.75549316,36.5684509 3.6328125,36.3363647 3.59939578,36.0539245 C3.56597906,35.7728577 3.61633301,35.4725647 3.66577148,35.1828002 C3.68728641,35.0537109 3.60076898,34.931488 3.47167969,34.9099732 C3.34259039,34.8880005 3.2208252,34.9749756 3.19885254,35.104065 C3.14666742,35.4116822 3.08761594,35.7609558 3.12927246,36.1097718 C3.17916867,36.5290833 3.37646484,36.8833923 3.67034906,37.0820618 Z" id="Path" fill="#000000"></path>
                        <path d="M6.50939941,31.5774537 C5.94635016,31.2771607 5.25512695,31.2350463 4.66003418,31.4634704 C4.04754633,31.6992188 3.58749387,32.1620179 3.45840457,32.6719665 C3.38882449,32.947998 3.38378906,33.3682252 3.75640875,33.8026429 C4.28329465,34.4165039 4.9681091,34.6733093 5.59020996,34.6733093 C5.96374512,34.6733093 6.31439203,34.5808411 6.59454352,34.4178772 C7.26150516,34.028778 7.59658816,33.1919861 7.35672,32.5117493 C7.22167969,32.128601 6.92047125,31.7967224 6.50939941,31.5774537 Z M6.35604855,34.0086364 C5.60531613,34.4462585 4.6270752,34.0905762 4.1157532,33.4945678 C3.92257688,33.2693482 3.85620117,33.0317688 3.91754156,32.7877807 C4.00772098,32.4302673 4.36569211,32.0837402 4.82986453,31.9056702 C5.02990723,31.8287659 5.24322516,31.7907715 5.4570007,31.7907715 C5.74493414,31.7907715 6.03240961,31.8594361 6.28646848,31.9949341 C6.5885925,32.156067 6.81564328,32.401886 6.90994266,32.66922 C7.07427984,33.1338502 6.82571414,33.7348938 6.35604855,34.0086364 Z" id="Shape" fill="#000000"></path>
                        <path d="M3.45108035,28.4815979 L5.38696289,29.2822266 C4.81338504,29.7010804 4.18762207,30.0411987 3.52203375,30.2947998 C3.41903684,30.3337097 3.35678098,30.4389954 3.37188727,30.5484009 C3.38699344,30.6578064 3.47579953,30.7420349 3.58520508,30.7516479 L6.99966434,31.0523987 C7.0065307,31.0533142 7.01385492,31.0533142 7.02072141,31.0533142 C7.14202875,31.0533142 7.2454834,30.960846 7.25601199,30.8377076 C7.26745605,30.7072448 7.17132563,30.5923462 7.04132086,30.5809021 L4.53689578,30.36026 C5.05737305,30.0938415 5.54855344,29.7738647 6.00494391,29.4039916 C6.06994629,29.3518066 6.10198969,29.2689514 6.09008789,29.1860962 C6.07818609,29.1036987 6.02371219,29.0332031 5.94635016,29.0016175 L4.39727789,28.3607483 C5.35537723,28.2307434 6.32583621,28.200531 7.2917175,28.2719421 C7.42263797,28.2824707 7.53524777,28.1840515 7.54486078,28.0535889 C7.55447391,27.9231262 7.45697016,27.8096009 7.32650754,27.7999877 C6.04522711,27.7052307 4.75616461,27.7830505 3.49594113,28.0307006 C3.39340207,28.0508423 3.31604004,28.1355286 3.3059693,28.2394409 C3.2954407,28.3433532 3.35449219,28.4413147 3.45108035,28.4815979 Z" id="Path" fill="#000000"></path>
                        <path d="M4.41741937,26.5205384 C4.35974121,26.4683532 4.35287473,26.3099671 4.34921262,26.2243652 L4.28787234,24.8771667 C4.28192133,24.7467041 4.1725159,24.6473694 4.04067996,24.6514893 C3.91021734,24.6569824 3.80905148,24.7677612 3.8150025,24.8986816 L3.87634277,26.2458802 C3.88366699,26.4102173 3.89602664,26.6853333 4.09790039,26.869812 C4.27413937,27.030487 4.50531,27.0414734 4.65866086,27.0487976 L7.11044309,27.1650696 C7.1141052,27.1655273 7.1177673,27.1655273 7.12142941,27.1655273 C7.18414312,27.1655273 7.24502566,27.1403503 7.28942871,27.0954895 C7.3365784,27.0483398 7.36129758,26.9828796 7.35763547,26.9160462 L7.23815918,24.6720886 C7.2312927,24.5420837 7.11822516,24.4404602 6.98959348,24.4486999 C6.85867312,24.4555664 6.75842285,24.5672607 6.76574707,24.6972656 L6.87103266,26.6798401 L5.84472656,26.6308594 L5.71884152,25.4754639 C5.70465094,25.345459 5.58837891,25.2516175 5.45791629,25.265808 C5.32791141,25.2799987 5.23406977,25.3967285 5.24826047,25.5267334 L5.3659057,26.608429 L4.68109125,26.5759277 C4.59548953,26.5722656 4.46685797,26.5658569 4.41741937,26.5205384 Z" id="Path" fill="#000000"></path>
                        <path d="M7.51740847,22.6464844 C7.51556391,22.5160218 7.40524289,22.4139404 7.2775268,22.4130248 C6.28692633,22.4253845 5.28808594,22.3658753 4.30618289,22.2354127 L4.32495117,21.5835572 C4.32861328,21.4526367 4.22607422,21.3436889 4.09515375,21.3400268 C3.9642334,21.337738 3.85574344,21.4393616 3.85208133,21.5698242 L3.7902832,23.7226868 C3.78662109,23.8536071 3.88961789,23.962555 4.02008062,23.9662171 C4.02236941,23.9662171 4.0246582,23.9662171 4.02694699,23.9662171 C4.15466309,23.9662171 4.25994867,23.8645935 4.26361078,23.7364196 L4.29290766,22.7101136 C5.19378656,22.8273011 6.1079407,22.8881836 7.0170593,22.8881836 C7.10586551,22.8881836 7.19512945,22.8877259 7.28393555,22.8863525 C7.41439816,22.8845215 7.51876828,22.7774048 7.51740847,22.6464844 Z" id="Path" fill="#000000"></path>
                        <path d="M7.38555914,18.5206604 L5.50552371,20.0619506 L5.46890262,19.6037292 C5.45379633,19.4187927 5.43731695,19.209137 5.35675055,19.007721 C5.25466922,18.7522888 5.06652832,18.5673523 4.83947754,18.4996032 C4.48562625,18.3934021 4.13955691,18.592987 3.9537048,18.8374329 C3.77655023,19.0708923 3.70697016,19.3460084 3.64562988,19.5890808 C3.58749387,19.8207093 3.43231195,20.4368591 3.84384152,20.776062 C4.04525754,20.9413147 4.29931641,20.9632874 4.49890137,20.9632874 C4.53735352,20.9632874 4.57443234,20.9628295 4.60784906,20.9619141 L6.94152832,20.9097291 C7.07244867,20.9065247 7.17590332,20.7984925 7.17269895,20.667572 C7.16995242,20.5389404 7.06466672,20.4364014 6.93649289,20.4364014 C6.93466184,20.4364014 6.93283078,20.4364014 6.93099973,20.4364014 L5.76416016,20.4624939 L5.76324469,20.4624939 L7.68585211,18.8864135 C7.78656,18.8035583 7.80166629,18.6547852 7.71881109,18.5536194 C7.63595578,18.4524537 7.48672488,18.4373474 7.38555914,18.5206604 Z M4.59777832,20.4885865 C4.41421512,20.4922486 4.24163813,20.4899597 4.14505008,20.4103089 C4.02374273,20.3105163 4.0104675,20.0793457 4.10522461,19.7044372 C4.15740961,19.495697 4.21188352,19.2800904 4.33090207,19.1239929 C4.40414426,19.026947 4.52728266,18.9440918 4.64218137,18.9440918 C4.66323855,18.9440918 4.68383789,18.9468384 4.70443723,18.9527893 C4.78912359,18.9779662 4.87060547,19.0663147 4.91729742,19.1830444 C4.97131348,19.3180847 4.98413086,19.4819641 4.99694824,19.640808 L5.0637818,20.4776002 L4.59777832,20.4885865 Z" id="Shape" fill="#000000"></path>
                        <path d="M3.61221316,16.0272217 L4.9822998,16.8054199 L3.85208133,17.5621032 C3.74359125,17.63443 3.71429437,17.7818298 3.78707883,17.8903198 C3.83239746,17.9585266 3.9074707,17.9951477 3.98391727,17.9951477 C4.02923578,17.9951477 4.07501227,17.9823304 4.11529547,17.9553223 L5.56411746,16.9857788 C5.56686398,16.98349 5.56915289,16.9807434 5.57189941,16.9784545 L7.95547488,17.276001 C7.96508789,17.2773743 7.97515875,17.277832 7.98477176,17.277832 C8.10241699,17.277832 8.20449832,17.1903991 8.21914676,17.0704651 C8.23562625,16.940918 8.14361578,16.822815 8.01361078,16.8063354 L5.52841184,16.4964294 C5.48995969,16.491394 5.45288086,16.4968873 5.41900641,16.5092468 L3.84613031,15.6156921 C3.73260492,15.5511475 3.58795172,15.5909729 3.52340695,15.7044983 C3.4588623,15.8180237 3.49868777,15.962677 3.61221316,16.0272217 Z" id="Path" fill="#000000"></path>
                        <path d="M14.5033264,35.6904602 C14.6044922,35.6904602 14.6983337,35.625 14.7299194,35.5229187 C14.7679138,35.3979492 14.697876,35.2656555 14.5729065,35.2272034 L13.4005737,34.8678588 L13.3602905,33.2533264 L14.3403626,32.8907776 C14.4625854,32.845459 14.5252991,32.7095032 14.4799805,32.5868225 C14.4346618,32.4641419 14.2987061,32.401886 14.1760254,32.4472045 L10.8535767,33.6753845 C10.7647705,33.7083435 10.5789185,33.7770081 10.5061341,33.9660645 C10.4658509,34.0708923 10.4708862,34.18396 10.5198669,34.2851257 C10.6201172,34.4915771 10.8659363,34.5858764 10.9666443,34.6165466 L14.4337464,35.6799316 C14.4570923,35.6867981 14.4804382,35.6904602 14.5033264,35.6904602 Z M11.007843,34.1230774 C11.0110474,34.1221618 11.0142517,34.1207885 11.0179138,34.1194153 L12.8910827,33.4268189 L12.9231263,34.7213745 L11.1053467,34.1642761 C11.0668945,34.1523743 11.0339355,34.1377259 11.007843,34.1230774 Z" id="Shape" fill="#000000"></path>
                        <path d="M10.8078002,31.9917298 C10.8924866,32.0223998 10.9785462,32.0324707 11.0591126,32.0324707 C11.1474609,32.0324707 11.2298584,32.0201111 11.2989807,32.010498 L14.5161438,31.5435791 C14.6456909,31.5248108 14.7354127,31.4048767 14.7166443,31.2753295 C14.697876,31.1462402 14.577942,31.0565186 14.4483948,31.0752868 L12.8146362,31.3124085 C13.2733154,30.6166077 13.8647461,30.0036621 14.544983,29.5248412 C14.6516419,29.4493103 14.6772766,29.3014526 14.6022034,29.1947937 C14.5266724,29.0881348 14.3792725,29.0625 14.2721557,29.1375732 C13.6624146,29.5674134 13.1185912,30.0975036 12.669983,30.6958008 C12.6667786,30.6335449 12.6617432,30.5712891 12.6544189,30.5085755 C12.6022338,30.0691223 12.4246216,29.6896362 12.154541,29.440155 C11.8107605,29.1233825 11.3209534,29.0299987 10.9355163,29.2085266 C10.6219482,29.35318 10.3820801,29.6781921 10.2941895,30.0778198 C10.221405,30.4101562 10.2525329,30.7489014 10.279541,31.047821 C10.2992249,31.2606811 10.3514099,31.8269348 10.8078002,31.9917298 Z M10.7569886,30.1794434 C10.8132935,29.9235534 10.9542846,29.721222 11.1341858,29.6379089 C11.1991882,29.6081543 11.2728881,29.5935059 11.348877,29.5935059 C11.5164185,29.5935059 11.6976928,29.6626282 11.8336487,29.7880554 C12.020874,29.9610901 12.1453857,30.2366638 12.1842956,30.5644226 C12.2167969,30.8377076 12.1920776,31.125183 12.1600342,31.4071655 L11.230774,31.541748 C11.1387634,31.5550232 11.034851,31.5705872 10.9680176,31.5463256 C10.8517455,31.5042115 10.7807923,31.3270569 10.7514954,31.0047913 C10.7258606,30.7269287 10.6997681,30.4399109 10.7569886,30.1794434 Z" id="Shape" fill="#000000"></path>
                        <path d="M10.9107971,28.4143066 C10.9130859,28.4143066 10.9153747,28.4143066 10.9176635,28.4143066 C11.0453796,28.4143066 11.1506653,28.312683 11.1543274,28.1845092 L11.1996459,26.6143799 L14.4424439,26.6304016 C14.4429016,26.6304016 14.4433594,26.6304016 14.4438171,26.6304016 C14.573822,26.6304016 14.6800232,26.5255737 14.6804869,26.3951111 C14.6813965,26.2641907 14.575653,26.1579895 14.4447327,26.1570739 L11.2129212,26.1410522 L11.2417603,25.1394654 C11.2454224,25.0090027 11.1424255,24.900055 11.0119629,24.8963929 C10.8805847,24.8918152 10.7725525,24.9952698 10.7688904,25.1257324 L10.6814576,28.1703186 C10.6773376,28.301239 10.7803345,28.4101868 10.9107971,28.4143066 Z" id="Path" fill="#000000"></path>
                        <path d="M18.327942,36.250763 C18.3320618,36.250763 18.3361816,36.2512207 18.3403015,36.2512207 C18.4652709,36.2512207 18.5696412,36.1528015 18.5765075,36.0264587 L18.624115,35.0976563 L22.3182679,35.2912903 C22.3223877,35.291748 22.3269654,35.291748 22.3306275,35.291748 C22.4560547,35.291748 22.5604248,35.1937866 22.5668334,35.0674439 C22.5736999,34.9369812 22.4734498,34.8257447 22.342987,34.8188782 L18.6488343,34.6252441 L18.6987305,33.6524964 C18.705597,33.5220338 18.6053467,33.4103393 18.4748841,33.4039307 C18.3444213,33.3952331 18.2327271,33.4973145 18.2263184,33.6277771 L18.1036377,36.0021973 C18.0967712,36.1326599 18.1974792,36.2438965 18.327942,36.250763 Z" id="Path" fill="#000000"></path>
                        <path d="M17.6710511,42.0204163 C18.3389283,42.1343994 19.0141296,42.2113037 19.6911621,42.2520446 L19.7113037,43.8858033 C19.061737,43.8537598 18.4135437,43.7965393 17.7708435,43.7132263 C17.6417542,43.6967468 17.5222779,43.7878418 17.5057983,43.9173889 C17.4888611,44.0473938 17.5804138,44.1659545 17.7099609,44.1824341 C18.7788391,44.3211364 19.8623658,44.3907165 20.9422302,44.3907165 C21.2553405,44.3907165 21.5679932,44.3847656 21.880188,44.3733216 C22.0106507,44.3682861 22.1127319,44.2584229 22.1076966,44.1275025 C22.1026611,43.9970398 21.9932556,43.8935852 21.8623352,43.8999939 C21.304779,43.9210511 20.7449341,43.9219665 20.1850891,43.9045716 L20.1649475,42.2740173 C20.3855896,42.2822571 20.6066895,42.2868347 20.8277893,42.2868347 C21.1386108,42.2868347 21.4494323,42.2790527 21.7593384,42.2634888 C21.8902588,42.2570801 21.9905091,42.1458435 21.9841003,42.0153809 C21.9776917,41.8849182 21.8678284,41.7819213 21.7359925,41.7910767 C20.4052734,41.8569947 19.0640259,41.7773438 17.7502441,41.5539551 C17.6220703,41.5319824 17.4993896,41.6184997 17.477417,41.7471314 C17.4554443,41.8762207 17.5419616,41.9984436 17.6710511,42.0204163 Z" id="Path" fill="#000000"></path>
                        <path d="M18.0986023,40.2497864 C19.4192505,40.4823304 20.7701111,40.6095886 22.1122741,40.6283569 C22.1131897,40.6283569 22.1141052,40.6283569 22.1154785,40.6283569 C22.2445678,40.6283569 22.3503113,40.5244446 22.352166,40.3948975 C22.3539734,40.2644348 22.2496032,40.1568604 22.1186829,40.1550293 C20.8016967,40.1367188 19.476471,40.0117493 18.1800843,39.7837829 C18.0514526,39.7608948 17.928772,39.8469544 17.9063415,39.9755859 C17.8834534,40.1046752 17.969513,40.227356 18.0986023,40.2497864 Z" id="Path" fill="#000000"></path>
                        <path d="M18.4034729,38.8092041 C18.5948181,39.0527344 18.8562012,39.206543 19.1203308,39.2312623 C19.5579529,39.2733764 19.9269104,38.9712525 20.1274109,38.6764526 C20.2528382,38.4933471 20.3388977,38.2960511 20.4222107,38.1056214 C20.4698181,37.9975891 20.5142212,37.8950501 20.5654908,37.7970886 C20.6689453,37.5970459 20.8438111,37.3439026 21.0900879,37.2756959 C21.3130188,37.21344 21.5849304,37.3223877 21.7369079,37.5343323 C21.8847656,37.7403259 21.9300843,38.0360413 21.8577575,38.3248901 C21.7927552,38.5858154 21.6384888,38.8462829 21.3995361,39.098053 C21.3098145,39.1932679 21.3134766,39.3429565 21.4086914,39.4326783 C21.45401,39.4761657 21.5126038,39.4976807 21.5711975,39.4976807 C21.6339111,39.4976807 21.6966247,39.4729615 21.7433167,39.4239807 C22.039032,39.1117859 22.2322083,38.7808228 22.3173523,38.4397888 C22.4221802,38.0172729 22.3493958,37.5759888 22.1214294,37.2583008 C21.8536377,36.8847656 21.3771057,36.7044068 20.9632874,36.8193054 C20.6382751,36.9099427 20.3553772,37.1726989 20.1448059,37.5791931 C20.0871277,37.6913452 20.0367737,37.8053284 19.9887084,37.9161071 C19.9104309,38.0941772 19.836731,38.2630921 19.7364807,38.4100342 C19.6170045,38.5848998 19.39682,38.7812805 19.1638184,38.7597656 C19.028778,38.7469482 18.8873291,38.6585999 18.7756348,38.5166931 C18.6593627,38.3683777 18.5838318,38.1829834 18.5105896,37.9907227 C18.4327698,37.78656 18.3654785,37.5888061 18.3929443,37.4084473 C18.4140014,37.2697448 18.5229492,37.1443177 18.6222839,37.1443177 C18.6245728,37.1447754 18.6268616,37.1447754 18.6286927,37.1447754 C18.757782,37.1447754 18.8630677,37.0413209 18.8653564,36.9122314 C18.8676452,36.7813111 18.763733,36.6737366 18.6332702,36.6714311 C18.2514954,36.6687012 17.9759216,37.0046998 17.9251099,37.3374939 C17.880249,37.6309205 17.971344,37.9037475 18.0679322,38.158722 C18.1517029,38.3779908 18.2460022,38.6082458 18.4034729,38.8092041 Z" id="Path" fill="#000000"></path>
                        <path d="M22.3800659,30.5763245 C21.614685,30.0119018 20.7138061,29.790802 19.908142,29.9688721 C19.2974854,30.1043701 18.5339355,30.6230163 18.3128357,31.2574768 C18.1842041,31.6259766 18.2510377,31.9866943 18.5055541,32.2998047 C19.2086791,33.1654358 20.2111816,33.6616516 21.2297058,33.6616516 C21.3189697,33.6616516 21.4086914,33.6579895 21.4979554,33.6502076 C21.9364929,33.6126709 22.3109436,33.4899902 22.6116943,33.2858276 C22.9833984,33.0335999 23.2269287,32.6586914 23.2795716,32.2572327 C23.3555603,31.6763306 23.0195618,31.047821 22.3800659,30.5763245 Z M22.8103638,32.1958923 C22.7760315,32.4591064 22.6020813,32.7200318 22.3457337,32.8944397 C22.1131897,33.0523682 21.8142701,33.1480407 21.4572143,33.1787109 C20.5059814,33.2606507 19.5387268,32.8211975 18.8731384,32.0013428 C18.7234498,31.8173217 18.6863708,31.6246032 18.7600709,31.4131165 C18.9193725,30.9558105 19.5350647,30.536499 20.0106811,30.4312134 C20.1548767,30.3991699 20.3050232,30.383606 20.4579163,30.383606 C21.0067748,30.383606 21.5945435,30.585022 22.098999,30.9571839 C22.2857666,31.0949707 22.8895569,31.5916443 22.8103638,32.1958923 Z" id="Shape" fill="#000000"></path>
                        <path d="M18.4707642,29.4735717 C18.6575318,29.5930481 18.8735963,29.5985413 19.0315247,29.6026611 L20.4647827,29.6401978 C20.4776002,29.647522 20.4908753,29.6539307 20.5046081,29.6594238 C20.5705261,29.6841431 20.6419372,29.6781921 20.7009888,29.6461487 L22.9129029,29.7033691 C22.9151917,29.7033691 22.9170227,29.7033691 22.9193115,29.7033691 C23.0470276,29.7033691 23.1523132,29.6012878 23.1555176,29.4726562 C23.1591797,29.3421936 23.0557252,29.2337037 22.9252624,29.2300416 L21.1111451,29.1833496 C21.7341614,28.4815979 22.4542236,27.8778076 23.2571412,27.3847962 C23.3688354,27.3165893 23.4036255,27.1705628 23.3349609,27.0593262 C23.2667542,26.9480896 23.1207275,26.9132995 23.0099487,26.9815064 C22.197876,27.480011 21.4668274,28.0860901 20.8296204,28.7882995 C20.8099365,28.444519 20.7426452,28.0957031 20.5691529,27.7780151 C20.2734375,27.2364807 19.5671081,26.8254089 18.9413452,27.1064759 C18.5073853,27.3010254 18.2304382,27.7674866 18.1407165,28.4550476 C18.060608,29.0707397 18.2762146,29.34906 18.4707642,29.4735717 Z M18.6103821,28.5159302 C18.6488343,28.2215882 18.7678528,27.702942 19.1349792,27.538147 C19.2077637,27.5056458 19.284668,27.4905396 19.3629456,27.4905396 C19.6728516,27.4905396 20.0006104,27.7244568 20.1539612,28.0046081 C20.3407288,28.3465576 20.3704834,28.7658691 20.3617859,29.1636657 L19.0434265,29.1293334 C18.9299011,29.1265869 18.8017273,29.1233825 18.7257386,29.0748596 C18.5691833,28.9746094 18.592987,28.6505127 18.6103821,28.5159302 Z" id="Shape" fill="#000000"></path>
                        <path d="M18.5865784,26.4678955 C18.6328125,26.4678955 18.6795045,26.4546204 18.7202454,26.426239 L20.5773926,25.1481628 L23.4159851,25.4965209 C23.4255982,25.4974365 23.4356689,25.4983521 23.4448242,25.4983521 C23.5629272,25.4983521 23.6650085,25.4100036 23.679657,25.2905273 C23.6956787,25.1605225 23.6032104,25.0424194 23.4736634,25.0268555 L20.5508423,24.6679687 L18.9491272,23.3628845 C18.8475036,23.280487 18.6987305,23.2955932 18.6158753,23.3972168 C18.5334778,23.4983825 18.548584,23.6476136 18.6497497,23.730011 L20.0939941,24.9064636 L18.4519958,26.0366822 C18.3444213,26.1103821 18.3169556,26.257782 18.3911133,26.3658142 C18.4373474,26.43219 18.5110474,26.4678955 18.5865784,26.4678955 Z" id="Path" fill="#000000"></path>
                        <path d="M43.167572,42.3710632 C42.8283691,42.2241211 42.4507141,42.2117614 42.131195,42.338562 C41.6629029,42.5239563 41.3818359,42.9194641 41.1099244,43.3016967 C40.9062195,43.5887146 40.7130432,43.8597107 40.4539489,44.029541 C40.20401,44.1929626 39.8735046,44.2410279 39.5480346,44.1600036 C39.2221069,44.0794372 38.9520264,43.8835144 38.807373,43.6216736 C38.6627197,43.3602905 38.6402893,43.0274964 38.7451172,42.708435 C38.849945,42.3893737 39.0660095,42.135315 39.3374634,42.0103454 C39.4560241,41.9558716 39.5082093,41.8153382 39.4537354,41.6967773 C39.3992614,41.5782165 39.258728,41.5260315 39.1401673,41.5805053 C38.749237,41.7594909 38.4411621,42.1170045 38.2955932,42.5610352 C38.1495667,43.0046081 38.1852722,43.4747314 38.3935547,43.8510131 C38.6018372,44.2272949 38.9808655,44.507904 39.4345092,44.6200561 C39.888153,44.7322083 40.3541565,44.6612549 40.7139587,44.4255066 C41.0476685,44.2066956 41.2756348,43.8858033 41.4962768,43.5758972 C41.7388916,43.2348633 41.9677734,42.9125977 42.305603,42.7784729 C42.5088502,42.6983643 42.7546692,42.7079773 42.9789734,42.805481 C43.2037354,42.9029846 43.378601,43.0755615 43.4587097,43.2788086 C43.5388184,43.4825134 43.5282898,43.7278747 43.4303284,43.9526367 C43.3319092,44.1769409 43.1588745,44.3513489 42.9551696,44.430542 C42.8334046,44.4781494 42.7734375,44.6154785 42.8210449,44.7372436 C42.857666,44.8306275 42.94693,44.8878479 43.041687,44.8878479 C43.0700684,44.8878479 43.0993652,44.8828125 43.1277466,44.8718262 C43.4472656,44.7468567 43.7159729,44.4808959 43.8638306,44.1421509 C44.0121459,43.802948 44.0249634,43.425293 43.8990784,43.105774 C43.7731934,42.7862549 43.5067748,42.5184632 43.167572,42.3710632 Z" id="Path" fill="#000000"></path>
                        <path d="M39.7654724,38.2832337 C39.675293,38.1884766 39.5256042,38.1852722 39.4308471,38.2754517 C39.0463256,38.6416627 38.8943482,39.2477416 39.0431214,39.8190307 C39.1635131,40.2818298 39.4670105,40.7199096 39.9201966,41.0861205 C40.471344,41.5315247 41.1158753,41.7745971 41.7434693,41.7745971 C41.7668152,41.7745971 41.7901611,41.7741394 41.8135071,41.7732239 C42.5587464,41.751709 43.241272,41.3717651 43.5946655,40.7817077 C43.9805603,40.136261 43.9041138,39.2601013 43.4161377,38.7442017 C43.3259583,38.6489869 43.1762695,38.6448669 43.0815124,38.7345886 C42.9862976,38.8247681 42.9821777,38.9744568 43.0718994,39.0692139 C43.4193421,39.4367981 43.469696,40.068512 43.1881713,40.5386353 C42.9212952,40.9844971 42.3765564,41.2834167 41.8002319,41.3003541 C41.2646484,41.3163757 40.7015991,41.1090088 40.2182006,40.7180787 C39.9572754,40.5075073 39.6212768,40.1596069 39.5013428,39.6995544 C39.3965149,39.2985534 39.4999695,38.8641357 39.7576904,38.6178588 C39.8519897,38.5276794 39.8556518,38.3779908 39.7654724,38.2832337 Z" id="Path" fill="#000000"></path>
                        <path d="M43.6349487,36.816101 L39.2189026,36.5359498 C39.0875244,36.5281677 38.9758301,36.6265869 38.9675904,36.7570495 C38.9593506,36.8875123 39.0586853,37.0001221 39.1886902,37.0083619 L43.6047363,37.2885131 C43.6097718,37.288971 43.6152649,37.288971 43.6203002,37.288971 C43.7438965,37.288971 43.8482666,37.1928405 43.8560486,37.0674134 C43.8647461,36.9369506 43.7654114,36.8243408 43.6349487,36.816101 Z" id="Path" fill="#000000"></path>
                        <path d="M43.9196777,32.2576904 C43.9164734,32.1267701 43.8075257,32.0205689 43.677063,32.0274353 C43.5461426,32.0306396 43.4431458,32.1395873 43.4463502,32.2700501 L43.5099792,34.6691895 C43.5118103,34.743805 43.5154724,34.8687744 43.477478,34.9136353 C43.4280396,34.9722291 43.2417298,34.9617005 43.171692,34.9580384 L41.7018128,34.8770142 L41.7370605,33.3425904 C41.7398072,33.2121277 41.6363525,33.1036377 41.5054322,33.1004333 C41.3726807,33.093567 41.2669372,33.2011413 41.263733,33.3316041 L41.2289428,34.8509216 L39.9160767,34.778595 C39.791565,34.7717285 39.6510315,34.7639466 39.5677185,34.7062683 C39.4372559,34.6170045 39.4061279,34.3858337 39.3873596,34.1766357 L39.2147827,32.2769166 C39.2028809,32.1464538 39.0879821,32.051239 38.9579773,32.062683 C38.8275146,32.074585 38.7313842,32.1894837 38.7432861,32.3194886 L38.915863,34.2192077 C38.9364623,34.4476318 38.9749146,34.8733521 39.299469,35.0962829 C39.4921875,35.2290345 39.7219849,35.2418518 39.8899841,35.2510071 L43.1455993,35.4304505 C43.1808471,35.4322815 43.2247924,35.435028 43.2733154,35.435028 C43.4454346,35.435028 43.6816406,35.4048157 43.8386536,35.2194213 C43.9933777,35.0372314 43.986969,34.7987366 43.9833069,34.6563721 L43.9196777,32.2576904 Z" id="Path" fill="#000000"></path>
                        <path d="M44.1165162,28.5168457 C42.5436401,28.2266236 40.9359741,28.125 39.3388366,28.2156373 C39.208374,28.2229615 39.1085815,28.3346557 39.1159057,28.4651184 C39.1236878,28.5955811 39.2353821,28.694458 39.3658447,28.6880494 C40.7070923,28.6120605 42.0552063,28.6752319 43.3836364,28.8743591 C42.0579529,29.6072388 40.6466674,30.1734925 39.1795349,30.559845 C39.0715027,30.5882263 38.9982605,30.6884766 39.0032959,30.8001709 C39.0087891,30.9118652 39.0916443,31.0043334 39.2024231,31.0221862 C40.7684326,31.2748718 42.3674011,31.4039612 43.95401,31.4057923 C43.9544678,31.4057923 43.9544678,31.4057923 43.9544678,31.4057923 C44.0849304,31.4057923 44.1911316,31.3000488 44.1911316,31.1691284 C44.1915893,31.0386657 44.0853881,30.9324646 43.9549255,30.9320068 C42.7537536,30.9306335 41.5461731,30.8555603 40.3509521,30.7077026 C41.6931152,30.269165 42.9826355,29.6809387 44.1957093,28.952179 C44.2799378,28.9013672 44.3243408,28.8038636 44.3069459,28.7072754 C44.2886353,28.6106872 44.2131042,28.5346985 44.1165162,28.5168457 Z" id="Path" fill="#000000"></path>
                        <path d="M44.211731,24.3489075 C44.0945435,24.4070435 44.0469361,24.5489502 44.105072,24.6661377 C44.4296264,25.320282 44.2593384,26.2165833 43.7081909,26.7512513 C43.1739807,27.2694397 42.3083496,27.4589538 41.5548705,27.2218323 C40.827942,26.9929505 40.2131653,26.4019775 39.9105834,25.6407165 C39.8085022,25.3829955 39.7709655,25.1701355 39.797058,24.9893189 C39.8249817,24.7929382 39.9430847,24.6240234 40.0904846,24.5690918 C40.2127076,24.5233154 40.2749634,24.3873596 40.229187,24.264679 C40.1838684,24.1419983 40.0474548,24.0797425 39.9247741,24.1255188 C39.6153259,24.241333 39.3809509,24.5539856 39.328308,24.9224854 C39.2903138,25.1870728 39.3370056,25.479126 39.4702148,25.8151245 C39.8249817,26.7077637 40.5509948,27.4021911 41.4129639,27.6731872 C41.6812134,27.7574157 41.9577026,27.7986145 42.2314453,27.7986145 C42.9061889,27.7986145 43.5644531,27.5505066 44.0377807,27.0909118 C44.7413636,26.4083862 44.947815,25.3001404 44.5289612,24.4555664 C44.4708252,24.3388366 44.3289185,24.2907715 44.211731,24.3489075 Z" id="Path" fill="#000000"></path>
                        <path d="M39.7924805,22.7101136 C40.1220703,22.982483 40.5665589,23.0310059 40.891571,23.0662536 L43.117218,23.3093262 C43.249054,23.3239746 43.382721,23.3358764 43.5150146,23.3358764 C43.7722779,23.3358764 44.0226745,23.2905579 44.2382812,23.1307983 C44.5903015,22.869873 44.7285462,22.3686218 44.6173096,21.7556763 C44.6003723,21.6622924 44.5797729,21.5684509 44.5591736,21.4746094 C44.4932556,21.1729431 44.4309997,20.8882141 44.4946289,20.6286621 C44.5262146,20.5018616 44.4483948,20.3736878 44.3215943,20.3421021 C44.1943359,20.3109741 44.0666198,20.3883362 44.0350342,20.5155945 C43.9448548,20.8818054 44.0222168,21.2347412 44.0968323,21.5757751 C44.1160583,21.6641236 44.1357422,21.752472 44.1517639,21.8403626 C44.188385,22.0431518 44.2433167,22.5379944 43.9562988,22.7503968 C43.7672425,22.8909302 43.475647,22.8721618 43.1684876,22.8387451 L42.077179,22.7197266 L42.0410156,21.118927 C42.0378112,20.9902955 41.9325257,20.8877564 41.8043518,20.8877564 C41.8025208,20.8877564 41.8006897,20.8877564 41.7988587,20.8877564 C41.6683959,20.8909607 41.5644837,20.9994506 41.567688,21.1299134 L41.602478,22.6679993 L40.9428405,22.5956726 C40.6626892,22.5654602 40.3143311,22.5274658 40.0941468,22.3452759 C39.911499,22.1942139 39.8016357,21.9309997 39.7924805,21.6220092 C39.7837829,21.3175964 39.8652649,21.0017395 39.944458,20.6964111 C39.977417,20.5700684 39.9014283,20.4409791 39.7746277,20.4080201 C39.6482849,20.3750611 39.5191956,20.4510498 39.4862366,20.5778503 C39.4029236,20.8992005 39.3081666,21.2640381 39.3196106,21.6361999 C39.332428,22.0811462 39.5050049,22.4725342 39.7924805,22.7101136 Z" id="Path" fill="#000000"></path>
                        <path d="M55.9231568,31.791687 L49.6742249,32.252655 C49.5675659,32.260437 49.4796752,32.3391724 49.4595338,32.444458 C49.439392,32.5497436 49.4924927,32.655487 49.5890808,32.7017212 L52.7087402,34.2086791 L50.0697327,35.3453064 C49.9703979,35.3883362 49.9127197,35.4927063 49.9301147,35.599823 C49.947052,35.7069397 50.0344849,35.7884216 50.142517,35.7984925 L55.4777527,36.281433 C55.4850769,36.2818909 55.4919434,36.2823486 55.4992676,36.2823486 C55.6201172,36.2823486 55.7235717,36.1898803 55.734558,36.0667419 C55.74646,35.936737 55.6503295,35.8213806 55.5203248,35.8099365 L51.1138916,35.4112243 L53.3720398,34.4380188 C53.4571839,34.4013977 53.513031,34.3185424 53.514862,34.2260742 C53.5166931,34.1331482 53.4645081,34.0480042 53.381195,34.007721 L50.59021,32.6596069 L55.9584046,32.2631836 C56.0884095,32.2535706 56.1863708,32.1405029 56.1767578,32.0100403 C56.1671448,31.8795776 56.0540771,31.7811585 55.9231568,31.791687 Z" id="Path" fill="#000000"></path>
                        <path d="M49.5977783,29.8622132 L55.5409241,30.7342529 C55.5528259,30.736084 55.5642701,30.7369995 55.5757141,30.7369995 C55.6910706,30.7369995 55.7922363,30.6523132 55.8096314,30.534668 C55.8283997,30.4051208 55.7391357,30.2851868 55.6095886,30.2659607 L53.5757447,29.9674988 L53.3876038,28.1433105 C53.9753723,27.9464721 54.5736694,27.7784729 55.1820374,27.642517 C55.3097534,27.6141357 55.3903198,27.4873352 55.3614807,27.3600769 C55.3330993,27.2323608 55.2067566,27.1522522 55.0790405,27.1806335 C53.1083679,27.6205444 51.2342835,28.3763122 49.50943,29.4259643 C49.4242859,29.4776917 49.3803405,29.5774841 49.4004821,29.6754456 C49.420166,29.7729492 49.4989014,29.8480225 49.5977783,29.8622132 Z M52.9284668,28.3053588 L53.092804,29.8965455 L50.3352356,29.4918823 C51.1683655,29.0263366 52.0353698,28.6322021 52.9284668,28.3053588 Z" id="Shape" fill="#000000"></path>
                        <path d="M51.0708619,24.0412903 L51.0658264,22.6826477 C51.0653686,22.5526429 50.9591674,22.4468994 50.8291627,22.4468994 C50.8287048,22.4468994 50.8282471,22.4468994 50.8282471,22.4468994 C50.6973267,22.4473571 50.5915833,22.5540162 50.5920395,22.6844788 L50.6094361,27.1018982 C50.6098938,27.2323608 50.7156373,27.3376465 50.8460999,27.3376465 C50.8460999,27.3376465 50.8465576,27.3376465 50.8470154,27.3376465 C50.977478,27.3371887 51.0832214,27.2309876 51.0827637,27.1000671 L51.0726928,24.5155335 L55.4104615,24.7727966 C55.4154968,24.7732545 55.4200745,24.7732545 55.4251099,24.7732545 C55.5491638,24.7732545 55.6535339,24.6766663 55.6608581,24.5507812 C55.6686401,24.4203186 55.5693054,24.3081666 55.4388428,24.3003845 L51.0708619,24.0412903 Z" id="Path" fill="#000000"></path>
                        <path d="M50.6794739,21.3734436 C52.2180176,21.5950013 53.7863159,21.7350769 55.3399658,21.789093 C55.3427123,21.789093 55.345459,21.789093 55.3482056,21.789093 C55.4750061,21.789093 55.5802917,21.688385 55.5848694,21.5606689 C55.589447,21.4302063 55.4873658,21.3208008 55.3564453,21.3157654 C54.7242737,21.2937927 54.0898132,21.2567139 53.4553528,21.2059021 L53.5789489,18.7623596 C53.58078,18.7261963 53.5734558,18.6914063 53.5601807,18.6598206 L55.1596069,18.9472962 C55.1737976,18.949585 55.1875305,18.9509583 55.2012634,18.9509583 C55.3138733,18.9509583 55.4136657,18.8708496 55.4342651,18.7559509 C55.4571533,18.6273193 55.3715515,18.5041809 55.2429199,18.4812927 L50.9129333,17.7035522 C50.7843018,17.6797486 50.6611634,17.765808 50.6382751,17.8944397 C50.6149291,18.0230713 50.700531,18.1462097 50.8291627,18.1690979 L53.1692505,18.5897827 C53.1326295,18.6291504 53.1088256,18.6808777 53.1060791,18.7385559 L52.9833984,21.1665345 C52.2344971,21.0983276 51.4874268,21.0113525 50.7472229,20.9046936 C50.6176758,20.8863831 50.4977416,20.975647 50.4789734,21.1051941 C50.4606628,21.2347412 50.5503845,21.3546752 50.6794739,21.3734436 Z" id="Path" fill="#000000"></path>
                        <path d="M32.7868652,37.8144837 C32.7790833,37.6840209 32.6664734,37.5842285 32.5364685,37.5924682 C32.4060059,37.5997924 32.3062134,37.7119446 32.3139954,37.8424072 L32.419281,39.6258545 C32.4229431,39.6858216 32.4320984,39.8464966 32.3876953,39.8886108 C32.3442077,39.9302673 32.1858216,39.9137878 32.1263122,39.9073792 L28.0952454,39.4894409 C27.9643249,39.4743347 27.8489685,39.5700073 27.8356934,39.70047 C27.8219604,39.8304749 27.9162598,39.9467468 28.0462646,39.960022 L32.0773315,40.378418 C32.1263122,40.3834534 32.1890259,40.389862 32.258606,40.389862 C32.4037171,40.389862 32.5776673,40.3614807 32.7140808,40.2319336 C32.9177857,40.0382995 32.9008484,39.7517395 32.8916931,39.5979309 L32.7868652,37.8144837 Z" id="Path" fill="#000000"></path>
                        <path d="M32.620697,37.3558044 C32.6220703,37.3558044 32.6234436,37.3558044 32.624817,37.3558044 C32.7534485,37.3558044 32.859192,37.2523499 32.8615178,37.1232605 C32.8637695,36.9923401 32.7598571,36.8847656 32.6289368,36.8824768 L28.6683655,36.8124389 C28.5365296,36.8138122 28.4298705,36.9140625 28.4275448,37.044983 C28.425293,37.1754456 28.5296631,37.2834778 28.6601257,37.2857666 L32.620697,37.3558044 Z" id="Path" fill="#000000"></path>
                        <path d="M32.9667663,34.8962402 C31.5710449,34.8188782 30.1524353,34.7511292 28.750763,34.6948242 C28.7425232,34.6948242 28.7347412,34.6961975 28.7265014,34.6966553 L28.6907959,33.7902832 C28.6857605,33.6598206 28.5754395,33.5595703 28.4449768,33.5632324 C28.3145142,33.5682679 28.2128906,33.6785889 28.2179261,33.8090515 L28.30307,35.9642029 C28.3081055,36.0914612 28.4129333,36.1912536 28.5397338,36.1912536 C28.5429382,36.1912536 28.5456848,36.1912536 28.5488892,36.1912536 C28.6798096,36.1862182 28.781433,36.0758972 28.77594,35.9454346 L28.7452698,35.1686096 C30.1405335,35.2244568 31.5518189,35.2922058 32.9406738,35.3691101 C32.9447937,35.3691101 32.9493714,35.3691101 32.9539489,35.3691101 C33.0784607,35.3691101 33.1828308,35.2716064 33.1896973,35.1457214 C33.1970215,35.0152588 33.0972291,34.9035645 32.9667663,34.8962402 Z" id="Path" fill="#000000"></path>
                        <path d="M32.9681396,31.0505677 C32.8390502,31.0446166 32.7259827,31.1434936 32.7191162,31.2739563 L32.6202393,33.0825806 L31.2986755,33.0560303 L31.2020873,31.6273499 C31.1933899,31.4968873 31.08078,31.3957214 30.9503174,31.4071655 C30.8198548,31.415863 30.7209778,31.5284729 30.7301331,31.6589355 L30.8235169,33.0464173 L29.6003723,33.021698 C29.4630432,33.0189514 29.3348694,33.0116272 29.2703248,32.9571533 C29.1893005,32.8889466 29.1773987,32.7186585 29.1764831,32.5442505 L29.1696166,31.1384583 C29.1691589,31.0084534 29.0629577,30.9031677 28.9329529,30.9031677 C28.9324951,30.9031677 28.9320374,30.9031677 28.9315795,30.9031677 C28.8011169,30.9036255 28.6958313,31.0102845 28.6962876,31.1407471 L28.7031555,32.5465393 C28.704071,32.7401733 28.7059021,33.1004333 28.9654541,33.3192444 C29.163208,33.4858704 29.4204712,33.4913636 29.5907592,33.4950257 L32.8395081,33.5604858 C32.8408814,33.5604858 32.8427123,33.5604858 32.8440857,33.5604858 C32.969513,33.5604858 33.0734252,33.4625244 33.0802917,33.3370971 L33.1919861,31.3000488 C33.1988525,31.1691284 33.09906,31.0578919 32.9681396,31.0505677 Z" id="Path" fill="#000000"></path>
                        <path d="M28.6825561,30.2325439 C28.8697815,30.3845215 29.0922546,30.4188538 29.3174743,30.4188538 C29.3847656,30.4188538 29.4520569,30.4161071 29.5188904,30.4119873 L32.9150391,30.2082825 C33.0455017,30.2005005 33.1452942,30.0883484 33.1375123,29.9578857 C33.1297302,29.8274231 33.0162048,29.7285462 32.8871155,29.7358704 L31.4341736,29.8228454 C31.8878174,29.2506409 32.4137878,28.7420654 33.002472,28.3067321 C33.1077575,28.2289124 33.1297302,28.080597 33.0519104,27.975769 C32.9745483,27.8704834 32.826233,27.8485107 32.7209473,27.9258728 C32.1707154,28.3328248 31.6717529,28.8011169 31.2322998,29.322052 C31.2139893,29.1229248 31.1787415,28.9187623 31.1160279,28.7173463 C30.9631348,28.2275391 30.6660462,27.8430176 30.2801514,27.6342773 C29.8164368,27.3838806 29.2359925,27.4282838 28.8693237,27.7427673 C28.4394837,28.111267 28.3859252,28.7054443 28.368988,29.2337037 C28.3607483,29.4873047 28.3460999,29.9592591 28.6825561,30.2325439 Z M28.8423157,29.2488098 C28.8560486,28.8015748 28.8935852,28.3451843 29.1773987,28.1021119 C29.2977905,27.9986572 29.4644166,27.9460144 29.6383666,27.9460144 C29.779358,27.9460144 29.9249268,27.9808044 30.0549316,28.0508423 C30.3277588,28.1982422 30.5497741,28.4925843 30.6637573,28.8583373 C30.7672119,29.1893005 30.7814026,29.5445251 30.7740784,29.8626709 L29.4905091,29.9395752 C29.2854309,29.9519348 29.0917969,29.9551392 28.9805603,29.8654174 C28.8450622,29.7550964 28.8340759,29.5037842 28.8423157,29.2488098 Z" id="Shape" fill="#000000"></path>
                        <path d="M33.24646,27.0048523 L31.8264771,26.4257812 L31.8905639,24.7988892 C31.8910218,24.7888184 31.8896484,24.7792054 31.8891907,24.7695923 L33.0642701,24.4258118 C33.1896973,24.388733 33.2615661,24.2573548 33.224945,24.1319275 C33.1883239,24.0065003 33.056488,23.9341736 32.9315186,23.9712525 L28.7063599,25.2085876 C28.6097718,25.236969 28.5420227,25.3230286 28.5365296,25.4232787 C28.5314941,25.5239869 28.5905456,25.6169128 28.6839294,25.6544495 L33.0674743,27.4429322 C33.0967712,27.4552917 33.1274414,27.4607849 33.157196,27.4607849 C33.2501221,27.4607849 33.3389283,27.4053955 33.3764648,27.313385 C33.4254456,27.1925354 33.3677673,27.0542907 33.24646,27.0048523 Z M31.4126588,24.9092102 L31.3600159,26.2353516 L29.4895935,25.4722595 L31.4126588,24.9092102 Z" id="Shape" fill="#000000"></path>
                        <path d="M33.5971069,22.3352051 L29.250183,21.7977905 L29.3765259,20.5215455 C29.3893432,20.3915405 29.2941284,20.2757263 29.1641236,20.2629089 C29.0345764,20.2496338 28.9183044,20.3448486 28.905487,20.4753112 L28.5594177,23.9758301 C28.5466003,24.105835 28.6413574,24.2216491 28.77182,24.2344665 C28.7796021,24.2353821 28.7873841,24.2353821 28.795166,24.2353821 C28.9155579,24.2353821 29.018097,24.1442871 29.0304565,24.0220642 L29.2034912,22.2688294 L33.538971,22.8048705 C33.548584,22.8062439 33.5586548,22.8067017 33.5682679,22.8067017 C33.6859131,22.8067017 33.7879944,22.7188111 33.8031006,22.5993347 C33.8191223,22.4693298 33.7271119,22.3512268 33.5971069,22.3352051 Z" id="Path" fill="#000000"></path>
                        <path d="M33.8946533,19.2260742 C33.6245728,19.0100098 33.3000183,18.9047241 33.0171204,18.8227845 C32.0906067,18.5540771 31.1320495,18.4043884 30.1675416,18.3769226 C30.0389099,18.3737182 29.9281311,18.4762573 29.924469,18.60672 C29.9208069,18.7376404 30.0238037,18.8465882 30.1542663,18.8502503 C31.0784912,18.8763428 31.9976807,19.0200806 32.8857422,19.2773437 C33.1246948,19.3464661 33.3966064,19.433899 33.5984802,19.5954895 C33.7857056,19.745636 33.8914489,19.9603271 33.868103,20.1429749 C33.8470459,20.305481 33.7207031,20.4707337 33.5380554,20.5746459 C33.3370971,20.6881713 33.0917358,20.7289124 32.878418,20.7536316 C31.9711303,20.8580017 31.0446166,20.7298279 30.199585,20.382843 C30.0787354,20.3338623 29.9404908,20.3915405 29.8905945,20.5119323 C29.841156,20.6332397 29.8988343,20.7710266 30.0196839,20.8209229 C30.7310486,21.1125183 31.4950561,21.262207 32.2613525,21.262207 C32.4851989,21.262207 32.7095032,21.2493896 32.9324341,21.2237549 C33.1929016,21.1935424 33.496399,21.1418152 33.7715149,20.9861755 C34.0859986,20.8076477 34.2974854,20.514679 34.3373108,20.202942 C34.3821716,19.8550416 34.2123412,19.4810486 33.8946533,19.2260742 Z" id="Path" fill="#000000"></path>
                        <path d="M34.1015625,15.1496887 L32.0164489,17.2576904 C31.9898987,16.8054199 31.9084167,16.3577271 31.6726685,15.9622193 C31.3156127,15.3620911 30.4925537,14.957428 29.8370361,15.3121948 C29.3055725,15.5996705 29.1325378,16.2112427 29.0121459,16.7619323 C28.9700318,16.9528198 28.8427734,17.5346374 29.2575073,17.8097534 C29.4177246,17.9159545 29.6008301,17.9278564 29.7344971,17.936554 L34.0063477,18.2144166 C34.0118408,18.2148743 34.0168763,18.2148743 34.0219116,18.2148743 C34.1455078,18.2148743 34.2498779,18.1187439 34.2576599,17.9937744 C34.2663574,17.8633118 34.1674805,17.7507019 34.0370179,17.7420045 L32.3139954,17.6298523 L34.4380188,15.482483 C34.5300293,15.3895569 34.5291138,15.2398682 34.4361878,15.1478577 C34.3432617,15.0558471 34.193573,15.0567627 34.1015625,15.1496887 Z M29.7651673,17.4641419 C29.6759033,17.4581909 29.5742798,17.4517822 29.5193482,17.4151611 C29.4245911,17.3524475 29.4090271,17.16156 29.4744873,16.8630982 C29.5729065,16.4149475 29.7070313,15.9205628 30.0622559,15.7287598 C30.1593018,15.6761169 30.2645873,15.6523132 30.3721618,15.6523132 C30.7173157,15.6523132 31.0826111,15.8967591 31.2661744,16.2043762 C31.4996338,16.5966797 31.5472412,17.0892334 31.5541077,17.5804138 L29.7651673,17.4641419 Z" id="Shape" fill="#000000"></path>
                        <path d="M29.9537659,14.463501 C29.9569702,14.463501 29.9606323,14.4630432 29.9638366,14.4630432 L33.4011841,14.3133545 C33.5797119,14.3055725 33.9120483,14.2909241 34.102478,14.0345764 C34.2480469,13.8391113 34.2333984,13.6019897 34.2242432,13.4449768 L34.1395569,12.0387268 C34.1317748,11.9082642 34.0182495,11.8061829 33.8891602,11.8167115 C33.7582397,11.8244934 33.658905,11.9366455 33.666687,12.0671081 L33.7513733,13.4733581 C33.7568665,13.5617065 33.7651062,13.6953736 33.7225342,13.752594 C33.666687,13.828125 33.4735107,13.8363647 33.3805847,13.8404846 L32.0755005,13.8972473 L32.0567321,12.1005248 C32.0553588,11.9700622 31.9468689,11.8693542 31.8177796,11.8666077 C31.687317,11.867981 31.5820312,11.9746399 31.5834046,12.1055603 L31.6021729,13.9178467 L30.1940918,13.979187 L30.2279662,11.7045593 C30.2297974,11.5740967 30.1254272,11.4665222 29.9945068,11.4642334 C29.9935912,11.4642334 29.992218,11.4642334 29.9908447,11.4642334 C29.8617553,11.4642334 29.7564697,11.5681458 29.7546387,11.6976928 L29.716621,14.2231751 C29.7157288,14.2881775 29.7418213,14.3513489 29.7885131,14.3966674 C29.8329163,14.4392395 29.8924255,14.463501 29.9537659,14.463501 Z" id="Path" fill="#000000"></path>
                        <path d="M4.36843875,48.4140014 C3.67492676,48.3425904 3.0125427,49.0232849 2.85369867,49.6824646 C2.68707281,50.3709411 2.99743652,51.1454773 3.59161383,51.5235901 C3.86077875,51.6947937 4.17526242,51.7790222 4.48974609,51.7790222 C4.88021848,51.7790222 5.27023312,51.6490173 5.57144168,51.3949584 C6.11480719,50.9362793 6.30477902,50.1049805 6.01318359,49.4604492 C5.70648187,48.7838745 4.93560797,48.4735107 4.36843875,48.4140014 Z M5.26657102,51.0333252 C4.88296512,51.3569641 4.27230832,51.3963318 3.84613031,51.1244202 C3.41720578,50.851593 3.19335938,50.291748 3.31375125,49.7937012 C3.41766352,49.3638611 3.85574344,48.8818359 4.26544195,48.8818359 C4.28329465,48.8818359 4.30114746,48.8827514 4.31900027,48.8845826 C4.79644781,48.9349365 5.37231445,49.1931152 5.58197016,49.6559143 C5.78933719,50.1141357 5.65383914,50.7064819 5.26657102,51.0333252 Z" id="Shape" fill="#000000"></path>
                        <path d="M53.2965088,10.4804993 C53.3651733,10.4841614 53.4333802,10.4859925 53.5015869,10.4859925 C54.3438721,10.4859925 55.155487,10.2058411 55.7551575,9.70321652 C56.4129639,9.15161133 56.7919922,8.27453613 56.7691041,7.35717773 C56.7466736,6.44027707 56.3406373,5.61676031 55.6549072,5.09719852 C54.3296814,4.09378055 52.1383666,5.06790164 51.2704467,6.15280148 C50.5677796,7.03125 50.3878784,8.15505984 50.812683,9.01519781 C51.2287903,9.85839844 52.180481,10.4200745 53.2965088,10.4804993 Z M51.639862,6.44851687 C52.1754456,5.77880859 53.3285522,5.15762332 54.3232727,5.15762332 C54.7109986,5.15762332 55.0749206,5.25192258 55.3692627,5.47485352 C55.9391784,5.90652469 56.2770081,6.5968323 56.2962341,7.3686218 C56.3154602,8.14361578 55.9996032,8.88061523 55.4512024,9.34020996 C54.8936462,9.80758664 54.1168213,10.0497436 53.3221436,10.0076295 C52.3910522,9.95727539 51.5725709,9.48532102 51.23703,8.80599973 C50.8190918,7.96005246 51.1930847,7.00744629 51.639862,6.44851687 Z" id="Shape" fill="#000000"></path>
                    </g>
                </g>
            </g>
        </g>
    </g>
</svg>