<?xml version="1.0" encoding="UTF-8"?>
<svg width="60px" height="61px" viewBox="0 0 60 61" version="1.1" xmlns="http://www.w3.org/2000/svg" xmlns:xlink="http://www.w3.org/1999/xlink">
    <title>F6FD2D95-FDA5-4F77-A6A0-3E04DCB90196</title>
    <defs>
        <linearGradient x1="37.5521433%" y1="36.4342505%" x2="74.6042371%" y2="74.7492767%" id="linearGradient-1">
            <stop stop-color="#FF936B" offset="0%"></stop>
            <stop stop-color="#EA528B" offset="80.78%"></stop>
            <stop stop-color="#C62662" offset="100%"></stop>
        </linearGradient>
        <linearGradient x1="37.5199258%" y1="35.3117854%" x2="60.8130618%" y2="56.3841168%" id="linearGradient-2">
            <stop stop-color="#FF93CE" offset="0%"></stop>
            <stop stop-color="#EA528B" offset="100%"></stop>
        </linearGradient>
    </defs>
    <g id="Today--------------------------------------------" stroke="none" stroke-width="1" fill="none" fill-rule="evenodd">
        <g id="AFS-1334" transform="translate(-784.000000, -428.000000)" fill-rule="nonzero">
            <g id="Menu1" transform="translate(756.000000, 414.635417)">
                <g id="Revise" transform="translate(28.000000, 14.000000)">
                    <g id="Assignment_A" transform="translate(5.000000, 3.000000)">
                        <g id="Layer0_0_MEMBER_0_FILL" transform="translate(0.871064, 1.652019)" fill="#0D88CD">
                            <path d="M28.0843176,1.59194528 C27.6337671,0.27033033 26.732666,-0.150183517 25.3960327,0.315385385 L1.59194528,8.81577243 C0.285348682,9.29635968 -0.150183517,10.1824424 0.315385385,11.5040574 L13.411388,48.1638538 C13.8619386,49.4704504 14.7630397,49.9059826 16.0846546,49.4253953 L39.9037604,40.9250083 C41.210357,40.4744577 41.6458892,39.5733566 41.1803203,38.2517417 L28.0843176,1.59194528 Z" id="Path"></path>
                        </g>
                        <g id="Layer0_1_MEMBER_0_FILL" transform="translate(21.808747, 26.269466) rotate(-12.945207) translate(-21.808747, -26.269466) translate(4.763288, 3.291886)" fill="#52CFFA">
                            <path d="M29.4203126,1.90728928 C29.2551143,0.510612877 28.489195,-0.105126181 27.0925186,0.0600721032 L1.98237941,3.01862319 C0.585703007,3.18382147 -0.0300360516,3.94974079 0.135162232,5.34641719 L4.68562405,44.0028156 C4.85082234,45.399492 5.61674165,46.0152311 7.01341805,45.8500328 L32.1235572,42.9064997 C33.5202336,42.7413014 34.1359727,41.9753821 33.9707744,40.5787057 L29.4203126,1.90728928 Z" id="Path"></path>
                        </g>
                        <g id="Symbol_3_0_Layer0_0_FILL" transform="translate(16.026096, 13.346201) rotate(-12.945207) translate(-16.026096, -13.346201) translate(4.462216, 10.793136)" fill="#2AB5E5">
                            <path d="M22.9625615,0.675811161 C22.9175074,0.240288413 22.677219,0.0600721032 22.2416962,0.105126181 L0.600721032,2.65819057 C0.165198284,2.70324465 -0.0150180258,2.94353306 0.0300360516,3.37905581 L0.150180258,4.40028156 C0.195234336,4.83580431 0.435522748,5.01602062 0.871045497,4.97096654 L22.5120207,2.43292018 C22.9475434,2.3878661 23.1277597,2.14757769 23.0827057,1.71205494 L22.9625615,0.675811161 Z" id="Path"></path>
                        </g>
                        <g id="Path" transform="translate(17.932761, 18.599371) rotate(-12.945207) translate(-17.932761, -18.599371) translate(6.293791, 16.121397)" fill="#2AB5E5">
                            <path d="M23.0076155,0.585703007 C22.9625615,0.150180258 22.722273,-0.0300360516 22.2867503,0.0150180258 L0.64577511,2.55306439 C0.210252361,2.59811846 0.0300360516,2.83840688 0.075090129,3.27392963 L0.195234336,4.29515538 C0.240288413,4.73067813 0.480576826,4.91089444 0.916099574,4.86584036 L22.5570748,2.327794 C22.9925975,2.28273992 23.1728138,2.04245151 23.1277597,1.60692876 L23.0076155,0.585703007 Z"></path>
                        </g>
                        <g id="Path" transform="translate(19.749423, 23.803691) rotate(-12.945207) translate(-19.749423, -23.803691) translate(8.110453, 21.325717)" fill="#2AB5E5">
                            <path d="M23.0526696,0.630757084 C23.0076155,0.195234336 22.7673271,0.0150180258 22.3318044,0.0600721032 L0.690829187,2.59811846 C0.255306439,2.64317254 0.075090129,2.88346096 0.120144206,3.3189837 L0.240288413,4.34020946 C0.28534249,4.77573221 0.525630903,4.95594852 0.961153652,4.91089444 L22.6021288,2.37284808 C23.0376516,2.327794 23.2178679,2.08750559 23.1728138,1.65198284 L23.0526696,0.630757084 Z"></path>
                        </g>
                        <g id="Path" transform="translate(21.641071, 29.064371) rotate(-12.945207) translate(-21.641071, -29.064371) translate(10.077191, 26.511307)" fill="#2AB5E5">
                            <path d="M22.9475434,0.690829187 C22.9024894,0.255306439 22.6622009,0.075090129 22.2266782,0.120144206 L0.600721032,2.65819057 C0.165198284,2.70324465 -0.0150180258,2.94353306 0.0300360516,3.37905581 L0.150180258,4.40028156 C0.195234336,4.83580431 0.435522748,5.01602062 0.871045497,4.97096654 L22.5120207,2.43292018 C22.9475434,2.3878661 23.1277597,2.14757769 23.0827057,1.71205494 L22.9475434,0.690829187 Z"></path>
                        </g>
                        <g id="Group" transform="translate(8.410277, 14.417618)" fill="#2F77B4" fill-opacity="0.4392">
                            <g id="Layer0_2_FILL">
                                <path d="M4.10001,0.045055055 L1.3366333,0.660807473 C0.375458792,0.99121121 -0.045055055,1.62198198 0.0750917583,2.56813813 L7.77950616,36.5847046 C8.07987319,36.599723 8.38024023,36.5396496 8.65057056,36.4495395 L10.3025892,35.8187687 L4.10001,0.045055055 Z" id="Path"></path>
                            </g>
                        </g>
                        <g id="Layer0_3_FILL" transform="translate(9.183722, 6.307708)" fill="#E8A31E">
                            <path d="M28.8953086,1.69707374 C28.5799232,0.345422088 27.7689322,-0.195238572 26.3722255,0.09011011 L1.68205539,5.48169836 C0.330403737,5.78206539 -0.210256923,6.60807473 0.09011011,7.98976308 L8.42529528,46.0162295 C8.72566232,47.3678811 9.55167166,47.9085418 10.93336,47.6231931 L35.6385485,42.2015682 C36.9902001,41.8861828 37.5308608,41.0751918 37.2455121,39.6784851 L28.8953086,1.69707374 Z" id="Path"></path>
                        </g>
                        <g id="Layer0_4_MEMBER_0_FILL" transform="translate(28.034278, 29.962336) rotate(-5.666748) translate(-28.034278, -29.962336) translate(10.988900, 6.984867)" fill="#F3E36D">
                            <path d="M29.4351891,1.8772442 C29.2699916,0.480574516 28.504076,-0.135161583 27.1074063,0.0300359073 L1.99738783,2.98857277 C0.600718145,3.15377026 -0.0150179536,3.9196859 0.150179536,5.31635558 L4.68560153,43.9725682 C4.85079902,45.3692379 5.61671466,45.984974 7.01338434,45.8197765 L32.1234028,42.8762576 C33.5200725,42.7110601 34.1358086,41.9451445 33.9706111,40.5484748 L29.4351891,1.8772442 Z" id="Path"></path>
                        </g>
                        <g id="Symbol_4_0_Layer0_0_FILL" transform="translate(25.059225, 19.154189) rotate(-5.666748) translate(-25.059225, -19.154189) translate(12.669414, 14.573713)" fill="#EDCD39">
                            <path d="M24.0737797,0.690825867 C24.0287258,0.255305212 23.7884385,0.0750897681 23.3529179,0.120143629 L0.600718145,2.79333937 C0.16519749,2.83839324 -0.0150179536,3.07868049 0.0300359073,3.51420115 L0.615736099,8.4851438 C0.66078996,8.92066445 0.901077218,9.1008799 1.33659787,9.05582604 L24.0887976,6.38263029 C24.5243183,6.33757643 24.7045337,6.09728917 24.6594799,5.66176852 L24.0737797,0.690825867 Z" id="Path"></path>
                        </g>
                        <g id="Path" transform="translate(26.975652, 27.780605) rotate(-5.666748) translate(-26.975652, -27.780605) translate(14.585840, 23.200130)" fill="#EDCD39">
                            <path d="M24.0587617,0.645772006 C24.0137078,0.210251351 23.7734206,0.0300359073 23.3378999,0.0750897681 L0.585700191,2.74828551 C0.150179536,2.79333937 -0.0300359073,3.03362663 0.0150179536,3.46914729 L0.600718145,8.44008994 C0.645772006,8.87561059 0.886059264,9.05582604 1.32157992,9.01077218 L24.0737797,6.33757643 C24.5093003,6.29252257 24.6895158,6.05223531 24.6444619,5.61671466 L24.0587617,0.645772006 Z"></path>
                        </g>
                        <g id="Group" transform="translate(16.820554, 6.608075)" fill="#E8A31E" fill-opacity="0.5176">
                            <g id="Layer0_5_FILL">
                                <path d="M21.566353,1.71209209 C21.2509676,0.36044044 20.4399766,-0.18022022 19.0432699,0.105128462 L0.0600734066,4.26521187 L2.44799132,41.4356322 C2.53810143,42.7572472 3.1989089,43.433073 4.44543209,43.4030363 C4.5055055,43.4030363 4.58059726,43.4030363 4.65568902,43.388018 L25.5762529,41.0451551 L25.9517117,40.6396596 L29.0605105,35.8938605 L21.566353,1.71209209 Z" id="Path"></path>
                            </g>
                        </g>
                        <g id="Layer0_6_FILL" transform="translate(16.257366, 2.553120)" fill="#C4404E">
                            <path d="M29.3158224,1.96740407 C29.1506206,0.570697363 28.3846846,-0.045055055 26.9879779,0.120146813 L1.89231231,3.07876209 C0.480587253,3.24396396 -0.120146813,4.00989989 0.045055055,5.4066066 L4.58059726,44.0638438 C4.74579913,45.4605505 5.51173506,46.0763029 6.90844176,45.911101 L25.0806473,43.7784951 L33.0403737,33.7011811 L29.3158224,1.96740407 Z" id="Path"></path>
                        </g>
                        <g id="Layer0_7_MEMBER_0_FILL" transform="translate(16.520187, 2.402936)" fill="url(#linearGradient-1)">
                            <path d="M29.3158224,1.95238572 C29.1506206,0.555679011 28.3846846,-0.0600734066 26.9879779,0.105128462 L1.89231231,3.06374374 C0.495605605,3.22894561 -0.120146813,3.99488154 0.045055055,5.39158825 L4.58059726,44.0488254 C4.74579913,45.4455321 5.51173506,46.0612845 6.90844176,45.8960827 L25.0656289,43.7634767 L33.0253553,33.6861628 L29.3158224,1.95238572 L29.3158224,1.95238572 Z" id="Path"></path>
                        </g>
                        <g id="Layer0_7_MEMBER_1_FILL" transform="translate(40.699733, 36.044044)" fill="url(#linearGradient-2)">
                            <path d="M1.92234901,0.841027693 C0.525642308,1.00622956 -0.09011011,1.7721655 0.0750917583,3.1688722 L0.886082748,10.122369 L8.84580913,0.045055055 L1.92234901,0.841027693 L1.92234901,0.841027693 Z" id="Path"></path>
                        </g>
                        <g id="Group" transform="translate(16.490150, 2.387918)" fill="#DF3776" fill-opacity="0.4">
                            <g id="Layer0_7_MEMBER_2_FILL">
                                <path d="M29.3458591,1.96740407 C29.1806573,0.570697363 28.4147213,-0.045055055 27.0180146,0.120146813 L1.92234901,3.07876209 C0.525642308,3.24396396 -0.09011011,4.00989989 0.0750917583,5.4066066 L2.38791791,25.1257023 C6.3377444,28.1143543 10.7831765,29.3308408 15.7392325,28.7451251 C20.8454721,28.144391 24.9755188,25.8465832 28.144391,21.821665 C29.4359693,20.199683 30.3971438,18.5026092 31.0729696,16.700407 L29.3458591,1.96740407 L29.3458591,1.96740407 Z" id="Path"></path>
                            </g>
                        </g>
                        <g id="Layer0_7_MEMBER_3_FILL" transform="translate(40.699733, 36.044044)">
                            <path d="M0.18022022,2.58315649 L0.0300367033,2.50806473 C0.0300367033,2.7033033 0.0150183517,2.92857857 0.045055055,3.1688722 L0.856046045,10.122369 L0.961174506,9.98720385 L0.165201868,3.25898231 C0.18022022,3.01868868 0.165201868,2.79341341 0.18022022,2.58315649 Z" id="Path" fill="#802C35"></path>
                            <path d="M0.0750917583,2.50806473 L0.225275275,2.58315649 C0.330403737,1.62198198 0.946156155,1.06630297 2.08755088,0.931137803 L8.81577243,0.135165165 L8.92090089,-4.26847227e-15 L1.96740407,0.81099099 C0.765935935,0.976192858 0.135165165,1.53187187 0.0750917583,2.50806473 Z" id="Path" fill="#FFD7DB"></path>
                        </g>
                        <g id="Symbol_1_0_Layer0_0_FILL" transform="translate(21.596390, 6.848368)" fill="#B22155">
                            <path d="M9.14617616,1.26154154 C7.92968968,0.315385385 6.56301968,-0.0750917583 5.04616616,0.105128462 C3.52931264,0.285348682 2.2978078,0.99121121 1.3366333,2.19267934 C0.390477143,3.37912912 -3.33066907e-16,4.76081748 0.18022022,6.27767099 C0.36044044,7.79452451 1.06630297,9.02602935 2.2677711,9.98720385 C3.45422088,10.93336 4.83590924,11.3238372 6.3377444,11.1436169 C7.85459792,10.9633967 9.08610276,10.2575342 10.0472773,9.05606605 C11.0084518,7.85459792 11.3989289,6.48792792 11.2187087,4.9710744 C11.0234701,3.45422088 10.3476443,2.20769769 9.14617616,1.26154154 M5.13627627,1.05128462 C6.39781781,0.9011011 7.53921253,1.21648648 8.5454421,2.01245912 C9.55167166,2.80843176 10.122369,3.84469803 10.2725525,5.10623956 C10.4227361,6.3677811 10.1073507,7.49415748 9.31137803,8.50038704 C8.53042374,9.5066166 7.47913913,10.0622956 6.21759759,10.2124791 C4.95605605,10.3626626 3.82967967,10.0472773 2.82345011,9.25130462 C1.81722055,8.45533199 1.24652319,7.43408407 1.09633967,6.17254253 C0.946156155,4.91100099 1.26154154,3.76960627 2.05751418,2.76337671 C2.85348682,1.75714714 3.87473473,1.20146813 5.13627627,1.05128462 Z" id="Shape"></path>
                        </g>
                        <g id="Symbol_2_0_Layer0_0_FILL" transform="translate(29.200960, 10.543449) rotate(-37.470883) translate(-29.200960, -10.543449) translate(24.019675, 7.765080)" fill="#E3FAC0">
                            <path d="M2.62818769,3.12378879 L2.38789624,1.06629329 C2.34284159,0.735892552 2.20767766,0.495601106 1.96738621,0.300364307 C1.71207655,0.105127507 1.45676689,0.0150182153 1.12636615,0.045054646 C0.795965413,0.0750910767 0.555673968,0.22527323 0.360437168,0.465564676 C0.165200369,0.720874337 0.0750910767,0.976183998 0.105127507,1.30658474 L0.480582891,4.52048282 C0.510619322,4.82084713 0.660801475,5.07615679 0.901092921,5.25637537 C1.15640258,5.45161217 1.41171224,5.54172146 1.74211298,5.51168503 L9.28125708,4.62561033 C9.61165782,4.58055568 9.85194927,4.44539174 10.0471861,4.2051003 C10.2424229,3.96480885 10.3175139,3.69448098 10.2874775,3.36408024 C10.2424229,3.0336795 10.1072589,2.79338805 9.86696748,2.59815126 C9.62667604,2.40291446 9.35634816,2.31280516 9.02594742,2.34284159 L2.62818769,3.12378879 Z" id="Path"></path>
                        </g>
                        <g id="Shape" transform="translate(23.098225, 19.185944)" fill="#B22155">
                            <path d="M9.10112111,1.29157824 C7.88463462,0.345422088 6.51796462,-0.045055055 5.0011111,0.135165165 C3.48425759,0.315385385 2.25275275,1.02124791 1.29157824,2.22271605 C0.345422088,3.40916583 -0.045055055,4.79085418 0.135165165,6.3077077 C0.315385385,7.82456122 1.02124791,9.05606605 2.22271605,10.0172406 C3.40916583,10.9633967 4.79085418,11.3538739 6.29268935,11.1736536 C7.80954286,10.9934334 9.0410477,10.2875709 10.0022222,9.08610276 C10.9633967,7.88463462 11.3538739,6.51796462 11.1736536,5.0011111 C10.9784151,3.51429429 10.2875709,2.2377344 9.10112111,1.29157824 M5.09122121,1.08132132 C6.35276275,0.931137803 7.49415748,1.24652319 8.50038704,2.04249583 C9.5066166,2.83846846 10.077314,3.87473473 10.2274975,5.13627627 C10.377681,6.39781781 10.0622956,7.52419418 9.26632298,8.53042374 C8.47035034,9.53665331 7.43408407,10.1073507 6.17254253,10.2575342 C4.91100099,10.4077177 3.78462462,10.0923323 2.77839506,9.29635968 C1.7721655,8.50038704 1.20146813,7.47913913 1.05128462,6.21759759 C0.9011011,4.95605605 1.21648648,3.81466132 2.01245912,2.80843176 C2.80843176,1.78718385 3.82967967,1.23150484 5.09122121,1.08132132 Z"></path>
                        </g>
                        <g id="Path" transform="translate(30.611246, 22.336985) rotate(-53.209487) translate(-30.611246, -22.336985) translate(25.430037, 19.558655)" fill="#E3FAC0">
                            <path d="M2.6581859,3.10872588 L2.41789791,1.06627796 C2.37284391,0.735881971 2.23768191,0.495593981 1.99739392,0.300359988 C1.74208793,0.105125996 1.48678194,0.0150179994 1.15638596,0.0450539983 C0.825989968,0.0750899971 0.585701977,0.225269991 0.390467985,0.465557982 C0.195233992,0.705845973 0.105125996,0.976169962 0.135161995,1.30656595 L0.51061198,4.52041782 C0.540647979,4.82077781 0.690827973,5.0760838 0.931115964,5.2562998 C1.18642195,5.45153379 1.44172794,5.54164179 1.77212393,5.51160579 L9.31115964,4.62554382 C9.64155563,4.58048982 9.88184362,4.44532783 10.0770776,4.20503984 C10.2723116,3.96475185 10.3474016,3.69442786 10.3173656,3.36403187 C10.2723116,3.03363588 10.1371496,2.79334789 9.89686162,2.5981139 C9.65657363,2.40287991 9.38624964,2.31277191 9.05585365,2.34280791 L2.6581859,3.10872588 L2.6581859,3.10872588 Z"></path>
                        </g>
                        <g id="Shape" transform="translate(24.600060, 31.801360)" fill="#B22155">
                            <path d="M9.05606605,1.20146813 C7.83957957,0.255311978 6.47290957,-0.135165165 4.95605605,0.045055055 C3.43920253,0.225275275 2.20769769,0.931137803 1.24652319,2.13260594 C0.300367033,3.31905572 -0.09011011,4.70074407 0.09011011,6.21759759 C0.27033033,7.73445111 0.976192858,8.96595594 2.17766099,9.92713045 C3.36411077,10.8732866 4.74579913,11.2637637 6.24763429,11.0835435 C7.76448781,10.9033233 8.99599265,10.1974608 9.95716715,8.99599265 C10.9183417,7.79452451 11.3088188,6.42785451 11.1285986,4.91100099 C10.93336,3.39414748 10.2575342,2.14762429 9.05606605,1.20146813 M5.06118451,0.99121121 C6.32272605,0.841027693 7.46412078,1.15641308 8.47035034,1.95238572 C9.4765799,2.74835835 10.0472773,3.78462462 10.1974608,5.04616616 C10.3476443,6.3077077 10.0322589,7.43408407 9.23628627,8.44031363 C8.44031363,9.4465432 7.40404737,10.0022222 6.14250583,10.1524057 C4.88096429,10.3025892 3.75458792,9.98720385 2.74835835,9.19123122 C1.74212879,8.39525858 1.17143143,7.37401067 1.02124791,6.11246913 C0.871064396,4.85092759 1.18644978,3.70953286 1.98242242,2.7033033 C2.76337671,1.69707374 3.79964297,1.14139473 5.06118451,0.99121121 Z"></path>
                        </g>
                        <g id="Path" transform="translate(32.001823, 34.742096) rotate(-49.242994) translate(-32.001823, -34.742096) translate(26.820653, 31.888698)" fill="#E3FAC0">
                            <path d="M2.5530402,3.1837913 L2.31275406,1.14135915 C2.26770041,0.81096571 2.13253946,0.570679574 1.89225332,0.375447088 C1.6369493,0.180214602 1.38164528,0.0901073011 1.05125185,0.120143068 C0.720858409,0.150178835 0.480572272,0.30035767 0.285339787,0.540643806 C0.0901073011,0.780929943 -2.98372438e-16,1.05125185 0.030035767,1.38164528 L0.405482855,4.59547236 C0.435518622,4.89583003 0.585697457,5.15113405 0.825983593,5.33134865 C1.08128761,5.52658113 1.33659163,5.61668843 1.66698507,5.58665267 L9.20596259,4.70059754 C9.53635603,4.65554389 9.77664217,4.52038294 9.97187465,4.2800968 C10.1671071,4.03981067 10.2421966,3.76948876 10.2271787,3.43909532 C10.182125,3.10870189 10.0469641,2.86841575 9.80667793,2.67318327 C9.5663918,2.47795078 9.29606989,2.38784348 8.96567646,2.41787925 L2.5530402,3.1837913 Z"></path>
                        </g>
                    </g>
                </g>
            </g>
        </g>
    </g>
</svg>