<?xml version="1.0" encoding="UTF-8"?>
<svg width="25px" height="25px" viewBox="0 0 25 25" version="1.1" xmlns="http://www.w3.org/2000/svg" xmlns:xlink="http://www.w3.org/1999/xlink">
    <title>977B7619-8408-4F25-9BEC-1F65EC3A8101</title>
    <g id="MENU" stroke="none" stroke-width="1" fill="none" fill-rule="evenodd">
        <g id="F-01-Menu-Home" transform="translate(-69.000000, -265.000000)" fill="#1268B3" fill-rule="nonzero">
            <g id="Templates/Menu/Desktop" transform="translate(47.000000, 19.000000)">
                <g id="Menu" transform="translate(0.000000, 82.000000)">
                    <g id="Elements/CTAs/Secondary/Default/Whitewith-Icon" transform="translate(18.050781, 160.291667)">
                        <g id="Elements/Graphics/Style3/Help&amp;Support/Colour" transform="translate(4.000000, 3.791667)">
                            <g id="power" transform="translate(12.000000, 11.250000) rotate(90.000000) translate(-12.000000, -11.250000) translate(5.250000, 3.750000)">
                                <path d="M8.64778846,1.51307695 C8.50967308,1.47283656 8.36610577,1.55201926 8.32586538,1.68961541 C8.285625,1.82721156 8.36454808,1.9712981 8.50240385,2.01153849 C11.1390577,2.78259618 12.9807692,5.24193272 12.9807692,7.99255772 C12.9807692,11.4280481 10.1854904,14.2233269 6.75,14.2233269 C3.31450962,14.2233269 0.519230769,11.4280481 0.519230769,7.99255772 C0.519230769,5.23855772 2.36379808,2.77818272 5.005125,2.00920195 C5.14272115,1.96922118 5.22190385,1.82513464 5.18192308,1.68753849 C5.14220192,1.54994233 4.99811538,1.46972118 4.86025962,1.51074041 C1.99851923,2.34358656 0,5.00905772 0,7.99255772 C0,11.7146635 3.02789423,14.7425577 6.75,14.7425577 C10.4721058,14.7425577 13.5,11.7146635 13.5,7.99255772 C13.5,5.01269233 11.5045962,2.34851926 8.64778846,1.51307695 Z" id="Path"></path>
                                <path d="M6.75,7.78846154 C6.90951923,7.78846154 7.03846154,7.65951923 7.03846154,7.5 L7.03846154,0.288461538 C7.03846154,0.128942308 6.90951923,0 6.75,0 C6.59048077,0 6.46153846,0.128942308 6.46153846,0.288461538 L6.46153846,7.5 C6.46153846,7.65951923 6.59048077,7.78846154 6.75,7.78846154 Z" id="Path"></path>
                            </g>
                        </g>
                    </g>
                </g>
            </g>
        </g>
    </g>
</svg>