<?xml version="1.0" encoding="UTF-8"?>
<svg width="60px" height="61px" viewBox="0 0 60 61" version="1.1" xmlns="http://www.w3.org/2000/svg" xmlns:xlink="http://www.w3.org/1999/xlink">
    <title>572D5FEC-47CD-45C9-8F99-2E9938A9CDAA</title>
    <g id="Today--------------------------------------------" stroke="none" stroke-width="1" fill="none" fill-rule="evenodd">
        <g id="AFS-1334" transform="translate(-784.000000, -250.000000)" fill-rule="nonzero">
            <g id="Menu1" transform="translate(756.000000, 236.510417)">
                <g id="Revise" transform="translate(28.000000, 14.000000)">
                    <g id="Plan_A" transform="translate(0.000000, 7.000000)">
                        <g id="Layer2_0_MEMBER_0_FILL" transform="translate(0.110058, 0.062730)" fill="#30ABE5">
                            <path d="M0.351883598,0.201076342 L0.351883598,4.37341043 L36.8472396,4.37341043 C37.4001996,4.37341043 37.9028904,4.17233409 38.3050431,3.77018141 C38.7071958,3.36802872 38.9082721,2.86533787 38.9082721,2.31237793 C38.9082721,1.75941799 38.7071958,1.25672714 38.3050431,0.854574452 C37.9028904,0.452421769 37.4001996,0.251345427 36.8472396,0.251345427 L0.351883598,0.251345427 L0.351883598,0.201076342 Z" id="Path"></path>
                        </g>
                        <g id="Layer2_0_MEMBER_1_FILL" transform="translate(0.110058, 7.100402)" fill="#77CDF5">
                            <path d="M0.351883598,0.150807256 L0.351883598,4.32314135 L37.1488541,4.32314135 C37.7018141,4.32314135 38.2045049,4.12206501 38.6066576,3.71991232 C39.0088103,3.31775964 39.2098866,2.81506878 39.2098866,2.26210884 C39.2098866,1.7091489 39.0088103,1.20645805 38.6066576,0.804305367 C38.2045049,0.402152683 37.7018141,0.201076342 37.1488541,0.201076342 L0.351883598,0.201076342 L0.351883598,0.150807256 Z" id="Path"></path>
                        </g>
                        <g id="Layer2_0_MEMBER_2_FILL" transform="translate(14.185401, 0.062730)" fill="#30ABE5">
                            <path d="M23.2243175,0.201076342 C22.6210884,0.201076342 22.1686667,0.402152683 21.766514,0.804305367 C21.3643613,1.20645805 21.1130159,1.65887982 21.1130159,2.26210884 C21.1130159,2.81506878 21.3140922,3.31775964 21.7162449,3.71991232 C22.1183976,4.12206501 22.5708194,4.32314135 23.1740484,4.32314135 C28.1004188,4.42367952 32.373291,6.23336659 35.9423961,9.75220257 C39.5617702,13.3715767 41.3714573,17.7449872 41.3714573,22.8221648 C41.3714573,27.8993424 39.5617702,32.2727528 35.9423961,35.9423961 C32.3230219,39.5617702 27.9496115,41.3714573 22.8221648,41.3714573 C17.7449872,41.3714573 13.3715767,39.5617702 9.75220257,35.9423961 C6.28363568,32.4738292 4.4739486,28.3517642 4.32314135,23.5762011 C4.27287226,22.972972 4.07179592,22.5205503 3.66964324,22.1183976 C3.26749055,21.7162449 2.7647997,21.5654376 2.21183976,21.5654376 C1.60861073,21.6157067 1.15618896,21.8167831 0.754036281,22.2189358 C0.351883598,22.6210884 0.201076342,23.1237793 0.201076342,23.7270083 C0.402152683,29.5582222 2.61399244,34.6353999 6.83659562,38.858003 L6.83659562,38.858003 C11.2602751,43.2816826 16.5887982,45.4935223 22.8221648,45.4935223 C29.0555314,45.4935223 34.3840544,43.2816826 38.858003,38.858003 C43.2816826,34.3840544 45.4935223,29.0555314 45.4935223,22.8221648 C45.4935223,16.5887982 43.2816826,11.2602751 38.858003,6.78632653 L38.858003,6.78632653 C34.4845926,2.51345427 29.3068768,0.301614513 23.2243175,0.201076342 Z" id="Path"></path>
                        </g>
                        <g id="Layer2_0_MEMBER_3_FILL" transform="translate(34.795726, 7.100402)" fill="#77CDF5">
                            <path d="M0.904843538,0.754036281 C0.502690854,1.15618896 0.301614513,1.65887982 0.301614513,2.21183976 C0.301614513,2.7647997 0.502690854,3.26749055 0.904843538,3.66964324 C1.30699622,4.07179592 1.80968708,4.27287226 2.36264702,4.27287226 C5.5295994,4.32314135 8.19386092,5.42906123 10.4559698,7.64090099 C12.7180786,9.90300983 13.8742676,12.6175404 13.8742676,15.8347619 C13.8742676,19.0017143 12.7180786,21.7162449 10.4559698,24.0286228 L10.4559698,24.0286228 C8.19386092,26.2907317 5.5295994,27.3966516 2.36264702,27.4469206 C1.75941799,27.4469206 1.30699622,27.647997 0.904843538,28.0501497 C0.502690854,28.4523024 0.301614513,28.9549932 0.301614513,29.5079531 C0.301614513,30.0609131 0.502690854,30.5636039 0.904843538,30.9657566 C1.30699622,31.3679093 1.80968708,31.5689856 2.36264702,31.5689856 C6.63551928,31.5187166 10.3051625,30.010644 13.3715767,26.9442298 C16.4379909,23.8778156 17.9963326,20.1579033 17.9963326,15.8347619 C17.9963326,11.5116206 16.4379909,7.79170824 13.3715767,4.72529403 L13.3715767,4.72529403 C10.3051625,1.7091489 6.63551928,0.150807256 2.36264702,0.150807256 C1.75941799,0.150807256 1.30699622,0.351883598 0.904843538,0.754036281 Z" id="Path"></path>
                        </g>
                        <g id="Layer2_0_MEMBER_4_FILL" transform="translate(28.260745, 14.138074)" fill="#B6E8FF">
                            <path d="M14.9801875,2.61399244 C13.3213076,1.00538171 11.3608133,0.150807256 9.14897355,0.100538171 C8.59601361,0.100538171 8.09332275,0.251345427 7.69117007,0.653498111 C7.28901739,1.05565079 7.03767196,1.50807256 7.03767196,2.11130159 C7.03767196,2.66426153 7.18847922,3.16695238 7.5906319,3.56910507 C7.99278458,3.97125775 8.49547544,4.22260318 9.04843538,4.22260318 C10.2046243,4.27287226 11.2602751,4.72529403 12.1148496,5.5295994 C13.0196931,6.43444293 13.4721149,7.49009373 13.4721149,8.79708995 C13.4721149,10.0538171 13.0196931,11.159737 12.1148496,12.0645805 C11.2100061,12.969424 10.1040862,13.4218458 8.84735904,13.4218458 C7.5906319,13.4218458 6.53498111,12.969424 5.63013757,12.0645805 C4.87610129,11.3105442 4.42367952,10.4057007 4.32314135,9.35004989 C4.22260318,8.79708995 3.97125775,8.34466818 3.51883598,7.99278458 C3.06641421,7.64090099 2.56372336,7.49009373 1.96049433,7.54036281 C1.35726531,7.5906319 0.955112623,7.89224641 0.603229025,8.34466818 C0.251345427,8.79708995 0.100538171,9.2997808 0.150807256,9.85274074 C0.351883598,11.8132351 1.20645805,13.522384 2.66426153,14.9801875 C4.37341043,16.6893364 6.43444293,17.5439108 8.84735904,17.5439108 C11.2602751,17.5439108 13.3213076,16.6893364 15.0304565,14.9801875 C16.7396054,13.2710386 17.5941799,11.159737 17.5941799,8.79708995 C17.5941799,6.43444293 16.6893364,4.37341043 14.9801875,2.61399244 L14.9801875,2.61399244 Z" id="Path"></path>
                        </g>
                        <g id="Layer2_0_MEMBER_5_FILL" transform="translate(0.110058, 14.138074)" fill="#B6E8FF">
                            <path d="M0.351883598,0.0502690854 L0.351883598,4.22260318 L36.7467014,4.22260318 C37.2996614,4.22260318 37.8023522,4.02152683 38.2045049,3.61937415 C38.6066576,3.21722147 38.807734,2.71453061 38.807734,2.16157067 C38.807734,1.60861073 38.6066576,1.10591988 38.2045049,0.703767196 C37.8023522,0.301614513 37.2996614,0.100538171 36.7467014,0.100538171 L0.351883598,0.100538171 L0.351883598,0.0502690854 Z" id="Path"></path>
                        </g>
                    </g>
                </g>
            </g>
        </g>
    </g>
</svg>