<?xml version="1.0" encoding="UTF-8"?>
<svg width="64px" height="64px" viewBox="0 0 64 64" version="1.1" xmlns="http://www.w3.org/2000/svg" xmlns:xlink="http://www.w3.org/1999/xlink">
    <title>3D8FDB25-DEA4-4F37-8C44-AE970EF91AB2</title>
    <g id="Page-1" stroke="none" stroke-width="1" fill="none" fill-rule="evenodd">
        <g id="B-01-ST-Menu" transform="translate(-35.000000, -283.000000)" fill-rule="nonzero">
            <g id="Events" transform="translate(20.000000, 268.000000)">
                <g id="Elements/Graphics/Style2/Books" transform="translate(15.000000, 15.000000)">
                    <g id="059-calendar" transform="translate(7.000000, 4.000000)">
                        <path d="M43.0625611,8.74060053 L42.8015137,8.38513178 L42.5361939,8.73760989 C42.4866333,8.80297852 42.432373,8.85809323 42.3717042,8.90466303 C42.1209107,9.09564206 41.7868042,9.12213138 41.4625245,9.12213138 L41.3834839,9.12213138 L38.7678833,9.10888672 C38.3444824,9.10589597 37.9415893,9.08154297 37.6583253,8.81665039 C37.5258789,8.6931763 37.43573,8.53381353 37.383606,8.32958984 L37.2656861,7.87072759 L36.8777466,8.14202878 C36.2501221,8.58081055 35.8809815,9.38531497 35.9378052,10.191101 C35.9984741,11.0340576 36.4936523,11.8547974 37.2631225,12.3867188 C38.1159057,12.9763184 39.0925904,13.1002198 39.7620849,13.1002198 L39.7911377,13.0997925 C41.1412354,13.0916748 42.3366699,12.553772 42.9899292,11.6604004 C43.61969,10.7973633 43.6508789,9.54211431 43.0625611,8.74060053 Z" id="Path" fill="#644C4C"></path>
                        <path d="M32.809082,8.38513178 L32.5433349,8.73760989 C32.4942017,8.80297852 32.4399414,8.85809323 32.3796997,8.90423581 C32.1276245,9.09564206 31.7930909,9.12213138 31.4688111,9.12213138 L31.390625,9.12213138 L28.7750245,9.10888672 C28.3520508,9.10589597 27.9487305,9.08154297 27.6650391,8.81579584 C27.5313111,8.69189453 27.4441529,8.5372315 27.3911743,8.32958984 L27.2732544,7.87072759 L26.885315,8.14202878 C26.2564087,8.58209231 25.8872681,9.38616941 25.9453736,10.191101 C26.0060425,11.0340576 26.5012207,11.8547974 27.2702637,12.3867188 C28.1230469,12.9763184 29.1001587,13.1002198 29.7696534,13.1002198 L29.798706,13.0997925 C31.1483764,13.0916748 32.3442383,12.553772 32.9974975,11.6604004 C33.6272583,10.7973633 33.6584473,9.54211431 33.0701294,8.74060053 L32.809082,8.38513178 Z" id="Path" fill="#644C4C"></path>
                        <path d="M22.8166504,8.38513178 L22.5509034,8.73760989 C22.50177,8.80297852 22.4475098,8.85809323 22.3872681,8.90423581 C22.1351928,9.09564206 21.8006591,9.12213137 21.4763794,9.12213137 L21.3981934,9.12213137 L18.7813111,9.10888672 C18.3587646,9.10589597 17.9562988,9.08111575 17.6721802,8.81665039 C17.5388794,8.69189453 17.4517212,8.53765872 17.3983154,8.32958984 L17.2808228,7.87115481 L16.8928833,8.14202878 C16.2639771,8.58081055 15.8948365,9.38531497 15.9529419,10.191101 C16.0136108,11.0340576 16.5087891,11.8547974 17.2782593,12.3867188 C18.1310425,12.9763184 19.1077271,13.1002198 19.7772216,13.1002198 L19.8062745,13.0997925 C21.1563721,13.0916747 22.3518066,12.553772 23.0050659,11.6604004 C23.6348267,10.7973633 23.6660156,9.54211431 23.0776978,8.74060053 L22.8166504,8.38513178 Z" id="Path" fill="#644C4C"></path>
                        <path d="M12.8242187,8.38470456 L12.5584716,8.73760989 C12.5089112,8.80297852 12.4550781,8.85766602 12.3931275,8.90466303 C12.142334,9.09564206 11.8078003,9.12213137 11.4839478,9.12213137 L11.4057617,9.12213137 L8.78887942,9.10888672 C8.36590573,9.10589597 7.96301275,9.08111575 7.67932134,8.81665039 C7.54644778,8.69189453 7.45928958,8.53765872 7.40588384,8.32958984 L7.28839114,7.87115481 L6.90045169,8.14202878 C6.27154544,8.58081055 5.90240481,9.38531497 5.96051028,10.191101 C6.02117917,11.0349121 6.51678464,11.8556518 7.28540039,12.3862915 C8.13861081,12.9763184 9.1105957,13.0997925 9.77624506,13.0997925 L9.81384272,13.0997925 C11.1643677,13.0916748 12.359375,12.5533448 13.0109253,11.6604004 C13.6411133,10.798645 13.6731568,9.54339597 13.0852661,8.74102786 L12.8242187,8.38470456 Z" id="Path" fill="#644C4C"></path>
                        <path d="M49.4298096,54.7071534 C49.8745728,54.1444702 49.9117432,53.4014893 49.9130249,52.5585327 L49.9211426,48.2954712 L42.5549927,55.510376 L46.5843505,55.5526733 C46.6531372,55.5535279 46.722351,55.5539551 46.7919922,55.5539551 C47.7656861,55.5539551 48.8410645,55.453125 49.4298096,54.7071534 Z" id="Path" fill="#D8DEEC"></path>
                        <path d="M42.5007324,55.4001465 L49.6882935,48.3604126 L43.8427124,48.9658203 C43.3620605,49.0158081 42.9399414,49.079895 42.6442871,49.3597412 C42.2405396,49.739563 42.2388306,50.3855591 42.2691651,50.9606323 L42.5007324,55.4001465 Z" id="Path" fill="#D8DEEC"></path>
                        <path d="M41.9307862,16.489563 C36.2868652,16.489563 30.6762695,16.3985596 25.2506714,16.3105469 L25.2335815,16.3101197 C19.7977294,16.2216797 14.1773072,16.1298218 8.51843256,16.1298218 C5.80072019,16.1298218 3.30603022,16.1503296 0.897216797,16.1930542 C0.888244656,16.192627 0.878845188,16.1921997 0.8690185,16.1921997 L0.538757297,16.1921997 L0.765197781,51.4720458 C0.773315375,52.7345581 0.914733859,54.1085815 1.89868164,54.7268066 C2.42803958,55.0604858 3.08001706,55.0933838 3.81530756,55.1002198 L42.3892212,55.5086669 L42.1520996,50.967041 C42.1200561,50.3667603 42.1226197,49.6921387 42.5626831,49.2751465 C42.9130249,48.9444581 43.4214478,48.8919068 43.8303223,48.8496094 L49.4490357,48.2677003 C49.4550171,48.2677003 49.4614258,48.2694091 49.4686889,48.2723999 L49.9207154,48.458252 L49.9813843,16.3588257 L49.5789185,16.4267578 C47.1444702,16.4686279 44.6429443,16.489563 41.9307862,16.489563 Z M5.02655027,20.4313354 C5.2478638,20.3424682 5.49224856,20.295044 5.73278803,20.295044 C6.08868411,20.295044 6.75775144,20.4031372 7.23925781,21.1281738 C7.68743894,21.8023682 7.66351316,22.7628174 7.18371587,23.4105224 C6.87396237,23.8270874 6.38946536,24.0979615 5.88958737,24.1355591 C5.85028073,24.1385498 5.81054688,24.1402588 5.77124023,24.1402588 C4.90478516,24.1402588 4.09686277,23.4327393 3.93280027,22.529541 C3.76275638,21.5913086 4.19213867,20.7675781 5.02655027,20.4313354 Z M5.02655027,27.0639038 C5.2478638,26.9746094 5.49182134,26.9276123 5.73278803,26.9276123 C6.08868411,26.9276123 6.75775144,27.0357056 7.23925781,27.760315 C7.68743894,28.435791 7.66394038,29.395813 7.18371588,30.0435181 C6.87438959,30.4600831 6.38989258,30.7313842 5.89001459,30.7689819 C5.85028073,30.7715454 5.81097409,30.7728271 5.77166745,30.7728271 C4.90478516,30.7728271 4.09729009,30.0657349 3.93280027,29.1629638 C3.76275638,28.2243042 4.19213867,27.4005737 5.02655027,27.0639038 Z M7.18371588,43.5410767 C6.87396238,43.9572143 6.38946536,44.2285156 5.88958738,44.2661133 C5.85028073,44.2686768 5.80969244,44.2695312 5.76824948,44.2695312 C4.90350339,44.2695312 4.09729009,43.5624389 3.93280027,42.6600952 C3.76275638,41.7214355 4.19213867,40.8972779 5.02655027,40.5610352 C5.24743647,40.472168 5.49139402,40.4251708 5.73193359,40.4251708 C6.08825678,40.4251708 6.75775144,40.5332642 7.23925781,41.257019 C7.68701172,41.9324951 7.66351316,42.8933716 7.18371588,43.5410767 Z M7.18371588,36.9076538 C6.87396238,37.3237915 6.38946536,37.5946655 5.89001459,37.6322632 C5.85028073,37.6352539 5.81097409,37.6369629 5.77166745,37.6369629 C4.90478516,37.6369629 4.09729009,36.9294434 3.93280027,36.0266724 C3.76275637,35.08844 4.19213867,34.2647095 5.02697759,33.9284668 C5.2478638,33.8391724 5.49224856,33.7921753 5.73321536,33.7921753 C6.08911133,33.7921753 6.75817866,33.9002685 7.23925781,34.6248779 C7.68743894,35.2994995 7.66394038,36.2595215 7.18371588,36.9076538 Z M37.3088379,20.4313354 C37.5297241,20.3424682 37.7736816,20.295044 38.0142212,20.295044 C38.3701172,20.295044 39.0391846,20.4031372 39.5202637,21.1281738 C39.9688721,21.8019409 39.9453736,22.7619629 39.4642944,23.4109497 C39.1558228,23.8270874 38.6713257,24.0979615 38.1705932,24.1355591 C38.1312866,24.1381225 38.09198,24.1402588 38.0522461,24.1402588 C37.1853638,24.1402588 36.3782958,23.4327393 36.2150879,22.5291138 C36.0441895,21.5917358 36.4735718,20.7680053 37.3088379,20.4313354 Z M37.3088379,27.0639038 C37.5297241,26.9746094 37.7736816,26.9276123 38.0142212,26.9276123 C38.3701172,26.9276123 39.0391846,27.0357056 39.5202637,27.7607422 C39.9688721,28.4353638 39.9453736,29.3953857 39.4642944,30.0439453 C39.15625,30.4600831 38.6717529,30.7313842 38.1705932,30.7689819 C38.1312866,30.7719727 38.09198,30.7728271 38.0522461,30.7728271 C37.1853638,30.7728271 36.3782958,30.0657349 36.2150879,29.1629638 C36.0437622,28.2243042 36.4731445,27.4005737 37.3088379,27.0639038 Z M39.4642944,36.908081 C39.1558228,37.3237915 38.6713257,37.5946655 38.1705932,37.6326904 C38.1312866,37.6352539 38.0915527,37.6373901 38.0522461,37.6373901 C37.1853638,37.6373901 36.3782958,36.9298706 36.2150879,36.0262451 C36.0437622,35.08844 36.4731445,34.2651367 37.3088379,33.9284668 C37.5297241,33.8391724 37.7736816,33.7921753 38.0142212,33.7921753 C38.3701172,33.7921753 39.0387573,33.9002685 39.5202637,34.6253052 C39.9688721,35.298645 39.9453736,36.2586669 39.4642944,36.908081 Z M17.9396362,20.4313354 C18.1605224,20.3424682 18.4049073,20.295044 18.6454468,20.295044 C19.0013427,20.295044 19.6699829,20.4031372 20.1519165,21.1281738 C20.6000977,21.8027954 20.5761719,22.7628174 20.0950927,23.4109497 C19.7866211,23.8270874 19.3025513,24.0979615 18.8031005,24.1355591 C18.7625122,24.1381225 18.7227784,24.1402588 18.6830444,24.1402588 C17.8170167,24.1402588 17.0099487,23.4327393 16.845459,22.529541 C16.6758423,21.5913086 17.1052246,20.7675781 17.9396362,20.4313354 Z M17.9396362,27.0639038 C18.1605224,26.9750366 18.4040527,26.9280396 18.6445923,26.9280396 C19.0004883,26.9280396 19.6695557,27.0361328 20.1519165,27.760315 C20.6000977,28.4362182 20.5761719,29.3962402 20.0950927,30.0439453 C19.7866211,30.4600831 19.3029785,30.7313842 18.8031005,30.7689819 C18.7625122,30.7715454 18.7227784,30.7728271 18.6830444,30.7728271 C17.8170167,30.7728271 17.0099487,30.0657349 16.8458862,29.1629638 C16.6754151,28.2243042 17.1047974,27.4005737 17.9396362,27.0639038 Z M13.6385498,43.5415039 C13.3300781,43.9576417 12.8464355,44.2285156 12.3457031,44.2661133 C12.3063965,44.2686768 12.2658081,44.2695312 12.2247925,44.2695312 C11.3596191,44.2695312 10.5534057,43.5624389 10.3893432,42.6600952 C10.2192993,41.7214355 10.6486816,40.8972779 11.4830932,40.5610352 C11.7039794,40.472168 11.947937,40.4255982 12.1884766,40.4255982 C12.5447998,40.4255982 13.2142944,40.5336914 13.6953736,41.2574463 C14.1435547,41.9329224 14.1200561,42.8933716 13.6385498,43.5415039 Z M13.6385498,36.908081 C13.3300781,37.3237915 12.8464355,37.5946655 12.3461303,37.6326904 C12.3068237,37.6352539 12.2662354,37.6373901 12.2265014,37.6373901 C11.3609009,37.6373901 10.5538331,36.9298706 10.3893432,36.0266724 C10.2192993,35.08844 10.6486816,34.2647095 11.4830932,33.9284668 C11.7044068,33.8391724 11.9483643,33.7921753 12.189331,33.7921753 C12.5452271,33.7921753 13.2142944,33.9002685 13.6958008,34.6248779 C14.1439819,35.2994995 14.1200561,36.2595215 13.6385498,36.908081 Z M11.4830932,27.0639038 C11.7044068,26.9746094 11.9483643,26.9276123 12.189331,26.9276123 C12.5452271,26.9276123 13.2142944,27.0357056 13.6958008,27.760315 C14.1439819,28.435791 14.1200561,29.3962402 13.6385498,30.0439453 C13.3305053,30.4600831 12.8464355,30.7313842 12.3461303,30.7689819 C12.3068237,30.7719727 12.2666626,30.7728271 12.2277832,30.7728271 C11.3613281,30.7728271 10.5538331,30.0657349 10.3897706,29.1633911 C10.2192993,28.2243042 10.6482544,27.4005737 11.4830932,27.0639038 Z M13.6385498,23.4109497 C13.3300781,23.8270874 12.8460083,24.0979615 12.3461303,24.1355591 C12.3068237,24.1381225 12.2662354,24.1402588 12.2277832,24.1402588 C11.3609009,24.1402588 10.5534057,23.4327393 10.3893432,22.529541 C10.2192993,21.5913086 10.6486816,20.7675781 11.4830932,20.4313354 C11.7044068,20.342041 11.9483643,20.295044 12.189331,20.295044 C12.5452271,20.295044 13.2142944,20.4031372 13.6953736,21.1277466 C14.1439819,21.8027954 14.1200561,22.7628174 13.6385498,23.4109497 Z M20.0950927,43.5415039 C19.7866211,43.9576417 19.3025513,44.2280884 18.8026733,44.2661133 C18.7620849,44.2686768 18.7227784,44.2695312 18.6830444,44.2695312 C17.8170167,44.2695312 17.0099487,43.5624389 16.8458862,42.6600952 C16.6754151,41.7214355 17.1047974,40.8972779 17.939209,40.5610352 C18.1600952,40.472168 18.4040527,40.4251708 18.6445923,40.4251708 C19.0004883,40.4251708 19.6699829,40.5332642 20.1519165,41.257019 C20.6000977,41.9329224 20.5761719,42.8933716 20.0950927,43.5415039 Z M20.0950927,36.908081 C19.7866211,37.3237915 19.3025513,37.5946655 18.8031005,37.6322632 C18.7625122,37.6352539 18.7227784,37.6369629 18.6830444,37.6369629 C17.8170167,37.6369629 17.0099487,36.9294434 16.8458862,36.0266724 C16.6754151,35.08844 17.1047974,34.2647095 17.9396362,33.9284668 C18.1605224,33.8391724 18.4049073,33.7921753 18.6454468,33.7921753 C19.0013427,33.7921753 19.6699829,33.9002685 20.1519165,34.6248779 C20.6005249,35.2994995 20.5761719,36.2595215 20.0950927,36.908081 Z M26.5516357,43.5415039 C26.2431641,43.9576417 25.7586669,44.2285156 25.2575073,44.2661133 C25.2182007,44.2686768 25.178894,44.2695312 25.1374512,44.2695312 C24.2722779,44.2695312 23.4660645,43.5624389 23.302002,42.6600952 C23.1319581,41.7214355 23.560913,40.8972779 24.3953247,40.5610352 C24.6166382,40.472168 24.8601685,40.4255982 25.1007081,40.4255982 C25.4570313,40.4255982 26.1260987,40.5336914 26.6080323,41.2574463 C27.0566406,41.9329224 27.0327148,42.8933716 26.5516357,43.5415039 Z M26.5516357,36.908081 C26.2431641,37.3237915 25.7586669,37.5946655 25.2579346,37.6326904 C25.2182007,37.6352539 25.178894,37.6373901 25.1395874,37.6373901 C24.2735596,37.6373901 23.4664917,36.9298706 23.302002,36.0266724 C23.1319581,35.08844 23.5613404,34.2647095 24.395752,33.9284668 C24.6170654,33.8391724 24.8610229,33.7921753 25.1019897,33.7921753 C25.4574585,33.7921753 26.1265259,33.9002685 26.6084595,34.6248779 C27.0566406,35.2994995 27.0327148,36.2595215 26.5516357,36.908081 Z M24.3961792,27.0639038 C24.6170654,26.9746094 24.8614503,26.9276123 25.1019897,26.9276123 C25.4578857,26.9276123 26.1265259,27.0357056 26.6084595,27.760315 C27.0566406,28.435791 27.0327148,29.3962402 26.5512085,30.0439453 C26.2431641,30.4600831 25.7590943,30.7313842 25.2579346,30.7689819 C25.2186279,30.7719727 25.178894,30.7728271 25.1395874,30.7728271 C24.2735596,30.7728271 23.4664917,30.0657349 23.3024292,29.1633911 C23.1319581,28.2243042 23.5613404,27.4005737 24.3961792,27.0639038 Z M26.5516357,23.4109497 C26.2431641,23.8270874 25.7586669,24.0979615 25.2579346,24.1355591 C25.2186279,24.1381225 25.178894,24.1402588 25.1395874,24.1402588 C24.2735596,24.1402588 23.4664917,23.4327393 23.302002,22.529541 C23.1319581,21.5913086 23.5613404,20.7675781 24.395752,20.4313354 C24.6170654,20.342041 24.8614503,20.295044 25.1019897,20.295044 C25.4574585,20.295044 26.1265259,20.4031372 26.6084595,21.1277466 C27.0566406,21.8027954 27.0327148,22.7628174 26.5516357,23.4109497 Z M33.0077514,43.5415039 C32.6992798,43.9576417 32.2152099,44.2285156 31.7140503,44.2661133 C31.6747436,44.2686768 31.6350098,44.2695312 31.5957031,44.2695312 C30.7296753,44.2695312 29.9226074,43.5628662 29.7585449,42.6600952 C29.5876465,41.7214355 30.0166016,40.8977051 30.8518677,40.5610352 C31.0731811,40.4725952 31.3167115,40.4255982 31.557251,40.4255982 C31.913147,40.4255982 32.5822143,40.5336914 33.0637207,41.2574463 C33.5123292,41.9320678 33.4888306,42.8925171 33.0077514,43.5415039 Z M33.0077514,36.908081 C32.6992798,37.3237915 32.2152099,37.5946655 31.7140503,37.6326904 C31.6747436,37.6352539 31.635437,37.6373901 31.5957031,37.6373901 C30.7296753,37.6373901 29.9226074,36.9298706 29.7585449,36.0262451 C29.5876465,35.08844 30.0166016,34.2651367 30.8522949,33.9284668 C31.0731811,33.8391724 31.3171387,33.7921753 31.5576783,33.7921753 C31.9135742,33.7921753 32.5822143,33.9002685 33.0637207,34.6253052 C33.5123292,35.298645 33.4888306,36.2586669 33.0077514,36.908081 Z M30.8527221,27.0639038 C31.0731811,26.9750366 31.3167115,26.9280396 31.557251,26.9280396 C31.913147,26.9280396 32.5822143,27.0361328 33.0637207,27.7607422 C33.5123292,28.4353638 33.4888306,29.3953857 33.0077514,30.0439453 C32.699707,30.4600831 32.2152099,30.7313842 31.7140503,30.7689819 C31.6747436,30.7719727 31.635437,30.7728271 31.5957031,30.7728271 C30.7296753,30.7728271 29.9226074,30.0657349 29.7585449,29.1629638 C29.5876465,28.2243042 30.0166016,27.4005737 30.8527221,27.0639038 Z M33.0077514,23.4109497 C32.6992798,23.8270874 32.2152099,24.0979615 31.7144776,24.1355591 C31.6747436,24.1381225 31.635437,24.1402588 31.5957031,24.1402588 C30.7301026,24.1402588 29.9230346,23.4327393 29.7585449,22.5291138 C29.5876465,21.5913086 30.0170288,20.7680053 30.8522949,20.4313354 C31.0736083,20.342041 31.3175659,20.295044 31.5585327,20.295044 C31.9140014,20.295044 32.5826417,20.4031372 33.0641479,21.1281738 C33.5123292,21.8019409 33.4888306,22.7619629 33.0077514,23.4109497 Z M35.439209,46.9718628 L35.3447876,46.8013917 L35.5391846,46.7501221 L35.5567017,46.8624878 L35.439209,46.9718628 Z M39.5591431,45.5004272 C39.1383057,45.7213135 38.6508178,45.8379517 38.1496582,45.8379517 C37.1738281,45.8379517 36.2467042,45.4119873 35.6694947,44.6989135 C34.7637329,43.5786743 34.7782593,41.8346557 35.7019654,40.7285156 C36.2838745,40.0325318 37.1118775,39.6492919 38.0343018,39.6492919 C38.2615966,39.6492919 38.4931641,39.6732177 38.722168,39.7206421 C39.869751,39.9577637 40.7802124,40.7703857 41.098938,41.8423462 C41.5095215,43.222351 40.8327637,44.8292237 39.5591431,45.5004272 Z M45.9212646,43.5410767 C45.6115112,43.9572143 45.1270142,44.2285156 44.626709,44.2661133 C44.5874023,44.2686768 44.5480957,44.2695312 44.5066529,44.2695312 C43.640625,44.2695312 42.8344116,43.5628662 42.6712036,42.659668 C42.5003052,41.7214355 42.9296875,40.8977051 43.7649536,40.5610352 C43.9854126,40.472168 44.2293701,40.4251708 44.4694824,40.4251708 C44.8258057,40.4251708 45.4953003,40.5332642 45.9768066,41.2574463 C46.4249878,41.9320678 46.4014893,42.8925171 45.9212646,43.5410767 Z M45.9212646,36.9076538 C45.6115112,37.3237915 45.1270142,37.5946655 44.6271362,37.6322632 C44.5878296,37.6352539 44.5480957,37.6369629 44.5087891,37.6369629 C43.6414794,37.6369629 42.8348388,36.9298706 42.6716309,36.0262451 C42.5003052,35.08844 42.9296875,34.2651367 43.7653809,33.9284668 C43.9862671,33.8391724 44.2302246,33.7921753 44.4707642,33.7921753 C44.8266602,33.7921753 45.4953003,33.9002685 45.9768066,34.6253052 C46.4254151,35.298645 46.4014893,36.2586669 45.9212646,36.9076538 Z M43.7653809,27.0639038 C43.9862671,26.9746094 44.2302246,26.9276123 44.4707642,26.9276123 C44.8266602,26.9276123 45.4953003,27.0357056 45.9768066,27.7607422 C46.4254151,28.4353638 46.4019165,29.3953857 45.9208374,30.0435181 C45.6115112,30.4600831 45.1270142,30.7313842 44.6271362,30.7689819 C44.5878296,30.7719727 44.5480957,30.7728271 44.5066529,30.7728271 C43.640625,30.7728271 42.8344116,30.0657349 42.6712036,29.1629638 C42.5003052,28.2243042 42.9296875,27.4005737 43.7653809,27.0639038 Z M45.9212646,23.4105224 C45.6115112,23.8270874 45.1270142,24.0979615 44.6271362,24.1355591 C44.5878296,24.1385498 44.5480957,24.1402588 44.5087891,24.1402588 C43.6419068,24.1402588 42.8348388,23.4327393 42.6712036,22.529541 C42.5003052,21.5917358 42.9296875,20.7680053 43.7653809,20.4313354 C43.9862671,20.342041 44.2302246,20.295044 44.4707642,20.295044 C44.8266602,20.295044 45.4953003,20.4031372 45.9768066,21.1281738 C46.4254151,21.8019409 46.4014893,22.7619629 45.9212646,23.4105224 Z" id="Shape" fill="#FFFFFF"></path>
                        <path d="M25.2357177,16.1930542 C30.6463622,16.2810669 36.2411499,16.3724975 41.9188232,16.3724975 C44.6502075,16.3724975 47.1577148,16.3515625 49.5861816,16.3088379 C49.5908814,16.3088379 49.5951538,16.3096924 49.5998535,16.3105469 L49.9805298,16.37677 L49.9839478,15.9901123 C49.9907837,15.2172241 50.0258178,14.3823853 50.0540161,13.7120362 C50.1334839,11.8171997 50.2155151,9.85827631 49.9143066,8.05401614 C49.6271973,6.32751459 48.064331,6.18267825 46.6219482,6.18267825 C46.4100341,6.18267825 46.1724854,6.18652344 45.8738404,6.19506836 C45.5824585,6.20361328 45.3406372,6.21044922 45.1056518,6.21044922 C45.0163574,6.21044922 44.928772,6.20916745 44.8428956,6.20703125 L42.7066651,6.14807134 L42.7733154,7.49688723 C42.7797241,7.63061523 42.7904052,7.85449219 42.7660522,8.08306888 L42.7481079,8.25097656 L42.8745728,8.36291509 C43.7521362,9.14178464 43.8482667,10.6832885 43.0843505,11.729187 C42.4110107,12.6516113 41.1801147,13.2074585 39.7949829,13.2168579 L39.7556763,13.2168579 C38.7768555,13.2168579 37.8920288,12.9626465 37.1968995,12.4819947 C36.3983764,11.9299927 35.8843995,11.076355 35.8215943,10.1987915 C35.7532349,9.24346927 36.2629395,8.29626459 37.055481,7.89849856 C37.0606079,7.89593503 37.0661621,7.89422605 37.0712891,7.89294428 L37.319519,7.826294 L37.326355,7.57208255 C37.3378906,7.12176511 37.3327637,6.67272944 37.326355,6.29290769 L37.3203736,5.97930911 L37.0067749,5.97076419 C36.2766113,5.95111081 35.6045532,5.93701172 34.9324951,5.92248541 L34.8936157,5.92205808 C34.2958984,5.90881353 33.6956177,5.89599609 33.053894,5.87890625 L32.7005615,5.86950678 L32.7800293,7.49902344 C32.789856,7.67974856 32.7962646,7.87542722 32.7740479,8.08306888 L32.7561035,8.25097656 L32.8821411,8.36291509 C33.7597046,9.14221197 33.8554077,10.6837159 33.0923462,11.729187 C32.4177246,12.6516113 31.1868286,13.2074585 29.8025513,13.2168579 L29.7628174,13.2168579 C28.7844238,13.2168579 27.8995971,12.9626465 27.2044677,12.4819947 C26.4059448,11.9299927 25.8919677,11.076355 25.8291626,10.1987915 C25.760376,9.24346927 26.2700806,8.29626459 27.0630493,7.89849856 C27.0681763,7.89593503 27.0737305,7.89422605 27.0788574,7.89294428 L27.3275146,7.826294 L27.3334961,7.571228 C27.3463135,7.0546875 27.338623,6.52661133 27.3283691,6.03271484 L27.3215332,5.71954348 L26.7477417,5.70501706 C26.029541,5.6853638 25.3835449,5.66442866 24.7375488,5.64392084 L24.3666992,5.63195806 C23.9398803,5.61785886 23.5062255,5.60418698 23.0477905,5.59136966 L22.6936035,5.58154297 L22.7871704,7.49902344 C22.7974243,7.67932134 22.8029785,7.87457278 22.7803345,8.08135989 L22.7615357,8.25054934 L22.8884277,8.36334231 C23.7664185,9.14263919 23.8625488,10.6841431 23.0986328,11.7296143 C22.4248657,12.6516113 21.1948242,13.2078857 19.8096924,13.2168579 L19.7703857,13.2168579 C18.7907104,13.2168579 17.9058838,12.9630737 17.2120362,12.4824219 C16.4135132,11.9304199 15.8995362,11.0767823 15.8363037,10.1987915 C15.7679443,9.24346927 16.277649,8.29669192 17.0706177,7.89849856 C17.0770263,7.89550781 17.0830078,7.89379883 17.0864258,7.89294428 L17.3350831,7.826294 L17.3410645,7.57165522 C17.3560181,6.97308347 17.3427734,6.35058594 17.3303833,5.74859622 L17.3235474,5.4362793 L17.0112305,5.42730716 C16.3233643,5.408081 15.6675415,5.3918457 15.0147095,5.37561041 L12.6879272,5.31536863 L12.795166,7.49731445 C12.8024292,7.65112305 12.8122559,7.86175534 12.7879029,8.08135989 L12.769104,8.25054934 L12.8959961,8.36334231 C13.7739868,9.14263919 13.8701172,10.6841431 13.1062012,11.7296143 C12.4324341,12.6516113 11.201538,13.2078857 9.81640625,13.2168579 L9.77795416,13.2168579 C8.79827878,13.2168579 7.91345209,12.9630737 7.21917722,12.4824219 C6.42108152,11.9304199 5.90667722,11.0767823 5.84387212,10.1987915 C5.77551275,9.24346927 6.28521731,8.29669192 7.07818606,7.89849856 C7.08459478,7.89550781 7.09014895,7.89379883 7.09399414,7.89294428 L7.34222409,7.826294 L7.34863281,7.57165522 C7.36401367,6.97308347 7.35076902,6.36254883 7.33666992,5.71612552 L7.33111575,5.47174075 L7.32556147,5.15686041 L7.01068112,5.14959714 C6.82397461,5.14532473 6.65478516,5.14318853 6.50482175,5.14318853 C6.50097656,5.14318853 6.49670416,5.14318853 6.49285886,5.14318853 C6.24633789,5.13635259 6.0237427,5.13336184 5.81353762,5.13336184 C4.2088013,5.13336184 2.23663333,5.31536863 1.22149661,6.73510742 C0.541320828,7.68743894 0.492614719,8.90167239 0.500732422,10.2748413 L0.538757297,16.078125 L0.864746094,16.078125 C0.873718234,16.078125 0.883972141,16.0776978 0.894653375,16.0768432 C3.31799322,16.0336914 5.82208255,16.0131836 8.55047605,16.0131836 C14.1935425,16.0131836 19.8041382,16.1046143 25.2357177,16.1930542 Z" id="Path" fill="#ED6D66"></path>
                        <path d="M38.7661743,39.5108643 C38.5239258,39.4608764 38.2786865,39.4352417 38.0372925,39.4352417 C37.048645,39.4352417 36.1612549,39.8458253 35.5374755,40.5909424 C34.5505371,41.7718505 34.5351562,43.635498 35.5024414,44.8334961 C36.1206665,45.5986939 37.1080323,46.0558471 38.1436768,46.0558471 C38.6802979,46.0558471 39.2041016,45.9293823 39.6574096,45.690979 C41.0203247,44.9744873 41.7440796,43.2565307 41.3048706,41.7808228 C40.9579467,40.6148682 40.008606,39.7663574 38.7661743,39.5108643 Z M39.4642944,43.5415039 C39.1558228,43.9576417 38.6713257,44.2285156 38.170166,44.2661133 C38.1308594,44.2686768 38.0915527,44.2695312 38.0501099,44.2695312 C37.1845092,44.2695312 36.3782958,43.5628662 36.2146607,42.6600952 C36.0437622,41.7214355 36.4731445,40.8977051 37.3084107,40.5610352 C37.5288697,40.472168 37.7728271,40.4255982 38.0129395,40.4255982 C38.3692627,40.4255982 39.0387573,40.5336914 39.5202637,41.2574463 C39.9688721,41.9320678 39.9449463,42.8925171 39.4642944,43.5415039 Z" id="Shape" fill="#ED6D66"></path>
                        <path d="M38.0039673,40.5443725 C37.7800904,40.5443725 37.5545044,40.5875245 37.3519897,40.6699829 C36.7589721,40.9088135 36.1356201,41.567627 36.3295898,42.6383057 C36.4833984,43.4880982 37.2404785,44.1533203 38.0522461,44.1533203 C38.0881348,44.1533203 38.1240234,44.1520385 38.1603393,44.1494751 C38.6290284,44.1140137 39.0810547,43.8602294 39.369873,43.4710083 C39.8154908,42.8720092 39.838562,41.9487305 39.423706,41.3232422 C39.0951538,40.8280639 38.5773315,40.5443725 38.0039673,40.5443725 Z" id="Path" fill="#ED6D66"></path>
                        <path d="M44.5070801,24.0231934 C44.543396,24.0231934 44.5801392,24.0219116 44.6164551,24.0189208 C45.0855713,23.9834595 45.5380249,23.7301026 45.8268432,23.3417358 C46.2720337,22.7410279 46.2946777,21.8168945 45.8789673,21.192688 C45.5508423,20.697937 45.0334473,20.4138184 44.4596557,20.4138184 C44.239624,20.4138184 44.0148926,20.4569702 43.8085327,20.5394287 C43.2155151,20.7786865 42.5917358,21.4375 42.7857056,22.5090332 C42.9395142,23.3579712 43.6957397,24.0231934 44.5070801,24.0231934 Z" id="Path" fill="#F9D889"></path>
                        <path d="M44.5070801,30.6566162 C44.5438232,30.6566162 44.5801392,30.6553345 44.6164551,30.6523438 C45.085144,30.6168823 45.5375977,30.3635254 45.8268432,29.973877 C46.2716065,29.3735962 46.2942505,28.4503174 45.8793945,27.826538 C45.5512695,27.3305053 45.0338745,27.0463867 44.4596557,27.0463867 C44.2379151,27.0463867 44.0127564,27.0903931 43.8085327,27.1728516 C43.2155151,27.4121094 42.5917358,28.0709229 42.7857056,29.1416016 C42.9399414,29.9909668 43.6957397,30.6566162 44.5070801,30.6566162 Z" id="Path" fill="#F9D889"></path>
                        <path d="M44.4596557,33.9105224 C44.239624,33.9105224 44.0148926,33.9541016 43.8085327,34.0361328 C43.2155151,34.2749634 42.5917358,34.9342042 42.7857056,36.0057373 C42.9395142,36.8546753 43.6961669,37.5198974 44.5087891,37.5198974 C44.5446777,37.5198974 44.5805664,37.5186158 44.6164551,37.515625 C45.0859986,37.4801635 45.5380249,37.2272339 45.8268432,36.83844 C46.2716065,36.2385865 46.2942505,35.3144531 45.8793945,34.6898193 C45.5508423,34.1946411 45.0334473,33.9105224 44.4596557,33.9105224 Z" id="Path" fill="#F9D889"></path>
                        <path d="M44.5087891,44.1533203 C44.5446777,44.1533203 44.5801392,44.1520385 44.6164551,44.1494751 C45.085144,44.1140137 45.5375977,43.8602294 45.826416,43.4710083 C46.2720337,42.8711548 46.2946777,41.947876 45.8793945,41.3236694 C45.5516968,40.8280639 45.0338745,40.5443725 44.4592285,40.5443725 C44.236206,40.5443725 44.0106201,40.5875245 43.8085327,40.6695557 C43.2155151,40.9088135 42.5917358,41.567627 42.7857056,42.6383057 C42.9399414,43.4880982 43.6965943,44.1533203 44.5087891,44.1533203 Z" id="Path" fill="#F9D889"></path>
                        <path d="M37.4429932,7.57379153 C37.4327393,7.99078372 37.4459839,8.45904544 37.7373658,8.73077395 C37.9902954,8.96746823 38.3684082,8.98925781 38.7670288,8.99182134 L41.4522706,9.00506589 C41.7530518,9.00506589 42.0666504,8.99011225 42.3007812,8.81152344 C42.6558228,8.54235834 42.6814575,8.02368164 42.6566772,7.50372317 L42.3862305,2.01574712 C42.3631591,1.52099609 42.305481,0.969421359 41.9141236,0.691284125 C41.7107544,0.547729437 41.4522706,0.505004937 41.1254272,0.485351562 L41.0673217,0.481933594 C40.7131348,0.460998562 40.4063721,0.450744656 40.1295167,0.450744656 C39.4980469,0.450744656 37.8215332,0.450744656 37.5993652,1.66711431 C37.3695068,2.92449948 37.4002685,4.31390378 37.4301758,5.65759272 C37.4434204,6.26086431 37.4588013,6.94445806 37.4429932,7.57379153 Z" id="Path" fill="#F9D889"></path>
                        <path d="M38.0522461,24.0227661 C38.0881348,24.0227661 38.1240234,24.0214844 38.1603393,24.0189208 C38.6294556,23.9834595 39.0819091,23.7301026 39.3703003,23.3413086 C39.8150635,22.7414551 39.8381348,21.817749 39.423706,21.1922607 C39.0942993,20.6975098 38.5769043,20.4138184 38.0039673,20.4138184 C37.7835083,20.4138184 37.5583496,20.4569702 37.3519897,20.5394287 C36.7593995,20.7782593 36.1356201,21.4375 36.3295898,22.5090332 C36.4833984,23.3579712 37.2404785,24.0227661 38.0522461,24.0227661 Z" id="Path" fill="#F9D889"></path>
                        <path d="M38.0509643,30.6566162 C38.0872802,30.6566162 38.1240234,30.6553345 38.1603393,30.6523438 C38.6290284,30.6168823 39.0810547,30.3635254 39.3703003,29.973877 C39.8150635,29.3744507 39.8381348,28.4511719 39.423706,27.8261108 C39.0942993,27.3305053 38.5764771,27.0463867 38.0031128,27.0463867 C37.7813721,27.0463867 37.5562134,27.0903931 37.3519897,27.1728516 C36.7589721,27.4121094 36.1351928,28.0709229 36.3295898,29.1416016 C36.4833984,29.9909668 37.239624,30.6566162 38.0509643,30.6566162 Z" id="Path" fill="#F9D889"></path>
                        <path d="M38.1603393,37.515625 C38.6294556,37.4801635 39.0819091,37.2272339 39.3703003,36.83844 C39.8146362,36.2390137 39.8377075,35.3153076 39.4232788,34.6889648 C39.0938721,34.1942138 38.5764771,33.9105224 38.0031128,33.9105224 C37.783081,33.9105224 37.5583496,33.9541016 37.3519897,34.0361328 C36.7589721,34.2749634 36.1356201,34.9342042 36.3295898,36.0057373 C36.4833984,36.8546753 37.239624,37.5198974 38.0505371,37.5198974 C38.0872802,37.5198974 38.1240234,37.5186158 38.1603393,37.515625 Z" id="Path" fill="#F9D889"></path>
                        <path d="M30.895874,20.5394287 C30.3028565,20.7782593 29.6790771,21.4375 29.8730469,22.5094604 C30.0281372,23.3583984 30.7843628,24.0231934 31.5944214,24.0231934 C31.6311646,24.0231934 31.6674805,24.0214844 31.7037964,24.0189208 C32.1729126,23.9834595 32.6253662,23.7301026 32.9137573,23.3413086 C33.359375,22.7401733 33.3824463,21.8164673 32.967163,21.1922607 C32.6381836,20.6975098 32.1203613,20.4138184 31.5469971,20.4138184 C31.3252564,20.4138184 31.1000977,20.4573974 30.895874,20.5394287 Z" id="Path" fill="#F9D889"></path>
                        <path d="M32.967163,27.8261108 C32.6386108,27.3309326 32.1212159,27.0468139 31.5478516,27.0468139 C31.3252564,27.0468139 31.0996704,27.0903931 30.895874,27.1728516 C30.3028565,27.4121094 29.6790771,28.0709229 29.8730469,29.1420288 C30.0281372,29.991394 30.7852173,30.6566162 31.5957031,30.6566162 C31.6315918,30.6566162 31.6674805,30.6553345 31.7037964,30.652771 C32.1737671,30.6168823 32.6262207,30.3630982 32.9137573,29.973877 C33.359375,29.373169 33.382019,28.4498901 32.967163,27.8261108 Z" id="Path" fill="#F9D889"></path>
                        <path d="M31.5469971,33.9105224 C31.3252564,33.9105224 31.1000977,33.9541016 30.895874,34.0361328 C30.3028565,34.2749634 29.6790771,34.9342042 29.8730469,36.0061646 C30.0285645,36.8551026 30.7843628,37.5198974 31.5944214,37.5198974 C31.6307372,37.5198974 31.6674805,37.5186158 31.7037964,37.515625 C32.1729126,37.4801635 32.6253662,37.2272339 32.9137573,36.83844 C33.3589478,36.2377319 33.382019,35.3140259 32.967163,34.6893921 C32.6381836,34.1946411 32.1203613,33.9105224 31.5469971,33.9105224 Z" id="Path" fill="#F9D889"></path>
                        <path d="M31.7037964,44.1494751 C32.1724854,44.1140137 32.6249389,43.8602294 32.9137573,43.4710083 C33.3598022,42.8707276 33.3828736,41.9474487 32.9675904,41.3232422 C32.6386108,40.8276367 32.1212159,40.5435181 31.5478516,40.5435181 C31.3256836,40.5435181 31.1000977,40.5870971 30.895874,40.6695557 C30.3028565,40.9088135 29.6790771,41.567627 29.8730469,42.6383057 C30.0268555,43.4880982 30.7839355,44.1533203 31.5957031,44.1533203 C31.6315918,44.1533203 31.6674805,44.1520385 31.7037964,44.1494751 Z" id="Path" fill="#F9D889"></path>
                        <path d="M27.6069336,1.66668698 C27.3796387,2.90356445 27.4069824,4.27630613 27.4364624,5.60076902 L27.4356079,5.60205078 L27.4373169,5.6853638 C27.4509888,6.2809448 27.4659424,6.95599362 27.4505615,7.57379153 C27.4398803,7.99078372 27.453125,8.45861822 27.7449341,8.73077395 C27.9978638,8.96704102 28.3759766,8.98925781 28.7745971,8.99182134 L31.435913,9.00506589 C31.7619018,9.00506589 32.0742187,8.99011225 32.3079224,8.81152344 C32.6646729,8.54107669 32.6890259,8.02282709 32.6629638,7.50372317 L32.3937988,2.01489258 C32.3690185,1.51885989 32.3100586,0.967285156 31.9212646,0.691711453 C31.71875,0.547729437 31.4602661,0.505004937 31.1325684,0.484924344 L31.0736083,0.481933594 C30.7207031,0.460998562 30.4139404,0.450744656 30.1366577,0.450744656 C29.5056152,0.450744656 27.8291016,0.450744656 27.6069336,1.66668698 Z" id="Path" fill="#F9D889"></path>
                        <path d="M25.1378784,24.0231934 C25.1746216,24.0231934 25.2109375,24.0219116 25.2472534,24.0189208 C25.7176513,23.9834595 26.1705323,23.7301026 26.4572143,23.3417358 C26.9032592,22.7406005 26.9259034,21.8168945 26.5106201,21.1922607 C26.1812134,20.6975098 25.6638184,20.4138184 25.0913086,20.4138184 C24.8708496,20.4138184 24.6456909,20.4569702 24.439331,20.5394287 C23.8463135,20.7786865 23.2225341,21.4375 23.4165039,22.5094604 C23.5720215,23.3583984 24.3278198,24.0231934 25.1378784,24.0231934 Z" id="Path" fill="#F9D889"></path>
                        <path d="M23.4169311,29.1420288 C23.5720215,29.991394 24.3286743,30.6566162 25.1395874,30.6566162 C25.175476,30.6566162 25.2113647,30.6553345 25.2472534,30.6523438 C25.7176513,30.6168823 26.170105,30.3630982 26.4576417,29.973877 C26.9032592,29.373169 26.9259034,28.4498901 26.5110474,27.8261108 C26.1820678,27.3305053 25.6646729,27.0463867 25.0917358,27.0463867 C24.8691406,27.0463867 24.6435547,27.0899659 24.4397583,27.1728516 C23.8463135,27.4121094 23.2225341,28.0709229 23.4169311,29.1420288 Z" id="Path" fill="#F9D889"></path>
                        <path d="M25.0913086,33.9105224 C24.8708496,33.9105224 24.6456909,33.9541016 24.439331,34.0361328 C23.8463135,34.2749634 23.2225341,34.9342042 23.4169311,36.0061646 C23.5720215,36.8551026 24.3282471,37.5198974 25.1378784,37.5198974 C25.1741943,37.5198974 25.2109375,37.5186158 25.2472534,37.515625 C25.7180786,37.4801635 26.1705323,37.2268066 26.4576417,36.83844 C26.9024048,36.2381591 26.9259034,35.3144531 26.5106201,34.6889648 C26.1812134,34.1942138 25.6642456,33.9105224 25.0913086,33.9105224 Z" id="Path" fill="#F9D889"></path>
                        <path d="M23.4169311,42.6387329 C23.5720215,43.4880982 24.3286743,44.1533203 25.1395874,44.1533203 C25.175476,44.1533203 25.2113647,44.1520385 25.2472534,44.1494751 C25.7176513,44.1140137 26.170105,43.8598022 26.4572143,43.4710083 C26.9032592,42.8711548 26.9263306,41.9474487 26.5110474,41.3232422 C26.1820678,40.8280639 25.6651001,40.5443725 25.0913086,40.5443725 C24.8674316,40.5443725 24.6418457,40.5875245 24.439331,40.6695557 C23.8463135,40.9088135 23.2225341,41.567627 23.4169311,42.6387329 Z" id="Path" fill="#F9D889"></path>
                        <path d="M22.3154907,8.81152344 C22.6722412,8.54107669 22.6970215,8.02282709 22.6705323,7.50372317 L22.4013672,2.01489258 C22.3770142,1.51928711 22.3180542,0.967285156 21.9292603,0.691711453 C21.7267456,0.547729438 21.4682617,0.505004937 21.1401367,0.484924344 L21.081604,0.481933594 C20.7214355,0.460571344 20.4155273,0.450317437 20.145935,0.450317437 C19.5144654,0.450317437 17.8370971,0.450317437 17.614502,1.66668698 C17.3842163,2.91851809 17.4154052,4.31005859 17.4448853,5.65759272 C17.4585572,6.26129153 17.4735107,6.9453125 17.4581299,7.57336431 C17.447876,7.99078372 17.4611206,8.45861822 17.7525025,8.73034663 C18.0054322,8.96704102 18.3835449,8.98925781 18.7821655,8.99182134 L21.442627,9.00506589 C21.769043,9.00506589 22.0817871,8.99011225 22.3154907,8.81152344 Z" id="Path" fill="#F9D889"></path>
                        <path d="M18.6826172,24.0231934 C18.7193604,24.0231934 18.7556763,24.0219116 18.7919922,24.0189208 C19.2611083,23.9834595 19.713562,23.7301026 20.0019531,23.3413086 C20.4475708,22.7410279 20.4697876,21.8168945 20.0545044,21.1922607 C19.7255249,20.6975098 19.2077026,20.4138184 18.6339112,20.4138184 C18.4121704,20.4138184 18.1874389,20.4569702 17.982788,20.5394287 C17.3897706,20.7791138 16.7664185,21.4387818 16.9612427,22.5090332 C17.1154785,23.3579712 17.8717042,24.0231934 18.6826172,24.0231934 Z" id="Path" fill="#F9D889"></path>
                        <path d="M18.6826172,30.6566162 C18.7193604,30.6566162 18.7556763,30.6553345 18.7919922,30.6523438 C19.2606811,30.6168823 19.7131348,30.3635254 20.0019531,29.973877 C20.4471435,29.3740234 20.4697876,28.4503174 20.0545044,27.8261108 C19.7259521,27.3313599 19.2085572,27.0472412 18.6347656,27.0472412 C18.4130249,27.0472412 18.1874389,27.0908203 17.982788,27.1732788 C17.3893432,27.4125366 16.7659912,28.0717773 16.9612427,29.1416016 C17.1154785,29.9909668 17.8712768,30.6566162 18.6826172,30.6566162 Z" id="Path" fill="#F9D889"></path>
                        <path d="M18.6339112,33.9105224 C18.4121704,33.9105224 18.1870117,33.9541016 17.982788,34.0361328 C17.3893432,34.2758178 16.7659912,34.9354858 16.9612427,36.0057373 C17.1150513,36.8546753 17.8712768,37.5198974 18.6826172,37.5198974 C18.7193604,37.5198974 18.7556763,37.5186158 18.7919922,37.515625 C19.2611083,37.4801635 19.713562,37.2268066 20.0019531,36.83844 C20.4467163,36.2381591 20.4693604,35.3144531 20.0545044,34.6893921 C19.7255249,34.1946411 19.2077026,33.9105224 18.6339112,33.9105224 Z" id="Path" fill="#F9D889"></path>
                        <path d="M18.6856079,44.1533203 C18.7206421,44.1533203 18.7561035,44.1520385 18.7919922,44.1494751 C19.2606811,44.1140137 19.7131348,43.8602294 20.0019531,43.4710083 C20.4475708,42.871582 20.4702148,41.947876 20.0545044,41.3232422 C19.7259521,40.8280639 19.2085572,40.5439453 18.6347656,40.5439453 C18.4130249,40.5439453 18.1874389,40.5875245 17.982788,40.6695557 C17.3897706,40.9092408 16.7659912,41.5689087 16.9612427,42.6383057 C17.1154785,43.4876708 17.8725586,44.1533203 18.6856079,44.1533203 Z" id="Path" fill="#F9D889"></path>
                        <path d="M11.5262451,20.5394287 C10.9332276,20.7791138 10.3098755,21.4387818 10.5046997,22.5090332 C10.6589355,23.3579712 11.4147339,24.0231934 12.2260742,24.0231934 C12.2628174,24.0231934 12.2995605,24.0219116 12.3354492,24.0189208 C12.8049927,23.9834595 13.257019,23.7301026 13.5458374,23.3417358 C13.9910279,22.7410279 14.0132447,21.8168945 13.5979615,21.1922607 C13.2685547,20.697937 12.7511596,20.4142424 12.1786499,20.4142424 C11.9577637,20.4138184 11.7330323,20.4569702 11.5262451,20.5394287 Z" id="Path" fill="#F9D889"></path>
                        <path d="M13.5979615,27.8261108 C13.2689819,27.3305053 12.751587,27.0463867 12.1786499,27.0463867 C11.9564819,27.0463867 11.7304688,27.0903931 11.5262451,27.1732788 C10.9332276,27.4125366 10.3094482,28.0722046 10.5046997,29.1416016 C10.6589355,29.9909668 11.4155884,30.6566162 12.227356,30.6566162 C12.2632447,30.6566162 12.2995605,30.6553345 12.3358764,30.652771 C12.8045654,30.6173096 13.2565918,30.3635254 13.5458374,29.973877 C13.9906005,29.3735962 14.0132447,28.4503174 13.5979615,27.8261108 Z" id="Path" fill="#F9D889"></path>
                        <path d="M12.1786499,33.9105224 C11.9577637,33.9105224 11.732605,33.9541016 11.5262451,34.0361328 C10.9332276,34.2758178 10.3098755,34.9354858 10.5046997,36.0057373 C10.6589355,36.8546753 11.4151612,37.5198974 12.2260742,37.5198974 C12.2628174,37.5198974 12.2991333,37.5186158 12.3358764,37.515625 C12.8049927,37.4801635 13.2574463,37.2268066 13.5458374,36.83844 C13.9906005,36.2381591 14.0132447,35.3144531 13.5979615,34.6889648 C13.2685547,34.1942138 12.7511596,33.9105224 12.1786499,33.9105224 Z" id="Path" fill="#F9D889"></path>
                        <path d="M12.3358764,44.1494751 C12.8045654,44.1140137 13.2565918,43.8602294 13.5454102,43.4710083 C13.9910279,42.8711548 14.0136719,41.947876 13.5979615,41.3232422 C13.2694091,40.8280639 12.7520142,40.5443725 12.1786499,40.5443725 C11.9543457,40.5443725 11.7287598,40.5875245 11.5262451,40.6695557 C10.9332276,40.9092407 10.3094482,41.5689087 10.5046997,42.6383057 C10.6589355,43.4876708 11.4155884,44.1533203 12.2277832,44.1533203 C12.2636719,44.1533203 12.2995605,44.1520385 12.3358764,44.1494751 Z" id="Path" fill="#F9D889"></path>
                        <path d="M7.45245364,5.69775391 C7.46612552,6.32281497 7.48065183,6.96881106 7.46569819,7.57379153 C7.45501706,7.99121094 7.46826172,8.45904544 7.75921628,8.72991941 C8.01129153,8.96704102 8.39025884,8.98925781 8.78973386,8.99182134 L11.4736939,9.00506589 C11.7753296,9.00506589 12.0893555,8.99011225 12.3239135,8.81109622 C12.6806641,8.53894038 12.7033081,7.99719244 12.6781005,7.50329584 L12.4089355,2.01489258 C12.3845825,1.51971433 12.3256225,0.968566922 11.9368286,0.691711453 C11.7343139,0.547729438 11.4758301,0.505004937 11.1477051,0.484924344 L11.0887451,0.481933594 C10.7285767,0.460571344 10.4226685,0.450317437 10.1535034,0.450317437 C9.52203372,0.450317437 7.8446655,0.450317437 7.62207031,1.66668698 C7.39306641,2.91296381 7.42254636,4.29766848 7.45117188,5.63708491 L7.45245364,5.69775391 Z" id="Path" fill="#F9D889"></path>
                        <path d="M5.76953125,24.0231934 C5.80627447,24.0231934 5.84301758,24.0219116 5.87933347,24.0189208 C6.34844973,23.9834595 6.80090338,23.7301026 7.08929441,23.3417358 C7.53491211,22.7410279 7.55712891,21.8168945 7.14141848,21.1922607 C6.81201172,20.697937 6.29461667,20.4142456 5.72210691,20.4142456 C5.50164792,20.4142456 5.27648931,20.4573974 5.07012942,20.5394287 C4.47668463,20.7791138 3.85333255,21.4387818 4.04858398,22.5090332 C4.20239258,23.3579712 4.95861822,24.0231934 5.76953125,24.0231934 Z" id="Path" fill="#F9D889"></path>
                        <path d="M5.77124023,30.6566162 C5.80712891,30.6566162 5.84301758,30.6553345 5.87933347,30.6523438 C6.34802241,30.6168823 6.80004883,30.3635254 7.08929441,29.973877 C7.53405756,29.3735962 7.55670169,28.4503174 7.14141848,27.8261108 C6.81243894,27.3305053 6.295044,27.0463867 5.72210691,27.0463867 C5.4990845,27.0463867 5.27349856,27.0903931 5.07098386,27.1728516 C4.47711184,27.4121094 3.85333255,28.0713501 4.04858398,29.1416016 C4.20239258,29.9909668 4.95904544,30.6566162 5.77124023,30.6566162 Z" id="Path" fill="#F9D889"></path>
                        <path d="M5.76953125,37.5198974 C5.80627447,37.5198974 5.84301758,37.5186158 5.87933347,37.515625 C6.34844973,37.4801635 6.80090337,37.2272339 7.08929441,36.83844 C7.53405756,36.2385865 7.55670169,35.3144531 7.14141848,34.6893921 C6.81201172,34.1946411 6.29461667,33.9109497 5.72210691,33.9109497 C5.50079348,33.9109497 5.27563477,33.9541016 5.07141119,34.0361328 C4.47753906,34.2753906 3.85333255,34.9350586 4.04858398,36.0061646 C4.20239258,36.8546753 4.95861822,37.5198974 5.76953125,37.5198974 Z" id="Path" fill="#F9D889"></path>
                        <path d="M4.04858398,42.6383057 C4.20239258,43.4880982 4.95904544,44.1533203 5.77124023,44.1533203 C5.80712891,44.1533203 5.84301758,44.1520385 5.87933347,44.1494751 C6.34802241,44.1140137 6.80004883,43.8602294 7.08886719,43.4710083 C7.53491211,42.8711548 7.55712891,41.947876 7.14141848,41.3232422 C6.81286616,40.8280639 6.29547122,40.5443725 5.72210691,40.5443725 C5.49822995,40.5443725 5.2722168,40.5875245 5.06970209,40.6695557 C4.47668463,40.909668 3.85333255,41.5689087 4.04858398,42.6383057 Z" id="Path" fill="#F9D889"></path>
                        <path d="M50.3535156,7.98095703 C49.9621582,5.63409427 47.5922241,5.70159909 45.8618775,5.75073242 C45.5029908,5.76098633 45.1637573,5.77038569 44.8552857,5.76226809 L43.013855,5.71099856 L42.8314208,1.99353022 C42.8100586,1.56030273 42.7703247,0.754089328 42.1726074,0.329406766 C41.864563,0.110656766 41.5005493,0.0615234375 41.152771,0.041015625 L41.0933838,0.0375976563 C39.8321534,-0.0367432187 37.4848633,-0.175598172 37.1618652,1.5859375 C36.9320068,2.83862305 36.9533691,4.20068359 36.9819947,5.52471927 C36.2655029,5.50592044 35.6036987,5.49182134 34.9423218,5.47772214 C34.3134155,5.46447759 33.684082,5.45080572 33.0077514,5.43328855 L32.838562,1.99353022 C32.817627,1.56072995 32.7778931,0.754516656 32.1797486,0.329406766 C31.8721314,0.110656766 31.5081177,0.0619506563 31.1603393,0.0414428438 L31.1009521,0.0375976563 C29.8397216,-0.0367432187 27.4920044,-0.175598172 27.1690064,1.5859375 C26.9545288,2.75744634 26.9588013,4.02423098 26.9840088,5.26623541 L26.7601318,5.26025391 C26.0432129,5.24017331 25.397644,5.2196655 24.7520753,5.19873047 C24.1842651,5.18035886 23.6168823,5.16241458 23.0007935,5.14489741 L22.8461303,1.99353022 C22.8247681,1.56030273 22.7854615,0.754516656 22.1873169,0.329406766 C21.8796997,0.110656766 21.5152588,0.0615234375 21.1679077,0.041015625 L21.1080932,0.0375976563 C19.8468628,-0.0367432187 17.4995728,-0.175598172 17.1765747,1.5859375 C16.9783325,2.66772461 16.9667969,3.83111575 16.9860229,4.98126223 C16.2977294,4.96246341 15.642334,4.94580078 14.9886474,4.92956538 C14.3362427,4.91333008 13.6821289,4.89666745 12.9951172,4.87829584 L12.8532715,1.99353022 C12.8323365,1.56072995 12.7926026,0.754516656 12.1944581,0.329406766 C11.8868409,0.110656766 11.5228271,0.0619506563 11.1750488,0.0414428438 L11.1152344,0.0375976563 C9.85400391,-0.0367432187 7.50671381,-0.175598172 7.18371588,1.5859375 C7.00128177,2.58099363 6.97692866,3.64483645 6.98931888,4.70397944 C6.80645755,4.70056147 6.6415405,4.69842527 6.49371341,4.69799805 C4.27075195,4.63562006 2.05120847,4.80908203 0.859619141,6.47619634 C0.0388794219,7.62420652 0.048706,9.15802005 0.0559692656,10.277832 L0.320007297,51.4750366 C0.328979437,52.8580323 0.49517825,54.3704833 1.66156003,55.1036378 C2.33874506,55.5296021 3.15521238,55.5385742 3.81103516,55.5454102 L46.5800781,55.998291 C46.6621094,55.9991456 46.7505493,56 46.8449707,56 C47.7088623,56 49.0397339,55.9209595 49.7797241,54.9822998 C50.3552246,54.2529908 50.3569336,53.2741699 50.3582154,52.5593872 L50.427002,16.1896362 C50.4287109,15.392395 50.4624634,14.5853271 50.4983521,13.7304077 C50.5782471,11.8120728 50.6611328,9.82879636 50.3535156,7.98095703 Z M42.5964355,50.9435425 C42.5699463,50.4423828 42.5673828,49.8831177 42.8690185,49.5981445 C43.0899048,49.3892212 43.4556275,49.3358154 43.8760376,49.2922363 L48.7872315,48.7838135 L42.789978,54.6575927 L42.5964355,50.9435425 Z M37.9219361,1.725647 C38.0612182,0.965576172 38.9917603,0.778442438 40.1295167,0.778442438 C40.4251708,0.778442438 40.7344971,0.791259766 41.0476685,0.809631375 L41.1074829,0.813049344 C41.3762207,0.828857422 41.5842896,0.860046359 41.7244263,0.959594781 C41.9940185,1.15100103 42.0384521,1.61328125 42.0589599,2.0315552 L42.3285522,7.51910403 C42.3486328,7.92883306 42.3375245,8.37188723 42.1025391,8.55047605 C41.9448853,8.67010495 41.6842651,8.67907709 41.3856201,8.67694089 L38.7691651,8.66326902 C38.4389038,8.66156003 38.1287232,8.64746094 37.9616699,8.49151614 C37.7694091,8.31164556 37.7625732,7.92797852 37.7711182,7.58233645 C37.786499,6.95599363 37.7719727,6.29205325 37.7578736,5.65032956 C37.7288208,4.3203125 37.6984863,2.94543463 37.9219361,1.725647 Z M38.7648926,9.4365845 L41.3817749,9.45025638 C41.4074096,9.45025638 41.4343262,9.45025638 41.4620971,9.45025638 C41.78125,9.45025638 42.2213135,9.43145755 42.5703736,9.16571042 C42.6609497,9.09692383 42.7348633,9.01831055 42.7980957,8.93457031 C43.293274,9.60919192 43.2860107,10.6982422 42.7246094,11.4664307 C42.1333008,12.2756348 41.0361328,12.7639771 39.7894287,12.7716675 C39.1575318,12.7750854 38.2440796,12.6652832 37.4498292,12.116272 C36.7615357,11.6403198 36.3189087,10.9118652 36.2655029,10.1671753 C36.2155151,9.46862788 36.5380859,8.77947995 37.0661621,8.41119388 C37.126831,8.6487427 37.2370605,8.87219244 37.434021,9.05633542 C37.8048706,9.40283203 38.2949219,9.43402097 38.7648926,9.4365845 Z M27.0733033,8.41162109 C27.1339721,8.64916992 27.2442017,8.87219244 27.4411621,9.05633542 C27.8120117,9.40283203 28.3024902,9.43402097 28.7724609,9.4365845 L31.388916,9.45025638 C31.414978,9.45025638 31.4414673,9.45025638 31.4696655,9.45025638 C31.7883911,9.45025638 32.2284546,9.43145755 32.5775146,9.16571042 C32.6680909,9.09692383 32.7420044,9.01831055 32.8052368,8.93457031 C33.3008423,9.60919192 33.2935792,10.6982422 32.7321777,11.4664307 C32.1408691,12.2756348 31.043274,12.7639771 29.7965698,12.7716675 C29.1663818,12.7750854 28.2512207,12.6652832 27.4569702,12.116272 C26.7686768,11.6403198 26.3260498,10.9118652 26.272644,10.1671753 C26.2226563,9.46862788 26.5456543,8.77947995 27.0733033,8.41162109 Z M27.9295044,1.725647 C28.0687866,0.965576172 28.9989013,0.778442438 30.1370849,0.778442438 C30.432312,0.778442438 30.7416382,0.791259766 31.0548096,0.809631375 L31.1150513,0.813049344 C31.3837891,0.828857422 31.5914307,0.860046359 31.7319947,0.959594781 C32.0011596,1.15142825 32.0455932,1.61328125 32.0665284,2.0315552 L32.3356934,7.51910403 C32.355774,7.92883306 32.3446655,8.37188723 32.1096802,8.55047605 C31.9520263,8.67010495 31.6922607,8.67822266 31.3931885,8.67694089 L28.7767333,8.66326902 C28.4460449,8.66156003 28.1358643,8.64746094 27.9688111,8.49108881 C27.7769776,8.31207278 27.7701417,7.92797852 27.7786865,7.58190913 C27.7940674,6.96453855 27.7799682,6.31085208 27.7658691,5.67767331 C27.7658691,5.67639166 27.7662964,5.67596433 27.7662964,5.67468256 C27.7662964,5.67211914 27.7658691,5.66955572 27.7658691,5.66699219 C27.7654419,5.66143802 27.7654419,5.65588384 27.7654419,5.65075678 C27.735962,4.32073972 27.7056275,2.94543463 27.9295044,1.725647 Z M17.0808716,8.41162109 C17.1415405,8.64916992 17.25177,8.87219244 17.4487305,9.05633542 C17.8195801,9.40283203 18.3096314,9.43402097 18.7796021,9.4365845 L21.3964844,9.45025638 C21.4221191,9.45025638 21.4490357,9.45025638 21.4768066,9.45025638 C21.7959595,9.45025638 22.2360229,9.43145755 22.5850831,9.16571042 C22.6756591,9.09692383 22.7495728,9.01831055 22.8128052,8.93457031 C23.3079833,9.60919192 23.3007202,10.6982422 22.7393189,11.4664307 C22.1480103,12.2756348 21.0508423,12.7635498 19.8041382,12.7716675 C19.1752319,12.7750854 18.2587891,12.6652832 17.4645385,12.116272 C16.7762451,11.6403198 16.3336182,10.911438 16.2802124,10.1671753 C16.2302246,9.46862788 16.5527954,8.77947995 17.0808716,8.41162109 Z M17.9366456,1.725647 C18.1122436,0.76861575 19.5426635,0.719909641 21.0623779,0.809631375 L21.1221924,0.813049344 C21.3909302,0.828857422 21.5985718,0.859619141 21.7391357,0.959594781 C22.008728,1.15100103 22.0531616,1.61328125 22.0736694,2.0315552 L22.3432617,7.51910403 C22.3633423,7.92883306 22.3522339,8.37188723 22.1172486,8.55047605 C21.9595948,8.67010495 21.6998292,8.67822266 21.4003296,8.67694089 L18.7838745,8.66326902 C18.4536133,8.66156003 18.1434326,8.64703372 17.9763794,8.49108881 C17.7841186,8.31164556 17.7772827,7.92797852 17.7858276,7.58190913 C17.8012085,6.95599363 17.7866822,6.29205325 17.7725831,5.65032956 C17.7435302,4.3203125 17.7131958,2.94543463 17.9366456,1.725647 Z M7.08801275,8.41119388 C7.14910886,8.6487427 7.25891119,8.87219244 7.45587161,9.05633542 C7.82714844,9.40240481 8.31719973,9.43402097 8.78717044,9.4365845 L11.4036255,9.45025638 C11.4296875,9.45025638 11.456604,9.45025638 11.484375,9.45025638 C11.8031005,9.45025638 12.2431641,9.43145755 12.5922241,9.16571042 C12.6828003,9.09692383 12.7567138,9.01831055 12.8199463,8.93457031 C13.3155518,9.60919192 13.3082885,10.6982422 12.7468872,11.4664307 C12.1555786,12.2756348 11.0579833,12.7639771 9.81170652,12.7716675 C9.18194583,12.77594 8.26635742,12.6652832 7.47210691,12.116272 C6.78381353,11.6403198 6.34075925,10.9118652 6.28778073,10.1671753 C6.23736575,9.46862788 6.5603638,8.77947995 7.08801275,8.41119388 Z M7.94421381,1.725647 C8.11981198,0.76861575 9.55023191,0.719909641 11.069519,0.809631375 L11.1293335,0.813049344 C11.3980713,0.828857422 11.6061401,0.860046359 11.7467042,0.959594781 C12.0158691,1.15100103 12.0603027,1.61328125 12.0808105,2.0315552 L12.3504029,7.51910403 C12.3704833,7.92883306 12.359375,8.37188723 12.1243896,8.55047605 C11.9667358,8.67010495 11.7061158,8.67864988 11.4074707,8.67694089 L8.79101563,8.66326902 C8.46075442,8.66156003 8.1505737,8.64703372 7.98352056,8.49108881 C7.79168698,8.31164556 7.78442383,7.92797852 7.79296875,7.58190913 C7.80877683,6.95599363 7.79382319,6.29205325 7.77972409,5.65032956 C7.75067136,4.3203125 7.72033697,2.94543463 7.94421381,1.725647 Z M1.48852539,6.92565913 C2.46990964,5.55291745 4.46343997,5.41534427 6.48303228,5.4708862 C6.64324948,5.4708862 6.81329348,5.47302241 7.00299075,5.47729492 C7.00427241,5.54095456 7.00555417,5.60418698 7.00726316,5.66741941 C7.02178958,6.32965091 7.03546145,6.95471197 7.02050781,7.56311041 C7.02008059,7.56610105 7.02008059,7.56994634 7.02008059,7.57336431 C6.99145508,7.57977292 6.96325678,7.58917239 6.93634036,7.60284427 C6.02246094,8.06085208 5.43884272,9.13793945 5.51660156,10.2227173 C5.5862427,11.1985474 6.15277097,12.1444702 7.0324707,12.7524414 C7.78314206,13.2715454 8.73162839,13.5449829 9.77795416,13.5449829 C9.79077148,13.5449829 9.80358881,13.5449829 9.81640625,13.5449829 C11.3070678,13.5355835 12.6358033,12.928894 13.3710938,11.9227294 C14.2443848,10.7277221 14.1192017,9.01062006 13.1143189,8.118103 C13.1412354,7.87158203 13.1305542,7.64172369 13.1228638,7.48107916 L13.0331421,5.65246588 C13.6987915,5.67041016 14.3353882,5.68664556 14.9694214,5.70245364 C15.6337891,5.71911616 16.3007202,5.73577878 17.001831,5.75500494 C17.0155029,6.38433841 17.0274659,6.98205572 17.0129395,7.56268308 C17.0129395,7.56610105 17.0129395,7.56951902 17.0129395,7.57293698 C16.9843139,7.57977292 16.956543,7.58874506 16.9291992,7.60241694 C16.0153198,8.06042475 15.4312745,9.13793945 15.5090332,10.2222901 C15.5791016,11.1985474 16.1456299,12.144043 17.0253296,12.7520142 C17.776001,13.2711182 18.7244873,13.5449829 19.7703857,13.5449829 C19.7832031,13.5449829 19.7964478,13.5449829 19.8092651,13.5449829 C21.2999268,13.5351563 22.6286621,12.928894 23.3639526,11.9223022 C24.2372436,10.7272949 24.1120605,9.01019284 23.1067505,8.118103 C23.1340943,7.87115481 23.123413,7.64129636 23.1152954,7.48107916 L23.0388184,5.91906744 C23.6305542,5.93615728 24.1791382,5.95367434 24.7272949,5.97119141 C25.3741456,5.99212644 26.0205689,6.01263425 26.7387695,6.03271484 L27.0002441,6.039978 C27.0109253,6.56549075 27.0181885,7.07006836 27.0057983,7.56268308 C27.0057983,7.56567383 27.0057983,7.56951902 27.0053711,7.57293698 C26.9771729,7.5793457 26.9489746,7.58874506 26.9216309,7.60241694 C26.0081787,8.06042475 25.4241333,9.13751223 25.5018921,10.2222901 C25.5715332,11.1981201 26.1384888,12.144043 27.0177612,12.7520142 C27.7684326,13.2711182 28.716919,13.5445557 29.7632447,13.5445557 C29.776062,13.5445557 29.7888794,13.5445557 29.802124,13.5445557 C31.2923583,13.5351563 32.6210938,12.9284668 33.3563843,11.9223022 C34.2296753,10.7272949 34.1044922,9.01019284 33.0996094,8.11767578 C33.1265259,7.87115481 33.1158448,7.64129636 33.1081543,7.48065183 L33.0453491,6.20703125 C33.7011719,6.22412109 34.3138427,6.23693853 34.9260865,6.25018308 C35.5968628,6.26428228 36.2689208,6.27880859 36.9978027,6.29803464 C37.0050659,6.73126223 37.0084839,7.15124506 36.99823,7.56225586 C36.99823,7.56567383 36.99823,7.5690918 36.99823,7.57250977 C36.9696044,7.5793457 36.9414062,7.58831784 36.9140625,7.60198972 C36.0006104,8.05999753 35.416565,9.13751223 35.4943237,10.2218628 C35.5643921,11.1981201 36.1309204,12.1436158 37.0101928,12.751587 C37.7612915,13.2706909 38.7097779,13.5445557 39.7556763,13.5445557 C39.7684936,13.5445557 39.7817383,13.5445557 39.7945557,13.5445557 C41.2852173,13.534729 42.6139526,12.9284668 43.3492432,11.921875 C44.2225341,10.7268677 44.097351,9.00976563 43.092041,8.11767578 C43.1193848,7.87072759 43.1087036,7.64086914 43.1005859,7.48065183 L43.0518799,6.48474116 L44.8334961,6.53430181 C45.1641846,6.54327395 45.5136719,6.53344727 45.8836669,6.52276614 C47.8904419,6.46636966 49.3306885,6.54626459 49.5908814,8.10742188 C49.8852539,9.87579348 49.8040771,11.8189087 49.7254638,13.6975098 C49.6938477,14.4550171 49.6626587,15.2347412 49.65625,15.9866943 C49.6310425,15.9815674 49.6045533,15.9794311 49.5780639,15.9802857 C41.3330689,16.1259766 33.1525879,15.9926758 25.241272,15.8636474 C17.3231201,15.7350464 9.13537603,15.6017456 0.876708984,15.7474365 C0.872436469,15.7478638 0.868591281,15.7487182 0.864318875,15.7491456 L0.829284641,10.2718505 C0.820739719,8.95806888 0.864746094,7.79852292 1.48852539,6.92565913 Z M2.07299805,54.449524 C1.22277838,53.9150391 1.10058594,52.6435547 1.09289556,51.470337 L0.8690185,16.5194702 C0.876281766,16.5198974 0.883117703,16.5216065 0.890380859,16.5216065 C9.13580325,16.3759155 17.3167115,16.5092163 25.2284546,16.6378174 C30.6895142,16.7266846 36.2778931,16.817688 41.9307862,16.817688 C44.4729004,16.817688 47.029541,16.7993164 49.5913086,16.7540284 C49.6126708,16.753601 49.6327514,16.7501831 49.652832,16.7467651 L49.5938721,47.9682007 C49.5374755,47.9459839 49.4759521,47.9348755 49.4118652,47.9417115 L43.7961426,48.5231934 C43.3620605,48.5684815 42.767334,48.6300049 42.3375245,49.0363159 C41.7966309,49.5481568 41.7889404,50.3099365 41.8244018,50.9837036 L42.0431518,55.177124 L3.81915286,54.7720948 C3.10864258,54.7648315 2.52886966,54.736206 2.07299805,54.449524 Z M49.1726074,54.5037841 C48.6321411,55.189087 47.555481,55.2352294 46.5881958,55.2249755 L43.3505249,55.1907958 L49.5917358,49.0777588 L49.5848999,52.5581055 C49.5836182,53.3386841 49.5515747,54.0235596 49.1726074,54.5037841 Z" id="Shape" fill="#000000"></path>
                        <path d="M4.90435794,20.126709 C3.91870117,20.5240479 3.41113281,21.4900513 3.61022944,22.5880737 C3.803772,23.652771 4.7556763,24.4683838 5.77124023,24.4683838 C5.81823725,24.4683838 5.86523438,24.4666747 5.9122315,24.4628296 C6.50823972,24.4179687 7.08203125,24.0979615 7.44647214,23.6062012 C8.00701902,22.8508301 8.03479009,21.7322997 7.51269531,20.9461669 C6.83508306,19.927185 5.71441653,19.800293 4.90435794,20.126709 Z M6.82568359,23.1456299 C6.5928345,23.4596557 6.22967527,23.6638794 5.85412603,23.6920776 C5.18377683,23.7429199 4.50274661,23.1738281 4.37115481,22.4500732 C4.21179194,21.5742187 4.69158933,21.0461426 5.1931763,20.8440552 C5.35510259,20.7786865 5.53625494,20.7419434 5.72253413,20.7419434 C6.13354492,20.7419434 6.56805417,20.9218139 6.8684082,21.3742676 C7.20550534,21.8809815 7.1862793,22.6589966 6.82568359,23.1456299 Z" id="Shape" fill="#000000"></path>
                        <path d="M11.3604737,20.126709 C10.3752441,20.5240479 9.86724856,21.4900513 10.0667724,22.5880737 C10.2598878,23.652771 11.2117919,24.4683838 12.227356,24.4683838 C12.274353,24.4683838 12.3213501,24.4666747 12.3683471,24.4628296 C12.9647827,24.4179687 13.538147,24.0979615 13.9025879,23.6062012 C14.4631348,22.8508301 14.4909057,21.7322997 13.9688111,20.9461669 C13.291626,19.927185 12.1705323,19.800293 11.3604737,20.126709 Z M13.2817993,23.1456299 C13.0489503,23.4596557 12.685791,23.6638794 12.310669,23.6920776 C11.6403198,23.7429199 10.9588623,23.1738281 10.8272706,22.4500732 C10.6683349,21.5742187 11.1477051,21.0461426 11.6492919,20.8440552 C11.8112182,20.7786865 11.9923706,20.7419434 12.1786499,20.7419434 C12.5896607,20.7419434 13.0241699,20.9218139 13.3249512,21.3742676 C13.6616211,21.8809815 13.6428223,22.6589966 13.2817993,23.1456299 Z" id="Shape" fill="#000000"></path>
                        <path d="M18.6834716,24.4683838 C18.7304688,24.4683838 18.7774659,24.4666747 18.8248901,24.4628296 C19.4208984,24.4179687 19.9942628,24.0979615 20.3591309,23.6062012 C20.9192505,22.8508301 20.9470215,21.7322997 20.4249268,20.9461669 C19.7477417,19.927185 18.6270753,19.800293 17.8165893,20.126709 C16.8313599,20.5240479 16.3233643,21.4900513 16.5228882,22.5880737 C16.7164307,23.652771 17.6679077,24.4683838 18.6834716,24.4683838 Z M18.1058349,20.8440552 C18.6253662,20.6347046 19.3444214,20.717163 19.7810669,21.3742676 C20.1177368,21.8809815 20.098938,22.6589966 19.7379151,23.1456299 C19.5050659,23.4592285 19.142334,23.6634521 18.7667846,23.6916504 C18.095581,23.7433471 17.414978,23.1734009 17.2833862,22.449646 C17.1244507,21.5742187 17.604248,21.0461426 18.1058349,20.8440552 Z" id="Shape" fill="#000000"></path>
                        <path d="M25.1400146,24.4683838 C25.1870117,24.4683838 25.2340088,24.4666747 25.2810059,24.4628296 C25.8770142,24.4179687 26.4508057,24.0979615 26.8152466,23.6062012 C27.3757935,22.8508301 27.4035645,21.7322997 26.8814698,20.9461669 C26.2042846,19.927185 25.0831909,19.800293 24.2731323,20.126709 C23.2874755,20.5240479 22.7799073,21.4900513 22.9794311,22.5880737 C23.1725464,23.652771 24.1244507,24.4683838 25.1400146,24.4683838 Z M24.5619507,20.8440552 C24.723877,20.7786865 24.9050293,20.7419434 25.0913086,20.7419434 C25.5023193,20.7419434 25.9368286,20.9218139 26.2376099,21.3742676 C26.5742798,21.8809815 26.555481,22.6589966 26.1944581,23.1456299 C25.9616089,23.4592285 25.5984497,23.6634521 25.2233276,23.6916504 C24.5529785,23.7429199 23.871521,23.1738281 23.7399292,22.449646 C23.5809936,21.5742187 24.0603638,21.0461426 24.5619507,20.8440552 Z" id="Shape" fill="#000000"></path>
                        <path d="M31.5961303,24.4683838 C31.6431275,24.4683838 31.6901245,24.4666747 31.7371216,24.4628296 C32.3335572,24.4179687 32.9069214,24.0979615 33.2713623,23.6062012 C33.8319091,22.8508301 33.8596802,21.7322997 33.3375854,20.9461669 C32.6604004,19.927185 31.5397339,19.800293 30.729248,20.126709 C29.7440185,20.5240479 29.2360229,21.4900513 29.4355469,22.5880737 C29.6290893,23.652771 30.5805664,24.4683838 31.5961303,24.4683838 Z M31.0184936,20.8440552 C31.5380249,20.6347046 32.2570801,20.7175904 32.6937255,21.3742676 C33.0303956,21.8809815 33.0115966,22.6589966 32.6505737,23.1456299 C32.4177246,23.4596557 32.0545654,23.6638794 31.6794434,23.6920776 C31.0095215,23.7429199 30.3276367,23.1738281 30.1960449,22.4500732 C30.0371094,21.5742187 30.5164794,21.0461426 31.0184936,20.8440552 Z" id="Shape" fill="#000000"></path>
                        <path d="M38.0522461,24.4683838 C38.0992432,24.4683838 38.1466675,24.4666747 38.1936646,24.4628296 C38.7896729,24.4179687 39.3630371,24.0979615 39.7279052,23.6062012 C40.2884521,22.8508301 40.3162232,21.7322997 39.7937012,20.9461669 C39.1165161,19.927185 37.9958496,19.800293 37.185791,20.126709 C36.2001342,20.5240479 35.6921387,21.4900513 35.8916626,22.5880737 C36.0852051,23.652771 37.0371094,24.4683838 38.0522461,24.4683838 Z M37.4746094,20.8440552 C37.6365357,20.7786865 37.817688,20.7419434 38.0035401,20.7419434 C38.414978,20.7419434 38.8494872,20.9218139 39.1502685,21.3742676 C39.4869385,21.8809815 39.4681396,22.6589966 39.1071167,23.1456299 C38.8742676,23.4592285 38.5111083,23.6634521 38.1355591,23.6916504 C37.4656372,23.7424927 36.7841797,23.1738281 36.6525879,22.449646 C36.4936523,21.5742187 36.9730224,21.0461426 37.4746094,20.8440552 Z" id="Shape" fill="#000000"></path>
                        <path d="M44.5087891,24.4683838 C44.5553589,24.4683838 44.6027832,24.4666747 44.6497802,24.4628296 C45.2462159,24.4179687 45.8195801,24.0979615 46.184021,23.6062012 C46.7445678,22.8508301 46.7723388,21.7322997 46.2502441,20.9461669 C45.5730591,19.927185 44.4519654,19.800293 43.6419068,20.126709 C42.65625,20.5240479 42.1486816,21.4900513 42.3482056,22.5880737 C42.5413208,23.652771 43.4932251,24.4683838 44.5087891,24.4683838 Z M43.9307251,20.8440552 C44.0926513,20.7786865 44.2738037,20.7419434 44.4600831,20.7419434 C44.8710938,20.7419434 45.305603,20.9218139 45.6063842,21.3742676 C45.9430542,21.8809815 45.9242553,22.6589966 45.5632324,23.1456299 C45.3303833,23.4596557 44.9672241,23.6638794 44.5921021,23.6920776 C43.9217529,23.7429199 43.2402954,23.1738281 43.1087036,22.4500732 C42.9497681,21.5742187 43.4291382,21.0461426 43.9307251,20.8440552 Z" id="Shape" fill="#000000"></path>
                        <path d="M4.90435794,26.7597046 C3.91870117,27.1570435 3.41113281,28.1230469 3.61022944,29.2210693 C3.803772,30.2857667 4.7556763,31.1013794 5.77124023,31.1013794 C5.81781003,31.1013794 5.86523438,31.0996704 5.9122315,31.0962525 C6.50823972,31.0513917 7.08203125,30.730957 7.44647214,30.239624 C8.00701902,29.4838257 8.03479009,28.3652954 7.51269531,27.5795898 C6.83508306,26.5601807 5.71484375,26.4332885 4.90435794,26.7597046 Z M6.82568359,29.7786255 C6.5928345,30.0926513 6.22967527,30.296875 5.85412603,30.3250732 C5.18292239,30.3763427 4.50274661,29.8068237 4.37115481,29.0830689 C4.21179194,28.2076417 4.69158933,27.6791382 5.1931763,27.4770508 C5.35510259,27.4121094 5.53625494,27.3749389 5.72210691,27.3749389 C6.13354492,27.3749389 6.56805417,27.5552368 6.8684082,28.0072632 C7.20550534,28.5139771 7.1862793,29.2924194 6.82568359,29.7786255 Z" id="Shape" fill="#000000"></path>
                        <path d="M11.3604737,26.7597046 C10.3752441,27.1570435 9.86724856,28.1230469 10.0667724,29.2210693 C10.2598878,30.2857667 11.2117919,31.1013794 12.227356,31.1013794 C12.274353,31.1013794 12.3213501,31.0996704 12.3683471,31.0962525 C12.9647827,31.0513917 13.538147,30.730957 13.9025879,30.239624 C14.4631348,29.4838257 14.4909057,28.3652954 13.9688111,27.5795898 C13.291626,26.5601807 12.1709595,26.4332885 11.3604737,26.7597046 Z M13.2817993,29.7786255 C13.0489503,30.0926513 12.685791,30.296875 12.310669,30.3250732 C11.6386108,30.3763427 10.9588623,29.8068237 10.8272706,29.0830689 C10.6683349,28.2076417 11.1477051,27.6791382 11.6492919,27.4770508 C11.8112182,27.4121094 11.9923706,27.3749389 12.1786499,27.3749389 C12.5896607,27.3749389 13.0241699,27.5552368 13.3249512,28.0072632 C13.6616211,28.5139771 13.6428223,29.2924194 13.2817993,29.7786255 Z" id="Shape" fill="#000000"></path>
                        <path d="M18.6834716,31.1013794 C18.7304688,31.1013794 18.7774659,31.0996704 18.8248901,31.0962525 C19.4208984,31.0513917 19.9942628,30.730957 20.3591309,30.239624 C20.9192505,29.4838257 20.9470215,28.3652954 20.4249268,27.5795898 C19.7477417,26.5601807 18.6270753,26.4332885 17.8165893,26.7601318 C16.8313599,27.1570435 16.3233643,28.1230469 16.5228882,29.2214966 C16.7164307,30.2861939 17.6683349,31.1013794 18.6834716,31.1013794 Z M18.1058349,27.4770508 C18.6253662,27.2681275 19.3448487,27.3505859 19.7810669,28.0072632 C20.1181641,28.5139771 20.098938,29.2924194 19.7379151,29.7786255 C19.5054932,30.0926513 19.142334,30.296875 18.7667846,30.3250732 C18.0964355,30.3763427 17.414978,29.807251 17.2838135,29.0830689 C17.1244507,28.2072143 17.604248,27.6791382 18.1058349,27.4770508 Z" id="Shape" fill="#000000"></path>
                        <path d="M25.1400146,31.1013794 C25.1865845,31.1013794 25.2340088,31.0996704 25.2810059,31.0962525 C25.8770142,31.0513917 26.4508057,30.730957 26.8152466,30.239624 C27.3757935,29.4838257 27.4035645,28.3652954 26.8814698,27.5795898 C26.2038574,26.5601807 25.0836182,26.4332885 24.2731323,26.7601318 C23.2874755,27.1570435 22.7799073,28.1230469 22.9794311,29.2214966 C23.1725464,30.2861939 24.1244507,31.1013794 25.1400146,31.1013794 Z M24.5623779,27.4770508 C24.723877,27.4116822 24.9050293,27.3749389 25.0913086,27.3749389 C25.5023193,27.3749389 25.9372559,27.5552368 26.2376099,28.0072632 C26.5742798,28.5139771 26.555481,29.2924194 26.1944581,29.7786255 C25.9616089,30.0926513 25.5984497,30.296875 25.2233276,30.3250732 C24.5512695,30.3763427 23.871521,29.8068237 23.7399292,29.0830689 C23.5809936,28.2072143 24.0603638,27.6791382 24.5623779,27.4770508 Z" id="Shape" fill="#000000"></path>
                        <path d="M33.3375854,27.5795898 C32.6604004,26.5601807 31.5397339,26.4332885 30.729248,26.7601318 C29.7440185,27.1570435 29.2360229,28.1230469 29.4355469,29.2214966 C29.6286621,30.2861939 30.5805664,31.1013794 31.5961303,31.1013794 C31.6431275,31.1013794 31.6901245,31.0996704 31.7371216,31.0962525 C32.3335572,31.0513917 32.9069214,30.730957 33.2713623,30.239624 C33.8319091,29.4838257 33.8596802,28.3652954 33.3375854,27.5795898 Z M32.6505737,29.7786255 C32.4177246,30.0926513 32.0545654,30.296875 31.6794434,30.3250732 C31.0069581,30.3759155 30.3276367,29.8068237 30.1960449,29.0830689 C30.0371094,28.2072143 30.5164794,27.6791382 31.0184936,27.4770508 C31.5380249,27.2677003 32.2570801,27.3505859 32.6937255,28.0072632 C33.0303956,28.5139771 33.0115966,29.2924194 32.6505737,29.7786255 Z" id="Shape" fill="#000000"></path>
                        <path d="M38.0522461,31.1013794 C38.0992432,31.1013794 38.1466675,31.0996704 38.1936646,31.0962525 C38.7896729,31.0513917 39.3634643,30.730957 39.7279052,30.239624 C40.2884521,29.4838257 40.3162232,28.3652954 39.7937012,27.5795898 C39.1165161,26.5601807 37.9958496,26.4332885 37.185791,26.7601318 C36.2001342,27.1570435 35.6921387,28.1230469 35.8916626,29.2214966 C36.0852051,30.2861939 37.0366822,31.1013794 38.0522461,31.1013794 Z M37.4746094,27.4770508 C37.6365357,27.4116822 37.817688,27.3749389 38.0035401,27.3749389 C38.414978,27.3749389 38.8494872,27.5552368 39.1498413,28.0072632 C39.4869385,28.5139771 39.4677124,29.2924194 39.1066895,29.7786255 C38.8742676,30.0926513 38.5111083,30.296875 38.1355591,30.3250732 C37.4652099,30.3763427 36.7841797,29.807251 36.6525879,29.0830689 C36.4932251,28.2072143 36.9730224,27.6791382 37.4746094,27.4770508 Z" id="Shape" fill="#000000"></path>
                        <path d="M44.5087891,31.1013794 C44.5553589,31.1013794 44.6027832,31.0996704 44.6497802,31.0962525 C45.2462159,31.0509643 45.8195801,30.730957 46.184021,30.239624 C46.7445678,29.4838257 46.7723388,28.3652954 46.2502441,27.5795898 C45.5730591,26.5601807 44.4523926,26.4332885 43.6419068,26.7601318 C42.65625,27.1570435 42.1486816,28.1230469 42.3482056,29.2214966 C42.5413208,30.2861939 43.4932251,31.1013794 44.5087891,31.1013794 Z M43.9311523,27.4770508 C44.0926513,27.4116822 44.2738037,27.3749389 44.4600831,27.3749389 C44.8710938,27.3749389 45.3060302,27.5552368 45.6063842,28.0072632 C45.9430542,28.5139771 45.9242553,29.2924194 45.5632324,29.7786255 C45.3303833,30.0926513 44.9672241,30.296875 44.5921021,30.3250732 C43.9217529,30.3763427 43.2402954,29.8068237 43.1087036,29.0830689 C42.9497681,28.2072143 43.4291382,27.6791382 43.9311523,27.4770508 Z" id="Shape" fill="#000000"></path>
                        <path d="M4.90435794,33.6238404 C3.91870117,34.020752 3.41113281,34.9871826 3.61022944,36.0852051 C3.803772,37.1499023 4.7556763,37.9650879 5.77081302,37.9650879 C5.81781003,37.9650879 5.86523438,37.9633789 5.9122315,37.9599609 C6.50823972,37.9151001 7.08160403,37.5950927 7.44647214,37.1033325 C8.00701902,36.3479615 8.03479009,35.2290039 7.51269531,34.4432983 C6.83508306,33.4238892 5.71484375,33.2974243 4.90435794,33.6238404 Z M6.82568359,36.6427612 C6.5928345,36.9563599 6.22967527,37.1605835 5.85412603,37.1887818 C5.18292239,37.2400513 4.50274661,36.6709595 4.37115481,35.9472046 C4.21179194,35.0713501 4.69158933,34.543274 5.1931763,34.3411865 C5.35510259,34.2758178 5.53625494,34.2390747 5.72210691,34.2390747 C6.13354492,34.2390747 6.56805417,34.4189453 6.8684082,34.871399 C7.20550534,35.3781128 7.1862793,36.1561279 6.82568359,36.6427612 Z" id="Shape" fill="#000000"></path>
                        <path d="M11.3604737,33.6238404 C10.3752441,34.020752 9.86724856,34.9871826 10.0667724,36.0852051 C10.2598878,37.1499023 11.2117919,37.9650879 12.2269287,37.9650879 C12.274353,37.9650879 12.3213501,37.9633789 12.3683471,37.9599609 C12.9643555,37.9151001 13.538147,37.5950927 13.9025879,37.1033325 C14.4631348,36.3479615 14.4909057,35.2290039 13.9688111,34.4432983 C13.291626,33.4238892 12.1709595,33.2974243 11.3604737,33.6238404 Z M13.2817993,36.6427612 C13.0489503,36.9563599 12.685791,37.1605835 12.310669,37.1887818 C11.6386108,37.2400513 10.9588623,36.6709595 10.8272706,35.9472046 C10.6683349,35.0713501 11.1477051,34.543274 11.6492919,34.3411865 C11.8112182,34.2758178 11.9923706,34.2390747 12.1786499,34.2390747 C12.5896607,34.2390747 13.0241699,34.4189453 13.3249512,34.871399 C13.6616211,35.3781128 13.6428223,36.1561279 13.2817993,36.6427612 Z" id="Shape" fill="#000000"></path>
                        <path d="M18.6834716,37.9650879 C18.7304688,37.9650879 18.7774659,37.9633789 18.8248901,37.9599609 C19.4208984,37.9151001 19.9942628,37.5950927 20.3591309,37.1033325 C20.9196777,36.3479615 20.9474487,35.2290039 20.4249268,34.4432983 C19.7477417,33.4238892 18.6270753,33.2969971 17.8170167,33.6238404 C16.8313599,34.020752 16.3233643,34.9871826 16.5228882,36.0852051 C16.7164307,37.1499023 17.6679077,37.9650879 18.6834716,37.9650879 Z M18.1058349,34.3407592 C18.6253662,34.1318359 19.3448487,34.2142944 19.7810669,34.871399 C20.1181641,35.3781128 20.098938,36.1561279 19.7379151,36.6427612 C19.5050659,36.9563599 19.142334,37.1605835 18.7667846,37.1887818 C18.0964355,37.2400513 17.414978,36.6709595 17.2838135,35.9472046 C17.1244507,35.0713501 17.604248,34.543274 18.1058349,34.3407592 Z" id="Shape" fill="#000000"></path>
                        <path d="M25.1395874,37.9650879 C25.1865845,37.9650879 25.2340088,37.9633789 25.2810059,37.9599609 C25.8770142,37.9151001 26.4503784,37.5950927 26.8152466,37.1033325 C27.3757935,36.3479615 27.4035645,35.2290039 26.8814698,34.4432983 C26.2038574,33.4238892 25.0831909,33.2974243 24.2731323,33.6238404 C23.2874755,34.020752 22.7799073,34.9871826 22.9790039,36.0852051 C23.1725464,37.1499023 24.1244507,37.9650879 25.1395874,37.9650879 Z M24.5623779,34.3407592 C24.723877,34.2758178 24.9050293,34.2386474 25.0913086,34.2386474 C25.5023193,34.2386474 25.9372559,34.4189453 26.2376099,34.8709716 C26.5742798,35.3781128 26.555481,36.1561279 26.1944581,36.6427612 C25.9616089,36.9563599 25.5984497,37.1605835 25.2233276,37.1887818 C24.5512695,37.2400513 23.871521,36.6709595 23.7399292,35.9472046 C23.5809936,35.0713501 24.0603638,34.543274 24.5623779,34.3407592 Z" id="Shape" fill="#000000"></path>
                        <path d="M30.729248,33.6238404 C29.7440185,34.020752 29.2360229,34.9871826 29.4355469,36.0852051 C29.6286621,37.1499023 30.5805664,37.9650879 31.5957031,37.9650879 C31.6431275,37.9650879 31.6901245,37.9633789 31.7371216,37.9599609 C32.3331299,37.9151001 32.9069214,37.5950927 33.2713623,37.1033325 C33.8319091,36.3479615 33.8596802,35.2290039 33.3375854,34.4432983 C32.6604004,33.4238892 31.5397339,33.2974243 30.729248,33.6238404 Z M32.6505737,36.6427612 C32.4177246,36.9563599 32.0545654,37.1605835 31.6794434,37.1887818 C31.0069581,37.2400513 30.3276367,36.6705323 30.1960449,35.9467773 C30.0371094,35.0713501 30.5164794,34.5428466 31.0184936,34.3407592 C31.5380249,34.1314087 32.2570801,34.2142944 32.6937255,34.8709716 C33.0303956,35.3781128 33.0115966,36.1561279 32.6505737,36.6427612 Z" id="Shape" fill="#000000"></path>
                        <path d="M38.0522461,37.9650879 C38.0992432,37.9650879 38.1462402,37.9633789 38.1936646,37.9599609 C38.7896729,37.9151001 39.3630371,37.5950927 39.7279052,37.1033325 C40.2884521,36.3479615 40.3162232,35.2290039 39.7937012,34.4432983 C39.1165161,33.4238892 37.9958496,33.2974243 37.185791,33.6238404 C36.2001342,34.020752 35.6921387,34.9871826 35.8916626,36.0852051 C36.0852051,37.1499023 37.0366822,37.9650879 38.0522461,37.9650879 Z M37.4746094,34.3407592 C37.6365357,34.2758178 37.817688,34.2386474 38.0035401,34.2386474 C38.414978,34.2386474 38.8494872,34.4189453 39.1498413,34.8709716 C39.4869385,35.3781128 39.4677124,36.1561279 39.1066895,36.6427612 C38.8738404,36.9563599 38.5111083,37.1605835 38.1355591,37.1887818 C37.4652099,37.2400513 36.7841797,36.6709595 36.6525879,35.9472046 C36.4932251,35.0713501 36.9730224,34.543274 37.4746094,34.3407592 Z" id="Shape" fill="#000000"></path>
                        <path d="M44.5083618,37.9650879 C44.5553589,37.9650879 44.6027832,37.9633789 44.6497802,37.9599609 C45.2457885,37.9151001 45.8195801,37.5946655 46.184021,37.1033325 C46.7445678,36.3479615 46.7723388,35.2290039 46.2502441,34.4432983 C45.5726318,33.4238892 44.4519654,33.2974243 43.6419068,33.6238404 C42.65625,34.020752 42.1486816,34.9871826 42.3477784,36.0852051 C42.5413208,37.1499023 43.4932251,37.9650879 44.5083618,37.9650879 Z M43.9311523,34.3407592 C44.0926513,34.2758178 44.2738037,34.2386474 44.4600831,34.2386474 C44.8710938,34.2386474 45.3060302,34.4189453 45.6063843,34.8709716 C45.9430542,35.3781128 45.9242553,36.1561279 45.5632324,36.6427612 C45.3303833,36.9563599 44.9672241,37.1605835 44.5921021,37.1887818 C43.9217529,37.2391967 43.2402954,36.6705323 43.1087036,35.9467773 C42.9497681,35.0713501 43.4291382,34.543274 43.9311523,34.3407592 Z" id="Shape" fill="#000000"></path>
                        <path d="M4.90435794,40.2568359 C3.91870117,40.6541747 3.41113281,41.6201782 3.61022944,42.7182007 C3.803772,43.7828979 4.7556763,44.5985107 5.77081302,44.5985107 C5.81781003,44.5985107 5.86523438,44.5968018 5.9122315,44.5929565 C6.50823972,44.5480957 7.08160403,44.2280884 7.44647214,43.7367553 C8.00701902,42.980957 8.03479009,41.8624268 7.51269531,41.0767212 C6.83508306,40.057312 5.71441653,39.9304199 4.90435794,40.2568359 Z M6.82568359,43.2757568 C6.5928345,43.5893555 6.22967527,43.7935792 5.85412603,43.8217773 C5.18249506,43.8726197 4.50274661,43.3039551 4.37115481,42.5802002 C4.21179194,41.7043457 4.69158933,41.1762695 5.1931763,40.9741822 C5.35510259,40.9088135 5.53625494,40.8720703 5.72253413,40.8720703 C6.13354492,40.8720703 6.56805417,41.0519409 6.8684082,41.5043945 C7.20550534,42.0111083 7.1862793,42.7891236 6.82568359,43.2757568 Z" id="Shape" fill="#000000"></path>
                        <path d="M11.3604737,40.2568359 C10.3752441,40.6541747 9.86724856,41.6201782 10.0667724,42.7182007 C10.2598878,43.7828979 11.2117919,44.5985107 12.2269287,44.5985107 C12.2739258,44.5985107 12.3213501,44.5968018 12.3683471,44.5929565 C12.9643555,44.5480957 13.538147,44.2280884 13.9025879,43.7367553 C14.4631348,42.980957 14.4909057,41.8624268 13.9688111,41.0767212 C13.291626,40.057312 12.1705323,39.9304199 11.3604737,40.2568359 Z M13.2817993,43.2757568 C13.0489503,43.5893555 12.685791,43.7935792 12.310669,43.8217773 C11.639038,43.8726197 10.9588623,43.3039551 10.8272706,42.5802002 C10.6683349,41.7043457 11.1477051,41.1762695 11.6492919,40.9741822 C11.8112182,40.9088135 11.9923706,40.8720703 12.1786499,40.8720703 C12.5896607,40.8720703 13.0241699,41.0519409 13.3249512,41.5043945 C13.6616211,42.0111083 13.6428223,42.7891236 13.2817993,43.2757568 Z" id="Shape" fill="#000000"></path>
                        <path d="M18.6834716,44.5980835 C18.7304688,44.5980835 18.7774659,44.5963745 18.8248901,44.5929565 C19.4208984,44.5480957 19.9942628,44.2280884 20.3591309,43.7363281 C20.9196777,42.980957 20.9474487,41.8624268 20.4249268,41.0767212 C19.7477417,40.057312 18.6270753,39.9304199 17.8170167,40.2572632 C16.8313599,40.6541747 16.3233643,41.6201783 16.5228882,42.7186279 C16.7164307,43.7828979 17.6679077,44.5980835 18.6834716,44.5980835 Z M18.1058349,40.9741822 C18.6253662,40.7648315 19.3444214,40.8472901 19.7810669,41.5043945 C20.1177368,42.0111083 20.098938,42.7891236 19.7379151,43.2757568 C19.5050659,43.5893555 19.142334,43.7935792 18.7667846,43.8217773 C18.0942993,43.8721924 17.414978,43.3039551 17.2833862,42.5802002 C17.1244507,41.7043457 17.604248,41.1762695 18.1058349,40.9741822 Z" id="Shape" fill="#000000"></path>
                        <path d="M25.1395874,44.5980835 C25.1865845,44.5980835 25.2340088,44.5963745 25.2810059,44.5929565 C25.8770142,44.5480957 26.4503784,44.2280884 26.8152466,43.7363281 C27.3757935,42.980957 27.4035645,41.8624268 26.8814698,41.0767212 C26.2038574,40.057312 25.0831909,39.9304199 24.2731323,40.2572632 C23.2874755,40.6541747 22.7799073,41.6201783 22.9790039,42.7186279 C23.1725464,43.7828979 24.1244507,44.5980835 25.1395874,44.5980835 Z M24.5619507,40.9741822 C24.723877,40.9088135 24.9050293,40.8720703 25.0913086,40.8720703 C25.5023193,40.8720703 25.9368286,41.0519409 26.2376099,41.5043945 C26.5742798,42.0111083 26.555481,42.7891236 26.1944581,43.2757568 C25.9616089,43.5893555 25.5984497,43.7935792 25.2233276,43.8217773 C24.5516967,43.8726197 23.871521,43.3039551 23.7399292,42.5802002 C23.5809936,41.7043457 24.0603638,41.1762695 24.5619507,40.9741822 Z" id="Shape" fill="#000000"></path>
                        <path d="M31.5957031,44.5980835 C31.6431275,44.5980835 31.6901245,44.5963745 31.7371216,44.5929565 C32.3335572,44.5480957 32.9069214,44.2280884 33.2713623,43.7363281 C33.8319091,42.980957 33.8596802,41.8624268 33.3375854,41.0767212 C32.6604004,40.057312 31.5397339,39.9304199 30.729248,40.2572632 C29.7440185,40.6541747 29.2360229,41.6201783 29.4355469,42.7186279 C29.6290893,43.7828979 30.5805664,44.5980835 31.5957031,44.5980835 Z M31.0184936,40.9741822 C31.5380249,40.7648315 32.2570801,40.8477173 32.6937255,41.5043945 C33.0303956,42.0111083 33.0115966,42.7891236 32.6505737,43.2757568 C32.4177246,43.5897827 32.0545654,43.7940064 31.6794434,43.8217773 C31.0078125,43.8726197 30.3276367,43.3039551 30.1960449,42.5802002 C30.0371094,41.7043457 30.5164794,41.1762695 31.0184936,40.9741822 Z" id="Shape" fill="#000000"></path>
                        <path d="M37.185791,40.2568359 C36.2001342,40.6541747 35.6925659,41.6201782 35.8916626,42.7182007 C36.0852051,43.7828979 37.0366822,44.5985107 38.0522461,44.5985107 C38.0992432,44.5985107 38.1466675,44.5968018 38.1936646,44.5929565 C38.7896729,44.5480957 39.3634643,44.2280884 39.7279052,43.7367553 C40.2884521,42.980957 40.3162232,41.8624268 39.7941284,41.0767212 C39.1165161,40.057312 37.9958496,39.9304199 37.185791,40.2568359 Z M39.1066895,43.2757568 C38.8738404,43.5893555 38.5111083,43.7935792 38.1355591,43.8217773 C37.4639283,43.8726197 36.7841797,43.3039551 36.6525879,42.5802002 C36.4936523,41.7043457 36.9730224,41.1762695 37.4746094,40.9741822 C37.6365357,40.9088135 37.817688,40.8720703 38.0039673,40.8720703 C38.414978,40.8720703 38.8494872,41.0519409 39.1502685,41.5043945 C39.4869385,42.0111083 39.4677124,42.7891236 39.1066895,43.2757568 Z" id="Shape" fill="#000000"></path>
                        <path d="M44.5083618,44.5980835 C44.5553589,44.5980835 44.6027832,44.5963745 44.6497802,44.5929565 C45.2457885,44.5480957 45.8195801,44.2280884 46.184021,43.7363281 C46.7445678,42.980957 46.7723388,41.8624268 46.2502441,41.0767212 C45.5726318,40.057312 44.4519654,39.9304199 43.6419068,40.2572632 C42.65625,40.6541747 42.1486816,41.6201783 42.3477784,42.7186279 C42.5413208,43.7828979 43.4932251,44.5980835 44.5083618,44.5980835 Z M43.9307251,40.9741822 C44.0926513,40.9088135 44.2738037,40.8720703 44.4600831,40.8720703 C44.8710938,40.8720703 45.305603,41.0519409 45.6063843,41.5043945 C45.9430542,42.0111083 45.9242553,42.7891236 45.5632324,43.2757568 C45.3303833,43.5897827 44.9672241,43.7940064 44.5921021,43.8217773 C43.9204712,43.8726197 43.2402954,43.3039551 43.1087036,42.5802002 C42.9497681,41.7043457 43.4291382,41.1762695 43.9307251,40.9741822 Z" id="Shape" fill="#000000"></path>
                        <path d="M38.7888184,39.399353 C37.5053711,39.1344604 36.2569581,39.5527344 35.4503174,40.5183105 C34.4296264,41.7398072 34.4138184,43.6671143 35.4144287,44.9052734 C36.0723877,45.7191772 37.1135865,46.1665039 38.1500854,46.1665039 C38.6901245,46.1665039 39.2284546,46.045166 39.7112427,45.7913818 C41.119873,45.0496826 41.8675537,43.2740479 41.4138184,41.7483521 C41.0600586,40.5601807 40.0543213,39.6604004 38.7888184,39.399353 Z M39.50531,45.4000245 C38.2765503,46.046875 36.6307983,45.7072143 35.7579346,44.6275635 C34.885498,43.5474854 34.8991699,41.8671264 35.7895508,40.8015747 C36.4898072,39.9628906 37.5775757,39.6005859 38.699524,39.831726 C39.8218995,40.0632935 40.6781005,40.8267823 40.9899902,41.8739624 C41.3860474,43.204834 40.7336426,44.753601 39.50531,45.4000245 Z" id="Shape" fill="#000000"></path>
                    </g>
                </g>
            </g>
        </g>
    </g>
</svg>