<?xml version="1.0" encoding="UTF-8"?>
<svg width="60px" height="61px" viewBox="0 0 60 61" version="1.1" xmlns="http://www.w3.org/2000/svg" xmlns:xlink="http://www.w3.org/1999/xlink">
    <title>7074B61B-8887-4186-A89D-BCDECFF85D3C</title>
    <g id="Today--------------------------------------------" stroke="none" stroke-width="1" fill="none" fill-rule="evenodd">
        <g id="AFS-1334" transform="translate(-784.000000, -250.000000)">
            <g id="Menu1" transform="translate(756.000000, 236.510417)">
                <g id="Icons/Menu/Plan" transform="translate(28.000000, 14.000000)">
                    <g id="Group-3" transform="translate(0.000000, 7.500000)">
                        <path d="M37.5,0 C49.9264069,0 60,10.0735931 60,22.5 C60,34.9264069 49.9264069,45 37.5,45 C25.1317166,45 15.0942883,35.0204233 15.0006604,22.6742153 L15.0052596,22.5265631 C15.0819671,21.4394746 15.9881597,20.5813953 17.0947674,20.5813953 C18.2516756,20.5813953 19.1895349,21.5192547 19.1895349,22.6761628 C19.1895349,22.690679 19.1893872,22.7051607 19.1890933,22.7196065 L19.1890086,22.8327435 C19.3664852,32.7937345 27.4966313,40.8139535 37.5,40.8139535 C47.6145172,40.8139535 55.8139535,32.6145172 55.8139535,22.5 C55.8139535,12.3854828 47.6145172,4.18604651 37.5,4.18604651 L0,4.18604651 L0,0 L37.5,0 Z" id="Combined-Shape" fill="#64C6FD"></path>
                        <path d="M37.5872093,6.45348837 C46.4976173,6.45348837 53.7209302,13.6768013 53.7209302,22.5872093 C53.7209302,31.4976173 46.4976173,38.7209302 37.5872093,38.7209302 L37.523,38.7194884 L37.5017442,38.7209302 C36.3951364,38.7209302 35.4889438,37.862851 35.4122363,36.7757625 L35.4069767,36.6261628 C35.4069767,35.4692547 36.3448361,34.5313953 37.5017442,34.5313953 C37.5342717,34.5313953 37.5666261,34.5321367 37.5987914,34.5336035 L37.5872093,34.5348837 C44.1857277,34.5348837 49.5348837,29.1857277 49.5348837,22.5872093 C49.5348837,15.9886909 44.1857277,10.6395349 37.5872093,10.6395349 L37.4998466,10.6404884 L37.499,10.6394884 L9.9145498e-15,10.6395349 L9.9145498e-15,6.45348837 L37.5872093,6.45348837 L37.5872093,6.45348837 Z" id="Combined-Shape" fill="#92D7FD"></path>
                        <path d="M37.5,12.9069767 L37.5,12.9079767 L37.6970873,12.9107292 C42.9650832,13.0555086 47.1911337,17.3714401 47.1911337,22.6744186 C47.1911337,28.0688278 42.818101,32.4418605 37.4236919,32.4418605 C32.1593697,32.4418605 27.8677567,28.2771974 27.6638323,23.0628507 C27.6404607,22.9367905 27.628125,22.8070451 27.628125,22.6744186 C27.628125,21.5184738 28.5652034,20.5813953 29.7211483,20.5813953 C30.8770931,20.5813953 31.8141715,21.5184738 31.8141715,22.6744186 L31.8141715,22.6744186 L31.8422965,22.6744186 C31.8422965,25.7569381 34.3411723,28.255814 37.4236919,28.255814 C40.5062114,28.255814 43.0050872,25.7569381 43.0050872,22.6744186 C43.0050872,19.5918991 40.5062114,17.0930233 37.4236919,17.0930233 L0,17.0930233 L0,12.9069767 L37.5,12.9069767 Z" id="Combined-Shape" fill="#D0EDFE"></path>
                    </g>
                </g>
            </g>
        </g>
    </g>
</svg>