<?xml version="1.0" encoding="UTF-8"?>
<svg width="90px" height="90px" viewBox="0 0 90 90" version="1.1" xmlns="http://www.w3.org/2000/svg" xmlns:xlink="http://www.w3.org/1999/xlink">
    <defs>
        <rect id="path-1" x="0" y="0" width="90" height="90" rx="45"></rect>
        <filter id="filter-3">
            <feColorMatrix in="SourceGraphic" type="matrix" values="0 0 0 0 0.044524 0 0 0 0 0.183076 0 0 0 0 0.303697 0 0 0 0.200000 0"></feColorMatrix>
        </filter>
    </defs>
    <g id="" stroke="none" stroke-width="1" fill="none" fill-rule="evenodd">
        <g id="H-01-ViewMenu" transform="translate(-70.000000, -110.000000)">
            <g id="Menu" transform="translate(47.000000, 20.000000)">
                <g transform="translate(0.000000, 90.000000)" id="Character">
                    <g transform="translate(23.000000, 0.000000)" id="Group-4">
                        <mask id="mask-2" fill="white">
                            <use xlink:href="#path-1"></use>
                        </mask>
                        <use id="Mask" fill-opacity="0.2" fill="#00A4FF" xlink:href="#path-1"></use>
                        <g filter="url(#filter-3)" id="Group-2">
                            <g mask="url(#mask-2)">
                                <g transform="translate(8.000000, 10.000000)">
                                    <polygon id="Fill-80" fill="#FDCC9B" points="28.8081239 70.7134617 43.5465209 70.7134617 43.5465209 55.710244 28.8081239 55.710244"></polygon>
                                    <path d="M12.4584648,32.6771225 C12.4781093,36.1179968 9.70512184,38.921506 6.26604286,38.9421531 C2.82427078,38.9645955 0.0198638995,36.191608 2.49176631e-13,32.7516314 C-0.0205324864,29.310757 2.75245498,26.5045547 6.19243166,26.4855885 C9.63240835,26.465056 12.4368152,29.2380435 12.4584648,32.6771225" id="Fill-81" fill="#FDCC9B"></path>
                                    <path d="M9.84606034,32.6914856 C9.85952581,34.6906579 8.24726116,36.3208765 6.250782,36.3334894 C4.25340514,36.3433189 2.62318655,34.7337474 2.61061878,32.7345751 C2.59805102,30.7345051 4.20941797,29.1069796 6.20679482,29.097105 C8.20686477,29.0827418 9.83439028,30.6941088 9.84606034,32.6914856" id="Fill-82" fill="#F4B882"></path>
                                    <path d="M72.3563256,32.3243274 C72.3778703,35.764304 69.6039851,38.5705063 66.1631108,38.5884603 C62.7231341,38.6118004 59.9169318,35.8379152 59.8961702,32.3979386 C59.8756377,28.9570642 62.6495229,26.153555 66.0894996,26.1327934 C69.530374,26.1122609 72.3338831,28.8852484 72.3563256,32.3243274" id="Fill-83" fill="#FDCC9B"></path>
                                    <path d="M69.7422306,32.3404859 C69.7565937,34.3396582 68.1443291,35.9680814 66.1469522,35.9806943 C64.1504731,35.9905238 62.5193568,34.3809522 62.5076867,32.3808823 C62.4951189,30.3844031 64.1046905,28.7541845 66.1065558,28.741563 C68.1039327,28.7308444 69.7305605,30.340416 69.7422306,32.3404859" id="Fill-84" fill="#F4B882"></path>
                                    <path d="M65.9831127,34.5452309 C66.0625687,47.8634705 55.2300533,58.8234588 41.9109161,58.9015585 L30.4446264,58.9675295 C17.1263868,59.0469855 6.16639844,48.2144702 6.08560567,34.898026 L6.02592825,24.4766561 C5.94736026,11.1575188 16.7789779,0.197530507 30.095422,0.11853313 L41.5644048,0.0498979448 C54.8826444,-0.0268938593 65.8453259,10.803826 65.9225278,24.1229633 L65.9831127,34.5452309" id="Fill-85" fill="#FDCC9B"></path>
                                    <path d="M39.5158791,41.1442049 C39.5221431,42.3040301 38.0364538,43.253794 36.1988671,43.2663618 C34.359485,43.2771341 32.8621256,42.3453242 32.8549182,41.1828059 C32.8477625,40.0238785 34.3352472,39.0741146 36.1746293,39.0651376 C38.0104206,39.0525699 39.5068823,39.9861752 39.5158791,41.1442049" id="Fill-86" fill="#F4B882"></path>
                                    <path d="M54.4993276,34.7579852 C54.4993276,36.4582242 53.4903157,37.8505529 52.257777,37.8505529 C51.023443,37.8505529 50.0153288,36.4582242 50.0153288,34.7579852 C50.0153288,33.0577462 51.023443,31.6672128 52.257777,31.6672128 C53.4903157,31.6672128 54.4993276,33.0577462 54.4993276,34.7579852" id="Fill-87" fill="#352215"></path>
                                    <path d="M22.0089633,34.7579852 C22.0089633,36.4582242 20.9999513,37.8505529 19.766515,37.8505529 C18.5339764,37.8505529 17.5240668,36.4582242 17.5240668,34.7579852 C17.5240668,33.0577462 18.5339764,31.6672128 19.766515,31.6672128 C20.9999513,31.6672128 22.0089633,33.0577462 22.0089633,34.7579852" id="Fill-88" fill="#352215"></path>
                                    <path d="M28.5711318,47.9146392 C30.8162731,53.1141029 41.919893,53.1715556 43.92894,47.7512583 C44.2386456,46.918195 42.9100533,46.5627068 42.6057339,47.3858954 C40.9898785,51.7424212 31.4967278,51.2486876 29.7569901,47.2216168 C29.4050927,46.4100983 28.2219274,47.1103023 28.5711318,47.9146392" id="Fill-89" fill="#F1A58D"></path>
                                    <path d="M35.8721052,69.8148666 C32.9123967,69.7493346 30.0092431,65.1926223 28.8081239,63.211404 C28.8081239,63.211404 5.38629934,62.6691947 0.000114555317,76.4210222 C16.1917969,78.8070074 28.4292016,80 36.7123288,80 C44.4718533,80 56.298426,78.8070074 72.1920469,76.4210222 C66.8049645,62.6691947 43.5465209,63.211404 43.5465209,63.211404 C42.2628135,65.3290723 39.0346934,69.8857847 35.8721052,69.8148666 Z" id="Fill-90" fill="#FDCC9B"></path>
                                    <path d="M48.7720178,27.5485768 C50.9031516,26.4237619 53.57829,26.474033 55.4858971,28.0010164 C56.0218225,28.426525 56.7848654,27.6733568 56.2444515,27.2415643 C53.9400621,25.4003868 50.8286427,25.251369 48.2316039,26.6221531 C47.6211696,26.9453242 48.1624812,27.8690548 48.7720178,27.5485768" id="Fill-91" fill="#966544"></path>
                                    <path d="M23.2361157,27.5485768 C21.1040842,26.4237619 18.4289458,26.474033 16.5213387,28.0010164 C15.9872087,28.426525 15.2250635,27.6733568 15.7627843,27.2415643 C18.0680714,25.4003868 21.1785931,25.251369 23.7765296,26.6221531 C24.3869639,26.9453242 23.8456523,27.8690548 23.2361157,27.5485768" id="Fill-92" fill="#966544"></path>
                                    <path d="M59.5838861,65.8353737 C59.5838861,65.8353737 55.6797998,64.0740913 50.032385,63.6458896 C50.032385,63.6458896 48.011668,68.1810572 36.1773224,68.2636453 C24.3438744,68.1810572 22.3231574,63.6458896 22.3231574,63.6458896 C16.6757427,64.0740913 12.7716564,65.8353737 12.7716564,65.8353737 C13.7250111,72.8284369 7.55513641,76.4210222 7.55513641,76.4210222 L64.800406,76.4210222 C64.800406,76.4210222 58.6305313,72.8284369 59.5838861,65.8353737" id="Fill-93" fill="#EB82A0"></path>
                                </g>
                            </g>
                        </g>
                    </g>
                </g>
            </g>
        </g>
    </g>
</svg>