<?xml version="1.0" encoding="UTF-8"?>
<svg width="24px" height="24px" viewBox="0 0 24 24" version="1.1" xmlns="http://www.w3.org/2000/svg" xmlns:xlink="http://www.w3.org/1999/xlink">
    <title>F22F4818-1FDF-4CA2-B2BB-8556A3B2DEA0</title>
    <g id="My-Study-Plans" stroke="none" stroke-width="1" fill="none" fill-rule="evenodd">
        <g id="B-06.1-StudyPlanFilter" transform="translate(-16.000000, -25.000000)">
            <g id="Elements/Graphics/Style3/Marker/Colour" transform="translate(16.000000, 25.000000)">
                <g id="Filter/Black" transform="translate(3.000000, 3.000000)">
                    <rect id="Rectangle" fill="#C7CAC7" x="0" y="8" width="11" height="1"></rect>
                    <rect id="Rectangle" fill="#C7CAC7" x="0" y="2" width="5" height="1"></rect>
                    <rect id="Rectangle" fill="#C7CAC7" x="8" y="2" width="11" height="1"></rect>
                    <rect id="Rectangle" fill="#C7CAC7" x="8" y="14" width="11" height="1"></rect>
                    <rect id="Rectangle" fill="#C7CAC7" x="14" y="8" width="5" height="1"></rect>
                    <rect id="Rectangle" fill="#C7CAC7" x="0" y="14" width="5" height="1"></rect>
                    <path d="M6.5,0 C7.88071187,0 9,1.11928813 9,2.5 C9,3.88071187 7.88071187,5 6.5,5 C5.11928813,5 4,3.88071187 4,2.5 C4,1.11928813 5.11928813,0 6.5,0 Z" id="Oval" fill="#7383BF"></path>
                    <path d="M6.5,12 C7.88071187,12 9,13.1192881 9,14.5 C9,15.8807119 7.88071187,17 6.5,17 C5.11928813,17 4,15.8807119 4,14.5 C4,13.1192881 5.11928813,12 6.5,12 Z" id="Oval" fill="#7383BF"></path>
                    <path d="M12.5,6 C13.8807119,6 15,7.11928813 15,8.5 C15,9.88071187 13.8807119,11 12.5,11 C11.1192881,11 10,9.88071187 10,8.5 C10,7.11928813 11.1192881,6 12.5,6 Z" id="Oval" fill="#26B99A"></path>
                </g>
            </g>
        </g>
    </g>
</svg>