<?xml version="1.0" encoding="UTF-8"?>
<svg width="40px" height="40px" viewBox="0 0 40 40" version="1.1" xmlns="http://www.w3.org/2000/svg" xmlns:xlink="http://www.w3.org/1999/xlink">
    <title>F1A9057D-05C9-4BEF-925C-48F48144A985</title>
    <defs>
        <linearGradient x1="8.75800756%" y1="44.4949939%" x2="78.2934029%" y2="54.1275235%" id="linearGradient-1">
            <stop stop-color="#9B7AEC" offset="8.1993%"></stop>
            <stop stop-color="#4E4FCE" offset="15.69%"></stop>
            <stop stop-color="#9B7AEC" offset="22.27%"></stop>
            <stop stop-color="#6A7AF5" offset="100%"></stop>
        </linearGradient>
        <linearGradient x1="-9.0417853%" y1="47.3995873%" x2="91.7654383%" y2="52.7635161%" id="linearGradient-2">
            <stop stop-color="#8B69E0" offset="9.816428%"></stop>
            <stop stop-color="#4243BD" offset="15.69%"></stop>
            <stop stop-color="#8361D4" offset="21.96%"></stop>
            <stop stop-color="#5060D7" offset="100%"></stop>
        </linearGradient>
        <linearGradient x1="82.5265098%" y1="42.9219045%" x2="-1.65481198%" y2="52.1052532%" id="linearGradient-3">
            <stop stop-color="#64B6FF" offset="1.176471%"></stop>
            <stop stop-color="#64E9FF" offset="72.16%"></stop>
            <stop stop-color="#3C90DB" offset="80.78%"></stop>
            <stop stop-color="#64FFFA" offset="88.63%"></stop>
        </linearGradient>
        <linearGradient x1="55.1340173%" y1="98.9618256%" x2="49.4582%" y2="43.5836403%" id="linearGradient-4">
            <stop stop-color="#FF9393" offset="0%"></stop>
            <stop stop-color="#FFC783" offset="100%"></stop>
        </linearGradient>
        <linearGradient x1="89.3277141%" y1="49.0669681%" x2="-10.6331151%" y2="50.3739808%" id="linearGradient-5">
            <stop stop-color="#649CFF" offset="1.176471%"></stop>
            <stop stop-color="#64ADFF" offset="72.16%"></stop>
            <stop stop-color="#466AD4" offset="80.78%"></stop>
            <stop stop-color="#64C7FF" offset="88.63%"></stop>
        </linearGradient>
    </defs>
    <g id="My-Study-Plans" stroke="none" stroke-width="1" fill="none" fill-rule="evenodd">
        <g id="B-06.1-StudyPlanFilter" transform="translate(-16.000000, -115.000000)" fill-rule="nonzero">
            <g id="Elements/Highlight/Expanded-Copy-4" transform="translate(16.000000, 115.000000)">
                <g id="Syllabus_A" transform="translate(2.000000, 0.000000)">
                    <g id="Group">
                        <g transform="translate(3.905325, 0.467456)" fill="#6A7AF5" id="Layer0_0_MEMBER_2_MEMBER_0_FILL_1_">
                            <polygon id="Path" points="21.6568047 3.78698225 20.9467456 2.5443787 1.10059172 0.0473372781 0.0710059172 1.36094675 0.49704142 3.59763314 2.04733728 1.83431953 18.3905325 3.90532544 17.8106509 8.46153846 20.9940828 8.86390533"></polygon>
                        </g>
                        <g transform="translate(4.497041, 1.414201)" fill="#FDFBE8" id="Layer0_0_MEMBER_2_MEMBER_1_FILL_1_">
                            <path d="M20.0118343,5.20710059 C19.8579882,4.23668639 19.8579882,3.27810651 20.035503,2.40236686 L1.83431953,0.106508876 C1.20710059,1.38777878e-17 0.733727811,0.130177515 0.390532544,0.485207101 C0.0473372781,0.840236686 -0.0473372781,1.46745562 0.142011834,2.31952663 L0.733727811,2.78106509 L20.0118343,5.20710059 Z" id="Path"></path>
                        </g>
                        <g transform="translate(3.076923, 0.112426)" fill="#9CACFF" id="Layer0_0_MEMBER_2_MEMBER_2_FILL_1_">
                            <path d="M22.5088757,3.90532544 C22.5325444,3.73964497 22.5325444,3.59763314 22.5088757,3.46745562 C22.4497041,2.93491124 22.1183432,2.63905325 21.5502959,2.50887574 L2.61538462,0.130177515 C1.98816568,0.0591715976 1.44378698,0.213017751 0.958579882,0.591715976 C0.473372781,0.970414201 0.177514793,1.47928994 0.106508876,2.09467456 L0.106508876,2.09467456 C0.0355029586,2.72189349 0.189349112,3.26627219 0.568047337,3.75147929 C0.946745562,4.23668639 1.4556213,4.53254438 2.07100592,4.6035503 L21.4319527,7.05325444 C22.2248521,7.18343195 22.5798817,7.62130178 22.4970414,8.41420118 L22.6035503,7.63313609 C22.6272189,7.46745562 22.6272189,7.32544379 22.6035503,7.19526627 C22.5680473,6.87573964 22.4378698,6.63905325 22.1893491,6.47337278 C22.0473373,6.36686391 21.8698225,6.28402367 21.6449704,6.24852071 L2.50887574,3.82248521 C2.10650888,3.77514793 1.79881657,3.59763314 1.56213018,3.26627219 C1.32544379,2.93491124 1.23076923,2.6035503 1.26627219,2.20118343 L1.26627219,2.20118343 C1.31360947,1.79881657 1.49112426,1.49112426 1.81065089,1.25443787 C2.1183432,1.01775148 2.4852071,0.923076923 2.87573964,0.958579882 L21.3727811,3.28994083 C22.1656805,3.42011834 22.5207101,3.85798817 22.4378698,4.65088757 L22.5088757,3.90532544 Z" id="Path"></path>
                        </g>
                        <g transform="translate(0.000000, 2.479290)" fill="url(#linearGradient-1)" id="Layer0_0_MEMBER_2_MEMBER_3_FILL_1_">
                            <path d="M25.5739645,6.09467456 C25.6686391,5.25443787 25.3017751,4.78106509 24.4733728,4.68639053 L5.06508876,2.23668639 C3.95266272,1.90532544 3.30177515,1.15976331 3.15976331,0 L0.118343195,24.1065089 C-0.0236686391,25.3254438 0.568047337,26.1183432 1.89349112,26.4497041 L21.5266272,28.9230769 C22.3786982,29.0295858 22.8047337,28.6982249 22.852071,27.8934911 L25.5739645,6.09467456 Z" id="Path"></path>
                        </g>
                        <g transform="translate(0.355030, 21.059172)" fill="url(#linearGradient-2)" id="Layer0_0_MEMBER_2_MEMBER_8_FILL_1_">
                            <path d="M2.22485207,2.31952663 C0.911242604,1.98816568 0.331360947,1.23076923 0.449704142,0.0118343195 L0.118343195,2.69822485 C-0.0118343195,3.90532544 0.579881657,4.66272189 1.89349112,5.00591716 L3.37278107,5.19526627 C3.5739645,5.05325444 3.78698225,5.0887574 4.01183432,5.26627219 L22.6863905,7.62130178 L23.0295858,4.93491124 L4.33136095,2.57988166 C4.1183432,2.39053254 3.90532544,2.36686391 3.69230769,2.50887574 L2.22485207,2.31952663 Z" id="Path"></path>
                        </g>
                        <g transform="translate(3.431953, 4.846154)" fill="#000000" fill-opacity="0.05882353" id="Layer0_0_MEMBER_2_MEMBER_9_FILL_1_">
                            <g>
                                <polygon id="Path" points="3.38461538 0.0710059172 3.0887574 0.0355029586 0.0355029586 24.2840237 0.331360947 24.3195266"></polygon>
                            </g>
                        </g>
                    </g>
                    <g id="Group" transform="translate(6.863905, 8.639053)">
                        <g transform="translate(0.000000, 3.544379)" fill="#352A72" fill-opacity="0.4471" id="Layer0_0_MEMBER_1_FILL">
                            <g>
                                <polygon id="Path" points="0 17.1715976 9.70414201 18.7100592 13.0059172 0.0118343195 3.32544379 1.04142012"></polygon>
                            </g>
                        </g>
                        <g transform="translate(3.313609, 0.000000)">
                            <g transform="translate(0.710059, 0.704142)" fill="#64B6FF" id="Layer0_0_MEMBER_2_MEMBER_0_FILL">
                                <polygon id="Path" points="21.5857988 1.13609467 20.6035503 0.0946745562 0.721893491 2.20118343 0.0236686391 3.71597633 0.946745562 5.79881657 2.04733728 3.72781065 18.4378698 1.98816568 18.9230769 6.55621302 22.1183432 6.21301775"></polygon>
                            </g>
                            <g transform="translate(1.420118, 1.650888)" fill="#FDFBE8" id="Layer0_0_MEMBER_2_MEMBER_1_FILL">
                                <path d="M20.4023669,2.74556213 C20.0236686,1.83431953 19.8106509,0.911242604 19.7869822,0 L1.53846154,1.92899408 C0.911242604,1.96449704 0.473372781,2.20118343 0.224852071,2.62721893 C-0.0236686391,3.05325444 0.0236686391,3.68047337 0.402366864,4.47337278 L1.07692308,4.78106509 L20.4023669,2.74556213 Z" id="Path"></path>
                            </g>
                            <g transform="translate(0.000000, 0.467456)" fill="#B8E6F5" id="Layer0_0_MEMBER_2_MEMBER_2_FILL">
                                <path d="M22.2721893,1.13609467 C22.260355,0.970414201 22.2248521,0.828402367 22.1775148,0.710059172 C22,0.213017751 21.6094675,-0.0118343195 21.0295858,-2.71050543e-19 L2.03550296,2.01183432 C1.40828402,2.08284024 0.911242604,2.35502959 0.520710059,2.84023669 C0.130177515,3.32544379 -0.0355029586,3.8816568 0.0355029586,4.49704142 L0.0355029586,4.49704142 C0.106508876,5.12426036 0.378698225,5.62130178 0.863905325,6.01183432 C1.34911243,6.40236686 1.90532544,6.56804734 2.52071006,6.49704142 L21.9289941,4.44970414 C22.7218935,4.39053254 23.1715976,4.74556213 23.2781065,5.52662722 L23.1952663,4.74556213 C23.183432,4.57988166 23.147929,4.43786982 23.1005917,4.31952663 C22.9940828,4.02366864 22.8047337,3.81065089 22.5325444,3.70414201 C22.3668639,3.63313609 22.1775148,3.59763314 21.9526627,3.60946746 L2.76923077,5.63313609 C2.36686391,5.68047337 2.02366864,5.5739645 1.71597633,5.31360947 C1.40828402,5.05325444 1.24260355,4.74556213 1.19526627,4.34319527 L1.19526627,4.34319527 C1.14792899,3.9408284 1.25443787,3.59763314 1.50295858,3.28994083 C1.75147929,2.98224852 2.08284024,2.81656805 2.47337278,2.76923077 L21.0059172,0.804733728 C21.7988166,0.74556213 22.2485207,1.10059172 22.3550296,1.8816568 L22.2721893,1.13609467 Z" id="Path"></path>
                            </g>
                            <g transform="translate(0.000000, 4.846154)" fill="url(#linearGradient-3)" id="Layer0_0_MEMBER_2_MEMBER_3_FILL">
                                <path d="M23.2899408,1.20710059 C23.1952663,0.366863905 22.7337278,-0.0118343195 21.8934911,0.0828402367 L2.43786982,2.14201183 C1.27810651,2.07100592 0.485207101,1.50295858 0.0710059172,0.402366864 L2.62721893,24.5680473 C2.76923077,25.7869822 3.5147929,26.4260355 4.88757396,26.4378698 L24.556213,24.3550296 C25.408284,24.2721893 25.7514793,23.8343195 25.6094675,23.0532544 L23.2899408,1.20710059 Z" id="Path"></path>
                            </g>
                            <g transform="translate(0.000000, 0.467456)" fill="#ECFAFF" id="Layer0_0_MEMBER_2_MEMBER_5_FILL">
                                <path d="M23.2544379,5.21893491 C23.2307692,5.18343195 23.2071006,5.14792899 23.183432,5.13609467 C23.2307692,5.25443787 23.2662722,5.38461538 23.2899408,5.53846154 L23.2544379,5.21893491 M21.1952663,0.295857988 C21.6331361,0.284023669 21.9526627,0.402366864 22.1656805,0.686390533 C21.9881657,0.201183432 21.5976331,-0.0118343195 21.0177515,-1.28477957e-16 L2.03550296,2.01183432 C1.40828402,2.08284024 0.911242604,2.35502959 0.520710059,2.84023669 C0.130177515,3.32544379 -0.0355029586,3.8816568 0.0355029586,4.49704142 L0.0355029586,4.49704142 C0.0710059172,4.88757396 0.189349112,5.21893491 0.390532544,5.5147929 C0.295857988,5.30177515 0.224852071,5.05325444 0.201183432,4.79289941 L0.201183432,4.79289941 C0.130177515,4.16568047 0.307692308,3.62130178 0.686390533,3.13609467 C1.07692308,2.65088757 1.59763314,2.37869822 2.20118343,2.30769231 L21.1952663,0.295857988 Z" id="Shape"></path>
                            </g>
                            <g transform="translate(3.313609, 0.118343)" fill="url(#linearGradient-4)" id="Layer0_0_MEMBER_2_MEMBER_6_FILL">
                                <polygon id="Path" points="4.37869822 0.0946745562 2.31952663 1.28994083 0.0473372781 0.556213018 0.520710059 5.04142012 4.84023669 4.57988166"></polygon>
                            </g>
                            <g transform="translate(6.627219, 8.514793)" fill="#64FAFF" fill-opacity="0.5569" id="Layer0_0_MEMBER_2_MEMBER_7_FILL">
                                <g>
                                    <path d="M13.4792899,10.7928994 C14.7692308,10.6508876 15.3372781,9.9408284 15.2071006,8.66272189 L14.4852071,1.82248521 C14.3431953,0.532544379 13.6331361,-0.0355029586 12.3550296,0.0946745562 L1.82248521,1.20710059 C0.532544379,1.34911243 -0.0355029586,2.0591716 0.0946745562,3.33727811 L0.816568047,10.1893491 C0.958579882,11.4792899 1.66863905,12.0473373 2.94674556,11.9171598 L13.4792899,10.7928994 L13.4792899,10.7928994 Z" id="Path"></path>
                                </g>
                            </g>
                            <g transform="translate(2.011834, 23.426036)" fill="url(#linearGradient-5)" id="Layer0_0_MEMBER_2_MEMBER_8_FILL">
                                <path d="M2.28402367,2.29585799 C0.934911243,2.27218935 0.189349112,1.66863905 0.0355029586,0.461538462 L0.319526627,3.14792899 C0.473372781,4.34319527 1.21893491,4.95857988 2.56804734,4.98224852 L4.04733728,4.82840237 C4.21301775,4.63905325 4.4260355,4.62721893 4.68639053,4.75739645 L23.408284,2.78106509 L23.1242604,0.0946745562 L4.39053254,2.07100592 C4.14201183,1.92899408 3.92899408,1.95266272 3.75147929,2.14201183 L2.28402367,2.29585799 Z" id="Path"></path>
                            </g>
                            <g transform="translate(3.905325, 6.739645)" fill="#000000" fill-opacity="0.05882353" id="Layer0_0_MEMBER_2_MEMBER_9_FILL">
                                <g>
                                    <polygon id="Path" points="0.295857988 0.0473372781 0 0.0828402367 2.56804734 24.3786982 2.86390533 24.3431953"></polygon>
                                </g>
                            </g>
                            <g transform="translate(3.786982, 4.609467)" fill="#10213F" fill-opacity="0.1176" id="Layer0_0_MEMBER_2_MEMBER_10_FILL">
                                <g>
                                    <polygon id="Path" points="5.34911243 0.816568047 5.0295858 0.852071006 4.36686391 0.0710059172 0.0710059172 0.520710059 0.650887574 1.31360947 0.99408284 1.27810651 1.58579882 2.08284024 6.02366864 1.60946746"></polygon>
                                </g>
                            </g>
                            <g transform="translate(3.313609, 0.112426)" fill="#FFFDF7" id="Layer0_0_MEMBER_2_MEMBER_11_FILL">
                                <polygon id="Path" points="4.40236686 0.331360947 4.37869822 0.0946745562 2.31952663 1.28994083 0.0473372781 0.556213018 0.0710059172 0.792899408 2.34319527 1.52662722"></polygon>
                            </g>
                        </g>
                    </g>
                </g>
            </g>
        </g>
    </g>
</svg>