<?xml version="1.0" encoding="UTF-8"?>
<svg width="40px" height="40px" viewBox="0 0 40 40" version="1.1" xmlns="http://www.w3.org/2000/svg" xmlns:xlink="http://www.w3.org/1999/xlink">
    <title>B4B70F2E-DC83-4A69-BA8D-5D690FB12741</title>
    <g id="My-Study-Plans" stroke="none" stroke-width="1" fill="none" fill-rule="evenodd">
        <g id="B-06.1-StudyPlanFilter" transform="translate(-16.000000, -515.000000)" fill-rule="nonzero">
            <g id="Elements/Highlight/Expanded-Copy-8" transform="translate(16.000000, 515.000000)">
                <g id="calendar" transform="translate(6.666667, 6.666667)">
                    <polygon id="Path" fill="#FC3952" points="19.5238095 2.42424242 7.14285714 2.42424242 0 2.42424242 0 7.27272727 26.6666667 7.27272727 26.6666667 2.42424242"></polygon>
                    <circle id="Oval" fill="#A6051A" cx="8.88888889" cy="4.04040404" r="1"></circle>
                    <circle id="Oval" fill="#A6051A" cx="12.1212121" cy="4.04040404" r="1"></circle>
                    <circle id="Oval" fill="#A6051A" cx="14.5454545" cy="4.04040404" r="1"></circle>
                    <circle id="Oval" fill="#A6051A" cx="17.7777778" cy="4.04040404" r="1"></circle>
                    <rect id="Rectangle" fill="#EDEADA" x="0" y="7.27272727" width="26.6666667" height="19.3939394"></rect>
                    <g id="Group" transform="translate(3.232323, 10.505051)">
                        <ellipse id="Oval" fill="#DFDDCF" cx="7.16253444" cy="0.484848485" rx="1" ry="1"></ellipse>
                        <ellipse id="Oval" fill="#DFDDCF" cx="10.5050505" cy="0.484848485" rx="1" ry="1"></ellipse>
                        <ellipse id="Oval" fill="#DFDDCF" cx="13.8475666" cy="0.484848485" rx="1" ry="1"></ellipse>
                        <ellipse id="Oval" fill="#DFDDCF" cx="17.1900826" cy="0.484848485" rx="1" ry="1"></ellipse>
                        <ellipse id="Oval" fill="#DFDDCF" cx="20.5325987" cy="0.484848485" rx="1" ry="1"></ellipse>
                        <ellipse id="Oval" fill="#747474" cx="0.477502296" cy="4.36363636" rx="1" ry="1"></ellipse>
                        <ellipse id="Oval" fill="#747474" cx="3.82001837" cy="4.36363636" rx="1" ry="1"></ellipse>
                        <ellipse id="Oval" fill="#DFDDCF" cx="0.477502296" cy="0.47979798" rx="1" ry="1"></ellipse>
                        <ellipse id="Oval" fill="#DFDDCF" cx="3.82001837" cy="0.47979798" rx="1" ry="1"></ellipse>
                        <ellipse id="Oval" fill="#747474" cx="7.16253444" cy="4.36363636" rx="1" ry="1"></ellipse>
                        <ellipse id="Oval" fill="#747474" cx="10.5050505" cy="4.36363636" rx="1" ry="1"></ellipse>
                        <ellipse id="Oval" fill="#747474" cx="13.8475666" cy="4.36363636" rx="1" ry="1"></ellipse>
                        <ellipse id="Oval" fill="#747474" cx="17.1900826" cy="4.36363636" rx="1" ry="1"></ellipse>
                        <ellipse id="Oval" fill="#747474" cx="20.5325987" cy="4.36363636" rx="1" ry="1"></ellipse>
                        <ellipse id="Oval" fill="#DFDDCF" cx="0.477502296" cy="7.75757576" rx="1" ry="1"></ellipse>
                        <ellipse id="Oval" fill="#DFDDCF" cx="3.82001837" cy="7.75757576" rx="1" ry="1"></ellipse>
                        <ellipse id="Oval" fill="#DFDDCF" cx="7.16253444" cy="7.75757576" rx="1" ry="1"></ellipse>
                        <ellipse id="Oval" fill="#DFDDCF" cx="10.5050505" cy="7.75757576" rx="1" ry="1"></ellipse>
                        <ellipse id="Oval" fill="#DFDDCF" cx="13.8475666" cy="7.75757576" rx="1" ry="1"></ellipse>
                        <ellipse id="Oval" fill="#DFDDCF" cx="17.1900826" cy="7.75757576" rx="1" ry="1"></ellipse>
                        <ellipse id="Oval" fill="#DFDDCF" cx="20.5325987" cy="7.75757576" rx="1" ry="1"></ellipse>
                        <ellipse id="Oval" fill="#DFDDCF" cx="17.1900826" cy="11.629798" rx="1" ry="1"></ellipse>
                        <ellipse id="Oval" fill="#DFDDCF" cx="20.5325987" cy="11.629798" rx="1" ry="1"></ellipse>
                        <ellipse id="Oval" fill="#DFDDCF" cx="0.477502296" cy="11.6363636" rx="1" ry="1"></ellipse>
                        <ellipse id="Oval" fill="#DFDDCF" cx="3.82001837" cy="11.6363636" rx="1" ry="1"></ellipse>
                        <ellipse id="Oval" fill="#DFDDCF" cx="7.16253444" cy="11.6363636" rx="1" ry="1"></ellipse>
                        <ellipse id="Oval" fill="#DFDDCF" cx="10.5050505" cy="11.6363636" rx="1" ry="1"></ellipse>
                        <ellipse id="Oval" fill="#DFDDCF" cx="13.8475666" cy="11.6363636" rx="1" ry="1"></ellipse>
                    </g>
                    <path d="M17.6767677,0 C17.1060606,0 16.5848485,0.189575758 16.1616162,0.496969697 C16.4313131,0.693333333 16.6560606,0.939151515 16.8257576,1.22181818 C17.0686869,1.06278788 17.3616162,0.96969697 17.6767677,0.96969697 C18.5121212,0.96969697 19.1919192,1.62230303 19.1919192,2.42424242 C19.1919192,3.22618182 18.5121212,3.87878788 17.6767677,3.87878788 C17.3974747,3.87878788 17.1717172,4.09551515 17.1717172,4.36363636 C17.1717172,4.63175758 17.3974747,4.84848485 17.6767677,4.84848485 C19.0691919,4.84848485 20.2020202,3.7609697 20.2020202,2.42424242 C20.2020202,1.08751515 19.0691919,0 17.6767677,0 Z" id="Path" fill="#0052BC"></path>
                    <path d="M15.630303,1.61616162 C15.4589899,1.85532747 15.3535354,2.12870642 15.3535354,2.42424242 L16.1616162,2.42424242 C16.1616162,2.08862822 15.9507071,1.79244053 15.630303,1.61616162 Z" id="Path" fill="#A37F46"></path>
                    <path d="M13.2060606,1.61616162 C13.0347475,1.85532747 12.9292929,2.12870642 12.9292929,2.42424242 L13.7373737,2.42424242 C13.7373737,2.08862822 13.5264646,1.79244053 13.2060606,1.61616162 Z" id="Path" fill="#A37F46"></path>
                    <path d="M16.6237374,1.22181818 C16.4540404,0.939151515 16.2292929,0.693333333 15.959596,0.496969697 C15.5363636,0.189575758 15.0151515,0 14.4444444,0 C13.8737374,0 13.3525253,0.189575758 12.9292929,0.496969697 C13.1989899,0.693333333 13.4237374,0.939151515 13.5934343,1.22181818 C13.8363636,1.06278788 14.1292929,0.96969697 14.4444444,0.96969697 C14.759596,0.96969697 15.0525253,1.06278788 15.2954545,1.22181818 C15.6959596,1.48412121 15.959596,1.92484848 15.959596,2.42424242 C15.959596,3.22618182 15.279798,3.87878788 14.4444444,3.87878788 C14.1651515,3.87878788 13.9393939,4.09551515 13.9393939,4.36363636 C13.9393939,4.63175758 14.1651515,4.84848485 14.4444444,4.84848485 C15.8368687,4.84848485 16.969697,3.7609697 16.969697,2.42424242 C16.969697,1.98448485 16.8378788,1.57769697 16.6237374,1.22181818 Z" id="Path" fill="#0052BC"></path>
                    <path d="M9.97373737,1.61616162 C9.80242424,1.85532747 9.6969697,2.12870642 9.6969697,2.42424242 L10.5050505,2.42424242 C10.5050505,2.08862822 10.2941414,1.79244053 9.97373737,1.61616162 Z" id="Path" fill="#A37F46"></path>
                    <path d="M14.1994949,1.22181818 C14.029798,0.939151515 13.8050505,0.693333333 13.5353535,0.496969697 C13.1121212,0.189575758 12.5909091,0 12.020202,0 C11.4494949,0 10.9282828,0.189575758 10.5050505,0.496969697 C10.7747475,0.693333333 10.9994949,0.939151515 11.1691919,1.22181818 C11.4121212,1.06278788 11.7050505,0.96969697 12.020202,0.96969697 C12.3353535,0.96969697 12.6282828,1.06278788 12.8712121,1.22181818 C13.2717172,1.48412121 13.5353535,1.92484848 13.5353535,2.42424242 C13.5353535,3.22618182 12.8555556,3.87878788 12.020202,3.87878788 C11.7409091,3.87878788 11.5151515,4.09551515 11.5151515,4.36363636 C11.5151515,4.63175758 11.7409091,4.84848485 12.020202,4.84848485 C13.4126263,4.84848485 14.5454545,3.7609697 14.5454545,2.42424242 C14.5454545,1.98448485 14.4136364,1.57769697 14.1994949,1.22181818 Z" id="Path" fill="#0052BC"></path>
                    <path d="M10.9810101,1.22181818 C10.818101,0.939151515 10.6023434,0.693333333 10.3434343,0.496969697 C9.93713131,0.189575758 9.43676768,0 8.88888889,0 C7.55216162,0 6.46464646,1.08751515 6.46464646,2.42424242 L7.43434343,2.42424242 C7.43434343,1.62230303 8.08694949,0.96969697 8.88888889,0.96969697 C9.19143434,0.96969697 9.47264646,1.06278788 9.70585859,1.22181818 C10.0903434,1.48412121 10.3434343,1.92484848 10.3434343,2.42424242 C10.3434343,3.22618182 9.69082828,3.87878788 8.88888889,3.87878788 C8.62076768,3.87878788 8.4040404,4.09551515 8.4040404,4.36363636 C8.4040404,4.63175758 8.62076768,4.84848485 8.88888889,4.84848485 C10.2256162,4.84848485 11.3131313,3.7609697 11.3131313,2.42424242 C11.3131313,1.98448485 11.1865859,1.57769697 10.9810101,1.22181818 Z" id="Path" fill="#0052BC"></path>
                </g>
            </g>
        </g>
    </g>
</svg>